<svg xmlns="http://www.w3.org/2000/svg" xmlns:xlink="http://www.w3.org/1999/xlink" width="1000" zoomAndPan="magnify" viewBox="0 0 750 749.999995" height="1000" preserveAspectRatio="xMidYMid meet" version="1.0"><defs><g/><clipPath id="923edb74a0"><path d="M 210 69 L 535 69 L 535 552 L 210 552 Z M 210 69 " clip-rule="nonzero"/></clipPath><clipPath id="4b128e3df2"><path d="M 576.121094 531.9375 L 253.824219 571.53125 L 194.742188 90.605469 L 517.039062 51.011719 Z M 576.121094 531.9375 " clip-rule="nonzero"/></clipPath><clipPath id="5c9b87a282"><path d="M 414.972656 551.734375 C 333.480469 469.636719 224.234375 330.664062 211.550781 227.433594 C 202.316406 152.25 267.035156 82.34375 355.96875 71.421875 C 444.90625 60.496094 524.613281 112.660156 533.851562 187.839844 C 546.53125 291.070312 368.390625 404.992188 414.972656 551.734375 Z M 414.972656 551.734375 " clip-rule="nonzero"/></clipPath><clipPath id="f2a35582b7"><path d="M 0 0 L 325 0 L 325 482.761719 L 0 482.761719 Z M 0 0 " clip-rule="nonzero"/></clipPath><clipPath id="e0b1d3aedc"><path d="M 366.121094 462.9375 L 43.824219 502.53125 L -15.257812 21.605469 L 307.039062 -17.988281 Z M 366.121094 462.9375 " clip-rule="nonzero"/></clipPath><clipPath id="7a912a0ec1"><path d="M 204.972656 482.734375 C 123.480469 400.636719 14.234375 261.664062 1.550781 158.433594 C -7.683594 83.25 57.035156 13.34375 145.96875 2.421875 C 234.90625 -8.503906 314.613281 43.660156 323.851562 118.839844 C 336.53125 222.070312 158.390625 335.992188 204.972656 482.734375 Z M 204.972656 482.734375 " clip-rule="nonzero"/></clipPath><clipPath id="091da59210"><rect x="0" width="325" y="0" height="483"/></clipPath><clipPath id="c53315c8ba"><path d="M 210 69 L 535 69 L 535 552 L 210 552 Z M 210 69 " clip-rule="nonzero"/></clipPath><clipPath id="7b706c1e45"><path d="M 576.121094 531.9375 L 253.792969 571.535156 L 194.808594 91.394531 L 517.136719 51.796875 Z M 576.121094 531.9375 " clip-rule="nonzero"/></clipPath><clipPath id="5182d7d024"><path d="M 576.121094 531.933594 L 253.828125 571.527344 L 194.441406 88.089844 L 516.730469 48.496094 Z M 576.121094 531.933594 " clip-rule="nonzero"/></clipPath><clipPath id="2113c529f7"><path d="M 414.976562 551.730469 C 333.484375 469.636719 224.238281 330.664062 211.558594 227.433594 C 202.320312 152.253906 267.039062 82.347656 355.96875 71.421875 C 444.90625 60.5 524.613281 112.660156 533.851562 187.839844 C 546.53125 291.070312 368.394531 404.988281 414.976562 551.730469 Z M 414.976562 551.730469 " clip-rule="nonzero"/></clipPath><clipPath id="09e1e40fae"><path d="M 186 269 L 278 269 L 278 383 L 186 383 Z M 186 269 " clip-rule="nonzero"/></clipPath><clipPath id="24e02c7453"><path d="M 289.507812 289.617188 L 228.761719 393.964844 L 174.6875 362.484375 L 235.433594 258.136719 Z M 289.507812 289.617188 " clip-rule="nonzero"/></clipPath><clipPath id="de8c598aa1"><path d="M 245.257812 365.625 C 236.152344 381.269531 216.664062 386.902344 201.730469 378.210938 C 186.800781 369.515625 182.078125 349.789062 191.183594 334.144531 L 218.945312 286.464844 C 228.050781 270.820312 247.539062 265.1875 262.472656 273.878906 C 277.402344 282.570312 282.125 302.300781 273.019531 317.945312 Z M 245.257812 365.625 " clip-rule="nonzero"/></clipPath><clipPath id="54208849a6"><path d="M 0 0 L 92 0 L 92 114 L 0 114 Z M 0 0 " clip-rule="nonzero"/></clipPath><clipPath id="8847991546"><path d="M 103.507812 20.617188 L 42.761719 124.964844 L -11.3125 93.484375 L 49.433594 -10.863281 Z M 103.507812 20.617188 " clip-rule="nonzero"/></clipPath><clipPath id="229cf695c8"><path d="M 59.257812 96.625 C 50.152344 112.269531 30.664062 117.902344 15.730469 109.210938 C 0.800781 100.515625 -3.921875 80.789062 5.183594 65.144531 L 32.945312 17.464844 C 42.050781 1.820312 61.539062 -3.8125 76.472656 4.878906 C 91.402344 13.570312 96.125 33.300781 87.019531 48.945312 Z M 59.257812 96.625 " clip-rule="nonzero"/></clipPath><clipPath id="5cdb4cb746"><rect x="0" width="92" y="0" height="114"/></clipPath><clipPath id="9122e992b0"><path d="M 186 269 L 278 269 L 278 383 L 186 383 Z M 186 269 " clip-rule="nonzero"/></clipPath><clipPath id="22f535cd36"><path d="M 289.507812 289.617188 L 228.757812 393.972656 L 174.957031 362.652344 L 235.710938 258.300781 Z M 289.507812 289.617188 " clip-rule="nonzero"/></clipPath><clipPath id="5ac1d8ba7d"><path d="M 289.507812 289.617188 L 228.707031 394.058594 L 173.832031 362.109375 L 234.632812 257.671875 Z M 289.507812 289.617188 " clip-rule="nonzero"/></clipPath><clipPath id="1cafa5cf92"><path d="M 245.261719 365.621094 C 236.15625 381.261719 216.667969 386.894531 201.738281 378.203125 C 186.808594 369.511719 182.085938 349.785156 191.191406 334.140625 L 218.949219 286.464844 C 228.054688 270.820312 247.542969 265.1875 262.472656 273.878906 C 277.402344 282.570312 282.125 302.300781 273.019531 317.941406 Z M 245.261719 365.621094 " clip-rule="nonzero"/></clipPath><clipPath id="f95e68349e"><path d="M 237 239 L 323 239 L 323 344 L 237 344 Z M 237 239 " clip-rule="nonzero"/></clipPath><clipPath id="4bd027bfed"><path d="M 288.230469 234.335938 L 328.082031 324.222656 L 271.957031 349.105469 L 232.105469 259.21875 Z M 288.230469 234.335938 " clip-rule="nonzero"/></clipPath><clipPath id="afa5131034"><path d="M 295.222656 250.105469 L 321 308.246094 C 324.859375 316.957031 320.929688 327.148438 312.222656 331.007812 L 287.636719 341.910156 C 278.925781 345.769531 268.734375 341.839844 264.875 333.128906 L 239.097656 274.988281 C 235.234375 266.28125 239.167969 256.089844 247.875 252.226562 L 272.460938 241.328125 C 281.167969 237.46875 291.359375 241.398438 295.222656 250.105469 Z M 295.222656 250.105469 " clip-rule="nonzero"/></clipPath><clipPath id="0e7141753d"><path d="M 0 0 L 86 0 L 86 105 L 0 105 Z M 0 0 " clip-rule="nonzero"/></clipPath><clipPath id="a512ce8e5a"><path d="M 51.230469 -4.664062 L 91.082031 85.222656 L 34.957031 110.105469 L -4.894531 20.21875 Z M 51.230469 -4.664062 " clip-rule="nonzero"/></clipPath><clipPath id="b3baf26cc8"><path d="M 58.222656 11.105469 L 84 69.246094 C 87.859375 77.957031 83.929688 88.148438 75.222656 92.007812 L 50.636719 102.910156 C 41.925781 106.769531 31.734375 102.839844 27.875 94.128906 L 2.097656 35.988281 C -1.765625 27.28125 2.167969 17.089844 10.875 13.226562 L 35.460938 2.328125 C 44.167969 -1.53125 54.359375 2.398438 58.222656 11.105469 Z M 58.222656 11.105469 " clip-rule="nonzero"/></clipPath><clipPath id="3446e171a1"><rect x="0" width="86" y="0" height="105"/></clipPath><clipPath id="0e81e34264"><path d="M 373 231 L 468 231 L 468 352 L 373 352 Z M 373 231 " clip-rule="nonzero"/></clipPath><clipPath id="501378bfee"><path d="M 478.652344 249.800781 L 412.617188 363.226562 L 361.675781 333.570312 L 427.710938 220.144531 Z M 478.652344 249.800781 " clip-rule="nonzero"/></clipPath><clipPath id="d651e84609"><path d="M 429.179688 334.773438 C 420.074219 350.417969 401.289062 356.460938 387.21875 348.269531 C 373.152344 340.082031 369.132812 320.761719 378.238281 305.117188 L 411.21875 248.46875 C 420.328125 232.824219 439.113281 226.78125 453.179688 234.972656 C 467.246094 243.160156 471.269531 262.480469 462.160156 278.125 Z M 429.179688 334.773438 " clip-rule="nonzero"/></clipPath><clipPath id="c43d6f812f"><path d="M 0 0 L 95 0 L 95 121 L 0 121 Z M 0 0 " clip-rule="nonzero"/></clipPath><clipPath id="a1748338a0"><path d="M 105.652344 18.800781 L 39.617188 132.226562 L -11.324219 102.570312 L 54.710938 -10.855469 Z M 105.652344 18.800781 " clip-rule="nonzero"/></clipPath><clipPath id="46fcff8229"><path d="M 56.179688 103.773438 C 47.074219 119.417969 28.289062 125.460938 14.21875 117.269531 C 0.152344 109.082031 -3.867188 89.761719 5.238281 74.117188 L 38.21875 17.46875 C 47.328125 1.824219 66.113281 -4.21875 80.179688 3.972656 C 94.246094 12.160156 98.269531 31.480469 89.160156 47.125 Z M 56.179688 103.773438 " clip-rule="nonzero"/></clipPath><clipPath id="776c6dcf2d"><rect x="0" width="95" y="0" height="121"/></clipPath><clipPath id="e06767a66b"><path d="M 373 231 L 468 231 L 468 352 L 373 352 Z M 373 231 " clip-rule="nonzero"/></clipPath><clipPath id="54a214139f"><path d="M 478.652344 249.800781 L 412.617188 363.230469 L 361.410156 333.417969 L 427.449219 219.992188 Z M 478.652344 249.800781 " clip-rule="nonzero"/></clipPath><clipPath id="b233913139"><path d="M 478.652344 249.800781 L 412.691406 363.097656 L 361.355469 333.210938 L 427.316406 219.914062 Z M 478.652344 249.800781 " clip-rule="nonzero"/></clipPath><clipPath id="ca56b31ce0"><path d="M 429.183594 334.773438 C 420.074219 350.414062 401.289062 356.457031 387.222656 348.269531 C 373.15625 340.078125 369.132812 320.757812 378.242188 305.117188 L 411.222656 248.46875 C 420.328125 232.824219 439.113281 226.78125 453.179688 234.972656 C 467.25 243.160156 471.269531 262.480469 462.164062 278.125 Z M 429.183594 334.773438 " clip-rule="nonzero"/></clipPath><clipPath id="7052ea54cf"><path d="M 381 211 L 486 211 L 486 306 L 381 306 Z M 381 211 " clip-rule="nonzero"/></clipPath><clipPath id="1689fb41e0"><path d="M 409.464844 204.699219 L 492.308594 256.933594 L 457.84375 311.597656 L 375 259.359375 Z M 409.464844 204.699219 " clip-rule="nonzero"/></clipPath><clipPath id="c2043f7c78"><path d="M 424.054688 213.898438 L 477.691406 247.71875 C 485.75 252.800781 488.164062 263.453125 483.082031 271.511719 L 467.019531 296.988281 C 461.9375 305.046875 451.285156 307.460938 443.226562 302.378906 L 389.589844 268.558594 C 381.53125 263.480469 379.117188 252.828125 384.199219 244.769531 L 400.261719 219.289062 C 405.34375 211.230469 415.996094 208.816406 424.054688 213.898438 Z M 424.054688 213.898438 " clip-rule="nonzero"/></clipPath><clipPath id="45d7251709"><path d="M 0 0 L 105 0 L 105 95 L 0 95 Z M 0 0 " clip-rule="nonzero"/></clipPath><clipPath id="36248b3546"><path d="M 28.464844 -6.300781 L 111.308594 45.933594 L 76.84375 100.597656 L -6 48.359375 Z M 28.464844 -6.300781 " clip-rule="nonzero"/></clipPath><clipPath id="77877aa650"><path d="M 43.054688 2.898438 L 96.691406 36.71875 C 104.75 41.800781 107.164062 52.453125 102.082031 60.511719 L 86.019531 85.988281 C 80.9375 94.046875 70.285156 96.460938 62.226562 91.378906 L 8.589844 57.558594 C 0.53125 52.480469 -1.882812 41.828125 3.199219 33.769531 L 19.261719 8.289062 C 24.34375 0.230469 34.996094 -2.183594 43.054688 2.898438 Z M 43.054688 2.898438 " clip-rule="nonzero"/></clipPath><clipPath id="1b4257bf2a"><rect x="0" width="105" y="0" height="95"/></clipPath><clipPath id="6c98449605"><path d="M 300.359375 169.144531 L 327.996094 169.144531 L 327.996094 205.199219 L 300.359375 205.199219 Z M 300.359375 169.144531 " clip-rule="nonzero"/></clipPath><clipPath id="ffe9f09a28"><path d="M 314.179688 169.144531 C 306.546875 169.144531 300.359375 177.203125 300.359375 187.144531 C 300.359375 197.082031 306.546875 205.144531 314.179688 205.144531 C 321.808594 205.144531 327.996094 197.082031 327.996094 187.144531 C 327.996094 177.203125 321.808594 169.144531 314.179688 169.144531 Z M 314.179688 169.144531 " clip-rule="nonzero"/></clipPath><clipPath id="fa494a5cf0"><path d="M 0.359375 0.144531 L 27.996094 0.144531 L 27.996094 36.199219 L 0.359375 36.199219 Z M 0.359375 0.144531 " clip-rule="nonzero"/></clipPath><clipPath id="6df24c1f6f"><path d="M 14.179688 0.144531 C 6.546875 0.144531 0.359375 8.203125 0.359375 18.144531 C 0.359375 28.082031 6.546875 36.144531 14.179688 36.144531 C 21.808594 36.144531 27.996094 28.082031 27.996094 18.144531 C 27.996094 8.203125 21.808594 0.144531 14.179688 0.144531 Z M 14.179688 0.144531 " clip-rule="nonzero"/></clipPath><clipPath id="54c3112c7b"><rect x="0" width="28" y="0" height="37"/></clipPath><clipPath id="23d836250f"><path d="M 357.839844 169.144531 L 385.476562 169.144531 L 385.476562 205.199219 L 357.839844 205.199219 Z M 357.839844 169.144531 " clip-rule="nonzero"/></clipPath><clipPath id="f1b504cb71"><path d="M 371.65625 169.144531 C 364.027344 169.144531 357.839844 177.203125 357.839844 187.144531 C 357.839844 197.082031 364.027344 205.144531 371.65625 205.144531 C 379.289062 205.144531 385.476562 197.082031 385.476562 187.144531 C 385.476562 177.203125 379.289062 169.144531 371.65625 169.144531 Z M 371.65625 169.144531 " clip-rule="nonzero"/></clipPath><clipPath id="576af9a654"><path d="M 0.839844 0.144531 L 28.476562 0.144531 L 28.476562 36.199219 L 0.839844 36.199219 Z M 0.839844 0.144531 " clip-rule="nonzero"/></clipPath><clipPath id="724b83ea1c"><path d="M 14.65625 0.144531 C 7.027344 0.144531 0.839844 8.203125 0.839844 18.144531 C 0.839844 28.082031 7.027344 36.144531 14.65625 36.144531 C 22.289062 36.144531 28.476562 28.082031 28.476562 18.144531 C 28.476562 8.203125 22.289062 0.144531 14.65625 0.144531 Z M 14.65625 0.144531 " clip-rule="nonzero"/></clipPath><clipPath id="3906435ba8"><rect x="0" width="29" y="0" height="37"/></clipPath><clipPath id="99cfe4e220"><path d="M 420.203125 61.261719 L 682.84375 61.261719 L 682.84375 240.558594 L 420.203125 240.558594 Z M 420.203125 61.261719 " clip-rule="nonzero"/></clipPath><clipPath id="014a20d2c2"><path d="M 603.695312 61.261719 L 498.378906 61.261719 C 455.199219 61.261719 420.203125 95.453125 420.203125 128.058594 C 420.203125 150.582031 438.550781 176.921875 465.058594 189.140625 L 465.058594 240.558594 L 518.15625 196.414062 L 603.695312 196.414062 C 647.511719 196.414062 682.511719 162.222656 682.511719 128.058594 C 682.515625 95.453125 647.511719 61.261719 603.695312 61.261719 Z M 603.695312 61.261719 " clip-rule="nonzero"/></clipPath><clipPath id="6d75714958"><path d="M 0.203125 0.261719 L 262.558594 0.261719 L 262.558594 179.558594 L 0.203125 179.558594 Z M 0.203125 0.261719 " clip-rule="nonzero"/></clipPath><clipPath id="012ca3186f"><path d="M 183.695312 0.261719 L 78.378906 0.261719 C 35.199219 0.261719 0.203125 34.453125 0.203125 67.058594 C 0.203125 89.582031 18.550781 115.921875 45.058594 128.140625 L 45.058594 179.558594 L 98.15625 135.414062 L 183.695312 135.414062 C 227.511719 135.414062 262.511719 101.222656 262.511719 67.058594 C 262.515625 34.453125 227.511719 0.261719 183.695312 0.261719 Z M 183.695312 0.261719 " clip-rule="nonzero"/></clipPath><clipPath id="f983f17b9e"><rect x="0" width="263" y="0" height="180"/></clipPath><clipPath id="4b2f4d652e"><path d="M 420.203125 61.265625 L 682.703125 61.265625 L 682.703125 240.511719 L 420.203125 240.511719 Z M 420.203125 61.265625 " clip-rule="nonzero"/></clipPath><clipPath id="311b5a2471"><path d="M 603.6875 61.265625 L 498.378906 61.265625 C 455.199219 61.265625 420.203125 95.453125 420.203125 128.058594 C 420.203125 150.582031 438.550781 176.917969 465.058594 189.136719 L 465.058594 240.554688 L 518.152344 196.414062 L 603.6875 196.414062 C 647.503906 196.414062 682.503906 162.222656 682.503906 128.058594 C 682.507812 95.453125 647.503906 61.265625 603.6875 61.265625 Z M 603.6875 61.265625 " clip-rule="nonzero"/></clipPath></defs><g fill="#000000" fill-opacity="1"><g transform="translate(269.988274, 721.347177)"><g><path d="M 9.359375 0 L 9.359375 -17.265625 L 28.296875 -17.265625 L 28.296875 -68 L 11.875 -68 L 11.875 -81.1875 C 16.664062 -82.0625 20.757812 -83.140625 24.15625 -84.421875 C 27.5625 -85.703125 30.820312 -87.300781 33.9375 -89.21875 L 49.640625 -89.21875 L 49.640625 -17.265625 L 65.71875 -17.265625 L 65.71875 0 Z M 9.359375 0 "/></g></g></g><g fill="#000000" fill-opacity="1"><g transform="translate(343.018331, 721.347177)"><g><path d="M 5.03125 0 L 5.03125 -12.234375 C 12.46875 -19.023438 18.984375 -25.335938 24.578125 -31.171875 C 30.179688 -37.015625 34.539062 -42.472656 37.65625 -47.546875 C 40.769531 -52.628906 42.328125 -57.328125 42.328125 -61.640625 C 42.328125 -65.710938 41.269531 -68.828125 39.15625 -70.984375 C 37.039062 -73.148438 34.222656 -74.234375 30.703125 -74.234375 C 27.660156 -74.234375 24.898438 -73.375 22.421875 -71.65625 C 19.941406 -69.9375 17.664062 -67.914062 15.59375 -65.59375 L 3.953125 -77.109375 C 8.347656 -81.742188 12.804688 -85.203125 17.328125 -87.484375 C 21.847656 -89.765625 27.265625 -90.90625 33.578125 -90.90625 C 39.335938 -90.90625 44.414062 -89.742188 48.8125 -87.421875 C 53.207031 -85.109375 56.644531 -81.851562 59.125 -77.65625 C 61.601562 -73.457031 62.84375 -68.519531 62.84375 -62.84375 C 62.84375 -57.726562 61.539062 -52.507812 58.9375 -47.1875 C 56.34375 -41.875 53.003906 -36.640625 48.921875 -31.484375 C 44.847656 -26.328125 40.535156 -21.429688 35.984375 -16.796875 C 38.210938 -17.109375 40.6875 -17.382812 43.40625 -17.625 C 46.125 -17.863281 48.484375 -17.984375 50.484375 -17.984375 L 66.921875 -17.984375 L 66.921875 0 Z M 5.03125 0 "/></g></g></g><g fill="#000000" fill-opacity="1"><g transform="translate(416.048387, 721.347177)"><g><path d="M 31.78125 -72.3125 L 31.78125 -48.328125 L 41.375 -48.328125 C 51.769531 -48.328125 56.96875 -52.601562 56.96875 -61.15625 C 56.96875 -65.394531 55.644531 -68.3125 53 -69.90625 C 50.363281 -71.507812 46.488281 -72.3125 41.375 -72.3125 Z M 82.5 0 L 58.515625 0 L 42.09375 -31.421875 L 31.78125 -31.421875 L 31.78125 0 L 10.3125 0 L 10.3125 -89.21875 L 43.046875 -89.21875 C 49.441406 -89.21875 55.273438 -88.378906 60.546875 -86.703125 C 65.828125 -85.023438 70.046875 -82.144531 73.203125 -78.0625 C 76.367188 -73.988281 77.953125 -68.351562 77.953125 -61.15625 C 77.953125 -54.601562 76.550781 -49.207031 73.75 -44.96875 C 70.957031 -40.726562 67.238281 -37.53125 62.59375 -35.375 Z M 82.5 0 "/></g></g></g><g clip-path="url(#923edb74a0)"><g clip-path="url(#4b128e3df2)"><g clip-path="url(#5c9b87a282)"><g transform="matrix(1, 0, 0, 1, 210, 69)"><g clip-path="url(#091da59210)"><g clip-path="url(#f2a35582b7)"><g clip-path="url(#e0b1d3aedc)"><g clip-path="url(#7a912a0ec1)"><path fill="#fcfcfd" d="M 366.121094 462.9375 L 43.824219 502.53125 L -15.257812 21.605469 L 307.039062 -17.988281 Z M 366.121094 462.9375 " fill-opacity="1" fill-rule="nonzero"/></g></g></g></g></g></g></g></g><g clip-path="url(#c53315c8ba)"><g clip-path="url(#7b706c1e45)"><g clip-path="url(#5182d7d024)"><g clip-path="url(#2113c529f7)"><path stroke-linecap="butt" transform="matrix(-0.744404, 0.0914488, -0.0914488, -0.744404, 576.121271, 531.934458)" fill="none" stroke-linejoin="miter" d="M 216.474797 0.000481334 C 310.973862 121.890749 432.954892 323.565804 432.952227 462.24084 C 432.955635 563.234411 335.942769 645.225576 216.478312 645.226779 C 97.00415 645.221542 0.00105819 563.235158 -0.00234909 462.241587 C 0.000315562 323.566552 254.264027 201.76996 216.474797 0.000481334 Z M 216.474797 0.000481334 " stroke="#000000" stroke-width="40" stroke-opacity="1" stroke-miterlimit="4"/></g></g></g></g><g clip-path="url(#09e1e40fae)"><g clip-path="url(#24e02c7453)"><g clip-path="url(#de8c598aa1)"><g transform="matrix(1, 0, 0, 1, 186, 269)"><g clip-path="url(#5cdb4cb746)"><g clip-path="url(#54208849a6)"><g clip-path="url(#8847991546)"><g clip-path="url(#229cf695c8)"><path fill="#fcfcfd" d="M 103.507812 20.617188 L 42.761719 124.964844 L -11.3125 93.484375 L 49.433594 -10.863281 Z M 103.507812 20.617188 " fill-opacity="1" fill-rule="nonzero"/></g></g></g></g></g></g></g></g><g clip-path="url(#9122e992b0)"><g clip-path="url(#22f535cd36)"><g clip-path="url(#5ac1d8ba7d)"><g clip-path="url(#1cafa5cf92)"><path stroke-linecap="butt" transform="matrix(-0.377346, 0.648159, -0.648159, -0.377346, 289.507988, 289.618628)" fill="none" stroke-linejoin="miter" d="M 117.258368 -0.00102214 C 141.389077 -0.00125109 160.953125 18.676066 160.953548 41.709805 C 160.953971 64.743544 141.391521 83.418683 117.256311 83.421532 L 43.699361 83.419342 C 19.564151 83.422191 0.000102491 64.744874 -0.000320644 41.711135 C -0.00074378 18.677396 19.566208 -0.000362812 43.696917 -0.000591759 Z M 117.258368 -0.00102214 " stroke="#000000" stroke-width="40" stroke-opacity="1" stroke-miterlimit="4"/></g></g></g></g><g clip-path="url(#f95e68349e)"><g clip-path="url(#4bd027bfed)"><g clip-path="url(#afa5131034)"><g transform="matrix(1, 0, 0, 1, 237, 239)"><g clip-path="url(#3446e171a1)"><g clip-path="url(#0e7141753d)"><g clip-path="url(#a512ce8e5a)"><g clip-path="url(#b3baf26cc8)"><path fill="#fcfcfd" d="M 51.230469 -4.664062 L 90.984375 85.003906 L 34.859375 109.886719 L -4.894531 20.21875 Z M 51.230469 -4.664062 " fill-opacity="1" fill-rule="nonzero"/></g></g></g></g></g></g></g></g><g clip-path="url(#0e81e34264)"><g clip-path="url(#501378bfee)"><g clip-path="url(#d651e84609)"><g transform="matrix(1, 0, 0, 1, 373, 231)"><g clip-path="url(#776c6dcf2d)"><g clip-path="url(#c43d6f812f)"><g clip-path="url(#a1748338a0)"><g clip-path="url(#46fcff8229)"><path fill="#fcfcfd" d="M 105.652344 18.800781 L 39.734375 132.027344 L -11.210938 102.371094 L 54.710938 -10.855469 Z M 105.652344 18.800781 " fill-opacity="1" fill-rule="nonzero"/></g></g></g></g></g></g></g></g><g clip-path="url(#e06767a66b)"><g clip-path="url(#54a214139f)"><g clip-path="url(#b233913139)"><g clip-path="url(#ca56b31ce0)"><path stroke-linecap="butt" transform="matrix(-0.377346, 0.648159, -0.648159, -0.377346, 478.651827, 249.800809)" fill="none" stroke-linejoin="miter" d="M 131.097623 -0.0013519 C 155.230952 0.00292106 174.795934 17.594892 174.797879 39.295849 C 174.795322 60.999425 155.231923 78.596339 131.098594 78.592066 L 43.699053 78.591082 C 19.563843 78.593931 -0.00113898 61.001959 0.00141788 39.298383 C -0.00314682 17.592925 19.562872 0.000513129 43.698082 -0.00233547 Z M 131.097623 -0.0013519 " stroke="#000000" stroke-width="40" stroke-opacity="1" stroke-miterlimit="4"/></g></g></g></g><g clip-path="url(#7052ea54cf)"><g clip-path="url(#1689fb41e0)"><g clip-path="url(#c2043f7c78)"><g transform="matrix(1, 0, 0, 1, 381, 211)"><g clip-path="url(#1b4257bf2a)"><g clip-path="url(#45d7251709)"><g clip-path="url(#36248b3546)"><g clip-path="url(#77877aa650)"><path fill="#fcfcfd" d="M 28.464844 -6.300781 L 111.308594 45.933594 L 76.84375 100.597656 L -6 48.359375 Z M 28.464844 -6.300781 " fill-opacity="1" fill-rule="nonzero"/></g></g></g></g></g></g></g></g><g clip-path="url(#6c98449605)"><g clip-path="url(#ffe9f09a28)"><g transform="matrix(1, 0, 0, 1, 300, 169)"><g clip-path="url(#54c3112c7b)"><g clip-path="url(#fa494a5cf0)"><g clip-path="url(#6df24c1f6f)"><path fill="#000000" d="M 0.359375 0.144531 L 27.996094 0.144531 L 27.996094 36.089844 L 0.359375 36.089844 Z M 0.359375 0.144531 " fill-opacity="1" fill-rule="nonzero"/></g></g></g></g></g></g><g clip-path="url(#23d836250f)"><g clip-path="url(#f1b504cb71)"><g transform="matrix(1, 0, 0, 1, 357, 169)"><g clip-path="url(#3906435ba8)"><g clip-path="url(#576af9a654)"><g clip-path="url(#724b83ea1c)"><path fill="#000000" d="M 0.839844 0.144531 L 28.476562 0.144531 L 28.476562 36.089844 L 0.839844 36.089844 Z M 0.839844 0.144531 " fill-opacity="1" fill-rule="nonzero"/></g></g></g></g></g></g><g clip-path="url(#99cfe4e220)"><g clip-path="url(#014a20d2c2)"><g transform="matrix(1, 0, 0, 1, 420, 61)"><g clip-path="url(#f983f17b9e)"><g clip-path="url(#6d75714958)"><g clip-path="url(#012ca3186f)"><path fill="#fcfcfd" d="M 0.203125 0.261719 L 262.84375 0.261719 L 262.84375 179.558594 L 0.203125 179.558594 Z M 0.203125 0.261719 " fill-opacity="1" fill-rule="nonzero"/></g></g></g></g></g></g><g clip-path="url(#4b2f4d652e)"><g clip-path="url(#311b5a2471)"><path stroke-linecap="butt" transform="matrix(0.75, 0, 0, 0.75, 420.203334, 61.264251)" fill="none" stroke-linejoin="miter" d="M 244.645551 0.00183251 L 104.234095 0.00183251 C 46.661179 0.00183251 -0.000278896 45.585165 -0.000278896 89.059123 C -0.000278896 119.090372 24.463262 154.204955 59.807012 170.496622 L 59.807012 239.053912 L 130.598677 180.199746 L 244.645551 180.199746 C 303.067425 180.199746 349.734091 134.611205 349.734091 89.059123 C 349.739299 45.585165 303.067425 0.00183251 244.645551 0.00183251 Z M 244.645551 0.00183251 " stroke="#000000" stroke-width="40" stroke-opacity="1" stroke-miterlimit="4"/></g></g><g fill="#000000" fill-opacity="1"><g transform="translate(476.684662, 152.240638)"><g><path d="M 10.359375 -26.546875 C 10.359375 -21.984375 11.03125 -18.007812 12.375 -14.625 C 13.71875 -11.25 15.597656 -8.640625 18.015625 -6.796875 C 20.441406 -4.953125 23.257812 -4.03125 26.46875 -4.03125 C 29.726562 -4.03125 32.566406 -4.953125 34.984375 -6.796875 C 37.410156 -8.640625 39.296875 -11.25 40.640625 -14.625 C 41.984375 -18.007812 42.65625 -21.984375 42.65625 -26.546875 C 42.65625 -31.054688 41.984375 -34.925781 40.640625 -38.15625 C 39.296875 -41.394531 37.410156 -43.898438 34.984375 -45.671875 C 32.566406 -47.453125 29.726562 -48.34375 26.46875 -48.34375 C 23.257812 -48.34375 20.441406 -47.453125 18.015625 -45.671875 C 15.597656 -43.898438 13.71875 -41.394531 12.375 -38.15625 C 11.03125 -34.925781 10.359375 -31.054688 10.359375 -26.546875 Z M 48.5625 7.265625 L 49.703125 11.9375 C 48.941406 12.226562 47.925781 12.476562 46.65625 12.6875 C 45.382812 12.90625 43.976562 13.015625 42.4375 13.015625 C 37.695312 13.015625 33.71875 11.851562 30.5 9.53125 C 27.289062 7.207031 24.96875 4.269531 23.53125 0.71875 C 19.738281 0.1875 16.390625 -1.238281 13.484375 -3.5625 C 10.585938 -5.882812 8.320312 -9 6.6875 -12.90625 C 5.0625 -16.820312 4.25 -21.367188 4.25 -26.546875 C 4.25 -32.160156 5.191406 -36.976562 7.078125 -41 C 8.972656 -45.03125 11.597656 -48.132812 14.953125 -50.3125 C 18.316406 -52.5 22.15625 -53.59375 26.46875 -53.59375 C 30.832031 -53.59375 34.691406 -52.5 38.046875 -50.3125 C 41.410156 -48.132812 44.039062 -45.03125 45.9375 -41 C 47.832031 -36.976562 48.78125 -32.160156 48.78125 -26.546875 C 48.78125 -21.460938 47.988281 -16.976562 46.40625 -13.09375 C 44.820312 -9.207031 42.613281 -6.085938 39.78125 -3.734375 C 36.945312 -1.390625 33.660156 0.0664062 29.921875 0.640625 C 31.117188 3.085938 32.878906 4.921875 35.203125 6.140625 C 37.535156 7.367188 40.164062 7.984375 43.09375 7.984375 C 44.289062 7.984375 45.332031 7.910156 46.21875 7.765625 C 47.101562 7.617188 47.882812 7.453125 48.5625 7.265625 Z M 48.5625 7.265625 "/></g></g></g><g fill="#000000" fill-opacity="1"><g transform="translate(529.69684, 152.240638)"><g><path d="M 18.0625 0.9375 C 13.976562 0.9375 10.988281 -0.34375 9.09375 -2.90625 C 7.207031 -5.476562 6.265625 -9.234375 6.265625 -14.171875 L 6.265625 -38.84375 L 12.078125 -38.84375 L 12.078125 -14.890625 C 12.078125 -11.148438 12.675781 -8.425781 13.875 -6.71875 C 15.082031 -5.019531 17.050781 -4.171875 19.78125 -4.171875 C 21.84375 -4.171875 23.703125 -4.722656 25.359375 -5.828125 C 27.015625 -6.929688 28.800781 -8.65625 30.71875 -11 L 30.71875 -38.84375 L 36.546875 -38.84375 L 36.546875 0 L 31.71875 0 L 31.21875 -6.1875 L 31 -6.1875 C 29.175781 -4.070312 27.234375 -2.351562 25.171875 -1.03125 C 23.109375 0.28125 20.738281 0.9375 18.0625 0.9375 Z M 18.0625 0.9375 "/></g></g></g><g fill="#000000" fill-opacity="1"><g transform="translate(572.998511, 152.240638)"><g><path d="M 6.828125 0 L 6.828125 -38.84375 L 12.65625 -38.84375 L 12.65625 0 Z M 9.78125 -47.1875 C 8.582031 -47.1875 7.578125 -47.554688 6.765625 -48.296875 C 5.953125 -49.046875 5.546875 -49.992188 5.546875 -51.140625 C 5.546875 -52.390625 5.953125 -53.375 6.765625 -54.09375 C 7.578125 -54.8125 8.582031 -55.171875 9.78125 -55.171875 C 10.9375 -55.171875 11.929688 -54.8125 12.765625 -54.09375 C 13.609375 -53.375 14.03125 -52.390625 14.03125 -51.140625 C 14.03125 -49.992188 13.609375 -49.046875 12.765625 -48.296875 C 11.929688 -47.554688 10.9375 -47.1875 9.78125 -47.1875 Z M 9.78125 -47.1875 "/></g></g></g><g fill="#000000" fill-opacity="1"><g transform="translate(592.347597, 152.240638)"><g><path d="M 2.453125 0 L 2.453125 -3.171875 L 23.453125 -34.03125 L 4.75 -34.03125 L 4.75 -38.84375 L 30.9375 -38.84375 L 30.9375 -35.75 L 9.859375 -4.8125 L 31.578125 -4.8125 L 31.578125 0 Z M 2.453125 0 "/></g></g></g></svg>