<svg xmlns="http://www.w3.org/2000/svg" xmlns:xlink="http://www.w3.org/1999/xlink" width="1000" zoomAndPan="magnify" viewBox="0 0 750 749.999995" height="1000" preserveAspectRatio="xMidYMid meet" version="1.0"><defs><g/><clipPath id="401f95a9c8"><path d="M 229 25 L 338 25 L 338 311 L 229 311 Z M 229 25 " clip-rule="nonzero"/></clipPath><clipPath id="8a1d1505da"><path d="M 252.472656 19.929688 L 357.683594 31.621094 L 326.042969 316.4375 L 220.828125 304.75 Z M 252.472656 19.929688 " clip-rule="nonzero"/></clipPath><clipPath id="169cd2f8ef"><path d="M 335.269531 233.378906 C 330.195312 279.046875 302.53125 313.453125 273.476562 310.226562 C 244.421875 306.996094 224.980469 267.359375 230.054688 221.691406 C 244.386719 92.695312 305.078125 25.773438 305.078125 25.773438 C 305.078125 25.773438 349.234375 107.691406 335.269531 233.378906 Z M 335.269531 233.378906 " clip-rule="nonzero"/></clipPath><clipPath id="2508cd94c6"><path d="M 0 0.679688 L 109 0.679688 L 109 286 L 0 286 Z M 0 0.679688 " clip-rule="nonzero"/></clipPath><clipPath id="25edae8897"><path d="M 23.472656 -5.070312 L 128.683594 6.621094 L 97.042969 291.4375 L -8.171875 279.75 Z M 23.472656 -5.070312 " clip-rule="nonzero"/></clipPath><clipPath id="80c05da9a5"><path d="M 106.269531 208.378906 C 101.195312 254.046875 73.53125 288.453125 44.476562 285.226562 C 15.421875 281.996094 -4.019531 242.359375 1.054688 196.691406 C 15.386719 67.695312 76.078125 0.773438 76.078125 0.773438 C 76.078125 0.773438 120.234375 82.691406 106.269531 208.378906 Z M 106.269531 208.378906 " clip-rule="nonzero"/></clipPath><clipPath id="0471c4177d"><rect x="0" width="109" y="0" height="286"/></clipPath><clipPath id="a434e6ccf3"><path d="M 229 177 L 345 177 L 345 459 L 229 459 Z M 229 177 " clip-rule="nonzero"/></clipPath><clipPath id="c4f8b2a4a4"><path d="M 374.992188 448.160156 L 271.148438 468.730469 L 215.46875 187.621094 L 319.3125 167.050781 Z M 374.992188 448.160156 " clip-rule="nonzero"/></clipPath><clipPath id="95c39801f4"><path d="M 231.707031 269.59375 C 222.777344 224.523438 238.785156 183.378906 267.460938 177.699219 C 296.136719 172.019531 326.621094 203.953125 335.550781 249.027344 C 360.769531 376.339844 323.070312 458.445312 323.070312 458.445312 C 323.070312 458.445312 256.277344 393.644531 231.707031 269.59375 Z M 231.707031 269.59375 " clip-rule="nonzero"/></clipPath><clipPath id="38feeec9c3"><path d="M 0 0 L 116 0 L 116 281.640625 L 0 281.640625 Z M 0 0 " clip-rule="nonzero"/></clipPath><clipPath id="41f9e4af8c"><path d="M 145.992188 271.160156 L 42.148438 291.730469 L -13.53125 10.621094 L 90.3125 -9.949219 Z M 145.992188 271.160156 " clip-rule="nonzero"/></clipPath><clipPath id="30e9f0df60"><path d="M 2.707031 92.59375 C -6.222656 47.523438 9.785156 6.378906 38.460938 0.699219 C 67.136719 -4.980469 97.621094 26.953125 106.550781 72.027344 C 131.769531 199.339844 94.070312 281.445312 94.070312 281.445312 C 94.070312 281.445312 27.277344 216.644531 2.707031 92.59375 Z M 2.707031 92.59375 " clip-rule="nonzero"/></clipPath><clipPath id="6ef9b12b69"><rect x="0" width="116" y="0" height="282"/></clipPath><clipPath id="6d44ffe446"><path d="M 92 224 L 261 224 L 261 485 L 92 485 Z M 92 224 " clip-rule="nonzero"/></clipPath><clipPath id="62081398e6"><path d="M 307.542969 457.054688 L 213.128906 511.246094 L 66.433594 255.664062 L 160.847656 201.472656 Z M 307.542969 457.054688 " clip-rule="nonzero"/></clipPath><clipPath id="edbfa6b86f"><path d="M 109.210938 330.195312 C 85.6875 289.214844 87.757812 243.863281 113.828125 228.898438 C 139.898438 213.933594 180.101562 235.023438 203.625 276.003906 C 270.066406 391.757812 260.335938 484.152344 260.335938 484.152344 C 260.335938 484.152344 173.945312 442.980469 109.210938 330.195312 Z M 109.210938 330.195312 " clip-rule="nonzero"/></clipPath><clipPath id="6089273f6c"><path d="M 0 0 L 169 0 L 169 260.320312 L 0 260.320312 Z M 0 0 " clip-rule="nonzero"/></clipPath><clipPath id="ab4157d66b"><path d="M 215.542969 233.054688 L 121.128906 287.246094 L -25.566406 31.664062 L 68.847656 -22.527344 Z M 215.542969 233.054688 " clip-rule="nonzero"/></clipPath><clipPath id="5b7bec93a9"><path d="M 17.210938 106.195312 C -6.3125 65.214844 -4.242188 19.863281 21.828125 4.898438 C 47.898438 -10.066406 88.101562 11.023438 111.625 52.003906 C 178.066406 167.757812 168.335938 260.152344 168.335938 260.152344 C 168.335938 260.152344 81.945312 218.980469 17.210938 106.195312 Z M 17.210938 106.195312 " clip-rule="nonzero"/></clipPath><clipPath id="5870756941"><rect x="0" width="169" y="0" height="261"/></clipPath><clipPath id="8078b0f2bc"><path d="M 92 224 L 261 224 L 261 485 L 92 485 Z M 92 224 " clip-rule="nonzero"/></clipPath><clipPath id="eaac41e33f"><path d="M 307.542969 457.054688 L 213.226562 511.191406 L 66.871094 256.207031 L 161.191406 202.070312 Z M 307.542969 457.054688 " clip-rule="nonzero"/></clipPath><clipPath id="e8e6411d55"><path d="M 307.542969 457.050781 L 213.132812 511.238281 L 66.050781 254.984375 L 160.457031 200.796875 Z M 307.542969 457.050781 " clip-rule="nonzero"/></clipPath><clipPath id="5da1aca790"><path d="M 109.21875 330.199219 C 85.699219 289.21875 87.765625 243.871094 113.835938 228.90625 C 139.90625 213.941406 180.109375 235.03125 203.628906 276.007812 C 270.066406 391.757812 260.335938 484.144531 260.335938 484.144531 C 260.335938 484.144531 173.953125 442.976562 109.21875 330.199219 Z M 109.21875 330.199219 " clip-rule="nonzero"/></clipPath><clipPath id="c432baacd9"><path d="M 41 224 L 171 224 L 171 508 L 41 508 Z M 41 224 " clip-rule="nonzero"/></clipPath><clipPath id="2246308ad7"><path d="M 104.148438 523.601562 L -0.00390625 491.933594 L 85.726562 209.988281 L 189.878906 241.65625 Z M 104.148438 523.601562 " clip-rule="nonzero"/></clipPath><clipPath id="666aa73b0b"><path d="M 60.726562 292.207031 C 74.472656 247 108.929688 217.441406 137.691406 226.1875 C 166.453125 234.933594 178.625 278.667969 164.878906 323.875 C 126.050781 451.570312 52.070312 507.765625 52.070312 507.765625 C 52.070312 507.765625 22.894531 416.625 60.726562 292.207031 Z M 60.726562 292.207031 " clip-rule="nonzero"/></clipPath><clipPath id="5bca680a3d"><path d="M 0 0 L 130 0 L 130 283.839844 L 0 283.839844 Z M 0 0 " clip-rule="nonzero"/></clipPath><clipPath id="90b421c98c"><path d="M 63.148438 299.601562 L -41.003906 267.933594 L 44.726562 -14.011719 L 148.878906 17.65625 Z M 63.148438 299.601562 " clip-rule="nonzero"/></clipPath><clipPath id="2b86615396"><path d="M 19.726562 68.207031 C 33.472656 23 67.929688 -6.558594 96.691406 2.1875 C 125.453125 10.933594 137.625 54.667969 123.878906 99.875 C 85.050781 227.570312 11.070312 283.765625 11.070312 283.765625 C 11.070312 283.765625 -18.105469 192.625 19.726562 68.207031 Z M 19.726562 68.207031 " clip-rule="nonzero"/></clipPath><clipPath id="45c25c0c14"><rect x="0" width="130" y="0" height="284"/></clipPath><clipPath id="99b7a4b52f"><path d="M 307 293 L 506 293 L 506 533 L 307 533 Z M 307 293 " clip-rule="nonzero"/></clipPath><clipPath id="013ab569e6"><path d="M 305.859375 334.34375 L 445.5 291.269531 L 507.253906 491.457031 L 367.613281 534.535156 Z M 305.859375 334.34375 " clip-rule="nonzero"/></clipPath><clipPath id="abbc360907"><path d="M 313.742188 331.914062 L 437.617188 293.699219 C 439.707031 293.054688 441.96875 293.269531 443.90625 294.289062 C 445.839844 295.3125 447.289062 297.0625 447.933594 299.152344 L 504.804688 483.511719 C 505.449219 485.601562 505.234375 487.863281 504.214844 489.796875 C 503.191406 491.730469 501.441406 493.179688 499.351562 493.824219 L 375.476562 532.039062 C 373.386719 532.683594 371.125 532.46875 369.191406 531.449219 C 367.253906 530.425781 365.804688 528.675781 365.160156 526.585938 L 308.292969 342.226562 C 307.644531 340.136719 307.859375 337.875 308.882812 335.941406 C 309.902344 334.007812 311.652344 332.558594 313.742188 331.914062 Z M 313.742188 331.914062 " clip-rule="nonzero"/></clipPath><clipPath id="76a2a54118"><path d="M 0.441406 0.0390625 L 198.679688 0.0390625 L 198.679688 239.800781 L 0.441406 239.800781 Z M 0.441406 0.0390625 " clip-rule="nonzero"/></clipPath><clipPath id="5f05972caf"><path d="M -1.140625 41.34375 L 138.5 -1.730469 L 200.253906 198.457031 L 60.613281 241.535156 Z M -1.140625 41.34375 " clip-rule="nonzero"/></clipPath><clipPath id="8d4aaa0c58"><path d="M 6.742188 38.914062 L 130.617188 0.699219 C 132.707031 0.0546875 134.96875 0.269531 136.90625 1.289062 C 138.839844 2.3125 140.289062 4.0625 140.933594 6.152344 L 197.804688 190.511719 C 198.449219 192.601562 198.234375 194.863281 197.214844 196.796875 C 196.191406 198.730469 194.441406 200.179688 192.351562 200.824219 L 68.476562 239.039062 C 66.386719 239.683594 64.125 239.46875 62.191406 238.449219 C 60.253906 237.425781 58.804688 235.675781 58.160156 233.585938 L 1.292969 49.226562 C 0.644531 47.136719 0.859375 44.875 1.882812 42.941406 C 2.902344 41.007812 4.652344 39.558594 6.742188 38.914062 Z M 6.742188 38.914062 " clip-rule="nonzero"/></clipPath><clipPath id="566bc2262f"><rect x="0" width="199" y="0" height="240"/></clipPath><clipPath id="7ac99c3219"><path d="M 307 293 L 506 293 L 506 533 L 307 533 Z M 307 293 " clip-rule="nonzero"/></clipPath><clipPath id="2a2b9f7564"><path d="M 305.859375 334.34375 L 445.613281 291.234375 L 507.292969 491.1875 L 367.539062 534.296875 Z M 305.859375 334.34375 " clip-rule="nonzero"/></clipPath><clipPath id="2b2f423ed7"><path d="M 305.859375 334.34375 L 446.0625 291.09375 L 508.535156 493.609375 L 368.332031 536.859375 Z M 305.859375 334.34375 " clip-rule="nonzero"/></clipPath><clipPath id="f6387fd983"><path d="M 313.742188 331.914062 L 437.617188 293.703125 C 439.707031 293.054688 441.96875 293.269531 443.902344 294.289062 C 445.835938 295.3125 447.285156 297.0625 447.929688 299.152344 L 504.800781 483.507812 C 505.445312 485.597656 505.230469 487.859375 504.210938 489.792969 C 503.1875 491.726562 501.4375 493.175781 499.347656 493.820312 L 375.476562 532.035156 C 373.386719 532.679688 371.125 532.464844 369.1875 531.445312 C 367.253906 530.421875 365.804688 528.671875 365.160156 526.582031 L 308.292969 342.226562 C 307.648438 340.136719 307.859375 337.875 308.882812 335.941406 C 309.902344 334.007812 311.652344 332.558594 313.742188 331.914062 Z M 313.742188 331.914062 " clip-rule="nonzero"/></clipPath><clipPath id="0013434a82"><path d="M 365 370 L 440 370 L 440 450 L 365 450 Z M 365 370 " clip-rule="nonzero"/></clipPath><clipPath id="c409e64375"><path d="M 360.175781 386.910156 L 430.511719 365.210938 L 453.136719 438.558594 L 382.800781 460.257812 Z M 360.175781 386.910156 " clip-rule="nonzero"/></clipPath><clipPath id="5da80f2706"><path d="M 416.902344 370.703125 C 405.183594 370.441406 399.925781 380.507812 398.019531 385.222656 C 393.785156 382.402344 383.773438 377.046875 374.234375 383.863281 C 364.160156 391.066406 363.183594 403.953125 370.464844 417.199219 C 381.40625 437.109375 407.816406 447.648438 417.800781 449.359375 C 425.089844 442.320312 440.976562 418.734375 438.800781 396.117188 C 437.355469 381.074219 429.285156 370.976562 416.902344 370.703125 Z M 416.902344 370.703125 " clip-rule="nonzero"/></clipPath><clipPath id="0ebb37dde0"><path d="M 0 0.320312 L 75 0.320312 L 75 79.519531 L 0 79.519531 Z M 0 0.320312 " clip-rule="nonzero"/></clipPath><clipPath id="68ac4125e6"><path d="M -4.824219 16.910156 L 65.511719 -4.789062 L 88.136719 68.558594 L 17.800781 90.257812 Z M -4.824219 16.910156 " clip-rule="nonzero"/></clipPath><clipPath id="91c2e4f434"><path d="M 51.902344 0.703125 C 40.183594 0.441406 34.925781 10.507812 33.019531 15.222656 C 28.785156 12.402344 18.773438 7.046875 9.234375 13.863281 C -0.839844 21.066406 -1.816406 33.953125 5.464844 47.199219 C 16.40625 67.109375 42.816406 77.648438 52.800781 79.359375 C 60.089844 72.320312 75.976562 48.734375 73.800781 26.117188 C 72.355469 11.074219 64.285156 0.976562 51.902344 0.703125 Z M 51.902344 0.703125 " clip-rule="nonzero"/></clipPath><clipPath id="78c5ee94ce"><rect x="0" width="75" y="0" height="80"/></clipPath><clipPath id="c5dc20bf9e"><path d="M 437 331 L 660 331 L 660 588 L 437 588 Z M 437 331 " clip-rule="nonzero"/></clipPath><clipPath id="0f7060a37e"><path d="M 522.226562 328.488281 L 662.050781 389.550781 L 574.511719 590.003906 L 434.683594 528.941406 Z M 522.226562 328.488281 " clip-rule="nonzero"/></clipPath><clipPath id="dc843c77ad"><path d="M 529.785156 331.789062 L 654.492188 386.25 C 658.667969 388.074219 660.574219 392.9375 658.75 397.109375 L 577.839844 582.378906 C 576.015625 586.554688 571.152344 588.460938 566.976562 586.640625 L 442.273438 532.179688 C 438.097656 530.355469 436.191406 525.492188 438.011719 521.316406 L 518.921875 336.046875 C 520.746094 331.871094 525.609375 329.964844 529.785156 331.789062 Z M 529.785156 331.789062 " clip-rule="nonzero"/></clipPath><clipPath id="6cf7cc8388"><path d="M 0 0 L 223 0 L 223 257 L 0 257 Z M 0 0 " clip-rule="nonzero"/></clipPath><clipPath id="ad46ca169a"><path d="M 85.226562 -2.511719 L 225.050781 58.550781 L 137.511719 259.003906 L -2.316406 197.941406 Z M 85.226562 -2.511719 " clip-rule="nonzero"/></clipPath><clipPath id="8ddcf2c4ec"><path d="M 92.785156 0.789062 L 217.492188 55.25 C 221.667969 57.074219 223.574219 61.9375 221.75 66.109375 L 140.839844 251.378906 C 139.015625 255.554688 134.152344 257.460938 129.976562 255.640625 L 5.273438 201.179688 C 1.097656 199.355469 -0.808594 194.492188 1.011719 190.316406 L 81.921875 5.046875 C 83.746094 0.871094 88.609375 -1.035156 92.785156 0.789062 Z M 92.785156 0.789062 " clip-rule="nonzero"/></clipPath><clipPath id="b6e31d0bfe"><rect x="0" width="223" y="0" height="257"/></clipPath><clipPath id="a9b1374959"><path d="M 437 331 L 660 331 L 660 588 L 437 588 Z M 437 331 " clip-rule="nonzero"/></clipPath><clipPath id="4188bd8e8c"><path d="M 522.226562 328.488281 L 661.75 389.417969 L 574.101562 590.117188 L 434.578125 529.183594 Z M 522.226562 328.488281 " clip-rule="nonzero"/></clipPath><clipPath id="11ac5d3c37"><path d="M 522.226562 328.488281 L 662.613281 389.796875 L 574.054688 592.578125 L 433.667969 531.269531 Z M 522.226562 328.488281 " clip-rule="nonzero"/></clipPath><clipPath id="5d2f56dfa2"><path d="M 529.785156 331.789062 L 654.488281 386.25 C 658.664062 388.070312 660.570312 392.933594 658.746094 397.109375 L 577.839844 582.375 C 576.015625 586.550781 571.152344 588.457031 566.976562 586.632812 L 442.277344 532.171875 C 438.101562 530.351562 436.195312 525.488281 438.015625 521.3125 L 518.925781 336.046875 C 520.75 331.871094 525.609375 329.964844 529.785156 331.789062 Z M 529.785156 331.789062 " clip-rule="nonzero"/></clipPath><clipPath id="88654c7239"><path d="M 526 369 L 557 369 L 557 421 L 526 421 Z M 526 369 " clip-rule="nonzero"/></clipPath><clipPath id="1052dd8976"><path d="M 537.613281 362.621094 L 567.261719 375.570312 L 544.753906 427.105469 L 515.105469 414.15625 Z M 537.613281 362.621094 " clip-rule="nonzero"/></clipPath><clipPath id="353a486536"><path d="M 552.4375 369.097656 L 556.027344 401.292969 L 529.96875 420.542969 L 526.378906 388.347656 Z M 552.4375 369.097656 " clip-rule="nonzero"/></clipPath><clipPath id="72cd0c06d8"><path d="M 0.320312 0 L 30.078125 0 L 30.078125 51.71875 L 0.320312 51.71875 Z M 0.320312 0 " clip-rule="nonzero"/></clipPath><clipPath id="3bece5b667"><path d="M 11.613281 -6.378906 L 41.261719 6.570312 L 18.753906 58.105469 L -10.894531 45.15625 Z M 11.613281 -6.378906 " clip-rule="nonzero"/></clipPath><clipPath id="4a56706c7f"><path d="M 26.4375 0.0976562 L 30.027344 32.292969 L 3.96875 51.542969 L 0.378906 19.347656 Z M 26.4375 0.0976562 " clip-rule="nonzero"/></clipPath><clipPath id="6c4f26d1bc"><rect x="0" width="31" y="0" height="52"/></clipPath><clipPath id="c8bc5acd63"><path d="M 585 394 L 616 394 L 616 447 L 585 447 Z M 585 394 " clip-rule="nonzero"/></clipPath><clipPath id="d65994ec95"><path d="M 596.90625 388.515625 L 626.554688 401.464844 L 604.046875 452.996094 L 574.402344 440.050781 Z M 596.90625 388.515625 " clip-rule="nonzero"/></clipPath><clipPath id="69d9ffee87"><path d="M 611.730469 394.988281 L 615.320312 427.1875 L 589.261719 446.4375 L 585.671875 414.242188 Z M 611.730469 394.988281 " clip-rule="nonzero"/></clipPath><clipPath id="f9c0240a06"><path d="M 0.601562 0.800781 L 30.359375 0.800781 L 30.359375 52.640625 L 0.601562 52.640625 Z M 0.601562 0.800781 " clip-rule="nonzero"/></clipPath><clipPath id="2fea1a1359"><path d="M 11.90625 -5.484375 L 41.554688 7.464844 L 19.046875 58.996094 L -10.597656 46.050781 Z M 11.90625 -5.484375 " clip-rule="nonzero"/></clipPath><clipPath id="b8256fdb60"><path d="M 26.730469 0.988281 L 30.320312 33.1875 L 4.261719 52.4375 L 0.671875 20.242188 Z M 26.730469 0.988281 " clip-rule="nonzero"/></clipPath><clipPath id="f01c64a9db"><rect x="0" width="31" y="0" height="53"/></clipPath><clipPath id="e832fd786e"><path d="M 533 433 L 564 433 L 564 485 L 533 485 Z M 533 433 " clip-rule="nonzero"/></clipPath><clipPath id="4315c3e107"><path d="M 544.792969 427.015625 L 574.4375 439.964844 L 551.933594 491.5 L 522.285156 478.550781 Z M 544.792969 427.015625 " clip-rule="nonzero"/></clipPath><clipPath id="e36b776711"><path d="M 559.613281 433.492188 L 563.203125 465.6875 L 537.148438 484.9375 L 533.558594 452.742188 Z M 559.613281 433.492188 " clip-rule="nonzero"/></clipPath><clipPath id="75f4f7a689"><path d="M 0.519531 0.441406 L 30.28125 0.441406 L 30.28125 52 L 0.519531 52 Z M 0.519531 0.441406 " clip-rule="nonzero"/></clipPath><clipPath id="092766babd"><path d="M 11.792969 -5.984375 L 41.4375 6.964844 L 18.933594 58.5 L -10.714844 45.550781 Z M 11.792969 -5.984375 " clip-rule="nonzero"/></clipPath><clipPath id="79e6d02435"><path d="M 26.613281 0.492188 L 30.203125 32.6875 L 4.148438 51.9375 L 0.558594 19.742188 Z M 26.613281 0.492188 " clip-rule="nonzero"/></clipPath><clipPath id="aad674d657"><rect x="0" width="31" y="0" height="52"/></clipPath><clipPath id="c9dd6e02b3"><path d="M 540 497 L 571 497 L 571 550 L 540 550 Z M 540 497 " clip-rule="nonzero"/></clipPath><clipPath id="50c2c2fb4a"><path d="M 551.96875 491.414062 L 581.617188 504.359375 L 559.113281 555.894531 L 529.464844 542.945312 Z M 551.96875 491.414062 " clip-rule="nonzero"/></clipPath><clipPath id="170ac58fbd"><path d="M 566.792969 497.886719 L 570.382812 530.082031 L 544.324219 549.332031 L 540.738281 517.136719 Z M 566.792969 497.886719 " clip-rule="nonzero"/></clipPath><clipPath id="cc9d91c91e"><path d="M 0.71875 0.761719 L 30.480469 0.761719 L 30.480469 52.359375 L 0.71875 52.359375 Z M 0.71875 0.761719 " clip-rule="nonzero"/></clipPath><clipPath id="83a9831c05"><path d="M 11.96875 -5.585938 L 41.617188 7.359375 L 19.113281 58.894531 L -10.535156 45.945312 Z M 11.96875 -5.585938 " clip-rule="nonzero"/></clipPath><clipPath id="c7196cb0ec"><path d="M 26.792969 0.886719 L 30.382812 33.082031 L 4.324219 52.332031 L 0.738281 20.136719 Z M 26.792969 0.886719 " clip-rule="nonzero"/></clipPath><clipPath id="5bb07ba9cc"><rect x="0" width="31" y="0" height="53"/></clipPath><clipPath id="33066da131"><path d="M 480 475 L 510 475 L 510 527 L 480 527 Z M 480 475 " clip-rule="nonzero"/></clipPath><clipPath id="ee828d9e43"><path d="M 491.273438 468.734375 L 520.917969 481.679688 L 498.414062 533.214844 L 468.765625 520.269531 Z M 491.273438 468.734375 " clip-rule="nonzero"/></clipPath><clipPath id="c6e176529c"><path d="M 506.097656 475.207031 L 509.683594 507.40625 L 483.628906 526.65625 L 480.039062 494.457031 Z M 506.097656 475.207031 " clip-rule="nonzero"/></clipPath><clipPath id="3efbe3f432"><path d="M 0 0.199219 L 29.761719 0.199219 L 29.761719 51.800781 L 0 51.800781 Z M 0 0.199219 " clip-rule="nonzero"/></clipPath><clipPath id="f1f0015d68"><path d="M 11.273438 -6.265625 L 40.917969 6.679688 L 18.414062 58.214844 L -11.234375 45.269531 Z M 11.273438 -6.265625 " clip-rule="nonzero"/></clipPath><clipPath id="971d0839f1"><path d="M 26.097656 0.207031 L 29.683594 32.40625 L 3.628906 51.65625 L 0.0390625 19.457031 Z M 26.097656 0.207031 " clip-rule="nonzero"/></clipPath><clipPath id="11187578b6"><rect x="0" width="30" y="0" height="52"/></clipPath></defs><g clip-path="url(#401f95a9c8)"><g clip-path="url(#8a1d1505da)"><g clip-path="url(#169cd2f8ef)"><g transform="matrix(1, 0, 0, 1, 229, 25)"><g clip-path="url(#0471c4177d)"><g clip-path="url(#2508cd94c6)"><g clip-path="url(#25edae8897)"><g clip-path="url(#80c05da9a5)"><path fill="#000000" d="M 23.472656 -5.070312 L 128.683594 6.621094 L 97.089844 291.027344 L -8.125 279.335938 Z M 23.472656 -5.070312 " fill-opacity="1" fill-rule="nonzero"/></g></g></g></g></g></g></g></g><g clip-path="url(#a434e6ccf3)"><g clip-path="url(#c4f8b2a4a4)"><g clip-path="url(#95c39801f4)"><g transform="matrix(1, 0, 0, 1, 229, 177)"><g clip-path="url(#6ef9b12b69)"><g clip-path="url(#38feeec9c3)"><g clip-path="url(#41f9e4af8c)"><g clip-path="url(#30e9f0df60)"><path fill="#000000" d="M 145.992188 271.160156 L 42.148438 291.730469 L -13.453125 11.027344 L 90.390625 -9.542969 Z M 145.992188 271.160156 " fill-opacity="1" fill-rule="nonzero"/></g></g></g></g></g></g></g></g><g clip-path="url(#6d44ffe446)"><g clip-path="url(#62081398e6)"><g clip-path="url(#edbfa6b86f)"><g transform="matrix(1, 0, 0, 1, 92, 224)"><g clip-path="url(#5870756941)"><g clip-path="url(#6089273f6c)"><g clip-path="url(#ab4157d66b)"><g clip-path="url(#5b7bec93a9)"><path fill="#ffadad" d="M 215.542969 233.054688 L 121.128906 287.246094 L -25.355469 32.035156 L 69.058594 -22.15625 Z M 215.542969 233.054688 " fill-opacity="1" fill-rule="nonzero"/></g></g></g></g></g></g></g></g><g clip-path="url(#8078b0f2bc)"><g clip-path="url(#eaac41e33f)"><g clip-path="url(#e8e6411d55)"><g clip-path="url(#5da1aca790)"><path stroke-linecap="butt" transform="matrix(-0.650468, 0.373352, -0.373352, -0.650468, 307.541618, 457.051222)" fill="none" stroke-linejoin="miter" d="M 145.141479 278.324316 C 145.138874 341.324382 112.650364 392.392257 72.570271 392.393556 C 32.490179 392.394855 -0.00205677 341.322514 -0.0020438 278.326965 C -0.00185557 100.378137 72.570869 0.00184331 72.570869 0.00184331 C 72.570869 0.00184331 145.138075 104.943457 145.141479 278.324316 Z M 145.141479 278.324316 " stroke="#000000" stroke-width="56" stroke-opacity="1" stroke-miterlimit="4"/></g></g></g></g><g clip-path="url(#c432baacd9)"><g clip-path="url(#2246308ad7)"><g clip-path="url(#666aa73b0b)"><g transform="matrix(1, 0, 0, 1, 41, 224)"><g clip-path="url(#45c25c0c14)"><g clip-path="url(#5bca680a3d)"><g clip-path="url(#90b421c98c)"><g clip-path="url(#2b86615396)"><path fill="#000000" d="M 63.148438 299.601562 L -41.003906 267.933594 L 44.601562 -13.605469 L 148.753906 18.066406 Z M 63.148438 299.601562 " fill-opacity="1" fill-rule="nonzero"/></g></g></g></g></g></g></g></g><g clip-path="url(#99b7a4b52f)"><g clip-path="url(#013ab569e6)"><g clip-path="url(#abbc360907)"><g transform="matrix(1, 0, 0, 1, 307, 293)"><g clip-path="url(#566bc2262f)"><g clip-path="url(#76a2a54118)"><g clip-path="url(#5f05972caf)"><g clip-path="url(#8d4aaa0c58)"><path fill="#ffffff" d="M -1.140625 41.34375 L 138.5 -1.730469 L 200.253906 198.457031 L 60.613281 241.535156 Z M -1.140625 41.34375 " fill-opacity="1" fill-rule="nonzero"/></g></g></g></g></g></g></g></g><g clip-path="url(#7ac99c3219)"><g clip-path="url(#2a2b9f7564)"><g clip-path="url(#2b2f423ed7)"><g clip-path="url(#f6387fd983)"><path stroke-linecap="butt" transform="matrix(0.716676, -0.221077, 0.221077, 0.716676, 305.860154, 334.344671)" fill="none" stroke-linejoin="miter" d="M 10.997721 0.00102175 L 183.843654 0.00281172 C 186.761158 -0.00199533 189.558355 1.160648 191.621229 3.219575 C 193.682567 5.28348 194.841209 8.082719 194.84104 10.998688 L 194.843636 268.236177 C 194.843466 271.152146 193.680823 273.949343 191.621896 276.012216 C 189.557991 278.073555 186.758752 279.232197 183.842783 279.232027 L 11.000292 279.23675 C 8.084323 279.23658 5.287126 278.073936 3.219275 276.013474 C 1.157937 273.94957 -0.000705468 271.15033 -0.000535592 268.234361 L 0.00184486 10.998408 C 0.00201474 8.082439 1.159681 5.283706 3.223585 3.222368 C 5.282513 1.159495 8.081752 0.000851877 10.997721 0.00102175 Z M 10.997721 0.00102175 " stroke="#000000" stroke-width="24" stroke-opacity="1" stroke-miterlimit="4"/></g></g></g></g><g clip-path="url(#0013434a82)"><g clip-path="url(#c409e64375)"><g clip-path="url(#5da80f2706)"><g transform="matrix(1, 0, 0, 1, 365, 370)"><g clip-path="url(#78c5ee94ce)"><g clip-path="url(#0ebb37dde0)"><g clip-path="url(#68ac4125e6)"><g clip-path="url(#91c2e4f434)"><path fill="#ff3131" d="M -4.742188 17.183594 L 65.324219 -4.429688 L 87.863281 68.644531 L 17.800781 90.257812 Z M -4.742188 17.183594 " fill-opacity="1" fill-rule="nonzero"/></g></g></g></g></g></g></g></g><g clip-path="url(#c5dc20bf9e)"><g clip-path="url(#0f7060a37e)"><g clip-path="url(#dc843c77ad)"><g transform="matrix(1, 0, 0, 1, 437, 331)"><g clip-path="url(#b6e31d0bfe)"><g clip-path="url(#6cf7cc8388)"><g clip-path="url(#ad46ca169a)"><g clip-path="url(#8ddcf2c4ec)"><path fill="#ffffff" d="M 85.226562 -2.511719 L 225.050781 58.550781 L 137.511719 259.003906 L -2.316406 197.941406 Z M 85.226562 -2.511719 " fill-opacity="1" fill-rule="nonzero"/></g></g></g></g></g></g></g></g><g clip-path="url(#a9b1374959)"><g clip-path="url(#4188bd8e8c)"><g clip-path="url(#11ac5d3c37)"><g clip-path="url(#5d2f56dfa2)"><path stroke-linecap="butt" transform="matrix(0.687316, 0.300161, -0.300161, 0.687316, 522.226273, 328.486996)" fill="none" stroke-linejoin="miter" d="M 10.99821 0.00121277 L 192.433787 0.00276738 C 198.507508 -0.00127929 203.431887 4.923929 203.431161 10.999735 L 203.433529 280.548078 C 203.432803 286.623884 198.507595 291.548263 192.431789 291.547537 L 11.000985 291.543898 C 4.927264 291.547944 0.00288461 286.622736 -0.00116206 280.549014 L 0.00124263 10.998587 C 0.00196899 4.922781 4.922404 0.000486417 10.99821 0.00121277 Z M 10.99821 0.00121277 " stroke="#000000" stroke-width="24" stroke-opacity="1" stroke-miterlimit="4"/></g></g></g></g><g clip-path="url(#88654c7239)"><g clip-path="url(#1052dd8976)"><g clip-path="url(#353a486536)"><g transform="matrix(1, 0, 0, 1, 526, 369)"><g clip-path="url(#6c4f26d1bc)"><g clip-path="url(#72cd0c06d8)"><g clip-path="url(#3bece5b667)"><g clip-path="url(#4a56706c7f)"><path fill="#ff3131" d="M 11.613281 -6.378906 L 41.261719 6.570312 L 18.804688 57.988281 L -10.84375 45.039062 Z M 11.613281 -6.378906 " fill-opacity="1" fill-rule="nonzero"/></g></g></g></g></g></g></g></g><g clip-path="url(#c8bc5acd63)"><g clip-path="url(#d65994ec95)"><g clip-path="url(#69d9ffee87)"><g transform="matrix(1, 0, 0, 1, 585, 394)"><g clip-path="url(#f01c64a9db)"><g clip-path="url(#f9c0240a06)"><g clip-path="url(#2fea1a1359)"><g clip-path="url(#b8256fdb60)"><path fill="#ff3131" d="M 11.90625 -5.484375 L 41.554688 7.464844 L 19.097656 58.882812 L -10.546875 45.933594 Z M 11.90625 -5.484375 " fill-opacity="1" fill-rule="nonzero"/></g></g></g></g></g></g></g></g><g clip-path="url(#e832fd786e)"><g clip-path="url(#4315c3e107)"><g clip-path="url(#e36b776711)"><g transform="matrix(1, 0, 0, 1, 533, 433)"><g clip-path="url(#aad674d657)"><g clip-path="url(#75f4f7a689)"><g clip-path="url(#092766babd)"><g clip-path="url(#79e6d02435)"><path fill="#ff3131" d="M 11.792969 -5.984375 L 41.4375 6.964844 L 18.984375 58.382812 L -10.664062 45.4375 Z M 11.792969 -5.984375 " fill-opacity="1" fill-rule="nonzero"/></g></g></g></g></g></g></g></g><g clip-path="url(#c9dd6e02b3)"><g clip-path="url(#50c2c2fb4a)"><g clip-path="url(#170ac58fbd)"><g transform="matrix(1, 0, 0, 1, 540, 497)"><g clip-path="url(#5bb07ba9cc)"><g clip-path="url(#cc9d91c91e)"><g clip-path="url(#83a9831c05)"><g clip-path="url(#c7196cb0ec)"><path fill="#ff3131" d="M 11.96875 -5.585938 L 41.617188 7.359375 L 19.160156 58.777344 L -10.484375 45.832031 Z M 11.96875 -5.585938 " fill-opacity="1" fill-rule="nonzero"/></g></g></g></g></g></g></g></g><g clip-path="url(#33066da131)"><g clip-path="url(#ee828d9e43)"><g clip-path="url(#c6e176529c)"><g transform="matrix(1, 0, 0, 1, 480, 475)"><g clip-path="url(#11187578b6)"><g clip-path="url(#3efbe3f432)"><g clip-path="url(#f1f0015d68)"><g clip-path="url(#971d0839f1)"><path fill="#ff3131" d="M 11.273438 -6.265625 L 40.917969 6.679688 L 18.464844 58.101562 L -11.183594 45.152344 Z M 11.273438 -6.265625 " fill-opacity="1" fill-rule="nonzero"/></g></g></g></g></g></g></g></g><g fill="#000000" fill-opacity="1"><g transform="translate(269.988274, 721.346937)"><g><path d="M 9.359375 0 L 9.359375 -17.265625 L 28.296875 -17.265625 L 28.296875 -68 L 11.875 -68 L 11.875 -81.1875 C 16.664062 -82.0625 20.757812 -83.140625 24.15625 -84.421875 C 27.5625 -85.703125 30.820312 -87.300781 33.9375 -89.21875 L 49.640625 -89.21875 L 49.640625 -17.265625 L 65.71875 -17.265625 L 65.71875 0 Z M 9.359375 0 "/></g></g></g><g fill="#000000" fill-opacity="1"><g transform="translate(343.018331, 721.346937)"><g><path d="M 23.03125 -38.5 L 40.046875 -38.5 L 40.046875 -51.5625 C 40.046875 -54.363281 40.164062 -57.660156 40.40625 -61.453125 C 40.65625 -65.253906 40.816406 -68.554688 40.890625 -71.359375 L 40.40625 -71.359375 C 39.289062 -68.878906 38.132812 -66.359375 36.9375 -63.796875 C 35.738281 -61.242188 34.5 -58.6875 33.21875 -56.125 Z M 69.921875 -38.5 L 69.921875 -22.3125 L 59.96875 -22.3125 L 59.96875 0 L 40.046875 0 L 40.046875 -22.3125 L 2.640625 -22.3125 L 2.640625 -37.0625 L 33.703125 -89.21875 L 59.96875 -89.21875 L 59.96875 -38.5 Z M 69.921875 -38.5 "/></g></g></g><g fill="#000000" fill-opacity="1"><g transform="translate(416.048387, 721.346937)"><g><path d="M 31.78125 -72.3125 L 31.78125 -48.328125 L 41.375 -48.328125 C 51.769531 -48.328125 56.96875 -52.601562 56.96875 -61.15625 C 56.96875 -65.394531 55.644531 -68.3125 53 -69.90625 C 50.363281 -71.507812 46.488281 -72.3125 41.375 -72.3125 Z M 82.5 0 L 58.515625 0 L 42.09375 -31.421875 L 31.78125 -31.421875 L 31.78125 0 L 10.3125 0 L 10.3125 -89.21875 L 43.046875 -89.21875 C 49.441406 -89.21875 55.273438 -88.378906 60.546875 -86.703125 C 65.828125 -85.023438 70.046875 -82.144531 73.203125 -78.0625 C 76.367188 -73.988281 77.953125 -68.351562 77.953125 -61.15625 C 77.953125 -54.601562 76.550781 -49.207031 73.75 -44.96875 C 70.957031 -40.726562 67.238281 -37.53125 62.59375 -35.375 Z M 82.5 0 "/></g></g></g></svg>