<svg xmlns="http://www.w3.org/2000/svg" xmlns:xlink="http://www.w3.org/1999/xlink" width="1000" zoomAndPan="magnify" viewBox="0 0 750 749.999995" height="1000" preserveAspectRatio="xMidYMid meet" version="1.0"><defs><g/><clipPath id="d0eebbdeb4"><path d="M 252.140625 196.496094 L 438.460938 196.496094 L 438.460938 433.144531 L 252.140625 433.144531 Z M 252.140625 196.496094 " clip-rule="nonzero"/></clipPath><clipPath id="14baf339bf"><path d="M 0.140625 0.496094 L 186.460938 0.496094 L 186.460938 237.144531 L 0.140625 237.144531 Z M 0.140625 0.496094 " clip-rule="nonzero"/></clipPath><clipPath id="41470cf7fa"><rect x="0" width="187" y="0" height="238"/></clipPath><clipPath id="b9ca985f4c"><path d="M 252.140625 196.5 L 438.140625 196.5 L 438.140625 433.144531 L 252.140625 433.144531 Z M 252.140625 196.5 " clip-rule="nonzero"/></clipPath><clipPath id="37f2ac7e6d"><path d="M 150.589844 314.820312 L 538.128906 314.820312 L 538.128906 536.875 L 150.589844 536.875 Z M 150.589844 314.820312 " clip-rule="nonzero"/></clipPath><clipPath id="9b6ecd742d"><path d="M 0.589844 0.820312 L 388.128906 0.820312 L 388.128906 222.875 L 0.589844 222.875 Z M 0.589844 0.820312 " clip-rule="nonzero"/></clipPath><clipPath id="62915f134d"><rect x="0" width="389" y="0" height="223"/></clipPath><clipPath id="68a648e2aa"><path d="M 150.589844 314.820312 L 538.117188 314.820312 L 538.117188 536.820312 L 150.589844 536.820312 Z M 150.589844 314.820312 " clip-rule="nonzero"/></clipPath><clipPath id="77dcf05a62"><path d="M 329.078125 223.390625 L 361.523438 223.390625 L 361.523438 250.429688 L 329.078125 250.429688 Z M 302.039062 250.429688 L 388.5625 250.429688 L 388.5625 282.875 L 302.039062 282.875 Z M 329.078125 282.875 L 361.523438 282.875 L 361.523438 309.914062 L 329.078125 309.914062 Z M 329.078125 282.875 " clip-rule="nonzero"/></clipPath><clipPath id="a84efec8c9"><path d="M 27.078125 0.390625 L 59.523438 0.390625 L 59.523438 27.429688 L 27.078125 27.429688 Z M 0.0390625 27.429688 L 86.5625 27.429688 L 86.5625 59.875 L 0.0390625 59.875 Z M 27.078125 59.875 L 59.523438 59.875 L 59.523438 86.914062 L 27.078125 86.914062 Z M 27.078125 59.875 " clip-rule="nonzero"/></clipPath><clipPath id="92f4794ee3"><rect x="0" width="87" y="0" height="87"/></clipPath><clipPath id="1e05799de5"><path d="M 267.324219 306.101562 L 423.335938 306.101562 L 423.335938 408.175781 L 267.324219 408.175781 Z M 267.324219 306.101562 " clip-rule="nonzero"/></clipPath><clipPath id="76011d60e4"><path d="M 0.324219 0.101562 L 156.335938 0.101562 L 156.335938 102.175781 L 0.324219 102.175781 Z M 0.324219 0.101562 " clip-rule="nonzero"/></clipPath><clipPath id="ebf1405fcd"><rect x="0" width="157" y="0" height="103"/></clipPath><clipPath id="680d113652"><path d="M 201.925781 364.277344 L 267.175781 364.277344 L 267.175781 419.027344 L 201.925781 419.027344 Z M 201.925781 364.277344 " clip-rule="nonzero"/></clipPath><clipPath id="4c3fc803ce"><path d="M 427.472656 364.277344 L 493.308594 364.277344 L 493.308594 419.027344 L 427.472656 419.027344 Z M 427.472656 364.277344 " clip-rule="nonzero"/></clipPath><clipPath id="01bc56f39f"><path d="M 201.925781 440.78125 L 267.175781 440.78125 L 267.175781 490.277344 L 201.925781 490.277344 Z M 201.925781 440.78125 " clip-rule="nonzero"/></clipPath><clipPath id="3fcdb64f2a"><path d="M 428.480469 442.277344 L 493.648438 442.277344 L 493.648438 490.277344 L 428.480469 490.277344 Z M 428.480469 442.277344 " clip-rule="nonzero"/></clipPath><clipPath id="7f02d189ee"><path d="M 296.980469 455.4375 L 399.683594 455.4375 L 399.683594 533.132812 L 296.980469 533.132812 Z M 296.980469 455.4375 " clip-rule="nonzero"/></clipPath><clipPath id="99c3111773"><path d="M 343.273438 459.261719 L 353.023438 459.261719 L 353.023438 536.84375 L 343.273438 536.84375 Z M 343.273438 459.261719 " clip-rule="nonzero"/></clipPath><clipPath id="249e81f613"><path d="M 458.894531 138.003906 L 702.851562 138.003906 L 702.851562 357.140625 L 458.894531 357.140625 Z M 458.894531 138.003906 " clip-rule="nonzero"/></clipPath><clipPath id="dc757d3283"><path d="M 645.398438 138.003906 C 676.375 139.785156 700.941406 164.351562 702.367188 194.972656 L 702.367188 273.109375 C 700.941406 303.375 676.375 327.941406 646.109375 327.941406 L 535.804688 327.941406 C 527.613281 337.554688 518.710938 346.101562 508.386719 353.222656 L 501.621094 357.140625 C 498.0625 357.140625 497.347656 355.003906 498.417969 351.441406 C 500.910156 343.609375 500.554688 335.417969 497.707031 327.941406 L 496.636719 324.738281 C 474.917969 317.617188 459.25 296.964844 458.894531 273.109375 L 458.894531 194.617188 C 458.894531 164.351562 483.820312 139.785156 515.863281 138.003906 L 645.753906 138.003906 Z M 645.398438 138.003906 " clip-rule="nonzero"/></clipPath><clipPath id="238e7ef318"><path d="M 0.894531 0.00390625 L 244 0.00390625 L 244 219.140625 L 0.894531 219.140625 Z M 0.894531 0.00390625 " clip-rule="nonzero"/></clipPath><clipPath id="5180914ccc"><path d="M 187.398438 0.00390625 C 218.375 1.785156 242.941406 26.351562 244.367188 56.972656 L 244.367188 135.109375 C 242.941406 165.375 218.375 189.941406 188.109375 189.941406 L 77.804688 189.941406 C 69.613281 199.554688 60.710938 208.101562 50.386719 215.222656 L 43.621094 219.140625 C 40.0625 219.140625 39.347656 217.003906 40.417969 213.441406 C 42.910156 205.609375 42.554688 197.417969 39.707031 189.941406 L 38.636719 186.738281 C 16.917969 179.617188 1.25 158.964844 0.894531 135.109375 L 0.894531 56.617188 C 0.894531 26.351562 25.820312 1.785156 57.863281 0.00390625 L 187.753906 0.00390625 Z M 187.398438 0.00390625 " clip-rule="nonzero"/></clipPath><clipPath id="a4b671aa27"><rect x="0" width="245" y="0" height="220"/></clipPath><clipPath id="7cd84119e3"><path d="M 458.894531 138.003906 L 702.644531 138.003906 L 702.644531 357.003906 L 458.894531 357.003906 Z M 458.894531 138.003906 " clip-rule="nonzero"/></clipPath><clipPath id="eeb47ba7df"><path d="M 645.394531 138.003906 C 676.371094 139.785156 700.9375 164.351562 702.363281 194.972656 L 702.363281 273.105469 C 700.9375 303.371094 676.371094 327.9375 646.105469 327.9375 L 535.804688 327.9375 C 527.613281 337.550781 518.710938 346.097656 508.386719 353.21875 L 501.621094 357.132812 C 498.0625 357.132812 497.351562 354.996094 498.417969 351.4375 C 500.910156 343.605469 500.554688 335.414062 497.707031 327.9375 L 496.636719 324.734375 C 474.917969 317.613281 459.253906 296.960938 458.894531 273.105469 L 458.894531 194.617188 C 458.894531 164.351562 483.820312 139.785156 515.863281 138.003906 L 645.75 138.003906 Z M 645.394531 138.003906 " clip-rule="nonzero"/></clipPath><clipPath id="46aef111d0"><path d="M 596 211 L 664 211 L 664 301 L 596 301 Z M 596 211 " clip-rule="nonzero"/></clipPath><clipPath id="1f8c97bf42"><path d="M 622.722656 103.3125 L 729.042969 140.085938 L 636.378906 408.015625 L 530.058594 371.242188 Z M 622.722656 103.3125 " clip-rule="nonzero"/></clipPath><clipPath id="ed4c2ea1d3"><path d="M 484 183 L 587 183 L 587 246 L 484 246 Z M 484 183 " clip-rule="nonzero"/></clipPath><clipPath id="44ea118b98"><path d="M 481.816406 190.449219 L 583.84375 179.679688 L 590.140625 239.3125 L 488.113281 250.085938 Z M 481.816406 190.449219 " clip-rule="nonzero"/></clipPath><clipPath id="4bbb1f0b9a"><path d="M 541.5625 184.140625 L 524.097656 185.988281 C 510.597656 187.410156 498.214844 194.140625 489.679688 204.695312 C 482.3125 213.796875 483.722656 227.148438 492.828125 234.511719 C 503.378906 243.050781 516.894531 247.046875 530.394531 245.621094 L 547.859375 243.777344 C 561.359375 242.351562 573.742188 235.621094 582.277344 225.066406 C 589.640625 215.964844 588.234375 202.613281 579.128906 195.25 C 568.578125 186.710938 555.0625 182.71875 541.5625 184.140625 Z M 541.5625 184.140625 " clip-rule="nonzero"/></clipPath><clipPath id="8f785798ca"><path d="M 0 0 L 103 0 L 103 63 L 0 63 Z M 0 0 " clip-rule="nonzero"/></clipPath><clipPath id="f723b091b4"><path d="M -2.183594 7.449219 L 99.84375 -3.320312 L 106.140625 56.3125 L 4.113281 67.085938 Z M -2.183594 7.449219 " clip-rule="nonzero"/></clipPath><clipPath id="7337a1487b"><path d="M 57.5625 1.140625 L 40.097656 2.988281 C 26.597656 4.410156 14.214844 11.140625 5.679688 21.695312 C -1.6875 30.796875 -0.277344 44.148438 8.828125 51.511719 C 19.378906 60.050781 32.894531 64.046875 46.394531 62.621094 L 63.859375 60.777344 C 77.359375 59.351562 89.742188 52.621094 98.277344 42.066406 C 105.640625 32.964844 104.234375 19.613281 95.128906 12.25 C 84.578125 3.710938 71.0625 -0.28125 57.5625 1.140625 Z M 57.5625 1.140625 " clip-rule="nonzero"/></clipPath><clipPath id="4af0d12f3a"><rect x="0" width="103" y="0" height="63"/></clipPath><clipPath id="5aad2b1880"><path d="M 484 183 L 587 183 L 587 246 L 484 246 Z M 484 183 " clip-rule="nonzero"/></clipPath><clipPath id="f37cd25056"><path d="M 473.195312 191.359375 L 592.53125 178.761719 L 598.832031 238.429688 L 479.496094 251.03125 Z M 473.195312 191.359375 " clip-rule="nonzero"/></clipPath><clipPath id="46470a37c8"><path d="M 480.648438 190.574219 L 585.007812 179.554688 L 591.304688 239.1875 L 486.945312 250.207031 Z M 480.648438 190.574219 " clip-rule="nonzero"/></clipPath><clipPath id="8566c264bd"><path d="M 541.5625 184.140625 L 524.097656 185.988281 C 510.597656 187.410156 498.214844 194.140625 489.679688 204.695312 C 482.3125 213.796875 483.722656 227.148438 492.828125 234.511719 C 503.378906 243.050781 516.894531 247.046875 530.394531 245.621094 L 547.859375 243.777344 C 561.359375 242.351562 573.738281 235.621094 582.277344 225.066406 C 589.640625 215.964844 588.230469 202.613281 579.128906 195.25 C 568.574219 186.710938 555.0625 182.71875 541.5625 184.140625 Z M 541.5625 184.140625 " clip-rule="nonzero"/></clipPath><clipPath id="5fc24f06fa"><path d="M 515.792969 194.695312 L 556.164062 194.695312 L 556.164062 235.066406 L 515.792969 235.066406 Z M 515.792969 194.695312 " clip-rule="nonzero"/></clipPath><clipPath id="1a4de99eb9"><path d="M 535.976562 194.695312 C 524.828125 194.695312 515.792969 203.734375 515.792969 214.882812 C 515.792969 226.03125 524.828125 235.066406 535.976562 235.066406 C 547.128906 235.066406 556.164062 226.03125 556.164062 214.882812 C 556.164062 203.734375 547.128906 194.695312 535.976562 194.695312 Z M 535.976562 194.695312 " clip-rule="nonzero"/></clipPath><clipPath id="c27691b0c0"><path d="M 0.792969 0.695312 L 41.164062 0.695312 L 41.164062 41.066406 L 0.792969 41.066406 Z M 0.792969 0.695312 " clip-rule="nonzero"/></clipPath><clipPath id="93fd0a3610"><path d="M 20.976562 0.695312 C 9.828125 0.695312 0.792969 9.734375 0.792969 20.882812 C 0.792969 32.03125 9.828125 41.066406 20.976562 41.066406 C 32.128906 41.066406 41.164062 32.03125 41.164062 20.882812 C 41.164062 9.734375 32.128906 0.695312 20.976562 0.695312 Z M 20.976562 0.695312 " clip-rule="nonzero"/></clipPath><clipPath id="71c2831851"><rect x="0" width="42" y="0" height="42"/></clipPath><clipPath id="774ee1e37b"><path d="M 529.324219 196.496094 L 547.710938 196.496094 L 547.710938 214.882812 L 529.324219 214.882812 Z M 529.324219 196.496094 " clip-rule="nonzero"/></clipPath><clipPath id="ace8f7c961"><path d="M 538.515625 196.496094 C 533.441406 196.496094 529.324219 200.613281 529.324219 205.691406 C 529.324219 210.765625 533.441406 214.882812 538.515625 214.882812 C 543.59375 214.882812 547.710938 210.765625 547.710938 205.691406 C 547.710938 200.613281 543.59375 196.496094 538.515625 196.496094 Z M 538.515625 196.496094 " clip-rule="nonzero"/></clipPath><clipPath id="6d42b8b34f"><path d="M 0.324219 0.496094 L 18.710938 0.496094 L 18.710938 18.882812 L 0.324219 18.882812 Z M 0.324219 0.496094 " clip-rule="nonzero"/></clipPath><clipPath id="4f434a53ac"><path d="M 9.515625 0.496094 C 4.441406 0.496094 0.324219 4.613281 0.324219 9.691406 C 0.324219 14.765625 4.441406 18.882812 9.515625 18.882812 C 14.59375 18.882812 18.710938 14.765625 18.710938 9.691406 C 18.710938 4.613281 14.59375 0.496094 9.515625 0.496094 Z M 9.515625 0.496094 " clip-rule="nonzero"/></clipPath><clipPath id="1b7122384d"><rect x="0" width="19" y="0" height="19"/></clipPath><clipPath id="07b044d2dd"><path d="M 313.503906 364.277344 L 378.753906 364.277344 L 378.753906 419.027344 L 313.503906 419.027344 Z M 313.503906 364.277344 " clip-rule="nonzero"/></clipPath></defs><g clip-path="url(#d0eebbdeb4)"><g transform="matrix(1, 0, 0, 1, 252, 196)"><g clip-path="url(#41470cf7fa)"><g clip-path="url(#14baf339bf)"><path fill="#fcfcfd" d="M 0.140625 0.496094 L 186.460938 0.496094 L 186.460938 237.039062 L 0.140625 237.039062 Z M 0.140625 0.496094 " fill-opacity="1" fill-rule="nonzero"/></g></g></g></g><g clip-path="url(#b9ca985f4c)"><path stroke-linecap="butt" transform="matrix(0.75, 0, 0, 0.75, 252.141319, 196.500157)" fill="none" stroke-linejoin="miter" d="M -0.00092555 -0.000209099 L 248.420962 -0.000209099 L 248.420962 315.525848 L -0.00092555 315.525848 Z M -0.00092555 -0.000209099 " stroke="#000000" stroke-width="40" stroke-opacity="1" stroke-miterlimit="4"/></g><g clip-path="url(#37f2ac7e6d)"><g transform="matrix(1, 0, 0, 1, 150, 314)"><g clip-path="url(#62915f134d)"><g clip-path="url(#9b6ecd742d)"><path fill="#fcfcfd" d="M 0.589844 0.820312 L 388.316406 0.820312 L 388.316406 222.875 L 0.589844 222.875 Z M 0.589844 0.820312 " fill-opacity="1" fill-rule="nonzero"/></g></g></g></g><g clip-path="url(#68a648e2aa)"><path stroke-linecap="butt" transform="matrix(0.75, 0, 0, 0.75, 150.590782, 314.822114)" fill="none" stroke-linejoin="miter" d="M -0.00125062 -0.00240234 L 516.7019 -0.00240234 L 516.7019 296.060112 L -0.00125062 296.060112 Z M -0.00125062 -0.00240234 " stroke="#000000" stroke-width="40" stroke-opacity="1" stroke-miterlimit="4"/></g><g fill="#000000" fill-opacity="1"><g transform="translate(269.988274, 687.936082)"><g><path d="M 5.03125 0 L 5.03125 -12.234375 C 12.46875 -19.023438 18.984375 -25.335938 24.578125 -31.171875 C 30.179688 -37.015625 34.539062 -42.472656 37.65625 -47.546875 C 40.769531 -52.628906 42.328125 -57.328125 42.328125 -61.640625 C 42.328125 -65.710938 41.269531 -68.828125 39.15625 -70.984375 C 37.039062 -73.148438 34.222656 -74.234375 30.703125 -74.234375 C 27.660156 -74.234375 24.898438 -73.375 22.421875 -71.65625 C 19.941406 -69.9375 17.664062 -67.914062 15.59375 -65.59375 L 3.953125 -77.109375 C 8.347656 -81.742188 12.804688 -85.203125 17.328125 -87.484375 C 21.847656 -89.765625 27.265625 -90.90625 33.578125 -90.90625 C 39.335938 -90.90625 44.414062 -89.742188 48.8125 -87.421875 C 53.207031 -85.109375 56.644531 -81.851562 59.125 -77.65625 C 61.601562 -73.457031 62.84375 -68.519531 62.84375 -62.84375 C 62.84375 -57.726562 61.539062 -52.507812 58.9375 -47.1875 C 56.34375 -41.875 53.003906 -36.640625 48.921875 -31.484375 C 44.847656 -26.328125 40.535156 -21.429688 35.984375 -16.796875 C 38.210938 -17.109375 40.6875 -17.382812 43.40625 -17.625 C 46.125 -17.863281 48.484375 -17.984375 50.484375 -17.984375 L 66.921875 -17.984375 L 66.921875 0 Z M 5.03125 0 "/></g></g></g><g fill="#000000" fill-opacity="1"><g transform="translate(343.018331, 687.936082)"><g><path d="M 5.03125 0 L 5.03125 -12.234375 C 12.46875 -19.023438 18.984375 -25.335938 24.578125 -31.171875 C 30.179688 -37.015625 34.539062 -42.472656 37.65625 -47.546875 C 40.769531 -52.628906 42.328125 -57.328125 42.328125 -61.640625 C 42.328125 -65.710938 41.269531 -68.828125 39.15625 -70.984375 C 37.039062 -73.148438 34.222656 -74.234375 30.703125 -74.234375 C 27.660156 -74.234375 24.898438 -73.375 22.421875 -71.65625 C 19.941406 -69.9375 17.664062 -67.914062 15.59375 -65.59375 L 3.953125 -77.109375 C 8.347656 -81.742188 12.804688 -85.203125 17.328125 -87.484375 C 21.847656 -89.765625 27.265625 -90.90625 33.578125 -90.90625 C 39.335938 -90.90625 44.414062 -89.742188 48.8125 -87.421875 C 53.207031 -85.109375 56.644531 -81.851562 59.125 -77.65625 C 61.601562 -73.457031 62.84375 -68.519531 62.84375 -62.84375 C 62.84375 -57.726562 61.539062 -52.507812 58.9375 -47.1875 C 56.34375 -41.875 53.003906 -36.640625 48.921875 -31.484375 C 44.847656 -26.328125 40.535156 -21.429688 35.984375 -16.796875 C 38.210938 -17.109375 40.6875 -17.382812 43.40625 -17.625 C 46.125 -17.863281 48.484375 -17.984375 50.484375 -17.984375 L 66.921875 -17.984375 L 66.921875 0 Z M 5.03125 0 "/></g></g></g><g fill="#000000" fill-opacity="1"><g transform="translate(416.048387, 687.936082)"><g><path d="M 31.78125 -72.3125 L 31.78125 -48.328125 L 41.375 -48.328125 C 51.769531 -48.328125 56.96875 -52.601562 56.96875 -61.15625 C 56.96875 -65.394531 55.644531 -68.3125 53 -69.90625 C 50.363281 -71.507812 46.488281 -72.3125 41.375 -72.3125 Z M 82.5 0 L 58.515625 0 L 42.09375 -31.421875 L 31.78125 -31.421875 L 31.78125 0 L 10.3125 0 L 10.3125 -89.21875 L 43.046875 -89.21875 C 49.441406 -89.21875 55.273438 -88.378906 60.546875 -86.703125 C 65.828125 -85.023438 70.046875 -82.144531 73.203125 -78.0625 C 76.367188 -73.988281 77.953125 -68.351562 77.953125 -61.15625 C 77.953125 -54.601562 76.550781 -49.207031 73.75 -44.96875 C 70.957031 -40.726562 67.238281 -37.53125 62.59375 -35.375 Z M 82.5 0 "/></g></g></g><g clip-path="url(#77dcf05a62)"><g transform="matrix(1, 0, 0, 1, 302, 223)"><g clip-path="url(#92f4794ee3)"><g clip-path="url(#a84efec8c9)"><path fill="#ff5757" d="M 0.0390625 0.390625 L 86.5625 0.390625 L 86.5625 86.914062 L 0.0390625 86.914062 Z M 0.0390625 0.390625 " fill-opacity="1" fill-rule="nonzero"/></g></g></g></g><g clip-path="url(#1e05799de5)"><g transform="matrix(1, 0, 0, 1, 267, 306)"><g clip-path="url(#ebf1405fcd)"><g clip-path="url(#76011d60e4)"><path fill="#fcfcfd" d="M 0.324219 0.101562 L 156.226562 0.101562 L 156.226562 102.175781 L 0.324219 102.175781 Z M 0.324219 0.101562 " fill-opacity="1" fill-rule="nonzero"/></g></g></g></g><g clip-path="url(#680d113652)"><path stroke-linecap="butt" transform="matrix(0.75, 0, 0, 0.75, 201.927122, 364.278811)" fill="none" stroke-linejoin="miter" d="M -0.00178821 -0.0019564 L 87.185716 -0.0019564 L 87.185716 73.169922 L -0.00178821 73.169922 Z M -0.00178821 -0.0019564 " stroke="#000000" stroke-width="20" stroke-opacity="1" stroke-miterlimit="4"/></g><g clip-path="url(#4c3fc803ce)"><path stroke-linecap="butt" transform="matrix(0.75, 0, 0, 0.75, 427.473534, 364.278811)" fill="none" stroke-linejoin="miter" d="M -0.00117009 -0.0019564 L 87.780079 -0.0019564 L 87.780079 73.169917 L -0.00117009 73.169917 Z M -0.00117009 -0.0019564 " stroke="#000000" stroke-width="20" stroke-opacity="1" stroke-miterlimit="4"/></g><g clip-path="url(#01bc56f39f)"><path stroke-linecap="butt" transform="matrix(0.75, 0, 0, 0.75, 201.927122, 440.780159)" fill="none" stroke-linejoin="miter" d="M -0.00178821 0.00145531 L 87.185716 0.00145531 L 87.185716 66.465 L -0.00178821 66.465 Z M -0.00178821 0.00145531 " stroke="#000000" stroke-width="20" stroke-opacity="1" stroke-miterlimit="4"/></g><g clip-path="url(#3fcdb64f2a)"><path stroke-linecap="butt" transform="matrix(0.75, 0, 0, 0.75, 428.480142, 442.279222)" fill="none" stroke-linejoin="miter" d="M 0.000435975 -0.00250493 L 86.891065 -0.00250493 L 86.891065 64.466248 L 0.000435975 64.466248 Z M 0.000435975 -0.00250493 " stroke="#000000" stroke-width="20" stroke-opacity="1" stroke-miterlimit="4"/></g><g clip-path="url(#7f02d189ee)"><path stroke-linecap="butt" transform="matrix(0.75, 0, 0, 0.75, 296.979655, 455.436358)" fill="none" stroke-linejoin="miter" d="M 0.0010845 0.00152293 L 136.938591 0.00152293 L 136.938591 103.595278 L 0.0010845 103.595278 Z M 0.0010845 0.00152293 " stroke="#000000" stroke-width="20" stroke-opacity="1" stroke-miterlimit="4"/></g><g clip-path="url(#99c3111773)"><path stroke-linecap="butt" transform="matrix(0.75, 0, 0, 0.75, 343.274225, 459.260278)" fill="none" stroke-linejoin="miter" d="M -0.00105016 0.00192151 L 13.483325 0.00192151 L 13.483325 103.444628 L -0.00105016 103.444628 Z M -0.00105016 0.00192151 " stroke="#000000" stroke-width="20" stroke-opacity="1" stroke-miterlimit="4"/></g><g clip-path="url(#249e81f613)"><g clip-path="url(#dc757d3283)"><g transform="matrix(1, 0, 0, 1, 458, 138)"><g clip-path="url(#a4b671aa27)"><g clip-path="url(#238e7ef318)"><g clip-path="url(#5180914ccc)"><path fill="#fcfcfd" d="M 0.894531 0.00390625 L 243.996094 0.00390625 L 243.996094 219.140625 L 0.894531 219.140625 Z M 0.894531 0.00390625 " fill-opacity="1" fill-rule="nonzero"/></g></g></g></g></g></g><g clip-path="url(#7cd84119e3)"><g clip-path="url(#eeb47ba7df)"><path stroke-linecap="butt" transform="matrix(0.75, 0, 0, 0.75, 458.896348, 138.0047)" fill="none" stroke-linejoin="miter" d="M 248.664256 -0.00105897 C 289.966341 2.373941 322.721551 35.129151 324.622593 75.957278 L 324.622593 180.134366 C 322.721551 220.488535 289.966341 253.243745 249.612173 253.243745 L 102.544457 253.243745 C 91.622582 266.061454 79.75279 277.457288 65.987164 286.95208 L 56.96633 292.17083 C 52.221538 292.17083 51.273621 289.321872 52.695497 284.57708 C 56.018413 274.134371 55.544455 263.212496 51.74758 253.243745 L 50.320496 248.972912 C 21.362162 239.478119 0.476744 211.94166 -0.00242272 180.134366 L -0.00242272 75.48332 C -0.00242272 35.129151 33.231954 2.373941 75.955914 -0.00105897 L 249.138214 -0.00105897 Z M 248.664256 -0.00105897 " stroke="#000000" stroke-width="40" stroke-opacity="1" stroke-miterlimit="4"/></g></g><g clip-path="url(#46aef111d0)"><g clip-path="url(#1f8c97bf42)"><g fill="#000000" fill-opacity="1"><g transform="translate(578.163456, 272.809368)"><g><path d="M 63.0625 -54.5625 L 65.109375 -53.859375 C 63.765625 -49.960938 63.53125 -46.222656 64.40625 -42.640625 C 65.28125 -39.066406 66.597656 -35.769531 68.359375 -32.75 C 69.535156 -30.757812 70.597656 -28.550781 71.546875 -26.125 C 72.503906 -23.707031 73.125 -21.191406 73.40625 -18.578125 C 73.6875 -15.960938 73.382812 -13.390625 72.5 -10.859375 C 71.320312 -7.441406 69.503906 -4.289062 67.046875 -1.40625 C 64.597656 1.46875 61.859375 4.140625 58.828125 6.609375 L 56.71875 5.875 C 57.738281 4.84375 58.972656 3.546875 60.421875 1.984375 C 61.867188 0.421875 63.257812 -1.320312 64.59375 -3.25 C 65.9375 -5.1875 66.984375 -7.238281 67.734375 -9.40625 C 68.816406 -12.539062 69.15625 -15.632812 68.75 -18.6875 C 68.351562 -21.738281 67.335938 -24.546875 65.703125 -27.109375 C 64.078125 -29.671875 61.957031 -31.734375 59.34375 -33.296875 L 45.25 7.46875 C 44.269531 10.28125 42.722656 12.472656 40.609375 14.046875 C 38.492188 15.617188 36.113281 16.582031 33.46875 16.9375 C 30.832031 17.300781 28.210938 17.035156 25.609375 16.140625 C 23.773438 15.503906 22.226562 14.40625 20.96875 12.84375 C 19.71875 11.289062 19.4375 9.507812 20.125 7.5 C 20.800781 5.550781 22.140625 3.96875 24.140625 2.75 C 26.140625 1.53125 28.40625 0.769531 30.9375 0.46875 C 33.46875 0.164062 35.84375 0.398438 38.0625 1.171875 C 40.164062 1.898438 41.75 2.835938 42.8125 3.984375 Z M 63.0625 -54.5625 "/></g></g></g></g></g><g clip-path="url(#ed4c2ea1d3)"><g clip-path="url(#44ea118b98)"><g clip-path="url(#4bbb1f0b9a)"><g transform="matrix(1, 0, 0, 1, 484, 183)"><g clip-path="url(#4af0d12f3a)"><g clip-path="url(#8f785798ca)"><g clip-path="url(#f723b091b4)"><g clip-path="url(#7337a1487b)"><path fill="#fcfcfd" d="M -10.804688 8.359375 L 108.464844 -4.230469 L 114.761719 55.402344 L -4.507812 67.996094 Z M -10.804688 8.359375 " fill-opacity="1" fill-rule="nonzero"/></g></g></g></g></g></g></g></g><g clip-path="url(#5aad2b1880)"><g clip-path="url(#f37cd25056)"><g clip-path="url(#46470a37c8)"><g clip-path="url(#8566c264bd)"><path stroke-linecap="butt" transform="matrix(0.745854, -0.0787526, 0.0787526, 0.745854, 473.196052, 191.361104)" fill="none" stroke-linejoin="miter" d="M 91.662254 -0.00246046 L 68.245844 0.00230218 C 50.14628 -0.00240838 32.784836 7.188289 19.989833 19.988448 C 8.946956 31.025338 8.947489 48.926439 19.990105 59.964683 C 32.784538 72.76432 50.146279 79.955242 68.24639 79.954773 L 91.662253 79.95519 C 109.762364 79.954721 127.118628 72.763476 139.918811 59.963864 C 150.956508 48.926427 150.955976 31.025326 139.918538 19.987629 C 127.118926 7.187446 109.761818 0.0022501 91.662254 -0.00246046 Z M 91.662254 -0.00246046 " stroke="#000000" stroke-width="26" stroke-opacity="1" stroke-miterlimit="4"/></g></g></g></g><g clip-path="url(#5fc24f06fa)"><g clip-path="url(#1a4de99eb9)"><g transform="matrix(1, 0, 0, 1, 515, 194)"><g clip-path="url(#71c2831851)"><g clip-path="url(#c27691b0c0)"><g clip-path="url(#93fd0a3610)"><path fill="#000000" d="M 0.792969 0.695312 L 41.164062 0.695312 L 41.164062 41.066406 L 0.792969 41.066406 Z M 0.792969 0.695312 " fill-opacity="1" fill-rule="nonzero"/></g></g></g></g></g></g><path stroke-linecap="butt" transform="matrix(0.343723, 0.666599, -0.666599, 0.343723, 508.811114, 173.844856)" fill="none" stroke-linejoin="miter" d="M -0.00210269 5.00125 L 26.392561 4.998607 " stroke="#000000" stroke-width="10" stroke-opacity="1" stroke-miterlimit="4"/><g clip-path="url(#774ee1e37b)"><g clip-path="url(#ace8f7c961)"><g transform="matrix(1, 0, 0, 1, 529, 196)"><g clip-path="url(#1b7122384d)"><g clip-path="url(#6d42b8b34f)"><g clip-path="url(#4f434a53ac)"><path fill="#fcfcfd" d="M 0.324219 0.496094 L 18.710938 0.496094 L 18.710938 18.882812 L 0.324219 18.882812 Z M 0.324219 0.496094 " fill-opacity="1" fill-rule="nonzero"/></g></g></g></g></g></g><path stroke-linecap="butt" transform="matrix(0.0568153, 0.747845, -0.747845, 0.0568153, 539.713632, 171.25056)" fill="none" stroke-linejoin="miter" d="M 0.000514737 5.002381 L 21.494716 5.000432 " stroke="#000000" stroke-width="10" stroke-opacity="1" stroke-miterlimit="4"/><path stroke-linecap="butt" transform="matrix(-0.452108, 0.598413, -0.598413, -0.452108, 566.764199, 177.82595)" fill="none" stroke-linejoin="miter" d="M 0.0000139666 4.997811 L 23.131426 5.002884 " stroke="#000000" stroke-width="10" stroke-opacity="1" stroke-miterlimit="4"/><g clip-path="url(#07b044d2dd)"><path stroke-linecap="butt" transform="matrix(0.75, 0, 0, 0.75, 313.503386, 364.278811)" fill="none" stroke-linejoin="miter" d="M 0.000693971 -0.0019564 L 87.188198 -0.0019564 L 87.188198 73.169922 L 0.000693971 73.169922 Z M 0.000693971 -0.0019564 " stroke="#000000" stroke-width="20" stroke-opacity="1" stroke-miterlimit="4"/></g></svg>