<svg xmlns="http://www.w3.org/2000/svg" xmlns:xlink="http://www.w3.org/1999/xlink" width="1000" zoomAndPan="magnify" viewBox="0 0 750 749.999995" height="1000" preserveAspectRatio="xMidYMid meet" version="1.0"><defs><g/><clipPath id="9e5abebca3"><path d="M 146.070312 54.148438 L 603.570312 54.148438 L 603.570312 602.359375 L 146.070312 602.359375 Z M 146.070312 54.148438 " clip-rule="nonzero"/></clipPath><clipPath id="9434ab3fd5"><path d="M 189.519531 88.902344 L 560.480469 88.902344 L 560.480469 567.402344 L 189.519531 567.402344 Z M 189.519531 88.902344 " clip-rule="nonzero"/></clipPath></defs><g fill="#000000" fill-opacity="1"><g transform="translate(269.988274, 721.346937)"><g><path d="M 5.03125 0 L 5.03125 -12.234375 C 12.46875 -19.023438 18.984375 -25.335938 24.578125 -31.171875 C 30.179688 -37.015625 34.539062 -42.472656 37.65625 -47.546875 C 40.769531 -52.628906 42.328125 -57.328125 42.328125 -61.640625 C 42.328125 -65.710938 41.269531 -68.828125 39.15625 -70.984375 C 37.039062 -73.148438 34.222656 -74.234375 30.703125 -74.234375 C 27.660156 -74.234375 24.898438 -73.375 22.421875 -71.65625 C 19.941406 -69.9375 17.664062 -67.914062 15.59375 -65.59375 L 3.953125 -77.109375 C 8.347656 -81.742188 12.804688 -85.203125 17.328125 -87.484375 C 21.847656 -89.765625 27.265625 -90.90625 33.578125 -90.90625 C 39.335938 -90.90625 44.414062 -89.742188 48.8125 -87.421875 C 53.207031 -85.109375 56.644531 -81.851562 59.125 -77.65625 C 61.601562 -73.457031 62.84375 -68.519531 62.84375 -62.84375 C 62.84375 -57.726562 61.539062 -52.507812 58.9375 -47.1875 C 56.34375 -41.875 53.003906 -36.640625 48.921875 -31.484375 C 44.847656 -26.328125 40.535156 -21.429688 35.984375 -16.796875 C 38.210938 -17.109375 40.6875 -17.382812 43.40625 -17.625 C 46.125 -17.863281 48.484375 -17.984375 50.484375 -17.984375 L 66.921875 -17.984375 L 66.921875 0 Z M 5.03125 0 "/></g></g></g><g fill="#000000" fill-opacity="1"><g transform="translate(343.018331, 721.346937)"><g><path d="M 33.453125 1.671875 C 26.421875 1.671875 20.382812 0.535156 15.34375 -1.734375 C 10.3125 -4.015625 6.15625 -7.035156 2.875 -10.796875 L 12.71875 -24.21875 C 15.4375 -21.664062 18.351562 -19.585938 21.46875 -17.984375 C 24.582031 -16.390625 27.859375 -15.59375 31.296875 -15.59375 C 35.453125 -15.59375 38.769531 -16.453125 41.25 -18.171875 C 43.726562 -19.890625 44.96875 -22.425781 44.96875 -25.78125 C 44.96875 -28.34375 44.367188 -30.539062 43.171875 -32.375 C 41.972656 -34.21875 39.734375 -35.617188 36.453125 -36.578125 C 33.179688 -37.535156 28.425781 -38.015625 22.1875 -38.015625 L 22.1875 -53 C 29.78125 -53 35.015625 -54.078125 37.890625 -56.234375 C 40.773438 -58.398438 42.21875 -61.242188 42.21875 -64.765625 C 42.21875 -71.078125 38.816406 -74.234375 32.015625 -74.234375 C 29.054688 -74.234375 26.335938 -73.570312 23.859375 -72.25 C 21.378906 -70.9375 18.78125 -69.117188 16.0625 -66.796875 L 5.28125 -79.875 C 9.4375 -83.382812 13.769531 -86.097656 18.28125 -88.015625 C 22.800781 -89.941406 27.703125 -90.90625 32.984375 -90.90625 C 42.253906 -90.90625 49.664062 -88.804688 55.21875 -84.609375 C 60.78125 -80.410156 63.5625 -74.3125 63.5625 -66.3125 C 63.5625 -61.914062 62.359375 -58.019531 59.953125 -54.625 C 57.554688 -51.226562 53.960938 -48.570312 49.171875 -46.65625 L 49.171875 -46.046875 C 54.128906 -44.523438 58.242188 -41.96875 61.515625 -38.375 C 64.796875 -34.78125 66.4375 -30.101562 66.4375 -24.34375 C 66.4375 -18.820312 64.914062 -14.125 61.875 -10.25 C 58.84375 -6.375 54.828125 -3.414062 49.828125 -1.375 C 44.828125 0.65625 39.367188 1.671875 33.453125 1.671875 Z M 33.453125 1.671875 "/></g></g></g><g fill="#000000" fill-opacity="1"><g transform="translate(416.048387, 721.346937)"><g><path d="M 31.78125 -72.3125 L 31.78125 -48.328125 L 41.375 -48.328125 C 51.769531 -48.328125 56.96875 -52.601562 56.96875 -61.15625 C 56.96875 -65.394531 55.644531 -68.3125 53 -69.90625 C 50.363281 -71.507812 46.488281 -72.3125 41.375 -72.3125 Z M 82.5 0 L 58.515625 0 L 42.09375 -31.421875 L 31.78125 -31.421875 L 31.78125 0 L 10.3125 0 L 10.3125 -89.21875 L 43.046875 -89.21875 C 49.441406 -89.21875 55.273438 -88.378906 60.546875 -86.703125 C 65.828125 -85.023438 70.046875 -82.144531 73.203125 -78.0625 C 76.367188 -73.988281 77.953125 -68.351562 77.953125 -61.15625 C 77.953125 -54.601562 76.550781 -49.207031 73.75 -44.96875 C 70.957031 -40.726562 67.238281 -37.53125 62.59375 -35.375 Z M 82.5 0 "/></g></g></g><g clip-path="url(#9e5abebca3)"><path stroke-linecap="butt" transform="matrix(0.75, 0, 0, 0.75, 146.071066, 54.148083)" fill="none" stroke-linejoin="miter" d="M -0.00100458 0.000472718 L 610.467775 0.000472718 L 610.467775 730.948425 L -0.00100458 730.948425 Z M -0.00100458 0.000472718 " stroke="#000000" stroke-width="40" stroke-opacity="1" stroke-miterlimit="4"/></g><g clip-path="url(#9434ab3fd5)"><path stroke-linecap="butt" transform="matrix(0.75, 0, 0, 0.75, 189.518254, 88.902203)" fill="none" stroke-linejoin="miter" d="M 0.00170271 0.000187843 L 494.61631 0.000187843 L 494.61631 638.265844 L 0.00170271 638.265844 Z M 0.00170271 0.000187843 " stroke="#000000" stroke-width="40" stroke-opacity="1" stroke-miterlimit="4"/></g></svg>