<svg xmlns="http://www.w3.org/2000/svg" xmlns:xlink="http://www.w3.org/1999/xlink" width="1000" zoomAndPan="magnify" viewBox="0 0 750 749.999995" height="1000" preserveAspectRatio="xMidYMid meet" version="1.0"><defs><clipPath id="ba3235ee28"><path d="M 448.417969 146.960938 L 525.222656 146.960938 L 525.222656 210.964844 L 448.417969 210.964844 Z M 384.410156 210.964844 L 589.230469 210.964844 L 589.230469 287.773438 L 384.410156 287.773438 Z M 448.417969 287.773438 L 525.222656 287.773438 L 525.222656 351.78125 L 448.417969 351.78125 Z M 448.417969 287.773438 " clip-rule="nonzero"/></clipPath><clipPath id="b486b44d43"><path d="M 64.417969 0.960938 L 141.222656 0.960938 L 141.222656 64.964844 L 64.417969 64.964844 Z M 0.410156 64.964844 L 205.230469 64.964844 L 205.230469 141.773438 L 0.410156 141.773438 Z M 64.417969 141.773438 L 141.222656 141.773438 L 141.222656 205.78125 L 64.417969 205.78125 Z M 64.417969 141.773438 " clip-rule="nonzero"/></clipPath><clipPath id="be2521381e"><rect x="0" width="206" y="0" height="206"/></clipPath><clipPath id="9e66a6fb95"><path d="M 178.363281 417.316406 L 581.847656 417.316406 L 581.847656 518.566406 L 178.363281 518.566406 Z M 178.363281 417.316406 " clip-rule="nonzero"/></clipPath><clipPath id="526eec2aaf"><path d="M 195.609375 417.316406 L 564.746094 417.316406 C 574.273438 417.316406 581.996094 425.039062 581.996094 434.5625 L 581.996094 501.539062 C 581.996094 511.066406 574.273438 518.789062 564.746094 518.789062 L 195.609375 518.789062 C 186.085938 518.789062 178.363281 511.066406 178.363281 501.539062 L 178.363281 434.5625 C 178.363281 425.039062 186.085938 417.316406 195.609375 417.316406 Z M 195.609375 417.316406 " clip-rule="nonzero"/></clipPath><clipPath id="ab8b45e54f"><path d="M 177.605469 370.261719 L 318.597656 370.261719 L 318.597656 428.761719 L 177.605469 428.761719 Z M 177.605469 370.261719 " clip-rule="nonzero"/></clipPath><clipPath id="dc0e1026b0"><path d="M 197.851562 370.261719 L 298.472656 370.261719 C 309.652344 370.261719 318.71875 379.328125 318.71875 390.511719 L 318.71875 408.539062 C 318.71875 419.71875 309.652344 428.785156 298.472656 428.785156 L 197.851562 428.785156 C 186.667969 428.785156 177.605469 419.71875 177.605469 408.539062 L 177.605469 390.511719 C 177.605469 379.328125 186.667969 370.261719 197.851562 370.261719 Z M 197.851562 370.261719 " clip-rule="nonzero"/></clipPath><clipPath id="8b85a24204"><path d="M 377 355 L 638 355 L 638 655 L 377 655 Z M 377 355 " clip-rule="nonzero"/></clipPath><clipPath id="ac35cad4b1"><path d="M 552.054688 334.617188 L 658.074219 413.917969 L 462.609375 675.246094 L 356.589844 595.945312 Z M 552.054688 334.617188 " clip-rule="nonzero"/></clipPath><clipPath id="af23ec2876"><path d="M 592.894531 365.164062 L 617.234375 383.371094 C 628.066406 391.472656 635.238281 403.546875 637.167969 416.933594 C 639.097656 430.320312 635.628906 443.925781 627.527344 454.757812 L 493.339844 634.164062 C 485.238281 644.992188 473.164062 652.164062 459.777344 654.09375 C 446.390625 656.023438 432.785156 652.558594 421.953125 644.457031 L 397.609375 626.246094 C 386.777344 618.148438 379.609375 606.074219 377.679688 592.6875 C 375.75 579.296875 379.214844 565.691406 387.316406 554.863281 L 521.507812 375.457031 C 529.609375 364.625 541.679688 357.457031 555.066406 355.527344 C 568.457031 353.59375 582.0625 357.0625 592.894531 365.164062 Z M 592.894531 365.164062 " clip-rule="nonzero"/></clipPath><clipPath id="c3326a7910"><path d="M 0 0 L 261 0 L 261 300 L 0 300 Z M 0 0 " clip-rule="nonzero"/></clipPath><clipPath id="703ce02ed8"><path d="M 175.054688 -20.382812 L 281.074219 58.917969 L 85.609375 320.246094 L -20.410156 240.945312 Z M 175.054688 -20.382812 " clip-rule="nonzero"/></clipPath><clipPath id="b3dde7d6d3"><path d="M 215.894531 10.164062 L 240.234375 28.371094 C 251.066406 36.472656 258.238281 48.546875 260.167969 61.933594 C 262.097656 75.320312 258.628906 88.925781 250.527344 99.757812 L 116.339844 279.164062 C 108.238281 289.992188 96.164062 297.164062 82.777344 299.09375 C 69.390625 301.023438 55.785156 297.558594 44.953125 289.457031 L 20.609375 271.246094 C 9.777344 263.148438 2.609375 251.074219 0.679688 237.6875 C -1.25 224.296875 2.214844 210.691406 10.316406 199.863281 L 144.507812 20.457031 C 152.609375 9.625 164.679688 2.457031 178.066406 0.527344 C 191.457031 -1.40625 205.0625 2.0625 215.894531 10.164062 Z M 215.894531 10.164062 " clip-rule="nonzero"/></clipPath><clipPath id="32163d53fb"><rect x="0" width="261" y="0" height="300"/></clipPath><clipPath id="d6f37c6849"><path d="M 377 355 L 638 355 L 638 655 L 377 655 Z M 377 355 " clip-rule="nonzero"/></clipPath><clipPath id="7e3fe15224"><path d="M 552.054688 334.617188 L 658.355469 414.128906 L 462.945312 675.382812 L 356.644531 595.871094 Z M 552.054688 334.617188 " clip-rule="nonzero"/></clipPath><clipPath id="cafc5dd388"><path d="M 551.277344 329.269531 L 661.542969 411.746094 L 462.222656 678.226562 L 351.957031 595.75 Z M 551.277344 329.269531 " clip-rule="nonzero"/></clipPath><clipPath id="b1ea1bd834"><path d="M 592.882812 365.167969 L 617.222656 383.375 C 628.054688 391.476562 635.222656 403.546875 637.152344 416.933594 C 639.082031 430.320312 635.617188 443.925781 627.515625 454.753906 L 493.339844 634.144531 C 485.238281 644.972656 473.167969 652.144531 459.78125 654.074219 C 446.394531 656.003906 432.789062 652.535156 421.957031 644.433594 L 397.617188 626.230469 C 386.789062 618.128906 379.617188 606.058594 377.6875 592.671875 C 375.757812 579.285156 379.226562 565.679688 387.324219 554.847656 L 521.503906 375.460938 C 529.605469 364.628906 541.675781 357.460938 555.0625 355.53125 C 568.449219 353.601562 582.054688 357.066406 592.882812 365.167969 Z M 592.882812 365.167969 " clip-rule="nonzero"/></clipPath><clipPath id="ed778a34bf"><path d="M 445 440 L 576 440 L 576 567 L 445 567 Z M 445 440 " clip-rule="nonzero"/></clipPath><clipPath id="a1b5cc7cc8"><path d="M 493.296875 437.464844 L 577.871094 498.417969 L 527.003906 568.996094 L 442.429688 508.042969 Z M 493.296875 437.464844 " clip-rule="nonzero"/></clipPath><clipPath id="ceb36d4028"><path d="M 493.296875 437.464844 L 579.144531 499.335938 L 526.554688 572.308594 L 440.707031 510.4375 Z M 493.296875 437.464844 " clip-rule="nonzero"/></clipPath><clipPath id="bf115dfb09"><path d="M 499.382812 441.851562 L 571.921875 494.128906 C 575.28125 496.550781 576.042969 501.238281 573.621094 504.597656 L 531.332031 563.273438 C 528.910156 566.636719 524.222656 567.394531 520.863281 564.972656 L 448.324219 512.695312 C 444.960938 510.273438 444.203125 505.585938 446.625 502.226562 L 488.914062 443.550781 C 491.335938 440.1875 496.023438 439.429688 499.382812 441.851562 Z M 499.382812 441.851562 " clip-rule="nonzero"/></clipPath><clipPath id="18b169b2c2"><path d="M 547 402 L 564 402 L 564 420 L 547 420 Z M 547 402 " clip-rule="nonzero"/></clipPath><clipPath id="84deb50972"><path d="M 548.503906 401.28125 L 564.917969 403.789062 L 562.410156 420.203125 L 545.996094 417.695312 Z M 548.503906 401.28125 " clip-rule="nonzero"/></clipPath><clipPath id="d8bd1b71ff"><path d="M 556.710938 402.535156 C 552.175781 401.84375 547.941406 404.957031 547.25 409.488281 C 546.554688 414.023438 549.667969 418.257812 554.203125 418.949219 C 558.734375 419.644531 562.972656 416.53125 563.664062 411.996094 C 564.355469 407.464844 561.242188 403.226562 556.710938 402.535156 Z M 556.710938 402.535156 " clip-rule="nonzero"/></clipPath><clipPath id="e88afdfbb5"><path d="M 0 0 L 17 0 L 17 17.761719 L 0 17.761719 Z M 0 0 " clip-rule="nonzero"/></clipPath><clipPath id="d9cf9ca86b"><path d="M 1.503906 -0.71875 L 17.917969 1.789062 L 15.410156 18.203125 L -1.003906 15.695312 Z M 1.503906 -0.71875 " clip-rule="nonzero"/></clipPath><clipPath id="67fb2dc898"><path d="M 9.710938 0.535156 C 5.175781 -0.15625 0.941406 2.957031 0.25 7.488281 C -0.445312 12.023438 2.667969 16.257812 7.203125 16.949219 C 11.734375 17.644531 15.972656 14.53125 16.664062 9.996094 C 17.355469 5.464844 14.242188 1.226562 9.710938 0.535156 Z M 9.710938 0.535156 " clip-rule="nonzero"/></clipPath><clipPath id="4a7412d504"><rect x="0" width="17" y="0" height="18"/></clipPath><clipPath id="78bba51eb2"><path d="M 580 422 L 598 422 L 598 440 L 580 440 Z M 580 422 " clip-rule="nonzero"/></clipPath><clipPath id="420b60e297"><path d="M 582.277344 421.441406 L 598.691406 423.945312 L 596.183594 440.363281 L 579.769531 437.855469 Z M 582.277344 421.441406 " clip-rule="nonzero"/></clipPath><clipPath id="be75810daa"><path d="M 590.484375 422.695312 C 585.949219 422 581.714844 425.113281 581.023438 429.648438 C 580.332031 434.179688 583.445312 438.417969 587.976562 439.109375 C 592.507812 439.800781 596.746094 436.6875 597.4375 432.15625 C 598.128906 427.621094 595.015625 423.386719 590.484375 422.695312 Z M 590.484375 422.695312 " clip-rule="nonzero"/></clipPath><clipPath id="6b42ddd8d8"><path d="M 0.320312 0 L 18 0 L 18 17.921875 L 0.320312 17.921875 Z M 0.320312 0 " clip-rule="nonzero"/></clipPath><clipPath id="878a511319"><path d="M 2.277344 -0.558594 L 18.691406 1.945312 L 16.183594 18.363281 L -0.230469 15.855469 Z M 2.277344 -0.558594 " clip-rule="nonzero"/></clipPath><clipPath id="0cd615173e"><path d="M 10.484375 0.695312 C 5.949219 0 1.714844 3.113281 1.023438 7.648438 C 0.332031 12.179688 3.445312 16.417969 7.976562 17.109375 C 12.507812 17.800781 16.746094 14.6875 17.4375 10.15625 C 18.128906 5.621094 15.015625 1.386719 10.484375 0.695312 Z M 10.484375 0.695312 " clip-rule="nonzero"/></clipPath><clipPath id="2d304a833d"><rect x="0" width="18" y="0" height="18"/></clipPath><clipPath id="ee77e706a1"><path d="M 528 431 L 546 431 L 546 449 L 528 449 Z M 528 431 " clip-rule="nonzero"/></clipPath><clipPath id="3e3ae118fa"><path d="M 530.257812 430.292969 L 546.671875 432.800781 L 544.167969 449.214844 L 527.75 446.707031 Z M 530.257812 430.292969 " clip-rule="nonzero"/></clipPath><clipPath id="dc196e4f09"><path d="M 538.464844 431.546875 C 533.933594 430.855469 529.699219 433.96875 529.003906 438.5 C 528.3125 443.035156 531.425781 447.269531 535.960938 447.960938 C 540.492188 448.65625 544.726562 445.539062 545.421875 441.007812 C 546.113281 436.476562 543 432.238281 538.464844 431.546875 Z M 538.464844 431.546875 " clip-rule="nonzero"/></clipPath><clipPath id="7acd4396ad"><path d="M 0.238281 0 L 18 0 L 18 17.800781 L 0.238281 17.800781 Z M 0.238281 0 " clip-rule="nonzero"/></clipPath><clipPath id="793757144f"><path d="M 2.257812 -0.707031 L 18.671875 1.800781 L 16.167969 18.214844 L -0.25 15.707031 Z M 2.257812 -0.707031 " clip-rule="nonzero"/></clipPath><clipPath id="084c2bcd6e"><path d="M 10.464844 0.546875 C 5.933594 -0.144531 1.699219 2.96875 1.003906 7.5 C 0.3125 12.035156 3.425781 16.269531 7.960938 16.960938 C 12.492188 17.65625 16.726562 14.539062 17.421875 10.007812 C 18.113281 5.476562 15 1.238281 10.464844 0.546875 Z M 10.464844 0.546875 " clip-rule="nonzero"/></clipPath><clipPath id="fdb5ef66a5"><rect x="0" width="18" y="0" height="18"/></clipPath><clipPath id="466997ccb8"><path d="M 559 452 L 577 452 L 577 470 L 559 470 Z M 559 452 " clip-rule="nonzero"/></clipPath><clipPath id="e739b3cf0c"><path d="M 560.847656 451.761719 L 577.261719 454.269531 L 574.753906 470.683594 L 558.339844 468.179688 Z M 560.847656 451.761719 " clip-rule="nonzero"/></clipPath><clipPath id="7e6875ba50"><path d="M 569.054688 453.015625 C 564.523438 452.324219 560.285156 455.4375 559.59375 459.972656 C 558.902344 464.503906 562.015625 468.738281 566.546875 469.433594 C 571.082031 470.125 575.316406 467.011719 576.007812 462.476562 C 576.699219 457.945312 573.585938 453.710938 569.054688 453.015625 Z M 569.054688 453.015625 " clip-rule="nonzero"/></clipPath><clipPath id="60d16d67cf"><path d="M 0 0.160156 L 17.71875 0.160156 L 17.71875 18 L 0 18 Z M 0 0.160156 " clip-rule="nonzero"/></clipPath><clipPath id="a2a19ba26c"><path d="M 1.847656 -0.238281 L 18.261719 2.269531 L 15.753906 18.683594 L -0.660156 16.179688 Z M 1.847656 -0.238281 " clip-rule="nonzero"/></clipPath><clipPath id="d2218c9071"><path d="M 10.054688 1.015625 C 5.523438 0.324219 1.285156 3.4375 0.59375 7.972656 C -0.0976562 12.503906 3.015625 16.738281 7.546875 17.433594 C 12.082031 18.125 16.316406 15.011719 17.007812 10.476562 C 17.699219 5.945312 14.585938 1.710938 10.054688 1.015625 Z M 10.054688 1.015625 " clip-rule="nonzero"/></clipPath><clipPath id="a75b0be819"><rect x="0" width="18" y="0" height="18"/></clipPath><clipPath id="5e1d04c8ca"><path d="M 440 543 L 458 543 L 458 561 L 440 561 Z M 440 543 " clip-rule="nonzero"/></clipPath><clipPath id="a01cf37c38"><path d="M 441.882812 542.636719 L 458.296875 545.144531 L 455.789062 561.558594 L 439.375 559.050781 Z M 441.882812 542.636719 " clip-rule="nonzero"/></clipPath><clipPath id="e32b5e4c5c"><path d="M 450.089844 543.890625 C 445.554688 543.199219 441.320312 546.3125 440.628906 550.84375 C 439.933594 555.375 443.046875 559.613281 447.582031 560.304688 C 452.113281 560.996094 456.351562 557.882812 457.042969 553.351562 C 457.734375 548.816406 454.621094 544.582031 450.089844 543.890625 Z M 450.089844 543.890625 " clip-rule="nonzero"/></clipPath><clipPath id="4d955b00ae"><path d="M 0 0.121094 L 17.921875 0.121094 L 17.921875 18 L 0 18 Z M 0 0.121094 " clip-rule="nonzero"/></clipPath><clipPath id="00d8683bb7"><path d="M 1.882812 -0.363281 L 18.296875 2.144531 L 15.789062 18.558594 L -0.625 16.050781 Z M 1.882812 -0.363281 " clip-rule="nonzero"/></clipPath><clipPath id="978d3891f5"><path d="M 10.089844 0.890625 C 5.554688 0.199219 1.320312 3.3125 0.628906 7.84375 C -0.0664062 12.375 3.046875 16.613281 7.582031 17.304688 C 12.113281 17.996094 16.351562 14.882812 17.042969 10.351562 C 17.734375 5.816406 14.621094 1.582031 10.089844 0.890625 Z M 10.089844 0.890625 " clip-rule="nonzero"/></clipPath><clipPath id="3352dd7fe2"><rect x="0" width="18" y="0" height="18"/></clipPath><clipPath id="653b338234"><path d="M 419 569 L 437 569 L 437 587 L 419 587 Z M 419 569 " clip-rule="nonzero"/></clipPath><clipPath id="cd50ab7fad"><path d="M 421.148438 568.410156 L 437.5625 570.917969 L 435.054688 587.332031 L 418.640625 584.824219 Z M 421.148438 568.410156 " clip-rule="nonzero"/></clipPath><clipPath id="0993e788ab"><path d="M 429.355469 569.664062 C 424.820312 568.972656 420.585938 572.085938 419.894531 576.617188 C 419.199219 581.152344 422.3125 585.386719 426.847656 586.078125 C 431.378906 586.769531 435.617188 583.65625 436.308594 579.125 C 437 574.589844 433.886719 570.355469 429.355469 569.664062 Z M 429.355469 569.664062 " clip-rule="nonzero"/></clipPath><clipPath id="1fa8910326"><path d="M 0.0390625 0 L 18 0 L 18 17.800781 L 0.0390625 17.800781 Z M 0.0390625 0 " clip-rule="nonzero"/></clipPath><clipPath id="5d242a21c1"><path d="M 2.148438 -0.589844 L 18.5625 1.917969 L 16.054688 18.332031 L -0.359375 15.824219 Z M 2.148438 -0.589844 " clip-rule="nonzero"/></clipPath><clipPath id="d58930c0ab"><path d="M 10.355469 0.664062 C 5.820312 -0.0273438 1.585938 3.085938 0.894531 7.617188 C 0.199219 12.152344 3.3125 16.386719 7.847656 17.078125 C 12.378906 17.769531 16.617188 14.65625 17.308594 10.125 C 18 5.589844 14.886719 1.355469 10.355469 0.664062 Z M 10.355469 0.664062 " clip-rule="nonzero"/></clipPath><clipPath id="77fc74e2e1"><rect x="0" width="18" y="0" height="18"/></clipPath><clipPath id="e93949c398"><path d="M 450 588 L 468 588 L 468 605 L 450 605 Z M 450 588 " clip-rule="nonzero"/></clipPath><clipPath id="81abf6217f"><path d="M 451.917969 586.894531 L 468.335938 589.402344 L 465.828125 605.820312 L 449.414062 603.3125 Z M 451.917969 586.894531 " clip-rule="nonzero"/></clipPath><clipPath id="69557a1ca7"><path d="M 460.125 588.148438 C 455.59375 587.457031 451.359375 590.570312 450.664062 595.105469 C 449.972656 599.636719 453.085938 603.871094 457.621094 604.566406 C 462.152344 605.257812 466.386719 602.144531 467.082031 597.609375 C 467.773438 593.078125 464.660156 588.84375 460.125 588.148438 Z M 460.125 588.148438 " clip-rule="nonzero"/></clipPath><clipPath id="a3e2e7b19d"><path d="M 0 0 L 18 0 L 18 17 L 0 17 Z M 0 0 " clip-rule="nonzero"/></clipPath><clipPath id="1d7fad3824"><path d="M 1.917969 -1.105469 L 18.335938 1.402344 L 15.828125 17.820312 L -0.585938 15.3125 Z M 1.917969 -1.105469 " clip-rule="nonzero"/></clipPath><clipPath id="50381df61c"><path d="M 10.125 0.148438 C 5.59375 -0.542969 1.359375 2.570312 0.664062 7.105469 C -0.0273438 11.636719 3.085938 15.871094 7.621094 16.566406 C 12.152344 17.257812 16.386719 14.144531 17.082031 9.609375 C 17.773438 5.078125 14.660156 0.84375 10.125 0.148438 Z M 10.125 0.148438 " clip-rule="nonzero"/></clipPath><clipPath id="ebf151c757"><rect x="0" width="18" y="0" height="17"/></clipPath><clipPath id="d6b94d3220"><path d="M 471 560 L 489 560 L 489 578 L 471 578 Z M 471 560 " clip-rule="nonzero"/></clipPath><clipPath id="948c52d11d"><path d="M 472.898438 559.515625 L 489.3125 562.023438 L 486.808594 578.4375 L 470.390625 575.929688 Z M 472.898438 559.515625 " clip-rule="nonzero"/></clipPath><clipPath id="863b81e4c3"><path d="M 481.105469 560.769531 C 476.574219 560.078125 472.335938 563.191406 471.644531 567.722656 C 470.953125 572.257812 474.066406 576.492188 478.597656 577.183594 C 483.132812 577.875 487.367188 574.761719 488.058594 570.230469 C 488.753906 565.699219 485.640625 561.460938 481.105469 560.769531 Z M 481.105469 560.769531 " clip-rule="nonzero"/></clipPath><clipPath id="7c11f5557c"><path d="M 0 0 L 17.878906 0 L 17.878906 17.921875 L 0 17.921875 Z M 0 0 " clip-rule="nonzero"/></clipPath><clipPath id="64693a44b4"><path d="M 1.898438 -0.484375 L 18.3125 2.023438 L 15.808594 18.4375 L -0.609375 15.929688 Z M 1.898438 -0.484375 " clip-rule="nonzero"/></clipPath><clipPath id="b90cad4040"><path d="M 10.105469 0.769531 C 5.574219 0.078125 1.335938 3.191406 0.644531 7.722656 C -0.046875 12.257812 3.066406 16.492188 7.597656 17.183594 C 12.132812 17.875 16.367188 14.761719 17.058594 10.230469 C 17.753906 5.699219 14.640625 1.460938 10.105469 0.769531 Z M 10.105469 0.769531 " clip-rule="nonzero"/></clipPath><clipPath id="dd7190e033"><rect x="0" width="18" y="0" height="18"/></clipPath></defs><g clip-path="url(#ba3235ee28)"><g transform="matrix(1, 0, 0, 1, 384, 146)"><g clip-path="url(#be2521381e)"><g clip-path="url(#b486b44d43)"><path fill="#ff5757" d="M 0.410156 0.960938 L 205.230469 0.960938 L 205.230469 205.78125 L 0.410156 205.78125 Z M 0.410156 0.960938 " fill-opacity="1" fill-rule="nonzero"/></g></g></g></g><g clip-path="url(#9e66a6fb95)"><g clip-path="url(#526eec2aaf)"><path stroke-linecap="butt" transform="matrix(0.75, 0, 0, 0.75, 178.362196, 417.315)" fill="none" stroke-linejoin="miter" d="M 22.99624 0.00187545 L 515.178556 0.00187545 C 527.881682 0.00187545 538.178557 10.298751 538.178557 22.996668 L 538.178557 112.298756 C 538.178557 125.001882 527.881682 135.298757 515.178556 135.298757 L 22.99624 135.298757 C 10.298323 135.298757 0.00144759 125.001882 0.00144759 112.298756 L 0.00144759 22.996668 C 0.00144759 10.298751 10.298323 0.00187545 22.99624 0.00187545 Z M 22.99624 0.00187545 " stroke="#000000" stroke-width="30" stroke-opacity="1" stroke-miterlimit="4"/></g></g><path stroke-linecap="butt" transform="matrix(0, -0.75, 0.75, 0, 177.362382, 591.472503)" fill="none" stroke-linejoin="miter" d="M -0.000204099 8.501199 L 453.426901 8.501199 " stroke="#000000" stroke-width="17" stroke-opacity="1" stroke-miterlimit="4"/><path stroke-linecap="butt" transform="matrix(0, -0.75, 0.75, 0, 570.588143, 591.473655)" fill="none" stroke-linejoin="miter" d="M 0.0013319 7.502268 L 175.548215 7.502268 " stroke="#000000" stroke-width="15" stroke-opacity="1" stroke-miterlimit="4"/><g clip-path="url(#ab8b45e54f)"><g clip-path="url(#dc0e1026b0)"><path stroke-linecap="butt" transform="matrix(0.75, 0, 0, 0.75, 177.603892, 370.262347)" fill="none" stroke-linejoin="miter" d="M 26.996896 -0.000837341 L 161.158361 -0.000837341 C 176.064611 -0.000837341 188.153154 12.087705 188.153154 26.999164 L 188.153154 51.035623 C 188.153154 65.941874 176.064611 78.030416 161.158361 78.030416 L 26.996896 78.030416 C 12.085437 78.030416 0.00210287 65.941874 0.00210287 51.035623 L 0.00210287 26.999164 C 0.00210287 12.087705 12.085437 -0.000837341 26.996896 -0.000837341 Z M 26.996896 -0.000837341 " stroke="#000000" stroke-width="30" stroke-opacity="1" stroke-miterlimit="4"/></g></g><g clip-path="url(#8b85a24204)"><g clip-path="url(#ac35cad4b1)"><g clip-path="url(#af23ec2876)"><g transform="matrix(1, 0, 0, 1, 377, 355)"><g clip-path="url(#32163d53fb)"><g clip-path="url(#c3326a7910)"><g clip-path="url(#703ce02ed8)"><g clip-path="url(#b3dde7d6d3)"><path fill="#fcfcfd" d="M 175.054688 -20.382812 L 281.074219 58.917969 L 85.921875 319.832031 L -20.101562 240.53125 Z M 175.054688 -20.382812 " fill-opacity="1" fill-rule="nonzero"/></g></g></g></g></g></g></g></g><g clip-path="url(#d6f37c6849)"><g clip-path="url(#7e3fe15224)"><g clip-path="url(#cafc5dd388)"><g clip-path="url(#b1ea1bd834)"><path stroke-linecap="butt" transform="matrix(0.600584, 0.44922, -0.44922, 0.600584, 552.048144, 334.624016)" fill="none" stroke-linejoin="miter" d="M 67.99221 0.000856683 L 108.520374 0.00249333 C 126.555809 0.00197737 143.8486 7.165087 156.599746 19.91709 C 169.350892 32.669094 176.516963 49.962801 176.514359 67.994066 L 176.517789 366.684998 C 176.515185 384.716263 169.355196 402.013224 156.603192 414.764371 C 143.851189 427.515517 126.554362 434.677417 108.518926 434.677933 L 67.993882 434.680467 C 49.962617 434.677863 32.665656 427.517873 19.91451 414.76587 C 7.163363 402.013866 0.00146347 384.71704 -0.00322321 366.684724 L 0.000637445 67.994842 C 0.000121482 49.959407 7.163231 32.666616 19.915234 19.91547 C 32.667238 7.164324 49.960945 -0.00174694 67.99221 0.000856683 Z M 67.99221 0.000856683 " stroke="#000000" stroke-width="30" stroke-opacity="1" stroke-miterlimit="4"/></g></g></g></g><g clip-path="url(#ed778a34bf)"><g clip-path="url(#a1b5cc7cc8)"><g clip-path="url(#ceb36d4028)"><g clip-path="url(#bf115dfb09)"><path stroke-linecap="butt" transform="matrix(0.608443, 0.438517, -0.438517, 0.608443, 493.297899, 437.465087)" fill="none" stroke-linejoin="miter" d="M 10.001542 0.00103164 L 129.220013 -0.0022614 C 134.741829 -0.00149922 139.220072 4.475032 139.21931 9.996849 L 139.219067 106.433012 C 139.22135 111.959054 134.741773 116.433072 129.219957 116.432309 L 10.001486 116.435602 C 4.47967 116.43484 0.00142659 111.958309 0.00218877 106.436492 L 0.00243228 10.000329 C 0.000149197 4.474287 4.479726 0.000269462 10.001542 0.00103164 Z M 10.001542 0.00103164 " stroke="#000000" stroke-width="30" stroke-opacity="1" stroke-miterlimit="4"/></g></g></g></g><g clip-path="url(#18b169b2c2)"><g clip-path="url(#84deb50972)"><g clip-path="url(#d8bd1b71ff)"><g transform="matrix(1, 0, 0, 1, 547, 402)"><g clip-path="url(#4a7412d504)"><g clip-path="url(#e88afdfbb5)"><g clip-path="url(#d9cf9ca86b)"><g clip-path="url(#67fb2dc898)"><path fill="#000000" d="M 1.503906 -0.71875 L 17.917969 1.789062 L 15.410156 18.203125 L -1.003906 15.695312 Z M 1.503906 -0.71875 " fill-opacity="1" fill-rule="nonzero"/></g></g></g></g></g></g></g></g><g clip-path="url(#78bba51eb2)"><g clip-path="url(#420b60e297)"><g clip-path="url(#be75810daa)"><g transform="matrix(1, 0, 0, 1, 580, 422)"><g clip-path="url(#2d304a833d)"><g clip-path="url(#6b42ddd8d8)"><g clip-path="url(#878a511319)"><g clip-path="url(#0cd615173e)"><path fill="#000000" d="M 2.277344 -0.558594 L 18.691406 1.945312 L 16.183594 18.363281 L -0.230469 15.855469 Z M 2.277344 -0.558594 " fill-opacity="1" fill-rule="nonzero"/></g></g></g></g></g></g></g></g><g clip-path="url(#ee77e706a1)"><g clip-path="url(#3e3ae118fa)"><g clip-path="url(#dc196e4f09)"><g transform="matrix(1, 0, 0, 1, 528, 431)"><g clip-path="url(#fdb5ef66a5)"><g clip-path="url(#7acd4396ad)"><g clip-path="url(#793757144f)"><g clip-path="url(#084c2bcd6e)"><path fill="#000000" d="M 2.257812 -0.707031 L 18.675781 1.800781 L 16.167969 18.214844 L -0.25 15.707031 Z M 2.257812 -0.707031 " fill-opacity="1" fill-rule="nonzero"/></g></g></g></g></g></g></g></g><g clip-path="url(#466997ccb8)"><g clip-path="url(#e739b3cf0c)"><g clip-path="url(#7e6875ba50)"><g transform="matrix(1, 0, 0, 1, 559, 452)"><g clip-path="url(#a75b0be819)"><g clip-path="url(#60d16d67cf)"><g clip-path="url(#a2a19ba26c)"><g clip-path="url(#d2218c9071)"><path fill="#000000" d="M 1.847656 -0.238281 L 18.261719 2.269531 L 15.753906 18.683594 L -0.660156 16.179688 Z M 1.847656 -0.238281 " fill-opacity="1" fill-rule="nonzero"/></g></g></g></g></g></g></g></g><g clip-path="url(#5e1d04c8ca)"><g clip-path="url(#a01cf37c38)"><g clip-path="url(#e32b5e4c5c)"><g transform="matrix(1, 0, 0, 1, 440, 543)"><g clip-path="url(#3352dd7fe2)"><g clip-path="url(#4d955b00ae)"><g clip-path="url(#00d8683bb7)"><g clip-path="url(#978d3891f5)"><path fill="#000000" d="M 1.882812 -0.363281 L 18.296875 2.144531 L 15.789062 18.558594 L -0.625 16.050781 Z M 1.882812 -0.363281 " fill-opacity="1" fill-rule="nonzero"/></g></g></g></g></g></g></g></g><g clip-path="url(#653b338234)"><g clip-path="url(#cd50ab7fad)"><g clip-path="url(#0993e788ab)"><g transform="matrix(1, 0, 0, 1, 419, 569)"><g clip-path="url(#77fc74e2e1)"><g clip-path="url(#1fa8910326)"><g clip-path="url(#5d242a21c1)"><g clip-path="url(#d58930c0ab)"><path fill="#000000" d="M 2.148438 -0.589844 L 18.5625 1.917969 L 16.054688 18.332031 L -0.359375 15.824219 Z M 2.148438 -0.589844 " fill-opacity="1" fill-rule="nonzero"/></g></g></g></g></g></g></g></g><g clip-path="url(#e93949c398)"><g clip-path="url(#81abf6217f)"><g clip-path="url(#69557a1ca7)"><g transform="matrix(1, 0, 0, 1, 450, 588)"><g clip-path="url(#ebf151c757)"><g clip-path="url(#a3e2e7b19d)"><g clip-path="url(#1d7fad3824)"><g clip-path="url(#50381df61c)"><path fill="#000000" d="M 1.917969 -1.105469 L 18.335938 1.402344 L 15.828125 17.820312 L -0.585938 15.3125 Z M 1.917969 -1.105469 " fill-opacity="1" fill-rule="nonzero"/></g></g></g></g></g></g></g></g><g clip-path="url(#d6b94d3220)"><g clip-path="url(#948c52d11d)"><g clip-path="url(#863b81e4c3)"><g transform="matrix(1, 0, 0, 1, 471, 560)"><g clip-path="url(#dd7190e033)"><g clip-path="url(#7c11f5557c)"><g clip-path="url(#64693a44b4)"><g clip-path="url(#b90cad4040)"><path fill="#000000" d="M 1.898438 -0.484375 L 18.3125 2.023438 L 15.808594 18.4375 L -0.609375 15.929688 Z M 1.898438 -0.484375 " fill-opacity="1" fill-rule="nonzero"/></g></g></g></g></g></g></g></g></svg>