<svg xmlns="http://www.w3.org/2000/svg" xmlns:xlink="http://www.w3.org/1999/xlink" width="1000" zoomAndPan="magnify" viewBox="0 0 750 749.999995" height="1000" preserveAspectRatio="xMidYMid meet" version="1.0"><defs><clipPath id="3366d9d356"><path d="M 262.417969 213.09375 L 487.5 213.09375 L 487.5 293.011719 L 262.417969 293.011719 Z M 262.417969 213.09375 " clip-rule="nonzero"/></clipPath><clipPath id="ee7eb08e6a"><path d="M 431.25 213.09375 L 318.75 213.09375 L 262.5 293.011719 L 487.5 293.011719 Z M 431.25 213.09375 " clip-rule="nonzero"/></clipPath><clipPath id="1ffcc7fa6f"><path d="M 0.417969 0.09375 L 225.5 0.09375 L 225.5 80.011719 L 0.417969 80.011719 Z M 0.417969 0.09375 " clip-rule="nonzero"/></clipPath><clipPath id="63b59c8140"><path d="M 169.25 0.09375 L 56.75 0.09375 L 0.5 80.011719 L 225.5 80.011719 Z M 169.25 0.09375 " clip-rule="nonzero"/></clipPath><clipPath id="dafa55b2e4"><rect x="0" width="226" y="0" height="81"/></clipPath><clipPath id="c8cf01ad8d"><path d="M 262.511719 213 L 487.488281 213 L 487.488281 293.011719 L 262.511719 293.011719 Z M 262.511719 213 " clip-rule="nonzero"/></clipPath><clipPath id="40c9def38f"><path d="M 431.242188 213.101562 L 318.757812 213.101562 L 262.511719 293.011719 L 487.488281 293.011719 Z M 431.242188 213.101562 " clip-rule="nonzero"/></clipPath><clipPath id="537627d110"><path d="M 199.097656 239.871094 L 268.476562 239.871094 L 268.476562 280.453125 L 199.097656 280.453125 Z M 199.097656 239.871094 " clip-rule="nonzero"/></clipPath><clipPath id="c94d7210fd"><path d="M 0.0976562 0.871094 L 69.476562 0.871094 L 69.476562 41.453125 L 0.0976562 41.453125 Z M 0.0976562 0.871094 " clip-rule="nonzero"/></clipPath><clipPath id="72f006956c"><rect x="0" width="70" y="0" height="42"/></clipPath><clipPath id="e4ec8992d7"><path d="M 199.097656 239.871094 L 268.472656 239.871094 L 268.472656 280.371094 L 199.097656 280.371094 Z M 199.097656 239.871094 " clip-rule="nonzero"/></clipPath><clipPath id="6171b6c8a3"><path d="M 168 269.464844 L 582 269.464844 L 582 569.925781 L 168 569.925781 Z M 168 269.464844 " clip-rule="nonzero"/></clipPath><clipPath id="d9562a30c0"><path d="M 203.328125 269.464844 L 546.671875 269.464844 C 555.996094 269.464844 564.9375 273.167969 571.53125 279.761719 C 578.125 286.355469 581.828125 295.296875 581.828125 304.621094 L 581.828125 534.769531 C 581.828125 554.1875 566.089844 569.925781 546.671875 569.925781 L 203.328125 569.925781 C 194.003906 569.925781 185.0625 566.222656 178.46875 559.628906 C 171.875 553.035156 168.171875 544.09375 168.171875 534.769531 L 168.171875 304.621094 C 168.171875 285.203125 183.910156 269.464844 203.328125 269.464844 Z M 203.328125 269.464844 " clip-rule="nonzero"/></clipPath><clipPath id="3222847e37"><path d="M 0 0.464844 L 414 0.464844 L 414 300.925781 L 0 300.925781 Z M 0 0.464844 " clip-rule="nonzero"/></clipPath><clipPath id="bef8bf4e84"><path d="M 35.328125 0.464844 L 378.671875 0.464844 C 387.996094 0.464844 396.9375 4.167969 403.53125 10.761719 C 410.125 17.355469 413.828125 26.296875 413.828125 35.621094 L 413.828125 265.769531 C 413.828125 285.1875 398.089844 300.925781 378.671875 300.925781 L 35.328125 300.925781 C 26.003906 300.925781 17.0625 297.222656 10.46875 290.628906 C 3.875 284.035156 0.171875 275.09375 0.171875 265.769531 L 0.171875 35.621094 C 0.171875 16.203125 15.910156 0.464844 35.328125 0.464844 Z M 35.328125 0.464844 " clip-rule="nonzero"/></clipPath><clipPath id="1d966ecdd5"><rect x="0" width="414" y="0" height="301"/></clipPath><clipPath id="4add9107ed"><path d="M 168.171875 269.464844 L 582 269.464844 L 582 570 L 168.171875 570 Z M 168.171875 269.464844 " clip-rule="nonzero"/></clipPath><clipPath id="3db806a985"><path d="M 203.328125 269.464844 L 546.664062 269.464844 C 555.988281 269.464844 564.929688 273.167969 571.523438 279.761719 C 578.117188 286.355469 581.820312 295.296875 581.820312 304.621094 L 581.820312 534.765625 C 581.820312 554.179688 566.082031 569.921875 546.664062 569.921875 L 203.328125 569.921875 C 194.003906 569.921875 185.0625 566.21875 178.46875 559.625 C 171.875 553.03125 168.171875 544.089844 168.171875 534.765625 L 168.171875 304.621094 C 168.171875 285.203125 183.910156 269.464844 203.328125 269.464844 Z M 203.328125 269.464844 " clip-rule="nonzero"/></clipPath><clipPath id="4ea23c8e1e"><path d="M 176.746094 342.4375 L 573.253906 342.4375 L 573.253906 534.597656 L 176.746094 534.597656 Z M 176.746094 342.4375 " clip-rule="nonzero"/></clipPath><clipPath id="9ee732d6c8"><path d="M 0.746094 0.4375 L 397.253906 0.4375 L 397.253906 192.597656 L 0.746094 192.597656 Z M 0.746094 0.4375 " clip-rule="nonzero"/></clipPath><clipPath id="5d02a6d562"><rect x="0" width="398" y="0" height="193"/></clipPath><clipPath id="c0e16f6f30"><path d="M 284.992188 342.4375 L 465.007812 342.4375 L 465.007812 522.453125 L 284.992188 522.453125 Z M 284.992188 342.4375 " clip-rule="nonzero"/></clipPath><clipPath id="2ddf79f133"><path d="M 375 342.4375 C 325.289062 342.4375 284.992188 382.734375 284.992188 432.445312 C 284.992188 482.15625 325.289062 522.453125 375 522.453125 C 424.710938 522.453125 465.007812 482.15625 465.007812 432.445312 C 465.007812 382.734375 424.710938 342.4375 375 342.4375 Z M 375 342.4375 " clip-rule="nonzero"/></clipPath><clipPath id="27960a1f3b"><path d="M 0.992188 0.4375 L 181.007812 0.4375 L 181.007812 180.453125 L 0.992188 180.453125 Z M 0.992188 0.4375 " clip-rule="nonzero"/></clipPath><clipPath id="b5b2bdc4d2"><path d="M 91 0.4375 C 41.289062 0.4375 0.992188 40.734375 0.992188 90.445312 C 0.992188 140.15625 41.289062 180.453125 91 180.453125 C 140.710938 180.453125 181.007812 140.15625 181.007812 90.445312 C 181.007812 40.734375 140.710938 0.4375 91 0.4375 Z M 91 0.4375 " clip-rule="nonzero"/></clipPath><clipPath id="b85e235ab6"><rect x="0" width="182" y="0" height="181"/></clipPath><clipPath id="98505544fe"><path d="M 284.992188 342.4375 L 464.992188 342.4375 L 464.992188 522.4375 L 284.992188 522.4375 Z M 284.992188 342.4375 " clip-rule="nonzero"/></clipPath><clipPath id="4167cb7a90"><path d="M 375 342.4375 C 325.289062 342.4375 284.992188 382.734375 284.992188 432.445312 C 284.992188 482.152344 325.289062 522.449219 375 522.449219 C 424.707031 522.449219 465.003906 482.152344 465.003906 432.445312 C 465.003906 382.734375 424.707031 342.4375 375 342.4375 Z M 375 342.4375 " clip-rule="nonzero"/></clipPath><clipPath id="394c43a05e"><path d="M 312.199219 369.644531 L 437.800781 369.644531 L 437.800781 495.246094 L 312.199219 495.246094 Z M 312.199219 369.644531 " clip-rule="nonzero"/></clipPath><clipPath id="6db80e52b3"><path d="M 375 369.644531 C 340.316406 369.644531 312.199219 397.761719 312.199219 432.445312 C 312.199219 467.128906 340.316406 495.246094 375 495.246094 C 409.683594 495.246094 437.800781 467.128906 437.800781 432.445312 C 437.800781 397.761719 409.683594 369.644531 375 369.644531 Z M 375 369.644531 " clip-rule="nonzero"/></clipPath><clipPath id="487d5c1da1"><path d="M 0.199219 0.644531 L 125.800781 0.644531 L 125.800781 126.246094 L 0.199219 126.246094 Z M 0.199219 0.644531 " clip-rule="nonzero"/></clipPath><clipPath id="784fd00f91"><path d="M 63 0.644531 C 28.316406 0.644531 0.199219 28.761719 0.199219 63.445312 C 0.199219 98.128906 28.316406 126.246094 63 126.246094 C 97.683594 126.246094 125.800781 98.128906 125.800781 63.445312 C 125.800781 28.761719 97.683594 0.644531 63 0.644531 Z M 63 0.644531 " clip-rule="nonzero"/></clipPath><clipPath id="4027631056"><rect x="0" width="126" y="0" height="127"/></clipPath><clipPath id="da85bae6ff"><path d="M 312.199219 369.644531 L 437.449219 369.644531 L 437.449219 494.894531 L 312.199219 494.894531 Z M 312.199219 369.644531 " clip-rule="nonzero"/></clipPath><clipPath id="336ca9ba50"><path d="M 375 369.644531 C 340.316406 369.644531 312.199219 397.761719 312.199219 432.445312 C 312.199219 467.128906 340.316406 495.246094 375 495.246094 C 409.683594 495.246094 437.800781 467.128906 437.800781 432.445312 C 437.800781 397.761719 409.683594 369.644531 375 369.644531 Z M 375 369.644531 " clip-rule="nonzero"/></clipPath><clipPath id="eabb1da595"><path d="M 500.851562 293.019531 L 539.371094 293.019531 L 539.371094 331.539062 L 500.851562 331.539062 Z M 500.851562 293.019531 " clip-rule="nonzero"/></clipPath><clipPath id="971e67f8cc"><path d="M 520.109375 293.019531 C 509.472656 293.019531 500.851562 301.640625 500.851562 312.28125 C 500.851562 322.917969 509.472656 331.539062 520.109375 331.539062 C 530.746094 331.539062 539.371094 322.917969 539.371094 312.28125 C 539.371094 301.640625 530.746094 293.019531 520.109375 293.019531 Z M 520.109375 293.019531 " clip-rule="nonzero"/></clipPath><clipPath id="d6848c0ef7"><path d="M 0.851562 0.0195312 L 39.371094 0.0195312 L 39.371094 38.539062 L 0.851562 38.539062 Z M 0.851562 0.0195312 " clip-rule="nonzero"/></clipPath><clipPath id="ef72c8a31a"><path d="M 20.109375 0.0195312 C 9.472656 0.0195312 0.851562 8.640625 0.851562 19.28125 C 0.851562 29.917969 9.472656 38.539062 20.109375 38.539062 C 30.746094 38.539062 39.371094 29.917969 39.371094 19.28125 C 39.371094 8.640625 30.746094 0.0195312 20.109375 0.0195312 Z M 20.109375 0.0195312 " clip-rule="nonzero"/></clipPath><clipPath id="fa7bb3a491"><rect x="0" width="40" y="0" height="39"/></clipPath><clipPath id="ccc6e34e58"><path d="M 500.851562 293.019531 L 539.101562 293.019531 L 539.101562 331.269531 L 500.851562 331.269531 Z M 500.851562 293.019531 " clip-rule="nonzero"/></clipPath><clipPath id="678c3da9cf"><path d="M 520.105469 293.019531 C 509.46875 293.019531 500.851562 301.640625 500.851562 312.273438 C 500.851562 322.90625 509.46875 331.527344 520.105469 331.527344 C 530.738281 331.527344 539.359375 322.90625 539.359375 312.273438 C 539.359375 301.640625 530.738281 293.019531 520.105469 293.019531 Z M 520.105469 293.019531 " clip-rule="nonzero"/></clipPath></defs><g clip-path="url(#3366d9d356)"><g clip-path="url(#ee7eb08e6a)"><g transform="matrix(1, 0, 0, 1, 262, 213)"><g clip-path="url(#dafa55b2e4)"><g clip-path="url(#1ffcc7fa6f)"><g clip-path="url(#63b59c8140)"><path fill="#ffffff" d="M 225.5 80.011719 L 0.417969 80.011719 L 0.417969 0.09375 L 225.5 0.09375 Z M 225.5 80.011719 " fill-opacity="1" fill-rule="nonzero"/></g></g></g></g></g></g><g clip-path="url(#c8cf01ad8d)"><g clip-path="url(#40c9def38f)"><path stroke-linecap="butt" transform="matrix(-0.75, 0, 0, -0.75, 487.487979, 293.010944)" fill="none" stroke-linejoin="miter" d="M 74.994392 106.545847 L 224.973566 106.545847 L 299.968361 -0.00103284 L -0.000403143 -0.00103284 Z M 74.994392 106.545847 " stroke="#000000" stroke-width="42" stroke-opacity="1" stroke-miterlimit="4"/></g></g><g clip-path="url(#537627d110)"><g transform="matrix(1, 0, 0, 1, 199, 239)"><g clip-path="url(#72f006956c)"><g clip-path="url(#c94d7210fd)"><path fill="#ffffff" d="M 0.0976562 0.871094 L 69.535156 0.871094 L 69.535156 41.453125 L 0.0976562 41.453125 Z M 0.0976562 0.871094 " fill-opacity="1" fill-rule="nonzero"/></g></g></g></g><g clip-path="url(#e4ec8992d7)"><path stroke-linecap="butt" transform="matrix(0.75, 0, 0, 0.75, 199.096781, 239.870399)" fill="none" stroke-linejoin="miter" d="M 0.00116707 0.00092672 L 92.501177 0.00092672 L 92.501177 54.110308 L 0.00116707 54.110308 Z M 0.00116707 0.00092672 " stroke="#000000" stroke-width="30" stroke-opacity="1" stroke-miterlimit="4"/></g><g clip-path="url(#6171b6c8a3)"><g clip-path="url(#d9562a30c0)"><g transform="matrix(1, 0, 0, 1, 168, 269)"><g clip-path="url(#1d966ecdd5)"><g clip-path="url(#3222847e37)"><g clip-path="url(#bef8bf4e84)"><path fill="#ffffff" d="M 0.171875 0.464844 L 413.308594 0.464844 L 413.308594 300.925781 L 0.171875 300.925781 Z M 0.171875 0.464844 " fill-opacity="1" fill-rule="nonzero"/></g></g></g></g></g></g><g clip-path="url(#4add9107ed)"><g clip-path="url(#3db806a985)"><path stroke-linecap="butt" transform="matrix(0.75, 0, 0, 0.75, 168.171777, 269.464108)" fill="none" stroke-linejoin="miter" d="M 46.875133 0.000980376 L 504.656405 0.000980376 C 517.088698 0.000980376 529.010573 4.938481 537.80224 13.730148 C 546.593907 22.521815 551.531408 34.44369 551.531408 46.875983 L 551.531408 353.735373 C 551.531408 379.620791 530.547032 400.610375 504.656405 400.610375 L 46.875133 400.610375 C 34.442841 400.610375 22.520965 395.672875 13.729298 386.881208 C 4.937631 378.08954 0.000130861 366.167665 0.000130861 353.735373 L 0.000130861 46.875983 C 0.000130861 20.985356 20.984507 0.000980376 46.875133 0.000980376 Z M 46.875133 0.000980376 " stroke="#000000" stroke-width="44" stroke-opacity="1" stroke-miterlimit="4"/></g></g><g clip-path="url(#4ea23c8e1e)"><g transform="matrix(1, 0, 0, 1, 176, 342)"><g clip-path="url(#5d02a6d562)"><g clip-path="url(#9ee732d6c8)"><path fill="#000000" d="M 0.746094 0.4375 L 397.070312 0.4375 L 397.070312 192.597656 L 0.746094 192.597656 Z M 0.746094 0.4375 " fill-opacity="1" fill-rule="nonzero"/></g></g></g></g><g clip-path="url(#c0e16f6f30)"><g clip-path="url(#2ddf79f133)"><g transform="matrix(1, 0, 0, 1, 284, 342)"><g clip-path="url(#b85e235ab6)"><g clip-path="url(#27960a1f3b)"><g clip-path="url(#b5b2bdc4d2)"><path fill="#ffffff" d="M 0.992188 0.4375 L 181.007812 0.4375 L 181.007812 180.453125 L 0.992188 180.453125 Z M 0.992188 0.4375 " fill-opacity="1" fill-rule="nonzero"/></g></g></g></g></g></g><g clip-path="url(#98505544fe)"><g clip-path="url(#4167cb7a90)"><path stroke-linecap="butt" transform="matrix(0.75, 0, 0, 0.75, 284.99366, 342.438987)" fill="none" stroke-linejoin="miter" d="M 120.008459 -0.00198308 C 53.727206 -0.00198308 -0.00196328 53.727186 -0.00196328 120.008439 C -0.00196328 186.284484 53.727206 240.013654 120.008459 240.013654 C 186.284504 240.013654 240.013673 186.284484 240.013673 120.008439 C 240.013673 53.727186 186.284504 -0.00198308 120.008459 -0.00198308 Z M 120.008459 -0.00198308 " stroke="#000000" stroke-width="38" stroke-opacity="1" stroke-miterlimit="4"/></g></g><g clip-path="url(#394c43a05e)"><g clip-path="url(#6db80e52b3)"><g transform="matrix(1, 0, 0, 1, 312, 369)"><g clip-path="url(#4027631056)"><g clip-path="url(#487d5c1da1)"><g clip-path="url(#784fd00f91)"><path fill="#ffffff" d="M 0.199219 0.644531 L 125.800781 0.644531 L 125.800781 126.246094 L 0.199219 126.246094 Z M 0.199219 0.644531 " fill-opacity="1" fill-rule="nonzero"/></g></g></g></g></g></g><g clip-path="url(#da85bae6ff)"><g clip-path="url(#336ca9ba50)"><path stroke-linecap="butt" transform="matrix(0.75, 0, 0, 0.75, 312.198211, 369.643596)" fill="none" stroke-linejoin="miter" d="M 83.735723 0.00124755 C 37.490929 0.00124755 0.00134415 37.490833 0.00134415 83.735627 C 0.00134415 129.980421 37.490929 167.470006 83.735723 167.470006 C 129.980517 167.470006 167.470102 129.980421 167.470102 83.735627 C 167.470102 37.490833 129.980517 0.00124755 83.735723 0.00124755 Z M 83.735723 0.00124755 " stroke="#000000" stroke-width="38" stroke-opacity="1" stroke-miterlimit="4"/></g></g><g clip-path="url(#eabb1da595)"><g clip-path="url(#971e67f8cc)"><g transform="matrix(1, 0, 0, 1, 500, 293)"><g clip-path="url(#fa7bb3a491)"><g clip-path="url(#d6848c0ef7)"><g clip-path="url(#ef72c8a31a)"><path fill="#ffffff" d="M 0.851562 0.0195312 L 39.371094 0.0195312 L 39.371094 38.539062 L 0.851562 38.539062 Z M 0.851562 0.0195312 " fill-opacity="1" fill-rule="nonzero"/></g></g></g></g></g></g><g clip-path="url(#ccc6e34e58)"><g clip-path="url(#678c3da9cf)"><path stroke-linecap="butt" transform="matrix(0.75, 0, 0, 0.75, 500.850218, 293.019615)" fill="none" stroke-linejoin="miter" d="M 25.67367 -0.000112094 C 11.491377 -0.000112094 0.00179234 11.494681 0.00179234 25.671766 C 0.00179234 39.848851 11.491377 51.343644 25.67367 51.343644 C 39.850755 51.343644 51.345548 39.848851 51.345548 25.671766 C 51.345548 11.494681 39.850755 -0.000112094 25.67367 -0.000112094 Z M 25.67367 -0.000112094 " stroke="#000000" stroke-width="14" stroke-opacity="1" stroke-miterlimit="4"/></g></g></svg>