<svg xmlns="http://www.w3.org/2000/svg" xmlns:xlink="http://www.w3.org/1999/xlink" width="1000" zoomAndPan="magnify" viewBox="0 0 750 749.999995" height="1000" preserveAspectRatio="xMidYMid meet" version="1.0"><defs><clipPath id="306e36c55e"><path d="M 151 220 L 578 220 L 578 715.988281 L 151 715.988281 Z M 151 220 " clip-rule="nonzero"/></clipPath><clipPath id="8705bd6c08"><path d="M 371 40.988281 L 477 40.988281 L 477 146 L 371 146 Z M 371 40.988281 " clip-rule="nonzero"/></clipPath></defs><g clip-path="url(#306e36c55e)"><path fill="#04cf6d" d="M 565.894531 600.617188 L 455.769531 426.0625 C 449.773438 416.320312 446.777344 405.085938 446.777344 393.847656 L 446.777344 250.753906 L 461.761719 250.753906 C 470.003906 250.753906 476.746094 244.011719 476.746094 235.773438 C 476.746094 227.53125 470.003906 220.789062 461.761719 220.789062 L 266.976562 220.789062 C 258.738281 220.789062 251.996094 227.53125 251.996094 235.773438 C 251.996094 244.011719 258.738281 250.753906 266.976562 250.753906 L 281.960938 250.753906 L 281.960938 393.847656 C 281.960938 405.085938 278.964844 416.320312 272.972656 426.0625 L 162.84375 600.617188 C 147.859375 623.839844 147.109375 652.308594 160.597656 677.03125 C 174.082031 701.003906 198.804688 715.988281 226.523438 715.988281 L 503.714844 715.988281 C 531.433594 715.988281 556.15625 701.753906 569.640625 677.03125 C 581.628906 652.308594 580.878906 623.839844 565.894531 600.617188 Z M 298.441406 441.792969 C 305.933594 429.058594 311.179688 414.824219 311.925781 400.589844 L 341.894531 400.589844 C 350.136719 400.589844 356.878906 393.847656 356.878906 385.605469 C 356.878906 377.363281 350.136719 370.621094 341.894531 370.621094 L 311.925781 370.621094 L 311.925781 325.671875 L 356.878906 325.671875 C 365.117188 325.671875 371.859375 318.929688 371.859375 310.6875 C 371.859375 302.449219 365.117188 295.707031 356.878906 295.707031 L 311.925781 295.707031 L 311.925781 250.753906 L 416.8125 250.753906 L 416.8125 393.847656 C 416.8125 411.078125 421.304688 427.558594 430.296875 441.792969 L 470.75 505.472656 L 257.988281 505.472656 Z M 541.921875 662.046875 C 533.679688 676.28125 519.445312 685.273438 502.964844 685.273438 L 225.773438 685.273438 C 209.292969 685.273438 194.308594 676.28125 186.816406 662.046875 C 178.574219 647.8125 179.324219 630.582031 188.316406 616.347656 L 239.257812 535.4375 L 490.230469 535.4375 L 541.171875 616.347656 C 549.414062 630.582031 550.164062 647.8125 541.921875 662.046875 Z M 541.921875 662.046875 " fill-opacity="1" fill-rule="nonzero"/></g><g clip-path="url(#8705bd6c08)"><path fill="#04cf6d" d="M 424.304688 145.871094 C 453.519531 145.871094 476.746094 122.648438 476.746094 93.429688 C 476.746094 64.210938 453.519531 40.988281 424.304688 40.988281 C 395.085938 40.988281 371.859375 64.210938 371.859375 93.429688 C 371.859375 122.648438 395.085938 145.871094 424.304688 145.871094 Z M 424.304688 70.957031 C 437.039062 70.957031 446.777344 80.695312 446.777344 93.429688 C 446.777344 105.417969 437.039062 115.90625 424.304688 115.90625 C 411.566406 115.90625 401.828125 105.417969 401.828125 93.429688 C 401.828125 80.695312 411.566406 70.957031 424.304688 70.957031 Z M 424.304688 70.957031 " fill-opacity="1" fill-rule="nonzero"/></g><path fill="#04cf6d" d="M 311.925781 100.921875 C 311.925781 101.90625 311.832031 102.878906 311.640625 103.84375 C 311.449219 104.808594 311.164062 105.746094 310.789062 106.65625 C 310.410156 107.566406 309.949219 108.429688 309.402344 109.246094 C 308.855469 110.0625 308.234375 110.820312 307.539062 111.515625 C 306.84375 112.210938 306.085938 112.832031 305.269531 113.378906 C 304.449219 113.925781 303.585938 114.386719 302.679688 114.765625 C 301.769531 115.140625 300.832031 115.425781 299.867188 115.617188 C 298.902344 115.808594 297.929688 115.90625 296.945312 115.90625 C 295.960938 115.90625 294.984375 115.808594 294.019531 115.617188 C 293.054688 115.425781 292.121094 115.140625 291.210938 114.765625 C 290.300781 114.386719 289.4375 113.925781 288.621094 113.378906 C 287.800781 112.832031 287.046875 112.210938 286.347656 111.515625 C 285.652344 110.820312 285.03125 110.0625 284.484375 109.246094 C 283.941406 108.429688 283.476562 107.566406 283.101562 106.65625 C 282.726562 105.746094 282.441406 104.808594 282.25 103.84375 C 282.058594 102.878906 281.960938 101.90625 281.960938 100.921875 C 281.960938 99.9375 282.058594 98.964844 282.25 98 C 282.441406 97.035156 282.726562 96.097656 283.101562 95.1875 C 283.476562 94.277344 283.941406 93.414062 284.484375 92.597656 C 285.03125 91.78125 285.652344 91.023438 286.347656 90.328125 C 287.046875 89.632812 287.800781 89.011719 288.621094 88.464844 C 289.4375 87.917969 290.300781 87.457031 291.210938 87.078125 C 292.121094 86.703125 293.054688 86.417969 294.019531 86.226562 C 294.984375 86.035156 295.960938 85.9375 296.945312 85.9375 C 297.929688 85.9375 298.902344 86.035156 299.867188 86.226562 C 300.832031 86.417969 301.769531 86.703125 302.679688 87.078125 C 303.585938 87.457031 304.449219 87.917969 305.269531 88.464844 C 306.085938 89.011719 306.84375 89.632812 307.539062 90.328125 C 308.234375 91.023438 308.855469 91.78125 309.402344 92.597656 C 309.949219 93.414062 310.410156 94.277344 310.789062 95.1875 C 311.164062 96.097656 311.449219 97.035156 311.640625 98 C 311.832031 98.964844 311.925781 99.9375 311.925781 100.921875 Z M 311.925781 100.921875 " fill-opacity="1" fill-rule="nonzero"/><path fill="#04cf6d" d="M 356.878906 160.855469 C 356.878906 161.839844 356.78125 162.8125 356.589844 163.777344 C 356.398438 164.742188 356.113281 165.679688 355.738281 166.589844 C 355.359375 167.5 354.898438 168.363281 354.351562 169.179688 C 353.804688 169.996094 353.183594 170.753906 352.488281 171.449219 C 351.792969 172.144531 351.035156 172.765625 350.21875 173.3125 C 349.402344 173.859375 348.539062 174.320312 347.628906 174.699219 C 346.71875 175.074219 345.78125 175.359375 344.816406 175.550781 C 343.851562 175.742188 342.878906 175.839844 341.894531 175.839844 C 340.910156 175.839844 339.9375 175.742188 338.972656 175.550781 C 338.007812 175.359375 337.070312 175.074219 336.160156 174.699219 C 335.25 174.320312 334.386719 173.859375 333.570312 173.3125 C 332.753906 172.765625 331.996094 172.144531 331.300781 171.449219 C 330.605469 170.753906 329.984375 169.996094 329.4375 169.179688 C 328.890625 168.363281 328.429688 167.5 328.050781 166.589844 C 327.675781 165.679688 327.390625 164.742188 327.199219 163.777344 C 327.007812 162.8125 326.910156 161.839844 326.910156 160.855469 C 326.910156 159.871094 327.007812 158.898438 327.199219 157.933594 C 327.390625 156.96875 327.675781 156.03125 328.050781 155.121094 C 328.429688 154.210938 328.890625 153.347656 329.4375 152.53125 C 329.984375 151.714844 330.605469 150.957031 331.300781 150.261719 C 331.996094 149.566406 332.753906 148.945312 333.570312 148.398438 C 334.386719 147.851562 335.25 147.390625 336.160156 147.011719 C 337.070312 146.636719 338.007812 146.351562 338.972656 146.160156 C 339.9375 145.96875 340.910156 145.871094 341.894531 145.871094 C 342.878906 145.871094 343.851562 145.96875 344.816406 146.160156 C 345.78125 146.351562 346.71875 146.636719 347.628906 147.011719 C 348.539062 147.390625 349.402344 147.851562 350.21875 148.398438 C 351.035156 148.945312 351.792969 149.566406 352.488281 150.261719 C 353.183594 150.957031 353.804688 151.714844 354.351562 152.53125 C 354.898438 153.347656 355.359375 154.210938 355.738281 155.121094 C 356.113281 156.03125 356.398438 156.96875 356.589844 157.933594 C 356.78125 158.898438 356.878906 159.871094 356.878906 160.855469 Z M 356.878906 160.855469 " fill-opacity="1" fill-rule="nonzero"/></svg>