<svg xmlns="http://www.w3.org/2000/svg" xmlns:xlink="http://www.w3.org/1999/xlink" width="1000" zoomAndPan="magnify" viewBox="0 0 750 749.999995" height="1000" preserveAspectRatio="xMidYMid meet" version="1.0"><defs><clipPath id="ee3ad8317e"><path d="M 262.5 21.503906 L 487.5 21.503906 L 487.5 246.503906 L 262.5 246.503906 Z M 262.5 21.503906 " clip-rule="nonzero"/></clipPath><clipPath id="48499b2a8e"><path d="M 375 21.503906 C 312.867188 21.503906 262.5 71.871094 262.5 134.003906 C 262.5 196.136719 312.867188 246.503906 375 246.503906 C 437.132812 246.503906 487.5 196.136719 487.5 134.003906 C 487.5 71.871094 437.132812 21.503906 375 21.503906 Z M 375 21.503906 " clip-rule="nonzero"/></clipPath><clipPath id="b808bcbf92"><path d="M 0.5 0.503906 L 225.5 0.503906 L 225.5 225.503906 L 0.5 225.503906 Z M 0.5 0.503906 " clip-rule="nonzero"/></clipPath><clipPath id="b4b11fcf58"><path d="M 113 0.503906 C 50.867188 0.503906 0.5 50.871094 0.5 113.003906 C 0.5 175.136719 50.867188 225.503906 113 225.503906 C 175.132812 225.503906 225.5 175.136719 225.5 113.003906 C 225.5 50.871094 175.132812 0.503906 113 0.503906 Z M 113 0.503906 " clip-rule="nonzero"/></clipPath><clipPath id="65cd2445f1"><rect x="0" width="226" y="0" height="226"/></clipPath><clipPath id="68a9acb4a0"><path d="M 262.5 262.5 L 487.5 262.5 L 487.5 718.652344 L 262.5 718.652344 Z M 262.5 262.5 " clip-rule="nonzero"/></clipPath><clipPath id="8a4fbd8cbe"><path d="M 487.5 337.5 L 487.5 643.089844 C 487.5 662.980469 479.597656 682.058594 465.53125 696.121094 C 451.46875 710.1875 432.390625 718.089844 412.5 718.089844 L 337.5 718.089844 C 317.609375 718.089844 298.53125 710.1875 284.46875 696.121094 C 270.402344 682.058594 262.5 662.980469 262.5 643.089844 L 262.5 337.5 C 262.5 317.609375 270.402344 298.53125 284.46875 284.46875 C 298.53125 270.402344 317.609375 262.5 337.5 262.5 L 412.5 262.5 C 432.390625 262.5 451.46875 270.402344 465.53125 284.46875 C 479.597656 298.53125 487.5 317.609375 487.5 337.5 Z M 487.5 337.5 " clip-rule="nonzero"/></clipPath><clipPath id="f818f6c8f3"><path d="M 0.5 0.5 L 225.5 0.5 L 225.5 456 L 0.5 456 Z M 0.5 0.5 " clip-rule="nonzero"/></clipPath><clipPath id="9af6da703a"><path d="M 225.5 75.5 L 225.5 381.089844 C 225.5 400.980469 217.597656 420.058594 203.53125 434.121094 C 189.46875 448.1875 170.390625 456.089844 150.5 456.089844 L 75.5 456.089844 C 55.609375 456.089844 36.53125 448.1875 22.46875 434.121094 C 8.402344 420.058594 0.5 400.980469 0.5 381.089844 L 0.5 75.5 C 0.5 55.609375 8.402344 36.53125 22.46875 22.46875 C 36.53125 8.402344 55.609375 0.5 75.5 0.5 L 150.5 0.5 C 170.390625 0.5 189.46875 8.402344 203.53125 22.46875 C 217.597656 36.53125 225.5 55.609375 225.5 75.5 Z M 225.5 75.5 " clip-rule="nonzero"/></clipPath><clipPath id="1a039d0a4c"><rect x="0" width="226" y="0" height="457"/></clipPath></defs><g clip-path="url(#ee3ad8317e)"><g clip-path="url(#48499b2a8e)"><g transform="matrix(1, 0, 0, 1, 262, 21)"><g clip-path="url(#65cd2445f1)"><g clip-path="url(#b808bcbf92)"><g clip-path="url(#b4b11fcf58)"><path fill="#0cc0df" d="M 0.5 0.503906 L 225.5 0.503906 L 225.5 225.503906 L 0.5 225.503906 Z M 0.5 0.503906 " fill-opacity="1" fill-rule="nonzero"/></g></g></g></g></g></g><g clip-path="url(#68a9acb4a0)"><g clip-path="url(#8a4fbd8cbe)"><g transform="matrix(1, 0, 0, 1, 262, 262)"><g clip-path="url(#1a039d0a4c)"><g clip-path="url(#f818f6c8f3)"><g clip-path="url(#9af6da703a)"><path fill="#0cc0df" d="M 0.5 0.5 L 225.5 0.5 L 225.5 455.773438 L 0.5 455.773438 Z M 0.5 0.5 " fill-opacity="1" fill-rule="nonzero"/></g></g></g></g></g></g></svg>