<svg xmlns="http://www.w3.org/2000/svg" xmlns:xlink="http://www.w3.org/1999/xlink" width="1000" zoomAndPan="magnify" viewBox="0 0 750 749.999995" height="1000" preserveAspectRatio="xMidYMid meet" version="1.0"><defs><g/><clipPath id="add45b97dd"><path d="M 120.308594 119.585938 L 625.140625 119.585938 L 625.140625 624.417969 L 120.308594 624.417969 Z M 120.308594 119.585938 " clip-rule="nonzero"/></clipPath><clipPath id="903d5871ec"><path d="M 372.726562 119.585938 C 233.320312 119.585938 120.308594 232.59375 120.308594 372 C 120.308594 511.40625 233.320312 624.417969 372.726562 624.417969 C 512.128906 624.417969 625.140625 511.40625 625.140625 372 C 625.140625 232.59375 512.128906 119.585938 372.726562 119.585938 Z M 372.726562 119.585938 " clip-rule="nonzero"/></clipPath><clipPath id="16cd627aeb"><path d="M 0.308594 0.585938 L 505.140625 0.585938 L 505.140625 505.417969 L 0.308594 505.417969 Z M 0.308594 0.585938 " clip-rule="nonzero"/></clipPath><clipPath id="c5f7e9b451"><path d="M 252.726562 0.585938 C 113.320312 0.585938 0.308594 113.59375 0.308594 253 C 0.308594 392.40625 113.320312 505.417969 252.726562 505.417969 C 392.128906 505.417969 505.140625 392.40625 505.140625 253 C 505.140625 113.59375 392.128906 0.585938 252.726562 0.585938 Z M 252.726562 0.585938 " clip-rule="nonzero"/></clipPath><clipPath id="41844a8336"><rect x="0" width="506" y="0" height="506"/></clipPath><clipPath id="f9d972ccec"><path d="M 120.308594 119.585938 L 625.058594 119.585938 L 625.058594 624.335938 L 120.308594 624.335938 Z M 120.308594 119.585938 " clip-rule="nonzero"/></clipPath><clipPath id="50b75d6142"><path d="M 372.71875 119.585938 C 233.316406 119.585938 120.308594 232.59375 120.308594 371.996094 C 120.308594 511.398438 233.316406 624.40625 372.71875 624.40625 C 512.121094 624.40625 625.128906 511.398438 625.128906 371.996094 C 625.128906 232.59375 512.121094 119.585938 372.71875 119.585938 Z M 372.71875 119.585938 " clip-rule="nonzero"/></clipPath><clipPath id="3eb9e4bf70"><path d="M 156.101562 155.378906 L 589.347656 155.378906 L 589.347656 588.621094 L 156.101562 588.621094 Z M 156.101562 155.378906 " clip-rule="nonzero"/></clipPath><clipPath id="42b649397e"><path d="M 372.726562 155.378906 C 253.085938 155.378906 156.101562 252.363281 156.101562 372 C 156.101562 491.636719 253.085938 588.621094 372.726562 588.621094 C 492.363281 588.621094 589.347656 491.636719 589.347656 372 C 589.347656 252.363281 492.363281 155.378906 372.726562 155.378906 Z M 372.726562 155.378906 " clip-rule="nonzero"/></clipPath><clipPath id="bc0ddbe28b"><path d="M 0.101562 0.378906 L 433.347656 0.378906 L 433.347656 433.621094 L 0.101562 433.621094 Z M 0.101562 0.378906 " clip-rule="nonzero"/></clipPath><clipPath id="abba185275"><path d="M 216.726562 0.378906 C 97.085938 0.378906 0.101562 97.363281 0.101562 217 C 0.101562 336.636719 97.085938 433.621094 216.726562 433.621094 C 336.363281 433.621094 433.347656 336.636719 433.347656 217 C 433.347656 97.363281 336.363281 0.378906 216.726562 0.378906 Z M 216.726562 0.378906 " clip-rule="nonzero"/></clipPath><clipPath id="eb6acbc116"><rect x="0" width="434" y="0" height="434"/></clipPath><clipPath id="654cde0993"><path d="M 156.101562 155.378906 L 589.34375 155.378906 L 589.34375 588.621094 L 156.101562 588.621094 Z M 156.101562 155.378906 " clip-rule="nonzero"/></clipPath><clipPath id="0eaa9c1272"><path d="M 372.722656 155.378906 C 253.085938 155.378906 156.101562 252.363281 156.101562 372 C 156.101562 491.636719 253.085938 588.621094 372.722656 588.621094 C 492.359375 588.621094 589.34375 491.636719 589.34375 372 C 589.34375 252.363281 492.359375 155.378906 372.722656 155.378906 Z M 372.722656 155.378906 " clip-rule="nonzero"/></clipPath></defs><g clip-path="url(#add45b97dd)"><g clip-path="url(#903d5871ec)"><g transform="matrix(1, 0, 0, 1, 120, 119)"><g clip-path="url(#41844a8336)"><g clip-path="url(#16cd627aeb)"><g clip-path="url(#c5f7e9b451)"><path fill="#dfca0c" d="M 0.308594 0.585938 L 505.140625 0.585938 L 505.140625 505.417969 L 0.308594 505.417969 Z M 0.308594 0.585938 " fill-opacity="1" fill-rule="nonzero"/></g></g></g></g></g></g><g clip-path="url(#f9d972ccec)"><g clip-path="url(#50b75d6142)"><path stroke-linecap="butt" transform="matrix(0.75, 0, 0, 0.75, 120.308836, 119.584937)" fill="none" stroke-linejoin="miter" d="M 336.54659 0.00133457 C 150.676777 0.00133457 -0.000322983 150.678435 -0.000322983 336.548248 C -0.000322983 522.41806 150.676777 673.09516 336.54659 673.09516 C 522.416403 673.09516 673.093503 522.41806 673.093503 336.548248 C 673.093503 150.678435 522.416403 0.00133457 336.54659 0.00133457 Z M 336.54659 0.00133457 " stroke="#000000" stroke-width="40" stroke-opacity="1" stroke-miterlimit="4"/></g></g><g clip-path="url(#3eb9e4bf70)"><g clip-path="url(#42b649397e)"><g transform="matrix(1, 0, 0, 1, 156, 155)"><g clip-path="url(#eb6acbc116)"><g clip-path="url(#bc0ddbe28b)"><g clip-path="url(#abba185275)"><path fill="#dfca0c" d="M 0.101562 0.378906 L 433.347656 0.378906 L 433.347656 433.621094 L 0.101562 433.621094 Z M 0.101562 0.378906 " fill-opacity="1" fill-rule="nonzero"/></g></g></g></g></g></g><g clip-path="url(#654cde0993)"><g clip-path="url(#0eaa9c1272)"><path stroke-linecap="butt" transform="matrix(0.75, 0, 0, 0.75, 156.102504, 155.378626)" fill="none" stroke-linejoin="miter" d="M 288.826884 0.00037363 C 129.311251 0.00037363 -0.00125512 129.31288 -0.00125512 288.828513 C -0.00125512 448.344145 129.311251 577.656652 288.826884 577.656652 C 448.342517 577.656652 577.655023 448.344145 577.655023 288.828513 C 577.655023 129.31288 448.342517 0.00037363 288.826884 0.00037363 Z M 288.826884 0.00037363 " stroke="#000000" stroke-width="40" stroke-opacity="1" stroke-miterlimit="4"/></g></g><g fill="#000000" fill-opacity="1"><g transform="translate(249.037468, 715.395561)"><g><path d="M 9.359375 0 L 9.359375 -17.265625 L 28.296875 -17.265625 L 28.296875 -68 L 11.875 -68 L 11.875 -81.1875 C 16.664062 -82.0625 20.757812 -83.140625 24.15625 -84.421875 C 27.5625 -85.703125 30.820312 -87.300781 33.9375 -89.21875 L 49.640625 -89.21875 L 49.640625 -17.265625 L 65.71875 -17.265625 L 65.71875 0 Z M 9.359375 0 "/></g></g></g><g fill="#000000" fill-opacity="1"><g transform="translate(322.067525, 715.395561)"><g><path d="M 9.359375 0 L 9.359375 -17.265625 L 28.296875 -17.265625 L 28.296875 -68 L 11.875 -68 L 11.875 -81.1875 C 16.664062 -82.0625 20.757812 -83.140625 24.15625 -84.421875 C 27.5625 -85.703125 30.820312 -87.300781 33.9375 -89.21875 L 49.640625 -89.21875 L 49.640625 -17.265625 L 65.71875 -17.265625 L 65.71875 0 Z M 9.359375 0 "/></g></g></g><g fill="#000000" fill-opacity="1"><g transform="translate(395.097581, 715.395561)"><g><path d="M 31.78125 -72.3125 L 31.78125 -48.328125 L 41.375 -48.328125 C 51.769531 -48.328125 56.96875 -52.601562 56.96875 -61.15625 C 56.96875 -65.394531 55.644531 -68.3125 53 -69.90625 C 50.363281 -71.507812 46.488281 -72.3125 41.375 -72.3125 Z M 82.5 0 L 58.515625 0 L 42.09375 -31.421875 L 31.78125 -31.421875 L 31.78125 0 L 10.3125 0 L 10.3125 -89.21875 L 43.046875 -89.21875 C 49.441406 -89.21875 55.273438 -88.378906 60.546875 -86.703125 C 65.828125 -85.023438 70.046875 -82.144531 73.203125 -78.0625 C 76.367188 -73.988281 77.953125 -68.351562 77.953125 -61.15625 C 77.953125 -54.601562 76.550781 -49.207031 73.75 -44.96875 C 70.957031 -40.726562 67.238281 -37.53125 62.59375 -35.375 Z M 82.5 0 "/></g></g></g><path stroke-linecap="butt" transform="matrix(0, -0.75, 0.75, 0, 367.097387, 155.376341)" fill="none" stroke-linejoin="miter" d="M 0.0017883 7.500359 L 47.725749 7.500359 " stroke="#000000" stroke-width="15" stroke-opacity="1" stroke-miterlimit="4"/><path stroke-linecap="butt" transform="matrix(0.240285, -0.710467, 0.710467, 0.240285, 421.278054, 160.328743)" fill="none" stroke-linejoin="miter" d="M -0.00290227 7.499453 L 32.244414 7.501492 " stroke="#000000" stroke-width="15" stroke-opacity="1" stroke-miterlimit="4"/><path stroke-linecap="butt" transform="matrix(0.375, -0.649519, 0.649519, 0.375, 470.903212, 195.423644)" fill="none" stroke-linejoin="miter" d="M 0.00126479 7.497474 L 56.860145 7.500768 " stroke="#000000" stroke-width="15" stroke-opacity="1" stroke-miterlimit="4"/><path stroke-linecap="butt" transform="matrix(0.474866, -0.580519, 0.580519, 0.474866, 511.95929, 219.846045)" fill="none" stroke-linejoin="miter" d="M 0.000756905 7.498208 L 43.361059 7.497361 " stroke="#000000" stroke-width="15" stroke-opacity="1" stroke-miterlimit="4"/><path stroke-linecap="butt" transform="matrix(0.622901, -0.417725, 0.417725, 0.622901, 543.083832, 252.524657)" fill="none" stroke-linejoin="miter" d="M -0.00131453 7.497348 L 52.393495 7.497199 " stroke="#000000" stroke-width="15" stroke-opacity="1" stroke-miterlimit="4"/><path stroke-linecap="butt" transform="matrix(0.681308, -0.31356, 0.31356, 0.681308, 567.643391, 291.898835)" fill="none" stroke-linejoin="miter" d="M 0.00168185 7.499555 L 47.100289 7.50336 " stroke="#000000" stroke-width="15" stroke-opacity="1" stroke-miterlimit="4"/><path stroke-linecap="butt" transform="matrix(0.747479, -0.0614365, 0.0614365, 0.747479, 585.507334, 328.074849)" fill="none" stroke-linejoin="miter" d="M 0.000990378 7.498399 L 38.160414 7.499245 " stroke="#000000" stroke-width="15" stroke-opacity="1" stroke-miterlimit="4"/><path stroke-linecap="butt" transform="matrix(0.747044, 0.0665168, -0.0665168, 0.747044, 579.352414, 375.939258)" fill="none" stroke-linejoin="miter" d="M 0.00266688 7.500936 L 47.706135 7.499323 " stroke="#000000" stroke-width="15" stroke-opacity="1" stroke-miterlimit="4"/><path stroke-linecap="butt" transform="matrix(0.721179, 0.205916, -0.205916, 0.721179, 576.113231, 421.165775)" fill="none" stroke-linejoin="miter" d="M 0.00171645 7.498961 L 57.855557 7.500391 " stroke="#000000" stroke-width="15" stroke-opacity="1" stroke-miterlimit="4"/><path stroke-linecap="butt" transform="matrix(0.584131, 0.470415, -0.470415, 0.584131, 564.475511, 465.735933)" fill="none" stroke-linejoin="miter" d="M 0.00211861 7.498756 L 46.726793 7.49955 " stroke="#000000" stroke-width="15" stroke-opacity="1" stroke-miterlimit="4"/><path stroke-linecap="butt" transform="matrix(0.501933, 0.557282, -0.557282, 0.501933, 536.360473, 503.753443)" fill="none" stroke-linejoin="miter" d="M 0.000525503 7.502578 L 57.966252 7.497697 " stroke="#000000" stroke-width="15" stroke-opacity="1" stroke-miterlimit="4"/><path stroke-linecap="butt" transform="matrix(0.488635, 0.568978, -0.568978, 0.488635, 510.016154, 539.316666)" fill="none" stroke-linejoin="miter" d="M 0.0000573632 7.497973 L 40.957 7.5002 " stroke="#000000" stroke-width="15" stroke-opacity="1" stroke-miterlimit="4"/><path stroke-linecap="butt" transform="matrix(0.210062, 0.719982, -0.719982, 0.210062, 466.787884, 553.393817)" fill="none" stroke-linejoin="miter" d="M -0.00116368 7.501466 L 66.292796 7.501523 " stroke="#000000" stroke-width="15" stroke-opacity="1" stroke-miterlimit="4"/><path stroke-linecap="butt" transform="matrix(0.180682, 0.727911, -0.727911, 0.180682, 420.258798, 570.439552)" fill="none" stroke-linejoin="miter" d="M -0.00177289 7.497755 L 64.426901 7.498382 " stroke="#000000" stroke-width="15" stroke-opacity="1" stroke-miterlimit="4"/><path stroke-linecap="butt" transform="matrix(0, 0.75, -0.75, 0, 378.348675, 573.380488)" fill="none" stroke-linejoin="miter" d="M -0.00210908 7.501359 L 68.049978 7.501359 " stroke="#000000" stroke-width="15" stroke-opacity="1" stroke-miterlimit="4"/><path stroke-linecap="butt" transform="matrix(-0.153687, 0.734085, -0.734085, -0.153687, 324.109292, 574.53316)" fill="none" stroke-linejoin="miter" d="M -0.00258538 7.498074 L 50.411535 7.500811 " stroke="#000000" stroke-width="15" stroke-opacity="1" stroke-miterlimit="4"/><path stroke-linecap="butt" transform="matrix(-0.375, 0.649519, -0.649519, -0.375, 274.309912, 554.186945)" fill="none" stroke-linejoin="miter" d="M 0.00132016 7.500807 L 56.857596 7.499591 " stroke="#000000" stroke-width="15" stroke-opacity="1" stroke-miterlimit="4"/><path stroke-linecap="butt" transform="matrix(-0.474866, 0.580519, -0.580519, -0.474866, 233.25289, 529.764714)" fill="none" stroke-linejoin="miter" d="M 0.000377168 7.500659 L 43.360679 7.499813 " stroke="#000000" stroke-width="15" stroke-opacity="1" stroke-miterlimit="4"/><path stroke-linecap="butt" transform="matrix(-0.622901, 0.417725, -0.417725, -0.622901, 202.126531, 497.086052)" fill="none" stroke-linejoin="miter" d="M 0.0013847 7.5013 L 52.396195 7.501151 " stroke="#000000" stroke-width="15" stroke-opacity="1" stroke-miterlimit="4"/><path stroke-linecap="butt" transform="matrix(-0.681308, 0.31356, -0.31356, -0.681308, 177.56576, 457.71187)" fill="none" stroke-linejoin="miter" d="M -0.00122251 7.500169 L 47.099562 7.499243 " stroke="#000000" stroke-width="15" stroke-opacity="1" stroke-miterlimit="4"/><path stroke-linecap="butt" transform="matrix(-0.747479, 0.0614365, -0.0614365, -0.747479, 159.704584, 421.535855)" fill="none" stroke-linejoin="miter" d="M 0.00214891 7.500273 L 38.156382 7.500692 " stroke="#000000" stroke-width="15" stroke-opacity="1" stroke-miterlimit="4"/><path stroke-linecap="butt" transform="matrix(-0.747044, -0.0665168, 0.0665168, -0.747044, 165.860282, 373.671331)" fill="none" stroke-linejoin="miter" d="M -0.000503619 7.497615 L 47.703426 7.50119 " stroke="#000000" stroke-width="15" stroke-opacity="1" stroke-miterlimit="4"/><path stroke-linecap="butt" transform="matrix(-0.708822, -0.245095, 0.245095, -0.708822, 168.799931, 328.352349)" fill="none" stroke-linejoin="miter" d="M 0.00224667 7.500675 L 56.32395 7.501387 " stroke="#000000" stroke-width="15" stroke-opacity="1" stroke-miterlimit="4"/><path stroke-linecap="butt" transform="matrix(-0.584131, -0.470415, 0.470415, -0.584131, 180.730835, 283.874771)" fill="none" stroke-linejoin="miter" d="M 0.00251881 7.500709 L 46.727192 7.501501 " stroke="#000000" stroke-width="15" stroke-opacity="1" stroke-miterlimit="4"/><path stroke-linecap="butt" transform="matrix(-0.521345, -0.539166, 0.539166, -0.521345, 208.984519, 246.005751)" fill="none" stroke-linejoin="miter" d="M 0.00268572 7.500896 L 55.175811 7.498294 " stroke="#000000" stroke-width="15" stroke-opacity="1" stroke-miterlimit="4"/><path stroke-linecap="butt" transform="matrix(-0.488635, -0.568978, 0.568978, -0.488635, 235.193312, 210.293974)" fill="none" stroke-linejoin="miter" d="M 0.0000579377 7.50056 L 40.960393 7.498836 " stroke="#000000" stroke-width="15" stroke-opacity="1" stroke-miterlimit="4"/><path stroke-linecap="butt" transform="matrix(-0.259133, -0.703811, 0.703811, -0.259133, 277.162196, 185.265479)" fill="none" stroke-linejoin="miter" d="M 0.00180195 7.501553 L 50.197504 7.500898 " stroke="#000000" stroke-width="15" stroke-opacity="1" stroke-miterlimit="4"/><path stroke-linecap="butt" transform="matrix(-0.148444, -0.735163, 0.735163, -0.148444, 320.088004, 173.432296)" fill="none" stroke-linejoin="miter" d="M -0.00171882 7.499433 L 47.143859 7.50269 " stroke="#000000" stroke-width="15" stroke-opacity="1" stroke-miterlimit="4"/><g fill="#000000" fill-opacity="1"><g transform="translate(302.759842, 418.805859)"><g><path d="M 107.734375 -90.109375 L 97.390625 -77.796875 C 93.285156 -81.148438 89.085938 -83.738281 84.796875 -85.5625 C 80.503906 -87.382812 75.929688 -88.296875 71.078125 -88.296875 C 65.859375 -88.296875 61.640625 -87.3125 58.421875 -85.34375 C 55.203125 -83.382812 53.59375 -80.398438 53.59375 -76.390625 C 53.59375 -73.878906 54.59375 -71.804688 56.59375 -70.171875 C 58.601562 -68.535156 61.238281 -67.0625 64.5 -65.75 C 67.769531 -64.445312 71.363281 -63.191406 75.28125 -61.984375 C 79.195312 -60.773438 83.113281 -59.375 87.03125 -57.78125 C 90.945312 -56.195312 94.535156 -54.238281 97.796875 -51.90625 C 101.066406 -49.570312 103.703125 -46.726562 105.703125 -43.375 C 107.710938 -40.019531 108.71875 -35.914062 108.71875 -31.0625 C 108.71875 -23.132812 106.035156 -16.414062 100.671875 -10.90625 C 95.304688 -5.40625 87.632812 -1.957031 77.65625 -0.5625 L 77.65625 17.484375 L 63.9375 17.484375 L 63.9375 -0.140625 C 60.113281 -0.515625 56.078125 -1.285156 51.828125 -2.453125 C 47.585938 -3.617188 43.53125 -5.179688 39.65625 -7.140625 C 35.789062 -9.097656 32.414062 -11.425781 29.53125 -14.125 L 38.765625 -27.984375 C 43.140625 -24.160156 47.890625 -21.316406 53.015625 -19.453125 C 58.148438 -17.585938 63.285156 -16.65625 68.421875 -16.65625 C 75.515625 -16.65625 80.710938 -17.75 84.015625 -19.9375 C 87.328125 -22.132812 88.984375 -25.238281 88.984375 -29.25 C 88.984375 -31.851562 87.976562 -34.039062 85.96875 -35.8125 C 83.96875 -37.59375 81.332031 -39.15625 78.0625 -40.5 C 74.800781 -41.851562 71.210938 -43.179688 67.296875 -44.484375 C 63.378906 -45.796875 59.460938 -47.242188 55.546875 -48.828125 C 51.628906 -50.421875 48.035156 -52.332031 44.765625 -54.5625 C 41.503906 -56.800781 38.867188 -59.578125 36.859375 -62.890625 C 34.859375 -66.203125 33.859375 -70.238281 33.859375 -75 C 33.859375 -83.300781 36.5625 -90.0625 41.96875 -95.28125 C 47.382812 -100.507812 54.707031 -103.632812 63.9375 -104.65625 L 63.9375 -122.4375 L 77.65625 -122.4375 L 77.65625 -104.515625 C 84.09375 -103.773438 89.710938 -102.097656 94.515625 -99.484375 C 99.316406 -96.867188 103.722656 -93.742188 107.734375 -90.109375 Z M 107.734375 -90.109375 "/></g></g></g></svg>