<svg xmlns="http://www.w3.org/2000/svg" xmlns:xlink="http://www.w3.org/1999/xlink" width="1000" zoomAndPan="magnify" viewBox="0 0 750 749.999995" height="1000" preserveAspectRatio="xMidYMid meet" version="1.0"><defs><g/><clipPath id="cd3bc9fdd6"><path d="M 136.613281 75 L 650.863281 75 L 650.863281 589.25 L 136.613281 589.25 Z M 136.613281 75 " clip-rule="nonzero"/></clipPath><clipPath id="687a8adeb3"><path d="M 393.738281 75 C 251.730469 75 136.613281 190.117188 136.613281 332.125 C 136.613281 474.128906 251.730469 589.25 393.738281 589.25 C 535.742188 589.25 650.863281 474.128906 650.863281 332.125 C 650.863281 190.117188 535.742188 75 393.738281 75 Z M 393.738281 75 " clip-rule="nonzero"/></clipPath><clipPath id="97afc206be"><path d="M 0.613281 0 L 514.863281 0 L 514.863281 514.25 L 0.613281 514.25 Z M 0.613281 0 " clip-rule="nonzero"/></clipPath><clipPath id="e4d827b273"><path d="M 257.738281 0 C 115.730469 0 0.613281 115.117188 0.613281 257.125 C 0.613281 399.128906 115.730469 514.25 257.738281 514.25 C 399.742188 514.25 514.863281 399.128906 514.863281 257.125 C 514.863281 115.117188 399.742188 0 257.738281 0 Z M 257.738281 0 " clip-rule="nonzero"/></clipPath><clipPath id="c6600d6d8f"><rect x="0" width="515" y="0" height="515"/></clipPath><clipPath id="bbd7b5f306"><path d="M 162.503906 102.425781 L 623.4375 102.425781 L 623.4375 563.355469 L 162.503906 563.355469 Z M 162.503906 102.425781 " clip-rule="nonzero"/></clipPath><clipPath id="2a55657466"><path d="M 392.972656 102.425781 C 265.6875 102.425781 162.503906 205.609375 162.503906 332.890625 C 162.503906 460.171875 265.6875 563.355469 392.972656 563.355469 C 520.253906 563.355469 623.4375 460.171875 623.4375 332.890625 C 623.4375 205.609375 520.253906 102.425781 392.972656 102.425781 Z M 392.972656 102.425781 " clip-rule="nonzero"/></clipPath><clipPath id="8804eae9ea"><path d="M 0.503906 0.425781 L 461.4375 0.425781 L 461.4375 461.355469 L 0.503906 461.355469 Z M 0.503906 0.425781 " clip-rule="nonzero"/></clipPath><clipPath id="ae6e222a4f"><path d="M 230.972656 0.425781 C 103.6875 0.425781 0.503906 103.609375 0.503906 230.890625 C 0.503906 358.171875 103.6875 461.355469 230.972656 461.355469 C 358.253906 461.355469 461.4375 358.171875 461.4375 230.890625 C 461.4375 103.609375 358.253906 0.425781 230.972656 0.425781 Z M 230.972656 0.425781 " clip-rule="nonzero"/></clipPath><clipPath id="b569d494bb"><rect x="0" width="462" y="0" height="462"/></clipPath><clipPath id="0ca39f3a6f"><path d="M 200.886719 140.808594 L 585.054688 140.808594 L 585.054688 524.976562 L 200.886719 524.976562 Z M 200.886719 140.808594 " clip-rule="nonzero"/></clipPath><clipPath id="52d24e3463"><path d="M 392.972656 140.808594 C 286.886719 140.808594 200.886719 226.804688 200.886719 332.890625 C 200.886719 438.976562 286.886719 524.976562 392.972656 524.976562 C 499.054688 524.976562 585.054688 438.976562 585.054688 332.890625 C 585.054688 226.804688 499.054688 140.808594 392.972656 140.808594 Z M 392.972656 140.808594 " clip-rule="nonzero"/></clipPath><clipPath id="fb0b2130e5"><path d="M 0.886719 0.808594 L 385.054688 0.808594 L 385.054688 384.976562 L 0.886719 384.976562 Z M 0.886719 0.808594 " clip-rule="nonzero"/></clipPath><clipPath id="f87d1833e0"><path d="M 192.972656 0.808594 C 86.886719 0.808594 0.886719 86.804688 0.886719 192.890625 C 0.886719 298.976562 86.886719 384.976562 192.972656 384.976562 C 299.054688 384.976562 385.054688 298.976562 385.054688 192.890625 C 385.054688 86.804688 299.054688 0.808594 192.972656 0.808594 Z M 192.972656 0.808594 " clip-rule="nonzero"/></clipPath><clipPath id="6cac2ab1e4"><rect x="0" width="386" y="0" height="385"/></clipPath><clipPath id="409eefa478"><path d="M 229.132812 169.050781 L 556.808594 169.050781 L 556.808594 496.730469 L 229.132812 496.730469 Z M 229.132812 169.050781 " clip-rule="nonzero"/></clipPath><clipPath id="7d30cfe6fb"><path d="M 392.972656 169.050781 C 302.484375 169.050781 229.132812 242.40625 229.132812 332.890625 C 229.132812 423.375 302.484375 496.730469 392.972656 496.730469 C 483.457031 496.730469 556.808594 423.375 556.808594 332.890625 C 556.808594 242.40625 483.457031 169.050781 392.972656 169.050781 Z M 392.972656 169.050781 " clip-rule="nonzero"/></clipPath><clipPath id="b2aee9d3fd"><path d="M 0.132812 0.0507812 L 327.808594 0.0507812 L 327.808594 327.730469 L 0.132812 327.730469 Z M 0.132812 0.0507812 " clip-rule="nonzero"/></clipPath><clipPath id="50ec08bca0"><path d="M 163.972656 0.0507812 C 73.484375 0.0507812 0.132812 73.40625 0.132812 163.890625 C 0.132812 254.375 73.484375 327.730469 163.972656 327.730469 C 254.457031 327.730469 327.808594 254.375 327.808594 163.890625 C 327.808594 73.40625 254.457031 0.0507812 163.972656 0.0507812 Z M 163.972656 0.0507812 " clip-rule="nonzero"/></clipPath><clipPath id="06bf36d233"><rect x="0" width="328" y="0" height="328"/></clipPath><clipPath id="9f14b9d29d"><path d="M 266.550781 206.46875 L 519.394531 206.46875 L 519.394531 459.3125 L 266.550781 459.3125 Z M 266.550781 206.46875 " clip-rule="nonzero"/></clipPath><clipPath id="8d80b36d91"><path d="M 392.972656 206.46875 C 323.148438 206.46875 266.550781 263.070312 266.550781 332.890625 C 266.550781 402.710938 323.148438 459.3125 392.972656 459.3125 C 462.792969 459.3125 519.394531 402.710938 519.394531 332.890625 C 519.394531 263.070312 462.792969 206.46875 392.972656 206.46875 Z M 392.972656 206.46875 " clip-rule="nonzero"/></clipPath><clipPath id="2851e40c79"><path d="M 0.550781 0.46875 L 253.394531 0.46875 L 253.394531 253.3125 L 0.550781 253.3125 Z M 0.550781 0.46875 " clip-rule="nonzero"/></clipPath><clipPath id="b1226b4bd5"><path d="M 126.972656 0.46875 C 57.148438 0.46875 0.550781 57.070312 0.550781 126.890625 C 0.550781 196.710938 57.148438 253.3125 126.972656 253.3125 C 196.792969 253.3125 253.394531 196.710938 253.394531 126.890625 C 253.394531 57.070312 196.792969 0.46875 126.972656 0.46875 Z M 126.972656 0.46875 " clip-rule="nonzero"/></clipPath><clipPath id="9bd6eefa24"><rect x="0" width="254" y="0" height="254"/></clipPath><clipPath id="a858b55336"><path d="M 294.15625 234.078125 L 491.785156 234.078125 L 491.785156 431.707031 L 294.15625 431.707031 Z M 294.15625 234.078125 " clip-rule="nonzero"/></clipPath><clipPath id="224b42dbb4"><path d="M 392.972656 234.078125 C 338.398438 234.078125 294.15625 278.316406 294.15625 332.890625 C 294.15625 387.464844 338.398438 431.707031 392.972656 431.707031 C 447.546875 431.707031 491.785156 387.464844 491.785156 332.890625 C 491.785156 278.316406 447.546875 234.078125 392.972656 234.078125 Z M 392.972656 234.078125 " clip-rule="nonzero"/></clipPath><clipPath id="f35f8faa68"><path d="M 0.15625 0.078125 L 197.785156 0.078125 L 197.785156 197.707031 L 0.15625 197.707031 Z M 0.15625 0.078125 " clip-rule="nonzero"/></clipPath><clipPath id="e5cab9d841"><path d="M 98.972656 0.078125 C 44.398438 0.078125 0.15625 44.316406 0.15625 98.890625 C 0.15625 153.464844 44.398438 197.707031 98.972656 197.707031 C 153.546875 197.707031 197.785156 153.464844 197.785156 98.890625 C 197.785156 44.316406 153.546875 0.078125 98.972656 0.078125 Z M 98.972656 0.078125 " clip-rule="nonzero"/></clipPath><clipPath id="0b7a60b72a"><rect x="0" width="198" y="0" height="198"/></clipPath><clipPath id="2f10226601"><path d="M 257 214 L 316 214 L 316 270 L 257 270 Z M 257 214 " clip-rule="nonzero"/></clipPath><clipPath id="5c677a1129"><path d="M 274.976562 214.328125 L 315.121094 250.703125 L 297.65625 269.976562 L 257.511719 233.601562 Z M 274.976562 214.328125 " clip-rule="nonzero"/></clipPath><clipPath id="5ce43090a4"><path d="M 0.28125 0.320312 L 58.359375 0.320312 L 58.359375 56 L 0.28125 56 Z M 0.28125 0.320312 " clip-rule="nonzero"/></clipPath><clipPath id="683efa5d36"><path d="M 17.976562 0.328125 L 58.121094 36.703125 L 40.65625 55.976562 L 0.511719 19.601562 Z M 17.976562 0.328125 " clip-rule="nonzero"/></clipPath><clipPath id="949a2758db"><rect x="0" width="59" y="0" height="56"/></clipPath><clipPath id="e2ac6e0b03"><path d="M 364 102 L 393 102 L 393 158 L 364 158 Z M 364 102 " clip-rule="nonzero"/></clipPath><clipPath id="067894834b"><path d="M 390.882812 102.429688 L 392.964844 156.5625 L 366.652344 157.574219 L 364.566406 103.441406 Z M 390.882812 102.429688 " clip-rule="nonzero"/></clipPath><clipPath id="bce00575b7"><path d="M 0.558594 0.238281 L 29 0.238281 L 29 55.679688 L 0.558594 55.679688 Z M 0.558594 0.238281 " clip-rule="nonzero"/></clipPath><clipPath id="e4b8422e68"><path d="M 26.882812 0.429688 L 28.964844 54.5625 L 2.652344 55.574219 L 0.566406 1.441406 Z M 26.882812 0.429688 " clip-rule="nonzero"/></clipPath><clipPath id="6833f961b7"><rect x="0" width="29" y="0" height="56"/></clipPath><clipPath id="e7c079dc95"><path d="M 508 332 L 566 332 L 566 367 L 508 367 Z M 508 332 " clip-rule="nonzero"/></clipPath><clipPath id="22cad68e34"><path d="M 512.128906 332.890625 L 565.675781 341.105469 L 561.730469 366.8125 L 508.183594 358.601562 Z M 512.128906 332.890625 " clip-rule="nonzero"/></clipPath><clipPath id="f7851020ab"><path d="M 0.078125 0.878906 L 57.679688 0.878906 L 57.679688 34.960938 L 0.078125 34.960938 Z M 0.078125 0.878906 " clip-rule="nonzero"/></clipPath><clipPath id="c37bb6fb6a"><path d="M 4.128906 0.890625 L 57.675781 9.105469 L 53.730469 34.8125 L 0.183594 26.601562 Z M 4.128906 0.890625 " clip-rule="nonzero"/></clipPath><clipPath id="daa60f53f8"><rect x="0" width="58" y="0" height="35"/></clipPath><clipPath id="1606f87a54"><path d="M 467 488 L 519 488 L 519 547 L 467 547 Z M 467 488 " clip-rule="nonzero"/></clipPath><clipPath id="48e4423777"><path d="M 488.109375 488.171875 L 518.203125 533.214844 L 498.003906 546.710938 L 467.910156 501.667969 Z M 488.109375 488.171875 " clip-rule="nonzero"/></clipPath><clipPath id="f24706702f"><path d="M 0.761719 0.160156 L 51.398438 0.160156 L 51.398438 58.71875 L 0.761719 58.71875 Z M 0.761719 0.160156 " clip-rule="nonzero"/></clipPath><clipPath id="8712b9223e"><path d="M 21.109375 0.171875 L 51.203125 45.214844 L 31.003906 58.710938 L 0.910156 13.667969 Z M 21.109375 0.171875 " clip-rule="nonzero"/></clipPath><clipPath id="8ac33b37fb"><rect x="0" width="52" y="0" height="59"/></clipPath><clipPath id="6d729d2dc0"><path d="M 210 440 L 268 440 L 268 495 L 210 495 Z M 210 440 " clip-rule="nonzero"/></clipPath><clipPath id="2e190324f0"><path d="M 267.046875 458.691406 L 226.289062 494.375 L 210.285156 476.101562 L 251.042969 440.414062 Z M 267.046875 458.691406 " clip-rule="nonzero"/></clipPath><clipPath id="849119b06d"><path d="M 0.238281 0.398438 L 57.121094 0.398438 L 57.121094 54.398438 L 0.238281 54.398438 Z M 0.238281 0.398438 " clip-rule="nonzero"/></clipPath><clipPath id="be00a7ae2f"><path d="M 57.046875 18.691406 L 16.289062 54.375 L 0.285156 36.101562 L 41.042969 0.414062 Z M 57.046875 18.691406 " clip-rule="nonzero"/></clipPath><clipPath id="48994be5b2"><rect x="0" width="58" y="0" height="55"/></clipPath><clipPath id="d2b8124c48"><path d="M 527 248 L 588 248 L 588 292 L 527 292 Z M 527 248 " clip-rule="nonzero"/></clipPath><clipPath id="29dba7f678"><path d="M 527.996094 269.5625 L 577.726562 248.082031 L 587.359375 270.382812 L 537.625 291.863281 Z M 527.996094 269.5625 " clip-rule="nonzero"/></clipPath><clipPath id="f591c05cf1"><path d="M 0.761719 0 L 60.519531 0 L 60.519531 44 L 0.761719 44 Z M 0.761719 0 " clip-rule="nonzero"/></clipPath><clipPath id="5027c3b2a5"><path d="M 0.996094 21.5625 L 50.726562 0.0820312 L 60.359375 22.382812 L 10.625 43.863281 Z M 0.996094 21.5625 " clip-rule="nonzero"/></clipPath><clipPath id="9e6f7237a3"><rect x="0" width="61" y="0" height="44"/></clipPath><clipPath id="bc3c534291"><path d="M 136 296 L 193 296 L 193 329 L 136 329 Z M 136 296 " clip-rule="nonzero"/></clipPath><clipPath id="6980597a25"><path d="M 189.21875 328.78125 L 136.609375 320.4375 L 140.351562 296.847656 L 192.957031 305.191406 Z M 189.21875 328.78125 " clip-rule="nonzero"/></clipPath><clipPath id="2e72c604ac"><path d="M 0.558594 0.640625 L 56.960938 0.640625 L 56.960938 32.800781 L 0.558594 32.800781 Z M 0.558594 0.640625 " clip-rule="nonzero"/></clipPath><clipPath id="3ff27506ad"><path d="M 53.21875 32.78125 L 0.609375 24.4375 L 4.351562 0.847656 L 56.957031 9.191406 Z M 53.21875 32.78125 " clip-rule="nonzero"/></clipPath><clipPath id="c9fcf470af"><rect x="0" width="57" y="0" height="33"/></clipPath><clipPath id="f11b70200b"><path d="M 291 140 L 339 140 L 339 200 L 291 200 Z M 291 140 " clip-rule="nonzero"/></clipPath><clipPath id="a31db70e8a"><path d="M 317.730469 199.539062 L 291.308594 152.246094 L 312.515625 140.398438 L 338.9375 187.691406 Z M 317.730469 199.539062 " clip-rule="nonzero"/></clipPath><clipPath id="5d7e088cec"><path d="M 0.121094 0.160156 L 48 0.160156 L 48 59.679688 L 0.121094 59.679688 Z M 0.121094 0.160156 " clip-rule="nonzero"/></clipPath><clipPath id="e6931031d6"><path d="M 26.730469 59.539062 L 0.308594 12.246094 L 21.515625 0.398438 L 47.9375 47.691406 Z M 26.730469 59.539062 " clip-rule="nonzero"/></clipPath><clipPath id="3cc957c490"><rect x="0" width="48" y="0" height="60"/></clipPath><clipPath id="0e3cc7614c"><path d="M 498 418 L 557 418 L 557 470 L 498 470 Z M 498 418 " clip-rule="nonzero"/></clipPath><clipPath id="44d02287e0"><path d="M 511.996094 418.519531 L 556.328125 449.660156 L 542.363281 469.535156 L 498.035156 438.398438 Z M 511.996094 418.519531 " clip-rule="nonzero"/></clipPath><clipPath id="760a9306ed"><path d="M 0 0.320312 L 58.558594 0.320312 L 58.558594 51.679688 L 0 51.679688 Z M 0 0.320312 " clip-rule="nonzero"/></clipPath><clipPath id="62e48006f6"><path d="M 13.996094 0.519531 L 58.328125 31.660156 L 44.363281 51.535156 L 0.0351562 20.398438 Z M 13.996094 0.519531 " clip-rule="nonzero"/></clipPath><clipPath id="d162e92495"><rect x="0" width="59" y="0" height="52"/></clipPath><clipPath id="39641a4252"><path d="M 338 468 L 378 468 L 378 528 L 338 528 Z M 338 468 " clip-rule="nonzero"/></clipPath><clipPath id="370851cef7"><path d="M 338.941406 520.527344 L 353.699219 468.40625 L 377.070312 475.023438 L 362.3125 527.144531 Z M 338.941406 520.527344 " clip-rule="nonzero"/></clipPath><clipPath id="06f1bf963c"><path d="M 0.878906 0.238281 L 39.28125 0.238281 L 39.28125 59.28125 L 0.878906 59.28125 Z M 0.878906 0.238281 " clip-rule="nonzero"/></clipPath><clipPath id="6819ffc286"><path d="M 0.941406 52.527344 L 15.699219 0.40625 L 39.070312 7.023438 L 24.3125 59.144531 Z M 0.941406 52.527344 " clip-rule="nonzero"/></clipPath><clipPath id="4ffc03a00e"><rect x="0" width="40" y="0" height="60"/></clipPath><clipPath id="693abd1067"><path d="M 324.242188 264.160156 L 461.699219 264.160156 L 461.699219 401.621094 L 324.242188 401.621094 Z M 324.242188 264.160156 " clip-rule="nonzero"/></clipPath><clipPath id="fe8b9be67a"><path d="M 392.972656 264.160156 C 355.011719 264.160156 324.242188 294.933594 324.242188 332.890625 C 324.242188 370.847656 355.011719 401.621094 392.972656 401.621094 C 430.929688 401.621094 461.699219 370.847656 461.699219 332.890625 C 461.699219 294.933594 430.929688 264.160156 392.972656 264.160156 Z M 392.972656 264.160156 " clip-rule="nonzero"/></clipPath><clipPath id="cd127114e2"><path d="M 0.242188 0.160156 L 137.699219 0.160156 L 137.699219 137.621094 L 0.242188 137.621094 Z M 0.242188 0.160156 " clip-rule="nonzero"/></clipPath><clipPath id="8bb9832e0d"><path d="M 68.972656 0.160156 C 31.011719 0.160156 0.242188 30.933594 0.242188 68.890625 C 0.242188 106.847656 31.011719 137.621094 68.972656 137.621094 C 106.929688 137.621094 137.699219 106.847656 137.699219 68.890625 C 137.699219 30.933594 106.929688 0.160156 68.972656 0.160156 Z M 68.972656 0.160156 " clip-rule="nonzero"/></clipPath><clipPath id="7b9d45824a"><rect x="0" width="138" y="0" height="138"/></clipPath><clipPath id="fd604d52ea"><path d="M 348.695312 288.617188 L 437.246094 288.617188 L 437.246094 377.167969 L 348.695312 377.167969 Z M 348.695312 288.617188 " clip-rule="nonzero"/></clipPath><clipPath id="f221b6ad16"><path d="M 392.972656 288.617188 C 368.519531 288.617188 348.695312 308.4375 348.695312 332.890625 C 348.695312 357.34375 368.519531 377.167969 392.972656 377.167969 C 417.425781 377.167969 437.246094 357.34375 437.246094 332.890625 C 437.246094 308.4375 417.425781 288.617188 392.972656 288.617188 Z M 392.972656 288.617188 " clip-rule="nonzero"/></clipPath><clipPath id="9ef596232a"><path d="M 0.695312 0.617188 L 89.246094 0.617188 L 89.246094 89.167969 L 0.695312 89.167969 Z M 0.695312 0.617188 " clip-rule="nonzero"/></clipPath><clipPath id="1eecb31a71"><path d="M 44.972656 0.617188 C 20.519531 0.617188 0.695312 20.4375 0.695312 44.890625 C 0.695312 69.34375 20.519531 89.167969 44.972656 89.167969 C 69.425781 89.167969 89.246094 69.34375 89.246094 44.890625 C 89.246094 20.4375 69.425781 0.617188 44.972656 0.617188 Z M 44.972656 0.617188 " clip-rule="nonzero"/></clipPath><clipPath id="53052ad21d"><rect x="0" width="90" y="0" height="90"/></clipPath><clipPath id="e64b7ccbb7"><path d="M 377 283 L 432 283 L 432 343 L 377 343 Z M 377 283 " clip-rule="nonzero"/></clipPath><clipPath id="c596c0336b"><path d="M 431.929688 300.738281 L 396.902344 342.0625 L 377.058594 325.242188 L 412.089844 283.917969 Z M 431.929688 300.738281 " clip-rule="nonzero"/></clipPath><clipPath id="a87ec5a492"><path d="M 0.0390625 0.679688 L 55 0.679688 L 55 59.238281 L 0.0390625 59.238281 Z M 0.0390625 0.679688 " clip-rule="nonzero"/></clipPath><clipPath id="ff13c63ccf"><path d="M 54.929688 17.738281 L 19.902344 59.0625 L 0.0585938 42.242188 L 35.089844 0.917969 Z M 54.929688 17.738281 " clip-rule="nonzero"/></clipPath><clipPath id="1bc6e3cace"><rect x="0" width="55" y="0" height="60"/></clipPath><clipPath id="3bad2d8cb3"><path d="M 390 353 L 433 353 L 433 413 L 390 413 Z M 390 353 " clip-rule="nonzero"/></clipPath><clipPath id="ef963634e8"><path d="M 409.886719 412.140625 L 390.910156 362.371094 L 413.230469 353.863281 L 432.207031 403.632812 Z M 409.886719 412.140625 " clip-rule="nonzero"/></clipPath><clipPath id="39585d3f5e"><path d="M 0.71875 0.761719 L 42.238281 0.761719 L 42.238281 59.320312 L 0.71875 59.320312 Z M 0.71875 0.761719 " clip-rule="nonzero"/></clipPath><clipPath id="bc2f75321a"><path d="M 19.886719 59.140625 L 0.910156 9.371094 L 23.230469 0.863281 L 42.207031 50.632812 Z M 19.886719 59.140625 " clip-rule="nonzero"/></clipPath><clipPath id="f2ee5c07ea"><rect x="0" width="43" y="0" height="60"/></clipPath><clipPath id="0d914a2696"><path d="M 249 349 L 309 349 L 309 391 L 249 391 Z M 249 349 " clip-rule="nonzero"/></clipPath><clipPath id="8c38a5d1a1"><path d="M 308.902344 372.851562 L 257.59375 390.234375 L 249.796875 367.226562 L 301.105469 349.84375 Z M 308.902344 372.851562 " clip-rule="nonzero"/></clipPath><clipPath id="9e1c106629"><path d="M 0.601562 0.679688 L 60 0.679688 L 60 41.238281 L 0.601562 41.238281 Z M 0.601562 0.679688 " clip-rule="nonzero"/></clipPath><clipPath id="9267e8c4f2"><path d="M 59.902344 23.851562 L 8.59375 41.234375 L 0.796875 18.226562 L 52.105469 0.84375 Z M 59.902344 23.851562 " clip-rule="nonzero"/></clipPath><clipPath id="5bcce64838"><rect x="0" width="60" y="0" height="42"/></clipPath></defs><rect x="-75" width="900" fill="#ffffff" y="-74.999999" height="899.999994" fill-opacity="1"/><rect x="-75" width="900" fill="#ffffff" y="-74.999999" height="899.999994" fill-opacity="1"/><g fill="#000000" fill-opacity="1"><g transform="translate(269.988274, 721.346937)"><g><path d="M 9.359375 0 L 9.359375 -17.265625 L 28.296875 -17.265625 L 28.296875 -68 L 11.875 -68 L 11.875 -81.1875 C 16.664062 -82.0625 20.757812 -83.140625 24.15625 -84.421875 C 27.5625 -85.703125 30.820312 -87.300781 33.9375 -89.21875 L 49.640625 -89.21875 L 49.640625 -17.265625 L 65.71875 -17.265625 L 65.71875 0 Z M 9.359375 0 "/></g></g></g><g fill="#000000" fill-opacity="1"><g transform="translate(343.018331, 721.346937)"><g><path d="M 33.453125 1.671875 C 26.421875 1.671875 20.382812 0.535156 15.34375 -1.734375 C 10.3125 -4.015625 6.15625 -7.035156 2.875 -10.796875 L 12.71875 -24.21875 C 15.4375 -21.664062 18.351562 -19.585938 21.46875 -17.984375 C 24.582031 -16.390625 27.859375 -15.59375 31.296875 -15.59375 C 35.453125 -15.59375 38.769531 -16.453125 41.25 -18.171875 C 43.726562 -19.890625 44.96875 -22.425781 44.96875 -25.78125 C 44.96875 -28.34375 44.367188 -30.539062 43.171875 -32.375 C 41.972656 -34.21875 39.734375 -35.617188 36.453125 -36.578125 C 33.179688 -37.535156 28.425781 -38.015625 22.1875 -38.015625 L 22.1875 -53 C 29.78125 -53 35.015625 -54.078125 37.890625 -56.234375 C 40.773438 -58.398438 42.21875 -61.242188 42.21875 -64.765625 C 42.21875 -71.078125 38.816406 -74.234375 32.015625 -74.234375 C 29.054688 -74.234375 26.335938 -73.570312 23.859375 -72.25 C 21.378906 -70.9375 18.78125 -69.117188 16.0625 -66.796875 L 5.28125 -79.875 C 9.4375 -83.382812 13.769531 -86.097656 18.28125 -88.015625 C 22.800781 -89.941406 27.703125 -90.90625 32.984375 -90.90625 C 42.253906 -90.90625 49.664062 -88.804688 55.21875 -84.609375 C 60.78125 -80.410156 63.5625 -74.3125 63.5625 -66.3125 C 63.5625 -61.914062 62.359375 -58.019531 59.953125 -54.625 C 57.554688 -51.226562 53.960938 -48.570312 49.171875 -46.65625 L 49.171875 -46.046875 C 54.128906 -44.523438 58.242188 -41.96875 61.515625 -38.375 C 64.796875 -34.78125 66.4375 -30.101562 66.4375 -24.34375 C 66.4375 -18.820312 64.914062 -14.125 61.875 -10.25 C 58.84375 -6.375 54.828125 -3.414062 49.828125 -1.375 C 44.828125 0.65625 39.367188 1.671875 33.453125 1.671875 Z M 33.453125 1.671875 "/></g></g></g><g fill="#000000" fill-opacity="1"><g transform="translate(416.048387, 721.346937)"><g><path d="M 31.78125 -72.3125 L 31.78125 -48.328125 L 41.375 -48.328125 C 51.769531 -48.328125 56.96875 -52.601562 56.96875 -61.15625 C 56.96875 -65.394531 55.644531 -68.3125 53 -69.90625 C 50.363281 -71.507812 46.488281 -72.3125 41.375 -72.3125 Z M 82.5 0 L 58.515625 0 L 42.09375 -31.421875 L 31.78125 -31.421875 L 31.78125 0 L 10.3125 0 L 10.3125 -89.21875 L 43.046875 -89.21875 C 49.441406 -89.21875 55.273438 -88.378906 60.546875 -86.703125 C 65.828125 -85.023438 70.046875 -82.144531 73.203125 -78.0625 C 76.367188 -73.988281 77.953125 -68.351562 77.953125 -61.15625 C 77.953125 -54.601562 76.550781 -49.207031 73.75 -44.96875 C 70.957031 -40.726562 67.238281 -37.53125 62.59375 -35.375 Z M 82.5 0 "/></g></g></g><g clip-path="url(#cd3bc9fdd6)"><g clip-path="url(#687a8adeb3)"><g transform="matrix(1, 0, 0, 1, 136, 75)"><g clip-path="url(#c6600d6d8f)"><g clip-path="url(#97afc206be)"><g clip-path="url(#e4d827b273)"><path fill="#000000" d="M 0.613281 0 L 514.863281 0 L 514.863281 514.25 L 0.613281 514.25 Z M 0.613281 0 " fill-opacity="1" fill-rule="nonzero"/></g></g></g></g></g></g><g clip-path="url(#bbd7b5f306)"><g clip-path="url(#2a55657466)"><g transform="matrix(1, 0, 0, 1, 162, 102)"><g clip-path="url(#b569d494bb)"><g clip-path="url(#8804eae9ea)"><g clip-path="url(#ae6e222a4f)"><path fill="#d9d9d9" d="M 0.503906 0.425781 L 461.4375 0.425781 L 461.4375 461.355469 L 0.503906 461.355469 Z M 0.503906 0.425781 " fill-opacity="1" fill-rule="nonzero"/></g></g></g></g></g></g><g clip-path="url(#0ca39f3a6f)"><g clip-path="url(#52d24e3463)"><g transform="matrix(1, 0, 0, 1, 200, 140)"><g clip-path="url(#6cac2ab1e4)"><g clip-path="url(#fb0b2130e5)"><g clip-path="url(#f87d1833e0)"><path fill="#000000" d="M 0.886719 0.808594 L 385.054688 0.808594 L 385.054688 384.976562 L 0.886719 384.976562 Z M 0.886719 0.808594 " fill-opacity="1" fill-rule="nonzero"/></g></g></g></g></g></g><g clip-path="url(#409eefa478)"><g clip-path="url(#7d30cfe6fb)"><g transform="matrix(1, 0, 0, 1, 229, 169)"><g clip-path="url(#06bf36d233)"><g clip-path="url(#b2aee9d3fd)"><g clip-path="url(#50ec08bca0)"><path fill="#d9d9d9" d="M 0.132812 0.0507812 L 327.808594 0.0507812 L 327.808594 327.730469 L 0.132812 327.730469 Z M 0.132812 0.0507812 " fill-opacity="1" fill-rule="nonzero"/></g></g></g></g></g></g><g clip-path="url(#9f14b9d29d)"><g clip-path="url(#8d80b36d91)"><g transform="matrix(1, 0, 0, 1, 266, 206)"><g clip-path="url(#9bd6eefa24)"><g clip-path="url(#2851e40c79)"><g clip-path="url(#b1226b4bd5)"><path fill="#000000" d="M 0.550781 0.46875 L 253.394531 0.46875 L 253.394531 253.3125 L 0.550781 253.3125 Z M 0.550781 0.46875 " fill-opacity="1" fill-rule="nonzero"/></g></g></g></g></g></g><g clip-path="url(#a858b55336)"><g clip-path="url(#224b42dbb4)"><g transform="matrix(1, 0, 0, 1, 294, 234)"><g clip-path="url(#0b7a60b72a)"><g clip-path="url(#f35f8faa68)"><g clip-path="url(#e5cab9d841)"><path fill="#d9d9d9" d="M 0.15625 0.078125 L 197.785156 0.078125 L 197.785156 197.707031 L 0.15625 197.707031 Z M 0.15625 0.078125 " fill-opacity="1" fill-rule="nonzero"/></g></g></g></g></g></g><g clip-path="url(#2f10226601)"><g clip-path="url(#5c677a1129)"><g transform="matrix(1, 0, 0, 1, 257, 214)"><g clip-path="url(#949a2758db)"><g clip-path="url(#5ce43090a4)"><g clip-path="url(#683efa5d36)"><path fill="#000000" d="M 17.976562 0.328125 L 58.105469 36.6875 L 40.640625 55.960938 L 0.511719 19.601562 Z M 17.976562 0.328125 " fill-opacity="1" fill-rule="nonzero"/></g></g></g></g></g></g><g clip-path="url(#e2ac6e0b03)"><g clip-path="url(#067894834b)"><g transform="matrix(1, 0, 0, 1, 364, 102)"><g clip-path="url(#6833f961b7)"><g clip-path="url(#bce00575b7)"><g clip-path="url(#e4b8422e68)"><path fill="#000000" d="M 26.882812 0.429688 L 28.96875 54.597656 L 2.65625 55.609375 L 0.566406 1.441406 Z M 26.882812 0.429688 " fill-opacity="1" fill-rule="nonzero"/></g></g></g></g></g></g><g clip-path="url(#e7c079dc95)"><g clip-path="url(#22cad68e34)"><g transform="matrix(1, 0, 0, 1, 508, 332)"><g clip-path="url(#daa60f53f8)"><g clip-path="url(#f7851020ab)"><g clip-path="url(#c37bb6fb6a)"><path fill="#000000" d="M 4.128906 0.890625 L 57.65625 9.101562 L 53.710938 34.808594 L 0.183594 26.601562 Z M 4.128906 0.890625 " fill-opacity="1" fill-rule="nonzero"/></g></g></g></g></g></g><g clip-path="url(#1606f87a54)"><g clip-path="url(#48e4423777)"><g transform="matrix(1, 0, 0, 1, 467, 488)"><g clip-path="url(#8ac33b37fb)"><g clip-path="url(#f24706702f)"><g clip-path="url(#8712b9223e)"><path fill="#000000" d="M 21.109375 0.171875 L 51.207031 45.222656 L 31.007812 58.71875 L 0.910156 13.667969 Z M 21.109375 0.171875 " fill-opacity="1" fill-rule="nonzero"/></g></g></g></g></g></g><g clip-path="url(#6d729d2dc0)"><g clip-path="url(#2e190324f0)"><g transform="matrix(1, 0, 0, 1, 210, 440)"><g clip-path="url(#48994be5b2)"><g clip-path="url(#849119b06d)"><g clip-path="url(#be00a7ae2f)"><path fill="#000000" d="M 57.046875 18.691406 L 16.28125 54.382812 L 0.277344 36.105469 L 41.042969 0.414062 Z M 57.046875 18.691406 " fill-opacity="1" fill-rule="nonzero"/></g></g></g></g></g></g><g clip-path="url(#d2b8124c48)"><g clip-path="url(#29dba7f678)"><g transform="matrix(1, 0, 0, 1, 527, 248)"><g clip-path="url(#9e6f7237a3)"><g clip-path="url(#f591c05cf1)"><g clip-path="url(#5027c3b2a5)"><path fill="#d9d9d9" d="M 0.996094 21.5625 L 50.738281 0.078125 L 60.367188 22.378906 L 10.625 43.863281 Z M 0.996094 21.5625 " fill-opacity="1" fill-rule="nonzero"/></g></g></g></g></g></g><g clip-path="url(#bc3c534291)"><g clip-path="url(#6980597a25)"><g transform="matrix(1, 0, 0, 1, 136, 296)"><g clip-path="url(#c9fcf470af)"><g clip-path="url(#2e72c604ac)"><g clip-path="url(#3ff27506ad)"><path fill="#d9d9d9" d="M 53.21875 32.78125 L 0.601562 24.4375 L 4.339844 0.847656 L 56.957031 9.191406 Z M 53.21875 32.78125 " fill-opacity="1" fill-rule="nonzero"/></g></g></g></g></g></g><g clip-path="url(#f11b70200b)"><g clip-path="url(#a31db70e8a)"><g transform="matrix(1, 0, 0, 1, 291, 140)"><g clip-path="url(#3cc957c490)"><g clip-path="url(#5d7e088cec)"><g clip-path="url(#e6931031d6)"><path fill="#d9d9d9" d="M 26.730469 59.539062 L 0.304688 12.238281 L 21.511719 0.390625 L 47.9375 47.691406 Z M 26.730469 59.539062 " fill-opacity="1" fill-rule="nonzero"/></g></g></g></g></g></g><g clip-path="url(#0e3cc7614c)"><g clip-path="url(#44d02287e0)"><g transform="matrix(1, 0, 0, 1, 498, 418)"><g clip-path="url(#d162e92495)"><g clip-path="url(#760a9306ed)"><g clip-path="url(#62e48006f6)"><path fill="#d9d9d9" d="M 13.996094 0.519531 L 58.335938 31.664062 L 44.371094 51.542969 L 0.0351562 20.398438 Z M 13.996094 0.519531 " fill-opacity="1" fill-rule="nonzero"/></g></g></g></g></g></g><g clip-path="url(#39641a4252)"><g clip-path="url(#370851cef7)"><g transform="matrix(1, 0, 0, 1, 338, 468)"><g clip-path="url(#4ffc03a00e)"><g clip-path="url(#06f1bf963c)"><g clip-path="url(#6819ffc286)"><path fill="#d9d9d9" d="M 0.941406 52.527344 L 15.699219 0.394531 L 39.074219 7.011719 L 24.3125 59.144531 Z M 0.941406 52.527344 " fill-opacity="1" fill-rule="nonzero"/></g></g></g></g></g></g><g clip-path="url(#693abd1067)"><g clip-path="url(#fe8b9be67a)"><g transform="matrix(1, 0, 0, 1, 324, 264)"><g clip-path="url(#7b9d45824a)"><g clip-path="url(#cd127114e2)"><g clip-path="url(#8bb9832e0d)"><path fill="#000000" d="M 0.242188 0.160156 L 137.699219 0.160156 L 137.699219 137.621094 L 0.242188 137.621094 Z M 0.242188 0.160156 " fill-opacity="1" fill-rule="nonzero"/></g></g></g></g></g></g><g clip-path="url(#fd604d52ea)"><g clip-path="url(#f221b6ad16)"><g transform="matrix(1, 0, 0, 1, 348, 288)"><g clip-path="url(#53052ad21d)"><g clip-path="url(#9ef596232a)"><g clip-path="url(#1eecb31a71)"><path fill="#d9d9d9" d="M 0.695312 0.617188 L 89.246094 0.617188 L 89.246094 89.167969 L 0.695312 89.167969 Z M 0.695312 0.617188 " fill-opacity="1" fill-rule="nonzero"/></g></g></g></g></g></g><g clip-path="url(#e64b7ccbb7)"><g clip-path="url(#c596c0336b)"><g transform="matrix(1, 0, 0, 1, 377, 283)"><g clip-path="url(#1bc6e3cace)"><g clip-path="url(#a87ec5a492)"><g clip-path="url(#ff13c63ccf)"><path fill="#000000" d="M 54.929688 17.738281 L 19.914062 59.046875 L 0.0742188 42.226562 L 35.089844 0.917969 Z M 54.929688 17.738281 " fill-opacity="1" fill-rule="nonzero"/></g></g></g></g></g></g><g clip-path="url(#3bad2d8cb3)"><g clip-path="url(#ef963634e8)"><g transform="matrix(1, 0, 0, 1, 390, 353)"><g clip-path="url(#f2ee5c07ea)"><g clip-path="url(#39585d3f5e)"><g clip-path="url(#bc2f75321a)"><path fill="#d9d9d9" d="M 19.886719 59.140625 L 0.90625 9.363281 L 23.226562 0.851562 L 42.207031 50.632812 Z M 19.886719 59.140625 " fill-opacity="1" fill-rule="nonzero"/></g></g></g></g></g></g><g clip-path="url(#0d914a2696)"><g clip-path="url(#8c38a5d1a1)"><g transform="matrix(1, 0, 0, 1, 249, 349)"><g clip-path="url(#5bcce64838)"><g clip-path="url(#9e1c106629)"><g clip-path="url(#9267e8c4f2)"><path fill="#d9d9d9" d="M 59.902344 23.851562 L 8.582031 41.238281 L 0.789062 18.230469 L 52.105469 0.84375 Z M 59.902344 23.851562 " fill-opacity="1" fill-rule="nonzero"/></g></g></g></g></g></g></svg>