<svg xmlns="http://www.w3.org/2000/svg" xmlns:xlink="http://www.w3.org/1999/xlink" width="1000" zoomAndPan="magnify" viewBox="0 0 750 749.999995" height="1000" preserveAspectRatio="xMidYMid meet" version="1.0"><defs><g/><clipPath id="28e09597f0"><path d="M 184 124 L 351 124 L 351 211 L 184 211 Z M 184 124 " clip-rule="nonzero"/></clipPath><clipPath id="7d9afc116e"><path d="M 350.480469 174.683594 L 184.800781 210.953125 L 171.925781 152.125 L 337.601562 115.859375 Z M 350.480469 174.683594 " clip-rule="nonzero"/></clipPath><clipPath id="6968037e4c"><path d="M 296.199219 124.921875 L 213.390625 143.050781 L 184.863281 210.9375 L 350.480469 174.683594 Z M 296.199219 124.921875 " clip-rule="nonzero"/></clipPath><clipPath id="6bae43bf59"><path d="M 0.800781 0.800781 L 166.640625 0.800781 L 166.640625 86.960938 L 0.800781 86.960938 Z M 0.800781 0.800781 " clip-rule="nonzero"/></clipPath><clipPath id="d3ff416980"><path d="M 166.480469 50.683594 L 0.800781 86.953125 L -12.074219 28.125 L 153.601562 -8.140625 Z M 166.480469 50.683594 " clip-rule="nonzero"/></clipPath><clipPath id="6556b8409e"><path d="M 112.199219 0.921875 L 29.390625 19.050781 L 0.863281 86.9375 L 166.480469 50.683594 Z M 112.199219 0.921875 " clip-rule="nonzero"/></clipPath><clipPath id="da6c637b53"><rect x="0" width="167" y="0" height="87"/></clipPath><clipPath id="8ba8512d1f"><path d="M 184 124 L 351 124 L 351 211 L 184 211 Z M 184 124 " clip-rule="nonzero"/></clipPath><clipPath id="2c5809aa8a"><path d="M 350.480469 174.683594 L 184.902344 210.929688 L 172.070312 152.320312 L 337.648438 116.070312 Z M 350.480469 174.683594 " clip-rule="nonzero"/></clipPath><clipPath id="bacba2970f"><path d="M 350.46875 174.6875 L 184.875 210.9375 L 171.847656 151.425781 L 337.441406 115.175781 Z M 350.46875 174.6875 " clip-rule="nonzero"/></clipPath><clipPath id="21c6f17904"><path d="M 296.195312 124.929688 L 213.398438 143.054688 L 184.875 210.9375 L 350.46875 174.6875 Z M 296.195312 124.929688 " clip-rule="nonzero"/></clipPath><clipPath id="d0d8bfc657"><path d="M 129 170 L 188 170 L 188 212 L 129 212 Z M 129 170 " clip-rule="nonzero"/></clipPath><clipPath id="dbace02d54"><path d="M 129.632812 182.039062 L 180.703125 170.859375 L 187.242188 200.734375 L 136.171875 211.914062 Z M 129.632812 182.039062 " clip-rule="nonzero"/></clipPath><clipPath id="4dad6e317e"><path d="M 0.601562 0.640625 L 58.441406 0.640625 L 58.441406 41.921875 L 0.601562 41.921875 Z M 0.601562 0.640625 " clip-rule="nonzero"/></clipPath><clipPath id="07566b47ae"><path d="M 0.632812 12.039062 L 51.703125 0.859375 L 58.242188 30.734375 L 7.171875 41.914062 Z M 0.632812 12.039062 " clip-rule="nonzero"/></clipPath><clipPath id="89c5cbbb55"><rect x="0" width="59" y="0" height="42"/></clipPath><clipPath id="7cd618c40e"><path d="M 129 170 L 188 170 L 188 212 L 129 212 Z M 129 170 " clip-rule="nonzero"/></clipPath><clipPath id="e17f8e25b2"><path d="M 129.632812 182.039062 L 180.917969 170.8125 L 187.496094 200.851562 L 136.210938 212.078125 Z M 129.632812 182.039062 " clip-rule="nonzero"/></clipPath><clipPath id="60aa2950fe"><path d="M 129.632812 182.039062 L 180.691406 170.863281 L 187.230469 200.730469 L 136.171875 211.90625 Z M 129.632812 182.039062 " clip-rule="nonzero"/></clipPath><clipPath id="085e16f86f"><path d="M 118 148 L 458 148 L 458 424 L 118 424 Z M 118 148 " clip-rule="nonzero"/></clipPath><clipPath id="5792894d22"><path d="M 111.640625 208.804688 L 416.601562 142.046875 L 465.015625 363.207031 L 160.054688 429.96875 Z M 111.640625 208.804688 " clip-rule="nonzero"/></clipPath><clipPath id="8dd6caa8e1"><path d="M 145.984375 201.289062 L 381.777344 149.671875 C 390.886719 147.675781 400.414062 149.382812 408.261719 154.414062 C 416.113281 159.445312 421.644531 167.386719 423.636719 176.496094 L 457.015625 328.972656 C 459.007812 338.078125 457.304688 347.605469 452.273438 355.457031 C 447.242188 363.308594 439.300781 368.839844 430.191406 370.832031 L 194.398438 422.449219 C 185.289062 424.441406 175.761719 422.738281 167.910156 417.707031 C 160.058594 412.675781 154.53125 404.734375 152.535156 395.625 L 119.15625 243.148438 C 117.164062 234.039062 118.871094 224.511719 123.902344 216.664062 C 128.929688 208.8125 136.875 203.28125 145.984375 201.289062 Z M 145.984375 201.289062 " clip-rule="nonzero"/></clipPath><clipPath id="31845b60cf"><path d="M 0 0 L 340 0 L 340 276 L 0 276 Z M 0 0 " clip-rule="nonzero"/></clipPath><clipPath id="ca93c7650e"><path d="M -6.359375 60.804688 L 298.601562 -5.953125 L 347.015625 215.207031 L 42.054688 281.96875 Z M -6.359375 60.804688 " clip-rule="nonzero"/></clipPath><clipPath id="189f4c5df1"><path d="M 27.984375 53.289062 L 263.777344 1.671875 C 272.886719 -0.324219 282.414062 1.382812 290.261719 6.414062 C 298.113281 11.445312 303.644531 19.386719 305.636719 28.496094 L 339.015625 180.972656 C 341.007812 190.078125 339.304688 199.605469 334.273438 207.457031 C 329.242188 215.308594 321.300781 220.839844 312.191406 222.832031 L 76.398438 274.449219 C 67.289062 276.441406 57.761719 274.738281 49.910156 269.707031 C 42.058594 264.675781 36.53125 256.734375 34.535156 247.625 L 1.15625 95.148438 C -0.835938 86.039062 0.871094 76.511719 5.902344 68.664062 C 10.929688 60.8125 18.875 55.28125 27.984375 53.289062 Z M 27.984375 53.289062 " clip-rule="nonzero"/></clipPath><clipPath id="85992a0f98"><rect x="0" width="340" y="0" height="276"/></clipPath><clipPath id="a87d01f7e9"><path d="M 118 148 L 458 148 L 458 424 L 118 424 Z M 118 148 " clip-rule="nonzero"/></clipPath><clipPath id="6d68940b43"><path d="M 111.640625 208.804688 L 416.421875 142.085938 L 464.859375 363.347656 L 160.074219 430.066406 Z M 111.640625 208.804688 " clip-rule="nonzero"/></clipPath><clipPath id="10febec793"><path d="M 111.640625 208.804688 L 416.988281 141.964844 L 465.703125 364.503906 L 160.355469 431.347656 Z M 111.640625 208.804688 " clip-rule="nonzero"/></clipPath><clipPath id="1158f684a1"><path d="M 145.980469 201.289062 L 381.769531 149.671875 C 390.878906 147.679688 400.40625 149.382812 408.257812 154.414062 C 416.105469 159.445312 421.636719 167.390625 423.632812 176.496094 L 457.007812 328.96875 C 459.003906 338.078125 457.296875 347.605469 452.265625 355.453125 C 447.234375 363.304688 439.292969 368.835938 430.183594 370.828125 L 194.394531 422.445312 C 185.285156 424.4375 175.761719 422.734375 167.910156 417.703125 C 160.058594 412.671875 154.527344 404.730469 152.535156 395.621094 L 119.15625 243.148438 C 117.164062 234.039062 118.871094 224.511719 123.902344 216.664062 C 128.929688 208.8125 136.875 203.28125 145.980469 201.289062 Z M 145.980469 201.289062 " clip-rule="nonzero"/></clipPath><clipPath id="b561264c65"><path d="M 129 197 L 453 197 L 453 403 L 129 403 Z M 129 197 " clip-rule="nonzero"/></clipPath><clipPath id="8ee69fcf0b"><path d="M 129.707031 261.140625 L 421.570312 197.25 L 452.53125 338.691406 L 160.671875 402.582031 Z M 129.707031 261.140625 " clip-rule="nonzero"/></clipPath><clipPath id="cd556a7ceb"><path d="M 0.601562 0.0390625 L 323.640625 0.0390625 L 323.640625 205.71875 L 0.601562 205.71875 Z M 0.601562 0.0390625 " clip-rule="nonzero"/></clipPath><clipPath id="44a0e5cd3f"><path d="M 0.707031 64.140625 L 292.570312 0.25 L 323.53125 141.691406 L 31.671875 205.582031 Z M 0.707031 64.140625 " clip-rule="nonzero"/></clipPath><clipPath id="135eaa6132"><rect x="0" width="324" y="0" height="206"/></clipPath><clipPath id="887177fe88"><path d="M 222 227 L 358 227 L 358 364 L 222 364 Z M 222 227 " clip-rule="nonzero"/></clipPath><clipPath id="6021a8bbcf"><path d="M 209.386719 243.695312 L 341.890625 214.691406 L 370.894531 347.191406 L 238.394531 376.199219 Z M 209.386719 243.695312 " clip-rule="nonzero"/></clipPath><clipPath id="a1eba329b4"><path d="M 275.636719 229.195312 C 239.050781 237.203125 215.882812 273.359375 223.890625 309.949219 C 231.898438 346.539062 268.054688 369.707031 304.644531 361.695312 C 341.234375 353.6875 364.402344 317.53125 356.390625 280.941406 C 348.382812 244.351562 312.226562 221.183594 275.636719 229.195312 Z M 275.636719 229.195312 " clip-rule="nonzero"/></clipPath><clipPath id="d570c83f6d"><path d="M 0 0 L 136 0 L 136 137 L 0 137 Z M 0 0 " clip-rule="nonzero"/></clipPath><clipPath id="a7efdf0014"><path d="M -12.613281 16.695312 L 119.890625 -12.308594 L 148.894531 120.191406 L 16.394531 149.199219 Z M -12.613281 16.695312 " clip-rule="nonzero"/></clipPath><clipPath id="84122d46bc"><path d="M 53.636719 2.195312 C 17.050781 10.203125 -6.117188 46.359375 1.890625 82.949219 C 9.898438 119.539062 46.054688 142.707031 82.644531 134.695312 C 119.234375 126.6875 142.402344 90.53125 134.390625 53.941406 C 126.382812 17.351562 90.226562 -5.816406 53.636719 2.195312 Z M 53.636719 2.195312 " clip-rule="nonzero"/></clipPath><clipPath id="c6024edb64"><rect x="0" width="136" y="0" height="137"/></clipPath><clipPath id="c26219b993"><path d="M 222 227 L 358 227 L 358 364 L 222 364 Z M 222 227 " clip-rule="nonzero"/></clipPath><clipPath id="8935c3b327"><path d="M 209.386719 243.695312 L 341.996094 214.667969 L 371.027344 347.277344 L 238.417969 376.308594 Z M 209.386719 243.695312 " clip-rule="nonzero"/></clipPath><clipPath id="8218bf951a"><path d="M 209.386719 243.695312 L 341.882812 214.691406 L 370.886719 347.1875 L 238.390625 376.191406 Z M 209.386719 243.695312 " clip-rule="nonzero"/></clipPath><clipPath id="f8fb6467af"><path d="M 275.636719 229.195312 C 239.046875 237.203125 215.878906 273.355469 223.890625 309.945312 C 231.898438 346.53125 268.050781 369.699219 304.640625 361.691406 C 341.226562 353.679688 364.394531 317.527344 356.386719 280.941406 C 348.375 244.351562 312.222656 221.183594 275.636719 229.195312 Z M 275.636719 229.195312 " clip-rule="nonzero"/></clipPath><clipPath id="fc1a4cbf72"><path d="M 242 248 L 338 248 L 338 343 L 242 343 Z M 242 248 " clip-rule="nonzero"/></clipPath><clipPath id="96ad9d8179"><path d="M 233.796875 259.339844 L 326.25 239.101562 L 346.488281 331.554688 L 254.035156 351.792969 Z M 233.796875 259.339844 " clip-rule="nonzero"/></clipPath><clipPath id="5f5be9bdb0"><path d="M 280.023438 249.21875 C 254.492188 254.808594 238.324219 280.035156 243.914062 305.566406 C 249.503906 331.09375 274.730469 347.261719 300.261719 341.671875 C 325.789062 336.082031 341.957031 310.855469 336.367188 285.328125 C 330.777344 259.796875 305.550781 243.628906 280.023438 249.21875 Z M 280.023438 249.21875 " clip-rule="nonzero"/></clipPath><clipPath id="2ba9aecc73"><path d="M 0 0 L 96 0 L 96 95 L 0 95 Z M 0 0 " clip-rule="nonzero"/></clipPath><clipPath id="7c7ca2382a"><path d="M -8.203125 11.339844 L 84.25 -8.898438 L 104.488281 83.554688 L 12.035156 103.792969 Z M -8.203125 11.339844 " clip-rule="nonzero"/></clipPath><clipPath id="4a8f68054b"><path d="M 38.023438 1.21875 C 12.492188 6.808594 -3.675781 32.035156 1.914062 57.566406 C 7.503906 83.09375 32.730469 99.261719 58.261719 93.671875 C 83.789062 88.082031 99.957031 62.855469 94.367188 37.328125 C 88.777344 11.796875 63.550781 -4.371094 38.023438 1.21875 Z M 38.023438 1.21875 " clip-rule="nonzero"/></clipPath><clipPath id="93afc6b738"><rect x="0" width="96" y="0" height="95"/></clipPath><clipPath id="3119702979"><path d="M 242 248 L 338 248 L 338 343 L 242 343 Z M 242 248 " clip-rule="nonzero"/></clipPath><clipPath id="3e6537bf53"><path d="M 233.796875 259.339844 L 326.109375 239.128906 L 346.316406 331.445312 L 254.003906 351.652344 Z M 233.796875 259.339844 " clip-rule="nonzero"/></clipPath><clipPath id="23e0e4923b"><path d="M 233.796875 259.339844 L 326.246094 239.101562 L 346.484375 331.550781 L 254.035156 351.789062 Z M 233.796875 259.339844 " clip-rule="nonzero"/></clipPath><clipPath id="bddee2fd6c"><path d="M 280.019531 249.21875 C 254.492188 254.808594 238.324219 280.035156 243.914062 305.5625 C 249.503906 331.09375 274.730469 347.257812 300.257812 341.671875 C 325.789062 336.082031 341.953125 310.855469 336.367188 285.324219 C 330.777344 259.796875 305.550781 243.628906 280.019531 249.21875 Z M 280.019531 249.21875 " clip-rule="nonzero"/></clipPath><clipPath id="8ca1f9b64a"><path d="M 363 169 L 393 169 L 393 199 L 363 199 Z M 363 169 " clip-rule="nonzero"/></clipPath><clipPath id="fcfddbbe86"><path d="M 360.308594 172.539062 L 388.664062 166.332031 L 394.871094 194.683594 L 366.515625 200.890625 Z M 360.308594 172.539062 " clip-rule="nonzero"/></clipPath><clipPath id="847050c23f"><path d="M 374.488281 169.4375 C 366.65625 171.148438 361.699219 178.886719 363.414062 186.714844 C 365.128906 194.546875 372.863281 199.503906 380.695312 197.789062 C 388.523438 196.074219 393.480469 188.339844 391.765625 180.507812 C 390.050781 172.679688 382.316406 167.722656 374.488281 169.4375 Z M 374.488281 169.4375 " clip-rule="nonzero"/></clipPath><clipPath id="f2c8b20561"><path d="M 0 0 L 30 0 L 30 30 L 0 30 Z M 0 0 " clip-rule="nonzero"/></clipPath><clipPath id="70d839461c"><path d="M -2.691406 3.539062 L 25.664062 -2.667969 L 31.871094 25.683594 L 3.515625 31.890625 Z M -2.691406 3.539062 " clip-rule="nonzero"/></clipPath><clipPath id="74f07f409b"><path d="M 11.488281 0.4375 C 3.65625 2.148438 -1.300781 9.886719 0.414062 17.714844 C 2.128906 25.546875 9.863281 30.503906 17.695312 28.789062 C 25.523438 27.074219 30.480469 19.339844 28.765625 11.507812 C 27.050781 3.679688 19.316406 -1.277344 11.488281 0.4375 Z M 11.488281 0.4375 " clip-rule="nonzero"/></clipPath><clipPath id="5c19bd3396"><rect x="0" width="30" y="0" height="30"/></clipPath><clipPath id="664a568e86"><path d="M 363 169 L 393 169 L 393 199 L 363 199 Z M 363 169 " clip-rule="nonzero"/></clipPath><clipPath id="7317757c2e"><path d="M 360.308594 172.539062 L 388.882812 166.285156 L 395.136719 194.859375 L 366.566406 201.113281 Z M 360.308594 172.539062 " clip-rule="nonzero"/></clipPath><clipPath id="a512d80cd2"><path d="M 360.308594 172.539062 L 388.65625 166.335938 L 394.859375 194.679688 L 366.515625 200.882812 Z M 360.308594 172.539062 " clip-rule="nonzero"/></clipPath><clipPath id="6e2825d13d"><path d="M 374.484375 169.4375 C 366.65625 171.148438 361.699219 178.882812 363.414062 186.710938 C 365.125 194.539062 372.859375 199.496094 380.6875 197.78125 C 388.515625 196.066406 393.46875 188.332031 391.757812 180.507812 C 390.042969 172.679688 382.308594 167.722656 374.484375 169.4375 Z M 374.484375 169.4375 " clip-rule="nonzero"/></clipPath><clipPath id="e96baf0e84"><path d="M 457 251 L 589 251 L 589 473 L 457 473 Z M 457 251 " clip-rule="nonzero"/></clipPath><clipPath id="097f0bb9ab"><path d="M 555.050781 486.007812 L 426.519531 459.445312 L 472.070312 239.027344 L 600.605469 265.59375 Z M 555.050781 486.007812 " clip-rule="nonzero"/></clipPath><clipPath id="c32fb94580"><path d="M 458.820312 303.152344 C 466.128906 267.777344 500.828125 245.046875 536.324219 252.382812 C 571.816406 259.71875 594.664062 294.339844 587.351562 329.71875 C 580.042969 365.09375 490.785156 472.726562 490.785156 472.726562 C 490.785156 472.726562 451.507812 338.527344 458.820312 303.152344 Z M 458.820312 303.152344 " clip-rule="nonzero"/></clipPath><clipPath id="5793d882b4"><path d="M 0 0 L 132 0 L 132 221.800781 L 0 221.800781 Z M 0 0 " clip-rule="nonzero"/></clipPath><clipPath id="6f1c74bcda"><path d="M 98.050781 235.007812 L -30.480469 208.445312 L 15.070312 -11.972656 L 143.605469 14.59375 Z M 98.050781 235.007812 " clip-rule="nonzero"/></clipPath><clipPath id="8b0bd00a0f"><path d="M 1.820312 52.152344 C 9.128906 16.777344 43.828125 -5.953125 79.324219 1.382812 C 114.816406 8.71875 137.664062 43.339844 130.351562 78.71875 C 123.042969 114.09375 33.785156 221.726562 33.785156 221.726562 C 33.785156 221.726562 -5.492188 87.527344 1.820312 52.152344 Z M 1.820312 52.152344 " clip-rule="nonzero"/></clipPath><clipPath id="2fa2c89510"><rect x="0" width="132" y="0" height="222"/></clipPath><clipPath id="ceb571e90b"><path d="M 457 251 L 589 251 L 589 473 L 457 473 Z M 457 251 " clip-rule="nonzero"/></clipPath><clipPath id="97ed1d1aa5"><path d="M 555.050781 486.007812 L 426.519531 459.445312 L 472.054688 239.101562 L 600.589844 265.664062 Z M 555.050781 486.007812 " clip-rule="nonzero"/></clipPath><clipPath id="94ef4334bc"><path d="M 555.050781 486.007812 L 426.519531 459.445312 L 472.054688 239.101562 L 600.589844 265.664062 Z M 555.050781 486.007812 " clip-rule="nonzero"/></clipPath><clipPath id="421db7e211"><path d="M 458.820312 303.152344 C 466.128906 267.777344 500.828125 245.046875 536.324219 252.382812 C 571.816406 259.71875 594.664062 294.339844 587.351562 329.71875 C 580.042969 365.09375 490.785156 472.726562 490.785156 472.726562 C 490.785156 472.726562 451.507812 338.527344 458.820312 303.152344 Z M 458.820312 303.152344 " clip-rule="nonzero"/></clipPath><clipPath id="62ec81426f"><path d="M 420 375 L 538 375 L 538 573 L 420 573 Z M 420 375 " clip-rule="nonzero"/></clipPath><clipPath id="20fb2369a5"><path d="M 454.117188 362.554688 L 568.234375 388.636719 L 523.507812 584.332031 L 409.386719 558.25 Z M 454.117188 362.554688 " clip-rule="nonzero"/></clipPath><clipPath id="808b082ada"><path d="M 536.519531 527.398438 C 529.339844 558.808594 497.976562 578.429688 466.460938 571.226562 C 434.949219 564.023438 415.222656 532.722656 422.402344 501.316406 C 429.582031 469.90625 511.175781 375.59375 511.175781 375.59375 C 511.175781 375.59375 543.699219 495.992188 536.519531 527.398438 Z M 536.519531 527.398438 " clip-rule="nonzero"/></clipPath><clipPath id="b411cd4db6"><path d="M 0 0.359375 L 118 0.359375 L 118 198 L 0 198 Z M 0 0.359375 " clip-rule="nonzero"/></clipPath><clipPath id="3da3777c2f"><path d="M 34.117188 -12.445312 L 148.234375 13.636719 L 103.507812 209.332031 L -10.613281 183.25 Z M 34.117188 -12.445312 " clip-rule="nonzero"/></clipPath><clipPath id="80beb6a967"><path d="M 116.519531 152.398438 C 109.339844 183.808594 77.976562 203.429688 46.460938 196.226562 C 14.949219 189.023438 -4.777344 157.722656 2.402344 126.316406 C 9.582031 94.90625 91.175781 0.59375 91.175781 0.59375 C 91.175781 0.59375 123.699219 120.992188 116.519531 152.398438 Z M 116.519531 152.398438 " clip-rule="nonzero"/></clipPath><clipPath id="131ffd019e"><rect x="0" width="118" y="0" height="198"/></clipPath><clipPath id="d345db0499"><path d="M 420 375 L 538 375 L 538 573 L 420 573 Z M 420 375 " clip-rule="nonzero"/></clipPath><clipPath id="76c1355c73"><path d="M 454.117188 362.554688 L 568.175781 388.625 L 523.390625 584.570312 L 409.332031 558.5 Z M 454.117188 362.554688 " clip-rule="nonzero"/></clipPath><clipPath id="0a47a88f37"><path d="M 454.117188 362.554688 L 568.234375 388.636719 L 523.519531 584.261719 L 409.402344 558.179688 Z M 454.117188 362.554688 " clip-rule="nonzero"/></clipPath><clipPath id="f52140d329"><path d="M 536.519531 527.394531 C 529.339844 558.804688 497.972656 578.425781 466.460938 571.222656 C 434.949219 564.019531 415.222656 532.71875 422.402344 501.3125 C 429.582031 469.90625 511.175781 375.59375 511.175781 375.59375 C 511.175781 375.59375 543.695312 495.988281 536.519531 527.394531 Z M 536.519531 527.394531 " clip-rule="nonzero"/></clipPath><clipPath id="f98e9727fc"><path d="M 349 464 L 596 464 L 596 613 L 349 613 Z M 349 464 " clip-rule="nonzero"/></clipPath><clipPath id="fe41f7e4d3"><path d="M 346.488281 566.496094 L 371.78125 443.464844 L 610.632812 492.574219 L 585.335938 615.601562 Z M 346.488281 566.496094 " clip-rule="nonzero"/></clipPath><clipPath id="2f9caaa7cf"><path d="M 349.960938 549.597656 L 356.488281 517.867188 C 364.726562 477.785156 425.183594 454.445312 491.058594 467.988281 C 556.933594 481.535156 603.28125 526.832031 595.039062 566.914062 L 588.515625 598.644531 C 586.597656 607.976562 577.476562 613.988281 568.144531 612.066406 L 363.386719 569.96875 C 354.054688 568.050781 348.042969 558.929688 349.960938 549.597656 Z M 349.960938 549.597656 " clip-rule="nonzero"/></clipPath><clipPath id="53bc3758bf"><path d="M 0 0 L 247 0 L 247 149 L 0 149 Z M 0 0 " clip-rule="nonzero"/></clipPath><clipPath id="1d22df39db"><path d="M -2.511719 102.496094 L 22.78125 -20.535156 L 261.632812 28.574219 L 236.335938 151.601562 Z M -2.511719 102.496094 " clip-rule="nonzero"/></clipPath><clipPath id="dd291d3d58"><path d="M 0.960938 85.597656 L 7.488281 53.867188 C 15.726562 13.785156 76.183594 -9.554688 142.058594 3.988281 C 207.933594 17.535156 254.28125 62.832031 246.039062 102.914062 L 239.515625 134.644531 C 237.597656 143.976562 228.476562 149.988281 219.144531 148.066406 L 14.386719 105.96875 C 5.054688 104.050781 -0.957031 94.929688 0.960938 85.597656 Z M 0.960938 85.597656 " clip-rule="nonzero"/></clipPath><clipPath id="07199715ee"><rect x="0" width="247" y="0" height="149"/></clipPath><clipPath id="562bf222fe"><path d="M 349 464 L 596 464 L 596 613 L 349 613 Z M 349 464 " clip-rule="nonzero"/></clipPath><clipPath id="88c9f9bb3b"><path d="M 346.488281 566.496094 L 371.710938 443.8125 L 610.46875 492.898438 L 585.242188 615.582031 Z M 346.488281 566.496094 " clip-rule="nonzero"/></clipPath><clipPath id="1034169cc6"><path d="M 346.488281 566.496094 L 371.976562 442.527344 L 610.726562 491.613281 L 585.242188 615.582031 Z M 346.488281 566.496094 " clip-rule="nonzero"/></clipPath><clipPath id="0b09bd2f3e"><path d="M 349.960938 549.597656 L 356.488281 517.867188 C 364.726562 477.789062 425.183594 454.445312 491.058594 467.992188 C 556.929688 481.535156 603.277344 526.832031 595.035156 566.914062 L 588.511719 598.644531 C 586.59375 607.976562 577.472656 613.984375 568.140625 612.066406 L 363.382812 569.96875 C 354.054688 568.050781 348.042969 558.929688 349.960938 549.597656 Z M 349.960938 549.597656 " clip-rule="nonzero"/></clipPath><clipPath id="6ed55fd130"><path d="M 479 339 L 544 339 L 544 448 L 479 448 Z M 479 339 " clip-rule="nonzero"/></clipPath><clipPath id="ed4f91afb2"><path d="M 527.136719 453.519531 L 464.523438 440.578125 L 486.714844 333.207031 L 549.328125 346.148438 Z M 527.136719 453.519531 " clip-rule="nonzero"/></clipPath><clipPath id="1ac211d803"><path d="M 480.257812 364.445312 C 483.820312 347.210938 500.722656 336.136719 518.011719 339.710938 C 535.304688 343.285156 546.433594 360.152344 542.871094 377.382812 C 539.308594 394.617188 495.832031 447.046875 495.832031 447.046875 C 495.832031 447.046875 476.695312 381.675781 480.257812 364.445312 Z M 480.257812 364.445312 " clip-rule="nonzero"/></clipPath><clipPath id="0f25db3c05"><path d="M 0 0 L 65 0 L 65 108.121094 L 0 108.121094 Z M 0 0 " clip-rule="nonzero"/></clipPath><clipPath id="bc5e4f0c6c"><path d="M 48.136719 114.519531 L -14.476562 101.578125 L 7.714844 -5.792969 L 70.328125 7.148438 Z M 48.136719 114.519531 " clip-rule="nonzero"/></clipPath><clipPath id="f0c2a61b99"><path d="M 1.257812 25.445312 C 4.820312 8.210938 21.722656 -2.863281 39.011719 0.710938 C 56.304688 4.285156 67.433594 21.152344 63.871094 38.382812 C 60.308594 55.617188 16.832031 108.046875 16.832031 108.046875 C 16.832031 108.046875 -2.304688 42.675781 1.257812 25.445312 Z M 1.257812 25.445312 " clip-rule="nonzero"/></clipPath><clipPath id="dac99f0a95"><rect x="0" width="65" y="0" height="109"/></clipPath><clipPath id="5f808b9974"><path d="M 395 124 L 473 124 L 473 246 L 395 246 Z M 395 124 " clip-rule="nonzero"/></clipPath><clipPath id="b35e9c90a4"><path d="M 400.363281 120.769531 L 477.957031 127.523438 L 467.371094 249.105469 L 389.78125 242.351562 Z M 400.363281 120.769531 " clip-rule="nonzero"/></clipPath><clipPath id="de3108af49"><path d="M 440.84375 125.808594 L 444.921875 160.429688 C 445.582031 166.066406 448.828125 171.074219 453.699219 173.984375 L 470.492188 184.023438 C 471.929688 184.878906 472.75 186.484375 472.605469 188.152344 C 472.457031 189.816406 471.375 191.253906 469.8125 191.851562 L 451.535156 198.835938 C 446.234375 200.863281 442.175781 205.234375 440.546875 210.671875 L 430.550781 244.066406 C 430.296875 244.910156 429.484375 245.460938 428.605469 245.386719 C 427.726562 245.308594 427.019531 244.625 426.917969 243.75 L 422.84375 209.128906 C 422.179688 203.492188 418.9375 198.484375 414.066406 195.574219 L 397.269531 185.535156 C 395.832031 184.679688 395.015625 183.074219 395.160156 181.410156 C 395.304688 179.742188 396.386719 178.304688 397.953125 177.707031 L 416.226562 170.722656 C 421.527344 168.699219 425.589844 164.324219 427.214844 158.886719 L 437.210938 125.492188 C 437.464844 124.648438 438.277344 124.097656 439.15625 124.171875 C 440.039062 124.25 440.742188 124.933594 440.84375 125.808594 Z M 440.84375 125.808594 " clip-rule="nonzero"/></clipPath><clipPath id="5d4bcdacec"><path d="M 0 0.078125 L 77.800781 0.078125 L 77.800781 121.519531 L 0 121.519531 Z M 0 0.078125 " clip-rule="nonzero"/></clipPath><clipPath id="1f70b61e78"><path d="M 5.363281 -3.230469 L 82.957031 3.523438 L 72.371094 125.105469 L -5.21875 118.351562 Z M 5.363281 -3.230469 " clip-rule="nonzero"/></clipPath><clipPath id="0c20c88c2f"><path d="M 45.84375 1.808594 L 49.921875 36.429688 C 50.582031 42.066406 53.828125 47.074219 58.699219 49.984375 L 75.492188 60.023438 C 76.929688 60.878906 77.75 62.484375 77.605469 64.152344 C 77.457031 65.816406 76.375 67.253906 74.8125 67.851562 L 56.535156 74.835938 C 51.234375 76.863281 47.175781 81.234375 45.546875 86.671875 L 35.550781 120.066406 C 35.296875 120.910156 34.484375 121.460938 33.605469 121.386719 C 32.726562 121.308594 32.019531 120.625 31.917969 119.75 L 27.84375 85.128906 C 27.179688 79.492188 23.9375 74.484375 19.066406 71.574219 L 2.269531 61.535156 C 0.832031 60.679688 0.015625 59.074219 0.160156 57.410156 C 0.304688 55.742188 1.386719 54.304688 2.953125 53.707031 L 21.226562 46.722656 C 26.527344 44.699219 30.589844 40.324219 32.214844 34.886719 L 42.210938 1.492188 C 42.464844 0.648438 43.277344 0.0976562 44.15625 0.171875 C 45.039062 0.25 45.742188 0.933594 45.84375 1.808594 Z M 45.84375 1.808594 " clip-rule="nonzero"/></clipPath><clipPath id="090717b485"><rect x="0" width="78" y="0" height="122"/></clipPath></defs><rect x="-75" width="900" fill="#ffffff" y="-74.999999" height="899.999994" fill-opacity="1"/><rect x="-75" width="900" fill="#ffffff" y="-74.999999" height="899.999994" fill-opacity="1"/><g clip-path="url(#28e09597f0)"><g clip-path="url(#7d9afc116e)"><g clip-path="url(#6968037e4c)"><g transform="matrix(1, 0, 0, 1, 184, 124)"><g clip-path="url(#da6c637b53)"><g clip-path="url(#6bae43bf59)"><g clip-path="url(#d3ff416980)"><g clip-path="url(#6556b8409e)"><path fill="#ffffff" d="M 166.480469 50.683594 L 0.800781 86.953125 L -12.074219 28.125 L 153.601562 -8.140625 Z M 166.480469 50.683594 " fill-opacity="1" fill-rule="nonzero"/></g></g></g></g></g></g></g></g><g clip-path="url(#8ba8512d1f)"><g clip-path="url(#2c5809aa8a)"><g clip-path="url(#bacba2970f)"><g clip-path="url(#21c6f17904)"><path stroke-linecap="butt" transform="matrix(-0.732651, 0.160383, -0.160383, -0.732651, 350.470152, 174.686246)" fill="none" stroke-linejoin="miter" d="M 56.505592 80.282574 L 169.515619 80.282434 L 226.022239 -0.00151433 L 0.00218363 -0.00123373 Z M 56.505592 80.282574 " stroke="#000000" stroke-width="42" stroke-opacity="1" stroke-miterlimit="4"/></g></g></g></g><g clip-path="url(#d0d8bfc657)"><g clip-path="url(#dbace02d54)"><g transform="matrix(1, 0, 0, 1, 129, 170)"><g clip-path="url(#89c5cbbb55)"><g clip-path="url(#4dad6e317e)"><g clip-path="url(#07566b47ae)"><path fill="#ffffff" d="M 0.632812 12.039062 L 51.746094 0.851562 L 58.285156 30.722656 L 7.171875 41.914062 Z M 0.632812 12.039062 " fill-opacity="1" fill-rule="nonzero"/></g></g></g></g></g></g><g clip-path="url(#7cd618c40e)"><g clip-path="url(#e17f8e25b2)"><g clip-path="url(#60aa2950fe)"><path stroke-linecap="butt" transform="matrix(0.732651, -0.160383, 0.160383, 0.732651, 129.634376, 182.039822)" fill="none" stroke-linejoin="miter" d="M -0.00182046 -0.00143452 L 69.688008 0.000323067 L 69.689179 40.766502 L -0.000650103 40.764744 Z M -0.00182046 -0.00143452 " stroke="#000000" stroke-width="30" stroke-opacity="1" stroke-miterlimit="4"/></g></g></g><g clip-path="url(#085e16f86f)"><g clip-path="url(#5792894d22)"><g clip-path="url(#8dd6caa8e1)"><g transform="matrix(1, 0, 0, 1, 118, 148)"><g clip-path="url(#85992a0f98)"><g clip-path="url(#31845b60cf)"><g clip-path="url(#ca93c7650e)"><g clip-path="url(#189f4c5df1)"><path fill="#ffffff" d="M -6.359375 60.804688 L 297.738281 -5.761719 L 346.152344 215.398438 L 42.054688 281.96875 Z M -6.359375 60.804688 " fill-opacity="1" fill-rule="nonzero"/></g></g></g></g></g></g></g></g><g clip-path="url(#a87d01f7e9)"><g clip-path="url(#6d68940b43)"><g clip-path="url(#10febec793)"><g clip-path="url(#1158f684a1)"><path stroke-linecap="butt" transform="matrix(0.732651, -0.160383, 0.160383, 0.732651, 111.639943, 208.806339)" fill="none" stroke-linejoin="miter" d="M 46.871573 0.00017938 L 368.701939 -0.00123928 C 381.134836 0.00127065 393.058506 4.936063 401.850553 13.727899 C 410.637512 22.51862 415.576501 34.444414 415.580193 46.873337 L 415.576969 254.983572 C 415.579547 267.417582 410.639666 279.340138 401.848945 288.127097 C 393.057109 296.919144 381.136403 301.859247 368.703506 301.856737 L 46.873139 301.858156 C 34.440243 301.855646 22.521661 296.921967 13.729614 288.130132 C 4.937567 279.338296 -0.00253605 267.41759 -0.0000261165 254.984693 L -0.00188989 46.873345 C 0.000620048 34.440448 4.9405 22.517892 13.731222 13.730933 C 22.51797 4.937772 34.443763 -0.00121679 46.871573 0.00017938 Z M 46.871573 0.00017938 " stroke="#000000" stroke-width="44" stroke-opacity="1" stroke-miterlimit="4"/></g></g></g></g><g clip-path="url(#b561264c65)"><g clip-path="url(#8ee69fcf0b)"><g transform="matrix(1, 0, 0, 1, 129, 197)"><g clip-path="url(#135eaa6132)"><g clip-path="url(#cd556a7ceb)"><g clip-path="url(#44a0e5cd3f)"><path fill="#000000" d="M 0.707031 64.140625 L 292.433594 0.277344 L 323.394531 141.722656 L 31.671875 205.582031 Z M 0.707031 64.140625 " fill-opacity="1" fill-rule="nonzero"/></g></g></g></g></g></g><g clip-path="url(#887177fe88)"><g clip-path="url(#6021a8bbcf)"><g clip-path="url(#a1eba329b4)"><g transform="matrix(1, 0, 0, 1, 222, 227)"><g clip-path="url(#c6024edb64)"><g clip-path="url(#d570c83f6d)"><g clip-path="url(#a7efdf0014)"><g clip-path="url(#84122d46bc)"><path fill="#ffffff" d="M -12.613281 16.695312 L 119.890625 -12.308594 L 148.894531 120.191406 L 16.394531 149.199219 Z M -12.613281 16.695312 " fill-opacity="1" fill-rule="nonzero"/></g></g></g></g></g></g></g></g><g clip-path="url(#c26219b993)"><g clip-path="url(#8935c3b327)"><g clip-path="url(#8218bf951a)"><g clip-path="url(#f8fb6467af)"><path stroke-linecap="butt" transform="matrix(0.732651, -0.160383, 0.160383, 0.732651, 209.387716, 243.696923)" fill="none" stroke-linejoin="miter" d="M 90.423463 0.00106862 C 40.482314 -0.00152806 -0.00169388 40.480773 0.00079729 90.423036 C -0.000685626 140.359097 40.481616 180.843105 90.422764 180.845702 C 140.359939 180.842097 180.843947 140.359795 180.84543 90.423734 C 180.842939 40.481472 140.360638 -0.00253631 90.423463 0.00106862 Z M 90.423463 0.00106862 " stroke="#000000" stroke-width="38" stroke-opacity="1" stroke-miterlimit="4"/></g></g></g></g><g clip-path="url(#fc1a4cbf72)"><g clip-path="url(#96ad9d8179)"><g clip-path="url(#5f5be9bdb0)"><g transform="matrix(1, 0, 0, 1, 242, 248)"><g clip-path="url(#93afc6b738)"><g clip-path="url(#2ba9aecc73)"><g clip-path="url(#7c7ca2382a)"><g clip-path="url(#4a8f68054b)"><path fill="#ffffff" d="M -8.203125 11.339844 L 84.25 -8.898438 L 104.488281 83.554688 L 12.035156 103.792969 Z M -8.203125 11.339844 " fill-opacity="1" fill-rule="nonzero"/></g></g></g></g></g></g></g></g><g clip-path="url(#3119702979)"><g clip-path="url(#3e6537bf53)"><g clip-path="url(#23e0e4923b)"><g clip-path="url(#bddee2fd6c)"><path stroke-linecap="butt" transform="matrix(0.732651, -0.160383, 0.160383, 0.732651, 233.795235, 259.338523)" fill="none" stroke-linejoin="miter" d="M 63.092113 -0.00118239 C 28.249183 0.00103892 -0.00218017 28.248497 0.000041136 63.091428 C 0.00114867 97.939446 28.249721 126.185721 63.091537 126.188588 C 97.939556 126.18748 126.185831 97.938908 126.189811 63.092004 C 126.18759 28.249073 97.940132 -0.00228992 63.092113 -0.00118239 Z M 63.092113 -0.00118239 " stroke="#000000" stroke-width="38" stroke-opacity="1" stroke-miterlimit="4"/></g></g></g></g><g clip-path="url(#8ca1f9b64a)"><g clip-path="url(#fcfddbbe86)"><g clip-path="url(#847050c23f)"><g transform="matrix(1, 0, 0, 1, 363, 169)"><g clip-path="url(#5c19bd3396)"><g clip-path="url(#f2c8b20561)"><g clip-path="url(#70d839461c)"><g clip-path="url(#74f07f409b)"><path fill="#ffffff" d="M -2.691406 3.539062 L 25.664062 -2.667969 L 31.871094 25.683594 L 3.515625 31.890625 Z M -2.691406 3.539062 " fill-opacity="1" fill-rule="nonzero"/></g></g></g></g></g></g></g></g><g clip-path="url(#664a568e86)"><g clip-path="url(#7317757c2e)"><g clip-path="url(#a512d80cd2)"><g clip-path="url(#6e2825d13d)"><path stroke-linecap="butt" transform="matrix(0.732651, -0.160383, 0.160383, 0.732651, 360.310298, 172.539153)" fill="none" stroke-linejoin="miter" d="M 19.34596 0.00151684 C 8.66207 -0.00200128 0.000317264 8.658572 0.00188699 19.343576 C -0.00163113 30.027465 8.658942 38.689218 19.343946 38.687648 C 30.028949 38.686079 38.685614 30.024391 38.688019 19.34559 C 38.686449 8.660586 30.025875 -0.00116665 19.34596 0.00151684 Z M 19.34596 0.00151684 " stroke="#000000" stroke-width="14" stroke-opacity="1" stroke-miterlimit="4"/></g></g></g></g><g clip-path="url(#e96baf0e84)"><g clip-path="url(#097f0bb9ab)"><g clip-path="url(#c32fb94580)"><g transform="matrix(1, 0, 0, 1, 457, 251)"><g clip-path="url(#2fa2c89510)"><g clip-path="url(#5793d882b4)"><g clip-path="url(#6f1c74bcda)"><g clip-path="url(#8b0bd00a0f)"><path fill="#ffffff" d="M 98.050781 235.007812 L -30.480469 208.445312 L 15.070312 -11.972656 L 143.605469 14.59375 Z M 98.050781 235.007812 " fill-opacity="1" fill-rule="nonzero"/></g></g></g></g></g></g></g></g><g clip-path="url(#ceb571e90b)"><g clip-path="url(#97ed1d1aa5)"><g clip-path="url(#94ef4334bc)"><g clip-path="url(#421db7e211)"><path stroke-linecap="butt" transform="matrix(-0.734479, -0.151792, 0.151792, -0.734479, 555.052248, 486.007268)" fill="none" stroke-linejoin="miter" d="M 174.997853 212.792548 C 175.000778 260.955353 135.826499 299.999128 87.498198 299.999027 C 39.174998 299.997871 -0.000711009 260.957226 0.000410478 212.788266 C -0.00251447 164.625461 87.499962 -0.00151546 87.499962 -0.00151546 C 87.499962 -0.00151546 175.000029 164.628689 174.997853 212.792548 Z M 174.997853 212.792548 " stroke="#000000" stroke-width="30" stroke-opacity="1" stroke-miterlimit="4"/></g></g></g></g><g clip-path="url(#62ec81426f)"><g clip-path="url(#20fb2369a5)"><g clip-path="url(#808b082ada)"><g transform="matrix(1, 0, 0, 1, 420, 375)"><g clip-path="url(#131ffd019e)"><g clip-path="url(#b411cd4db6)"><g clip-path="url(#3da3777c2f)"><g clip-path="url(#80beb6a967)"><path fill="#ffffff" d="M 34.117188 -12.445312 L 148.234375 13.636719 L 103.507812 209.332031 L -10.613281 183.25 Z M 34.117188 -12.445312 " fill-opacity="1" fill-rule="nonzero"/></g></g></g></g></g></g></g></g><g clip-path="url(#d345db0499)"><g clip-path="url(#76c1355c73)"><g clip-path="url(#0a47a88f37)"><g clip-path="url(#f52140d329)"><path stroke-linecap="butt" transform="matrix(0.731145, 0.167113, -0.167113, 0.731145, 454.117181, 362.553986)" fill="none" stroke-linejoin="miter" d="M 156.080026 189.781186 C 156.07938 232.741547 121.137088 267.564162 78.037751 267.563225 C 34.938415 267.562289 -0.00156123 232.737646 0.000244502 189.782362 C 0.00205023 146.827078 78.039528 -0.00221743 78.039528 -0.00221743 C 78.039528 -0.00221743 156.076754 146.827062 156.080026 189.781186 Z M 156.080026 189.781186 " stroke="#000000" stroke-width="30" stroke-opacity="1" stroke-miterlimit="4"/></g></g></g></g><g clip-path="url(#f98e9727fc)"><g clip-path="url(#fe41f7e4d3)"><g clip-path="url(#2f9caaa7cf)"><g transform="matrix(1, 0, 0, 1, 349, 464)"><g clip-path="url(#07199715ee)"><g clip-path="url(#53bc3758bf)"><g clip-path="url(#1d22df39db)"><g clip-path="url(#dd291d3d58)"><path fill="#ffffff" d="M -2.511719 102.496094 L 22.78125 -20.535156 L 261.152344 28.476562 L 235.855469 151.503906 Z M -2.511719 102.496094 " fill-opacity="1" fill-rule="nonzero"/></g></g></g></g></g></g></g></g><g clip-path="url(#562bf222fe)"><g clip-path="url(#88c9f9bb3b)"><g clip-path="url(#1034169cc6)"><g clip-path="url(#0b09bd2f3e)"><path stroke-linecap="butt" transform="matrix(0.151042, -0.734634, 0.734634, 0.151042, 346.488327, 566.494552)" fill="none" stroke-linejoin="miter" d="M 23.000062 -0.00184986 L 66.193246 0.00273619 C 120.748014 0.000330847 167.469145 72.689892 167.465389 162.361224 C 167.465686 252.026405 120.752496 324.7202 66.191578 324.718552 L 22.999442 324.719068 C 10.296659 324.719996 0.00118092 314.42092 0.00025239 301.718136 L -0.000869544 22.99734 C -0.000749168 10.299658 10.297278 -0.000921334 23.000062 -0.00184986 Z M 23.000062 -0.00184986 " stroke="#000000" stroke-width="30" stroke-opacity="1" stroke-miterlimit="4"/></g></g></g></g><g clip-path="url(#6ed55fd130)"><g clip-path="url(#ed4f91afb2)"><g clip-path="url(#1ac211d803)"><g transform="matrix(1, 0, 0, 1, 479, 339)"><g clip-path="url(#dac99f0a95)"><g clip-path="url(#0f25db3c05)"><g clip-path="url(#bc5e4f0c6c)"><g clip-path="url(#f0c2a61b99)"><path fill="#ffffff" d="M 48.136719 114.519531 L -14.476562 101.578125 L 7.714844 -5.792969 L 70.328125 7.148438 Z M 48.136719 114.519531 " fill-opacity="1" fill-rule="nonzero"/></g></g></g></g></g></g></g></g><path stroke-linecap="butt" transform="matrix(0.735289, 0.14782, -0.14782, 0.735289, 348.703932, 572.06788)" fill="none" stroke-linejoin="miter" d="M -0.00213917 7.499733 L 319.999318 7.502629 " stroke="#000000" stroke-width="15" stroke-opacity="1" stroke-miterlimit="4"/><g clip-path="url(#5f808b9974)"><g clip-path="url(#b35e9c90a4)"><g clip-path="url(#de3108af49)"><g transform="matrix(1, 0, 0, 1, 395, 124)"><g clip-path="url(#090717b485)"><g clip-path="url(#5d4bcdacec)"><g clip-path="url(#1f70b61e78)"><g clip-path="url(#0c20c88c2f)"><path fill="#ffde59" d="M 0.457031 -10.988281 L 89.128906 -3.269531 L 77.308594 132.515625 L -11.363281 124.796875 Z M 0.457031 -10.988281 " fill-opacity="1" fill-rule="nonzero"/></g></g></g></g></g></g></g></g><g fill="#000000" fill-opacity="1"><g transform="translate(269.988274, 721.347177)"><g><path d="M 9.359375 0 L 9.359375 -17.265625 L 28.296875 -17.265625 L 28.296875 -68 L 11.875 -68 L 11.875 -81.1875 C 16.664062 -82.0625 20.757812 -83.140625 24.15625 -84.421875 C 27.5625 -85.703125 30.820312 -87.300781 33.9375 -89.21875 L 49.640625 -89.21875 L 49.640625 -17.265625 L 65.71875 -17.265625 L 65.71875 0 Z M 9.359375 0 "/></g></g></g><g fill="#000000" fill-opacity="1"><g transform="translate(343.018331, 721.347177)"><g><path d="M 38.375 -14.265625 C 41.175781 -14.265625 43.59375 -15.382812 45.625 -17.625 C 47.664062 -19.863281 48.6875 -23.503906 48.6875 -28.546875 C 48.6875 -33.503906 47.644531 -36.921875 45.5625 -38.796875 C 43.488281 -40.671875 40.972656 -41.609375 38.015625 -41.609375 C 35.773438 -41.609375 33.578125 -41.007812 31.421875 -39.8125 C 29.265625 -38.613281 27.265625 -36.535156 25.421875 -33.578125 C 26.066406 -28.617188 27.046875 -24.738281 28.359375 -21.9375 C 29.679688 -19.144531 31.21875 -17.164062 32.96875 -16 C 34.726562 -14.84375 36.53125 -14.265625 38.375 -14.265625 Z M 67.03125 -80.234375 L 55.765625 -67.640625 C 54.328125 -69.234375 52.367188 -70.671875 49.890625 -71.953125 C 47.410156 -73.234375 44.929688 -73.875 42.453125 -73.875 C 39.410156 -73.875 36.609375 -73.050781 34.046875 -71.40625 C 31.492188 -69.769531 29.4375 -67.050781 27.875 -63.25 C 26.320312 -59.457031 25.382812 -54.320312 25.0625 -47.84375 C 27.300781 -50.644531 30.078125 -52.804688 33.390625 -54.328125 C 36.710938 -55.847656 39.613281 -56.609375 42.09375 -56.609375 C 47.050781 -56.609375 51.507812 -55.609375 55.46875 -53.609375 C 59.425781 -51.609375 62.539062 -48.546875 64.8125 -44.421875 C 67.09375 -40.304688 68.234375 -35.015625 68.234375 -28.546875 C 68.234375 -22.222656 66.894531 -16.800781 64.21875 -12.28125 C 61.539062 -7.769531 57.984375 -4.316406 53.546875 -1.921875 C 49.109375 0.472656 44.210938 1.671875 38.859375 1.671875 C 34.703125 1.671875 30.625 0.8125 26.625 -0.90625 C 22.625 -2.625 19.046875 -5.300781 15.890625 -8.9375 C 12.734375 -12.570312 10.210938 -17.265625 8.328125 -23.015625 C 6.453125 -28.773438 5.515625 -35.734375 5.515625 -43.890625 C 5.515625 -51.960938 6.492188 -58.957031 8.453125 -64.875 C 10.410156 -70.789062 13.046875 -75.664062 16.359375 -79.5 C 19.679688 -83.34375 23.460938 -86.203125 27.703125 -88.078125 C 31.941406 -89.960938 36.378906 -90.90625 41.015625 -90.90625 C 46.929688 -90.90625 52.046875 -89.84375 56.359375 -87.71875 C 60.679688 -85.601562 64.238281 -83.109375 67.03125 -80.234375 Z M 67.03125 -80.234375 "/></g></g></g><g fill="#000000" fill-opacity="1"><g transform="translate(416.048387, 721.347177)"><g><path d="M 31.78125 -72.3125 L 31.78125 -48.328125 L 41.375 -48.328125 C 51.769531 -48.328125 56.96875 -52.601562 56.96875 -61.15625 C 56.96875 -65.394531 55.644531 -68.3125 53 -69.90625 C 50.363281 -71.507812 46.488281 -72.3125 41.375 -72.3125 Z M 82.5 0 L 58.515625 0 L 42.09375 -31.421875 L 31.78125 -31.421875 L 31.78125 0 L 10.3125 0 L 10.3125 -89.21875 L 43.046875 -89.21875 C 49.441406 -89.21875 55.273438 -88.378906 60.546875 -86.703125 C 65.828125 -85.023438 70.046875 -82.144531 73.203125 -78.0625 C 76.367188 -73.988281 77.953125 -68.351562 77.953125 -61.15625 C 77.953125 -54.601562 76.550781 -49.207031 73.75 -44.96875 C 70.957031 -40.726562 67.238281 -37.53125 62.59375 -35.375 Z M 82.5 0 "/></g></g></g></svg>