<svg xmlns="http://www.w3.org/2000/svg" xmlns:xlink="http://www.w3.org/1999/xlink" width="1000" zoomAndPan="magnify" viewBox="0 0 750 749.999995" height="1000" preserveAspectRatio="xMidYMid meet" version="1.0"><defs><g/><clipPath id="8b82057c41"><path d="M 195.289062 526.160156 L 524.234375 526.160156 L 524.234375 616.902344 L 195.289062 616.902344 Z M 195.289062 526.160156 " clip-rule="nonzero"/></clipPath><clipPath id="745b6225d4"><path d="M 359.714844 526.160156 C 268.90625 526.160156 195.289062 546.472656 195.289062 571.53125 C 195.289062 596.589844 268.90625 616.902344 359.714844 616.902344 C 450.523438 616.902344 524.140625 596.589844 524.140625 571.53125 C 524.140625 546.472656 450.523438 526.160156 359.714844 526.160156 Z M 359.714844 526.160156 " clip-rule="nonzero"/></clipPath><clipPath id="6640c88aee"><path d="M 0.289062 0.160156 L 329.160156 0.160156 L 329.160156 90.902344 L 0.289062 90.902344 Z M 0.289062 0.160156 " clip-rule="nonzero"/></clipPath><clipPath id="2e2e681340"><path d="M 164.714844 0.160156 C 73.90625 0.160156 0.289062 20.472656 0.289062 45.53125 C 0.289062 70.589844 73.90625 90.902344 164.714844 90.902344 C 255.523438 90.902344 329.140625 70.589844 329.140625 45.53125 C 329.140625 20.472656 255.523438 0.160156 164.714844 0.160156 Z M 164.714844 0.160156 " clip-rule="nonzero"/></clipPath><clipPath id="1e64a9729e"><rect x="0" width="330" y="0" height="91"/></clipPath><clipPath id="03dbd0a373"><path d="M 195.292969 526.160156 L 523.789062 526.160156 L 523.789062 616.910156 L 195.292969 616.910156 Z M 195.292969 526.160156 " clip-rule="nonzero"/></clipPath><clipPath id="c6edf68dc4"><path d="M 359.710938 526.160156 C 268.90625 526.160156 195.292969 546.472656 195.292969 571.527344 C 195.292969 596.585938 268.90625 616.898438 359.710938 616.898438 C 450.515625 616.898438 524.125 596.585938 524.125 571.527344 C 524.125 546.472656 450.515625 526.160156 359.710938 526.160156 Z M 359.710938 526.160156 " clip-rule="nonzero"/></clipPath><clipPath id="caa923fd62"><path d="M 194.539062 515.660156 L 523.484375 515.660156 L 523.484375 606.402344 L 194.539062 606.402344 Z M 194.539062 515.660156 " clip-rule="nonzero"/></clipPath><clipPath id="09b6263948"><path d="M 358.964844 515.660156 C 268.15625 515.660156 194.539062 535.972656 194.539062 561.03125 C 194.539062 586.089844 268.15625 606.402344 358.964844 606.402344 C 449.773438 606.402344 523.390625 586.089844 523.390625 561.03125 C 523.390625 535.972656 449.773438 515.660156 358.964844 515.660156 Z M 358.964844 515.660156 " clip-rule="nonzero"/></clipPath><clipPath id="ab650efea9"><path d="M 0.539062 0.660156 L 329.441406 0.660156 L 329.441406 91.402344 L 0.539062 91.402344 Z M 0.539062 0.660156 " clip-rule="nonzero"/></clipPath><clipPath id="cf8836ec7a"><path d="M 164.964844 0.660156 C 74.15625 0.660156 0.539062 20.972656 0.539062 46.03125 C 0.539062 71.089844 74.15625 91.402344 164.964844 91.402344 C 255.773438 91.402344 329.390625 71.089844 329.390625 46.03125 C 329.390625 20.972656 255.773438 0.660156 164.964844 0.660156 Z M 164.964844 0.660156 " clip-rule="nonzero"/></clipPath><clipPath id="c3eff7bdf6"><rect x="0" width="330" y="0" height="92"/></clipPath><clipPath id="caf13e0b2d"><path d="M 194.542969 515.660156 L 523.039062 515.660156 L 523.039062 606.410156 L 194.542969 606.410156 Z M 194.542969 515.660156 " clip-rule="nonzero"/></clipPath><clipPath id="d2a10cb5c2"><path d="M 358.960938 515.660156 C 268.15625 515.660156 194.542969 535.972656 194.542969 561.027344 C 194.542969 586.085938 268.15625 606.398438 358.960938 606.398438 C 449.765625 606.398438 523.375 586.085938 523.375 561.027344 C 523.375 535.972656 449.765625 515.660156 358.960938 515.660156 Z M 358.960938 515.660156 " clip-rule="nonzero"/></clipPath><clipPath id="687e6918e4"><path d="M 257.3125 539.226562 L 466.511719 539.226562 L 466.511719 590.132812 L 257.3125 590.132812 Z M 257.3125 539.226562 " clip-rule="nonzero"/></clipPath><clipPath id="a79a7542bd"><path d="M 361.832031 539.226562 C 304.105469 539.226562 257.3125 550.621094 257.3125 564.679688 C 257.3125 578.738281 304.105469 590.132812 361.832031 590.132812 C 419.558594 590.132812 466.355469 578.738281 466.355469 564.679688 C 466.355469 550.621094 419.558594 539.226562 361.832031 539.226562 Z M 361.832031 539.226562 " clip-rule="nonzero"/></clipPath><clipPath id="eb90c33fb4"><path d="M 0.3125 0.226562 L 209.511719 0.226562 L 209.511719 51.132812 L 0.3125 51.132812 Z M 0.3125 0.226562 " clip-rule="nonzero"/></clipPath><clipPath id="1a574bc6ee"><path d="M 104.832031 0.226562 C 47.105469 0.226562 0.3125 11.621094 0.3125 25.679688 C 0.3125 39.738281 47.105469 51.132812 104.832031 51.132812 C 162.558594 51.132812 209.355469 39.738281 209.355469 25.679688 C 209.355469 11.621094 162.558594 0.226562 104.832031 0.226562 Z M 104.832031 0.226562 " clip-rule="nonzero"/></clipPath><clipPath id="81946fcf88"><rect x="0" width="210" y="0" height="52"/></clipPath><clipPath id="1b163b70ea"><path d="M 288.582031 342.9375 L 428.175781 342.9375 L 428.175781 567.9375 L 288.582031 567.9375 Z M 288.582031 342.9375 " clip-rule="nonzero"/></clipPath><clipPath id="f3c7e319e3"><path d="M 0.582031 0.9375 L 140.175781 0.9375 L 140.175781 225.9375 L 0.582031 225.9375 Z M 0.582031 0.9375 " clip-rule="nonzero"/></clipPath><clipPath id="32f1b011f8"><rect x="0" width="141" y="0" height="226"/></clipPath><clipPath id="4fde19a36d"><path d="M 288.582031 342.9375 L 428.082031 342.9375 L 428.082031 567.933594 L 288.582031 567.933594 Z M 288.582031 342.9375 " clip-rule="nonzero"/></clipPath><clipPath id="93bfdb8684"><path d="M 361.832031 280.578125 L 374.25 280.578125 L 374.25 312.210938 L 361.832031 312.210938 Z M 361.832031 280.578125 " clip-rule="nonzero"/></clipPath><clipPath id="77f2e9d2a0"><path d="M 0.832031 0.578125 L 13.25 0.578125 L 13.25 32.210938 L 0.832031 32.210938 Z M 0.832031 0.578125 " clip-rule="nonzero"/></clipPath><clipPath id="151e4adf62"><rect x="0" width="14" y="0" height="33"/></clipPath><clipPath id="e6a2607818"><path d="M 361.832031 280.582031 L 374.242188 280.582031 L 374.242188 312.078125 L 361.832031 312.078125 Z M 361.832031 280.582031 " clip-rule="nonzero"/></clipPath><clipPath id="e8b5c5d7dd"><path d="M 539.421875 289.957031 L 598.898438 289.957031 L 598.898438 414.71875 L 539.421875 414.71875 Z M 539.421875 289.957031 " clip-rule="nonzero"/></clipPath><clipPath id="9da8fa3bc9"><path d="M 539.421875 414.683594 C 571.816406 414.683594 598.898438 386.289062 598.898438 352.320312 C 598.898438 318.351562 571.816406 289.957031 539.421875 289.957031 L 539.421875 324.582031 C 553.828125 324.582031 565.871094 337.210938 565.871094 352.320312 C 565.871094 367.425781 553.828125 380.054688 539.421875 380.054688 Z M 539.421875 414.683594 " clip-rule="nonzero"/></clipPath><clipPath id="88df6945d4"><path d="M 0.421875 0.957031 L 59.898438 0.957031 L 59.898438 125.71875 L 0.421875 125.71875 Z M 0.421875 0.957031 " clip-rule="nonzero"/></clipPath><clipPath id="7d7aa34226"><path d="M 0.421875 125.683594 C 32.816406 125.683594 59.898438 97.289062 59.898438 63.320312 C 59.898438 29.351562 32.816406 0.957031 0.421875 0.957031 L 0.421875 35.582031 C 14.828125 35.582031 26.871094 48.210938 26.871094 63.320312 C 26.871094 78.425781 14.828125 91.054688 0.421875 91.054688 Z M 0.421875 125.683594 " clip-rule="nonzero"/></clipPath><clipPath id="4ae0325458"><rect x="0" width="60" y="0" height="126"/></clipPath><clipPath id="4bba24d0d2"><path d="M 539.648438 289.957031 L 598.898438 289.957031 L 598.898438 414.457031 L 539.648438 414.457031 Z M 539.648438 289.957031 " clip-rule="nonzero"/></clipPath><clipPath id="0e8aaa73db"><path d="M 539.425781 414.675781 C 571.820312 414.675781 598.898438 386.28125 598.898438 352.316406 C 598.898438 318.351562 571.820312 289.957031 539.425781 289.957031 L 539.425781 324.582031 C 553.832031 324.582031 565.875 337.210938 565.875 352.316406 C 565.875 367.421875 553.832031 380.050781 539.425781 380.050781 Z M 539.425781 414.675781 " clip-rule="nonzero"/></clipPath><clipPath id="13c174d71e"><path d="M 167.265625 289.957031 L 550 289.957031 L 550 471.410156 L 167.265625 471.410156 Z M 167.265625 289.957031 " clip-rule="nonzero"/></clipPath><clipPath id="d02956f741"><path d="M 294.742188 466.132812 C 314.339844 469.320312 336.617188 471.410156 358.480469 471.410156 C 380.347656 471.410156 401.386719 469.617188 420.777344 466.429688 C 421.191406 466.328125 421.601562 466.328125 422.015625 466.230469 C 494.832031 453.480469 548.464844 419.816406 549.496094 381.441406 L 549.496094 289.957031 L 167.265625 289.957031 L 167.265625 381.371094 C 168.296875 420.015625 221.101562 453.679688 294.742188 466.132812 Z M 294.742188 466.132812 " clip-rule="nonzero"/></clipPath><clipPath id="19d19b9312"><path d="M 0.265625 0.957031 L 382.601562 0.957031 L 382.601562 182.410156 L 0.265625 182.410156 Z M 0.265625 0.957031 " clip-rule="nonzero"/></clipPath><clipPath id="ba24f84a07"><path d="M 127.742188 177.132812 C 147.339844 180.320312 169.617188 182.410156 191.480469 182.410156 C 213.347656 182.410156 234.386719 180.617188 253.777344 177.429688 C 254.191406 177.328125 254.601562 177.328125 255.015625 177.230469 C 327.832031 164.480469 381.464844 130.816406 382.496094 92.441406 L 382.496094 0.957031 L 0.265625 0.957031 L 0.265625 92.371094 C 1.296875 131.015625 54.101562 164.679688 127.742188 177.132812 Z M 127.742188 177.132812 " clip-rule="nonzero"/></clipPath><clipPath id="dc527d83ed"><rect x="0" width="383" y="0" height="183"/></clipPath><clipPath id="ea7de036b6"><path d="M 167.265625 289.957031 L 549.765625 289.957031 L 549.765625 471.457031 L 167.265625 471.457031 Z M 167.265625 289.957031 " clip-rule="nonzero"/></clipPath><clipPath id="1401f839b9"><path d="M 294.742188 466.128906 C 314.339844 469.316406 336.617188 471.410156 358.480469 471.410156 C 380.347656 471.410156 401.386719 469.617188 420.777344 466.429688 C 421.191406 466.328125 421.601562 466.328125 422.015625 466.230469 C 494.832031 453.480469 548.460938 419.816406 549.492188 381.441406 L 549.492188 289.957031 L 167.265625 289.957031 L 167.265625 381.371094 C 168.296875 420.015625 221.101562 453.679688 294.742188 466.128906 Z M 294.742188 466.128906 " clip-rule="nonzero"/></clipPath><clipPath id="4d2b7c9243"><path d="M 167.179688 363.296875 L 549.496094 363.296875 L 549.496094 533.21875 L 167.179688 533.21875 Z M 167.179688 363.296875 " clip-rule="nonzero"/></clipPath><clipPath id="460518c433"><path d="M 167.261719 363.296875 C 167.261719 455.851562 254.28125 533.21875 358.378906 533.21875 C 462.476562 533.21875 549.496094 455.851562 549.496094 363.296875 Z M 167.261719 363.296875 " clip-rule="nonzero"/></clipPath><clipPath id="f75d5cb6cf"><path d="M 0.179688 0.296875 L 382.496094 0.296875 L 382.496094 170.21875 L 0.179688 170.21875 Z M 0.179688 0.296875 " clip-rule="nonzero"/></clipPath><clipPath id="2975f1b70e"><path d="M 0.261719 0.296875 C 0.261719 92.851562 87.28125 170.21875 191.378906 170.21875 C 295.476562 170.21875 382.496094 92.851562 382.496094 0.296875 Z M 0.261719 0.296875 " clip-rule="nonzero"/></clipPath><clipPath id="e44d38bc81"><rect x="0" width="383" y="0" height="171"/></clipPath><clipPath id="3cf99e7b55"><path d="M 167 363 L 549.484375 363 L 549.484375 533.21875 L 167 533.21875 Z M 167 363 " clip-rule="nonzero"/></clipPath><clipPath id="ca60f2b378"><path d="M 167.273438 363.308594 C 167.273438 455.855469 254.285156 533.21875 358.378906 533.21875 C 462.472656 533.21875 549.484375 455.855469 549.484375 363.308594 Z M 167.273438 363.308594 " clip-rule="nonzero"/></clipPath><clipPath id="62b372c40a"><path d="M 179.71875 327.703125 L 538.210938 327.703125 L 538.210938 380.683594 L 179.71875 380.683594 Z M 179.71875 327.703125 " clip-rule="nonzero"/></clipPath><clipPath id="2009404daa"><path d="M 0.71875 0.703125 L 359.210938 0.703125 L 359.210938 53.683594 L 0.71875 53.683594 Z M 0.71875 0.703125 " clip-rule="nonzero"/></clipPath><clipPath id="4788a1fbea"><rect x="0" width="360" y="0" height="54"/></clipPath><clipPath id="d743367076"><path d="M 445.117188 300.925781 L 549.496094 300.925781 L 549.496094 317.566406 L 445.117188 317.566406 Z M 445.117188 300.925781 " clip-rule="nonzero"/></clipPath><clipPath id="9d22802ca5"><path d="M 0.117188 0.925781 L 104.496094 0.925781 L 104.496094 17.566406 L 0.117188 17.566406 Z M 0.117188 0.925781 " clip-rule="nonzero"/></clipPath><clipPath id="c00181a78f"><rect x="0" width="105" y="0" height="18"/></clipPath><clipPath id="077bb9990b"><path d="M 445.117188 388.605469 L 549.496094 388.605469 L 549.496094 402.96875 L 445.117188 402.96875 Z M 445.117188 388.605469 " clip-rule="nonzero"/></clipPath><clipPath id="938a0af531"><path d="M 0.117188 0.605469 L 104.496094 0.605469 L 104.496094 14.96875 L 0.117188 14.96875 Z M 0.117188 0.605469 " clip-rule="nonzero"/></clipPath><clipPath id="9ccfc93d50"><rect x="0" width="105" y="0" height="15"/></clipPath><clipPath id="71d3421bda"><path d="M 309.710938 268.332031 L 422.339844 268.332031 L 422.339844 283.796875 L 309.710938 283.796875 Z M 309.710938 268.332031 " clip-rule="nonzero"/></clipPath><clipPath id="03e21ac3a7"><path d="M 0.710938 0.332031 L 113.339844 0.332031 L 113.339844 15.796875 L 0.710938 15.796875 Z M 0.710938 0.332031 " clip-rule="nonzero"/></clipPath><clipPath id="8a3854cb20"><rect x="0" width="114" y="0" height="16"/></clipPath><clipPath id="f8e88d969a"><path d="M 309.738281 268.332031 L 422.210938 268.332031 L 422.210938 283.789062 L 309.738281 283.789062 Z M 309.738281 268.332031 " clip-rule="nonzero"/></clipPath><clipPath id="c757db4e2d"><path d="M 179.71875 338.058594 L 539.496094 338.058594 L 539.496094 364.484375 L 179.71875 364.484375 Z M 179.71875 338.058594 " clip-rule="nonzero"/></clipPath><clipPath id="31a38e3dd8"><path d="M 539.425781 338.058594 L 539.425781 357.878906 C 509.449219 357.878906 509.449219 364.484375 479.476562 364.484375 C 449.488281 364.484375 449.488281 357.878906 419.515625 357.878906 C 389.539062 357.878906 389.539062 364.484375 359.5625 364.484375 C 329.585938 364.484375 329.585938 357.878906 299.613281 357.878906 C 269.636719 357.878906 269.636719 364.484375 239.671875 364.484375 C 209.695312 364.484375 209.695312 357.878906 179.71875 357.878906 L 179.71875 338.058594 C 209.695312 338.058594 209.695312 344.660156 239.671875 344.660156 C 269.636719 344.660156 269.636719 338.058594 299.613281 338.058594 C 329.585938 338.058594 329.585938 344.660156 359.5625 344.660156 C 389.539062 344.660156 389.539062 338.058594 419.515625 338.058594 C 449.488281 338.058594 449.488281 344.660156 479.476562 344.660156 C 509.449219 344.660156 509.449219 338.058594 539.425781 338.058594 Z M 539.425781 338.058594 " clip-rule="nonzero"/></clipPath><clipPath id="755b290420"><path d="M 0.71875 0.0585938 L 360.496094 0.0585938 L 360.496094 26.484375 L 0.71875 26.484375 Z M 0.71875 0.0585938 " clip-rule="nonzero"/></clipPath><clipPath id="338089bb81"><path d="M 360.425781 0.0585938 L 360.425781 19.878906 C 330.449219 19.878906 330.449219 26.484375 300.476562 26.484375 C 270.488281 26.484375 270.488281 19.878906 240.515625 19.878906 C 210.539062 19.878906 210.539062 26.484375 180.5625 26.484375 C 150.585938 26.484375 150.585938 19.878906 120.613281 19.878906 C 90.636719 19.878906 90.636719 26.484375 60.671875 26.484375 C 30.695312 26.484375 30.695312 19.878906 0.71875 19.878906 L 0.71875 0.0585938 C 30.695312 0.0585938 30.695312 6.660156 60.671875 6.660156 C 90.636719 6.660156 90.636719 0.0585938 120.613281 0.0585938 C 150.585938 0.0585938 150.585938 6.660156 180.5625 6.660156 C 210.539062 6.660156 210.539062 0.0585938 240.515625 0.0585938 C 270.488281 0.0585938 270.488281 6.660156 300.476562 6.660156 C 330.449219 6.660156 330.449219 0.0585938 360.425781 0.0585938 Z M 360.425781 0.0585938 " clip-rule="nonzero"/></clipPath><clipPath id="2041089d1b"><rect x="0" width="361" y="0" height="27"/></clipPath><clipPath id="8bd393d72b"><path d="M 212.527344 317.566406 L 275.644531 317.566406 L 275.644531 380.683594 L 212.527344 380.683594 Z M 212.527344 317.566406 " clip-rule="nonzero"/></clipPath><clipPath id="0e0e7053b9"><path d="M 269.386719 342.960938 C 265.246094 342.960938 257.785156 344.554688 251.488281 346.128906 C 257.070312 342.808594 263.511719 338.675781 266.460938 335.722656 C 268.90625 333.277344 268.90625 329.324219 266.460938 326.878906 C 264.019531 324.433594 260.0625 324.433594 257.617188 326.878906 C 254.6875 329.804688 250.539062 336.207031 247.203125 341.769531 C 248.804688 335.472656 250.4375 327.996094 250.4375 323.824219 C 250.4375 320.363281 247.636719 317.566406 244.179688 317.566406 C 240.722656 317.566406 237.921875 320.363281 237.921875 323.824219 C 237.921875 327.964844 239.515625 335.425781 241.089844 341.722656 C 237.769531 336.140625 233.636719 329.699219 230.6875 326.75 C 228.242188 324.304688 224.285156 324.304688 221.839844 326.75 C 219.394531 329.191406 219.394531 333.148438 221.839844 335.59375 C 224.765625 338.523438 231.167969 342.671875 236.734375 346.007812 C 230.4375 344.410156 222.957031 342.777344 218.785156 342.777344 C 215.328125 342.777344 212.527344 345.574219 212.527344 349.03125 C 212.527344 352.488281 215.328125 355.289062 218.785156 355.289062 C 222.925781 355.289062 230.390625 353.695312 236.683594 352.121094 C 231.105469 355.441406 224.664062 359.574219 221.710938 362.527344 C 219.265625 364.96875 219.265625 368.925781 221.710938 371.371094 C 224.15625 373.816406 228.113281 373.816406 230.558594 371.371094 C 233.484375 368.445312 237.632812 362.042969 240.96875 356.476562 C 239.371094 362.773438 237.738281 370.253906 237.738281 374.425781 C 237.738281 377.882812 240.535156 380.683594 243.992188 380.683594 C 247.453125 380.683594 250.25 377.882812 250.25 374.425781 C 250.25 370.285156 248.660156 362.824219 247.082031 356.527344 C 250.402344 362.105469 254.535156 368.546875 257.488281 371.5 C 259.933594 373.945312 263.890625 373.945312 266.332031 371.5 C 268.777344 369.054688 268.777344 365.097656 266.332031 362.652344 C 263.40625 359.726562 257.003906 355.578125 251.441406 352.238281 C 257.738281 353.839844 265.214844 355.472656 269.386719 355.472656 C 272.847656 355.472656 275.644531 352.675781 275.644531 349.21875 C 275.644531 345.757812 272.847656 342.960938 269.386719 342.960938 Z M 269.386719 342.960938 " clip-rule="nonzero"/></clipPath><clipPath id="47f65b4d6a"><path d="M 0.527344 0.566406 L 63.644531 0.566406 L 63.644531 63.683594 L 0.527344 63.683594 Z M 0.527344 0.566406 " clip-rule="nonzero"/></clipPath><clipPath id="5b492517f2"><path d="M 57.386719 25.960938 C 53.246094 25.960938 45.785156 27.554688 39.488281 29.128906 C 45.070312 25.808594 51.511719 21.675781 54.460938 18.722656 C 56.90625 16.277344 56.90625 12.324219 54.460938 9.878906 C 52.019531 7.433594 48.0625 7.433594 45.617188 9.878906 C 42.6875 12.804688 38.539062 19.207031 35.203125 24.769531 C 36.804688 18.472656 38.4375 10.996094 38.4375 6.824219 C 38.4375 3.363281 35.636719 0.566406 32.179688 0.566406 C 28.722656 0.566406 25.921875 3.363281 25.921875 6.824219 C 25.921875 10.964844 27.515625 18.425781 29.089844 24.722656 C 25.769531 19.140625 21.636719 12.699219 18.6875 9.75 C 16.242188 7.304688 12.285156 7.304688 9.839844 9.75 C 7.394531 12.191406 7.394531 16.148438 9.839844 18.59375 C 12.765625 21.523438 19.167969 25.671875 24.734375 29.007812 C 18.4375 27.410156 10.957031 25.777344 6.785156 25.777344 C 3.328125 25.777344 0.527344 28.574219 0.527344 32.03125 C 0.527344 35.488281 3.328125 38.289062 6.785156 38.289062 C 10.925781 38.289062 18.390625 36.695312 24.683594 35.121094 C 19.105469 38.441406 12.664062 42.574219 9.710938 45.527344 C 7.265625 47.96875 7.265625 51.925781 9.710938 54.371094 C 12.15625 56.816406 16.113281 56.816406 18.558594 54.371094 C 21.484375 51.445312 25.632812 45.042969 28.96875 39.476562 C 27.371094 45.773438 25.738281 53.253906 25.738281 57.425781 C 25.738281 60.882812 28.535156 63.683594 31.992188 63.683594 C 35.453125 63.683594 38.25 60.882812 38.25 57.425781 C 38.25 53.285156 36.660156 45.824219 35.082031 39.527344 C 38.402344 45.105469 42.535156 51.546875 45.488281 54.5 C 47.933594 56.945312 51.890625 56.945312 54.332031 54.5 C 56.777344 52.054688 56.777344 48.097656 54.332031 45.652344 C 51.40625 42.726562 45.003906 38.578125 39.441406 35.238281 C 45.738281 36.839844 53.214844 38.472656 57.386719 38.472656 C 60.847656 38.472656 63.644531 35.675781 63.644531 32.21875 C 63.644531 28.757812 60.847656 25.960938 57.386719 25.960938 Z M 57.386719 25.960938 " clip-rule="nonzero"/></clipPath><clipPath id="48e7c65acb"><rect x="0" width="64" y="0" height="64"/></clipPath><clipPath id="ed29662c97"><path d="M 304.449219 347.777344 L 345.277344 347.777344 L 345.277344 388.605469 L 304.449219 388.605469 Z M 304.449219 347.777344 " clip-rule="nonzero"/></clipPath><clipPath id="066ed4bfaa"><path d="M 341.230469 364.203125 C 338.550781 364.203125 333.722656 365.234375 329.648438 366.253906 C 333.261719 364.105469 337.429688 361.429688 339.335938 359.523438 C 340.917969 357.941406 340.917969 355.382812 339.335938 353.800781 C 337.753906 352.21875 335.195312 352.21875 333.613281 353.800781 C 331.71875 355.691406 329.035156 359.832031 326.878906 363.433594 C 327.914062 359.359375 328.96875 354.523438 328.96875 351.824219 C 328.96875 349.585938 327.160156 347.777344 324.921875 347.777344 C 322.683594 347.777344 320.875 349.585938 320.875 351.824219 C 320.875 354.503906 321.90625 359.328125 322.925781 363.402344 C 320.777344 359.792969 318.101562 355.625 316.195312 353.714844 C 314.613281 352.136719 312.054688 352.136719 310.472656 353.714844 C 308.890625 355.296875 308.890625 357.855469 310.472656 359.4375 C 312.363281 361.332031 316.503906 364.015625 320.105469 366.175781 C 316.03125 365.140625 311.195312 364.085938 308.496094 364.085938 C 306.257812 364.085938 304.449219 365.894531 304.449219 368.128906 C 304.449219 370.367188 306.257812 372.179688 308.496094 372.179688 C 311.171875 372.179688 316 371.148438 320.074219 370.128906 C 316.464844 372.277344 312.296875 374.949219 310.386719 376.859375 C 308.804688 378.441406 308.804688 381 310.386719 382.582031 C 311.96875 384.164062 314.527344 384.164062 316.109375 382.582031 C 318.003906 380.6875 320.6875 376.546875 322.847656 372.949219 C 321.8125 377.019531 320.753906 381.859375 320.753906 384.558594 C 320.753906 386.796875 322.566406 388.605469 324.800781 388.605469 C 327.039062 388.605469 328.847656 386.796875 328.847656 384.558594 C 328.847656 381.878906 327.820312 377.050781 326.800781 372.980469 C 328.949219 376.589844 331.621094 380.753906 333.53125 382.664062 C 335.113281 384.246094 337.671875 384.246094 339.253906 382.664062 C 340.835938 381.082031 340.835938 378.523438 339.253906 376.941406 C 337.359375 375.050781 333.21875 372.363281 329.621094 370.207031 C 333.691406 371.242188 338.53125 372.296875 341.230469 372.296875 C 343.46875 372.296875 345.277344 370.488281 345.277344 368.25 C 345.277344 366.011719 343.46875 364.203125 341.230469 364.203125 Z M 341.230469 364.203125 " clip-rule="nonzero"/></clipPath><clipPath id="e00968b5da"><path d="M 0.449219 0.777344 L 41.277344 0.777344 L 41.277344 41.605469 L 0.449219 41.605469 Z M 0.449219 0.777344 " clip-rule="nonzero"/></clipPath><clipPath id="3bed2e008c"><path d="M 37.230469 17.203125 C 34.550781 17.203125 29.722656 18.234375 25.648438 19.253906 C 29.261719 17.105469 33.429688 14.429688 35.335938 12.523438 C 36.917969 10.941406 36.917969 8.382812 35.335938 6.800781 C 33.753906 5.21875 31.195312 5.21875 29.613281 6.800781 C 27.71875 8.691406 25.035156 12.832031 22.878906 16.433594 C 23.914062 12.359375 24.96875 7.523438 24.96875 4.824219 C 24.96875 2.585938 23.160156 0.777344 20.921875 0.777344 C 18.683594 0.777344 16.875 2.585938 16.875 4.824219 C 16.875 7.503906 17.90625 12.328125 18.925781 16.402344 C 16.777344 12.792969 14.101562 8.625 12.195312 6.714844 C 10.613281 5.136719 8.054688 5.136719 6.472656 6.714844 C 4.890625 8.296875 4.890625 10.855469 6.472656 12.4375 C 8.363281 14.332031 12.503906 17.015625 16.105469 19.175781 C 12.03125 18.140625 7.195312 17.085938 4.496094 17.085938 C 2.257812 17.085938 0.449219 18.894531 0.449219 21.128906 C 0.449219 23.367188 2.257812 25.179688 4.496094 25.179688 C 7.171875 25.179688 12 24.148438 16.074219 23.128906 C 12.464844 25.277344 8.296875 27.949219 6.386719 29.859375 C 4.804688 31.441406 4.804688 34 6.386719 35.582031 C 7.96875 37.164062 10.527344 37.164062 12.109375 35.582031 C 14.003906 33.6875 16.6875 29.546875 18.847656 25.949219 C 17.8125 30.019531 16.753906 34.859375 16.753906 37.558594 C 16.753906 39.796875 18.566406 41.605469 20.800781 41.605469 C 23.039062 41.605469 24.847656 39.796875 24.847656 37.558594 C 24.847656 34.878906 23.820312 30.050781 22.800781 25.980469 C 24.949219 29.589844 27.621094 33.753906 29.53125 35.664062 C 31.113281 37.246094 33.671875 37.246094 35.253906 35.664062 C 36.835938 34.082031 36.835938 31.523438 35.253906 29.941406 C 33.359375 28.050781 29.21875 25.363281 25.621094 23.207031 C 29.691406 24.242188 34.53125 25.296875 37.230469 25.296875 C 39.46875 25.296875 41.277344 23.488281 41.277344 21.25 C 41.277344 19.011719 39.46875 17.203125 37.230469 17.203125 Z M 37.230469 17.203125 " clip-rule="nonzero"/></clipPath><clipPath id="c10eea736a"><rect x="0" width="42" y="0" height="42"/></clipPath><clipPath id="c2dbd40e8d"><path d="M 377.28125 318.871094 L 437.789062 318.871094 L 437.789062 379.378906 L 377.28125 379.378906 Z M 377.28125 318.871094 " clip-rule="nonzero"/></clipPath><clipPath id="c48215a1d8"><path d="M 431.789062 343.214844 C 427.820312 343.214844 420.667969 344.742188 414.628906 346.253906 C 419.980469 343.070312 426.15625 339.109375 428.984375 336.277344 C 431.328125 333.933594 431.328125 330.144531 428.984375 327.800781 C 426.640625 325.457031 422.847656 325.457031 420.503906 327.800781 C 417.699219 330.605469 413.722656 336.742188 410.523438 342.074219 C 412.058594 336.039062 413.621094 328.871094 413.621094 324.871094 C 413.621094 321.554688 410.9375 318.871094 407.625 318.871094 C 404.308594 318.871094 401.625 321.554688 401.625 324.871094 C 401.625 328.839844 403.152344 335.992188 404.664062 342.03125 C 401.480469 336.679688 397.519531 330.503906 394.691406 327.675781 C 392.347656 325.332031 388.554688 325.332031 386.210938 327.675781 C 383.867188 330.019531 383.867188 333.8125 386.210938 336.15625 C 389.015625 338.960938 395.152344 342.9375 400.484375 346.136719 C 394.449219 344.605469 387.28125 343.039062 383.28125 343.039062 C 379.964844 343.039062 377.28125 345.722656 377.28125 349.035156 C 377.28125 352.351562 379.964844 355.035156 383.28125 355.035156 C 387.25 355.035156 394.40625 353.507812 400.441406 351.996094 C 395.089844 355.179688 388.914062 359.140625 386.085938 361.972656 C 383.742188 364.316406 383.742188 368.105469 386.085938 370.449219 C 388.429688 372.792969 392.222656 372.792969 394.566406 370.449219 C 397.371094 367.644531 401.347656 361.507812 404.546875 356.175781 C 403.015625 362.210938 401.449219 369.378906 401.449219 373.378906 C 401.449219 376.695312 404.132812 379.378906 407.445312 379.378906 C 410.761719 379.378906 413.445312 376.695312 413.445312 373.378906 C 413.445312 369.410156 411.917969 362.257812 410.40625 356.21875 C 413.589844 361.570312 417.550781 367.742188 420.382812 370.574219 C 422.726562 372.917969 426.519531 372.917969 428.863281 370.574219 C 431.207031 368.230469 431.207031 364.4375 428.863281 362.09375 C 426.054688 359.289062 419.917969 355.3125 414.585938 352.113281 C 420.621094 353.648438 427.789062 355.210938 431.789062 355.210938 C 435.105469 355.210938 437.789062 352.527344 437.789062 349.214844 C 437.789062 345.898438 435.105469 343.214844 431.789062 343.214844 Z M 431.789062 343.214844 " clip-rule="nonzero"/></clipPath><clipPath id="c687d8e013"><path d="M 0.28125 0.871094 L 60.789062 0.871094 L 60.789062 61.378906 L 0.28125 61.378906 Z M 0.28125 0.871094 " clip-rule="nonzero"/></clipPath><clipPath id="d7335b968a"><path d="M 54.789062 25.214844 C 50.820312 25.214844 43.667969 26.742188 37.628906 28.253906 C 42.980469 25.070312 49.15625 21.109375 51.984375 18.277344 C 54.328125 15.933594 54.328125 12.144531 51.984375 9.800781 C 49.640625 7.457031 45.847656 7.457031 43.503906 9.800781 C 40.699219 12.605469 36.722656 18.742188 33.523438 24.074219 C 35.058594 18.039062 36.621094 10.871094 36.621094 6.871094 C 36.621094 3.554688 33.9375 0.871094 30.625 0.871094 C 27.308594 0.871094 24.625 3.554688 24.625 6.871094 C 24.625 10.839844 26.152344 17.992188 27.664062 24.03125 C 24.480469 18.679688 20.519531 12.503906 17.691406 9.675781 C 15.347656 7.332031 11.554688 7.332031 9.210938 9.675781 C 6.867188 12.019531 6.867188 15.8125 9.210938 18.15625 C 12.015625 20.960938 18.152344 24.9375 23.484375 28.136719 C 17.449219 26.605469 10.28125 25.039062 6.28125 25.039062 C 2.964844 25.039062 0.28125 27.722656 0.28125 31.035156 C 0.28125 34.351562 2.964844 37.035156 6.28125 37.035156 C 10.25 37.035156 17.40625 35.507812 23.441406 33.996094 C 18.089844 37.179688 11.914062 41.140625 9.085938 43.972656 C 6.742188 46.316406 6.742188 50.105469 9.085938 52.449219 C 11.429688 54.792969 15.222656 54.792969 17.566406 52.449219 C 20.371094 49.644531 24.347656 43.507812 27.546875 38.175781 C 26.015625 44.210938 24.449219 51.378906 24.449219 55.378906 C 24.449219 58.695312 27.132812 61.378906 30.445312 61.378906 C 33.761719 61.378906 36.445312 58.695312 36.445312 55.378906 C 36.445312 51.410156 34.917969 44.257812 33.40625 38.21875 C 36.589844 43.570312 40.550781 49.742188 43.382812 52.574219 C 45.726562 54.917969 49.519531 54.917969 51.863281 52.574219 C 54.207031 50.230469 54.207031 46.4375 51.863281 44.09375 C 49.054688 41.289062 42.917969 37.3125 37.585938 34.113281 C 43.621094 35.648438 50.789062 37.210938 54.789062 37.210938 C 58.105469 37.210938 60.789062 34.527344 60.789062 31.214844 C 60.789062 27.898438 58.105469 25.214844 54.789062 25.214844 Z M 54.789062 25.214844 " clip-rule="nonzero"/></clipPath><clipPath id="094a1496b5"><rect x="0" width="61" y="0" height="62"/></clipPath><clipPath id="7d3b398953"><path d="M 460.417969 341.835938 L 507.1875 341.835938 L 507.1875 388.605469 L 460.417969 388.605469 Z M 460.417969 341.835938 " clip-rule="nonzero"/></clipPath><clipPath id="adae47f8ea"><path d="M 502.550781 360.652344 C 499.480469 360.652344 493.953125 361.835938 489.285156 363 C 493.421875 360.539062 498.195312 357.476562 500.382812 355.292969 C 502.191406 353.480469 502.191406 350.546875 500.382812 348.738281 C 498.570312 346.925781 495.636719 346.925781 493.828125 348.738281 C 491.65625 350.90625 488.582031 355.648438 486.109375 359.773438 C 487.296875 355.105469 488.507812 349.566406 488.507812 346.472656 C 488.507812 343.910156 486.433594 341.835938 483.871094 341.835938 C 481.308594 341.835938 479.234375 343.910156 479.234375 346.472656 C 479.234375 349.539062 480.414062 355.070312 481.582031 359.738281 C 479.121094 355.601562 476.058594 350.828125 473.871094 348.640625 C 472.0625 346.828125 469.128906 346.828125 467.316406 348.640625 C 465.507812 350.453125 465.507812 353.382812 467.316406 355.195312 C 469.484375 357.363281 474.230469 360.4375 478.351562 362.910156 C 473.6875 361.726562 468.144531 360.515625 465.054688 360.515625 C 462.488281 360.515625 460.417969 362.589844 460.417969 365.152344 C 460.417969 367.714844 462.488281 369.789062 465.054688 369.789062 C 468.121094 369.789062 473.652344 368.609375 478.316406 367.441406 C 474.179688 369.902344 469.410156 372.964844 467.222656 375.152344 C 465.410156 376.964844 465.410156 379.894531 467.222656 381.703125 C 469.035156 383.515625 471.964844 383.515625 473.777344 381.703125 C 475.945312 379.535156 479.019531 374.792969 481.492188 370.671875 C 480.308594 375.335938 479.097656 380.878906 479.097656 383.96875 C 479.097656 386.53125 481.171875 388.605469 483.734375 388.605469 C 486.296875 388.605469 488.367188 386.53125 488.367188 383.96875 C 488.367188 380.902344 487.191406 375.371094 486.019531 370.707031 C 488.480469 374.839844 491.542969 379.613281 493.730469 381.800781 C 495.542969 383.613281 498.476562 383.613281 500.285156 381.800781 C 502.097656 379.988281 502.097656 377.058594 500.285156 375.246094 C 498.117188 373.078125 493.375 370.003906 489.25 367.53125 C 493.914062 368.714844 499.457031 369.925781 502.550781 369.925781 C 505.113281 369.925781 507.1875 367.851562 507.1875 365.289062 C 507.1875 362.726562 505.113281 360.652344 502.550781 360.652344 Z M 502.550781 360.652344 " clip-rule="nonzero"/></clipPath><clipPath id="1b6cab39e1"><path d="M 0.417969 0.835938 L 47.1875 0.835938 L 47.1875 47.605469 L 0.417969 47.605469 Z M 0.417969 0.835938 " clip-rule="nonzero"/></clipPath><clipPath id="c9c291baa9"><path d="M 42.550781 19.652344 C 39.480469 19.652344 33.953125 20.835938 29.285156 22 C 33.421875 19.539062 38.195312 16.476562 40.382812 14.292969 C 42.191406 12.480469 42.191406 9.546875 40.382812 7.738281 C 38.570312 5.925781 35.636719 5.925781 33.828125 7.738281 C 31.65625 9.90625 28.582031 14.648438 26.109375 18.773438 C 27.296875 14.105469 28.507812 8.566406 28.507812 5.472656 C 28.507812 2.910156 26.433594 0.835938 23.871094 0.835938 C 21.308594 0.835938 19.234375 2.910156 19.234375 5.472656 C 19.234375 8.539062 20.414062 14.070312 21.582031 18.738281 C 19.121094 14.601562 16.058594 9.828125 13.871094 7.640625 C 12.0625 5.828125 9.128906 5.828125 7.316406 7.640625 C 5.507812 9.453125 5.507812 12.382812 7.316406 14.195312 C 9.484375 16.363281 14.230469 19.4375 18.351562 21.910156 C 13.6875 20.726562 8.144531 19.515625 5.054688 19.515625 C 2.488281 19.515625 0.417969 21.589844 0.417969 24.152344 C 0.417969 26.714844 2.488281 28.789062 5.054688 28.789062 C 8.121094 28.789062 13.652344 27.609375 18.316406 26.441406 C 14.179688 28.902344 9.410156 31.964844 7.222656 34.152344 C 5.410156 35.964844 5.410156 38.894531 7.222656 40.703125 C 9.035156 42.515625 11.964844 42.515625 13.777344 40.703125 C 15.945312 38.535156 19.019531 33.792969 21.492188 29.671875 C 20.308594 34.335938 19.097656 39.878906 19.097656 42.96875 C 19.097656 45.53125 21.171875 47.605469 23.734375 47.605469 C 26.296875 47.605469 28.367188 45.53125 28.367188 42.96875 C 28.367188 39.902344 27.191406 34.371094 26.019531 29.707031 C 28.480469 33.839844 31.542969 38.613281 33.730469 40.800781 C 35.542969 42.613281 38.476562 42.613281 40.285156 40.800781 C 42.097656 38.988281 42.097656 36.058594 40.285156 34.246094 C 38.117188 32.078125 33.375 29.003906 29.25 26.53125 C 33.914062 27.714844 39.457031 28.925781 42.550781 28.925781 C 45.113281 28.925781 47.1875 26.851562 47.1875 24.289062 C 47.1875 21.726562 45.113281 19.652344 42.550781 19.652344 Z M 42.550781 19.652344 " clip-rule="nonzero"/></clipPath><clipPath id="f67c68570d"><rect x="0" width="48" y="0" height="48"/></clipPath></defs><rect x="-75" width="900" fill="#ffffff" y="-74.999999" height="899.999994" fill-opacity="1"/><rect x="-75" width="900" fill="#ffffff" y="-74.999999" height="899.999994" fill-opacity="1"/><g clip-path="url(#8b82057c41)"><g clip-path="url(#745b6225d4)"><g transform="matrix(1, 0, 0, 1, 195, 526)"><g clip-path="url(#1e64a9729e)"><g clip-path="url(#6640c88aee)"><g clip-path="url(#2e2e681340)"><path fill="#ffde59" d="M 0.289062 0.160156 L 329.234375 0.160156 L 329.234375 90.902344 L 0.289062 90.902344 Z M 0.289062 0.160156 " fill-opacity="1" fill-rule="nonzero"/></g></g></g></g></g></g><g clip-path="url(#03dbd0a373)"><g clip-path="url(#c6edf68dc4)"><path stroke-linecap="butt" transform="matrix(0.75, 0, 0, 0.75, 195.29305, 526.159674)" fill="none" stroke-linejoin="miter" d="M 219.223875 0.000642522 C 98.150944 0.000642522 -0.000108244 27.083979 -0.000108244 60.490233 C -0.000108244 93.901695 98.150944 120.985031 219.223875 120.985031 C 340.296805 120.985031 438.44265 93.901695 438.44265 60.490233 C 438.44265 27.083979 340.296805 0.000642522 219.223875 0.000642522 Z M 219.223875 0.000642522 " stroke="#000000" stroke-width="16" stroke-opacity="1" stroke-miterlimit="4"/></g></g><g clip-path="url(#caa923fd62)"><g clip-path="url(#09b6263948)"><g transform="matrix(1, 0, 0, 1, 194, 515)"><g clip-path="url(#c3eff7bdf6)"><g clip-path="url(#ab650efea9)"><g clip-path="url(#cf8836ec7a)"><path fill="#ffde59" d="M 0.539062 0.660156 L 329.484375 0.660156 L 329.484375 91.402344 L 0.539062 91.402344 Z M 0.539062 0.660156 " fill-opacity="1" fill-rule="nonzero"/></g></g></g></g></g></g><g clip-path="url(#caf13e0b2d)"><g clip-path="url(#d2a10cb5c2)"><path stroke-linecap="butt" transform="matrix(0.75, 0, 0, 0.75, 194.54305, 515.659675)" fill="none" stroke-linejoin="miter" d="M 219.223875 0.00064184 C 98.150944 0.00064184 -0.000108292 27.083978 -0.000108292 60.490232 C -0.000108292 93.901694 98.150944 120.98503 219.223875 120.98503 C 340.296805 120.98503 438.442649 93.901694 438.442649 60.490232 C 438.442649 27.083978 340.296805 0.00064184 219.223875 0.00064184 Z M 219.223875 0.00064184 " stroke="#000000" stroke-width="16" stroke-opacity="1" stroke-miterlimit="4"/></g></g><g clip-path="url(#687e6918e4)"><g clip-path="url(#a79a7542bd)"><g transform="matrix(1, 0, 0, 1, 257, 539)"><g clip-path="url(#81946fcf88)"><g clip-path="url(#eb90c33fb4)"><g clip-path="url(#1a574bc6ee)"><path fill="#efcd45" d="M 0.3125 0.226562 L 209.3125 0.226562 L 209.3125 51.132812 L 0.3125 51.132812 Z M 0.3125 0.226562 " fill-opacity="1" fill-rule="nonzero"/></g></g></g></g></g></g><g clip-path="url(#1b163b70ea)"><g transform="matrix(1, 0, 0, 1, 288, 342)"><g clip-path="url(#32f1b011f8)"><g clip-path="url(#f3c7e319e3)"><path fill="#ffeb99" d="M 0.582031 0.9375 L 140.175781 0.9375 L 140.175781 226.144531 L 0.582031 226.144531 Z M 0.582031 0.9375 " fill-opacity="1" fill-rule="nonzero"/></g></g></g></g><g clip-path="url(#4fde19a36d)"><path stroke-linecap="butt" transform="matrix(0.75, 0, 0, 0.75, 288.581269, 342.937971)" fill="none" stroke-linejoin="miter" d="M 0.00101688 -0.000628383 L 186.126026 -0.000628383 L 186.126026 299.994178 L 0.00101688 299.994178 Z M 0.00101688 -0.000628383 " stroke="#000000" stroke-width="30" stroke-opacity="1" stroke-miterlimit="4"/></g><g fill="#000000" fill-opacity="1"><g transform="translate(250.537468, 721.331481)"><g><path d="M 5.03125 0 L 5.03125 -12.234375 C 12.46875 -19.023438 18.984375 -25.335938 24.578125 -31.171875 C 30.179688 -37.015625 34.539062 -42.472656 37.65625 -47.546875 C 40.769531 -52.628906 42.328125 -57.328125 42.328125 -61.640625 C 42.328125 -65.710938 41.269531 -68.828125 39.15625 -70.984375 C 37.039062 -73.148438 34.222656 -74.234375 30.703125 -74.234375 C 27.660156 -74.234375 24.898438 -73.375 22.421875 -71.65625 C 19.941406 -69.9375 17.664062 -67.914062 15.59375 -65.59375 L 3.953125 -77.109375 C 8.347656 -81.742188 12.804688 -85.203125 17.328125 -87.484375 C 21.847656 -89.765625 27.265625 -90.90625 33.578125 -90.90625 C 39.335938 -90.90625 44.414062 -89.742188 48.8125 -87.421875 C 53.207031 -85.109375 56.644531 -81.851562 59.125 -77.65625 C 61.601562 -73.457031 62.84375 -68.519531 62.84375 -62.84375 C 62.84375 -57.726562 61.539062 -52.507812 58.9375 -47.1875 C 56.34375 -41.875 53.003906 -36.640625 48.921875 -31.484375 C 44.847656 -26.328125 40.535156 -21.429688 35.984375 -16.796875 C 38.210938 -17.109375 40.6875 -17.382812 43.40625 -17.625 C 46.125 -17.863281 48.484375 -17.984375 50.484375 -17.984375 L 66.921875 -17.984375 L 66.921875 0 Z M 5.03125 0 "/></g></g></g><g fill="#000000" fill-opacity="1"><g transform="translate(323.567524, 721.331481)"><g><path d="M 9.359375 0 L 9.359375 -17.265625 L 28.296875 -17.265625 L 28.296875 -68 L 11.875 -68 L 11.875 -81.1875 C 16.664062 -82.0625 20.757812 -83.140625 24.15625 -84.421875 C 27.5625 -85.703125 30.820312 -87.300781 33.9375 -89.21875 L 49.640625 -89.21875 L 49.640625 -17.265625 L 65.71875 -17.265625 L 65.71875 0 Z M 9.359375 0 "/></g></g></g><g fill="#000000" fill-opacity="1"><g transform="translate(396.597581, 721.331481)"><g><path d="M 31.78125 -72.3125 L 31.78125 -48.328125 L 41.375 -48.328125 C 51.769531 -48.328125 56.96875 -52.601562 56.96875 -61.15625 C 56.96875 -65.394531 55.644531 -68.3125 53 -69.90625 C 50.363281 -71.507812 46.488281 -72.3125 41.375 -72.3125 Z M 82.5 0 L 58.515625 0 L 42.09375 -31.421875 L 31.78125 -31.421875 L 31.78125 0 L 10.3125 0 L 10.3125 -89.21875 L 43.046875 -89.21875 C 49.441406 -89.21875 55.273438 -88.378906 60.546875 -86.703125 C 65.828125 -85.023438 70.046875 -82.144531 73.203125 -78.0625 C 76.367188 -73.988281 77.953125 -68.351562 77.953125 -61.15625 C 77.953125 -54.601562 76.550781 -49.207031 73.75 -44.96875 C 70.957031 -40.726562 67.238281 -37.53125 62.59375 -35.375 Z M 82.5 0 "/></g></g></g><g clip-path="url(#93bfdb8684)"><g transform="matrix(1, 0, 0, 1, 361, 280)"><g clip-path="url(#151e4adf62)"><g clip-path="url(#77f2e9d2a0)"><path fill="#d9d9d9" d="M 0.832031 0.578125 L 13.25 0.578125 L 13.25 32.203125 L 0.832031 32.203125 Z M 0.832031 0.578125 " fill-opacity="1" fill-rule="nonzero"/></g></g></g></g><g clip-path="url(#e6a2607818)"><path stroke-linecap="butt" transform="matrix(0.75, 0, 0, 0.75, 361.833441, 280.583445)" fill="none" stroke-linejoin="miter" d="M -0.00187969 -0.00188464 L 16.544996 -0.00188464 L 16.544996 42.159576 L -0.00187969 42.159576 Z M -0.00187969 -0.00188464 " stroke="#000000" stroke-width="10" stroke-opacity="1" stroke-miterlimit="4"/></g><g clip-path="url(#e8b5c5d7dd)"><g clip-path="url(#9da8fa3bc9)"><g transform="matrix(1, 0, 0, 1, 539, 289)"><g clip-path="url(#4ae0325458)"><g clip-path="url(#88df6945d4)"><g clip-path="url(#7d7aa34226)"><path fill="#ffeb99" d="M 59.898438 0.957031 L 59.898438 125.71875 L 0.421875 125.71875 L 0.421875 0.957031 Z M 59.898438 0.957031 " fill-opacity="1" fill-rule="nonzero"/></g></g></g></g></g></g><g clip-path="url(#4bba24d0d2)"><g clip-path="url(#0e8aaa73db)"><path stroke-linecap="butt" transform="matrix(0, 0.75, -0.75, 0, 598.898517, 289.958941)" fill="none" stroke-linejoin="miter" d="M 166.289128 79.296985 C 166.289128 36.104275 128.429751 0.000106618 83.143291 0.000106618 C 37.85683 0.000106618 -0.00254643 36.104275 -0.00254643 79.296985 L 46.164122 79.296985 C 46.164122 60.088651 63.002665 44.031359 83.143291 44.031359 C 103.283917 44.031359 120.122459 60.088651 120.122459 79.296985 Z M 166.289128 79.296985 " stroke="#000000" stroke-width="26" stroke-opacity="1" stroke-miterlimit="4"/></g></g><g clip-path="url(#13c174d71e)"><g clip-path="url(#d02956f741)"><g transform="matrix(1, 0, 0, 1, 167, 289)"><g clip-path="url(#dc527d83ed)"><g clip-path="url(#19d19b9312)"><g clip-path="url(#ba24f84a07)"><path fill="#ffeb99" d="M 0.265625 0.957031 L 382.308594 0.957031 L 382.308594 182.410156 L 0.265625 182.410156 Z M 0.265625 0.957031 " fill-opacity="1" fill-rule="nonzero"/></g></g></g></g></g></g><g clip-path="url(#ea7de036b6)"><g clip-path="url(#1401f839b9)"><path stroke-linecap="butt" transform="matrix(0.75, 0, 0, 0.75, 167.264687, 289.955864)" fill="none" stroke-linejoin="miter" d="M 169.969998 234.897386 C 196.100206 239.147386 225.80333 241.939052 254.954371 241.939052 C 284.110621 241.939052 312.162704 239.548427 338.01687 235.298427 C 338.568953 235.163011 339.115828 235.163011 339.667912 235.032802 C 436.756452 218.032803 508.261659 173.147387 509.636659 121.980721 L 509.636659 0.00155597 L 0.00125027 0.00155597 L 0.00125027 121.886971 C 1.37625 173.413012 71.782499 218.298428 169.969998 234.897386 Z M 169.969998 234.897386 " stroke="#000000" stroke-width="30" stroke-opacity="1" stroke-miterlimit="4"/></g></g><g clip-path="url(#4d2b7c9243)"><g clip-path="url(#460518c433)"><g transform="matrix(1, 0, 0, 1, 167, 363)"><g clip-path="url(#e44d38bc81)"><g clip-path="url(#f75d5cb6cf)"><g clip-path="url(#2975f1b70e)"><path fill="#ffeb99" d="M 382.496094 170.21875 L 0.179688 170.21875 L 0.179688 0.296875 L 382.496094 0.296875 Z M 382.496094 170.21875 " fill-opacity="1" fill-rule="nonzero"/></g></g></g></g></g></g><g clip-path="url(#3cf99e7b55)"><g clip-path="url(#ca60f2b378)"><path stroke-linecap="butt" transform="matrix(-0.75, 0, 0, -0.75, 549.485304, 533.216946)" fill="none" stroke-linejoin="miter" d="M 509.615847 226.544481 C 509.615847 103.148641 393.600216 -0.00240531 254.808543 -0.00240531 C 116.016869 -0.00240531 0.0012385 103.148641 0.0012385 226.544481 Z M 509.615847 226.544481 " stroke="#000000" stroke-width="30" stroke-opacity="1" stroke-miterlimit="4"/></g></g><g clip-path="url(#62b372c40a)"><g transform="matrix(1, 0, 0, 1, 179, 327)"><g clip-path="url(#4788a1fbea)"><g clip-path="url(#2009404daa)"><path fill="#ffeb99" d="M 0.71875 0.703125 L 359.164062 0.703125 L 359.164062 53.683594 L 0.71875 53.683594 Z M 0.71875 0.703125 " fill-opacity="1" fill-rule="nonzero"/></g></g></g></g><g clip-path="url(#d743367076)"><g transform="matrix(1, 0, 0, 1, 445, 300)"><g clip-path="url(#c00181a78f)"><g clip-path="url(#9d22802ca5)"><path fill="#ffeb99" d="M 0.117188 0.925781 L 104.503906 0.925781 L 104.503906 17.566406 L 0.117188 17.566406 Z M 0.117188 0.925781 " fill-opacity="1" fill-rule="nonzero"/></g></g></g></g><g clip-path="url(#077bb9990b)"><g transform="matrix(1, 0, 0, 1, 445, 388)"><g clip-path="url(#9ccfc93d50)"><g clip-path="url(#938a0af531)"><path fill="#ffeb99" d="M 0.117188 0.605469 L 104.484375 0.605469 L 104.484375 14.96875 L 0.117188 14.96875 Z M 0.117188 0.605469 " fill-opacity="1" fill-rule="nonzero"/></g></g></g></g><g clip-path="url(#71d3421bda)"><g transform="matrix(1, 0, 0, 1, 309, 268)"><g clip-path="url(#8a3854cb20)"><g clip-path="url(#03e21ac3a7)"><path fill="#d9d9d9" d="M 0.710938 0.332031 L 113.320312 0.332031 L 113.320312 15.796875 L 0.710938 15.796875 Z M 0.710938 0.332031 " fill-opacity="1" fill-rule="nonzero"/></g></g></g></g><g clip-path="url(#f8e88d969a)"><path stroke-linecap="butt" transform="matrix(0.75, 0, 0, 0.75, 309.737918, 268.330555)" fill="none" stroke-linejoin="miter" d="M 0.000484393 0.00196844 L 150.083825 0.00196844 L 150.083825 20.611344 L 0.000484393 20.611344 Z M 0.000484393 0.00196844 " stroke="#000000" stroke-width="10" stroke-opacity="1" stroke-miterlimit="4"/></g><g clip-path="url(#c757db4e2d)"><g clip-path="url(#31a38e3dd8)"><g transform="matrix(1, 0, 0, 1, 179, 338)"><g clip-path="url(#2041089d1b)"><g clip-path="url(#755b290420)"><g clip-path="url(#338089bb81)"><path fill="#7ed957" d="M 0.71875 0.0585938 L 360.394531 0.0585938 L 360.394531 26.484375 L 0.71875 26.484375 Z M 0.71875 0.0585938 " fill-opacity="1" fill-rule="nonzero"/></g></g></g></g></g></g><g clip-path="url(#8bd393d72b)"><g clip-path="url(#0e0e7053b9)"><g transform="matrix(1, 0, 0, 1, 212, 317)"><g clip-path="url(#48e7c65acb)"><g clip-path="url(#47f65b4d6a)"><g clip-path="url(#5b492517f2)"><path fill="#ffa51f" d="M 0.527344 0.566406 L 63.644531 0.566406 L 63.644531 63.683594 L 0.527344 63.683594 Z M 0.527344 0.566406 " fill-opacity="1" fill-rule="nonzero"/></g></g></g></g></g></g><g clip-path="url(#ed29662c97)"><g clip-path="url(#066ed4bfaa)"><g transform="matrix(1, 0, 0, 1, 304, 347)"><g clip-path="url(#c10eea736a)"><g clip-path="url(#e00968b5da)"><g clip-path="url(#3bed2e008c)"><path fill="#ffbd59" d="M 0.449219 0.777344 L 41.277344 0.777344 L 41.277344 41.605469 L 0.449219 41.605469 Z M 0.449219 0.777344 " fill-opacity="1" fill-rule="nonzero"/></g></g></g></g></g></g><g clip-path="url(#c2dbd40e8d)"><g clip-path="url(#c48215a1d8)"><g transform="matrix(1, 0, 0, 1, 377, 318)"><g clip-path="url(#094a1496b5)"><g clip-path="url(#c687d8e013)"><g clip-path="url(#d7335b968a)"><path fill="#ffa51f" d="M 0.28125 0.871094 L 60.789062 0.871094 L 60.789062 61.378906 L 0.28125 61.378906 Z M 0.28125 0.871094 " fill-opacity="1" fill-rule="nonzero"/></g></g></g></g></g></g><g clip-path="url(#7d3b398953)"><g clip-path="url(#adae47f8ea)"><g transform="matrix(1, 0, 0, 1, 460, 341)"><g clip-path="url(#f67c68570d)"><g clip-path="url(#1b6cab39e1)"><g clip-path="url(#c9c291baa9)"><path fill="#ffbd59" d="M 0.417969 0.835938 L 47.1875 0.835938 L 47.1875 47.605469 L 0.417969 47.605469 Z M 0.417969 0.835938 " fill-opacity="1" fill-rule="nonzero"/></g></g></g></g></g></g></svg>