<svg xmlns="http://www.w3.org/2000/svg" xmlns:xlink="http://www.w3.org/1999/xlink" width="1000" zoomAndPan="magnify" viewBox="0 0 750 749.999995" height="1000" preserveAspectRatio="xMidYMid meet" version="1.0"><defs><g/><clipPath id="af05b9cf87"><path d="M 164.558594 134.210938 L 585.441406 134.210938 L 585.441406 555.09375 L 164.558594 555.09375 Z M 164.558594 134.210938 " clip-rule="nonzero"/></clipPath><clipPath id="68e03b39c0"><path d="M 375 134.210938 C 258.777344 134.210938 164.558594 228.429688 164.558594 344.652344 C 164.558594 460.875 258.777344 555.09375 375 555.09375 C 491.222656 555.09375 585.441406 460.875 585.441406 344.652344 C 585.441406 228.429688 491.222656 134.210938 375 134.210938 Z M 375 134.210938 " clip-rule="nonzero"/></clipPath><clipPath id="1fee8eb0b3"><path d="M 0.558594 0.210938 L 421.441406 0.210938 L 421.441406 421.09375 L 0.558594 421.09375 Z M 0.558594 0.210938 " clip-rule="nonzero"/></clipPath><clipPath id="5bb122e45a"><path d="M 211 0.210938 C 94.777344 0.210938 0.558594 94.429688 0.558594 210.652344 C 0.558594 326.875 94.777344 421.09375 211 421.09375 C 327.222656 421.09375 421.441406 326.875 421.441406 210.652344 C 421.441406 94.429688 327.222656 0.210938 211 0.210938 Z M 211 0.210938 " clip-rule="nonzero"/></clipPath><clipPath id="a61b60d4d5"><rect x="0" width="422" y="0" height="422"/></clipPath><clipPath id="22c12fd79a"><path d="M 164.558594 134.210938 L 585.308594 134.210938 L 585.308594 554.960938 L 164.558594 554.960938 Z M 164.558594 134.210938 " clip-rule="nonzero"/></clipPath><clipPath id="dc4a041a83"><path d="M 375 134.210938 C 258.777344 134.210938 164.558594 228.429688 164.558594 344.652344 C 164.558594 460.875 258.777344 555.089844 375 555.089844 C 491.222656 555.089844 585.4375 460.875 585.4375 344.652344 C 585.4375 228.429688 491.222656 134.210938 375 134.210938 Z M 375 134.210938 " clip-rule="nonzero"/></clipPath><clipPath id="99af264a74"><path d="M 184.875 154.527344 L 565.125 154.527344 L 565.125 534.78125 L 184.875 534.78125 Z M 184.875 154.527344 " clip-rule="nonzero"/></clipPath><clipPath id="558aaaee3e"><path d="M 375 154.527344 C 269.996094 154.527344 184.875 239.648438 184.875 344.652344 C 184.875 449.65625 269.996094 534.78125 375 534.78125 C 480.003906 534.78125 565.125 449.65625 565.125 344.652344 C 565.125 239.648438 480.003906 154.527344 375 154.527344 Z M 375 154.527344 " clip-rule="nonzero"/></clipPath><clipPath id="b5b8c7d959"><path d="M 0.875 0.527344 L 381.125 0.527344 L 381.125 380.78125 L 0.875 380.78125 Z M 0.875 0.527344 " clip-rule="nonzero"/></clipPath><clipPath id="033ff2e65b"><path d="M 191 0.527344 C 85.996094 0.527344 0.875 85.648438 0.875 190.652344 C 0.875 295.65625 85.996094 380.78125 191 380.78125 C 296.003906 380.78125 381.125 295.65625 381.125 190.652344 C 381.125 85.648438 296.003906 0.527344 191 0.527344 Z M 191 0.527344 " clip-rule="nonzero"/></clipPath><clipPath id="0015c947e6"><rect x="0" width="382" y="0" height="381"/></clipPath><clipPath id="eb49f32d50"><path d="M 184.875 154.527344 L 565.125 154.527344 L 565.125 534.777344 L 184.875 534.777344 Z M 184.875 154.527344 " clip-rule="nonzero"/></clipPath><clipPath id="f9b68a86f9"><path d="M 375 154.527344 C 269.996094 154.527344 184.875 239.648438 184.875 344.652344 C 184.875 449.65625 269.996094 534.777344 375 534.777344 C 480 534.777344 565.125 449.65625 565.125 344.652344 C 565.125 239.648438 480 154.527344 375 154.527344 Z M 375 154.527344 " clip-rule="nonzero"/></clipPath><clipPath id="a56008a0dd"><path d="M 214.605469 184.257812 L 535.394531 184.257812 L 535.394531 505.046875 L 214.605469 505.046875 Z M 214.605469 184.257812 " clip-rule="nonzero"/></clipPath><clipPath id="ca7e7f2b19"><path d="M 375 184.257812 C 286.414062 184.257812 214.605469 256.070312 214.605469 344.652344 C 214.605469 433.238281 286.414062 505.046875 375 505.046875 C 463.585938 505.046875 535.394531 433.238281 535.394531 344.652344 C 535.394531 256.070312 463.585938 184.257812 375 184.257812 Z M 375 184.257812 " clip-rule="nonzero"/></clipPath><clipPath id="4d6b5a7d5b"><path d="M 0.605469 0.257812 L 321.394531 0.257812 L 321.394531 321.046875 L 0.605469 321.046875 Z M 0.605469 0.257812 " clip-rule="nonzero"/></clipPath><clipPath id="c21ca161fd"><path d="M 161 0.257812 C 72.414062 0.257812 0.605469 72.070312 0.605469 160.652344 C 0.605469 249.238281 72.414062 321.046875 161 321.046875 C 249.585938 321.046875 321.394531 249.238281 321.394531 160.652344 C 321.394531 72.070312 249.585938 0.257812 161 0.257812 Z M 161 0.257812 " clip-rule="nonzero"/></clipPath><clipPath id="85c785bedb"><rect x="0" width="322" y="0" height="322"/></clipPath><clipPath id="b19edeab9d"><path d="M 334.480469 163.367188 L 415.515625 163.367188 L 415.515625 351.25 L 334.480469 351.25 Z M 334.480469 163.367188 " clip-rule="nonzero"/></clipPath><clipPath id="25cfc84c2c"><path d="M 414.683594 191.949219 L 381.207031 346.035156 C 380.574219 348.957031 377.988281 351.042969 375 351.042969 C 372.007812 351.042969 369.421875 348.957031 368.789062 346.035156 L 335.3125 191.949219 C 333.796875 184.980469 335.519531 177.699219 339.996094 172.148438 C 344.472656 166.59375 351.21875 163.367188 358.351562 163.367188 L 391.644531 163.367188 C 398.777344 163.367188 405.523438 166.59375 410 172.148438 C 414.476562 177.699219 416.199219 184.980469 414.683594 191.949219 Z M 414.683594 191.949219 " clip-rule="nonzero"/></clipPath><clipPath id="1a85526f0f"><path d="M 0.480469 0.367188 L 81.515625 0.367188 L 81.515625 188.121094 L 0.480469 188.121094 Z M 0.480469 0.367188 " clip-rule="nonzero"/></clipPath><clipPath id="cf590b9214"><path d="M 80.683594 28.949219 L 47.207031 183.035156 C 46.574219 185.957031 43.988281 188.042969 41 188.042969 C 38.007812 188.042969 35.421875 185.957031 34.789062 183.035156 L 1.3125 28.949219 C -0.203125 21.980469 1.519531 14.699219 5.996094 9.148438 C 10.472656 3.59375 17.21875 0.367188 24.351562 0.367188 L 57.644531 0.367188 C 64.777344 0.367188 71.523438 3.59375 76 9.148438 C 80.476562 14.699219 82.199219 21.980469 80.683594 28.949219 Z M 80.683594 28.949219 " clip-rule="nonzero"/></clipPath><clipPath id="c4a1465dc8"><rect x="0" width="82" y="0" height="189"/></clipPath><clipPath id="c94d920ffa"><path d="M 368 212 L 534 212 L 534 352 L 368 352 Z M 368 212 " clip-rule="nonzero"/></clipPath><clipPath id="9ac000c36b"><path d="M 494.824219 203.265625 L 543.570312 267.996094 L 393.488281 381.019531 L 344.742188 316.289062 Z M 494.824219 203.265625 " clip-rule="nonzero"/></clipPath><clipPath id="e29a3b4bd0"><path d="M 520.238281 284.527344 L 377.011719 350.480469 C 374.296875 351.730469 371.078125 350.917969 369.28125 348.53125 C 367.480469 346.140625 367.589844 342.824219 369.542969 340.558594 L 472.492188 221.125 C 477.148438 215.722656 484 212.71875 491.128906 212.953125 C 498.257812 213.1875 504.894531 216.636719 509.183594 222.335938 L 529.210938 248.929688 C 533.503906 254.625 534.984375 261.957031 533.238281 268.875 C 531.496094 275.789062 526.71875 281.542969 520.238281 284.527344 Z M 520.238281 284.527344 " clip-rule="nonzero"/></clipPath><clipPath id="6cadcc7f55"><path d="M 0 0.640625 L 166 0.640625 L 166 139.839844 L 0 139.839844 Z M 0 0.640625 " clip-rule="nonzero"/></clipPath><clipPath id="a1e5c8c85a"><path d="M 126.824219 -8.734375 L 175.570312 55.996094 L 25.488281 169.019531 L -23.257812 104.289062 Z M 126.824219 -8.734375 " clip-rule="nonzero"/></clipPath><clipPath id="670c3af37d"><path d="M 152.238281 72.527344 L 9.011719 138.480469 C 6.296875 139.730469 3.078125 138.917969 1.28125 136.53125 C -0.519531 134.140625 -0.410156 130.824219 1.542969 128.558594 L 104.492188 9.125 C 109.148438 3.722656 116 0.71875 123.128906 0.953125 C 130.257812 1.1875 136.894531 4.636719 141.183594 10.335938 L 161.210938 36.929688 C 165.503906 42.625 166.984375 49.957031 165.238281 56.875 C 163.496094 63.789062 158.71875 69.542969 152.238281 72.527344 Z M 152.238281 72.527344 " clip-rule="nonzero"/></clipPath><clipPath id="e22d2b2b80"><rect x="0" width="166" y="0" height="140"/></clipPath><clipPath id="7c0a6fdc21"><path d="M 369 336 L 550 336 L 550 449 L 369 449 Z M 369 336 " clip-rule="nonzero"/></clipPath><clipPath id="7a46820ec8"><path d="M 557.335938 383.832031 L 522.550781 457.015625 L 352.863281 376.355469 L 387.652344 303.171875 Z M 557.335938 383.832031 " clip-rule="nonzero"/></clipPath><clipPath id="5865161d35"><path d="M 497.09375 443.996094 L 372.300781 347.609375 C 369.933594 345.78125 369.160156 342.554688 370.445312 339.851562 C 371.726562 337.152344 374.71875 335.714844 377.628906 336.394531 L 531.167969 372.3125 C 538.109375 373.9375 543.945312 378.617188 547.039062 385.042969 C 550.132812 391.46875 550.152344 398.949219 547.089844 405.390625 L 532.796875 435.457031 C 529.734375 441.898438 523.921875 446.609375 516.988281 448.265625 C 510.050781 449.925781 502.734375 448.355469 497.09375 443.996094 Z M 497.09375 443.996094 " clip-rule="nonzero"/></clipPath><clipPath id="bca436e721"><path d="M 0.121094 0 L 181 0 L 181 113 L 0.121094 113 Z M 0.121094 0 " clip-rule="nonzero"/></clipPath><clipPath id="a5904170e0"><path d="M 188.335938 47.832031 L 153.550781 121.015625 L -16.136719 40.355469 L 18.652344 -32.828125 Z M 188.335938 47.832031 " clip-rule="nonzero"/></clipPath><clipPath id="4548925ea3"><path d="M 128.09375 107.996094 L 3.300781 11.609375 C 0.933594 9.78125 0.160156 6.554688 1.445312 3.851562 C 2.726562 1.152344 5.71875 -0.285156 8.628906 0.394531 L 162.167969 36.3125 C 169.109375 37.9375 174.945312 42.617188 178.039062 49.042969 C 181.132812 55.46875 181.152344 62.949219 178.089844 69.390625 L 163.796875 99.457031 C 160.734375 105.898438 154.921875 110.609375 147.988281 112.265625 C 141.050781 113.925781 133.734375 112.355469 128.09375 107.996094 Z M 128.09375 107.996094 " clip-rule="nonzero"/></clipPath><clipPath id="69c721858a"><rect x="0" width="181" y="0" height="113"/></clipPath><clipPath id="63c1444b0c"><path d="M 338 338 L 420 338 L 420 527 L 338 527 Z M 338 338 " clip-rule="nonzero"/></clipPath><clipPath id="4a0dd52433"><path d="M 420.214844 525.589844 L 339.203125 527.398438 L 335.011719 339.5625 L 416.027344 337.753906 Z M 420.214844 525.589844 " clip-rule="nonzero"/></clipPath><clipPath id="6716d9c207"><path d="M 339.394531 498.804688 L 369.429688 344.007812 C 369.996094 341.074219 372.535156 338.933594 375.523438 338.867188 C 378.511719 338.796875 381.144531 340.824219 381.84375 343.730469 L 418.746094 497.03125 C 420.417969 503.96875 418.855469 511.285156 414.507812 516.933594 C 410.15625 522.585938 403.480469 525.960938 396.351562 526.121094 L 363.066406 526.863281 C 355.9375 527.023438 349.117188 523.945312 344.519531 518.496094 C 339.921875 513.042969 338.039062 505.804688 339.394531 498.804688 Z M 339.394531 498.804688 " clip-rule="nonzero"/></clipPath><clipPath id="28dd8cc297"><path d="M 0 0.640625 L 82 0.640625 L 82 189 L 0 189 Z M 0 0.640625 " clip-rule="nonzero"/></clipPath><clipPath id="121052d54c"><path d="M 82.214844 187.589844 L 1.203125 189.398438 L -2.988281 1.5625 L 78.027344 -0.246094 Z M 82.214844 187.589844 " clip-rule="nonzero"/></clipPath><clipPath id="aaf7934494"><path d="M 1.394531 160.804688 L 31.429688 6.007812 C 31.996094 3.074219 34.535156 0.933594 37.523438 0.867188 C 40.511719 0.796875 43.144531 2.824219 43.84375 5.730469 L 80.746094 159.03125 C 82.417969 165.96875 80.855469 173.285156 76.507812 178.933594 C 72.15625 184.585938 65.480469 187.960938 58.351562 188.121094 L 25.066406 188.863281 C 17.9375 189.023438 11.117188 185.945312 6.519531 180.496094 C 1.921875 175.042969 0.0390625 167.804688 1.394531 160.804688 Z M 1.394531 160.804688 " clip-rule="nonzero"/></clipPath><clipPath id="1b064eb7c7"><rect x="0" width="82" y="0" height="189"/></clipPath><clipPath id="c8de3ff12c"><path d="M 205 239 L 385 239 L 385 354 L 205 354 Z M 205 239 " clip-rule="nonzero"/></clipPath><clipPath id="35f8dcf5c0"><path d="M 197.4375 304.378906 L 232.667969 231.40625 L 401.867188 313.082031 L 366.636719 386.058594 Z M 197.4375 304.378906 " clip-rule="nonzero"/></clipPath><clipPath id="997c0cfa76"><path d="M 258.046875 244.578125 L 382.257812 341.710938 C 384.613281 343.554688 385.363281 346.789062 384.066406 349.480469 C 382.765625 352.171875 379.765625 353.59375 376.859375 352.894531 L 223.539062 316.058594 C 216.605469 314.390625 210.796875 309.675781 207.746094 303.230469 C 204.691406 296.785156 204.714844 289.304688 207.816406 282.882812 L 222.289062 252.902344 C 225.390625 246.480469 231.230469 241.804688 238.175781 240.1875 C 245.125 238.570312 252.425781 240.1875 258.046875 244.578125 Z M 258.046875 244.578125 " clip-rule="nonzero"/></clipPath><clipPath id="37ad35179b"><path d="M 0 0 L 180 0 L 180 114.761719 L 0 114.761719 Z M 0 0 " clip-rule="nonzero"/></clipPath><clipPath id="eb4fb8983b"><path d="M -7.5625 65.378906 L 27.667969 -7.59375 L 196.867188 74.082031 L 161.636719 147.058594 Z M -7.5625 65.378906 " clip-rule="nonzero"/></clipPath><clipPath id="ad26285c0b"><path d="M 53.046875 5.578125 L 177.257812 102.710938 C 179.613281 104.554688 180.363281 107.789062 179.066406 110.480469 C 177.765625 113.171875 174.765625 114.59375 171.859375 113.894531 L 18.539062 77.058594 C 11.605469 75.390625 5.796875 70.675781 2.746094 64.230469 C -0.308594 57.785156 -0.285156 50.304688 2.816406 43.882812 L 17.289062 13.902344 C 20.390625 7.480469 26.230469 2.804688 33.175781 1.1875 C 40.125 -0.429688 47.425781 1.1875 53.046875 5.578125 Z M 53.046875 5.578125 " clip-rule="nonzero"/></clipPath><clipPath id="3f3225e82c"><rect x="0" width="180" y="0" height="115"/></clipPath><clipPath id="caa181b863"><path d="M 206 342 L 384 342 L 384 461 L 206 461 Z M 206 342 " clip-rule="nonzero"/></clipPath><clipPath id="0e4981b95e"><path d="M 236.320312 469.511719 L 198.191406 398.007812 L 363.980469 309.609375 L 402.105469 381.113281 Z M 236.320312 469.511719 " clip-rule="nonzero"/></clipPath><clipPath id="cca74126b3"><path d="M 223.804688 385.292969 L 375.523438 342.335938 C 378.398438 341.519531 381.453125 342.820312 382.859375 345.460938 C 384.265625 348.097656 383.644531 351.359375 381.363281 353.292969 L 261.148438 455.332031 C 255.710938 459.945312 248.476562 461.851562 241.472656 460.515625 C 234.46875 459.179688 228.445312 454.742188 225.089844 448.449219 L 209.425781 419.074219 C 206.070312 412.78125 205.742188 405.304688 208.535156 398.742188 C 211.328125 392.183594 216.941406 387.238281 223.804688 385.292969 Z M 223.804688 385.292969 " clip-rule="nonzero"/></clipPath><clipPath id="2d85af9991"><path d="M 0 0 L 178 0 L 178 119 L 0 119 Z M 0 0 " clip-rule="nonzero"/></clipPath><clipPath id="448a2359c1"><path d="M 30.320312 127.511719 L -7.808594 56.007812 L 157.980469 -32.390625 L 196.105469 39.113281 Z M 30.320312 127.511719 " clip-rule="nonzero"/></clipPath><clipPath id="f4c1af4f99"><path d="M 17.804688 43.292969 L 169.523438 0.335938 C 172.398438 -0.480469 175.453125 0.820312 176.859375 3.460938 C 178.265625 6.097656 177.644531 9.359375 175.363281 11.292969 L 55.148438 113.332031 C 49.710938 117.945312 42.476562 119.851562 35.472656 118.515625 C 28.46875 117.179688 22.445312 112.742188 19.089844 106.449219 L 3.425781 77.074219 C 0.0703125 70.78125 -0.257812 63.304688 2.535156 56.742188 C 5.328125 50.183594 10.941406 45.238281 17.804688 43.292969 Z M 17.804688 43.292969 " clip-rule="nonzero"/></clipPath><clipPath id="b0eeed1c2e"><rect x="0" width="178" y="0" height="119"/></clipPath><clipPath id="229a6e4778"><path d="M 245.390625 215.046875 L 504.597656 215.046875 L 504.597656 474.253906 L 245.390625 474.253906 Z M 245.390625 215.046875 " clip-rule="nonzero"/></clipPath><clipPath id="b2b15cc39d"><path d="M 374.996094 215.046875 C 303.417969 215.046875 245.390625 273.070312 245.390625 344.648438 C 245.390625 416.226562 303.417969 474.253906 374.996094 474.253906 C 446.574219 474.253906 504.597656 416.226562 504.597656 344.648438 C 504.597656 273.070312 446.574219 215.046875 374.996094 215.046875 Z M 374.996094 215.046875 " clip-rule="nonzero"/></clipPath><clipPath id="828a7ed08e"><path d="M 344.445312 313.894531 L 405.195312 313.894531 L 405.195312 374.644531 L 344.445312 374.644531 Z M 344.445312 313.894531 " clip-rule="nonzero"/></clipPath><clipPath id="4bb9b68b2d"><path d="M 374.996094 313.894531 C 358.125 313.894531 344.445312 327.570312 344.445312 344.445312 C 344.445312 361.316406 358.125 374.996094 374.996094 374.996094 C 391.871094 374.996094 405.546875 361.316406 405.546875 344.445312 C 405.546875 327.570312 391.871094 313.894531 374.996094 313.894531 Z M 374.996094 313.894531 " clip-rule="nonzero"/></clipPath><clipPath id="1c2a683097"><path d="M 371 125 L 565 125 L 565 351 L 371 351 Z M 371 125 " clip-rule="nonzero"/></clipPath><clipPath id="7c766ccfc6"><path d="M 357.164062 337.660156 L 549.8125 112.96875 L 578.777344 137.800781 L 386.128906 362.492188 Z M 357.164062 337.660156 " clip-rule="nonzero"/></clipPath><clipPath id="341ea9640f"><path d="M 501.609375 169.1875 L 405.3125 281.503906 L 371.648438 350.078125 L 434.277344 306.335938 L 530.574219 194.023438 L 564.242188 125.449219 Z M 501.609375 169.1875 " clip-rule="nonzero"/></clipPath><clipPath id="d8f4db7adf"><path d="M 0.519531 0.28125 L 193.480469 0.28125 L 193.480469 225.160156 L 0.519531 225.160156 Z M 0.519531 0.28125 " clip-rule="nonzero"/></clipPath><clipPath id="ad7d72df92"><path d="M -13.835938 212.660156 L 178.8125 -12.03125 L 207.777344 12.800781 L 15.128906 237.492188 Z M -13.835938 212.660156 " clip-rule="nonzero"/></clipPath><clipPath id="79ece83300"><path d="M 130.609375 44.1875 L 34.3125 156.503906 L 0.648438 225.078125 L 63.277344 181.335938 L 159.574219 69.023438 L 193.242188 0.449219 Z M 130.609375 44.1875 " clip-rule="nonzero"/></clipPath><clipPath id="af130bd7d2"><rect x="0" width="194" y="0" height="226"/></clipPath><clipPath id="c986f0c14c"><path d="M 371 125 L 565 125 L 565 351 L 371 351 Z M 371 125 " clip-rule="nonzero"/></clipPath><clipPath id="d0bf21ab71"><path d="M 357.164062 337.660156 L 549.992188 112.757812 L 579.03125 137.65625 L 386.203125 362.558594 Z M 357.164062 337.660156 " clip-rule="nonzero"/></clipPath><clipPath id="0a2e801470"><path d="M 357.183594 337.640625 L 549.742188 113.054688 L 581.324219 140.132812 L 388.765625 364.71875 Z M 357.183594 337.640625 " clip-rule="nonzero"/></clipPath><clipPath id="43f45b22a3"><path d="M 501.601562 169.199219 L 405.324219 281.492188 L 371.660156 350.054688 L 434.28125 306.320312 L 530.558594 194.027344 L 564.21875 125.46875 Z M 501.601562 169.199219 " clip-rule="nonzero"/></clipPath><clipPath id="b5ac5ba6ab"><path d="M 477 82 L 551 82 L 551 207 L 477 207 Z M 477 82 " clip-rule="nonzero"/></clipPath><clipPath id="18adc4e526"><path d="M 460.230469 195.582031 L 507.039062 70.671875 L 567.832031 93.453125 L 521.023438 218.363281 Z M 460.230469 195.582031 " clip-rule="nonzero"/></clipPath><clipPath id="07873f280a"><path d="M 489.308594 117.992188 L 477.9375 148.332031 L 490.628906 206.972656 L 538.730469 171.113281 L 550.097656 140.773438 L 537.410156 82.132812 Z M 489.308594 117.992188 " clip-rule="nonzero"/></clipPath><clipPath id="f9924d0e23"><path d="M 0.839844 0.078125 L 73.320312 0.078125 L 73.320312 125 L 0.839844 125 Z M 0.839844 0.078125 " clip-rule="nonzero"/></clipPath><clipPath id="450bf88de2"><path d="M -16.769531 113.582031 L 30.039062 -11.328125 L 90.832031 11.453125 L 44.023438 136.363281 Z M -16.769531 113.582031 " clip-rule="nonzero"/></clipPath><clipPath id="096e3b9d75"><path d="M 12.308594 35.992188 L 0.9375 66.332031 L 13.628906 124.972656 L 61.730469 89.113281 L 73.097656 58.773438 L 60.410156 0.132812 Z M 12.308594 35.992188 " clip-rule="nonzero"/></clipPath><clipPath id="9e591dbca5"><rect x="0" width="74" y="0" height="125"/></clipPath><clipPath id="7bdf9d15b4"><path d="M 477 82 L 551 82 L 551 207 L 477 207 Z M 477 82 " clip-rule="nonzero"/></clipPath><clipPath id="f964dec82b"><path d="M 460.230469 195.582031 L 507.078125 70.570312 L 568.179688 93.46875 L 521.332031 218.480469 Z M 460.230469 195.582031 " clip-rule="nonzero"/></clipPath><clipPath id="440de08496"><path d="M 460.234375 195.574219 L 507.8125 68.605469 L 569.820312 91.84375 L 522.242188 218.8125 Z M 460.234375 195.574219 " clip-rule="nonzero"/></clipPath><clipPath id="a34889ef2c"><path d="M 489.304688 117.996094 L 477.9375 148.332031 L 490.625 206.964844 L 538.71875 171.109375 L 550.085938 140.773438 L 537.398438 82.144531 Z M 489.304688 117.996094 " clip-rule="nonzero"/></clipPath><clipPath id="eabf0c6295"><path d="M 490 149 L 617 149 L 617 222 L 490 222 Z M 490 149 " clip-rule="nonzero"/></clipPath><clipPath id="9f0a46b9e8"><path d="M 479.484375 176.441406 L 605.480469 132.636719 L 626.796875 193.957031 L 500.804688 237.761719 Z M 479.484375 176.441406 " clip-rule="nonzero"/></clipPath><clipPath id="f97420dff6"><path d="M 557.75 149.234375 L 527.148438 159.871094 L 490.144531 207.101562 L 548.464844 221.191406 L 579.066406 210.554688 L 616.070312 163.324219 Z M 557.75 149.234375 " clip-rule="nonzero"/></clipPath><clipPath id="a51cc6bdb7"><path d="M 0.078125 0.0390625 L 126.078125 0.0390625 L 126.078125 72.28125 L 0.078125 72.28125 Z M 0.078125 0.0390625 " clip-rule="nonzero"/></clipPath><clipPath id="e75d9a5493"><path d="M -10.515625 27.441406 L 115.480469 -16.363281 L 136.796875 44.957031 L 10.804688 88.761719 Z M -10.515625 27.441406 " clip-rule="nonzero"/></clipPath><clipPath id="36b3c57f4f"><path d="M 67.75 0.234375 L 37.148438 10.871094 L 0.144531 58.101562 L 58.464844 72.191406 L 89.066406 61.554688 L 126.070312 14.324219 Z M 67.75 0.234375 " clip-rule="nonzero"/></clipPath><clipPath id="c8c02a959a"><rect x="0" width="127" y="0" height="73"/></clipPath><clipPath id="1388bdcbe4"><path d="M 490 149 L 617 149 L 617 222 L 490 222 Z M 490 149 " clip-rule="nonzero"/></clipPath><clipPath id="281c7eddb4"><path d="M 479.484375 176.441406 L 605.582031 132.601562 L 627.007812 194.234375 L 500.910156 238.074219 Z M 479.484375 176.441406 " clip-rule="nonzero"/></clipPath><clipPath id="6a94cb77fa"><path d="M 479.492188 176.441406 L 607.5625 131.914062 L 629.308594 194.460938 L 501.238281 238.988281 Z M 479.492188 176.441406 " clip-rule="nonzero"/></clipPath><clipPath id="0eb4287211"><path d="M 557.742188 149.234375 L 527.144531 159.871094 L 490.148438 207.09375 L 548.460938 221.183594 L 579.058594 210.546875 L 616.054688 163.324219 Z M 557.742188 149.234375 " clip-rule="nonzero"/></clipPath><clipPath id="24352ba8a0"><path d="M 488 114 L 584 114 L 584 209 L 488 209 Z M 488 114 " clip-rule="nonzero"/></clipPath><clipPath id="169be8a695"><path d="M 465.949219 185.320312 L 560.273438 90.996094 L 606.175781 136.902344 L 511.855469 231.226562 Z M 465.949219 185.320312 " clip-rule="nonzero"/></clipPath><clipPath id="8ea8049d23"><path d="M 524.539062 126.730469 L 501.628906 149.636719 L 488.902344 208.273438 L 547.535156 195.542969 L 570.445312 172.636719 L 583.171875 114 Z M 524.539062 126.730469 " clip-rule="nonzero"/></clipPath><clipPath id="ce6c56b6d9"><path d="M 0.878906 0 L 95.199219 0 L 95.199219 94.320312 L 0.878906 94.320312 Z M 0.878906 0 " clip-rule="nonzero"/></clipPath><clipPath id="b7fc456e71"><path d="M -22.050781 71.320312 L 72.273438 -23.003906 L 118.175781 22.902344 L 23.855469 117.226562 Z M -22.050781 71.320312 " clip-rule="nonzero"/></clipPath><clipPath id="0f48b236bf"><path d="M 36.539062 12.730469 L 13.628906 35.636719 L 0.902344 94.273438 L 59.535156 81.542969 L 82.445312 58.636719 L 95.171875 0 Z M 36.539062 12.730469 " clip-rule="nonzero"/></clipPath><clipPath id="f80c50dc6c"><rect x="0" width="96" y="0" height="95"/></clipPath><clipPath id="d99ea4f968"><path d="M 488 114 L 584 114 L 584 209 L 488 209 Z M 488 114 " clip-rule="nonzero"/></clipPath><clipPath id="edcb170646"><path d="M 465.949219 185.320312 L 560.347656 90.921875 L 606.488281 137.058594 L 512.089844 231.457031 Z M 465.949219 185.320312 " clip-rule="nonzero"/></clipPath><clipPath id="9b3d7a1131"><path d="M 465.953125 185.3125 L 561.832031 89.4375 L 608.65625 136.261719 L 512.777344 232.136719 Z M 465.953125 185.3125 " clip-rule="nonzero"/></clipPath><clipPath id="4910fe39dd"><path d="M 524.535156 126.734375 L 501.628906 149.640625 L 488.902344 208.261719 L 547.527344 195.539062 L 570.433594 172.632812 L 583.160156 114.007812 Z M 524.535156 126.734375 " clip-rule="nonzero"/></clipPath><clipPath id="ce5701e912"><path d="M 405 202 L 503 202 L 503 306 L 405 306 Z M 405 202 " clip-rule="nonzero"/></clipPath><clipPath id="3bee9fcbc5"><path d="M 405.554688 280.613281 L 473.386719 202.238281 L 502.300781 227.261719 L 434.46875 305.636719 Z M 405.554688 280.613281 " clip-rule="nonzero"/></clipPath><clipPath id="e64a80829c"><path d="M 0.359375 0.078125 L 97.320312 0.078125 L 97.320312 103.761719 L 0.359375 103.761719 Z M 0.359375 0.078125 " clip-rule="nonzero"/></clipPath><clipPath id="489fec796f"><path d="M 0.554688 78.613281 L 68.386719 0.238281 L 97.300781 25.261719 L 29.46875 103.636719 Z M 0.554688 78.613281 " clip-rule="nonzero"/></clipPath><clipPath id="889586719b"><rect x="0" width="98" y="0" height="104"/></clipPath><clipPath id="99b76aaba0"><path d="M 405 202 L 503 202 L 503 306 L 405 306 Z M 405 202 " clip-rule="nonzero"/></clipPath><clipPath id="58d2580f7d"><path d="M 405.554688 280.613281 L 473.289062 202.355469 L 502.210938 227.386719 L 434.476562 305.644531 Z M 405.554688 280.613281 " clip-rule="nonzero"/></clipPath><clipPath id="fddae2edf6"><path d="M 405.5625 280.605469 L 473.375 202.253906 L 502.277344 227.273438 L 434.464844 305.621094 Z M 405.5625 280.605469 " clip-rule="nonzero"/></clipPath></defs><rect x="-75" width="900" fill="#ffffff" y="-74.999999" height="899.999994" fill-opacity="1"/><rect x="-75" width="900" fill="#ffffff" y="-74.999999" height="899.999994" fill-opacity="1"/><g fill="#000000" fill-opacity="1"><g transform="translate(261.86102, 686.977835)"><g><path d="M 5.03125 0 L 5.03125 -12.234375 C 12.46875 -19.023438 18.984375 -25.335938 24.578125 -31.171875 C 30.179688 -37.015625 34.539062 -42.472656 37.65625 -47.546875 C 40.769531 -52.628906 42.328125 -57.328125 42.328125 -61.640625 C 42.328125 -65.710938 41.269531 -68.828125 39.15625 -70.984375 C 37.039062 -73.148438 34.222656 -74.234375 30.703125 -74.234375 C 27.660156 -74.234375 24.898438 -73.375 22.421875 -71.65625 C 19.941406 -69.9375 17.664062 -67.914062 15.59375 -65.59375 L 3.953125 -77.109375 C 8.347656 -81.742188 12.804688 -85.203125 17.328125 -87.484375 C 21.847656 -89.765625 27.265625 -90.90625 33.578125 -90.90625 C 39.335938 -90.90625 44.414062 -89.742188 48.8125 -87.421875 C 53.207031 -85.109375 56.644531 -81.851562 59.125 -77.65625 C 61.601562 -73.457031 62.84375 -68.519531 62.84375 -62.84375 C 62.84375 -57.726562 61.539062 -52.507812 58.9375 -47.1875 C 56.34375 -41.875 53.003906 -36.640625 48.921875 -31.484375 C 44.847656 -26.328125 40.535156 -21.429688 35.984375 -16.796875 C 38.210938 -17.109375 40.6875 -17.382812 43.40625 -17.625 C 46.125 -17.863281 48.484375 -17.984375 50.484375 -17.984375 L 66.921875 -17.984375 L 66.921875 0 Z M 5.03125 0 "/></g></g></g><g fill="#000000" fill-opacity="1"><g transform="translate(334.891077, 686.977835)"><g><path d="M 23.03125 -38.5 L 40.046875 -38.5 L 40.046875 -51.5625 C 40.046875 -54.363281 40.164062 -57.660156 40.40625 -61.453125 C 40.65625 -65.253906 40.816406 -68.554688 40.890625 -71.359375 L 40.40625 -71.359375 C 39.289062 -68.878906 38.132812 -66.359375 36.9375 -63.796875 C 35.738281 -61.242188 34.5 -58.6875 33.21875 -56.125 Z M 69.921875 -38.5 L 69.921875 -22.3125 L 59.96875 -22.3125 L 59.96875 0 L 40.046875 0 L 40.046875 -22.3125 L 2.640625 -22.3125 L 2.640625 -37.0625 L 33.703125 -89.21875 L 59.96875 -89.21875 L 59.96875 -38.5 Z M 69.921875 -38.5 "/></g></g></g><g fill="#000000" fill-opacity="1"><g transform="translate(407.921133, 686.977835)"><g><path d="M 31.78125 -72.3125 L 31.78125 -48.328125 L 41.375 -48.328125 C 51.769531 -48.328125 56.96875 -52.601562 56.96875 -61.15625 C 56.96875 -65.394531 55.644531 -68.3125 53 -69.90625 C 50.363281 -71.507812 46.488281 -72.3125 41.375 -72.3125 Z M 82.5 0 L 58.515625 0 L 42.09375 -31.421875 L 31.78125 -31.421875 L 31.78125 0 L 10.3125 0 L 10.3125 -89.21875 L 43.046875 -89.21875 C 49.441406 -89.21875 55.273438 -88.378906 60.546875 -86.703125 C 65.828125 -85.023438 70.046875 -82.144531 73.203125 -78.0625 C 76.367188 -73.988281 77.953125 -68.351562 77.953125 -61.15625 C 77.953125 -54.601562 76.550781 -49.207031 73.75 -44.96875 C 70.957031 -40.726562 67.238281 -37.53125 62.59375 -35.375 Z M 82.5 0 "/></g></g></g><g clip-path="url(#af05b9cf87)"><g clip-path="url(#68e03b39c0)"><g transform="matrix(1, 0, 0, 1, 164, 134)"><g clip-path="url(#a61b60d4d5)"><g clip-path="url(#1fee8eb0b3)"><g clip-path="url(#5bb122e45a)"><path fill="#fcfcfd" d="M 0.558594 0.210938 L 421.441406 0.210938 L 421.441406 421.09375 L 0.558594 421.09375 Z M 0.558594 0.210938 " fill-opacity="1" fill-rule="nonzero"/></g></g></g></g></g></g><g clip-path="url(#22c12fd79a)"><g clip-path="url(#dc4a041a83)"><path stroke-linecap="butt" transform="matrix(0.75, 0, 0, 0.75, 164.559487, 134.212631)" fill="none" stroke-linejoin="miter" d="M 280.587365 -0.00225808 C 125.623816 -0.00225808 -0.00119051 125.622748 -0.00119051 280.586297 C -0.00119051 435.549846 125.623816 561.169644 280.587365 561.169644 C 435.550914 561.169644 561.170712 435.549846 561.170712 280.586297 C 561.170712 125.622748 435.550914 -0.00225808 280.587365 -0.00225808 Z M 280.587365 -0.00225808 " stroke="#000000" stroke-width="30" stroke-opacity="1" stroke-miterlimit="4"/></g></g><g clip-path="url(#99af264a74)"><g clip-path="url(#558aaaee3e)"><g transform="matrix(1, 0, 0, 1, 184, 154)"><g clip-path="url(#0015c947e6)"><g clip-path="url(#b5b8c7d959)"><g clip-path="url(#033ff2e65b)"><path fill="#000000" d="M 0.875 0.527344 L 381.125 0.527344 L 381.125 380.78125 L 0.875 380.78125 Z M 0.875 0.527344 " fill-opacity="1" fill-rule="nonzero"/></g></g></g></g></g></g><g clip-path="url(#eb49f32d50)"><g clip-path="url(#f9b68a86f9)"><path stroke-linecap="butt" transform="matrix(0.75, 0, 0, 0.75, 184.873441, 154.526614)" fill="none" stroke-linejoin="miter" d="M 253.502091 0.000972908 C 113.496876 0.000972908 0.00207888 113.49577 0.00207888 253.500985 C 0.00207888 393.5062 113.496876 507.000998 253.502091 507.000998 C 393.502098 507.000998 507.002104 393.5062 507.002104 253.500985 C 507.002104 113.49577 393.502098 0.000972908 253.502091 0.000972908 Z M 253.502091 0.000972908 " stroke="#000000" stroke-width="30" stroke-opacity="1" stroke-miterlimit="4"/></g></g><g clip-path="url(#a56008a0dd)"><g clip-path="url(#ca7e7f2b19)"><g transform="matrix(1, 0, 0, 1, 214, 184)"><g clip-path="url(#85c785bedb)"><g clip-path="url(#4d6b5a7d5b)"><g clip-path="url(#c21ca161fd)"><path fill="#fcfcfd" d="M 0.605469 0.257812 L 321.394531 0.257812 L 321.394531 321.046875 L 0.605469 321.046875 Z M 0.605469 0.257812 " fill-opacity="1" fill-rule="nonzero"/></g></g></g></g></g></g><g clip-path="url(#b19edeab9d)"><g clip-path="url(#25cfc84c2c)"><g transform="matrix(1, 0, 0, 1, 334, 163)"><g clip-path="url(#c4a1465dc8)"><g clip-path="url(#1a85526f0f)"><g clip-path="url(#cf590b9214)"><path fill="#000000" d="M -4.898438 0.367188 L 86.894531 0.367188 L 86.894531 211.914062 L -4.898438 211.914062 Z M -4.898438 0.367188 " fill-opacity="1" fill-rule="nonzero"/></g></g></g></g></g></g><g clip-path="url(#c94d920ffa)"><g clip-path="url(#9ac000c36b)"><g clip-path="url(#e29a3b4bd0)"><g transform="matrix(1, 0, 0, 1, 368, 212)"><g clip-path="url(#e22d2b2b80)"><g clip-path="url(#6cadcc7f55)"><g clip-path="url(#a1e5c8c85a)"><g clip-path="url(#670c3af37d)"><path fill="#000000" d="M 123.589844 -13.03125 L 178.808594 60.292969 L 9.820312 187.550781 L -45.398438 114.226562 Z M 123.589844 -13.03125 " fill-opacity="1" fill-rule="nonzero"/></g></g></g></g></g></g></g></g><g clip-path="url(#7c0a6fdc21)"><g clip-path="url(#7a46820ec8)"><g clip-path="url(#5865161d35)"><g transform="matrix(1, 0, 0, 1, 369, 336)"><g clip-path="url(#69c721858a)"><g clip-path="url(#bca436e721)"><g clip-path="url(#a5904170e0)"><g clip-path="url(#4548925ea3)"><path fill="#000000" d="M 190.648438 42.972656 L 151.242188 125.875 L -39.820312 35.054688 L -0.414062 -47.84375 Z M 190.648438 42.972656 " fill-opacity="1" fill-rule="nonzero"/></g></g></g></g></g></g></g></g><g clip-path="url(#63c1444b0c)"><g clip-path="url(#4a0dd52433)"><g clip-path="url(#6716d9c207)"><g transform="matrix(1, 0, 0, 1, 338, 338)"><g clip-path="url(#1b064eb7c7)"><g clip-path="url(#28dd8cc297)"><g clip-path="url(#121052d54c)"><g clip-path="url(#aaf7934494)"><path fill="#000000" d="M 87.59375 187.46875 L -4.175781 189.515625 L -8.890625 -21.976562 L 82.875 -24.023438 Z M 87.59375 187.46875 " fill-opacity="1" fill-rule="nonzero"/></g></g></g></g></g></g></g></g><g clip-path="url(#c8de3ff12c)"><g clip-path="url(#35f8dcf5c0)"><g clip-path="url(#997c0cfa76)"><g transform="matrix(1, 0, 0, 1, 205, 239)"><g clip-path="url(#3f3225e82c)"><g clip-path="url(#37ad35179b)"><g clip-path="url(#eb4fb8983b)"><g clip-path="url(#ad26285c0b)"><path fill="#000000" d="M -9.898438 70.222656 L 30.003906 -12.4375 L 220.515625 79.527344 L 180.613281 162.1875 Z M -9.898438 70.222656 " fill-opacity="1" fill-rule="nonzero"/></g></g></g></g></g></g></g></g><g clip-path="url(#caa181b863)"><g clip-path="url(#0e4981b95e)"><g clip-path="url(#cca74126b3)"><g transform="matrix(1, 0, 0, 1, 206, 342)"><g clip-path="url(#b0eeed1c2e)"><g clip-path="url(#2d85af9991)"><g clip-path="url(#448a2359c1)"><g clip-path="url(#f4c1af4f99)"><path fill="#000000" d="M 32.851562 132.257812 L -10.335938 51.261719 L 176.332031 -48.269531 L 219.519531 32.726562 Z M 32.851562 132.257812 " fill-opacity="1" fill-rule="nonzero"/></g></g></g></g></g></g></g></g><g clip-path="url(#229a6e4778)"><g clip-path="url(#b2b15cc39d)"><path stroke-linecap="butt" transform="matrix(0.75, 0, 0, 0.75, 245.391905, 215.045165)" fill="none" stroke-linejoin="miter" d="M 172.805593 0.00228037 C 77.368089 0.00228037 -0.00170679 77.366867 -0.00170679 172.804372 C -0.00170679 268.241877 77.368089 345.611672 172.805593 345.611672 C 268.243098 345.611672 345.607685 268.241877 345.607685 172.804372 C 345.607685 77.366867 268.243098 0.00228037 172.805593 0.00228037 Z M 172.805593 0.00228037 " stroke="#d9d9d9" stroke-width="50" stroke-opacity="1" stroke-miterlimit="4"/></g></g><g clip-path="url(#828a7ed08e)"><g clip-path="url(#4bb9b68b2d)"><path stroke-linecap="butt" transform="matrix(0.75, 0, 0, 0.75, 344.446685, 313.893286)" fill="none" stroke-linejoin="miter" d="M 40.732547 0.001661 C 18.237754 0.001661 -0.00183009 18.236037 -0.00183009 40.736038 C -0.00183009 63.230831 18.237754 81.470415 40.732547 81.470415 C 63.232548 81.470415 81.466924 63.230831 81.466924 40.736038 C 81.466924 18.236037 63.232548 0.001661 40.732547 0.001661 Z M 40.732547 0.001661 " stroke="#d9d9d9" stroke-width="50" stroke-opacity="1" stroke-miterlimit="4"/></g></g><g fill="#fcfcfd" fill-opacity="1"><g transform="translate(364.035484, 177.01337)"><g><path d="M 0.75 0 L 0.75 -1.84375 C 1.875 -2.851562 2.851562 -3.796875 3.6875 -4.671875 C 4.53125 -5.554688 5.1875 -6.378906 5.65625 -7.140625 C 6.125 -7.898438 6.359375 -8.601562 6.359375 -9.25 C 6.359375 -9.863281 6.195312 -10.332031 5.875 -10.65625 C 5.5625 -10.976562 5.140625 -11.140625 4.609375 -11.140625 C 4.148438 -11.140625 3.734375 -11.007812 3.359375 -10.75 C 2.992188 -10.5 2.65625 -10.195312 2.34375 -9.84375 L 0.59375 -11.578125 C 1.25 -12.273438 1.914062 -12.789062 2.59375 -13.125 C 3.28125 -13.46875 4.097656 -13.640625 5.046875 -13.640625 C 5.910156 -13.640625 6.671875 -13.460938 7.328125 -13.109375 C 7.984375 -12.765625 8.5 -12.273438 8.875 -11.640625 C 9.25 -11.015625 9.4375 -10.28125 9.4375 -9.4375 C 9.4375 -8.664062 9.238281 -7.878906 8.84375 -7.078125 C 8.457031 -6.285156 7.957031 -5.5 7.34375 -4.71875 C 6.726562 -3.945312 6.082031 -3.210938 5.40625 -2.515625 C 5.738281 -2.566406 6.109375 -2.609375 6.515625 -2.640625 C 6.921875 -2.679688 7.273438 -2.703125 7.578125 -2.703125 L 10.046875 -2.703125 L 10.046875 0 Z M 0.75 0 "/></g></g></g><g fill="#fcfcfd" fill-opacity="1"><g transform="translate(374.990375, 177.01337)"><g><path d="M 3.453125 -5.78125 L 6.015625 -5.78125 L 6.015625 -7.734375 C 6.015625 -8.160156 6.03125 -8.65625 6.0625 -9.21875 C 6.101562 -9.789062 6.128906 -10.285156 6.140625 -10.703125 L 6.0625 -10.703125 C 5.894531 -10.335938 5.722656 -9.960938 5.546875 -9.578125 C 5.367188 -9.191406 5.179688 -8.804688 4.984375 -8.421875 Z M 10.5 -5.78125 L 10.5 -3.34375 L 9 -3.34375 L 9 0 L 6.015625 0 L 6.015625 -3.34375 L 0.390625 -3.34375 L 0.390625 -5.5625 L 5.0625 -13.390625 L 9 -13.390625 L 9 -5.78125 Z M 10.5 -5.78125 "/></g></g></g><g fill="#fcfcfd" fill-opacity="1"><g transform="translate(371.868002, 524.51133)"><g><path d="M 5.015625 0.25 C 3.960938 0.25 3.054688 0.078125 2.296875 -0.265625 C 1.546875 -0.609375 0.925781 -1.0625 0.4375 -1.625 L 1.90625 -3.640625 C 2.3125 -3.253906 2.75 -2.941406 3.21875 -2.703125 C 3.6875 -2.460938 4.179688 -2.34375 4.703125 -2.34375 C 5.328125 -2.34375 5.820312 -2.46875 6.1875 -2.71875 C 6.5625 -2.976562 6.75 -3.363281 6.75 -3.875 C 6.75 -4.257812 6.65625 -4.585938 6.46875 -4.859375 C 6.289062 -5.140625 5.957031 -5.347656 5.46875 -5.484375 C 4.976562 -5.628906 4.265625 -5.703125 3.328125 -5.703125 L 3.328125 -7.953125 C 4.472656 -7.953125 5.257812 -8.113281 5.6875 -8.4375 C 6.125 -8.757812 6.34375 -9.1875 6.34375 -9.71875 C 6.34375 -10.664062 5.832031 -11.140625 4.8125 -11.140625 C 4.363281 -11.140625 3.953125 -11.039062 3.578125 -10.84375 C 3.210938 -10.644531 2.820312 -10.375 2.40625 -10.03125 L 0.796875 -11.984375 C 1.421875 -12.515625 2.070312 -12.921875 2.75 -13.203125 C 3.425781 -13.492188 4.160156 -13.640625 4.953125 -13.640625 C 6.335938 -13.640625 7.445312 -13.320312 8.28125 -12.6875 C 9.125 -12.0625 9.546875 -11.148438 9.546875 -9.953125 C 9.546875 -9.296875 9.363281 -8.710938 9 -8.203125 C 8.632812 -7.691406 8.09375 -7.289062 7.375 -7 L 7.375 -6.90625 C 8.125 -6.675781 8.742188 -6.289062 9.234375 -5.75 C 9.722656 -5.21875 9.96875 -4.519531 9.96875 -3.65625 C 9.96875 -2.820312 9.738281 -2.113281 9.28125 -1.53125 C 8.832031 -0.957031 8.234375 -0.515625 7.484375 -0.203125 C 6.734375 0.0976562 5.910156 0.25 5.015625 0.25 Z M 5.015625 0.25 "/></g></g></g><g fill="#fcfcfd" fill-opacity="1"><g transform="translate(462.797529, 496.747964)"><g><path d="M 1.40625 0 L 1.40625 -2.59375 L 4.25 -2.59375 L 4.25 -10.203125 L 1.78125 -10.203125 L 1.78125 -12.1875 C 2.5 -12.320312 3.113281 -12.484375 3.625 -12.671875 C 4.132812 -12.859375 4.625 -13.097656 5.09375 -13.390625 L 7.453125 -13.390625 L 7.453125 -2.59375 L 9.859375 -2.59375 L 9.859375 0 Z M 1.40625 0 "/></g></g></g><g fill="#fcfcfd" fill-opacity="1"><g transform="translate(473.752419, 496.747964)"><g><path d="M 3.21875 0 C 3.28125 -1.101562 3.378906 -2.117188 3.515625 -3.046875 C 3.648438 -3.984375 3.84375 -4.867188 4.09375 -5.703125 C 4.351562 -6.546875 4.691406 -7.375 5.109375 -8.1875 C 5.523438 -9 6.046875 -9.847656 6.671875 -10.734375 L 0.921875 -10.734375 L 0.921875 -13.390625 L 10.09375 -13.390625 L 10.09375 -11.453125 C 9.332031 -10.523438 8.71875 -9.648438 8.25 -8.828125 C 7.789062 -8.003906 7.441406 -7.160156 7.203125 -6.296875 C 6.960938 -5.441406 6.789062 -4.503906 6.6875 -3.484375 C 6.582031 -2.472656 6.5 -1.3125 6.4375 0 Z M 3.21875 0 "/></g></g></g><g fill="#fcfcfd" fill-opacity="1"><g transform="translate(525.070467, 423.84832)"><g><path d="M 1.40625 0 L 1.40625 -2.59375 L 4.25 -2.59375 L 4.25 -10.203125 L 1.78125 -10.203125 L 1.78125 -12.1875 C 2.5 -12.320312 3.113281 -12.484375 3.625 -12.671875 C 4.132812 -12.859375 4.625 -13.097656 5.09375 -13.390625 L 7.453125 -13.390625 L 7.453125 -2.59375 L 9.859375 -2.59375 L 9.859375 0 Z M 1.40625 0 "/></g></g></g><g fill="#fcfcfd" fill-opacity="1"><g transform="translate(536.025358, 423.84832)"><g><path d="M 5.46875 0.25 C 4.53125 0.25 3.703125 -0.0078125 2.984375 -0.53125 C 2.273438 -1.0625 1.722656 -1.847656 1.328125 -2.890625 C 0.929688 -3.941406 0.734375 -5.234375 0.734375 -6.765625 C 0.734375 -8.304688 0.929688 -9.582031 1.328125 -10.59375 C 1.722656 -11.613281 2.273438 -12.375 2.984375 -12.875 C 3.703125 -13.382812 4.53125 -13.640625 5.46875 -13.640625 C 6.414062 -13.640625 7.242188 -13.382812 7.953125 -12.875 C 8.660156 -12.363281 9.210938 -11.597656 9.609375 -10.578125 C 10.015625 -9.554688 10.21875 -8.285156 10.21875 -6.765625 C 10.21875 -5.234375 10.015625 -3.941406 9.609375 -2.890625 C 9.210938 -1.847656 8.660156 -1.0625 7.953125 -0.53125 C 7.242188 -0.0078125 6.414062 0.25 5.46875 0.25 Z M 5.46875 -2.234375 C 5.789062 -2.234375 6.082031 -2.351562 6.34375 -2.59375 C 6.601562 -2.84375 6.8125 -3.296875 6.96875 -3.953125 C 7.125 -4.609375 7.203125 -5.546875 7.203125 -6.765625 C 7.203125 -7.992188 7.125 -8.921875 6.96875 -9.546875 C 6.8125 -10.179688 6.601562 -10.609375 6.34375 -10.828125 C 6.082031 -11.054688 5.789062 -11.171875 5.46875 -11.171875 C 5.15625 -11.171875 4.867188 -11.054688 4.609375 -10.828125 C 4.347656 -10.609375 4.140625 -10.179688 3.984375 -9.546875 C 3.835938 -8.921875 3.765625 -7.992188 3.765625 -6.765625 C 3.765625 -5.546875 3.835938 -4.609375 3.984375 -3.953125 C 4.140625 -3.296875 4.347656 -2.84375 4.609375 -2.59375 C 4.867188 -2.351562 5.15625 -2.234375 5.46875 -2.234375 Z M 5.46875 -2.234375 "/></g></g></g><g fill="#fcfcfd" fill-opacity="1"><g transform="translate(542.140994, 338.369886)"><g><path d="M 0.75 0 L 0.75 -1.84375 C 1.875 -2.851562 2.851562 -3.796875 3.6875 -4.671875 C 4.53125 -5.554688 5.1875 -6.378906 5.65625 -7.140625 C 6.125 -7.898438 6.359375 -8.601562 6.359375 -9.25 C 6.359375 -9.863281 6.195312 -10.332031 5.875 -10.65625 C 5.5625 -10.976562 5.140625 -11.140625 4.609375 -11.140625 C 4.148438 -11.140625 3.734375 -11.007812 3.359375 -10.75 C 2.992188 -10.5 2.65625 -10.195312 2.34375 -9.84375 L 0.59375 -11.578125 C 1.25 -12.273438 1.914062 -12.789062 2.59375 -13.125 C 3.28125 -13.46875 4.097656 -13.640625 5.046875 -13.640625 C 5.910156 -13.640625 6.671875 -13.460938 7.328125 -13.109375 C 7.984375 -12.765625 8.5 -12.273438 8.875 -11.640625 C 9.25 -11.015625 9.4375 -10.28125 9.4375 -9.4375 C 9.4375 -8.664062 9.238281 -7.878906 8.84375 -7.078125 C 8.457031 -6.285156 7.957031 -5.5 7.34375 -4.71875 C 6.726562 -3.945312 6.082031 -3.210938 5.40625 -2.515625 C 5.738281 -2.566406 6.109375 -2.609375 6.515625 -2.640625 C 6.921875 -2.679688 7.273438 -2.703125 7.578125 -2.703125 L 10.046875 -2.703125 L 10.046875 0 Z M 0.75 0 "/></g></g></g><g fill="#fcfcfd" fill-opacity="1"><g transform="translate(553.095885, 338.369886)"><g><path d="M 5.125 0.25 C 4.0625 0.25 3.144531 0.0703125 2.375 -0.28125 C 1.613281 -0.644531 0.972656 -1.085938 0.453125 -1.609375 L 1.90625 -3.625 C 2.289062 -3.257812 2.710938 -2.953125 3.171875 -2.703125 C 3.640625 -2.460938 4.132812 -2.34375 4.65625 -2.34375 C 5.3125 -2.34375 5.828125 -2.515625 6.203125 -2.859375 C 6.578125 -3.210938 6.765625 -3.734375 6.765625 -4.421875 C 6.765625 -5.097656 6.582031 -5.613281 6.21875 -5.96875 C 5.851562 -6.320312 5.382812 -6.5 4.8125 -6.5 C 4.4375 -6.5 4.125 -6.453125 3.875 -6.359375 C 3.632812 -6.273438 3.316406 -6.101562 2.921875 -5.84375 L 1.515625 -6.765625 L 1.859375 -13.390625 L 9.375 -13.390625 L 9.375 -10.734375 L 4.609375 -10.734375 L 4.40625 -8.453125 C 4.851562 -8.640625 5.316406 -8.734375 5.796875 -8.734375 C 6.554688 -8.734375 7.253906 -8.582031 7.890625 -8.28125 C 8.523438 -7.976562 9.03125 -7.515625 9.40625 -6.890625 C 9.78125 -6.265625 9.96875 -5.46875 9.96875 -4.5 C 9.96875 -3.5 9.742188 -2.640625 9.296875 -1.921875 C 8.847656 -1.210938 8.253906 -0.671875 7.515625 -0.296875 C 6.785156 0.0664062 5.988281 0.25 5.125 0.25 Z M 5.125 0.25 "/></g></g></g><g fill="#fcfcfd" fill-opacity="1"><g transform="translate(508.535779, 237.338212)"><g><path d="M 5.453125 0.25 C 4.578125 0.25 3.789062 0.101562 3.09375 -0.1875 C 2.40625 -0.488281 1.859375 -0.910156 1.453125 -1.453125 C 1.054688 -1.992188 0.859375 -2.617188 0.859375 -3.328125 C 0.859375 -4.171875 1.066406 -4.859375 1.484375 -5.390625 C 1.910156 -5.929688 2.4375 -6.375 3.0625 -6.71875 L 3.0625 -6.796875 C 2.539062 -7.179688 2.117188 -7.640625 1.796875 -8.171875 C 1.472656 -8.703125 1.3125 -9.320312 1.3125 -10.03125 C 1.3125 -10.769531 1.492188 -11.410156 1.859375 -11.953125 C 2.222656 -12.492188 2.722656 -12.910156 3.359375 -13.203125 C 3.992188 -13.492188 4.726562 -13.640625 5.5625 -13.640625 C 6.363281 -13.640625 7.0625 -13.492188 7.65625 -13.203125 C 8.257812 -12.910156 8.726562 -12.492188 9.0625 -11.953125 C 9.40625 -11.421875 9.578125 -10.789062 9.578125 -10.0625 C 9.578125 -9.425781 9.40625 -8.847656 9.0625 -8.328125 C 8.726562 -7.816406 8.335938 -7.40625 7.890625 -7.09375 L 7.890625 -7 C 8.523438 -6.664062 9.054688 -6.207031 9.484375 -5.625 C 9.921875 -5.050781 10.140625 -4.304688 10.140625 -3.390625 C 10.140625 -2.703125 9.941406 -2.082031 9.546875 -1.53125 C 9.160156 -0.976562 8.613281 -0.539062 7.90625 -0.21875 C 7.207031 0.09375 6.390625 0.25 5.453125 0.25 Z M 6.265625 -7.859375 C 6.515625 -8.171875 6.695312 -8.492188 6.8125 -8.828125 C 6.925781 -9.171875 6.984375 -9.507812 6.984375 -9.84375 C 6.984375 -10.332031 6.847656 -10.71875 6.578125 -11 C 6.316406 -11.289062 5.945312 -11.4375 5.46875 -11.4375 C 5.113281 -11.4375 4.800781 -11.320312 4.53125 -11.09375 C 4.257812 -10.863281 4.125 -10.507812 4.125 -10.03125 C 4.125 -9.5 4.316406 -9.070312 4.703125 -8.75 C 5.085938 -8.425781 5.609375 -8.128906 6.265625 -7.859375 Z M 5.53125 -1.984375 C 5.976562 -1.984375 6.359375 -2.101562 6.671875 -2.34375 C 6.992188 -2.59375 7.15625 -2.984375 7.15625 -3.515625 C 7.15625 -4.097656 6.914062 -4.550781 6.4375 -4.875 C 5.957031 -5.195312 5.3125 -5.535156 4.5 -5.890625 C 4.238281 -5.617188 4.019531 -5.289062 3.84375 -4.90625 C 3.675781 -4.53125 3.59375 -4.128906 3.59375 -3.703125 C 3.59375 -3.148438 3.785156 -2.722656 4.171875 -2.421875 C 4.554688 -2.128906 5.007812 -1.984375 5.53125 -1.984375 Z M 5.53125 -1.984375 "/></g></g></g><g fill="#fcfcfd" fill-opacity="1"><g transform="translate(443.378887, 190.366652)"><g><path d="M 1.40625 0 L 1.40625 -2.59375 L 4.25 -2.59375 L 4.25 -10.203125 L 1.78125 -10.203125 L 1.78125 -12.1875 C 2.5 -12.320312 3.113281 -12.484375 3.625 -12.671875 C 4.132812 -12.859375 4.625 -13.097656 5.09375 -13.390625 L 7.453125 -13.390625 L 7.453125 -2.59375 L 9.859375 -2.59375 L 9.859375 0 Z M 1.40625 0 "/></g></g></g><g fill="#fcfcfd" fill-opacity="1"><g transform="translate(454.333778, 190.366652)"><g><path d="M 0.75 0 L 0.75 -1.84375 C 1.875 -2.851562 2.851562 -3.796875 3.6875 -4.671875 C 4.53125 -5.554688 5.1875 -6.378906 5.65625 -7.140625 C 6.125 -7.898438 6.359375 -8.601562 6.359375 -9.25 C 6.359375 -9.863281 6.195312 -10.332031 5.875 -10.65625 C 5.5625 -10.976562 5.140625 -11.140625 4.609375 -11.140625 C 4.148438 -11.140625 3.734375 -11.007812 3.359375 -10.75 C 2.992188 -10.5 2.65625 -10.195312 2.34375 -9.84375 L 0.59375 -11.578125 C 1.25 -12.273438 1.914062 -12.789062 2.59375 -13.125 C 3.28125 -13.46875 4.097656 -13.640625 5.046875 -13.640625 C 5.910156 -13.640625 6.671875 -13.460938 7.328125 -13.109375 C 7.984375 -12.765625 8.5 -12.273438 8.875 -11.640625 C 9.25 -11.015625 9.4375 -10.28125 9.4375 -9.4375 C 9.4375 -8.664062 9.238281 -7.878906 8.84375 -7.078125 C 8.457031 -6.285156 7.957031 -5.5 7.34375 -4.71875 C 6.726562 -3.945312 6.082031 -3.210938 5.40625 -2.515625 C 5.738281 -2.566406 6.109375 -2.609375 6.515625 -2.640625 C 6.921875 -2.679688 7.273438 -2.703125 7.578125 -2.703125 L 10.046875 -2.703125 L 10.046875 0 Z M 0.75 0 "/></g></g></g><g fill="#fcfcfd" fill-opacity="1"><g transform="translate(271.043984, 204.776612)"><g><path d="M 1.40625 0 L 1.40625 -2.59375 L 4.25 -2.59375 L 4.25 -10.203125 L 1.78125 -10.203125 L 1.78125 -12.1875 C 2.5 -12.320312 3.113281 -12.484375 3.625 -12.671875 C 4.132812 -12.859375 4.625 -13.097656 5.09375 -13.390625 L 7.453125 -13.390625 L 7.453125 -2.59375 L 9.859375 -2.59375 L 9.859375 0 Z M 1.40625 0 "/></g></g></g><g fill="#fcfcfd" fill-opacity="1"><g transform="translate(281.998875, 204.776612)"><g><path d="M 5.453125 0.25 C 4.578125 0.25 3.789062 0.101562 3.09375 -0.1875 C 2.40625 -0.488281 1.859375 -0.910156 1.453125 -1.453125 C 1.054688 -1.992188 0.859375 -2.617188 0.859375 -3.328125 C 0.859375 -4.171875 1.066406 -4.859375 1.484375 -5.390625 C 1.910156 -5.929688 2.4375 -6.375 3.0625 -6.71875 L 3.0625 -6.796875 C 2.539062 -7.179688 2.117188 -7.640625 1.796875 -8.171875 C 1.472656 -8.703125 1.3125 -9.320312 1.3125 -10.03125 C 1.3125 -10.769531 1.492188 -11.410156 1.859375 -11.953125 C 2.222656 -12.492188 2.722656 -12.910156 3.359375 -13.203125 C 3.992188 -13.492188 4.726562 -13.640625 5.5625 -13.640625 C 6.363281 -13.640625 7.0625 -13.492188 7.65625 -13.203125 C 8.257812 -12.910156 8.726562 -12.492188 9.0625 -11.953125 C 9.40625 -11.421875 9.578125 -10.789062 9.578125 -10.0625 C 9.578125 -9.425781 9.40625 -8.847656 9.0625 -8.328125 C 8.726562 -7.816406 8.335938 -7.40625 7.890625 -7.09375 L 7.890625 -7 C 8.523438 -6.664062 9.054688 -6.207031 9.484375 -5.625 C 9.921875 -5.050781 10.140625 -4.304688 10.140625 -3.390625 C 10.140625 -2.703125 9.941406 -2.082031 9.546875 -1.53125 C 9.160156 -0.976562 8.613281 -0.539062 7.90625 -0.21875 C 7.207031 0.09375 6.390625 0.25 5.453125 0.25 Z M 6.265625 -7.859375 C 6.515625 -8.171875 6.695312 -8.492188 6.8125 -8.828125 C 6.925781 -9.171875 6.984375 -9.507812 6.984375 -9.84375 C 6.984375 -10.332031 6.847656 -10.71875 6.578125 -11 C 6.316406 -11.289062 5.945312 -11.4375 5.46875 -11.4375 C 5.113281 -11.4375 4.800781 -11.320312 4.53125 -11.09375 C 4.257812 -10.863281 4.125 -10.507812 4.125 -10.03125 C 4.125 -9.5 4.316406 -9.070312 4.703125 -8.75 C 5.085938 -8.425781 5.609375 -8.128906 6.265625 -7.859375 Z M 5.53125 -1.984375 C 5.976562 -1.984375 6.359375 -2.101562 6.671875 -2.34375 C 6.992188 -2.59375 7.15625 -2.984375 7.15625 -3.515625 C 7.15625 -4.097656 6.914062 -4.550781 6.4375 -4.875 C 5.957031 -5.195312 5.3125 -5.535156 4.5 -5.890625 C 4.238281 -5.617188 4.019531 -5.289062 3.84375 -4.90625 C 3.675781 -4.53125 3.59375 -4.128906 3.59375 -3.703125 C 3.59375 -3.148438 3.785156 -2.722656 4.171875 -2.421875 C 4.554688 -2.128906 5.007812 -1.984375 5.53125 -1.984375 Z M 5.53125 -1.984375 "/></g></g></g><g fill="#fcfcfd" fill-opacity="1"><g transform="translate(213.181135, 278.648445)"><g><path d="M 5.21875 -7.140625 C 5.539062 -7.140625 5.867188 -7.234375 6.203125 -7.421875 C 6.546875 -7.617188 6.847656 -7.945312 7.109375 -8.40625 C 7.023438 -9.144531 6.878906 -9.71875 6.671875 -10.125 C 6.472656 -10.539062 6.238281 -10.832031 5.96875 -11 C 5.707031 -11.164062 5.441406 -11.25 5.171875 -11.25 C 4.742188 -11.25 4.375 -11.085938 4.0625 -10.765625 C 3.75 -10.441406 3.59375 -9.890625 3.59375 -9.109375 C 3.59375 -8.390625 3.75 -7.878906 4.0625 -7.578125 C 4.382812 -7.285156 4.769531 -7.140625 5.21875 -7.140625 Z M 0.859375 -1.34375 L 2.53125 -3.265625 C 2.757812 -3.015625 3.0625 -2.796875 3.4375 -2.609375 C 3.820312 -2.429688 4.207031 -2.34375 4.59375 -2.34375 C 5.050781 -2.34375 5.460938 -2.460938 5.828125 -2.703125 C 6.203125 -2.953125 6.507812 -3.359375 6.75 -3.921875 C 6.988281 -4.492188 7.125 -5.269531 7.15625 -6.25 C 6.832031 -5.8125 6.421875 -5.472656 5.921875 -5.234375 C 5.429688 -5.003906 4.992188 -4.890625 4.609375 -4.890625 C 3.859375 -4.890625 3.1875 -5.039062 2.59375 -5.34375 C 2 -5.644531 1.53125 -6.109375 1.1875 -6.734375 C 0.851562 -7.359375 0.6875 -8.148438 0.6875 -9.109375 C 0.6875 -10.054688 0.882812 -10.867188 1.28125 -11.546875 C 1.6875 -12.222656 2.222656 -12.738281 2.890625 -13.09375 C 3.566406 -13.457031 4.300781 -13.640625 5.09375 -13.640625 C 5.726562 -13.640625 6.34375 -13.515625 6.9375 -13.265625 C 7.53125 -13.015625 8.0625 -12.617188 8.53125 -12.078125 C 9.007812 -11.535156 9.390625 -10.832031 9.671875 -9.96875 C 9.953125 -9.101562 10.09375 -8.066406 10.09375 -6.859375 C 10.09375 -5.648438 9.945312 -4.597656 9.65625 -3.703125 C 9.375 -2.804688 8.976562 -2.066406 8.46875 -1.484375 C 7.96875 -0.898438 7.398438 -0.460938 6.765625 -0.171875 C 6.140625 0.109375 5.488281 0.25 4.8125 0.25 C 3.90625 0.25 3.125 0.0859375 2.46875 -0.234375 C 1.820312 -0.554688 1.285156 -0.925781 0.859375 -1.34375 Z M 0.859375 -1.34375 "/></g></g></g><g fill="#fcfcfd" fill-opacity="1"><g transform="translate(197.184939, 350.762348)"><g><path d="M 1.40625 0 L 1.40625 -2.59375 L 4.25 -2.59375 L 4.25 -10.203125 L 1.78125 -10.203125 L 1.78125 -12.1875 C 2.5 -12.320312 3.113281 -12.484375 3.625 -12.671875 C 4.132812 -12.859375 4.625 -13.097656 5.09375 -13.390625 L 7.453125 -13.390625 L 7.453125 -2.59375 L 9.859375 -2.59375 L 9.859375 0 Z M 1.40625 0 "/></g></g></g><g fill="#fcfcfd" fill-opacity="1"><g transform="translate(207.69676, 423.84832)"><g><path d="M 1.40625 0 L 1.40625 -2.59375 L 4.25 -2.59375 L 4.25 -10.203125 L 1.78125 -10.203125 L 1.78125 -12.1875 C 2.5 -12.320312 3.113281 -12.484375 3.625 -12.671875 C 4.132812 -12.859375 4.625 -13.097656 5.09375 -13.390625 L 7.453125 -13.390625 L 7.453125 -2.59375 L 9.859375 -2.59375 L 9.859375 0 Z M 1.40625 0 "/></g></g></g><g fill="#fcfcfd" fill-opacity="1"><g transform="translate(218.651651, 423.84832)"><g><path d="M 1.40625 0 L 1.40625 -2.59375 L 4.25 -2.59375 L 4.25 -10.203125 L 1.78125 -10.203125 L 1.78125 -12.1875 C 2.5 -12.320312 3.113281 -12.484375 3.625 -12.671875 C 4.132812 -12.859375 4.625 -13.097656 5.09375 -13.390625 L 7.453125 -13.390625 L 7.453125 -2.59375 L 9.859375 -2.59375 L 9.859375 0 Z M 1.40625 0 "/></g></g></g><g fill="#fcfcfd" fill-opacity="1"><g transform="translate(271.043984, 496.747964)"><g><path d="M 0.75 0 L 0.75 -1.84375 C 1.875 -2.851562 2.851562 -3.796875 3.6875 -4.671875 C 4.53125 -5.554688 5.1875 -6.378906 5.65625 -7.140625 C 6.125 -7.898438 6.359375 -8.601562 6.359375 -9.25 C 6.359375 -9.863281 6.195312 -10.332031 5.875 -10.65625 C 5.5625 -10.976562 5.140625 -11.140625 4.609375 -11.140625 C 4.148438 -11.140625 3.734375 -11.007812 3.359375 -10.75 C 2.992188 -10.5 2.65625 -10.195312 2.34375 -9.84375 L 0.59375 -11.578125 C 1.25 -12.273438 1.914062 -12.789062 2.59375 -13.125 C 3.28125 -13.46875 4.097656 -13.640625 5.046875 -13.640625 C 5.910156 -13.640625 6.671875 -13.460938 7.328125 -13.109375 C 7.984375 -12.765625 8.5 -12.273438 8.875 -11.640625 C 9.25 -11.015625 9.4375 -10.28125 9.4375 -9.4375 C 9.4375 -8.664062 9.238281 -7.878906 8.84375 -7.078125 C 8.457031 -6.285156 7.957031 -5.5 7.34375 -4.71875 C 6.726562 -3.945312 6.082031 -3.210938 5.40625 -2.515625 C 5.738281 -2.566406 6.109375 -2.609375 6.515625 -2.640625 C 6.921875 -2.679688 7.273438 -2.703125 7.578125 -2.703125 L 10.046875 -2.703125 L 10.046875 0 Z M 0.75 0 "/></g></g></g><g fill="#fcfcfd" fill-opacity="1"><g transform="translate(281.998875, 496.747964)"><g><path d="M 5.46875 0.25 C 4.53125 0.25 3.703125 -0.0078125 2.984375 -0.53125 C 2.273438 -1.0625 1.722656 -1.847656 1.328125 -2.890625 C 0.929688 -3.941406 0.734375 -5.234375 0.734375 -6.765625 C 0.734375 -8.304688 0.929688 -9.582031 1.328125 -10.59375 C 1.722656 -11.613281 2.273438 -12.375 2.984375 -12.875 C 3.703125 -13.382812 4.53125 -13.640625 5.46875 -13.640625 C 6.414062 -13.640625 7.242188 -13.382812 7.953125 -12.875 C 8.660156 -12.363281 9.210938 -11.597656 9.609375 -10.578125 C 10.015625 -9.554688 10.21875 -8.285156 10.21875 -6.765625 C 10.21875 -5.234375 10.015625 -3.941406 9.609375 -2.890625 C 9.210938 -1.847656 8.660156 -1.0625 7.953125 -0.53125 C 7.242188 -0.0078125 6.414062 0.25 5.46875 0.25 Z M 5.46875 -2.234375 C 5.789062 -2.234375 6.082031 -2.351562 6.34375 -2.59375 C 6.601562 -2.84375 6.8125 -3.296875 6.96875 -3.953125 C 7.125 -4.609375 7.203125 -5.546875 7.203125 -6.765625 C 7.203125 -7.992188 7.125 -8.921875 6.96875 -9.546875 C 6.8125 -10.179688 6.601562 -10.609375 6.34375 -10.828125 C 6.082031 -11.054688 5.789062 -11.171875 5.46875 -11.171875 C 5.15625 -11.171875 4.867188 -11.054688 4.609375 -10.828125 C 4.347656 -10.609375 4.140625 -10.179688 3.984375 -9.546875 C 3.835938 -8.921875 3.765625 -7.992188 3.765625 -6.765625 C 3.765625 -5.546875 3.835938 -4.609375 3.984375 -3.953125 C 4.140625 -3.296875 4.347656 -2.84375 4.609375 -2.59375 C 4.867188 -2.351562 5.15625 -2.234375 5.46875 -2.234375 Z M 5.46875 -2.234375 "/></g></g></g><g clip-path="url(#1c2a683097)"><g clip-path="url(#7c766ccfc6)"><g clip-path="url(#341ea9640f)"><g transform="matrix(1, 0, 0, 1, 371, 125)"><g clip-path="url(#af130bd7d2)"><g clip-path="url(#d8f4db7adf)"><g clip-path="url(#ad7d72df92)"><g clip-path="url(#79ece83300)"><path fill="#9ea7ac" d="M -13.835938 212.660156 L 178.714844 -11.917969 L 207.679688 12.914062 L 15.128906 237.492188 Z M -13.835938 212.660156 " fill-opacity="1" fill-rule="nonzero"/></g></g></g></g></g></g></g></g><g clip-path="url(#c986f0c14c)"><g clip-path="url(#d0bf21ab71)"><g clip-path="url(#0a2e801470)"><g clip-path="url(#43f45b22a3)"><path stroke-linecap="butt" transform="matrix(0.488173, -0.569375, 0.569375, 0.488173, 357.183062, 337.640512)" fill="none" stroke-linejoin="miter" d="M 295.835317 -0.000317972 L 98.614451 0.000506423 L -0.00177313 25.427825 L 98.613602 50.858838 L 295.834467 50.858013 L 394.443347 25.430131 Z M 295.835317 -0.000317972 " stroke="#000000" stroke-width="18" stroke-opacity="1" stroke-miterlimit="4"/></g></g></g></g><g clip-path="url(#b5ac5ba6ab)"><g clip-path="url(#18adc4e526)"><g clip-path="url(#07873f280a)"><g transform="matrix(1, 0, 0, 1, 477, 82)"><g clip-path="url(#9e591dbca5)"><g clip-path="url(#f9924d0e23)"><g clip-path="url(#450bf88de2)"><g clip-path="url(#096e3b9d75)"><path fill="#efcd45" d="M -16.769531 113.582031 L 30.039062 -11.328125 L 90.832031 11.453125 L 44.023438 136.363281 Z M -16.769531 113.582031 " fill-opacity="1" fill-rule="nonzero"/></g></g></g></g></g></g></g></g><g clip-path="url(#7bdf9d15b4)"><g clip-path="url(#f964dec82b)"><g clip-path="url(#440de08496)"><g clip-path="url(#a34889ef2c)"><path stroke-linecap="butt" transform="matrix(0.263179, -0.702308, 0.702308, 0.263179, 460.233844, 195.575358)" fill="none" stroke-linejoin="miter" d="M 110.462927 -0.000899116 L 67.268641 -0.0000124823 L -0.00111907 43.273661 L 67.26794 86.545223 L 110.462226 86.544336 L 177.727109 43.27249 Z M 110.462927 -0.000899116 " stroke="#000000" stroke-width="20" stroke-opacity="1" stroke-miterlimit="4"/></g></g></g></g><g clip-path="url(#eabf0c6295)"><g clip-path="url(#9f0a46b9e8)"><g clip-path="url(#f97420dff6)"><g transform="matrix(1, 0, 0, 1, 490, 149)"><g clip-path="url(#c8c02a959a)"><g clip-path="url(#a51cc6bdb7)"><g clip-path="url(#e75d9a5493)"><g clip-path="url(#36b3c57f4f)"><path fill="#efcd45" d="M -10.515625 27.441406 L 115.480469 -16.363281 L 136.796875 44.957031 L 10.804688 88.761719 Z M -10.515625 27.441406 " fill-opacity="1" fill-rule="nonzero"/></g></g></g></g></g></g></g></g><g clip-path="url(#1388bdcbe4)"><g clip-path="url(#281c7eddb4)"><g clip-path="url(#6a94cb77fa)"><g clip-path="url(#0eb4287211)"><path stroke-linecap="butt" transform="matrix(0.708407, -0.246291, 0.246291, 0.708407, 479.491491, 176.440353)" fill="none" stroke-linejoin="miter" d="M 110.460361 -0.000865462 L 67.26866 -0.00227352 L -0.000339882 43.270757 L 67.268648 86.547526 L 110.460349 86.548934 L 177.731059 43.270985 Z M 110.460361 -0.000865462 " stroke="#000000" stroke-width="20" stroke-opacity="1" stroke-miterlimit="4"/></g></g></g></g><g clip-path="url(#24352ba8a0)"><g clip-path="url(#169be8a695)"><g clip-path="url(#8ea8049d23)"><g transform="matrix(1, 0, 0, 1, 488, 114)"><g clip-path="url(#f80c50dc6c)"><g clip-path="url(#ce6c56b6d9)"><g clip-path="url(#b7fc456e71)"><g clip-path="url(#0f48b236bf)"><path fill="#ffde59" d="M -22.050781 71.320312 L 72.273438 -23.003906 L 118.175781 22.902344 L 23.855469 117.226562 Z M -22.050781 71.320312 " fill-opacity="1" fill-rule="nonzero"/></g></g></g></g></g></g></g></g><g clip-path="url(#d99ea4f968)"><g clip-path="url(#edcb170646)"><g clip-path="url(#9b3d7a1131)"><g clip-path="url(#4910fe39dd)"><path stroke-linecap="butt" transform="matrix(0.53033, -0.53033, 0.53033, 0.53033, 465.954508, 185.314024)" fill="none" stroke-linejoin="miter" d="M 110.459792 0.000942374 L 67.267351 0.000942374 L 0.000132773 43.270723 L 67.267351 86.54787 L 110.459792 86.54787 L 177.730694 43.274406 Z M 110.459792 0.000942374 " stroke="#000000" stroke-width="20" stroke-opacity="1" stroke-miterlimit="4"/></g></g></g></g><g clip-path="url(#ce5701e912)"><g clip-path="url(#3bee9fcbc5)"><g transform="matrix(1, 0, 0, 1, 405, 202)"><g clip-path="url(#889586719b)"><g clip-path="url(#e64a80829c)"><g clip-path="url(#489fec796f)"><path fill="#ffde59" d="M 0.554688 78.613281 L 68.394531 0.234375 L 97.304688 25.257812 L 29.46875 103.636719 Z M 0.554688 78.613281 " fill-opacity="1" fill-rule="nonzero"/></g></g></g></g></g></g><g clip-path="url(#99b76aaba0)"><g clip-path="url(#58d2580f7d)"><g clip-path="url(#fddae2edf6)"><path stroke-linecap="butt" transform="matrix(0.490818, -0.567096, 0.567096, 0.490818, 405.562255, 280.605767)" fill="none" stroke-linejoin="miter" d="M 0.000514691 -0.0000132349 L 138.16308 -0.000355273 L 138.158327 50.969309 L -0.000299994 50.966242 Z M 0.000514691 -0.0000132349 " stroke="#000000" stroke-width="18" stroke-opacity="1" stroke-miterlimit="4"/></g></g></g></svg>