<svg xmlns="http://www.w3.org/2000/svg" xmlns:xlink="http://www.w3.org/1999/xlink" width="1000" zoomAndPan="magnify" viewBox="0 0 750 749.999995" height="1000" preserveAspectRatio="xMidYMid meet" version="1.0"><defs><g/><clipPath id="9313679771"><path d="M 155.710938 323.84375 L 219.289062 323.84375 L 219.289062 548.84375 L 155.710938 548.84375 Z M 155.710938 323.84375 " clip-rule="nonzero"/></clipPath><clipPath id="48b5837e96"><path d="M 0.710938 0.84375 L 64.289062 0.84375 L 64.289062 225.84375 L 0.710938 225.84375 Z M 0.710938 0.84375 " clip-rule="nonzero"/></clipPath><clipPath id="1fec4d06ec"><rect x="0" width="65" y="0" height="226"/></clipPath><clipPath id="a53bc45741"><path d="M 155.710938 323.847656 L 219.285156 323.847656 L 219.285156 548.84375 L 155.710938 548.84375 Z M 155.710938 323.847656 " clip-rule="nonzero"/></clipPath><clipPath id="85322d72e7"><path d="M 530.710938 323.84375 L 594.289062 323.84375 L 594.289062 548.84375 L 530.710938 548.84375 Z M 530.710938 323.84375 " clip-rule="nonzero"/></clipPath><clipPath id="0d7cf33581"><path d="M 0.710938 0.84375 L 64.289062 0.84375 L 64.289062 225.84375 L 0.710938 225.84375 Z M 0.710938 0.84375 " clip-rule="nonzero"/></clipPath><clipPath id="ffc81f488f"><rect x="0" width="65" y="0" height="226"/></clipPath><clipPath id="1479533e62"><path d="M 530.710938 323.847656 L 594.285156 323.847656 L 594.285156 548.84375 L 530.710938 548.84375 Z M 530.710938 323.847656 " clip-rule="nonzero"/></clipPath><clipPath id="e3bee11b01"><path d="M 60.265625 99.316406 L 314.734375 99.316406 L 314.734375 375.222656 L 60.265625 375.222656 Z M 60.265625 99.316406 " clip-rule="nonzero"/></clipPath><clipPath id="b293758bd4"><path d="M 0.265625 0.316406 L 254.734375 0.316406 L 254.734375 276.222656 L 0.265625 276.222656 Z M 0.265625 0.316406 " clip-rule="nonzero"/></clipPath><clipPath id="491d670adb"><rect x="0" width="255" y="0" height="277"/></clipPath><clipPath id="2a0c50c185"><path d="M 60.265625 99.320312 L 314.515625 99.320312 L 314.515625 375.214844 L 60.265625 375.214844 Z M 60.265625 99.320312 " clip-rule="nonzero"/></clipPath><clipPath id="a6380fa8c0"><path d="M 75 111.371094 L 300 111.371094 L 300 363.164062 L 75 363.164062 Z M 75 111.371094 " clip-rule="nonzero"/></clipPath><clipPath id="0cd7796e6a"><path d="M 0 0.371094 L 225 0.371094 L 225 252 L 0 252 Z M 0 0.371094 " clip-rule="nonzero"/></clipPath><clipPath id="dfaf8248b4"><rect x="0" width="225" y="0" height="253"/></clipPath><clipPath id="61a87cdbe2"><path d="M 75 111.371094 L 300 111.371094 L 300 363.160156 L 75 363.160156 Z M 75 111.371094 " clip-rule="nonzero"/></clipPath><clipPath id="a224b7a9fc"><path d="M 435.265625 99.316406 L 689.734375 99.316406 L 689.734375 375.222656 L 435.265625 375.222656 Z M 435.265625 99.316406 " clip-rule="nonzero"/></clipPath><clipPath id="08a41503ef"><path d="M 0.265625 0.316406 L 254.734375 0.316406 L 254.734375 276.222656 L 0.265625 276.222656 Z M 0.265625 0.316406 " clip-rule="nonzero"/></clipPath><clipPath id="3f6e23a379"><rect x="0" width="255" y="0" height="277"/></clipPath><clipPath id="4b0a7b94e6"><path d="M 435.265625 99.320312 L 689.515625 99.320312 L 689.515625 375.214844 L 435.265625 375.214844 Z M 435.265625 99.320312 " clip-rule="nonzero"/></clipPath><clipPath id="d79726a7a0"><path d="M 450 111.371094 L 675 111.371094 L 675 363.164062 L 450 363.164062 Z M 450 111.371094 " clip-rule="nonzero"/></clipPath><clipPath id="0df383aae0"><path d="M 0 0.371094 L 225 0.371094 L 225 252 L 0 252 Z M 0 0.371094 " clip-rule="nonzero"/></clipPath><clipPath id="0c02eae80d"><rect x="0" width="225" y="0" height="253"/></clipPath><clipPath id="212b98f75c"><path d="M 450 111.371094 L 675 111.371094 L 675 363.160156 L 450 363.160156 Z M 450 111.371094 " clip-rule="nonzero"/></clipPath><clipPath id="85e5ef2d27"><path d="M 98.675781 135.472656 L 276.324219 135.472656 L 276.324219 339.066406 L 98.675781 339.066406 Z M 98.675781 135.472656 " clip-rule="nonzero"/></clipPath><clipPath id="3997473469"><path d="M 0.675781 0.472656 L 178.324219 0.472656 L 178.324219 204 L 0.675781 204 Z M 0.675781 0.472656 " clip-rule="nonzero"/></clipPath><clipPath id="fa9323cbdd"><rect x="0" width="179" y="0" height="205"/></clipPath><clipPath id="2c5468d761"><path d="M 98.675781 135.472656 L 276.320312 135.472656 L 276.320312 338.722656 L 98.675781 338.722656 Z M 98.675781 135.472656 " clip-rule="nonzero"/></clipPath><clipPath id="7924fb00e3"><path d="M 473.675781 135.472656 L 651.324219 135.472656 L 651.324219 339.066406 L 473.675781 339.066406 Z M 473.675781 135.472656 " clip-rule="nonzero"/></clipPath><clipPath id="8119885351"><path d="M 0.675781 0.472656 L 178.324219 0.472656 L 178.324219 204 L 0.675781 204 Z M 0.675781 0.472656 " clip-rule="nonzero"/></clipPath><clipPath id="9673d1b8b7"><rect x="0" width="179" y="0" height="205"/></clipPath><clipPath id="2c1fa4be3b"><path d="M 473.675781 135.472656 L 651.320312 135.472656 L 651.320312 338.722656 L 473.675781 338.722656 Z M 473.675781 135.472656 " clip-rule="nonzero"/></clipPath><clipPath id="694538c041"><path d="M 114.320312 150.691406 L 260.679688 150.691406 L 260.679688 323.84375 L 114.320312 323.84375 Z M 114.320312 150.691406 " clip-rule="nonzero"/></clipPath><clipPath id="560d34e544"><path d="M 0.320312 0.691406 L 146.679688 0.691406 L 146.679688 173.84375 L 0.320312 173.84375 Z M 0.320312 0.691406 " clip-rule="nonzero"/></clipPath><clipPath id="65fef75c45"><rect x="0" width="147" y="0" height="174"/></clipPath><clipPath id="0c18236a68"><path d="M 114.320312 150.691406 L 260.570312 150.691406 L 260.570312 323.835938 L 114.320312 323.835938 Z M 114.320312 150.691406 " clip-rule="nonzero"/></clipPath><clipPath id="4d9db88082"><path d="M 489.320312 150.691406 L 635.679688 150.691406 L 635.679688 323.84375 L 489.320312 323.84375 Z M 489.320312 150.691406 " clip-rule="nonzero"/></clipPath><clipPath id="2ecf99a5e4"><path d="M 0.320312 0.691406 L 146.679688 0.691406 L 146.679688 173.84375 L 0.320312 173.84375 Z M 0.320312 0.691406 " clip-rule="nonzero"/></clipPath><clipPath id="7ab6f96634"><rect x="0" width="147" y="0" height="174"/></clipPath><clipPath id="3663c1ac67"><path d="M 489.320312 150.691406 L 635.570312 150.691406 L 635.570312 323.835938 L 489.320312 323.835938 Z M 489.320312 150.691406 " clip-rule="nonzero"/></clipPath></defs><g clip-path="url(#9313679771)"><g transform="matrix(1, 0, 0, 1, 155, 323)"><g clip-path="url(#1fec4d06ec)"><g clip-path="url(#48b5837e96)"><path fill="#ffffff" d="M 0.710938 0.84375 L 64.289062 0.84375 L 64.289062 225.84375 L 0.710938 225.84375 Z M 0.710938 0.84375 " fill-opacity="1" fill-rule="nonzero"/></g></g></g></g><g clip-path="url(#a53bc45741)"><path stroke-linecap="butt" transform="matrix(0.75, 0, 0, 0.75, 155.712021, 323.848598)" fill="none" stroke-linejoin="miter" d="M -0.00144528 -0.00125542 L 84.764184 -0.00125542 L 84.764184 299.993551 L -0.00144528 299.993551 Z M -0.00144528 -0.00125542 " stroke="#000000" stroke-width="16" stroke-opacity="1" stroke-miterlimit="4"/></g><g clip-path="url(#85322d72e7)"><g transform="matrix(1, 0, 0, 1, 530, 323)"><g clip-path="url(#ffc81f488f)"><g clip-path="url(#0d7cf33581)"><path fill="#ffffff" d="M 0.710938 0.84375 L 64.289062 0.84375 L 64.289062 225.84375 L 0.710938 225.84375 Z M 0.710938 0.84375 " fill-opacity="1" fill-rule="nonzero"/></g></g></g></g><g clip-path="url(#1479533e62)"><path stroke-linecap="butt" transform="matrix(0.75, 0, 0, 0.75, 530.711977, 323.848598)" fill="none" stroke-linejoin="miter" d="M -0.00138572 -0.00125542 L 84.764243 -0.00125542 L 84.764243 299.993551 L -0.00138572 299.993551 Z M -0.00138572 -0.00125542 " stroke="#000000" stroke-width="16" stroke-opacity="1" stroke-miterlimit="4"/></g><g fill="#000000" fill-opacity="1"><g transform="translate(241.750022, 651.620731)"><g><path d="M 5.03125 0 L 5.03125 -12.234375 C 12.46875 -19.023438 18.984375 -25.335938 24.578125 -31.171875 C 30.179688 -37.015625 34.539062 -42.472656 37.65625 -47.546875 C 40.769531 -52.628906 42.328125 -57.328125 42.328125 -61.640625 C 42.328125 -65.710938 41.269531 -68.828125 39.15625 -70.984375 C 37.039062 -73.148438 34.222656 -74.234375 30.703125 -74.234375 C 27.660156 -74.234375 24.898438 -73.375 22.421875 -71.65625 C 19.941406 -69.9375 17.664062 -67.914062 15.59375 -65.59375 L 3.953125 -77.109375 C 8.347656 -81.742188 12.804688 -85.203125 17.328125 -87.484375 C 21.847656 -89.765625 27.265625 -90.90625 33.578125 -90.90625 C 39.335938 -90.90625 44.414062 -89.742188 48.8125 -87.421875 C 53.207031 -85.109375 56.644531 -81.851562 59.125 -77.65625 C 61.601562 -73.457031 62.84375 -68.519531 62.84375 -62.84375 C 62.84375 -57.726562 61.539062 -52.507812 58.9375 -47.1875 C 56.34375 -41.875 53.003906 -36.640625 48.921875 -31.484375 C 44.847656 -26.328125 40.535156 -21.429688 35.984375 -16.796875 C 38.210938 -17.109375 40.6875 -17.382812 43.40625 -17.625 C 46.125 -17.863281 48.484375 -17.984375 50.484375 -17.984375 L 66.921875 -17.984375 L 66.921875 0 Z M 5.03125 0 "/></g></g></g><g fill="#000000" fill-opacity="1"><g transform="translate(314.780078, 651.620731)"><g><path d="M 34.171875 1.671875 C 27.054688 1.671875 20.960938 0.472656 15.890625 -1.921875 C 10.816406 -4.316406 6.519531 -7.234375 3 -10.671875 L 12.71875 -24.109375 C 15.269531 -21.703125 18.082031 -19.679688 21.15625 -18.046875 C 24.238281 -16.410156 27.539062 -15.59375 31.0625 -15.59375 C 35.375 -15.59375 38.789062 -16.75 41.3125 -19.0625 C 43.832031 -21.382812 45.09375 -24.863281 45.09375 -29.5 C 45.09375 -33.976562 43.875 -37.394531 41.4375 -39.75 C 39 -42.113281 35.859375 -43.296875 32.015625 -43.296875 C 29.535156 -43.296875 27.476562 -42.992188 25.84375 -42.390625 C 24.207031 -41.796875 22.066406 -40.65625 19.421875 -38.96875 L 10.078125 -45.09375 L 12.359375 -89.21875 L 62.484375 -89.21875 L 62.484375 -71.46875 L 30.703125 -71.46875 L 29.375 -56.359375 C 32.332031 -57.554688 35.410156 -58.15625 38.609375 -58.15625 C 43.648438 -58.15625 48.285156 -57.15625 52.515625 -55.15625 C 56.753906 -53.164062 60.132812 -50.085938 62.65625 -45.921875 C 65.175781 -41.765625 66.4375 -36.453125 66.4375 -29.984375 C 66.4375 -23.347656 64.9375 -17.648438 61.9375 -12.890625 C 58.9375 -8.128906 55 -4.507812 50.125 -2.03125 C 45.25 0.4375 39.929688 1.671875 34.171875 1.671875 Z M 34.171875 1.671875 "/></g></g></g><g fill="#000000" fill-opacity="1"><g transform="translate(387.810135, 651.620731)"><g><path d="M 31.78125 -72.3125 L 31.78125 -48.328125 L 41.375 -48.328125 C 51.769531 -48.328125 56.96875 -52.601562 56.96875 -61.15625 C 56.96875 -65.394531 55.644531 -68.3125 53 -69.90625 C 50.363281 -71.507812 46.488281 -72.3125 41.375 -72.3125 Z M 82.5 0 L 58.515625 0 L 42.09375 -31.421875 L 31.78125 -31.421875 L 31.78125 0 L 10.3125 0 L 10.3125 -89.21875 L 43.046875 -89.21875 C 49.441406 -89.21875 55.273438 -88.378906 60.546875 -86.703125 C 65.828125 -85.023438 70.046875 -82.144531 73.203125 -78.0625 C 76.367188 -73.988281 77.953125 -68.351562 77.953125 -61.15625 C 77.953125 -54.601562 76.550781 -49.207031 73.75 -44.96875 C 70.957031 -40.726562 67.238281 -37.53125 62.59375 -35.375 Z M 82.5 0 "/></g></g></g><g clip-path="url(#e3bee11b01)"><g transform="matrix(1, 0, 0, 1, 60, 99)"><g clip-path="url(#491d670adb)"><g clip-path="url(#b293758bd4)"><path fill="#ffffff" d="M 0.265625 0.316406 L 254.734375 0.316406 L 254.734375 276.65625 L 0.265625 276.65625 Z M 0.265625 0.316406 " fill-opacity="1" fill-rule="nonzero"/></g></g></g></g><g clip-path="url(#2a0c50c185)"><path stroke-linecap="butt" transform="matrix(0.75, 0, 0, 0.75, 60.263745, 99.321351)" fill="none" stroke-linejoin="miter" d="M 0.00250625 -0.00138488 L 339.283751 -0.00138488 L 339.283751 367.857985 L 0.00250625 367.857985 Z M 0.00250625 -0.00138488 " stroke="#000000" stroke-width="16" stroke-opacity="1" stroke-miterlimit="4"/></g><g clip-path="url(#a6380fa8c0)"><g transform="matrix(1, 0, 0, 1, 75, 111)"><g clip-path="url(#dfaf8248b4)"><g clip-path="url(#0cd7796e6a)"><path fill="#ff3a3a" d="M 0 0.371094 L 225 0.371094 L 225 251.738281 L 0 251.738281 Z M 0 0.371094 " fill-opacity="1" fill-rule="nonzero"/></g></g></g></g><g clip-path="url(#61a87cdbe2)"><path stroke-linecap="butt" transform="matrix(0.75, 0, 0, 0.75, 75.001852, 111.372437)" fill="none" stroke-linejoin="miter" d="M -0.00246906 -0.00179096 L 299.997546 -0.00179096 L 299.997546 335.716975 L -0.00246906 335.716975 Z M -0.00246906 -0.00179096 " stroke="#000000" stroke-width="16" stroke-opacity="1" stroke-miterlimit="4"/></g><g clip-path="url(#a224b7a9fc)"><g transform="matrix(1, 0, 0, 1, 435, 99)"><g clip-path="url(#3f6e23a379)"><g clip-path="url(#08a41503ef)"><path fill="#ffffff" d="M 0.265625 0.316406 L 254.734375 0.316406 L 254.734375 276.65625 L 0.265625 276.65625 Z M 0.265625 0.316406 " fill-opacity="1" fill-rule="nonzero"/></g></g></g></g><g clip-path="url(#4b0a7b94e6)"><path stroke-linecap="butt" transform="matrix(0.75, 0, 0, 0.75, 435.263741, 99.321351)" fill="none" stroke-linejoin="miter" d="M 0.00251142 -0.00138488 L 339.283756 -0.00138488 L 339.283756 367.857985 L 0.00251142 367.857985 Z M 0.00251142 -0.00138488 " stroke="#000000" stroke-width="16" stroke-opacity="1" stroke-miterlimit="4"/></g><g clip-path="url(#d79726a7a0)"><g transform="matrix(1, 0, 0, 1, 450, 111)"><g clip-path="url(#0c02eae80d)"><g clip-path="url(#0df383aae0)"><path fill="#0927eb" d="M 0 0.371094 L 225 0.371094 L 225 251.738281 L 0 251.738281 Z M 0 0.371094 " fill-opacity="1" fill-rule="nonzero"/></g></g></g></g><g clip-path="url(#212b98f75c)"><path stroke-linecap="butt" transform="matrix(0.75, 0, 0, 0.75, 450.001829, 111.372437)" fill="none" stroke-linejoin="miter" d="M -0.00243829 -0.00179096 L 299.997576 -0.00179096 L 299.997576 335.716975 L -0.00243829 335.716975 Z M -0.00243829 -0.00179096 " stroke="#000000" stroke-width="16" stroke-opacity="1" stroke-miterlimit="4"/></g><g clip-path="url(#85e5ef2d27)"><g transform="matrix(1, 0, 0, 1, 98, 135)"><g clip-path="url(#fa9323cbdd)"><g clip-path="url(#3997473469)"><path fill="#fcfffe" d="M 0.675781 0.472656 L 178.324219 0.472656 L 178.324219 203.792969 L 0.675781 203.792969 Z M 0.675781 0.472656 " fill-opacity="1" fill-rule="nonzero"/></g></g></g></g><g clip-path="url(#2c5468d761)"><path stroke-linecap="butt" transform="matrix(0.75, 0, 0, 0.75, 98.677402, 135.47181)" fill="none" stroke-linejoin="miter" d="M -0.00216079 0.00112807 L 236.857211 0.00112807 L 236.857211 271.454249 L -0.00216079 271.454249 Z M -0.00216079 0.00112807 " stroke="#740000" stroke-width="28" stroke-opacity="1" stroke-miterlimit="4"/></g><g clip-path="url(#7924fb00e3)"><g transform="matrix(1, 0, 0, 1, 473, 135)"><g clip-path="url(#9673d1b8b7)"><g clip-path="url(#8119885351)"><path fill="#fcfffe" d="M 0.675781 0.472656 L 178.324219 0.472656 L 178.324219 203.792969 L 0.675781 203.792969 Z M 0.675781 0.472656 " fill-opacity="1" fill-rule="nonzero"/></g></g></g></g><g clip-path="url(#2c1fa4be3b)"><path stroke-linecap="butt" transform="matrix(0.75, 0, 0, 0.75, 473.677372, 135.47181)" fill="none" stroke-linejoin="miter" d="M -0.00212042 0.00112807 L 236.857251 0.00112807 L 236.857251 271.454249 L -0.00212042 271.454249 Z M -0.00212042 0.00112807 " stroke="#0e1964" stroke-width="28" stroke-opacity="1" stroke-miterlimit="4"/></g><g clip-path="url(#694538c041)"><g transform="matrix(1, 0, 0, 1, 114, 150)"><g clip-path="url(#65fef75c45)"><g clip-path="url(#560d34e544)"><path fill="#ffbfbf" d="M 0.320312 0.691406 L 146.679688 0.691406 L 146.679688 173.921875 L 0.320312 173.921875 Z M 0.320312 0.691406 " fill-opacity="1" fill-rule="nonzero"/></g></g></g></g><g clip-path="url(#0c18236a68)"><path stroke-linecap="butt" transform="matrix(0.75, 0, 0, 0.75, 114.321391, 150.692415)" fill="none" stroke-linejoin="miter" d="M -0.00143757 -0.00134508 L 195.139197 -0.00134508 L 195.139197 230.858041 L -0.00143757 230.858041 Z M -0.00143757 -0.00134508 " stroke="#ff3a3a" stroke-width="16" stroke-opacity="1" stroke-miterlimit="4"/></g><g clip-path="url(#4d9db88082)"><g transform="matrix(1, 0, 0, 1, 489, 150)"><g clip-path="url(#7ab6f96634)"><g clip-path="url(#2ecf99a5e4)"><path fill="#d9f1ff" d="M 0.320312 0.691406 L 146.679688 0.691406 L 146.679688 173.921875 L 0.320312 173.921875 Z M 0.320312 0.691406 " fill-opacity="1" fill-rule="nonzero"/></g></g></g></g><g clip-path="url(#3663c1ac67)"><path stroke-linecap="butt" transform="matrix(0.75, 0, 0, 0.75, 489.321387, 150.692415)" fill="none" stroke-linejoin="miter" d="M -0.00143241 -0.00134508 L 195.139202 -0.00134508 L 195.139202 230.858041 L -0.00143241 230.858041 Z M -0.00143241 -0.00134508 " stroke="#0927eb" stroke-width="16" stroke-opacity="1" stroke-miterlimit="4"/></g><path stroke-linecap="butt" transform="matrix(0.475797, -0.579756, 0.579756, 0.475797, 77.483452, 284.165632)" fill="none" stroke-linejoin="miter" d="M 13.248722 87.081959 C 114.3783 -2.361655 198.446211 -2.360423 265.456481 87.082349 " stroke="#fcfffe" stroke-width="40" stroke-opacity="1" stroke-miterlimit="4"/><path stroke-linecap="butt" transform="matrix(0.75, 0, 0, 0.75, 134.270679, 222.269013)" fill="none" stroke-linejoin="miter" d="M -0.00153074 20.000692 L 159.998477 20.000692 " stroke="#fcfffe" stroke-width="40" stroke-opacity="1" stroke-miterlimit="4"/><path stroke-linecap="butt" transform="matrix(0, 0.75, -0.75, 0, 254.269442, 157.558078)" fill="none" stroke-linejoin="miter" d="M 0.000687771 19.999882 L 212.563198 19.999882 " stroke="#fcfffe" stroke-width="40" stroke-opacity="1" stroke-miterlimit="4"/><path stroke-linecap="butt" transform="matrix(0, 0.75, -0.75, 0, 250.516044, 163.471829)" fill="none" stroke-linejoin="miter" d="M 0.00110322 15.000559 L 201.88653 15.000559 " stroke="#740000" stroke-width="30" stroke-opacity="1" stroke-miterlimit="4"/><path stroke-linecap="butt" transform="matrix(0.473291, -0.581804, 0.581804, 0.473291, 83.573151, 283.024929)" fill="none" stroke-linejoin="miter" d="M 9.708339 79.245637 C 110.593881 -6.41561 192.625258 -6.416434 255.802471 79.243165 " stroke="#740000" stroke-width="30" stroke-opacity="1" stroke-miterlimit="4"/><path stroke-linecap="butt" transform="matrix(0.75, -0.000000000000000279, 0.000000000000000279, 0.75, 141.400952, 226.018955)" fill="none" stroke-linejoin="miter" d="M 0.00185599 15.000769 L 137.991446 15.000769 " stroke="#740000" stroke-width="30" stroke-opacity="1" stroke-miterlimit="4"/><path stroke-linecap="butt" transform="matrix(0.471727, -0.583072, 0.583072, 0.471727, 90.270826, 281.215084)" fill="none" stroke-linejoin="miter" d="M 6.270462 70.393783 C 106.331248 -10.130389 185.833842 -10.129777 244.778243 70.395619 " stroke="#ff3a3a" stroke-width="20" stroke-opacity="1" stroke-miterlimit="4"/><path stroke-linecap="butt" transform="matrix(0.75, -0.000000000000000279, 0.000000000000000279, 0.75, 141.400952, 229.768955)" fill="none" stroke-linejoin="miter" d="M 0.00185599 10.000769 L 137.991446 10.000769 " stroke="#ff3a3a" stroke-width="20" stroke-opacity="1" stroke-miterlimit="4"/><path stroke-linecap="butt" transform="matrix(0, 0.75, -0.75, 0, 246.768039, 166.392727)" fill="none" stroke-linejoin="miter" d="M 0.00240555 9.99801 L 192.507623 9.99801 " stroke="#ff3a3a" stroke-width="20" stroke-opacity="1" stroke-miterlimit="4"/><path stroke-linecap="butt" transform="matrix(0, -0.75, 0.75, 0, 495.55481, 317.919261)" fill="none" stroke-linejoin="miter" d="M 0.00172341 19.999837 L 213.819442 19.999837 " stroke="#fcfffe" stroke-width="40" stroke-opacity="1" stroke-miterlimit="4"/><path stroke-linecap="butt" transform="matrix(0.128337, 0.738938, -0.738938, 0.128337, 605.159685, 139.304075)" fill="none" stroke-linejoin="miter" d="M 19.898922 150.144963 C 37.592697 -23.38151 73.391403 -23.380754 127.289909 150.146341 " stroke="#fcfffe" stroke-width="40" stroke-opacity="1" stroke-miterlimit="4"/><path stroke-linecap="butt" transform="matrix(-0.436609, 0.609814, -0.609814, -0.436609, 651.692323, 254.4695)" fill="none" stroke-linejoin="miter" d="M 19.964858 131.973761 C 28.740392 -17.321712 78.919443 -17.325591 170.50081 131.969391 " stroke="#fcfffe" stroke-width="40" stroke-opacity="1" stroke-miterlimit="4"/><path stroke-linecap="butt" transform="matrix(0, -0.75, 0.75, 0, 499.303154, 314.878013)" fill="none" stroke-linejoin="miter" d="M -0.00119146 15.002045 L 201.889443 15.002045 " stroke="#0e1964" stroke-width="30" stroke-opacity="1" stroke-miterlimit="4"/><path stroke-linecap="butt" transform="matrix(0.128337, 0.738938, -0.738938, 0.128337, 601.829205, 142.016264)" fill="none" stroke-linejoin="miter" d="M 14.889059 141.664685 C 35.519895 -27.223084 71.318601 -27.222328 122.280046 141.666062 " stroke="#0e1964" stroke-width="30" stroke-opacity="1" stroke-miterlimit="4"/><path stroke-linecap="butt" transform="matrix(-0.453877, 0.597072, -0.597072, -0.453877, 646.857331, 257.401764)" fill="none" stroke-linejoin="miter" d="M 14.967835 119.445622 C 24.133636 -19.814602 74.783655 -19.815619 166.906445 119.444727 " stroke="#0e1964" stroke-width="30" stroke-opacity="1" stroke-miterlimit="4"/><path stroke-linecap="butt" transform="matrix(0.0894234, 0.74465, -0.74465, 0.0894234, 601.169205, 150.939329)" fill="none" stroke-linejoin="miter" d="M 9.967806 132.76743 C 23.581921 -30.922863 59.536268 -30.922436 117.830846 132.76871 " stroke="#0927eb" stroke-width="20" stroke-opacity="1" stroke-miterlimit="4"/><path stroke-linecap="butt" transform="matrix(0, -0.75, 0.75, 0, 503.053154, 310.765553)" fill="none" stroke-linejoin="miter" d="M -0.0000961929 10.002045 L 193.60408 10.002045 " stroke="#0927eb" stroke-width="20" stroke-opacity="1" stroke-miterlimit="4"/><path stroke-linecap="butt" transform="matrix(-0.439268, 0.607901, -0.607901, -0.439268, 641.965171, 255.81528)" fill="none" stroke-linejoin="miter" d="M 9.953143 113.253566 C 23.256748 -24.419286 72.999993 -24.417694 159.187097 113.255291 " stroke="#0927eb" stroke-width="20" stroke-opacity="1" stroke-miterlimit="4"/></svg>