<svg xmlns="http://www.w3.org/2000/svg" xmlns:xlink="http://www.w3.org/1999/xlink" width="1000" zoomAndPan="magnify" viewBox="0 0 750 749.999995" height="1000" preserveAspectRatio="xMidYMid meet" version="1.0"><defs><g/><clipPath id="ec9be4bf4a"><path d="M 155.710938 323.84375 L 219.289062 323.84375 L 219.289062 548.84375 L 155.710938 548.84375 Z M 155.710938 323.84375 " clip-rule="nonzero"/></clipPath><clipPath id="1346876db7"><path d="M 0.710938 0.84375 L 64.289062 0.84375 L 64.289062 225.84375 L 0.710938 225.84375 Z M 0.710938 0.84375 " clip-rule="nonzero"/></clipPath><clipPath id="a7bb2bc1a8"><rect x="0" width="65" y="0" height="226"/></clipPath><clipPath id="b06a893b76"><path d="M 155.710938 323.847656 L 219.285156 323.847656 L 219.285156 548.84375 L 155.710938 548.84375 Z M 155.710938 323.847656 " clip-rule="nonzero"/></clipPath><clipPath id="097f6d3b21"><path d="M 530.710938 323.84375 L 594.289062 323.84375 L 594.289062 548.84375 L 530.710938 548.84375 Z M 530.710938 323.84375 " clip-rule="nonzero"/></clipPath><clipPath id="dd000b2741"><path d="M 0.710938 0.84375 L 64.289062 0.84375 L 64.289062 225.84375 L 0.710938 225.84375 Z M 0.710938 0.84375 " clip-rule="nonzero"/></clipPath><clipPath id="da36d71f93"><rect x="0" width="65" y="0" height="226"/></clipPath><clipPath id="3c838c36c5"><path d="M 530.710938 323.847656 L 594.285156 323.847656 L 594.285156 548.84375 L 530.710938 548.84375 Z M 530.710938 323.847656 " clip-rule="nonzero"/></clipPath><clipPath id="bc91d531c7"><path d="M 60.265625 99.316406 L 314.734375 99.316406 L 314.734375 375.222656 L 60.265625 375.222656 Z M 60.265625 99.316406 " clip-rule="nonzero"/></clipPath><clipPath id="6868f12325"><path d="M 0.265625 0.316406 L 254.734375 0.316406 L 254.734375 276.222656 L 0.265625 276.222656 Z M 0.265625 0.316406 " clip-rule="nonzero"/></clipPath><clipPath id="497b2c2436"><rect x="0" width="255" y="0" height="277"/></clipPath><clipPath id="202a72158e"><path d="M 60.265625 99.320312 L 314.515625 99.320312 L 314.515625 375.214844 L 60.265625 375.214844 Z M 60.265625 99.320312 " clip-rule="nonzero"/></clipPath><clipPath id="d6ee6657a1"><path d="M 75 111.371094 L 300 111.371094 L 300 363.164062 L 75 363.164062 Z M 75 111.371094 " clip-rule="nonzero"/></clipPath><clipPath id="d5cfe32541"><path d="M 0 0.371094 L 225 0.371094 L 225 252 L 0 252 Z M 0 0.371094 " clip-rule="nonzero"/></clipPath><clipPath id="f6c3e9c29d"><rect x="0" width="225" y="0" height="253"/></clipPath><clipPath id="a226cfafd1"><path d="M 75 111.371094 L 300 111.371094 L 300 363.160156 L 75 363.160156 Z M 75 111.371094 " clip-rule="nonzero"/></clipPath><clipPath id="a55dfcb225"><path d="M 435.265625 99.316406 L 689.734375 99.316406 L 689.734375 375.222656 L 435.265625 375.222656 Z M 435.265625 99.316406 " clip-rule="nonzero"/></clipPath><clipPath id="a1cc8646c6"><path d="M 0.265625 0.316406 L 254.734375 0.316406 L 254.734375 276.222656 L 0.265625 276.222656 Z M 0.265625 0.316406 " clip-rule="nonzero"/></clipPath><clipPath id="ef7cefc003"><rect x="0" width="255" y="0" height="277"/></clipPath><clipPath id="cca57e793c"><path d="M 435.265625 99.320312 L 689.515625 99.320312 L 689.515625 375.214844 L 435.265625 375.214844 Z M 435.265625 99.320312 " clip-rule="nonzero"/></clipPath><clipPath id="4e28a2f2fe"><path d="M 450 111.371094 L 675 111.371094 L 675 363.164062 L 450 363.164062 Z M 450 111.371094 " clip-rule="nonzero"/></clipPath><clipPath id="54878e60ed"><path d="M 0 0.371094 L 225 0.371094 L 225 252 L 0 252 Z M 0 0.371094 " clip-rule="nonzero"/></clipPath><clipPath id="70b32a1405"><rect x="0" width="225" y="0" height="253"/></clipPath><clipPath id="38be8d49af"><path d="M 450 111.371094 L 675 111.371094 L 675 363.160156 L 450 363.160156 Z M 450 111.371094 " clip-rule="nonzero"/></clipPath><clipPath id="97088a17fb"><path d="M 98.675781 135.472656 L 276.324219 135.472656 L 276.324219 339.066406 L 98.675781 339.066406 Z M 98.675781 135.472656 " clip-rule="nonzero"/></clipPath><clipPath id="9cde69a5ec"><path d="M 0.675781 0.472656 L 178.324219 0.472656 L 178.324219 204 L 0.675781 204 Z M 0.675781 0.472656 " clip-rule="nonzero"/></clipPath><clipPath id="0897548383"><rect x="0" width="179" y="0" height="205"/></clipPath><clipPath id="516b3f4112"><path d="M 98.675781 135.472656 L 276.320312 135.472656 L 276.320312 338.722656 L 98.675781 338.722656 Z M 98.675781 135.472656 " clip-rule="nonzero"/></clipPath><clipPath id="ce7f466e86"><path d="M 473.675781 135.472656 L 651.324219 135.472656 L 651.324219 339.066406 L 473.675781 339.066406 Z M 473.675781 135.472656 " clip-rule="nonzero"/></clipPath><clipPath id="60186f32d6"><path d="M 0.675781 0.472656 L 178.324219 0.472656 L 178.324219 204 L 0.675781 204 Z M 0.675781 0.472656 " clip-rule="nonzero"/></clipPath><clipPath id="b3e2804a2c"><rect x="0" width="179" y="0" height="205"/></clipPath><clipPath id="f506ce9b5d"><path d="M 473.675781 135.472656 L 651.320312 135.472656 L 651.320312 338.722656 L 473.675781 338.722656 Z M 473.675781 135.472656 " clip-rule="nonzero"/></clipPath><clipPath id="feab491361"><path d="M 114.320312 150.691406 L 260.679688 150.691406 L 260.679688 323.84375 L 114.320312 323.84375 Z M 114.320312 150.691406 " clip-rule="nonzero"/></clipPath><clipPath id="2025318103"><path d="M 0.320312 0.691406 L 146.679688 0.691406 L 146.679688 173.84375 L 0.320312 173.84375 Z M 0.320312 0.691406 " clip-rule="nonzero"/></clipPath><clipPath id="39b67af4fe"><rect x="0" width="147" y="0" height="174"/></clipPath><clipPath id="60fcffb810"><path d="M 114.320312 150.691406 L 260.570312 150.691406 L 260.570312 323.835938 L 114.320312 323.835938 Z M 114.320312 150.691406 " clip-rule="nonzero"/></clipPath><clipPath id="c6b11e57ff"><path d="M 489.320312 150.691406 L 635.679688 150.691406 L 635.679688 323.84375 L 489.320312 323.84375 Z M 489.320312 150.691406 " clip-rule="nonzero"/></clipPath><clipPath id="297c650aa9"><path d="M 0.320312 0.691406 L 146.679688 0.691406 L 146.679688 173.84375 L 0.320312 173.84375 Z M 0.320312 0.691406 " clip-rule="nonzero"/></clipPath><clipPath id="54d865b3f8"><rect x="0" width="147" y="0" height="174"/></clipPath><clipPath id="04cbe20471"><path d="M 489.320312 150.691406 L 635.570312 150.691406 L 635.570312 323.835938 L 489.320312 323.835938 Z M 489.320312 150.691406 " clip-rule="nonzero"/></clipPath></defs><rect x="-75" width="900" fill="#ffffff" y="-74.999999" height="899.999994" fill-opacity="1"/><rect x="-75" width="900" fill="#ffffff" y="-74.999999" height="899.999994" fill-opacity="1"/><g clip-path="url(#ec9be4bf4a)"><g transform="matrix(1, 0, 0, 1, 155, 323)"><g clip-path="url(#a7bb2bc1a8)"><g clip-path="url(#1346876db7)"><path fill="#ffffff" d="M 0.710938 0.84375 L 64.289062 0.84375 L 64.289062 225.84375 L 0.710938 225.84375 Z M 0.710938 0.84375 " fill-opacity="1" fill-rule="nonzero"/></g></g></g></g><g clip-path="url(#b06a893b76)"><path stroke-linecap="butt" transform="matrix(0.75, 0, 0, 0.75, 155.712021, 323.848598)" fill="none" stroke-linejoin="miter" d="M -0.00144528 -0.00125542 L 84.764184 -0.00125542 L 84.764184 299.993551 L -0.00144528 299.993551 Z M -0.00144528 -0.00125542 " stroke="#000000" stroke-width="16" stroke-opacity="1" stroke-miterlimit="4"/></g><g clip-path="url(#097f6d3b21)"><g transform="matrix(1, 0, 0, 1, 530, 323)"><g clip-path="url(#da36d71f93)"><g clip-path="url(#dd000b2741)"><path fill="#ffffff" d="M 0.710938 0.84375 L 64.289062 0.84375 L 64.289062 225.84375 L 0.710938 225.84375 Z M 0.710938 0.84375 " fill-opacity="1" fill-rule="nonzero"/></g></g></g></g><g clip-path="url(#3c838c36c5)"><path stroke-linecap="butt" transform="matrix(0.75, 0, 0, 0.75, 530.711977, 323.848598)" fill="none" stroke-linejoin="miter" d="M -0.00138572 -0.00125542 L 84.764243 -0.00125542 L 84.764243 299.993551 L -0.00138572 299.993551 Z M -0.00138572 -0.00125542 " stroke="#000000" stroke-width="16" stroke-opacity="1" stroke-miterlimit="4"/></g><g fill="#000000" fill-opacity="1"><g transform="translate(241.750022, 651.620614)"><g><path d="M 5.03125 0 L 5.03125 -12.234375 C 12.46875 -19.023438 18.984375 -25.335938 24.578125 -31.171875 C 30.179688 -37.015625 34.539062 -42.472656 37.65625 -47.546875 C 40.769531 -52.628906 42.328125 -57.328125 42.328125 -61.640625 C 42.328125 -65.710938 41.269531 -68.828125 39.15625 -70.984375 C 37.039062 -73.148438 34.222656 -74.234375 30.703125 -74.234375 C 27.660156 -74.234375 24.898438 -73.375 22.421875 -71.65625 C 19.941406 -69.9375 17.664062 -67.914062 15.59375 -65.59375 L 3.953125 -77.109375 C 8.347656 -81.742188 12.804688 -85.203125 17.328125 -87.484375 C 21.847656 -89.765625 27.265625 -90.90625 33.578125 -90.90625 C 39.335938 -90.90625 44.414062 -89.742188 48.8125 -87.421875 C 53.207031 -85.109375 56.644531 -81.851562 59.125 -77.65625 C 61.601562 -73.457031 62.84375 -68.519531 62.84375 -62.84375 C 62.84375 -57.726562 61.539062 -52.507812 58.9375 -47.1875 C 56.34375 -41.875 53.003906 -36.640625 48.921875 -31.484375 C 44.847656 -26.328125 40.535156 -21.429688 35.984375 -16.796875 C 38.210938 -17.109375 40.6875 -17.382812 43.40625 -17.625 C 46.125 -17.863281 48.484375 -17.984375 50.484375 -17.984375 L 66.921875 -17.984375 L 66.921875 0 Z M 5.03125 0 "/></g></g></g><g fill="#000000" fill-opacity="1"><g transform="translate(314.780078, 651.620614)"><g><path d="M 34.171875 1.671875 C 27.054688 1.671875 20.960938 0.472656 15.890625 -1.921875 C 10.816406 -4.316406 6.519531 -7.234375 3 -10.671875 L 12.71875 -24.109375 C 15.269531 -21.703125 18.082031 -19.679688 21.15625 -18.046875 C 24.238281 -16.410156 27.539062 -15.59375 31.0625 -15.59375 C 35.375 -15.59375 38.789062 -16.75 41.3125 -19.0625 C 43.832031 -21.382812 45.09375 -24.863281 45.09375 -29.5 C 45.09375 -33.976562 43.875 -37.394531 41.4375 -39.75 C 39 -42.113281 35.859375 -43.296875 32.015625 -43.296875 C 29.535156 -43.296875 27.476562 -42.992188 25.84375 -42.390625 C 24.207031 -41.796875 22.066406 -40.65625 19.421875 -38.96875 L 10.078125 -45.09375 L 12.359375 -89.21875 L 62.484375 -89.21875 L 62.484375 -71.46875 L 30.703125 -71.46875 L 29.375 -56.359375 C 32.332031 -57.554688 35.410156 -58.15625 38.609375 -58.15625 C 43.648438 -58.15625 48.285156 -57.15625 52.515625 -55.15625 C 56.753906 -53.164062 60.132812 -50.085938 62.65625 -45.921875 C 65.175781 -41.765625 66.4375 -36.453125 66.4375 -29.984375 C 66.4375 -23.347656 64.9375 -17.648438 61.9375 -12.890625 C 58.9375 -8.128906 55 -4.507812 50.125 -2.03125 C 45.25 0.4375 39.929688 1.671875 34.171875 1.671875 Z M 34.171875 1.671875 "/></g></g></g><g fill="#000000" fill-opacity="1"><g transform="translate(387.810135, 651.620614)"><g><path d="M 31.78125 -72.3125 L 31.78125 -48.328125 L 41.375 -48.328125 C 51.769531 -48.328125 56.96875 -52.601562 56.96875 -61.15625 C 56.96875 -65.394531 55.644531 -68.3125 53 -69.90625 C 50.363281 -71.507812 46.488281 -72.3125 41.375 -72.3125 Z M 82.5 0 L 58.515625 0 L 42.09375 -31.421875 L 31.78125 -31.421875 L 31.78125 0 L 10.3125 0 L 10.3125 -89.21875 L 43.046875 -89.21875 C 49.441406 -89.21875 55.273438 -88.378906 60.546875 -86.703125 C 65.828125 -85.023438 70.046875 -82.144531 73.203125 -78.0625 C 76.367188 -73.988281 77.953125 -68.351562 77.953125 -61.15625 C 77.953125 -54.601562 76.550781 -49.207031 73.75 -44.96875 C 70.957031 -40.726562 67.238281 -37.53125 62.59375 -35.375 Z M 82.5 0 "/></g></g></g><g clip-path="url(#bc91d531c7)"><g transform="matrix(1, 0, 0, 1, 60, 99)"><g clip-path="url(#497b2c2436)"><g clip-path="url(#6868f12325)"><path fill="#ffffff" d="M 0.265625 0.316406 L 254.734375 0.316406 L 254.734375 276.65625 L 0.265625 276.65625 Z M 0.265625 0.316406 " fill-opacity="1" fill-rule="nonzero"/></g></g></g></g><g clip-path="url(#202a72158e)"><path stroke-linecap="butt" transform="matrix(0.75, 0, 0, 0.75, 60.263745, 99.321351)" fill="none" stroke-linejoin="miter" d="M 0.00250625 -0.00138488 L 339.283751 -0.00138488 L 339.283751 367.857985 L 0.00250625 367.857985 Z M 0.00250625 -0.00138488 " stroke="#000000" stroke-width="16" stroke-opacity="1" stroke-miterlimit="4"/></g><g clip-path="url(#d6ee6657a1)"><g transform="matrix(1, 0, 0, 1, 75, 111)"><g clip-path="url(#f6c3e9c29d)"><g clip-path="url(#d5cfe32541)"><path fill="#ff3a3a" d="M 0 0.371094 L 225 0.371094 L 225 251.738281 L 0 251.738281 Z M 0 0.371094 " fill-opacity="1" fill-rule="nonzero"/></g></g></g></g><g clip-path="url(#a226cfafd1)"><path stroke-linecap="butt" transform="matrix(0.75, 0, 0, 0.75, 75.001852, 111.372437)" fill="none" stroke-linejoin="miter" d="M -0.00246906 -0.00179096 L 299.997546 -0.00179096 L 299.997546 335.716975 L -0.00246906 335.716975 Z M -0.00246906 -0.00179096 " stroke="#000000" stroke-width="16" stroke-opacity="1" stroke-miterlimit="4"/></g><g clip-path="url(#a55dfcb225)"><g transform="matrix(1, 0, 0, 1, 435, 99)"><g clip-path="url(#ef7cefc003)"><g clip-path="url(#a1cc8646c6)"><path fill="#ffffff" d="M 0.265625 0.316406 L 254.734375 0.316406 L 254.734375 276.65625 L 0.265625 276.65625 Z M 0.265625 0.316406 " fill-opacity="1" fill-rule="nonzero"/></g></g></g></g><g clip-path="url(#cca57e793c)"><path stroke-linecap="butt" transform="matrix(0.75, 0, 0, 0.75, 435.263741, 99.321351)" fill="none" stroke-linejoin="miter" d="M 0.00251142 -0.00138488 L 339.283756 -0.00138488 L 339.283756 367.857985 L 0.00251142 367.857985 Z M 0.00251142 -0.00138488 " stroke="#000000" stroke-width="16" stroke-opacity="1" stroke-miterlimit="4"/></g><g clip-path="url(#4e28a2f2fe)"><g transform="matrix(1, 0, 0, 1, 450, 111)"><g clip-path="url(#70b32a1405)"><g clip-path="url(#54878e60ed)"><path fill="#0927eb" d="M 0 0.371094 L 225 0.371094 L 225 251.738281 L 0 251.738281 Z M 0 0.371094 " fill-opacity="1" fill-rule="nonzero"/></g></g></g></g><g clip-path="url(#38be8d49af)"><path stroke-linecap="butt" transform="matrix(0.75, 0, 0, 0.75, 450.001829, 111.372437)" fill="none" stroke-linejoin="miter" d="M -0.00243829 -0.00179096 L 299.997576 -0.00179096 L 299.997576 335.716975 L -0.00243829 335.716975 Z M -0.00243829 -0.00179096 " stroke="#000000" stroke-width="16" stroke-opacity="1" stroke-miterlimit="4"/></g><g clip-path="url(#97088a17fb)"><g transform="matrix(1, 0, 0, 1, 98, 135)"><g clip-path="url(#0897548383)"><g clip-path="url(#9cde69a5ec)"><path fill="#fcfffe" d="M 0.675781 0.472656 L 178.324219 0.472656 L 178.324219 203.792969 L 0.675781 203.792969 Z M 0.675781 0.472656 " fill-opacity="1" fill-rule="nonzero"/></g></g></g></g><g clip-path="url(#516b3f4112)"><path stroke-linecap="butt" transform="matrix(0.75, 0, 0, 0.75, 98.677402, 135.471575)" fill="none" stroke-linejoin="miter" d="M -0.00216079 0.00144167 L 236.857211 0.00144167 L 236.857211 271.454563 L -0.00216079 271.454563 Z M -0.00216079 0.00144167 " stroke="#740000" stroke-width="28" stroke-opacity="1" stroke-miterlimit="4"/></g><g clip-path="url(#ce7f466e86)"><g transform="matrix(1, 0, 0, 1, 473, 135)"><g clip-path="url(#b3e2804a2c)"><g clip-path="url(#60186f32d6)"><path fill="#fcfffe" d="M 0.675781 0.472656 L 178.324219 0.472656 L 178.324219 203.792969 L 0.675781 203.792969 Z M 0.675781 0.472656 " fill-opacity="1" fill-rule="nonzero"/></g></g></g></g><g clip-path="url(#f506ce9b5d)"><path stroke-linecap="butt" transform="matrix(0.75, 0, 0, 0.75, 473.677372, 135.471575)" fill="none" stroke-linejoin="miter" d="M -0.00212042 0.00144167 L 236.857251 0.00144167 L 236.857251 271.454563 L -0.00212042 271.454563 Z M -0.00212042 0.00144167 " stroke="#0e1964" stroke-width="28" stroke-opacity="1" stroke-miterlimit="4"/></g><g clip-path="url(#feab491361)"><g transform="matrix(1, 0, 0, 1, 114, 150)"><g clip-path="url(#39b67af4fe)"><g clip-path="url(#2025318103)"><path fill="#ffbfbf" d="M 0.320312 0.691406 L 146.679688 0.691406 L 146.679688 173.921875 L 0.320312 173.921875 Z M 0.320312 0.691406 " fill-opacity="1" fill-rule="nonzero"/></g></g></g></g><g clip-path="url(#60fcffb810)"><path stroke-linecap="butt" transform="matrix(0.75, 0, 0, 0.75, 114.321391, 150.692357)" fill="none" stroke-linejoin="miter" d="M -0.00143757 -0.00126828 L 195.139197 -0.00126828 L 195.139197 230.858118 L -0.00143757 230.858118 Z M -0.00143757 -0.00126828 " stroke="#ff3a3a" stroke-width="16" stroke-opacity="1" stroke-miterlimit="4"/></g><g clip-path="url(#c6b11e57ff)"><g transform="matrix(1, 0, 0, 1, 489, 150)"><g clip-path="url(#54d865b3f8)"><g clip-path="url(#297c650aa9)"><path fill="#d9f1ff" d="M 0.320312 0.691406 L 146.679688 0.691406 L 146.679688 173.921875 L 0.320312 173.921875 Z M 0.320312 0.691406 " fill-opacity="1" fill-rule="nonzero"/></g></g></g></g><g clip-path="url(#04cbe20471)"><path stroke-linecap="butt" transform="matrix(0.75, 0, 0, 0.75, 489.321387, 150.692357)" fill="none" stroke-linejoin="miter" d="M -0.00143241 -0.00126828 L 195.139202 -0.00126828 L 195.139202 230.858118 L -0.00143241 230.858118 Z M -0.00143241 -0.00126828 " stroke="#0927eb" stroke-width="16" stroke-opacity="1" stroke-miterlimit="4"/></g><path stroke-linecap="butt" transform="matrix(0.475797, -0.579756, 0.579756, 0.475797, 77.483452, 284.165632)" fill="none" stroke-linejoin="miter" d="M 13.248722 87.081959 C 114.3783 -2.361655 198.446211 -2.360423 265.456481 87.082349 " stroke="#fcfffe" stroke-width="40" stroke-opacity="1" stroke-miterlimit="4"/><path stroke-linecap="butt" transform="matrix(0.75, 0, 0, 0.75, 134.270679, 222.269071)" fill="none" stroke-linejoin="miter" d="M -0.00153074 20.000615 L 159.998477 20.000615 " stroke="#fcfffe" stroke-width="40" stroke-opacity="1" stroke-miterlimit="4"/><path stroke-linecap="butt" transform="matrix(0, 0.75, -0.75, 0, 254.269442, 157.558138)" fill="none" stroke-linejoin="miter" d="M 0.000607771 19.999882 L 212.568326 19.999882 " stroke="#fcfffe" stroke-width="40" stroke-opacity="1" stroke-miterlimit="4"/><path stroke-linecap="butt" transform="matrix(0, 0.75, -0.75, 0, 250.516044, 163.471886)" fill="none" stroke-linejoin="miter" d="M 0.00102642 15.000559 L 201.886453 15.000559 " stroke="#740000" stroke-width="30" stroke-opacity="1" stroke-miterlimit="4"/><path stroke-linecap="butt" transform="matrix(0.473291, -0.581804, 0.581804, 0.473291, 83.573151, 283.024929)" fill="none" stroke-linejoin="miter" d="M 9.708339 79.245637 C 110.593881 -6.41561 192.625258 -6.416434 255.802471 79.243165 " stroke="#740000" stroke-width="30" stroke-opacity="1" stroke-miterlimit="4"/><path stroke-linecap="butt" transform="matrix(0.75, -0.000000000000000279, 0.000000000000000279, 0.75, 141.400952, 226.019071)" fill="none" stroke-linejoin="miter" d="M 0.00185599 15.000615 L 137.991446 15.000615 " stroke="#740000" stroke-width="30" stroke-opacity="1" stroke-miterlimit="4"/><path stroke-linecap="butt" transform="matrix(0.471727, -0.583072, 0.583072, 0.471727, 90.270826, 281.215084)" fill="none" stroke-linejoin="miter" d="M 6.270462 70.393783 C 106.331248 -10.130389 185.833842 -10.129777 244.778243 70.395619 " stroke="#ff3a3a" stroke-width="20" stroke-opacity="1" stroke-miterlimit="4"/><path stroke-linecap="butt" transform="matrix(0.75, -0.000000000000000279, 0.000000000000000279, 0.75, 141.400952, 229.76907)" fill="none" stroke-linejoin="miter" d="M 0.00185599 10.000615 L 137.991446 10.000615 " stroke="#ff3a3a" stroke-width="20" stroke-opacity="1" stroke-miterlimit="4"/><path stroke-linecap="butt" transform="matrix(0, 0.75, -0.75, 0, 246.768039, 166.392667)" fill="none" stroke-linejoin="miter" d="M 0.00248555 9.99801 L 192.507703 9.99801 " stroke="#ff3a3a" stroke-width="20" stroke-opacity="1" stroke-miterlimit="4"/><path stroke-linecap="butt" transform="matrix(0, -0.75, 0.75, 0, 495.55481, 317.919146)" fill="none" stroke-linejoin="miter" d="M 0.00156981 19.999837 L 213.819289 19.999837 " stroke="#fcfffe" stroke-width="40" stroke-opacity="1" stroke-miterlimit="4"/><path stroke-linecap="butt" transform="matrix(0.128337, 0.738938, -0.738938, 0.128337, 605.159685, 139.304075)" fill="none" stroke-linejoin="miter" d="M 19.898922 150.144963 C 37.592697 -23.38151 73.391403 -23.380754 127.289909 150.146341 " stroke="#fcfffe" stroke-width="40" stroke-opacity="1" stroke-miterlimit="4"/><path stroke-linecap="butt" transform="matrix(-0.436609, 0.609814, -0.609814, -0.436609, 651.692323, 254.469382)" fill="none" stroke-linejoin="miter" d="M 19.964986 131.973669 C 28.740519 -17.321804 78.919571 -17.325682 170.500938 131.9693 " stroke="#fcfffe" stroke-width="40" stroke-opacity="1" stroke-miterlimit="4"/><path stroke-linecap="butt" transform="matrix(0, -0.75, 0.75, 0, 499.303154, 314.87813)" fill="none" stroke-linejoin="miter" d="M -0.00103466 15.002045 L 201.8896 15.002045 " stroke="#0e1964" stroke-width="30" stroke-opacity="1" stroke-miterlimit="4"/><path stroke-linecap="butt" transform="matrix(0.128337, 0.738938, -0.738938, 0.128337, 601.829205, 142.016264)" fill="none" stroke-linejoin="miter" d="M 14.889059 141.664685 C 35.519895 -27.223084 71.318601 -27.222328 122.280046 141.666062 " stroke="#0e1964" stroke-width="30" stroke-opacity="1" stroke-miterlimit="4"/><path stroke-linecap="butt" transform="matrix(-0.453877, 0.597072, -0.597072, -0.453877, 646.857331, 257.401882)" fill="none" stroke-linejoin="miter" d="M 14.96771 119.445716 C 24.133511 -19.814507 74.78353 -19.815525 166.90632 119.444822 " stroke="#0e1964" stroke-width="30" stroke-opacity="1" stroke-miterlimit="4"/><path stroke-linecap="butt" transform="matrix(0.0894234, 0.74465, -0.74465, 0.0894234, 601.169205, 150.939387)" fill="none" stroke-linejoin="miter" d="M 9.967729 132.767421 C 23.581845 -30.922872 59.536192 -30.922446 117.83077 132.768701 " stroke="#0927eb" stroke-width="20" stroke-opacity="1" stroke-miterlimit="4"/><path stroke-linecap="butt" transform="matrix(0, -0.75, 0.75, 0, 503.053154, 310.765786)" fill="none" stroke-linejoin="miter" d="M 0.000214207 10.002045 L 193.60439 10.002045 " stroke="#0927eb" stroke-width="20" stroke-opacity="1" stroke-miterlimit="4"/><path stroke-linecap="butt" transform="matrix(-0.439268, 0.607901, -0.607901, -0.439268, 641.965171, 255.815398)" fill="none" stroke-linejoin="miter" d="M 9.953016 113.253658 C 23.256621 -24.419194 72.999866 -24.417602 159.18697 113.255383 " stroke="#0927eb" stroke-width="20" stroke-opacity="1" stroke-miterlimit="4"/></svg>