<svg xmlns="http://www.w3.org/2000/svg" xmlns:xlink="http://www.w3.org/1999/xlink" width="1000" zoomAndPan="magnify" viewBox="0 0 750 749.999995" height="1000" preserveAspectRatio="xMidYMid meet" version="1.0"><defs><g/><clipPath id="ba31efeda6"><path d="M 162 49 L 330 49 L 330 215 L 162 215 Z M 162 49 " clip-rule="nonzero"/></clipPath><clipPath id="c45485b37a"><path d="M 260.214844 49.636719 L 329.453125 125.742188 L 231.398438 214.953125 L 162.160156 138.851562 Z M 260.214844 49.636719 " clip-rule="nonzero"/></clipPath><clipPath id="2d890a3803"><path d="M 0 0.441406 L 167.519531 0.441406 L 167.519531 166 L 0 166 Z M 0 0.441406 " clip-rule="nonzero"/></clipPath><clipPath id="c8d4e28130"><path d="M 98.214844 0.636719 L 167.453125 76.742188 L 69.398438 165.953125 L 0.160156 89.851562 Z M 98.214844 0.636719 " clip-rule="nonzero"/></clipPath><clipPath id="b59be74e38"><rect x="0" width="168" y="0" height="166"/></clipPath><clipPath id="b0318750ba"><path d="M 162 49 L 330 49 L 330 215 L 162 215 Z M 162 49 " clip-rule="nonzero"/></clipPath><clipPath id="591493cae4"><path d="M 260.214844 49.636719 L 329.363281 125.640625 L 231.167969 214.976562 L 162.023438 138.972656 Z M 260.214844 49.636719 " clip-rule="nonzero"/></clipPath><clipPath id="f2dfb216f6"><path d="M 260.214844 49.640625 L 329.445312 125.738281 L 231.398438 214.941406 L 162.164062 138.84375 Z M 260.214844 49.640625 " clip-rule="nonzero"/></clipPath><clipPath id="17a05f6f88"><path d="M 259 127 L 420 127 L 420 296 L 259 296 Z M 259 127 " clip-rule="nonzero"/></clipPath><clipPath id="c53dec97c0"><path d="M 335.457031 127.960938 L 419.699219 187.03125 L 343.589844 295.570312 L 259.347656 236.5 Z M 335.457031 127.960938 " clip-rule="nonzero"/></clipPath><clipPath id="325710b3ed"><path d="M 0.199219 0.921875 L 160.761719 0.921875 L 160.761719 168.679688 L 0.199219 168.679688 Z M 0.199219 0.921875 " clip-rule="nonzero"/></clipPath><clipPath id="00c826bcbb"><path d="M 76.457031 0.960938 L 160.699219 60.03125 L 84.589844 168.570312 L 0.347656 109.5 Z M 76.457031 0.960938 " clip-rule="nonzero"/></clipPath><clipPath id="3ec0842e07"><rect x="0" width="161" y="0" height="169"/></clipPath><clipPath id="2e135bb3c0"><path d="M 259 127 L 420 127 L 420 296 L 259 296 Z M 259 127 " clip-rule="nonzero"/></clipPath><clipPath id="a3e1e2495c"><path d="M 335.457031 127.960938 L 419.585938 186.949219 L 343.371094 295.640625 L 259.242188 236.652344 Z M 335.457031 127.960938 " clip-rule="nonzero"/></clipPath><clipPath id="4b047e1863"><path d="M 335.457031 127.960938 L 419.691406 187.027344 L 343.585938 295.558594 L 259.351562 236.496094 Z M 335.457031 127.960938 " clip-rule="nonzero"/></clipPath><clipPath id="e5e792ea79"><path d="M 375 193 L 521 193 L 521 355 L 375 355 Z M 375 193 " clip-rule="nonzero"/></clipPath><clipPath id="1cf6ea2631"><path d="M 424.9375 193.0625 L 520.246094 231.820312 L 470.304688 354.621094 L 375 315.863281 Z M 424.9375 193.0625 " clip-rule="nonzero"/></clipPath><clipPath id="16f4366b7f"><path d="M 0 0 L 145.320312 0 L 145.320312 161.71875 L 0 161.71875 Z M 0 0 " clip-rule="nonzero"/></clipPath><clipPath id="ab63f4020e"><path d="M 49.9375 0.0625 L 145.246094 38.820312 L 95.304688 161.621094 L 0 122.863281 Z M 49.9375 0.0625 " clip-rule="nonzero"/></clipPath><clipPath id="cf6130e6cd"><rect x="0" width="146" y="0" height="162"/></clipPath><clipPath id="6a58844933"><path d="M 375 193 L 521 193 L 521 355 L 375 355 Z M 375 193 " clip-rule="nonzero"/></clipPath><clipPath id="4d19d83d56"><path d="M 424.9375 193.0625 L 520.117188 231.769531 L 470.109375 354.738281 L 374.929688 316.035156 Z M 424.9375 193.0625 " clip-rule="nonzero"/></clipPath><clipPath id="73c1b94661"><path d="M 424.9375 193.066406 L 520.238281 231.820312 L 470.300781 354.613281 L 375 315.855469 Z M 424.9375 193.066406 " clip-rule="nonzero"/></clipPath><clipPath id="cb618a2ccb"><path d="M 504 232 L 629 232 L 629 381 L 504 381 Z M 504 232 " clip-rule="nonzero"/></clipPath><clipPath id="57c14980af"><path d="M 526.679688 232.867188 L 628.113281 250.097656 L 605.914062 380.792969 L 504.480469 363.5625 Z M 526.679688 232.867188 " clip-rule="nonzero"/></clipPath><clipPath id="fc35db8df6"><path d="M 0.238281 0.800781 L 124.320312 0.800781 L 124.320312 148.878906 L 0.238281 148.878906 Z M 0.238281 0.800781 " clip-rule="nonzero"/></clipPath><clipPath id="2643917f30"><path d="M 22.679688 0.867188 L 124.113281 18.097656 L 101.914062 148.792969 L 0.480469 131.5625 Z M 22.679688 0.867188 " clip-rule="nonzero"/></clipPath><clipPath id="0d8f77f821"><rect x="0" width="125" y="0" height="149"/></clipPath><clipPath id="6b2dba0c83"><path d="M 504 232 L 628 232 L 628 381 L 504 381 Z M 504 232 " clip-rule="nonzero"/></clipPath><clipPath id="886f2fc3b3"><path d="M 526.679688 232.867188 L 627.980469 250.074219 L 605.746094 380.949219 L 504.449219 363.742188 Z M 526.679688 232.867188 " clip-rule="nonzero"/></clipPath><clipPath id="23e8cd952c"><path d="M 526.679688 232.871094 L 628.105469 250.101562 L 605.90625 380.785156 L 504.480469 363.554688 Z M 526.679688 232.871094 " clip-rule="nonzero"/></clipPath><clipPath id="39191c9514"><path d="M 641.613281 254.277344 L 744.5 254.277344 L 744.5 386.84375 L 641.613281 386.84375 Z M 641.613281 254.277344 " clip-rule="nonzero"/></clipPath><clipPath id="c63d00a9d5"><path d="M 0.613281 0.277344 L 103.5 0.277344 L 103.5 132.84375 L 0.613281 132.84375 Z M 0.613281 0.277344 " clip-rule="nonzero"/></clipPath><clipPath id="9e1276a85b"><rect x="0" width="104" y="0" height="133"/></clipPath><clipPath id="10ae604420"><path d="M 641.613281 254.28125 L 744.363281 254.28125 L 744.363281 386.839844 L 641.613281 386.839844 Z M 641.613281 254.28125 " clip-rule="nonzero"/></clipPath><clipPath id="95c1aaf461"><path d="M 162 105 L 269 105 L 269 215 L 162 215 Z M 162 105 " clip-rule="nonzero"/></clipPath><clipPath id="d9c8389934"><path d="M 199.113281 105.75 L 268.351562 181.855469 L 231.972656 214.953125 L 162.734375 138.847656 Z M 199.113281 105.75 " clip-rule="nonzero"/></clipPath><clipPath id="8a54ab5ef3"><path d="M 0.71875 0.601562 L 106.558594 0.601562 L 106.558594 110 L 0.71875 110 Z M 0.71875 0.601562 " clip-rule="nonzero"/></clipPath><clipPath id="d3fe115e5a"><path d="M 37.113281 0.75 L 106.351562 76.855469 L 69.972656 109.953125 L 0.734375 33.847656 Z M 37.113281 0.75 " clip-rule="nonzero"/></clipPath><clipPath id="f2a3e8b133"><rect x="0" width="107" y="0" height="110"/></clipPath><clipPath id="c414408159"><path d="M 162 105 L 269 105 L 269 215 L 162 215 Z M 162 105 " clip-rule="nonzero"/></clipPath><clipPath id="a343118679"><path d="M 199.113281 105.75 L 268.261719 181.753906 L 231.644531 215.066406 L 162.5 139.0625 Z M 199.113281 105.75 " clip-rule="nonzero"/></clipPath><clipPath id="c4a6b676f4"><path d="M 199.121094 105.757812 L 268.34375 181.84375 L 231.972656 214.933594 L 162.746094 138.847656 Z M 199.121094 105.757812 " clip-rule="nonzero"/></clipPath><clipPath id="2a6ff726af"><path d="M 192 79 L 298 79 L 298 188 L 192 188 Z M 192 79 " clip-rule="nonzero"/></clipPath><clipPath id="19d926fe78"><path d="M 227.875 79.570312 L 297.113281 155.671875 L 261.984375 187.632812 L 192.746094 111.527344 Z M 227.875 79.570312 " clip-rule="nonzero"/></clipPath><clipPath id="10eb37bef3"><path d="M 0.71875 0.441406 L 105.121094 0.441406 L 105.121094 108.679688 L 0.71875 108.679688 Z M 0.71875 0.441406 " clip-rule="nonzero"/></clipPath><clipPath id="0e2e7d1444"><path d="M 35.875 0.570312 L 105.113281 76.671875 L 69.984375 108.632812 L 0.746094 32.527344 Z M 35.875 0.570312 " clip-rule="nonzero"/></clipPath><clipPath id="85fb106695"><rect x="0" width="106" y="0" height="109"/></clipPath><clipPath id="22c6589a70"><path d="M 192 79 L 298 79 L 298 188 L 192 188 Z M 192 79 " clip-rule="nonzero"/></clipPath><clipPath id="36ae758b55"><path d="M 227.875 79.570312 L 297.019531 155.570312 L 262.070312 187.367188 L 192.925781 111.367188 Z M 227.875 79.570312 " clip-rule="nonzero"/></clipPath><clipPath id="acb425883a"><path d="M 227.878906 79.570312 L 297.105469 155.664062 L 261.984375 187.621094 L 192.753906 111.527344 Z M 227.878906 79.570312 " clip-rule="nonzero"/></clipPath><clipPath id="007cd8bae5"><path d="M 223 50 L 330 50 L 330 161 L 223 161 Z M 223 50 " clip-rule="nonzero"/></clipPath><clipPath id="4a862e858e"><path d="M 260.214844 50.507812 L 329.453125 126.613281 L 292.367188 160.351562 L 223.128906 84.25 Z M 260.214844 50.507812 " clip-rule="nonzero"/></clipPath><clipPath id="07ec43d43f"><path d="M 0 0.398438 L 106.519531 0.398438 L 106.519531 110.558594 L 0 110.558594 Z M 0 0.398438 " clip-rule="nonzero"/></clipPath><clipPath id="d55bd32c07"><path d="M 37.214844 0.507812 L 106.453125 76.613281 L 69.367188 110.351562 L 0.128906 34.25 Z M 37.214844 0.507812 " clip-rule="nonzero"/></clipPath><clipPath id="e159547e41"><rect x="0" width="107" y="0" height="111"/></clipPath><clipPath id="dfaa3b6559"><path d="M 223 50 L 330 50 L 330 161 L 223 161 Z M 223 50 " clip-rule="nonzero"/></clipPath><clipPath id="aa51f26228"><path d="M 260.214844 50.507812 L 329.363281 126.511719 L 292.191406 160.328125 L 223.046875 84.324219 Z M 260.214844 50.507812 " clip-rule="nonzero"/></clipPath><clipPath id="dfa4a05097"><path d="M 260.214844 50.507812 L 329.445312 126.605469 L 292.363281 160.339844 L 223.132812 84.246094 Z M 260.214844 50.507812 " clip-rule="nonzero"/></clipPath><clipPath id="546cc5c3b5"><path d="M 565 243 L 629 243 L 629 381 L 565 381 Z M 565 243 " clip-rule="nonzero"/></clipPath><clipPath id="3290116dd7"><path d="M 587.109375 243.632812 L 628.859375 250.726562 L 606.765625 380.792969 L 565.015625 373.699219 Z M 587.109375 243.632812 " clip-rule="nonzero"/></clipPath><clipPath id="e0dd64a530"><path d="M 0 0.601562 L 64 0.601562 L 64 137.878906 L 0 137.878906 Z M 0 0.601562 " clip-rule="nonzero"/></clipPath><clipPath id="774f8aadf5"><path d="M 22.109375 0.632812 L 63.859375 7.726562 L 41.765625 137.792969 L 0.015625 130.699219 Z M 22.109375 0.632812 " clip-rule="nonzero"/></clipPath><clipPath id="11da8b6e49"><rect x="0" width="64" y="0" height="138"/></clipPath><clipPath id="3a94f05c67"><path d="M 565 243 L 629 243 L 629 381 L 565 381 Z M 565 243 " clip-rule="nonzero"/></clipPath><clipPath id="22b3751691"><path d="M 587.109375 243.632812 L 628.515625 250.667969 L 606.410156 380.804688 L 565.003906 373.769531 Z M 587.109375 243.632812 " clip-rule="nonzero"/></clipPath><clipPath id="d69bffd468"><path d="M 587.109375 243.644531 L 628.847656 250.734375 L 606.757812 380.78125 L 565.015625 373.6875 Z M 587.109375 243.644531 " clip-rule="nonzero"/></clipPath><clipPath id="fda50f4182"><path d="M 507 235 L 562 235 L 562 370 L 507 370 Z M 507 235 " clip-rule="nonzero"/></clipPath><clipPath id="b258edd724"><path d="M 528.929688 235.230469 L 561.875 240.824219 L 540.011719 369.535156 L 507.066406 363.9375 Z M 528.929688 235.230469 " clip-rule="nonzero"/></clipPath><clipPath id="8cee624d3f"><path d="M 0 0.199219 L 55 0.199219 L 55 134.601562 L 0 134.601562 Z M 0 0.199219 " clip-rule="nonzero"/></clipPath><clipPath id="c763411d9b"><path d="M 21.929688 0.230469 L 54.875 5.824219 L 33.011719 134.535156 L 0.0664062 128.9375 Z M 21.929688 0.230469 " clip-rule="nonzero"/></clipPath><clipPath id="e2cc547e60"><rect x="0" width="55" y="0" height="135"/></clipPath><clipPath id="a376e57eaa"><path d="M 507 235 L 562 235 L 562 370 L 507 370 Z M 507 235 " clip-rule="nonzero"/></clipPath><clipPath id="cefe4990f5"><path d="M 528.929688 235.230469 L 562.203125 240.882812 L 540.347656 369.539062 L 507.074219 363.886719 Z M 528.929688 235.230469 " clip-rule="nonzero"/></clipPath><clipPath id="35424912d9"><path d="M 528.929688 235.242188 L 561.867188 240.835938 L 540.007812 369.515625 L 507.070312 363.921875 Z M 528.929688 235.242188 " clip-rule="nonzero"/></clipPath><clipPath id="fffb6e69a4"><path d="M 533 238 L 597 238 L 597 373 L 533 373 Z M 533 238 " clip-rule="nonzero"/></clipPath><clipPath id="44ac85537a"><path d="M 555.355469 238.023438 L 596.9375 245.089844 L 575.328125 372.304688 L 533.746094 365.242188 Z M 555.355469 238.023438 " clip-rule="nonzero"/></clipPath><clipPath id="3c6a2dee31"><path d="M 0.519531 0 L 64 0 L 64 134.480469 L 0.519531 134.480469 Z M 0.519531 0 " clip-rule="nonzero"/></clipPath><clipPath id="74aed775f6"><path d="M 22.355469 0.0234375 L 63.9375 7.089844 L 42.328125 134.304688 L 0.746094 127.242188 Z M 22.355469 0.0234375 " clip-rule="nonzero"/></clipPath><clipPath id="bb1d9515fc"><rect x="0" width="64" y="0" height="135"/></clipPath><clipPath id="193dff9e2b"><path d="M 533 238 L 597 238 L 597 373 L 533 373 Z M 533 238 " clip-rule="nonzero"/></clipPath><clipPath id="a2968e7074"><path d="M 555.355469 238.023438 L 596.761719 245.058594 L 575.160156 372.238281 L 533.753906 365.203125 Z M 555.355469 238.023438 " clip-rule="nonzero"/></clipPath><clipPath id="3bf97976a3"><path d="M 555.355469 238.023438 L 596.9375 245.089844 L 575.328125 372.300781 L 533.746094 365.238281 Z M 555.355469 238.023438 " clip-rule="nonzero"/></clipPath><clipPath id="2798733814"><path d="M 318 181 L 371 181 L 371 236 L 318 236 Z M 318 181 " clip-rule="nonzero"/></clipPath><clipPath id="a1bcd51bda"><path d="M 302.953125 214.257812 L 333.816406 169.773438 L 376.152344 199.148438 L 345.289062 243.628906 Z M 302.953125 214.257812 " clip-rule="nonzero"/></clipPath><clipPath id="202586075d"><path d="M 318.363281 192.050781 L 338.167969 198.027344 L 349.941406 181.0625 L 350.410156 201.722656 L 370.21875 207.695312 L 350.703125 214.488281 L 351.171875 235.148438 L 338.640625 218.6875 L 319.125 225.476562 L 330.894531 208.511719 Z M 318.363281 192.050781 " clip-rule="nonzero"/></clipPath><clipPath id="2519f455a8"><path d="M 0.238281 0 L 52.320312 0 L 52.320312 54.199219 L 0.238281 54.199219 Z M 0.238281 0 " clip-rule="nonzero"/></clipPath><clipPath id="42ce12b815"><path d="M -15.046875 33.257812 L 15.816406 -11.226562 L 58.152344 18.148438 L 27.289062 62.628906 Z M -15.046875 33.257812 " clip-rule="nonzero"/></clipPath><clipPath id="23ca12416d"><path d="M 0.363281 11.050781 L 20.167969 17.027344 L 31.941406 0.0625 L 32.410156 20.722656 L 52.21875 26.695312 L 32.703125 33.488281 L 33.171875 54.148438 L 20.640625 37.6875 L 1.125 44.476562 L 12.894531 27.511719 Z M 0.363281 11.050781 " clip-rule="nonzero"/></clipPath><clipPath id="7262707eed"><rect x="0" width="53" y="0" height="55"/></clipPath><clipPath id="ebb4119c2a"><path d="M 318 181 L 371 181 L 371 236 L 318 236 Z M 318 181 " clip-rule="nonzero"/></clipPath><clipPath id="1ea5d56204"><path d="M 302.953125 214.257812 L 333.734375 169.890625 L 376.253906 199.390625 L 345.472656 243.757812 Z M 302.953125 214.257812 " clip-rule="nonzero"/></clipPath><clipPath id="11e26e00bf"><path d="M 302.957031 214.253906 L 333.765625 169.847656 L 376.09375 199.214844 L 345.28125 243.621094 Z M 302.957031 214.253906 " clip-rule="nonzero"/></clipPath><clipPath id="5439f17b43"><path d="M 318.363281 192.050781 L 338.164062 198.027344 L 349.933594 181.0625 L 350.40625 201.71875 L 370.207031 207.695312 L 350.695312 214.484375 L 351.167969 235.140625 L 338.636719 218.679688 L 319.125 225.472656 L 330.890625 208.511719 Z M 318.363281 192.050781 " clip-rule="nonzero"/></clipPath><clipPath id="975e35668a"><path d="M 397 206 L 468 206 L 468 332 L 397 332 Z M 397 206 " clip-rule="nonzero"/></clipPath><clipPath id="430ba6e28e"><path d="M 446.363281 206.3125 L 467.21875 215.09375 L 418.21875 331.457031 L 397.363281 322.675781 Z M 446.363281 206.3125 " clip-rule="nonzero"/></clipPath><clipPath id="6492e08b6d"><path d="M 0.199219 0.160156 L 70.28125 0.160156 L 70.28125 125.679688 L 0.199219 125.679688 Z M 0.199219 0.160156 " clip-rule="nonzero"/></clipPath><clipPath id="5b68e86925"><path d="M 49.363281 0.3125 L 70.21875 9.09375 L 21.21875 125.457031 L 0.363281 116.675781 Z M 49.363281 0.3125 " clip-rule="nonzero"/></clipPath><clipPath id="4fd466e31e"><rect x="0" width="71" y="0" height="126"/></clipPath><clipPath id="5b08eedcba"><path d="M 397 206 L 468 206 L 468 332 L 397 332 Z M 397 206 " clip-rule="nonzero"/></clipPath><clipPath id="82300d1d0f"><path d="M 446.363281 206.3125 L 467.101562 215.042969 L 418.199219 331.167969 L 397.460938 322.4375 Z M 446.363281 206.3125 " clip-rule="nonzero"/></clipPath><clipPath id="0473f4b49b"><path d="M 446.363281 206.3125 L 467.21875 215.09375 L 418.21875 331.453125 L 397.363281 322.671875 Z M 446.363281 206.3125 " clip-rule="nonzero"/></clipPath><clipPath id="456a1fdf36"><path d="M 407 228 L 503 228 L 503 281 L 407 281 Z M 407 228 " clip-rule="nonzero"/></clipPath><clipPath id="09243f0dd9"><path d="M 414.261719 228.957031 L 502.011719 265.90625 L 495.707031 280.882812 L 407.957031 243.933594 Z M 414.261719 228.957031 " clip-rule="nonzero"/></clipPath><clipPath id="58596fcab9"><path d="M 0.761719 0.71875 L 95.078125 0.71875 L 95.078125 53 L 0.761719 53 Z M 0.761719 0.71875 " clip-rule="nonzero"/></clipPath><clipPath id="a6f06c6b79"><path d="M 7.261719 0.957031 L 95.011719 37.90625 L 88.707031 52.882812 L 0.957031 15.933594 Z M 7.261719 0.957031 " clip-rule="nonzero"/></clipPath><clipPath id="8c697d4951"><rect x="0" width="96" y="0" height="53"/></clipPath><clipPath id="05f00291df"><path d="M 407 228 L 502 228 L 502 281 L 407 281 Z M 407 228 " clip-rule="nonzero"/></clipPath><clipPath id="f961ec8d52"><path d="M 414.261719 228.957031 L 502.046875 265.921875 L 495.644531 281.128906 L 407.859375 244.164062 Z M 414.261719 228.957031 " clip-rule="nonzero"/></clipPath><clipPath id="6895910211"><path d="M 414.28125 228.964844 L 501.988281 265.898438 L 495.683594 280.867188 L 407.976562 243.933594 Z M 414.28125 228.964844 " clip-rule="nonzero"/></clipPath><clipPath id="d379c14089"><path d="M 421 220 L 459 220 L 459 283 L 421 283 Z M 421 220 " clip-rule="nonzero"/></clipPath><clipPath id="fe4945e9ba"><path d="M 444.585938 220.53125 L 458.472656 226.378906 L 434.902344 282.351562 L 421.015625 276.503906 Z M 444.585938 220.53125 " clip-rule="nonzero"/></clipPath><clipPath id="e4c5483993"><path d="M 0 0.320312 L 37.640625 0.320312 L 37.640625 62.480469 L 0 62.480469 Z M 0 0.320312 " clip-rule="nonzero"/></clipPath><clipPath id="36c9bbf9ba"><path d="M 23.585938 0.53125 L 37.472656 6.378906 L 13.902344 62.351562 L 0.015625 56.503906 Z M 23.585938 0.53125 " clip-rule="nonzero"/></clipPath><clipPath id="e0ca35a923"><rect x="0" width="38" y="0" height="63"/></clipPath><clipPath id="74ba6353e6"><path d="M 641.609375 254.277344 L 744.496094 254.277344 L 744.496094 345.96875 L 641.609375 345.96875 Z M 641.609375 254.277344 " clip-rule="nonzero"/></clipPath><clipPath id="2f9f6e8e29"><path d="M 0.609375 0.277344 L 103.496094 0.277344 L 103.496094 91.96875 L 0.609375 91.96875 Z M 0.609375 0.277344 " clip-rule="nonzero"/></clipPath><clipPath id="ef1dc124a4"><rect x="0" width="104" y="0" height="92"/></clipPath><clipPath id="0ae63c7efd"><path d="M 641.609375 254.28125 L 744.359375 254.28125 L 744.359375 345.777344 L 641.609375 345.777344 Z M 641.609375 254.28125 " clip-rule="nonzero"/></clipPath><clipPath id="4756a0230b"><path d="M 663.039062 273.109375 L 721.578125 273.109375 L 721.578125 331.652344 L 663.039062 331.652344 Z M 663.039062 273.109375 " clip-rule="nonzero"/></clipPath><clipPath id="87178b4d93"><path d="M 692.308594 273.109375 C 676.140625 273.109375 663.039062 286.214844 663.039062 302.382812 C 663.039062 318.546875 676.140625 331.652344 692.308594 331.652344 C 708.472656 331.652344 721.578125 318.546875 721.578125 302.382812 C 721.578125 286.214844 708.472656 273.109375 692.308594 273.109375 Z M 692.308594 273.109375 " clip-rule="nonzero"/></clipPath><clipPath id="ab3990e911"><path d="M 0.0390625 0.109375 L 58.578125 0.109375 L 58.578125 58.652344 L 0.0390625 58.652344 Z M 0.0390625 0.109375 " clip-rule="nonzero"/></clipPath><clipPath id="788e09fac3"><path d="M 29.308594 0.109375 C 13.140625 0.109375 0.0390625 13.214844 0.0390625 29.382812 C 0.0390625 45.546875 13.140625 58.652344 29.308594 58.652344 C 45.472656 58.652344 58.578125 45.546875 58.578125 29.382812 C 58.578125 13.214844 45.472656 0.109375 29.308594 0.109375 Z M 29.308594 0.109375 " clip-rule="nonzero"/></clipPath><clipPath id="0a9b3b9955"><rect x="0" width="59" y="0" height="59"/></clipPath><clipPath id="228dde8ef4"><path d="M 654.359375 269.503906 L 710.003906 269.503906 L 710.003906 325.148438 L 654.359375 325.148438 Z M 654.359375 269.503906 " clip-rule="nonzero"/></clipPath><clipPath id="f619b48a67"><path d="M 682.179688 269.503906 C 666.816406 269.503906 654.359375 281.960938 654.359375 297.324219 C 654.359375 312.691406 666.816406 325.148438 682.179688 325.148438 C 697.546875 325.148438 710.003906 312.691406 710.003906 297.324219 C 710.003906 281.960938 697.546875 269.503906 682.179688 269.503906 Z M 682.179688 269.503906 " clip-rule="nonzero"/></clipPath><clipPath id="54720191e1"><path d="M 0.359375 0.503906 L 56.003906 0.503906 L 56.003906 56.148438 L 0.359375 56.148438 Z M 0.359375 0.503906 " clip-rule="nonzero"/></clipPath><clipPath id="2fe9a481ef"><path d="M 28.179688 0.503906 C 12.816406 0.503906 0.359375 12.960938 0.359375 28.324219 C 0.359375 43.691406 12.816406 56.148438 28.179688 56.148438 C 43.546875 56.148438 56.003906 43.691406 56.003906 28.324219 C 56.003906 12.960938 43.546875 0.503906 28.179688 0.503906 Z M 28.179688 0.503906 " clip-rule="nonzero"/></clipPath><clipPath id="064cb40cc9"><rect x="0" width="57" y="0" height="57"/></clipPath><clipPath id="c9b96d2497"><path d="M 668 278 L 691 278 L 691 302 L 668 302 Z M 668 278 " clip-rule="nonzero"/></clipPath><clipPath id="568679887d"><path d="M 662.386719 292.460938 L 675.328125 273.808594 L 693.078125 286.125 L 680.140625 304.777344 Z M 662.386719 292.460938 " clip-rule="nonzero"/></clipPath><clipPath id="b6e79cda4c"><path d="M 668.847656 283.148438 L 677.152344 285.65625 L 682.089844 278.542969 L 682.285156 287.203125 L 690.59375 289.710938 L 682.410156 292.558594 L 682.605469 301.21875 L 677.351562 294.316406 L 669.167969 297.167969 L 674.105469 290.050781 Z M 668.847656 283.148438 " clip-rule="nonzero"/></clipPath><clipPath id="2b8f412c3f"><path d="M 0.640625 0.398438 L 22.71875 0.398438 L 22.71875 23.441406 L 0.640625 23.441406 Z M 0.640625 0.398438 " clip-rule="nonzero"/></clipPath><clipPath id="6f1d4de6fe"><path d="M -5.613281 14.460938 L 7.328125 -4.191406 L 25.078125 8.125 L 12.140625 26.777344 Z M -5.613281 14.460938 " clip-rule="nonzero"/></clipPath><clipPath id="96d3e9b562"><path d="M 0.847656 5.148438 L 9.152344 7.65625 L 14.089844 0.542969 L 14.285156 9.203125 L 22.59375 11.710938 L 14.410156 14.558594 L 14.605469 23.21875 L 9.351562 16.316406 L 1.167969 19.167969 L 6.105469 12.050781 Z M 0.847656 5.148438 " clip-rule="nonzero"/></clipPath><clipPath id="b63ae3216b"><rect x="0" width="23" y="0" height="24"/></clipPath><clipPath id="d0bae9b4ac"><path d="M 118.503906 202 L 475.730469 202 L 475.730469 600 L 118.503906 600 Z M 118.503906 202 " clip-rule="nonzero"/></clipPath><clipPath id="4b3da1cb1b"><path d="M 326.289062 210.035156 L 446.558594 280.007812 C 464.621094 290.519531 475.730469 309.835938 475.730469 330.730469 L 475.730469 471.074219 C 475.730469 491.96875 464.621094 511.289062 446.558594 521.796875 L 326.289062 591.769531 C 308.257812 602.261719 285.976562 602.261719 267.945312 591.769531 L 147.675781 521.796875 C 129.613281 511.289062 118.503906 491.96875 118.503906 471.074219 L 118.503906 330.730469 C 118.503906 309.835938 129.613281 290.519531 147.675781 280.007812 L 267.945312 210.035156 C 285.976562 199.542969 308.257812 199.542969 326.289062 210.035156 Z M 326.289062 210.035156 " clip-rule="nonzero"/></clipPath><clipPath id="e78fd338c8"><path d="M 0.503906 0 L 357.730469 0 L 357.730469 398 L 0.503906 398 Z M 0.503906 0 " clip-rule="nonzero"/></clipPath><clipPath id="25f6c612dd"><path d="M 208.289062 8.035156 L 328.558594 78.007812 C 346.621094 88.519531 357.730469 107.835938 357.730469 128.730469 L 357.730469 269.074219 C 357.730469 289.96875 346.621094 309.289062 328.558594 319.796875 L 208.289062 389.769531 C 190.257812 400.261719 167.976562 400.261719 149.945312 389.769531 L 29.675781 319.796875 C 11.613281 309.289062 0.503906 289.96875 0.503906 269.074219 L 0.503906 128.730469 C 0.503906 107.835938 11.613281 88.519531 29.675781 78.007812 L 149.945312 8.035156 C 167.976562 -2.457031 190.257812 -2.457031 208.289062 8.035156 Z M 208.289062 8.035156 " clip-rule="nonzero"/></clipPath><clipPath id="9c37484a07"><rect x="0" width="358" y="0" height="398"/></clipPath><clipPath id="4c65643ef7"><path d="M 118.503906 202 L 475.503906 202 L 475.503906 600 L 118.503906 600 Z M 118.503906 202 " clip-rule="nonzero"/></clipPath><clipPath id="73f0c2b704"><path d="M 326.285156 210.035156 L 446.554688 280.007812 C 464.617188 290.515625 475.726562 309.835938 475.726562 330.730469 L 475.726562 471.070312 C 475.726562 491.964844 464.617188 511.28125 446.554688 521.789062 L 326.285156 591.765625 C 308.253906 602.257812 285.976562 602.257812 267.945312 591.765625 L 147.675781 521.789062 C 129.617188 511.28125 118.503906 491.964844 118.503906 471.070312 L 118.503906 330.730469 C 118.503906 309.835938 129.617188 290.515625 147.675781 280.007812 L 267.945312 210.035156 C 285.976562 199.542969 308.253906 199.542969 326.285156 210.035156 Z M 326.285156 210.035156 " clip-rule="nonzero"/></clipPath><clipPath id="38b9977791"><path d="M 372.769531 430.792969 L 409.535156 430.792969 L 409.535156 474.308594 L 372.769531 474.308594 Z M 372.769531 430.792969 " clip-rule="nonzero"/></clipPath><clipPath id="1064af91a4"><path d="M 391.152344 430.792969 C 381 430.792969 372.769531 440.527344 372.769531 452.535156 C 372.769531 464.542969 381 474.277344 391.152344 474.277344 C 401.304688 474.277344 409.535156 464.542969 409.535156 452.535156 C 409.535156 440.527344 401.304688 430.792969 391.152344 430.792969 Z M 391.152344 430.792969 " clip-rule="nonzero"/></clipPath><clipPath id="0ef3f9f7fa"><path d="M 0.769531 0.792969 L 37.535156 0.792969 L 37.535156 44.308594 L 0.769531 44.308594 Z M 0.769531 0.792969 " clip-rule="nonzero"/></clipPath><clipPath id="98f2f7c676"><path d="M 19.152344 0.792969 C 9 0.792969 0.769531 10.527344 0.769531 22.535156 C 0.769531 34.542969 9 44.277344 19.152344 44.277344 C 29.304688 44.277344 37.535156 34.542969 37.535156 22.535156 C 37.535156 10.527344 29.304688 0.792969 19.152344 0.792969 Z M 19.152344 0.792969 " clip-rule="nonzero"/></clipPath><clipPath id="ab6794e65d"><rect x="0" width="38" y="0" height="45"/></clipPath><clipPath id="afc4b91eb1"><path d="M 157.59375 376.347656 L 197.410156 376.347656 L 197.410156 419.894531 L 157.59375 419.894531 Z M 157.59375 376.347656 " clip-rule="nonzero"/></clipPath><clipPath id="fefe4f3de9"><path d="M 177.503906 376.347656 C 166.507812 376.347656 157.59375 386.082031 157.59375 398.089844 C 157.59375 410.097656 166.507812 419.832031 177.503906 419.832031 C 188.496094 419.832031 197.410156 410.097656 197.410156 398.089844 C 197.410156 386.082031 188.496094 376.347656 177.503906 376.347656 Z M 177.503906 376.347656 " clip-rule="nonzero"/></clipPath><clipPath id="edd333a3b1"><path d="M 0.59375 0.347656 L 40.410156 0.347656 L 40.410156 43.894531 L 0.59375 43.894531 Z M 0.59375 0.347656 " clip-rule="nonzero"/></clipPath><clipPath id="610806ce9f"><path d="M 20.503906 0.347656 C 9.507812 0.347656 0.59375 10.082031 0.59375 22.089844 C 0.59375 34.097656 9.507812 43.832031 20.503906 43.832031 C 31.496094 43.832031 40.410156 34.097656 40.410156 22.089844 C 40.410156 10.082031 31.496094 0.347656 20.503906 0.347656 Z M 20.503906 0.347656 " clip-rule="nonzero"/></clipPath><clipPath id="fa71087f46"><rect x="0" width="41" y="0" height="44"/></clipPath><clipPath id="dfb029e2ab"><path d="M 216.769531 407.339844 L 255.679688 407.339844 L 255.679688 450.960938 L 216.769531 450.960938 Z M 216.769531 407.339844 " clip-rule="nonzero"/></clipPath><clipPath id="11a1043c4c"><path d="M 236.226562 407.339844 C 225.480469 407.339844 216.769531 417.074219 216.769531 429.082031 C 216.769531 441.089844 225.480469 450.824219 236.226562 450.824219 C 246.96875 450.824219 255.679688 441.089844 255.679688 429.082031 C 255.679688 417.074219 246.96875 407.339844 236.226562 407.339844 Z M 236.226562 407.339844 " clip-rule="nonzero"/></clipPath><clipPath id="6d109b701e"><path d="M 0.769531 0.339844 L 39.679688 0.339844 L 39.679688 43.960938 L 0.769531 43.960938 Z M 0.769531 0.339844 " clip-rule="nonzero"/></clipPath><clipPath id="14d8cb12a2"><path d="M 20.226562 0.339844 C 9.480469 0.339844 0.769531 10.074219 0.769531 22.082031 C 0.769531 34.089844 9.480469 43.824219 20.226562 43.824219 C 30.96875 43.824219 39.679688 34.089844 39.679688 22.082031 C 39.679688 10.074219 30.96875 0.339844 20.226562 0.339844 Z M 20.226562 0.339844 " clip-rule="nonzero"/></clipPath><clipPath id="270a6168ff"><rect x="0" width="40" y="0" height="44"/></clipPath><clipPath id="aca8e70686"><path d="M 144.378906 444.371094 L 183.289062 444.371094 L 183.289062 487.996094 L 144.378906 487.996094 Z M 144.378906 444.371094 " clip-rule="nonzero"/></clipPath><clipPath id="c191832677"><path d="M 163.835938 444.371094 C 153.089844 444.371094 144.378906 454.105469 144.378906 466.117188 C 144.378906 478.125 153.089844 487.859375 163.835938 487.859375 C 174.578125 487.859375 183.289062 478.125 183.289062 466.117188 C 183.289062 454.105469 174.578125 444.371094 163.835938 444.371094 Z M 163.835938 444.371094 " clip-rule="nonzero"/></clipPath><clipPath id="3c6252632a"><path d="M 0.378906 0.371094 L 39.289062 0.371094 L 39.289062 43.921875 L 0.378906 43.921875 Z M 0.378906 0.371094 " clip-rule="nonzero"/></clipPath><clipPath id="ec975e1564"><path d="M 19.835938 0.371094 C 9.089844 0.371094 0.378906 10.105469 0.378906 22.117188 C 0.378906 34.125 9.089844 43.859375 19.835938 43.859375 C 30.578125 43.859375 39.289062 34.125 39.289062 22.117188 C 39.289062 10.105469 30.578125 0.371094 19.835938 0.371094 Z M 19.835938 0.371094 " clip-rule="nonzero"/></clipPath><clipPath id="1ba082c909"><rect x="0" width="40" y="0" height="44"/></clipPath><clipPath id="b9a6133c50"><path d="M 209.742188 474.277344 L 247.472656 474.277344 L 247.472656 517.90625 L 209.742188 517.90625 Z M 209.742188 474.277344 " clip-rule="nonzero"/></clipPath><clipPath id="4053621ea2"><path d="M 228.609375 474.277344 C 218.1875 474.277344 209.742188 484.011719 209.742188 496.019531 C 209.742188 508.027344 218.1875 517.761719 228.609375 517.761719 C 239.027344 517.761719 247.472656 508.027344 247.472656 496.019531 C 247.472656 484.011719 239.027344 474.277344 228.609375 474.277344 Z M 228.609375 474.277344 " clip-rule="nonzero"/></clipPath><clipPath id="456735a249"><path d="M 0.742188 0.277344 L 38.472656 0.277344 L 38.472656 43.90625 L 0.742188 43.90625 Z M 0.742188 0.277344 " clip-rule="nonzero"/></clipPath><clipPath id="daf4e98698"><path d="M 19.609375 0.277344 C 9.1875 0.277344 0.742188 10.011719 0.742188 22.019531 C 0.742188 34.027344 9.1875 43.761719 19.609375 43.761719 C 30.027344 43.761719 38.472656 34.027344 38.472656 22.019531 C 38.472656 10.011719 30.027344 0.277344 19.609375 0.277344 Z M 19.609375 0.277344 " clip-rule="nonzero"/></clipPath><clipPath id="982e542cba"><rect x="0" width="39" y="0" height="44"/></clipPath><clipPath id="32aab57eaf"><path d="M 195.015625 289.945312 L 230.65625 289.945312 L 230.65625 322.644531 L 195.015625 322.644531 Z M 195.015625 289.945312 " clip-rule="nonzero"/></clipPath><clipPath id="7683f7ec79"><path d="M 212.789062 289.945312 C 202.972656 289.945312 195.015625 297.265625 195.015625 306.292969 C 195.015625 315.324219 202.972656 322.644531 212.789062 322.644531 C 222.605469 322.644531 230.5625 315.324219 230.5625 306.292969 C 230.5625 297.265625 222.605469 289.945312 212.789062 289.945312 Z M 212.789062 289.945312 " clip-rule="nonzero"/></clipPath><clipPath id="f56c8d0e3a"><path d="M 0.015625 0.945312 L 35.640625 0.945312 L 35.640625 33.644531 L 0.015625 33.644531 Z M 0.015625 0.945312 " clip-rule="nonzero"/></clipPath><clipPath id="12944fc2e7"><path d="M 17.789062 0.945312 C 7.972656 0.945312 0.015625 8.265625 0.015625 17.292969 C 0.015625 26.324219 7.972656 33.644531 17.789062 33.644531 C 27.605469 33.644531 35.5625 26.324219 35.5625 17.292969 C 35.5625 8.265625 27.605469 0.945312 17.789062 0.945312 Z M 17.789062 0.945312 " clip-rule="nonzero"/></clipPath><clipPath id="46d6006464"><rect x="0" width="36" y="0" height="34"/></clipPath><clipPath id="b9235795d7"><path d="M 270.722656 285.082031 L 306.289062 285.082031 L 306.289062 318.070312 L 270.722656 318.070312 Z M 270.722656 285.082031 " clip-rule="nonzero"/></clipPath><clipPath id="2aae8fab11"><path d="M 288.496094 285.082031 C 278.679688 285.082031 270.722656 292.46875 270.722656 301.578125 C 270.722656 310.6875 278.679688 318.070312 288.496094 318.070312 C 298.3125 318.070312 306.269531 310.6875 306.269531 301.578125 C 306.269531 292.46875 298.3125 285.082031 288.496094 285.082031 Z M 288.496094 285.082031 " clip-rule="nonzero"/></clipPath><clipPath id="9f06a1405d"><path d="M 0.722656 0.0820312 L 36.289062 0.0820312 L 36.289062 33.070312 L 0.722656 33.070312 Z M 0.722656 0.0820312 " clip-rule="nonzero"/></clipPath><clipPath id="26a207e678"><path d="M 18.496094 0.0820312 C 8.679688 0.0820312 0.722656 7.46875 0.722656 16.578125 C 0.722656 25.6875 8.679688 33.070312 18.496094 33.070312 C 28.3125 33.070312 36.269531 25.6875 36.269531 16.578125 C 36.269531 7.46875 28.3125 0.0820312 18.496094 0.0820312 Z M 18.496094 0.0820312 " clip-rule="nonzero"/></clipPath><clipPath id="8faffed9da"><rect x="0" width="37" y="0" height="34"/></clipPath><clipPath id="1a9f153378"><path d="M 267.101562 341.3125 L 302.75 341.3125 L 302.75 373.109375 L 267.101562 373.109375 Z M 267.101562 341.3125 " clip-rule="nonzero"/></clipPath><clipPath id="b1eab1f11f"><path d="M 284.875 341.3125 C 275.058594 341.3125 267.101562 348.429688 267.101562 357.210938 C 267.101562 365.992188 275.058594 373.109375 284.875 373.109375 C 294.691406 373.109375 302.648438 365.992188 302.648438 357.210938 C 302.648438 348.429688 294.691406 341.3125 284.875 341.3125 Z M 284.875 341.3125 " clip-rule="nonzero"/></clipPath><clipPath id="7742d6540f"><path d="M 0.101562 0.3125 L 35.75 0.3125 L 35.75 32.109375 L 0.101562 32.109375 Z M 0.101562 0.3125 " clip-rule="nonzero"/></clipPath><clipPath id="574151c570"><path d="M 17.875 0.3125 C 8.058594 0.3125 0.101562 7.429688 0.101562 16.210938 C 0.101562 24.992188 8.058594 32.109375 17.875 32.109375 C 27.691406 32.109375 35.648438 24.992188 35.648438 16.210938 C 35.648438 7.429688 27.691406 0.3125 17.875 0.3125 Z M 17.875 0.3125 " clip-rule="nonzero"/></clipPath><clipPath id="8a4fbeefa1"><rect x="0" width="36" y="0" height="33"/></clipPath><clipPath id="2e8c3c3933"><path d="M 344.121094 278.125 L 379.730469 278.125 L 379.730469 310.570312 L 344.121094 310.570312 Z M 344.121094 278.125 " clip-rule="nonzero"/></clipPath><clipPath id="3524b807cf"><path d="M 361.894531 278.125 C 352.078125 278.125 344.121094 285.386719 344.121094 294.347656 C 344.121094 303.308594 352.078125 310.570312 361.894531 310.570312 C 371.707031 310.570312 379.664062 303.308594 379.664062 294.347656 C 379.664062 285.386719 371.707031 278.125 361.894531 278.125 Z M 361.894531 278.125 " clip-rule="nonzero"/></clipPath><clipPath id="4f8b5b3c89"><path d="M 0.121094 0.125 L 35.679688 0.125 L 35.679688 32.570312 L 0.121094 32.570312 Z M 0.121094 0.125 " clip-rule="nonzero"/></clipPath><clipPath id="7fcd7d66eb"><path d="M 17.894531 0.125 C 8.078125 0.125 0.121094 7.386719 0.121094 16.347656 C 0.121094 25.308594 8.078125 32.570312 17.894531 32.570312 C 27.707031 32.570312 35.664062 25.308594 35.664062 16.347656 C 35.664062 7.386719 27.707031 0.125 17.894531 0.125 Z M 17.894531 0.125 " clip-rule="nonzero"/></clipPath><clipPath id="2a4f012f1d"><rect x="0" width="36" y="0" height="33"/></clipPath><clipPath id="a678c3593f"><path d="M 268.359375 236.792969 L 304 236.792969 L 304 269.503906 L 268.359375 269.503906 Z M 268.359375 236.792969 " clip-rule="nonzero"/></clipPath><clipPath id="ab82abd749"><path d="M 286.132812 236.792969 C 276.316406 236.792969 268.359375 244.113281 268.359375 253.148438 C 268.359375 262.179688 276.316406 269.503906 286.132812 269.503906 C 295.949219 269.503906 303.90625 262.179688 303.90625 253.148438 C 303.90625 244.113281 295.949219 236.792969 286.132812 236.792969 Z M 286.132812 236.792969 " clip-rule="nonzero"/></clipPath><clipPath id="8fbb97767e"><path d="M 0.359375 0.792969 L 36 0.792969 L 36 33.503906 L 0.359375 33.503906 Z M 0.359375 0.792969 " clip-rule="nonzero"/></clipPath><clipPath id="e47d71c1ac"><path d="M 18.132812 0.792969 C 8.316406 0.792969 0.359375 8.113281 0.359375 17.148438 C 0.359375 26.179688 8.316406 33.503906 18.132812 33.503906 C 27.949219 33.503906 35.90625 26.179688 35.90625 17.148438 C 35.90625 8.113281 27.949219 0.792969 18.132812 0.792969 Z M 18.132812 0.792969 " clip-rule="nonzero"/></clipPath><clipPath id="8cae8a0bf3"><rect x="0" width="36" y="0" height="34"/></clipPath></defs><rect x="-75" width="900" fill="#ffffff" y="-74.999999" height="899.999994" fill-opacity="1"/><rect x="-75" width="900" fill="#ffffff" y="-74.999999" height="899.999994" fill-opacity="1"/><g fill="#000000" fill-opacity="1"><g transform="translate(252.803398, 721.115145)"><g><path d="M 5.03125 0 L 5.03125 -12.234375 C 12.46875 -19.023438 18.984375 -25.335938 24.578125 -31.171875 C 30.179688 -37.015625 34.539062 -42.472656 37.65625 -47.546875 C 40.769531 -52.628906 42.328125 -57.328125 42.328125 -61.640625 C 42.328125 -65.710938 41.269531 -68.828125 39.15625 -70.984375 C 37.039062 -73.148438 34.222656 -74.234375 30.703125 -74.234375 C 27.660156 -74.234375 24.898438 -73.375 22.421875 -71.65625 C 19.941406 -69.9375 17.664062 -67.914062 15.59375 -65.59375 L 3.953125 -77.109375 C 8.347656 -81.742188 12.804688 -85.203125 17.328125 -87.484375 C 21.847656 -89.765625 27.265625 -90.90625 33.578125 -90.90625 C 39.335938 -90.90625 44.414062 -89.742188 48.8125 -87.421875 C 53.207031 -85.109375 56.644531 -81.851562 59.125 -77.65625 C 61.601562 -73.457031 62.84375 -68.519531 62.84375 -62.84375 C 62.84375 -57.726562 61.539062 -52.507812 58.9375 -47.1875 C 56.34375 -41.875 53.003906 -36.640625 48.921875 -31.484375 C 44.847656 -26.328125 40.535156 -21.429688 35.984375 -16.796875 C 38.210938 -17.109375 40.6875 -17.382812 43.40625 -17.625 C 46.125 -17.863281 48.484375 -17.984375 50.484375 -17.984375 L 66.921875 -17.984375 L 66.921875 0 Z M 5.03125 0 "/></g></g></g><g fill="#000000" fill-opacity="1"><g transform="translate(325.833454, 721.115145)"><g><path d="M 38.375 -14.265625 C 41.175781 -14.265625 43.59375 -15.382812 45.625 -17.625 C 47.664062 -19.863281 48.6875 -23.503906 48.6875 -28.546875 C 48.6875 -33.503906 47.644531 -36.921875 45.5625 -38.796875 C 43.488281 -40.671875 40.972656 -41.609375 38.015625 -41.609375 C 35.773438 -41.609375 33.578125 -41.007812 31.421875 -39.8125 C 29.265625 -38.613281 27.265625 -36.535156 25.421875 -33.578125 C 26.066406 -28.617188 27.046875 -24.738281 28.359375 -21.9375 C 29.679688 -19.144531 31.21875 -17.164062 32.96875 -16 C 34.726562 -14.84375 36.53125 -14.265625 38.375 -14.265625 Z M 67.03125 -80.234375 L 55.765625 -67.640625 C 54.328125 -69.234375 52.367188 -70.671875 49.890625 -71.953125 C 47.410156 -73.234375 44.929688 -73.875 42.453125 -73.875 C 39.410156 -73.875 36.609375 -73.050781 34.046875 -71.40625 C 31.492188 -69.769531 29.4375 -67.050781 27.875 -63.25 C 26.320312 -59.457031 25.382812 -54.320312 25.0625 -47.84375 C 27.300781 -50.644531 30.078125 -52.804688 33.390625 -54.328125 C 36.710938 -55.847656 39.613281 -56.609375 42.09375 -56.609375 C 47.050781 -56.609375 51.507812 -55.609375 55.46875 -53.609375 C 59.425781 -51.609375 62.539062 -48.546875 64.8125 -44.421875 C 67.09375 -40.304688 68.234375 -35.015625 68.234375 -28.546875 C 68.234375 -22.222656 66.894531 -16.800781 64.21875 -12.28125 C 61.539062 -7.769531 57.984375 -4.316406 53.546875 -1.921875 C 49.109375 0.472656 44.210938 1.671875 38.859375 1.671875 C 34.703125 1.671875 30.625 0.8125 26.625 -0.90625 C 22.625 -2.625 19.046875 -5.300781 15.890625 -8.9375 C 12.734375 -12.570312 10.210938 -17.265625 8.328125 -23.015625 C 6.453125 -28.773438 5.515625 -35.734375 5.515625 -43.890625 C 5.515625 -51.960938 6.492188 -58.957031 8.453125 -64.875 C 10.410156 -70.789062 13.046875 -75.664062 16.359375 -79.5 C 19.679688 -83.34375 23.460938 -86.203125 27.703125 -88.078125 C 31.941406 -89.960938 36.378906 -90.90625 41.015625 -90.90625 C 46.929688 -90.90625 52.046875 -89.84375 56.359375 -87.71875 C 60.679688 -85.601562 64.238281 -83.109375 67.03125 -80.234375 Z M 67.03125 -80.234375 "/></g></g></g><g fill="#000000" fill-opacity="1"><g transform="translate(398.86351, 721.115145)"><g><path d="M 31.78125 -72.3125 L 31.78125 -48.328125 L 41.375 -48.328125 C 51.769531 -48.328125 56.96875 -52.601562 56.96875 -61.15625 C 56.96875 -65.394531 55.644531 -68.3125 53 -69.90625 C 50.363281 -71.507812 46.488281 -72.3125 41.375 -72.3125 Z M 82.5 0 L 58.515625 0 L 42.09375 -31.421875 L 31.78125 -31.421875 L 31.78125 0 L 10.3125 0 L 10.3125 -89.21875 L 43.046875 -89.21875 C 49.441406 -89.21875 55.273438 -88.378906 60.546875 -86.703125 C 65.828125 -85.023438 70.046875 -82.144531 73.203125 -78.0625 C 76.367188 -73.988281 77.953125 -68.351562 77.953125 -61.15625 C 77.953125 -54.601562 76.550781 -49.207031 73.75 -44.96875 C 70.957031 -40.726562 67.238281 -37.53125 62.59375 -35.375 Z M 82.5 0 "/></g></g></g><path stroke-linecap="butt" transform="matrix(0.692636, 0.287672, -0.287672, 0.692636, 262.420478, 29.517909)" fill="none" stroke-linejoin="miter" d="M 3.245639 6.764202 C 235.098554 117.947419 466.952488 117.949467 698.805443 6.765534 " stroke="#000000" stroke-width="15" stroke-opacity="1" stroke-miterlimit="4"/><g clip-path="url(#ba31efeda6)"><g clip-path="url(#c45485b37a)"><g transform="matrix(1, 0, 0, 1, 162, 49)"><g clip-path="url(#b59be74e38)"><g clip-path="url(#2d890a3803)"><g clip-path="url(#c8d4e28130)"><path fill="#fcfcfd" d="M 98.214844 0.636719 L 167.453125 76.742188 L 69.351562 165.996094 L 0.113281 89.890625 Z M 98.214844 0.636719 " fill-opacity="1" fill-rule="nonzero"/></g></g></g></g></g></g><g clip-path="url(#b0318750ba)"><g clip-path="url(#591493cae4)"><g clip-path="url(#f2dfb216f6)"><path stroke-linecap="butt" transform="matrix(0.504717, 0.554761, -0.554761, 0.504717, 260.213721, 49.640638)" fill="none" stroke-linejoin="miter" d="M 0.000994068 -0.00111914 L 137.170564 0.00140047 L 137.171434 176.739205 L -0.00164075 176.740538 Z M 0.000994068 -0.00111914 " stroke="#000000" stroke-width="20" stroke-opacity="1" stroke-miterlimit="4"/></g></g></g><g clip-path="url(#17a05f6f88)"><g clip-path="url(#c53dec97c0)"><g transform="matrix(1, 0, 0, 1, 259, 127)"><g clip-path="url(#3ec0842e07)"><g clip-path="url(#325710b3ed)"><g clip-path="url(#00c826bcbb)"><path fill="#ff3131" d="M 76.457031 0.960938 L 160.699219 60.03125 L 84.554688 168.621094 L 0.3125 109.550781 Z M 76.457031 0.960938 " fill-opacity="1" fill-rule="nonzero"/></g></g></g></g></g></g><g clip-path="url(#2e135bb3c0)"><g clip-path="url(#a3e1e2495c)"><g clip-path="url(#4b047e1863)"><path stroke-linecap="butt" transform="matrix(0.614078, 0.43059, -0.43059, 0.614078, 335.455386, 127.962422)" fill="none" stroke-linejoin="miter" d="M 0.000660458 -0.00288017 L 137.173856 -0.0013596 L 137.170009 176.739904 L -0.00019669 176.742648 Z M 0.000660458 -0.00288017 " stroke="#000000" stroke-width="20" stroke-opacity="1" stroke-miterlimit="4"/></g></g></g><g clip-path="url(#e5e792ea79)"><g clip-path="url(#1cf6ea2631)"><g transform="matrix(1, 0, 0, 1, 375, 193)"><g clip-path="url(#cf6130e6cd)"><g clip-path="url(#16f4366b7f)"><g clip-path="url(#ab63f4020e)"><path fill="#0927eb" d="M 49.9375 0.0625 L 145.246094 38.820312 L 95.285156 161.679688 L -0.0234375 122.921875 Z M 49.9375 0.0625 " fill-opacity="1" fill-rule="nonzero"/></g></g></g></g></g></g><g clip-path="url(#6a58844933)"><g clip-path="url(#4d19d83d56)"><g clip-path="url(#73c1b94661)"><path stroke-linecap="butt" transform="matrix(0.694749, 0.282531, -0.282531, 0.694749, 424.936614, 193.065567)" fill="none" stroke-linejoin="miter" d="M 0.00151572 0.000591035 L 137.173635 -0.00150935 L 137.171474 176.74374 L -0.00260736 176.741016 Z M 0.00151572 0.000591035 " stroke="#000000" stroke-width="20" stroke-opacity="1" stroke-miterlimit="4"/></g></g></g><g clip-path="url(#cb618a2ccb)"><g clip-path="url(#57c14980af)"><g transform="matrix(1, 0, 0, 1, 504, 232)"><g clip-path="url(#0d8f77f821)"><g clip-path="url(#fc35db8df6)"><g clip-path="url(#2643917f30)"><path fill="#fcfcfd" d="M 22.679688 0.867188 L 124.113281 18.097656 L 101.902344 148.851562 L 0.46875 131.621094 Z M 22.679688 0.867188 " fill-opacity="1" fill-rule="nonzero"/></g></g></g></g></g></g><g clip-path="url(#6b2dba0c83)"><g clip-path="url(#886f2fc3b3)"><g clip-path="url(#23e8cd952c)"><path stroke-linecap="butt" transform="matrix(0.739408, 0.125603, -0.125603, 0.739408, 526.679449, 232.870818)" fill="none" stroke-linejoin="miter" d="M 0.000375048 0.000308884 L 137.172316 0.00197651 L 137.172325 176.742889 L 0.000383903 176.741221 Z M 0.000375048 0.000308884 " stroke="#000000" stroke-width="20" stroke-opacity="1" stroke-miterlimit="4"/></g></g></g><g clip-path="url(#39191c9514)"><g transform="matrix(1, 0, 0, 1, 641, 254)"><g clip-path="url(#9e1276a85b)"><g clip-path="url(#c63d00a9d5)"><path fill="#fcfcfd" d="M 0.613281 0.277344 L 103.5 0.277344 L 103.5 132.90625 L 0.613281 132.90625 Z M 0.613281 0.277344 " fill-opacity="1" fill-rule="nonzero"/></g></g></g></g><g clip-path="url(#10ae604420)"><path stroke-linecap="butt" transform="matrix(0.75, 0, 0, 0.75, 641.614363, 254.281971)" fill="none" stroke-linejoin="miter" d="M -0.00144284 -0.000961077 L 137.170448 -0.000961077 L 137.170448 176.743851 L -0.00144284 176.743851 Z M -0.00144284 -0.000961077 " stroke="#000000" stroke-width="20" stroke-opacity="1" stroke-miterlimit="4"/></g><g clip-path="url(#95c1aaf461)"><g clip-path="url(#d9c8389934)"><g transform="matrix(1, 0, 0, 1, 162, 105)"><g clip-path="url(#f2a3e8b133)"><g clip-path="url(#8a54ab5ef3)"><g clip-path="url(#d3fe115e5a)"><path fill="#ff3a3a" d="M 37.113281 0.75 L 106.414062 76.921875 L 70.035156 110.019531 L 0.734375 33.847656 Z M 37.113281 0.75 " fill-opacity="1" fill-rule="nonzero"/></g></g></g></g></g></g><g clip-path="url(#c414408159)"><g clip-path="url(#a343118679)"><g clip-path="url(#c4a6b676f4)"><path stroke-linecap="butt" transform="matrix(0.504717, 0.554761, -0.554761, 0.504717, 199.119574, 105.756819)" fill="none" stroke-linejoin="miter" d="M 0.00234385 -0.000607511 L 137.153347 -0.000897825 L 137.153071 65.560538 L -0.00143633 65.564681 Z M 0.00234385 -0.000607511 " stroke="#000000" stroke-width="20" stroke-opacity="1" stroke-miterlimit="4"/></g></g></g><g clip-path="url(#2a6ff726af)"><g clip-path="url(#19d926fe78)"><g transform="matrix(1, 0, 0, 1, 192, 79)"><g clip-path="url(#85fb106695)"><g clip-path="url(#10eb37bef3)"><g clip-path="url(#0e2e7d1444)"><path fill="#fcfcfd" d="M 35.875 0.570312 L 105.160156 76.726562 L 70.035156 108.683594 L 0.746094 32.527344 Z M 35.875 0.570312 " fill-opacity="1" fill-rule="nonzero"/></g></g></g></g></g></g><g clip-path="url(#22c6589a70)"><g clip-path="url(#36ae758b55)"><g clip-path="url(#acb425883a)"><path stroke-linecap="butt" transform="matrix(0.504717, 0.554762, -0.554762, 0.504717, 227.877253, 79.571471)" fill="none" stroke-linejoin="miter" d="M 0.000340411 -0.00267015 L 137.162531 0.000188719 L 137.166626 63.312366 L 0.000930397 63.31336 Z M 0.000340411 -0.00267015 " stroke="#000000" stroke-width="20" stroke-opacity="1" stroke-miterlimit="4"/></g></g></g><g clip-path="url(#007cd8bae5)"><g clip-path="url(#4a862e858e)"><g transform="matrix(1, 0, 0, 1, 223, 50)"><g clip-path="url(#e159547e41)"><g clip-path="url(#07ec43d43f)"><g clip-path="url(#d55bd32c07)"><path fill="#0927eb" d="M 37.214844 0.507812 L 106.410156 76.566406 L 69.324219 110.304688 L 0.128906 34.25 Z M 37.214844 0.507812 " fill-opacity="1" fill-rule="nonzero"/></g></g></g></g></g></g><g clip-path="url(#dfaa3b6559)"><g clip-path="url(#aa51f26228)"><g clip-path="url(#dfa4a05097)"><path stroke-linecap="butt" transform="matrix(0.504717, 0.554762, -0.554762, 0.504717, 260.216738, 50.5094)" fill="none" stroke-linejoin="miter" d="M -0.00326524 0.00044379 L 137.166283 0.00295513 L 137.163769 66.843859 L -0.00192646 66.844853 Z M -0.00326524 0.00044379 " stroke="#000000" stroke-width="20" stroke-opacity="1" stroke-miterlimit="4"/></g></g></g><g clip-path="url(#546cc5c3b5)"><g clip-path="url(#3290116dd7)"><g transform="matrix(1, 0, 0, 1, 565, 243)"><g clip-path="url(#11da8b6e49)"><g clip-path="url(#e0dd64a530)"><g clip-path="url(#774f8aadf5)"><path fill="#ffd230" d="M 22.109375 0.632812 L 63.859375 7.726562 L 41.75 137.863281 L 0.00390625 130.773438 Z M 22.109375 0.632812 " fill-opacity="1" fill-rule="nonzero"/></g></g></g></g></g></g><g clip-path="url(#3a94f05c67)"><g clip-path="url(#22b3751691)"><g clip-path="url(#d69bffd468)"><path stroke-linecap="butt" transform="matrix(0.739408, 0.125603, -0.125603, 0.739408, 587.107582, 243.644394)" fill="none" stroke-linejoin="miter" d="M 0.00238756 -0.000219584 L 56.450592 -0.000534143 L 56.4522 175.878969 L -0.00201223 175.875021 Z M 0.00238756 -0.000219584 " stroke="#000000" stroke-width="20" stroke-opacity="1" stroke-miterlimit="4"/></g></g></g><g clip-path="url(#fda50f4182)"><g clip-path="url(#b258edd724)"><g transform="matrix(1, 0, 0, 1, 507, 235)"><g clip-path="url(#e2cc547e60)"><g clip-path="url(#8cee624d3f)"><g clip-path="url(#c763411d9b)"><path fill="#000000" d="M 21.929688 0.230469 L 54.875 5.824219 L 33.015625 134.523438 L 0.0664062 128.925781 Z M 21.929688 0.230469 " fill-opacity="1" fill-rule="nonzero"/></g></g></g></g></g></g><g clip-path="url(#a376e57eaa)"><g clip-path="url(#cefe4990f5)"><g clip-path="url(#35424912d9)"><path stroke-linecap="butt" transform="matrix(0.739408, 0.125603, -0.125603, 0.739408, 528.927745, 235.241668)" fill="none" stroke-linejoin="miter" d="M 0.00266965 0.000249453 L 44.548159 -0.00151806 L 44.547435 174.029368 L 0.00194586 174.031135 Z M 0.00266965 0.000249453 " stroke="#000000" stroke-width="20" stroke-opacity="1" stroke-miterlimit="4"/></g></g></g><g clip-path="url(#fffb6e69a4)"><g clip-path="url(#44ac85537a)"><g transform="matrix(1, 0, 0, 1, 533, 238)"><g clip-path="url(#bb1d9515fc)"><g clip-path="url(#3c6a2dee31)"><g clip-path="url(#74aed775f6)"><path fill="#ff3131" d="M 22.355469 0.0234375 L 63.9375 7.089844 L 42.332031 134.265625 L 0.753906 127.203125 Z M 22.355469 0.0234375 " fill-opacity="1" fill-rule="nonzero"/></g></g></g></g></g></g><g clip-path="url(#193dff9e2b)"><g clip-path="url(#a2968e7074)"><g clip-path="url(#3bf97976a3)"><path stroke-linecap="butt" transform="matrix(0.739408, 0.125603, -0.125603, 0.739408, 555.356688, 238.025003)" fill="none" stroke-linejoin="miter" d="M -0.00195169 -0.00178543 L 56.235629 0.00198113 L 56.235564 172.046351 L -0.00114431 172.047719 Z M -0.00195169 -0.00178543 " stroke="#000000" stroke-width="20" stroke-opacity="1" stroke-miterlimit="4"/></g></g></g><g clip-path="url(#2798733814)"><g clip-path="url(#a1bcd51bda)"><g clip-path="url(#202586075d)"><g transform="matrix(1, 0, 0, 1, 318, 181)"><g clip-path="url(#7262707eed)"><g clip-path="url(#2519f455a8)"><g clip-path="url(#42ce12b815)"><g clip-path="url(#23ca12416d)"><path fill="#ffd230" d="M -15.046875 33.257812 L 15.816406 -11.226562 L 58.152344 18.148438 L 27.289062 62.628906 Z M -15.046875 33.257812 " fill-opacity="1" fill-rule="nonzero"/></g></g></g></g></g></g></g></g><g clip-path="url(#ebb4119c2a)"><g clip-path="url(#1ea5d56204)"><g clip-path="url(#11e26e00bf)"><g clip-path="url(#5439f17b43)"><path stroke-linecap="butt" transform="matrix(0.427526, -0.616215, 0.616215, 0.427526, 302.956423, 214.25544)" fill="none" stroke-linejoin="miter" d="M 36.035 0.00154604 L 44.537228 26.235649 L 72.067505 26.235029 L 49.797947 42.452533 L 58.300175 68.686636 L 36.032982 52.471669 L 13.763425 68.689173 L 22.267671 42.453153 L 0.000478246 26.238186 L 27.523507 26.236255 Z M 36.035 0.00154604 " stroke="#000000" stroke-width="10" stroke-opacity="1" stroke-miterlimit="4"/></g></g></g></g><g clip-path="url(#975e35668a)"><g clip-path="url(#430ba6e28e)"><g transform="matrix(1, 0, 0, 1, 397, 206)"><g clip-path="url(#4fd466e31e)"><g clip-path="url(#6492e08b6d)"><g clip-path="url(#5b68e86925)"><path fill="#ffd230" d="M 49.363281 0.3125 L 70.21875 9.09375 L 21.230469 125.429688 L 0.375 116.648438 Z M 49.363281 0.3125 " fill-opacity="1" fill-rule="nonzero"/></g></g></g></g></g></g><g clip-path="url(#5b08eedcba)"><g clip-path="url(#82300d1d0f)"><g clip-path="url(#0473f4b49b)"><path stroke-linecap="butt" transform="matrix(0.691212, 0.291076, -0.291076, 0.691212, 446.363189, 206.312662)" fill="none" stroke-linejoin="miter" d="M 0.0000296832 -0.000246792 L 30.171715 -0.00171364 L 30.171815 168.33924 L 0.00012932 168.340707 Z M 0.0000296832 -0.000246792 " stroke="#000000" stroke-width="10" stroke-opacity="1" stroke-miterlimit="4"/></g></g></g><g clip-path="url(#456a1fdf36)"><g clip-path="url(#09243f0dd9)"><g transform="matrix(1, 0, 0, 1, 407, 228)"><g clip-path="url(#8c697d4951)"><g clip-path="url(#58596fcab9)"><g clip-path="url(#a6f06c6b79)"><path fill="#ffd230" d="M 7.261719 0.957031 L 95.015625 37.910156 L 88.710938 52.886719 L 0.957031 15.933594 Z M 7.261719 0.957031 " fill-opacity="1" fill-rule="nonzero"/></g></g></g></g></g></g><g clip-path="url(#05f00291df)"><g clip-path="url(#f961ec8d52)"><g clip-path="url(#6895910211)"><path stroke-linecap="butt" transform="matrix(0.691212, 0.291076, -0.291076, 0.691212, 414.28059, 228.963129)" fill="none" stroke-linejoin="miter" d="M 0.00169787 0.00176603 L 126.890034 0.000899467 L 126.888561 21.657312 L 0.000224854 21.658179 Z M 0.00169787 0.00176603 " stroke="#000000" stroke-width="10" stroke-opacity="1" stroke-miterlimit="4"/></g></g></g><g clip-path="url(#d379c14089)"><g clip-path="url(#fe4945e9ba)"><g transform="matrix(1, 0, 0, 1, 421, 220)"><g clip-path="url(#e0ca35a923)"><g clip-path="url(#e4c5483993)"><g clip-path="url(#36c9bbf9ba)"><path fill="#ffd230" d="M 23.585938 0.53125 L 37.472656 6.378906 L 13.902344 62.355469 L 0.015625 56.507812 Z M 23.585938 0.53125 " fill-opacity="1" fill-rule="nonzero"/></g></g></g></g></g></g><g clip-path="url(#74ba6353e6)"><g transform="matrix(1, 0, 0, 1, 641, 254)"><g clip-path="url(#ef1dc124a4)"><g clip-path="url(#2f9f6e8e29)"><path fill="#169d53" d="M 0.609375 0.277344 L 103.402344 0.277344 L 103.402344 91.96875 L 0.609375 91.96875 Z M 0.609375 0.277344 " fill-opacity="1" fill-rule="nonzero"/></g></g></g></g><g clip-path="url(#0ae63c7efd)"><path stroke-linecap="butt" transform="matrix(0.75, 0, 0, 0.75, 641.608555, 254.281618)" fill="none" stroke-linejoin="miter" d="M 0.00109282 -0.000490677 L 137.172983 -0.000490677 L 137.172983 122.244315 L 0.00109282 122.244315 Z M 0.00109282 -0.000490677 " stroke="#000000" stroke-width="20" stroke-opacity="1" stroke-miterlimit="4"/></g><g clip-path="url(#4756a0230b)"><g clip-path="url(#87178b4d93)"><g transform="matrix(1, 0, 0, 1, 663, 273)"><g clip-path="url(#0a9b3b9955)"><g clip-path="url(#ab3990e911)"><g clip-path="url(#788e09fac3)"><path fill="#fcfffe" d="M 0.0390625 0.109375 L 58.578125 0.109375 L 58.578125 58.652344 L 0.0390625 58.652344 Z M 0.0390625 0.109375 " fill-opacity="1" fill-rule="nonzero"/></g></g></g></g></g></g><g clip-path="url(#228dde8ef4)"><g clip-path="url(#f619b48a67)"><g transform="matrix(1, 0, 0, 1, 654, 269)"><g clip-path="url(#064cb40cc9)"><g clip-path="url(#54720191e1)"><g clip-path="url(#2fe9a481ef)"><path fill="#169d53" d="M 0.359375 0.503906 L 56.003906 0.503906 L 56.003906 56.148438 L 0.359375 56.148438 Z M 0.359375 0.503906 " fill-opacity="1" fill-rule="nonzero"/></g></g></g></g></g></g><g clip-path="url(#c9b96d2497)"><g clip-path="url(#568679887d)"><g clip-path="url(#b6e79cda4c)"><g transform="matrix(1, 0, 0, 1, 668, 278)"><g clip-path="url(#b63ae3216b)"><g clip-path="url(#2b8f412c3f)"><g clip-path="url(#6f1d4de6fe)"><g clip-path="url(#96d3e9b562)"><path fill="#fcfffe" d="M -5.613281 14.460938 L 7.328125 -4.191406 L 25.078125 8.125 L 12.140625 26.777344 Z M -5.613281 14.460938 " fill-opacity="1" fill-rule="nonzero"/></g></g></g></g></g></g></g></g><g clip-path="url(#d0bae9b4ac)"><g clip-path="url(#4b3da1cb1b)"><g transform="matrix(1, 0, 0, 1, 118, 202)"><g clip-path="url(#9c37484a07)"><g clip-path="url(#e78fd338c8)"><g clip-path="url(#25f6c612dd)"><path fill="#fcfcfd" d="M 0.503906 -8.9375 L 357.730469 -8.9375 L 357.730469 406.894531 L 0.503906 406.894531 Z M 0.503906 -8.9375 " fill-opacity="1" fill-rule="nonzero"/></g></g></g></g></g></g><g clip-path="url(#4c65643ef7)"><g clip-path="url(#73f0c2b704)"><path stroke-linecap="butt" transform="matrix(0.75, 0, 0, 0.75, 118.504684, 193.06173)" fill="none" stroke-linejoin="miter" d="M 277.040643 22.631236 L 437.400026 115.928116 C 461.48336 129.938533 476.295861 155.698951 476.295861 183.558328 L 476.295861 370.678128 C 476.295861 398.537505 461.48336 424.292714 437.400026 438.303132 L 277.040643 531.60522 C 252.998975 545.594804 223.295849 545.594804 199.254181 531.60522 L 38.894798 438.303132 C 14.816672 424.292714 -0.0010371 398.537505 -0.0010371 370.678128 L -0.0010371 183.558328 C -0.0010371 155.698951 14.816672 129.938533 38.894798 115.928116 L 199.254181 22.631236 C 223.295849 8.641652 252.998975 8.641652 277.040643 22.631236 Z M 277.040643 22.631236 " stroke="#000000" stroke-width="40" stroke-opacity="1" stroke-miterlimit="4"/></g></g><path stroke-linecap="butt" transform="matrix(0, 0.75, -0.75, 0, 303.266765, 409.689384)" fill="none" stroke-linejoin="miter" d="M -0.00251205 8.00152 L 245.992292 8.00152 " stroke="#000000" stroke-width="16" stroke-opacity="1" stroke-miterlimit="4"/><path stroke-linecap="butt" transform="matrix(-0.640666, 0.389932, -0.389932, -0.640666, 465.289852, 314.44524)" fill="none" stroke-linejoin="miter" d="M -0.00141132 7.998518 L 257.400777 8.002044 " stroke="#000000" stroke-width="16" stroke-opacity="1" stroke-miterlimit="4"/><path stroke-linecap="butt" transform="matrix(-0.639798, -0.391355, 0.391355, -0.639798, 294.12992, 414.802272)" fill="none" stroke-linejoin="miter" d="M -0.000879559 8.001003 L 262.447995 8.001211 " stroke="#000000" stroke-width="16" stroke-opacity="1" stroke-miterlimit="4"/><g clip-path="url(#38b9977791)"><g clip-path="url(#1064af91a4)"><g transform="matrix(1, 0, 0, 1, 372, 430)"><g clip-path="url(#ab6794e65d)"><g clip-path="url(#0ef3f9f7fa)"><g clip-path="url(#98f2f7c676)"><path fill="#ff3131" d="M 0.769531 0.792969 L 37.535156 0.792969 L 37.535156 44.308594 L 0.769531 44.308594 Z M 0.769531 0.792969 " fill-opacity="1" fill-rule="nonzero"/></g></g></g></g></g></g><g clip-path="url(#afc4b91eb1)"><g clip-path="url(#fefe4f3de9)"><g transform="matrix(1, 0, 0, 1, 157, 376)"><g clip-path="url(#fa71087f46)"><g clip-path="url(#edd333a3b1)"><g clip-path="url(#610806ce9f)"><path fill="#000000" d="M 0.59375 0.347656 L 40.410156 0.347656 L 40.410156 43.894531 L 0.59375 43.894531 Z M 0.59375 0.347656 " fill-opacity="1" fill-rule="nonzero"/></g></g></g></g></g></g><g clip-path="url(#dfb029e2ab)"><g clip-path="url(#11a1043c4c)"><g transform="matrix(1, 0, 0, 1, 216, 407)"><g clip-path="url(#270a6168ff)"><g clip-path="url(#6d109b701e)"><g clip-path="url(#14d8cb12a2)"><path fill="#000000" d="M 0.769531 0.339844 L 39.679688 0.339844 L 39.679688 43.8125 L 0.769531 43.8125 Z M 0.769531 0.339844 " fill-opacity="1" fill-rule="nonzero"/></g></g></g></g></g></g><g clip-path="url(#aca8e70686)"><g clip-path="url(#c191832677)"><g transform="matrix(1, 0, 0, 1, 144, 444)"><g clip-path="url(#1ba082c909)"><g clip-path="url(#3c6252632a)"><g clip-path="url(#ec975e1564)"><path fill="#000000" d="M 0.378906 0.371094 L 39.289062 0.371094 L 39.289062 43.84375 L 0.378906 43.84375 Z M 0.378906 0.371094 " fill-opacity="1" fill-rule="nonzero"/></g></g></g></g></g></g><g clip-path="url(#b9a6133c50)"><g clip-path="url(#4053621ea2)"><g transform="matrix(1, 0, 0, 1, 209, 474)"><g clip-path="url(#982e542cba)"><g clip-path="url(#456735a249)"><g clip-path="url(#daf4e98698)"><path fill="#000000" d="M 0.742188 0.277344 L 38.472656 0.277344 L 38.472656 43.757812 L 0.742188 43.757812 Z M 0.742188 0.277344 " fill-opacity="1" fill-rule="nonzero"/></g></g></g></g></g></g><g clip-path="url(#32aab57eaf)"><g clip-path="url(#7683f7ec79)"><g transform="matrix(1, 0, 0, 1, 195, 289)"><g clip-path="url(#46d6006464)"><g clip-path="url(#f56c8d0e3a)"><g clip-path="url(#12944fc2e7)"><path fill="#000000" d="M 0.015625 0.945312 L 35.527344 0.945312 L 35.527344 33.644531 L 0.015625 33.644531 Z M 0.015625 0.945312 " fill-opacity="1" fill-rule="nonzero"/></g></g></g></g></g></g><g clip-path="url(#b9235795d7)"><g clip-path="url(#2aae8fab11)"><g transform="matrix(1, 0, 0, 1, 270, 285)"><g clip-path="url(#8faffed9da)"><g clip-path="url(#9f06a1405d)"><g clip-path="url(#26a207e678)"><path fill="#000000" d="M 0.722656 0.0820312 L 36.289062 0.0820312 L 36.289062 33.070312 L 0.722656 33.070312 Z M 0.722656 0.0820312 " fill-opacity="1" fill-rule="nonzero"/></g></g></g></g></g></g><g clip-path="url(#1a9f153378)"><g clip-path="url(#b1eab1f11f)"><g transform="matrix(1, 0, 0, 1, 267, 341)"><g clip-path="url(#8a4fbeefa1)"><g clip-path="url(#7742d6540f)"><g clip-path="url(#574151c570)"><path fill="#000000" d="M 0.101562 0.3125 L 35.625 0.3125 L 35.625 32.109375 L 0.101562 32.109375 Z M 0.101562 0.3125 " fill-opacity="1" fill-rule="nonzero"/></g></g></g></g></g></g><g clip-path="url(#2e8c3c3933)"><g clip-path="url(#3524b807cf)"><g transform="matrix(1, 0, 0, 1, 344, 278)"><g clip-path="url(#2a4f012f1d)"><g clip-path="url(#4f8b5b3c89)"><g clip-path="url(#7fcd7d66eb)"><path fill="#000000" d="M 0.121094 0.125 L 35.605469 0.125 L 35.605469 32.570312 L 0.121094 32.570312 Z M 0.121094 0.125 " fill-opacity="1" fill-rule="nonzero"/></g></g></g></g></g></g><g clip-path="url(#a678c3593f)"><g clip-path="url(#ab82abd749)"><g transform="matrix(1, 0, 0, 1, 268, 236)"><g clip-path="url(#8cae8a0bf3)"><g clip-path="url(#8fbb97767e)"><g clip-path="url(#e47d71c1ac)"><path fill="#000000" d="M 0.359375 0.792969 L 35.878906 0.792969 L 35.878906 33.503906 L 0.359375 33.503906 Z M 0.359375 0.792969 " fill-opacity="1" fill-rule="nonzero"/></g></g></g></g></g></g></svg>