<svg xmlns="http://www.w3.org/2000/svg" xmlns:xlink="http://www.w3.org/1999/xlink" width="1000" zoomAndPan="magnify" viewBox="0 0 750 749.999995" height="1000" preserveAspectRatio="xMidYMid meet" version="1.0"><defs><g/><clipPath id="6d6ee69efc"><path d="M 339.234375 11.519531 L 431.714844 11.519531 L 431.714844 104 L 339.234375 104 Z M 339.234375 11.519531 " clip-rule="nonzero"/></clipPath><clipPath id="5b019f0bc9"><path d="M 385.476562 11.519531 C 359.9375 11.519531 339.234375 32.222656 339.234375 57.761719 C 339.234375 83.296875 359.9375 104 385.476562 104 C 411.011719 104 431.714844 83.296875 431.714844 57.761719 C 431.714844 32.222656 411.011719 11.519531 385.476562 11.519531 Z M 385.476562 11.519531 " clip-rule="nonzero"/></clipPath><clipPath id="249b60b7df"><path d="M 0.234375 0.519531 L 92.714844 0.519531 L 92.714844 93 L 0.234375 93 Z M 0.234375 0.519531 " clip-rule="nonzero"/></clipPath><clipPath id="c0f6ed9850"><path d="M 46.476562 0.519531 C 20.9375 0.519531 0.234375 21.222656 0.234375 46.761719 C 0.234375 72.296875 20.9375 93 46.476562 93 C 72.011719 93 92.714844 72.296875 92.714844 46.761719 C 92.714844 21.222656 72.011719 0.519531 46.476562 0.519531 Z M 46.476562 0.519531 " clip-rule="nonzero"/></clipPath><clipPath id="36ba667bd2"><rect x="0" width="93" y="0" height="93"/></clipPath><clipPath id="a3e63de7f0"><path d="M 312.390625 113.5 L 457.539062 113.5 L 457.539062 390.761719 L 312.390625 390.761719 Z M 312.390625 113.5 " clip-rule="nonzero"/></clipPath><clipPath id="5ea776aefc"><path d="M 347.640625 113.5 L 422.289062 113.5 C 441.757812 113.5 457.539062 129.285156 457.539062 148.75 L 457.539062 354.992188 C 457.539062 374.460938 441.757812 390.242188 422.289062 390.242188 L 347.640625 390.242188 C 328.171875 390.242188 312.390625 374.460938 312.390625 354.992188 L 312.390625 148.75 C 312.390625 129.285156 328.171875 113.5 347.640625 113.5 Z M 347.640625 113.5 " clip-rule="nonzero"/></clipPath><clipPath id="2354a86b26"><path d="M 0.390625 0.5 L 145.539062 0.5 L 145.539062 277.480469 L 0.390625 277.480469 Z M 0.390625 0.5 " clip-rule="nonzero"/></clipPath><clipPath id="4170859c8e"><path d="M 35.640625 0.5 L 110.289062 0.5 C 129.757812 0.5 145.539062 16.285156 145.539062 35.75 L 145.539062 241.992188 C 145.539062 261.460938 129.757812 277.242188 110.289062 277.242188 L 35.640625 277.242188 C 16.171875 277.242188 0.390625 261.460938 0.390625 241.992188 L 0.390625 35.75 C 0.390625 16.285156 16.171875 0.5 35.640625 0.5 Z M 35.640625 0.5 " clip-rule="nonzero"/></clipPath><clipPath id="b77622edd2"><rect x="0" width="146" y="0" height="278"/></clipPath><clipPath id="236b790bd8"><path d="M 414 121 L 535 121 L 535 354 L 414 354 Z M 414 121 " clip-rule="nonzero"/></clipPath><clipPath id="9d1bff99b0"><path d="M 407.109375 132.507812 L 459.957031 113.5 L 542.449219 342.863281 L 489.597656 361.871094 Z M 407.109375 132.507812 " clip-rule="nonzero"/></clipPath><clipPath id="141acb2d3b"><path d="M 433.535156 123.003906 C 448.128906 117.753906 464.214844 125.332031 469.460938 139.925781 L 532.894531 316.289062 C 538.140625 330.882812 530.566406 346.96875 515.972656 352.21875 C 501.375 357.46875 485.289062 349.890625 480.042969 335.296875 L 416.613281 158.933594 C 411.363281 144.339844 418.9375 128.253906 433.535156 123.003906 Z M 433.535156 123.003906 " clip-rule="nonzero"/></clipPath><clipPath id="1e8b175f10"><path d="M 0 0 L 121 0 L 121 233 L 0 233 Z M 0 0 " clip-rule="nonzero"/></clipPath><clipPath id="4d3f89e15c"><path d="M -6.890625 11.507812 L 45.957031 -7.5 L 128.449219 221.863281 L 75.597656 240.871094 Z M -6.890625 11.507812 " clip-rule="nonzero"/></clipPath><clipPath id="611b313ee3"><path d="M 19.535156 2.003906 C 34.128906 -3.246094 50.214844 4.332031 55.460938 18.925781 L 118.894531 195.289062 C 124.140625 209.882812 116.566406 225.96875 101.972656 231.21875 C 87.375 236.46875 71.289062 228.890625 66.042969 214.296875 L 2.613281 37.933594 C -2.636719 23.339844 4.9375 7.253906 19.535156 2.003906 Z M 19.535156 2.003906 " clip-rule="nonzero"/></clipPath><clipPath id="99ab051dda"><rect x="0" width="121" y="0" height="233"/></clipPath><clipPath id="d5a0b6e01e"><path d="M 237 120 L 357 120 L 357 357 L 237 357 Z M 237 120 " clip-rule="nonzero"/></clipPath><clipPath id="8d82da664e"><path d="M 316.675781 113.503906 L 363.570312 131.003906 L 276.890625 363.261719 L 230 345.761719 Z M 316.675781 113.503906 " clip-rule="nonzero"/></clipPath><clipPath id="bbe7ba9038"><path d="M 340.125 122.253906 C 346.339844 124.574219 351.382812 129.269531 354.140625 135.308594 C 356.894531 141.34375 357.140625 148.230469 354.820312 154.449219 L 285.652344 339.785156 C 283.332031 346.003906 278.636719 351.046875 272.597656 353.800781 C 266.5625 356.558594 259.675781 356.800781 253.457031 354.480469 C 247.238281 352.160156 242.199219 347.464844 239.441406 341.425781 C 236.6875 335.390625 236.441406 328.503906 238.761719 322.285156 L 307.929688 136.949219 C 310.25 130.730469 314.945312 125.6875 320.980469 122.933594 C 327.019531 120.175781 333.90625 119.933594 340.125 122.253906 Z M 340.125 122.253906 " clip-rule="nonzero"/></clipPath><clipPath id="092dc51abc"><path d="M 0 0 L 120 0 L 120 236.878906 L 0 236.878906 Z M 0 0 " clip-rule="nonzero"/></clipPath><clipPath id="b3b9a41cb1"><path d="M 79.675781 -6.496094 L 126.570312 11.003906 L 39.890625 243.261719 L -7 225.761719 Z M 79.675781 -6.496094 " clip-rule="nonzero"/></clipPath><clipPath id="8ac45e595b"><path d="M 103.125 2.253906 C 109.339844 4.574219 114.382812 9.269531 117.140625 15.308594 C 119.894531 21.34375 120.140625 28.230469 117.820312 34.449219 L 48.652344 219.785156 C 46.332031 226.003906 41.636719 231.046875 35.597656 233.800781 C 29.5625 236.558594 22.675781 236.800781 16.457031 234.480469 C 10.238281 232.160156 5.199219 227.464844 2.441406 221.425781 C -0.3125 215.390625 -0.558594 208.503906 1.761719 202.285156 L 70.929688 16.949219 C 73.25 10.730469 77.945312 5.6875 83.980469 2.933594 C 90.019531 0.175781 96.90625 -0.0664062 103.125 2.253906 Z M 103.125 2.253906 " clip-rule="nonzero"/></clipPath><clipPath id="7746e21744"><rect x="0" width="120" y="0" height="237"/></clipPath><clipPath id="3368962705"><path d="M 312.390625 288.148438 L 375 288.148438 L 375 573.5625 L 312.390625 573.5625 Z M 312.390625 288.148438 " clip-rule="nonzero"/></clipPath><clipPath id="39d576952b"><path d="M 343.695312 288.148438 C 351.996094 288.148438 359.960938 291.445312 365.832031 297.316406 C 371.703125 303.1875 375 311.148438 375 319.453125 L 375 542.109375 C 375 550.414062 371.703125 558.375 365.832031 564.246094 C 359.960938 570.117188 351.996094 573.417969 343.695312 573.417969 C 335.390625 573.417969 327.429688 570.117188 321.558594 564.246094 C 315.6875 558.375 312.390625 550.414062 312.390625 542.109375 L 312.390625 319.453125 C 312.390625 311.148438 315.6875 303.1875 321.558594 297.316406 C 327.429688 291.445312 335.390625 288.148438 343.695312 288.148438 Z M 343.695312 288.148438 " clip-rule="nonzero"/></clipPath><clipPath id="d0fcfff537"><path d="M 0.390625 0.148438 L 63 0.148438 L 63 285.5625 L 0.390625 285.5625 Z M 0.390625 0.148438 " clip-rule="nonzero"/></clipPath><clipPath id="a26968d445"><path d="M 31.695312 0.148438 C 39.996094 0.148438 47.960938 3.445312 53.832031 9.316406 C 59.703125 15.1875 63 23.148438 63 31.453125 L 63 254.109375 C 63 262.414062 59.703125 270.375 53.832031 276.246094 C 47.960938 282.117188 39.996094 285.417969 31.695312 285.417969 C 23.390625 285.417969 15.429688 282.117188 9.558594 276.246094 C 3.6875 270.375 0.390625 262.414062 0.390625 254.109375 L 0.390625 31.453125 C 0.390625 23.148438 3.6875 15.1875 9.558594 9.316406 C 15.429688 3.445312 23.390625 0.148438 31.695312 0.148438 Z M 31.695312 0.148438 " clip-rule="nonzero"/></clipPath><clipPath id="470503ebc5"><rect x="0" width="63" y="0" height="286"/></clipPath><clipPath id="8ba8290cb8"><path d="M 397.707031 251.871094 L 460.132812 251.871094 L 460.132812 573.507812 L 397.707031 573.507812 Z M 397.707031 251.871094 " clip-rule="nonzero"/></clipPath><clipPath id="9d6df1989c"><path d="M 428.917969 251.871094 C 446.15625 251.871094 460.132812 265.847656 460.132812 283.085938 L 460.132812 542.203125 C 460.132812 559.441406 446.15625 573.417969 428.917969 573.417969 C 411.679688 573.417969 397.707031 559.441406 397.707031 542.203125 L 397.707031 283.085938 C 397.707031 265.847656 411.679688 251.871094 428.917969 251.871094 Z M 428.917969 251.871094 " clip-rule="nonzero"/></clipPath><clipPath id="94771d5c03"><path d="M 0.707031 0.871094 L 63.132812 0.871094 L 63.132812 322.507812 L 0.707031 322.507812 Z M 0.707031 0.871094 " clip-rule="nonzero"/></clipPath><clipPath id="ce99ea0354"><path d="M 31.917969 0.871094 C 49.15625 0.871094 63.132812 14.847656 63.132812 32.085938 L 63.132812 291.203125 C 63.132812 308.441406 49.15625 322.417969 31.917969 322.417969 C 14.679688 322.417969 0.707031 308.441406 0.707031 291.203125 L 0.707031 32.085938 C 0.707031 14.847656 14.679688 0.871094 31.917969 0.871094 Z M 31.917969 0.871094 " clip-rule="nonzero"/></clipPath><clipPath id="ae1294288c"><rect x="0" width="64" y="0" height="323"/></clipPath><clipPath id="bd6d2c5559"><path d="M 345.75 41.738281 L 381.75 41.738281 L 381.75 67.238281 L 345.75 67.238281 Z M 345.75 41.738281 " clip-rule="nonzero"/></clipPath><clipPath id="112459a1fa"><path d="M 357 41.738281 L 370.136719 41.738281 C 376.347656 41.738281 381.382812 46.773438 381.382812 52.984375 L 381.382812 56.128906 C 381.382812 62.34375 376.347656 67.378906 370.136719 67.378906 L 357 67.378906 C 350.789062 67.378906 345.753906 62.34375 345.753906 56.128906 L 345.753906 52.984375 C 345.753906 46.773438 350.789062 41.738281 357 41.738281 Z M 357 41.738281 " clip-rule="nonzero"/></clipPath><clipPath id="484ab9e3cb"><path d="M 389.289062 41.738281 L 425 41.738281 L 425 67.238281 L 389.289062 67.238281 Z M 389.289062 41.738281 " clip-rule="nonzero"/></clipPath><clipPath id="fcc1459e4f"><path d="M 400.539062 41.738281 L 413.675781 41.738281 C 419.886719 41.738281 424.921875 46.773438 424.921875 52.984375 L 424.921875 56.128906 C 424.921875 62.34375 419.886719 67.378906 413.675781 67.378906 L 400.539062 67.378906 C 394.328125 67.378906 389.289062 62.34375 389.289062 56.128906 L 389.289062 52.984375 C 389.289062 46.773438 394.328125 41.738281 400.539062 41.738281 Z M 400.539062 41.738281 " clip-rule="nonzero"/></clipPath></defs><g fill="#000000" fill-opacity="1"><g transform="translate(269.988274, 665.996484)"><g><path d="M 5.03125 0 L 5.03125 -12.234375 C 12.46875 -19.023438 18.984375 -25.335938 24.578125 -31.171875 C 30.179688 -37.015625 34.539062 -42.472656 37.65625 -47.546875 C 40.769531 -52.628906 42.328125 -57.328125 42.328125 -61.640625 C 42.328125 -65.710938 41.269531 -68.828125 39.15625 -70.984375 C 37.039062 -73.148438 34.222656 -74.234375 30.703125 -74.234375 C 27.660156 -74.234375 24.898438 -73.375 22.421875 -71.65625 C 19.941406 -69.9375 17.664062 -67.914062 15.59375 -65.59375 L 3.953125 -77.109375 C 8.347656 -81.742188 12.804688 -85.203125 17.328125 -87.484375 C 21.847656 -89.765625 27.265625 -90.90625 33.578125 -90.90625 C 39.335938 -90.90625 44.414062 -89.742188 48.8125 -87.421875 C 53.207031 -85.109375 56.644531 -81.851562 59.125 -77.65625 C 61.601562 -73.457031 62.84375 -68.519531 62.84375 -62.84375 C 62.84375 -57.726562 61.539062 -52.507812 58.9375 -47.1875 C 56.34375 -41.875 53.003906 -36.640625 48.921875 -31.484375 C 44.847656 -26.328125 40.535156 -21.429688 35.984375 -16.796875 C 38.210938 -17.109375 40.6875 -17.382812 43.40625 -17.625 C 46.125 -17.863281 48.484375 -17.984375 50.484375 -17.984375 L 66.921875 -17.984375 L 66.921875 0 Z M 5.03125 0 "/></g></g></g><g fill="#000000" fill-opacity="1"><g transform="translate(343.018331, 665.996484)"><g><path d="M 21.46875 0 C 21.863281 -7.351562 22.519531 -14.128906 23.4375 -20.328125 C 24.363281 -26.523438 25.664062 -32.421875 27.34375 -38.015625 C 29.019531 -43.609375 31.253906 -49.125 34.046875 -54.5625 C 36.847656 -60 40.328125 -65.632812 44.484375 -71.46875 L 6.109375 -71.46875 L 6.109375 -89.21875 L 67.28125 -89.21875 L 67.28125 -76.265625 C 62.15625 -70.109375 58.054688 -64.289062 54.984375 -58.8125 C 51.910156 -53.34375 49.570312 -47.75 47.96875 -42.03125 C 46.375 -36.3125 45.234375 -30.054688 44.546875 -23.265625 C 43.867188 -16.472656 43.332031 -8.71875 42.9375 0 Z M 21.46875 0 "/></g></g></g><g fill="#000000" fill-opacity="1"><g transform="translate(416.048387, 665.996484)"><g><path d="M 31.78125 -72.3125 L 31.78125 -48.328125 L 41.375 -48.328125 C 51.769531 -48.328125 56.96875 -52.601562 56.96875 -61.15625 C 56.96875 -65.394531 55.644531 -68.3125 53 -69.90625 C 50.363281 -71.507812 46.488281 -72.3125 41.375 -72.3125 Z M 82.5 0 L 58.515625 0 L 42.09375 -31.421875 L 31.78125 -31.421875 L 31.78125 0 L 10.3125 0 L 10.3125 -89.21875 L 43.046875 -89.21875 C 49.441406 -89.21875 55.273438 -88.378906 60.546875 -86.703125 C 65.828125 -85.023438 70.046875 -82.144531 73.203125 -78.0625 C 76.367188 -73.988281 77.953125 -68.351562 77.953125 -61.15625 C 77.953125 -54.601562 76.550781 -49.207031 73.75 -44.96875 C 70.957031 -40.726562 67.238281 -37.53125 62.59375 -35.375 Z M 82.5 0 "/></g></g></g><g clip-path="url(#6d6ee69efc)"><g clip-path="url(#5b019f0bc9)"><g transform="matrix(1, 0, 0, 1, 339, 11)"><g clip-path="url(#36ba667bd2)"><g clip-path="url(#249b60b7df)"><g clip-path="url(#c0f6ed9850)"><path fill="#000000" d="M 0.234375 0.519531 L 92.714844 0.519531 L 92.714844 93 L 0.234375 93 Z M 0.234375 0.519531 " fill-opacity="1" fill-rule="nonzero"/></g></g></g></g></g></g><g clip-path="url(#a3e63de7f0)"><g clip-path="url(#5ea776aefc)"><g transform="matrix(1, 0, 0, 1, 312, 113)"><g clip-path="url(#b77622edd2)"><g clip-path="url(#2354a86b26)"><g clip-path="url(#4170859c8e)"><path fill="#000000" d="M 0.390625 0.5 L 145.539062 0.5 L 145.539062 277.195312 L 0.390625 277.195312 Z M 0.390625 0.5 " fill-opacity="1" fill-rule="nonzero"/></g></g></g></g></g></g><g clip-path="url(#236b790bd8)"><g clip-path="url(#9d1bff99b0)"><g clip-path="url(#141acb2d3b)"><g transform="matrix(1, 0, 0, 1, 414, 121)"><g clip-path="url(#99ab051dda)"><g clip-path="url(#1e8b175f10)"><g clip-path="url(#4d3f89e15c)"><g clip-path="url(#611b313ee3)"><path fill="#000000" d="M -6.890625 11.507812 L 45.957031 -7.5 L 128.375 221.660156 L 75.523438 240.667969 Z M -6.890625 11.507812 " fill-opacity="1" fill-rule="nonzero"/></g></g></g></g></g></g></g></g><g clip-path="url(#d5a0b6e01e)"><g clip-path="url(#8d82da664e)"><g clip-path="url(#bbe7ba9038)"><g transform="matrix(1, 0, 0, 1, 237, 120)"><g clip-path="url(#7746e21744)"><g clip-path="url(#092dc51abc)"><g clip-path="url(#b3b9a41cb1)"><g clip-path="url(#8ac45e595b)"><path fill="#000000" d="M 79.675781 -6.496094 L 126.570312 11.003906 L 39.890625 243.261719 L -7 225.761719 Z M 79.675781 -6.496094 " fill-opacity="1" fill-rule="nonzero"/></g></g></g></g></g></g></g></g><g clip-path="url(#3368962705)"><g clip-path="url(#39d576952b)"><g transform="matrix(1, 0, 0, 1, 312, 288)"><g clip-path="url(#470503ebc5)"><g clip-path="url(#d0fcfff537)"><g clip-path="url(#a26968d445)"><path fill="#000000" d="M 0.390625 0.148438 L 63 0.148438 L 63 285.316406 L 0.390625 285.316406 Z M 0.390625 0.148438 " fill-opacity="1" fill-rule="nonzero"/></g></g></g></g></g></g><g clip-path="url(#8ba8290cb8)"><g clip-path="url(#9d6df1989c)"><g transform="matrix(1, 0, 0, 1, 397, 251)"><g clip-path="url(#ae1294288c)"><g clip-path="url(#94771d5c03)"><g clip-path="url(#ce99ea0354)"><path fill="#000000" d="M 0.707031 0.871094 L 63.132812 0.871094 L 63.132812 322.507812 L 0.707031 322.507812 Z M 0.707031 0.871094 " fill-opacity="1" fill-rule="nonzero"/></g></g></g></g></g></g><path stroke-linecap="butt" transform="matrix(0.75, 0, 0, 0.75, 325.812409, 113.501498)" fill="none" stroke-linejoin="miter" d="M 78.869917 -0.00199796 L 78.869917 21.274045 C 78.869917 33.024045 69.343874 42.550087 57.593874 42.550087 L 31.500123 42.550087 C 18.244914 42.550087 7.500121 53.29488 7.500121 66.550089 L 7.500121 106.096966 C 7.500121 119.352175 18.244914 130.096967 31.500123 130.096967 L 86.151167 130.096967 C 99.406376 130.096967 110.151168 140.841759 110.151168 154.096968 L 110.151168 184.086553 C 110.151168 191.633428 116.27096 197.748012 123.812627 197.748012 L 137.474086 197.748012 " stroke="#fff3c2" stroke-width="15" stroke-opacity="1" stroke-miterlimit="4"/><path stroke-linecap="butt" transform="matrix(0.75, 0, 0, 0.75, 357.945806, 167.969777)" fill="none" stroke-linejoin="miter" d="M 7.499342 125.123637 L 7.499342 31.498633 C 7.499342 18.243424 18.244135 7.498632 31.499344 7.498632 L 51.285803 7.498632 C 64.541012 7.498632 75.285804 18.243424 75.285804 31.498633 L 75.285804 46.1028 C 75.285804 57.076759 84.181638 65.972593 95.155597 65.972593 C 106.129555 65.972593 115.025389 74.868426 115.025389 85.842385 L 115.025389 114.92572 C 115.025389 120.555929 110.462889 125.123637 104.827472 125.123637 L 94.629555 125.123637 " stroke="#fff3c2" stroke-width="15" stroke-opacity="1" stroke-miterlimit="4"/><path stroke-linecap="butt" transform="matrix(0.75, 0, 0, 0.75, 357.945806, 234.058134)" fill="none" stroke-linejoin="miter" d="M 7.499342 31.568323 L 7.499342 91.583951 C 7.499342 99.458951 13.884759 105.844368 21.764968 105.844368 C 29.639968 105.844368 36.025385 99.458951 36.025385 91.583951 L 36.025385 31.500614 C 36.025385 18.245405 46.770178 7.500613 60.025387 7.500613 L 70.629554 7.500613 C 83.884763 7.500613 94.629555 18.245405 94.629555 31.500614 L 94.629555 115.255827 C 94.629555 119.109994 93.098305 122.80791 90.369138 125.537077 C 87.64518 128.261036 83.947263 129.797494 80.087888 129.797494 C 76.233721 129.797494 72.535804 128.261036 69.806637 125.537077 C 67.082679 122.80791 65.551429 119.109994 65.551429 115.255827 L 65.551429 79.057908 " stroke="#fff3c2" stroke-width="15" stroke-opacity="1" stroke-miterlimit="4"/><path stroke-linecap="butt" transform="matrix(0.75, 0, 0, 0.75, 325.812409, 270.153523)" fill="none" stroke-linejoin="miter" d="M 7.500121 -0.00157211 L 7.500121 86.706765 C 7.500121 99.956766 18.244914 110.706767 31.500123 110.706767 L 133.869919 110.706767 C 147.125128 110.706767 157.86992 99.956766 157.86992 86.706765 L 157.86992 38.31093 C 157.86992 25.055721 147.125128 14.310929 133.869919 14.310929 L 116.703252 14.310929 C 112.11471 14.310929 108.39596 18.029679 108.39596 22.618221 L 108.39596 30.930721 " stroke="#fff3c2" stroke-width="15" stroke-opacity="1" stroke-miterlimit="4"/><path stroke-linecap="butt" transform="matrix(0.75, 0, 0, 0.75, 325.812409, 228.994228)" fill="none" stroke-linejoin="miter" d="M 7.500121 60.721241 L 7.500121 18.65353 C 7.500121 12.492072 12.494913 7.502488 18.656372 7.502488 C 24.817831 7.502488 29.812623 12.492072 29.812623 18.65353 L 29.812623 115.007702 C 29.812623 128.262911 40.557415 139.007703 53.812624 139.007703 L 54.869915 139.007703 C 68.125124 139.007703 78.869917 149.752495 78.869917 163.007704 L 78.869917 214.99729 " stroke="#fff3c2" stroke-width="15" stroke-opacity="1" stroke-miterlimit="4"/><path stroke-linecap="butt" transform="matrix(0.75, 0, 0, 0.75, 392.080793, 139.790639)" fill="none" stroke-linejoin="miter" d="M 7.501651 50.586442 L 7.501651 29.044775 C 7.501651 17.143732 17.147485 7.497899 29.043319 7.497899 L 45.51207 7.497899 C 58.767279 7.497899 69.512071 18.242691 69.512071 31.4979 L 69.512071 44.549984 C 69.512071 57.805193 58.767279 68.549985 45.51207 68.549985 L 21.751652 68.549985 C 17.970402 68.549985 14.345402 70.049985 11.673526 72.727068 C 9.001651 75.398944 7.501651 79.018735 7.501651 82.799986 L 7.501651 97.049986 " stroke="#fff3c2" stroke-width="15" stroke-opacity="1" stroke-miterlimit="4"/><g clip-path="url(#bd6d2c5559)"><g clip-path="url(#112459a1fa)"><path stroke-linecap="butt" transform="matrix(0.75, 0, 0, 0.75, 345.754234, 41.736815)" fill="none" stroke-linejoin="miter" d="M 14.994356 0.00195531 L 32.509982 0.00195531 C 40.791232 0.00195531 47.504774 6.715497 47.504774 14.996748 L 47.504774 19.189456 C 47.504774 27.475915 40.791232 34.189457 32.509982 34.189457 L 14.994356 34.189457 C 6.713105 34.189457 -0.000436734 27.475915 -0.000436734 19.189456 L -0.000436734 14.996748 C -0.000436734 6.715497 6.713105 0.00195531 14.994356 0.00195531 Z M 14.994356 0.00195531 " stroke="#ffffff" stroke-width="16" stroke-opacity="1" stroke-miterlimit="4"/></g></g><g clip-path="url(#484ab9e3cb)"><g clip-path="url(#fcc1459e4f)"><path stroke-linecap="butt" transform="matrix(0.75, 0, 0, 0.75, 389.29094, 41.736815)" fill="none" stroke-linejoin="miter" d="M 14.997498 0.00195531 L 32.513124 0.00195531 C 40.794374 0.00195531 47.507916 6.715497 47.507916 14.996748 L 47.507916 19.189456 C 47.507916 27.475915 40.794374 34.189457 32.513124 34.189457 L 14.997498 34.189457 C 6.716247 34.189457 -0.0025029 27.475915 -0.0025029 19.189456 L -0.0025029 14.996748 C -0.0025029 6.715497 6.716247 0.00195531 14.997498 0.00195531 Z M 14.997498 0.00195531 " stroke="#ffffff" stroke-width="16" stroke-opacity="1" stroke-miterlimit="4"/></g></g><path stroke-linecap="butt" transform="matrix(-0.75, -0.000000001309, 0.000000001309, -0.75, 391.982504, 57.560876)" fill="none" stroke-linejoin="miter" d="M -0.00249526 3.997834 L 17.429797 3.997834 " stroke="#ffffff" stroke-width="8" stroke-opacity="1" stroke-miterlimit="4"/></svg>