<svg xmlns="http://www.w3.org/2000/svg" xmlns:xlink="http://www.w3.org/1999/xlink" width="1000" zoomAndPan="magnify" viewBox="0 0 750 749.999995" height="1000" preserveAspectRatio="xMidYMid meet" version="1.0"><defs><g/><clipPath id="e6b3820134"><path d="M 339.234375 11.519531 L 431.714844 11.519531 L 431.714844 104 L 339.234375 104 Z M 339.234375 11.519531 " clip-rule="nonzero"/></clipPath><clipPath id="db45bf1fee"><path d="M 385.476562 11.519531 C 359.9375 11.519531 339.234375 32.222656 339.234375 57.761719 C 339.234375 83.296875 359.9375 104 385.476562 104 C 411.011719 104 431.714844 83.296875 431.714844 57.761719 C 431.714844 32.222656 411.011719 11.519531 385.476562 11.519531 Z M 385.476562 11.519531 " clip-rule="nonzero"/></clipPath><clipPath id="f8f150f1fa"><path d="M 0.234375 0.519531 L 92.714844 0.519531 L 92.714844 93 L 0.234375 93 Z M 0.234375 0.519531 " clip-rule="nonzero"/></clipPath><clipPath id="15d3145f50"><path d="M 46.476562 0.519531 C 20.9375 0.519531 0.234375 21.222656 0.234375 46.761719 C 0.234375 72.296875 20.9375 93 46.476562 93 C 72.011719 93 92.714844 72.296875 92.714844 46.761719 C 92.714844 21.222656 72.011719 0.519531 46.476562 0.519531 Z M 46.476562 0.519531 " clip-rule="nonzero"/></clipPath><clipPath id="e11ec5a517"><rect x="0" width="93" y="0" height="93"/></clipPath><clipPath id="6a3cced92c"><path d="M 312.390625 113.5 L 457.539062 113.5 L 457.539062 390.761719 L 312.390625 390.761719 Z M 312.390625 113.5 " clip-rule="nonzero"/></clipPath><clipPath id="6c4caec6b7"><path d="M 347.640625 113.5 L 422.289062 113.5 C 441.757812 113.5 457.539062 129.285156 457.539062 148.75 L 457.539062 354.992188 C 457.539062 374.460938 441.757812 390.242188 422.289062 390.242188 L 347.640625 390.242188 C 328.171875 390.242188 312.390625 374.460938 312.390625 354.992188 L 312.390625 148.75 C 312.390625 129.285156 328.171875 113.5 347.640625 113.5 Z M 347.640625 113.5 " clip-rule="nonzero"/></clipPath><clipPath id="384dfcdafb"><path d="M 0.390625 0.5 L 145.539062 0.5 L 145.539062 277.480469 L 0.390625 277.480469 Z M 0.390625 0.5 " clip-rule="nonzero"/></clipPath><clipPath id="2ac0993584"><path d="M 35.640625 0.5 L 110.289062 0.5 C 129.757812 0.5 145.539062 16.285156 145.539062 35.75 L 145.539062 241.992188 C 145.539062 261.460938 129.757812 277.242188 110.289062 277.242188 L 35.640625 277.242188 C 16.171875 277.242188 0.390625 261.460938 0.390625 241.992188 L 0.390625 35.75 C 0.390625 16.285156 16.171875 0.5 35.640625 0.5 Z M 35.640625 0.5 " clip-rule="nonzero"/></clipPath><clipPath id="c352aa2fe4"><rect x="0" width="146" y="0" height="278"/></clipPath><clipPath id="68ee9dc572"><path d="M 414 121 L 535 121 L 535 354 L 414 354 Z M 414 121 " clip-rule="nonzero"/></clipPath><clipPath id="adf2bcf00e"><path d="M 407.109375 132.507812 L 459.957031 113.5 L 542.449219 342.863281 L 489.597656 361.871094 Z M 407.109375 132.507812 " clip-rule="nonzero"/></clipPath><clipPath id="3705f805cd"><path d="M 433.535156 123.003906 C 448.128906 117.753906 464.214844 125.332031 469.460938 139.925781 L 532.894531 316.289062 C 538.140625 330.882812 530.566406 346.96875 515.972656 352.21875 C 501.375 357.46875 485.289062 349.890625 480.042969 335.296875 L 416.613281 158.933594 C 411.363281 144.339844 418.9375 128.253906 433.535156 123.003906 Z M 433.535156 123.003906 " clip-rule="nonzero"/></clipPath><clipPath id="69058fbef4"><path d="M 0 0 L 121 0 L 121 233 L 0 233 Z M 0 0 " clip-rule="nonzero"/></clipPath><clipPath id="5543649209"><path d="M -6.890625 11.507812 L 45.957031 -7.5 L 128.449219 221.863281 L 75.597656 240.871094 Z M -6.890625 11.507812 " clip-rule="nonzero"/></clipPath><clipPath id="c6f8198f42"><path d="M 19.535156 2.003906 C 34.128906 -3.246094 50.214844 4.332031 55.460938 18.925781 L 118.894531 195.289062 C 124.140625 209.882812 116.566406 225.96875 101.972656 231.21875 C 87.375 236.46875 71.289062 228.890625 66.042969 214.296875 L 2.613281 37.933594 C -2.636719 23.339844 4.9375 7.253906 19.535156 2.003906 Z M 19.535156 2.003906 " clip-rule="nonzero"/></clipPath><clipPath id="c067b9cf4d"><rect x="0" width="121" y="0" height="233"/></clipPath><clipPath id="551fd27349"><path d="M 237 120 L 357 120 L 357 357 L 237 357 Z M 237 120 " clip-rule="nonzero"/></clipPath><clipPath id="d267a28bda"><path d="M 316.675781 113.503906 L 363.570312 131.003906 L 276.890625 363.261719 L 230 345.761719 Z M 316.675781 113.503906 " clip-rule="nonzero"/></clipPath><clipPath id="6813d46136"><path d="M 340.125 122.253906 C 346.339844 124.574219 351.382812 129.269531 354.140625 135.308594 C 356.894531 141.34375 357.140625 148.230469 354.820312 154.449219 L 285.652344 339.785156 C 283.332031 346.003906 278.636719 351.046875 272.597656 353.800781 C 266.5625 356.558594 259.675781 356.800781 253.457031 354.480469 C 247.238281 352.160156 242.199219 347.464844 239.441406 341.425781 C 236.6875 335.390625 236.441406 328.503906 238.761719 322.285156 L 307.929688 136.949219 C 310.25 130.730469 314.945312 125.6875 320.980469 122.933594 C 327.019531 120.175781 333.90625 119.933594 340.125 122.253906 Z M 340.125 122.253906 " clip-rule="nonzero"/></clipPath><clipPath id="a37c5ad3f6"><path d="M 0 0 L 120 0 L 120 236.878906 L 0 236.878906 Z M 0 0 " clip-rule="nonzero"/></clipPath><clipPath id="504342c291"><path d="M 79.675781 -6.496094 L 126.570312 11.003906 L 39.890625 243.261719 L -7 225.761719 Z M 79.675781 -6.496094 " clip-rule="nonzero"/></clipPath><clipPath id="bb3387cef8"><path d="M 103.125 2.253906 C 109.339844 4.574219 114.382812 9.269531 117.140625 15.308594 C 119.894531 21.34375 120.140625 28.230469 117.820312 34.449219 L 48.652344 219.785156 C 46.332031 226.003906 41.636719 231.046875 35.597656 233.800781 C 29.5625 236.558594 22.675781 236.800781 16.457031 234.480469 C 10.238281 232.160156 5.199219 227.464844 2.441406 221.425781 C -0.3125 215.390625 -0.558594 208.503906 1.761719 202.285156 L 70.929688 16.949219 C 73.25 10.730469 77.945312 5.6875 83.980469 2.933594 C 90.019531 0.175781 96.90625 -0.0664062 103.125 2.253906 Z M 103.125 2.253906 " clip-rule="nonzero"/></clipPath><clipPath id="d8b91ab025"><rect x="0" width="120" y="0" height="237"/></clipPath><clipPath id="cf8dc42919"><path d="M 312.390625 288.148438 L 375 288.148438 L 375 573.5625 L 312.390625 573.5625 Z M 312.390625 288.148438 " clip-rule="nonzero"/></clipPath><clipPath id="e2896a3d25"><path d="M 343.695312 288.148438 C 351.996094 288.148438 359.960938 291.445312 365.832031 297.316406 C 371.703125 303.1875 375 311.152344 375 319.453125 L 375 542.109375 C 375 550.414062 371.703125 558.375 365.832031 564.246094 C 359.960938 570.117188 351.996094 573.417969 343.695312 573.417969 C 335.390625 573.417969 327.429688 570.117188 321.558594 564.246094 C 315.6875 558.375 312.390625 550.414062 312.390625 542.109375 L 312.390625 319.453125 C 312.390625 311.152344 315.6875 303.1875 321.558594 297.316406 C 327.429688 291.445312 335.390625 288.148438 343.695312 288.148438 Z M 343.695312 288.148438 " clip-rule="nonzero"/></clipPath><clipPath id="1023bc2bec"><path d="M 0.390625 0.148438 L 63 0.148438 L 63 285.5625 L 0.390625 285.5625 Z M 0.390625 0.148438 " clip-rule="nonzero"/></clipPath><clipPath id="70d39a555f"><path d="M 31.695312 0.148438 C 39.996094 0.148438 47.960938 3.445312 53.832031 9.316406 C 59.703125 15.1875 63 23.152344 63 31.453125 L 63 254.109375 C 63 262.414062 59.703125 270.375 53.832031 276.246094 C 47.960938 282.117188 39.996094 285.417969 31.695312 285.417969 C 23.390625 285.417969 15.429688 282.117188 9.558594 276.246094 C 3.6875 270.375 0.390625 262.414062 0.390625 254.109375 L 0.390625 31.453125 C 0.390625 23.152344 3.6875 15.1875 9.558594 9.316406 C 15.429688 3.445312 23.390625 0.148438 31.695312 0.148438 Z M 31.695312 0.148438 " clip-rule="nonzero"/></clipPath><clipPath id="9b59be7d2d"><rect x="0" width="63" y="0" height="286"/></clipPath><clipPath id="57e4499e4b"><path d="M 397.707031 251.871094 L 460.132812 251.871094 L 460.132812 573.507812 L 397.707031 573.507812 Z M 397.707031 251.871094 " clip-rule="nonzero"/></clipPath><clipPath id="fe555c4559"><path d="M 428.917969 251.871094 C 446.15625 251.871094 460.132812 265.847656 460.132812 283.085938 L 460.132812 542.203125 C 460.132812 559.441406 446.15625 573.417969 428.917969 573.417969 C 411.679688 573.417969 397.707031 559.441406 397.707031 542.203125 L 397.707031 283.085938 C 397.707031 265.847656 411.679688 251.871094 428.917969 251.871094 Z M 428.917969 251.871094 " clip-rule="nonzero"/></clipPath><clipPath id="d4f68f3157"><path d="M 0.707031 0.871094 L 63.132812 0.871094 L 63.132812 322.507812 L 0.707031 322.507812 Z M 0.707031 0.871094 " clip-rule="nonzero"/></clipPath><clipPath id="6c9f1215d1"><path d="M 31.917969 0.871094 C 49.15625 0.871094 63.132812 14.847656 63.132812 32.085938 L 63.132812 291.203125 C 63.132812 308.441406 49.15625 322.417969 31.917969 322.417969 C 14.679688 322.417969 0.707031 308.441406 0.707031 291.203125 L 0.707031 32.085938 C 0.707031 14.847656 14.679688 0.871094 31.917969 0.871094 Z M 31.917969 0.871094 " clip-rule="nonzero"/></clipPath><clipPath id="2a83b284af"><rect x="0" width="64" y="0" height="323"/></clipPath><clipPath id="8ae436d92a"><path d="M 345.75 41.738281 L 381.75 41.738281 L 381.75 67.238281 L 345.75 67.238281 Z M 345.75 41.738281 " clip-rule="nonzero"/></clipPath><clipPath id="d2df80c765"><path d="M 357 41.738281 L 370.136719 41.738281 C 376.347656 41.738281 381.382812 46.773438 381.382812 52.984375 L 381.382812 56.128906 C 381.382812 62.34375 376.347656 67.378906 370.136719 67.378906 L 357 67.378906 C 350.789062 67.378906 345.753906 62.34375 345.753906 56.128906 L 345.753906 52.984375 C 345.753906 46.773438 350.789062 41.738281 357 41.738281 Z M 357 41.738281 " clip-rule="nonzero"/></clipPath><clipPath id="872a8167cf"><path d="M 389.289062 41.738281 L 425 41.738281 L 425 67.238281 L 389.289062 67.238281 Z M 389.289062 41.738281 " clip-rule="nonzero"/></clipPath><clipPath id="cb204b4f18"><path d="M 400.539062 41.738281 L 413.675781 41.738281 C 419.886719 41.738281 424.921875 46.773438 424.921875 52.984375 L 424.921875 56.128906 C 424.921875 62.34375 419.886719 67.378906 413.675781 67.378906 L 400.539062 67.378906 C 394.328125 67.378906 389.289062 62.34375 389.289062 56.128906 L 389.289062 52.984375 C 389.289062 46.773438 394.328125 41.738281 400.539062 41.738281 Z M 400.539062 41.738281 " clip-rule="nonzero"/></clipPath></defs><rect x="-75" width="900" fill="#ffffff" y="-74.999999" height="899.999994" fill-opacity="1"/><rect x="-75" width="900" fill="#ffffff" y="-74.999999" height="899.999994" fill-opacity="1"/><g fill="#000000" fill-opacity="1"><g transform="translate(269.988274, 665.996508)"><g><path d="M 5.03125 0 L 5.03125 -12.234375 C 12.46875 -19.023438 18.984375 -25.335938 24.578125 -31.171875 C 30.179688 -37.015625 34.539062 -42.472656 37.65625 -47.546875 C 40.769531 -52.628906 42.328125 -57.328125 42.328125 -61.640625 C 42.328125 -65.710938 41.269531 -68.828125 39.15625 -70.984375 C 37.039062 -73.148438 34.222656 -74.234375 30.703125 -74.234375 C 27.660156 -74.234375 24.898438 -73.375 22.421875 -71.65625 C 19.941406 -69.9375 17.664062 -67.914062 15.59375 -65.59375 L 3.953125 -77.109375 C 8.347656 -81.742188 12.804688 -85.203125 17.328125 -87.484375 C 21.847656 -89.765625 27.265625 -90.90625 33.578125 -90.90625 C 39.335938 -90.90625 44.414062 -89.742188 48.8125 -87.421875 C 53.207031 -85.109375 56.644531 -81.851562 59.125 -77.65625 C 61.601562 -73.457031 62.84375 -68.519531 62.84375 -62.84375 C 62.84375 -57.726562 61.539062 -52.507812 58.9375 -47.1875 C 56.34375 -41.875 53.003906 -36.640625 48.921875 -31.484375 C 44.847656 -26.328125 40.535156 -21.429688 35.984375 -16.796875 C 38.210938 -17.109375 40.6875 -17.382812 43.40625 -17.625 C 46.125 -17.863281 48.484375 -17.984375 50.484375 -17.984375 L 66.921875 -17.984375 L 66.921875 0 Z M 5.03125 0 "/></g></g></g><g fill="#000000" fill-opacity="1"><g transform="translate(343.018331, 665.996508)"><g><path d="M 21.46875 0 C 21.863281 -7.351562 22.519531 -14.128906 23.4375 -20.328125 C 24.363281 -26.523438 25.664062 -32.421875 27.34375 -38.015625 C 29.019531 -43.609375 31.253906 -49.125 34.046875 -54.5625 C 36.847656 -60 40.328125 -65.632812 44.484375 -71.46875 L 6.109375 -71.46875 L 6.109375 -89.21875 L 67.28125 -89.21875 L 67.28125 -76.265625 C 62.15625 -70.109375 58.054688 -64.289062 54.984375 -58.8125 C 51.910156 -53.34375 49.570312 -47.75 47.96875 -42.03125 C 46.375 -36.3125 45.234375 -30.054688 44.546875 -23.265625 C 43.867188 -16.472656 43.332031 -8.71875 42.9375 0 Z M 21.46875 0 "/></g></g></g><g fill="#000000" fill-opacity="1"><g transform="translate(416.048387, 665.996508)"><g><path d="M 31.78125 -72.3125 L 31.78125 -48.328125 L 41.375 -48.328125 C 51.769531 -48.328125 56.96875 -52.601562 56.96875 -61.15625 C 56.96875 -65.394531 55.644531 -68.3125 53 -69.90625 C 50.363281 -71.507812 46.488281 -72.3125 41.375 -72.3125 Z M 82.5 0 L 58.515625 0 L 42.09375 -31.421875 L 31.78125 -31.421875 L 31.78125 0 L 10.3125 0 L 10.3125 -89.21875 L 43.046875 -89.21875 C 49.441406 -89.21875 55.273438 -88.378906 60.546875 -86.703125 C 65.828125 -85.023438 70.046875 -82.144531 73.203125 -78.0625 C 76.367188 -73.988281 77.953125 -68.351562 77.953125 -61.15625 C 77.953125 -54.601562 76.550781 -49.207031 73.75 -44.96875 C 70.957031 -40.726562 67.238281 -37.53125 62.59375 -35.375 Z M 82.5 0 "/></g></g></g><g clip-path="url(#e6b3820134)"><g clip-path="url(#db45bf1fee)"><g transform="matrix(1, 0, 0, 1, 339, 11)"><g clip-path="url(#e11ec5a517)"><g clip-path="url(#f8f150f1fa)"><g clip-path="url(#15d3145f50)"><path fill="#000000" d="M 0.234375 0.519531 L 92.714844 0.519531 L 92.714844 93 L 0.234375 93 Z M 0.234375 0.519531 " fill-opacity="1" fill-rule="nonzero"/></g></g></g></g></g></g><g clip-path="url(#6a3cced92c)"><g clip-path="url(#6c4caec6b7)"><g transform="matrix(1, 0, 0, 1, 312, 113)"><g clip-path="url(#c352aa2fe4)"><g clip-path="url(#384dfcdafb)"><g clip-path="url(#2ac0993584)"><path fill="#000000" d="M 0.390625 0.5 L 145.539062 0.5 L 145.539062 277.195312 L 0.390625 277.195312 Z M 0.390625 0.5 " fill-opacity="1" fill-rule="nonzero"/></g></g></g></g></g></g><g clip-path="url(#68ee9dc572)"><g clip-path="url(#adf2bcf00e)"><g clip-path="url(#3705f805cd)"><g transform="matrix(1, 0, 0, 1, 414, 121)"><g clip-path="url(#c067b9cf4d)"><g clip-path="url(#69058fbef4)"><g clip-path="url(#5543649209)"><g clip-path="url(#c6f8198f42)"><path fill="#000000" d="M -6.890625 11.507812 L 45.957031 -7.5 L 128.375 221.660156 L 75.523438 240.667969 Z M -6.890625 11.507812 " fill-opacity="1" fill-rule="nonzero"/></g></g></g></g></g></g></g></g><g clip-path="url(#551fd27349)"><g clip-path="url(#d267a28bda)"><g clip-path="url(#6813d46136)"><g transform="matrix(1, 0, 0, 1, 237, 120)"><g clip-path="url(#d8b91ab025)"><g clip-path="url(#a37c5ad3f6)"><g clip-path="url(#504342c291)"><g clip-path="url(#bb3387cef8)"><path fill="#000000" d="M 79.675781 -6.496094 L 126.570312 11.003906 L 39.890625 243.261719 L -7 225.761719 Z M 79.675781 -6.496094 " fill-opacity="1" fill-rule="nonzero"/></g></g></g></g></g></g></g></g><g clip-path="url(#cf8dc42919)"><g clip-path="url(#e2896a3d25)"><g transform="matrix(1, 0, 0, 1, 312, 288)"><g clip-path="url(#9b59be7d2d)"><g clip-path="url(#1023bc2bec)"><g clip-path="url(#70d39a555f)"><path fill="#000000" d="M 0.390625 0.148438 L 63 0.148438 L 63 285.316406 L 0.390625 285.316406 Z M 0.390625 0.148438 " fill-opacity="1" fill-rule="nonzero"/></g></g></g></g></g></g><g clip-path="url(#57e4499e4b)"><g clip-path="url(#fe555c4559)"><g transform="matrix(1, 0, 0, 1, 397, 251)"><g clip-path="url(#2a83b284af)"><g clip-path="url(#d4f68f3157)"><g clip-path="url(#6c9f1215d1)"><path fill="#000000" d="M 0.707031 0.871094 L 63.132812 0.871094 L 63.132812 322.507812 L 0.707031 322.507812 Z M 0.707031 0.871094 " fill-opacity="1" fill-rule="nonzero"/></g></g></g></g></g></g><path stroke-linecap="butt" transform="matrix(0.75, 0, 0, 0.75, 325.812409, 113.50152)" fill="none" stroke-linejoin="miter" d="M 78.869917 -0.00202676 L 78.869917 21.274016 C 78.869917 33.024017 69.343874 42.550059 57.593874 42.550059 L 31.500123 42.550059 C 18.244914 42.550059 7.500121 53.294851 7.500121 66.55006 L 7.500121 106.096937 C 7.500121 119.352146 18.244914 130.096938 31.500123 130.096938 L 86.151167 130.096938 C 99.406376 130.096938 110.151168 140.84173 110.151168 154.096939 L 110.151168 184.086524 C 110.151168 191.633399 116.27096 197.747983 123.812627 197.747983 L 137.474086 197.747983 " stroke="#fff3c2" stroke-width="15" stroke-opacity="1" stroke-miterlimit="4"/><path stroke-linecap="butt" transform="matrix(0.75, 0, 0, 0.75, 357.945806, 167.969762)" fill="none" stroke-linejoin="miter" d="M 7.499342 125.123656 L 7.499342 31.498652 C 7.499342 18.243443 18.244135 7.498651 31.499344 7.498651 L 51.285803 7.498651 C 64.541012 7.498651 75.285804 18.243443 75.285804 31.498652 L 75.285804 46.102819 C 75.285804 57.076778 84.181638 65.972612 95.155597 65.972612 C 106.129555 65.972612 115.025389 74.868446 115.025389 85.842405 L 115.025389 114.925739 C 115.025389 120.555948 110.462889 125.123656 104.827472 125.123656 L 94.629555 125.123656 " stroke="#fff3c2" stroke-width="15" stroke-opacity="1" stroke-miterlimit="4"/><path stroke-linecap="butt" transform="matrix(0.75, 0, 0, 0.75, 357.945806, 234.058235)" fill="none" stroke-linejoin="miter" d="M 7.499342 31.568188 L 7.499342 91.583816 C 7.499342 99.458817 13.884759 105.844234 21.764968 105.844234 C 29.639968 105.844234 36.025385 99.458817 36.025385 91.583816 L 36.025385 31.50048 C 36.025385 18.245271 46.770178 7.500479 60.025387 7.500479 L 70.629554 7.500479 C 83.884763 7.500479 94.629555 18.245271 94.629555 31.50048 L 94.629555 115.255692 C 94.629555 119.109859 93.098305 122.807776 90.369138 125.536943 C 87.64518 128.260901 83.947263 129.79736 80.087888 129.79736 C 76.233721 129.79736 72.535804 128.260901 69.806637 125.536943 C 67.082679 122.807776 65.551429 119.109859 65.551429 115.255692 L 65.551429 79.057774 " stroke="#fff3c2" stroke-width="15" stroke-opacity="1" stroke-miterlimit="4"/><path stroke-linecap="butt" transform="matrix(0.75, 0, 0, 0.75, 325.812409, 270.153463)" fill="none" stroke-linejoin="miter" d="M 7.500121 -0.00149211 L 7.500121 86.706845 C 7.500121 99.956846 18.244914 110.706847 31.500123 110.706847 L 133.869919 110.706847 C 147.125128 110.706847 157.86992 99.956846 157.86992 86.706845 L 157.86992 38.31101 C 157.86992 25.055801 147.125128 14.311009 133.869919 14.311009 L 116.703252 14.311009 C 112.11471 14.311009 108.39596 18.029759 108.39596 22.618301 L 108.39596 30.930801 " stroke="#fff3c2" stroke-width="15" stroke-opacity="1" stroke-miterlimit="4"/><path stroke-linecap="butt" transform="matrix(0.75, 0, 0, 0.75, 325.812409, 228.9943)" fill="none" stroke-linejoin="miter" d="M 7.500121 60.721145 L 7.500121 18.653434 C 7.500121 12.491976 12.494913 7.502392 18.656372 7.502392 C 24.817831 7.502392 29.812623 12.491976 29.812623 18.653434 L 29.812623 115.007606 C 29.812623 128.262815 40.557415 139.007607 53.812624 139.007607 L 54.869915 139.007607 C 68.125124 139.007607 78.869917 149.752399 78.869917 163.007608 L 78.869917 214.997194 " stroke="#fff3c2" stroke-width="15" stroke-opacity="1" stroke-miterlimit="4"/><path stroke-linecap="butt" transform="matrix(0.75, 0, 0, 0.75, 392.080793, 139.790521)" fill="none" stroke-linejoin="miter" d="M 7.501651 50.586599 L 7.501651 29.044931 C 7.501651 17.143889 17.147485 7.498055 29.043319 7.498055 L 45.51207 7.498055 C 58.767279 7.498055 69.512071 18.242848 69.512071 31.498057 L 69.512071 44.550141 C 69.512071 57.80535 58.767279 68.550142 45.51207 68.550142 L 21.751652 68.550142 C 17.970402 68.550142 14.345402 70.050142 11.673526 72.722017 C 9.001651 75.3991 7.501651 79.018892 7.501651 82.800142 L 7.501651 97.050143 " stroke="#fff3c2" stroke-width="15" stroke-opacity="1" stroke-miterlimit="4"/><g clip-path="url(#8ae436d92a)"><g clip-path="url(#d2df80c765)"><path stroke-linecap="butt" transform="matrix(0.75, 0, 0, 0.75, 345.754234, 41.736834)" fill="none" stroke-linejoin="miter" d="M 14.994356 0.00192971 L 32.509982 0.00192971 C 40.791232 0.00192971 47.504774 6.715472 47.504774 14.996722 L 47.504774 19.189431 C 47.504774 27.475889 40.791232 34.189431 32.509982 34.189431 L 14.994356 34.189431 C 6.713105 34.189431 -0.000436734 27.475889 -0.000436734 19.189431 L -0.000436734 14.996722 C -0.000436734 6.715472 6.713105 0.00192971 14.994356 0.00192971 Z M 14.994356 0.00192971 " stroke="#ffffff" stroke-width="16" stroke-opacity="1" stroke-miterlimit="4"/></g></g><g clip-path="url(#872a8167cf)"><g clip-path="url(#cb204b4f18)"><path stroke-linecap="butt" transform="matrix(0.75, 0, 0, 0.75, 389.29094, 41.736834)" fill="none" stroke-linejoin="miter" d="M 14.997498 0.00192971 L 32.513124 0.00192971 C 40.794374 0.00192971 47.507916 6.715472 47.507916 14.996722 L 47.507916 19.189431 C 47.507916 27.475889 40.794374 34.189431 32.513124 34.189431 L 14.997498 34.189431 C 6.716247 34.189431 -0.0025029 27.475889 -0.0025029 19.189431 L -0.0025029 14.996722 C -0.0025029 6.715472 6.716247 0.00192971 14.997498 0.00192971 Z M 14.997498 0.00192971 " stroke="#ffffff" stroke-width="16" stroke-opacity="1" stroke-miterlimit="4"/></g></g><path stroke-linecap="butt" transform="matrix(-0.75, -0.000000001309, 0.000000001309, -0.75, 391.982504, 57.56084)" fill="none" stroke-linejoin="miter" d="M -0.00249526 3.997786 L 17.429797 3.997786 " stroke="#ffffff" stroke-width="8" stroke-opacity="1" stroke-miterlimit="4"/></svg>