<svg xmlns="http://www.w3.org/2000/svg" xmlns:xlink="http://www.w3.org/1999/xlink" width="1000" zoomAndPan="magnify" viewBox="0 0 750 749.999995" height="1000" preserveAspectRatio="xMidYMid meet" version="1.0"><defs><clipPath id="e9ec3e8b12"><path d="M 160.039062 233.410156 L 589.789062 233.410156 L 589.789062 650.40625 L 160.039062 650.40625 Z M 160.039062 233.410156 " clip-rule="nonzero"/></clipPath><clipPath id="19804bcaf6"><path d="M 198.289062 233.410156 L 551.703125 233.410156 C 572.828125 233.410156 589.953125 250.53125 589.953125 271.65625 L 589.953125 612.425781 C 589.953125 633.546875 572.828125 650.671875 551.703125 650.671875 L 198.289062 650.671875 C 177.164062 650.671875 160.039062 633.546875 160.039062 612.425781 L 160.039062 271.65625 C 160.039062 250.53125 177.164062 233.410156 198.289062 233.410156 Z M 198.289062 233.410156 " clip-rule="nonzero"/></clipPath><clipPath id="2e31884057"><path d="M 393.195312 35.496094 L 503.4375 35.496094 L 503.4375 216.363281 L 393.195312 216.363281 Z M 393.195312 35.496094 " clip-rule="nonzero"/></clipPath><clipPath id="408e9d441d"><path d="M 448.316406 35.496094 L 393.195312 113.582031 L 432.238281 113.582031 L 432.238281 216.027344 L 464.394531 216.027344 L 464.394531 113.582031 L 503.4375 113.582031 Z M 448.316406 35.496094 " clip-rule="nonzero"/></clipPath><clipPath id="831576fd13"><path d="M 0.195312 0.496094 L 110.4375 0.496094 L 110.4375 181 L 0.195312 181 Z M 0.195312 0.496094 " clip-rule="nonzero"/></clipPath><clipPath id="792d4aaf68"><path d="M 55.316406 0.496094 L 0.195312 78.582031 L 39.238281 78.582031 L 39.238281 181.027344 L 71.394531 181.027344 L 71.394531 78.582031 L 110.4375 78.582031 Z M 55.316406 0.496094 " clip-rule="nonzero"/></clipPath><clipPath id="6f64f4ac79"><rect x="0" width="111" y="0" height="182"/></clipPath><clipPath id="81021787ad"><path d="M 246.558594 35.15625 L 356.800781 35.15625 L 356.800781 216.023438 L 246.558594 216.023438 Z M 246.558594 35.15625 " clip-rule="nonzero"/></clipPath><clipPath id="99bc484fc3"><path d="M 301.679688 216.023438 L 356.800781 137.9375 L 317.757812 137.9375 L 317.757812 35.496094 L 285.601562 35.496094 L 285.601562 137.9375 L 246.558594 137.9375 Z M 301.679688 216.023438 " clip-rule="nonzero"/></clipPath><clipPath id="3d251a3c40"><path d="M 0.558594 0.28125 L 110.800781 0.28125 L 110.800781 181.023438 L 0.558594 181.023438 Z M 0.558594 0.28125 " clip-rule="nonzero"/></clipPath><clipPath id="8b43e34511"><path d="M 55.679688 181.023438 L 110.800781 102.9375 L 71.757812 102.9375 L 71.757812 0.496094 L 39.601562 0.496094 L 39.601562 102.9375 L 0.558594 102.9375 Z M 55.679688 181.023438 " clip-rule="nonzero"/></clipPath><clipPath id="4ad03138f6"><rect x="0" width="111" y="0" height="182"/></clipPath><clipPath id="d19710fe7c"><path d="M 253.1875 326.503906 L 350.179688 326.503906 L 350.179688 423.496094 L 253.1875 423.496094 Z M 253.1875 326.503906 " clip-rule="nonzero"/></clipPath><clipPath id="367b20ae49"><path d="M 301.683594 326.503906 C 274.902344 326.503906 253.1875 348.21875 253.1875 375 C 253.1875 401.785156 274.902344 423.496094 301.683594 423.496094 C 328.46875 423.496094 350.179688 401.785156 350.179688 375 C 350.179688 348.21875 328.46875 326.503906 301.683594 326.503906 Z M 301.683594 326.503906 " clip-rule="nonzero"/></clipPath><clipPath id="366aa88941"><path d="M 0.1875 0.503906 L 97.179688 0.503906 L 97.179688 97.496094 L 0.1875 97.496094 Z M 0.1875 0.503906 " clip-rule="nonzero"/></clipPath><clipPath id="479984a013"><path d="M 48.683594 0.503906 C 21.902344 0.503906 0.1875 22.21875 0.1875 49 C 0.1875 75.785156 21.902344 97.496094 48.683594 97.496094 C 75.46875 97.496094 97.179688 75.785156 97.179688 49 C 97.179688 22.21875 75.46875 0.503906 48.683594 0.503906 Z M 48.683594 0.503906 " clip-rule="nonzero"/></clipPath><clipPath id="ee50b01d9c"><rect x="0" width="98" y="0" height="98"/></clipPath><clipPath id="91660c426d"><path d="M 253.1875 442.042969 L 350.179688 442.042969 L 350.179688 618.597656 L 253.1875 618.597656 Z M 253.1875 442.042969 " clip-rule="nonzero"/></clipPath><clipPath id="e6702a1a7c"><path d="M 288.4375 442.042969 L 314.929688 442.042969 C 334.398438 442.042969 350.179688 457.824219 350.179688 477.292969 L 350.179688 583.296875 C 350.179688 602.765625 334.398438 618.546875 314.929688 618.546875 L 288.4375 618.546875 C 268.972656 618.546875 253.1875 602.765625 253.1875 583.296875 L 253.1875 477.292969 C 253.1875 457.824219 268.972656 442.042969 288.4375 442.042969 Z M 288.4375 442.042969 " clip-rule="nonzero"/></clipPath><clipPath id="d52a20864d"><path d="M 0.1875 0.0429688 L 97.179688 0.0429688 L 97.179688 176.597656 L 0.1875 176.597656 Z M 0.1875 0.0429688 " clip-rule="nonzero"/></clipPath><clipPath id="bfc312f98e"><path d="M 35.4375 0.0429688 L 61.929688 0.0429688 C 81.398438 0.0429688 97.179688 15.824219 97.179688 35.292969 L 97.179688 141.296875 C 97.179688 160.765625 81.398438 176.546875 61.929688 176.546875 L 35.4375 176.546875 C 15.972656 176.546875 0.1875 160.765625 0.1875 141.296875 L 0.1875 35.292969 C 0.1875 15.824219 15.972656 0.0429688 35.4375 0.0429688 Z M 35.4375 0.0429688 " clip-rule="nonzero"/></clipPath><clipPath id="fc014331bb"><rect x="0" width="98" y="0" height="177"/></clipPath><clipPath id="3ba936fd8e"><path d="M 393.195312 326.503906 L 490.183594 326.503906 L 490.183594 423.496094 L 393.195312 423.496094 Z M 393.195312 326.503906 " clip-rule="nonzero"/></clipPath><clipPath id="0aa1ee7c70"><path d="M 441.6875 326.503906 C 414.90625 326.503906 393.195312 348.21875 393.195312 375 C 393.195312 401.785156 414.90625 423.496094 441.6875 423.496094 C 468.472656 423.496094 490.183594 401.785156 490.183594 375 C 490.183594 348.21875 468.472656 326.503906 441.6875 326.503906 Z M 441.6875 326.503906 " clip-rule="nonzero"/></clipPath><clipPath id="a2bbdbb57f"><path d="M 0.195312 0.503906 L 97.183594 0.503906 L 97.183594 97.496094 L 0.195312 97.496094 Z M 0.195312 0.503906 " clip-rule="nonzero"/></clipPath><clipPath id="8a7a1ce95b"><path d="M 48.6875 0.503906 C 21.90625 0.503906 0.195312 22.21875 0.195312 49 C 0.195312 75.785156 21.90625 97.496094 48.6875 97.496094 C 75.472656 97.496094 97.183594 75.785156 97.183594 49 C 97.183594 22.21875 75.472656 0.503906 48.6875 0.503906 Z M 48.6875 0.503906 " clip-rule="nonzero"/></clipPath><clipPath id="71a2906e2f"><rect x="0" width="98" y="0" height="98"/></clipPath><clipPath id="ad3015a6e0"><path d="M 393.195312 442.042969 L 490.183594 442.042969 L 490.183594 618.597656 L 393.195312 618.597656 Z M 393.195312 442.042969 " clip-rule="nonzero"/></clipPath><clipPath id="9115216a6b"><path d="M 428.445312 442.042969 L 454.933594 442.042969 C 474.402344 442.042969 490.183594 457.824219 490.183594 477.292969 L 490.183594 583.296875 C 490.183594 602.765625 474.402344 618.546875 454.933594 618.546875 L 428.445312 618.546875 C 408.976562 618.546875 393.195312 602.765625 393.195312 583.296875 L 393.195312 477.292969 C 393.195312 457.824219 408.976562 442.042969 428.445312 442.042969 Z M 428.445312 442.042969 " clip-rule="nonzero"/></clipPath><clipPath id="92c66a2ff5"><path d="M 0.195312 0.0429688 L 97.183594 0.0429688 L 97.183594 176.597656 L 0.195312 176.597656 Z M 0.195312 0.0429688 " clip-rule="nonzero"/></clipPath><clipPath id="607633b12d"><path d="M 35.445312 0.0429688 L 61.933594 0.0429688 C 81.402344 0.0429688 97.183594 15.824219 97.183594 35.292969 L 97.183594 141.296875 C 97.183594 160.765625 81.402344 176.546875 61.933594 176.546875 L 35.445312 176.546875 C 15.976562 176.546875 0.195312 160.765625 0.195312 141.296875 L 0.195312 35.292969 C 0.195312 15.824219 15.976562 0.0429688 35.445312 0.0429688 Z M 35.445312 0.0429688 " clip-rule="nonzero"/></clipPath><clipPath id="702ce67c05"><rect x="0" width="98" y="0" height="177"/></clipPath></defs><rect x="-75" width="900" fill="#ffffff" y="-74.999999" height="899.999994" fill-opacity="1"/><rect x="-75" width="900" fill="#ffffff" y="-74.999999" height="899.999994" fill-opacity="1"/><g clip-path="url(#e9ec3e8b12)"><g clip-path="url(#19804bcaf6)"><path stroke-linecap="butt" transform="matrix(0.75, 0, 0, 0.75, 160.038597, 233.408416)" fill="none" stroke-linejoin="miter" d="M 51.000623 0.00232057 L 522.219396 0.00232057 C 550.386064 0.00232057 573.219398 22.830447 573.219398 50.997115 L 573.219398 505.356512 C 573.219398 533.517972 550.386064 556.351306 522.219396 556.351306 L 51.000623 556.351306 C 22.833955 556.351306 0.000620332 533.517972 0.000620332 505.356512 L 0.000620332 50.997115 C 0.000620332 22.830447 22.833955 0.00232057 51.000623 0.00232057 Z M 51.000623 0.00232057 " stroke="#000000" stroke-width="60" stroke-opacity="1" stroke-miterlimit="4"/></g></g><g clip-path="url(#2e31884057)"><g clip-path="url(#408e9d441d)"><g transform="matrix(1, 0, 0, 1, 393, 35)"><g clip-path="url(#6f64f4ac79)"><g clip-path="url(#831576fd13)"><g clip-path="url(#792d4aaf68)"><path fill="#000000" d="M 0.195312 0.496094 L 110.4375 0.496094 L 110.4375 180.933594 L 0.195312 180.933594 Z M 0.195312 0.496094 " fill-opacity="1" fill-rule="nonzero"/></g></g></g></g></g></g><g clip-path="url(#81021787ad)"><g clip-path="url(#99bc484fc3)"><g transform="matrix(1, 0, 0, 1, 246, 35)"><g clip-path="url(#4ad03138f6)"><g clip-path="url(#3d251a3c40)"><g clip-path="url(#8b43e34511)"><path fill="#000000" d="M 110.800781 181.023438 L 0.558594 181.023438 L 0.558594 0.585938 L 110.800781 0.585938 Z M 110.800781 181.023438 " fill-opacity="1" fill-rule="nonzero"/></g></g></g></g></g></g><g clip-path="url(#d19710fe7c)"><g clip-path="url(#367b20ae49)"><g transform="matrix(1, 0, 0, 1, 253, 326)"><g clip-path="url(#ee50b01d9c)"><g clip-path="url(#366aa88941)"><g clip-path="url(#479984a013)"><path fill="#000000" d="M 0.1875 0.503906 L 97.179688 0.503906 L 97.179688 97.496094 L 0.1875 97.496094 Z M 0.1875 0.503906 " fill-opacity="1" fill-rule="nonzero"/></g></g></g></g></g></g><g clip-path="url(#91660c426d)"><g clip-path="url(#e6702a1a7c)"><g transform="matrix(1, 0, 0, 1, 253, 442)"><g clip-path="url(#fc014331bb)"><g clip-path="url(#d52a20864d)"><g clip-path="url(#bfc312f98e)"><path fill="#000000" d="M 0.1875 0.0429688 L 97.179688 0.0429688 L 97.179688 176.597656 L 0.1875 176.597656 Z M 0.1875 0.0429688 " fill-opacity="1" fill-rule="nonzero"/></g></g></g></g></g></g><g clip-path="url(#3ba936fd8e)"><g clip-path="url(#0aa1ee7c70)"><g transform="matrix(1, 0, 0, 1, 393, 326)"><g clip-path="url(#71a2906e2f)"><g clip-path="url(#a2bbdbb57f)"><g clip-path="url(#8a7a1ce95b)"><path fill="#000000" d="M 0.195312 0.503906 L 97.183594 0.503906 L 97.183594 97.496094 L 0.195312 97.496094 Z M 0.195312 0.503906 " fill-opacity="1" fill-rule="nonzero"/></g></g></g></g></g></g><g clip-path="url(#ad3015a6e0)"><g clip-path="url(#9115216a6b)"><g transform="matrix(1, 0, 0, 1, 393, 442)"><g clip-path="url(#702ce67c05)"><g clip-path="url(#92c66a2ff5)"><g clip-path="url(#607633b12d)"><path fill="#000000" d="M 0.195312 0.0429688 L 97.183594 0.0429688 L 97.183594 176.597656 L 0.195312 176.597656 Z M 0.195312 0.0429688 " fill-opacity="1" fill-rule="nonzero"/></g></g></g></g></g></g></svg>