<svg xmlns="http://www.w3.org/2000/svg" xmlns:xlink="http://www.w3.org/1999/xlink" width="1000" zoomAndPan="magnify" viewBox="0 0 750 749.999995" height="1000" preserveAspectRatio="xMidYMid meet" version="1.0"><defs><g/><clipPath id="a015c5b9eb"><path d="M 187.769531 90.308594 L 515.117188 90.308594 L 515.117188 420 L 187.769531 420 Z M 187.769531 90.308594 " clip-rule="nonzero"/></clipPath><clipPath id="0ec0b888f9"><path d="M 205.019531 90.308594 L 497.867188 90.308594 C 507.394531 90.308594 515.117188 98.03125 515.117188 107.558594 L 515.117188 401.890625 C 515.117188 411.417969 507.394531 419.140625 497.867188 419.140625 L 205.019531 419.140625 C 195.492188 419.140625 187.769531 411.417969 187.769531 401.890625 L 187.769531 107.558594 C 187.769531 98.03125 195.492188 90.308594 205.019531 90.308594 Z M 205.019531 90.308594 " clip-rule="nonzero"/></clipPath><clipPath id="a5a7ab54ec"><path d="M 0.769531 0.308594 L 328.117188 0.308594 L 328.117188 329 L 0.769531 329 Z M 0.769531 0.308594 " clip-rule="nonzero"/></clipPath><clipPath id="b9b688e5ee"><path d="M 18.019531 0.308594 L 310.867188 0.308594 C 320.394531 0.308594 328.117188 8.03125 328.117188 17.558594 L 328.117188 311.890625 C 328.117188 321.417969 320.394531 329.140625 310.867188 329.140625 L 18.019531 329.140625 C 8.492188 329.140625 0.769531 321.417969 0.769531 311.890625 L 0.769531 17.558594 C 0.769531 8.03125 8.492188 0.308594 18.019531 0.308594 Z M 18.019531 0.308594 " clip-rule="nonzero"/></clipPath><clipPath id="7549a3cec8"><rect x="0" width="329" y="0" height="330"/></clipPath><clipPath id="9a5f386381"><path d="M 148.457031 148.582031 L 554.203125 148.582031 L 554.203125 419.332031 L 148.457031 419.332031 Z M 148.457031 148.582031 " clip-rule="nonzero"/></clipPath><clipPath id="4254842154"><path d="M 467.59375 148.582031 C 514.804688 151.292969 552.25 188.738281 554.421875 235.40625 L 554.421875 291.0625 C 552.25 337.1875 514.804688 374.632812 468.679688 374.632812 L 265.671875 374.632812 C 253.191406 389.285156 239.625 402.308594 223.886719 413.164062 L 213.578125 419.132812 C 208.148438 419.132812 207.066406 415.875 208.691406 410.449219 C 212.492188 398.511719 211.949219 386.027344 207.609375 374.632812 L 205.980469 369.75 C 172.875 358.894531 149 327.421875 148.457031 291.0625 L 148.457031 234.867188 C 148.457031 188.738281 186.445312 151.292969 235.285156 148.582031 L 468.679688 148.582031 Z M 467.59375 148.582031 " clip-rule="nonzero"/></clipPath><clipPath id="2d51313197"><path d="M 447.03125 458.730469 L 520.214844 458.730469 L 520.214844 607.226562 L 447.03125 607.226562 Z M 447.03125 458.730469 " clip-rule="nonzero"/></clipPath><clipPath id="471009133a"><path d="M 375 313.515625 L 586.246094 313.515625 L 586.246094 524.765625 L 375 524.765625 Z M 375 313.515625 " clip-rule="nonzero"/></clipPath><clipPath id="dc161d3cd7"><path d="M 480.625 313.515625 C 422.289062 313.515625 375 360.808594 375 419.140625 C 375 477.476562 422.289062 524.765625 480.625 524.765625 C 538.957031 524.765625 586.246094 477.476562 586.246094 419.140625 C 586.246094 360.808594 538.957031 313.515625 480.625 313.515625 Z M 480.625 313.515625 " clip-rule="nonzero"/></clipPath><clipPath id="b036757006"><path d="M 0 0.515625 L 211.246094 0.515625 L 211.246094 211.765625 L 0 211.765625 Z M 0 0.515625 " clip-rule="nonzero"/></clipPath><clipPath id="8c9e2059e1"><path d="M 105.625 0.515625 C 47.289062 0.515625 0 47.808594 0 106.140625 C 0 164.476562 47.289062 211.765625 105.625 211.765625 C 163.957031 211.765625 211.246094 164.476562 211.246094 106.140625 C 211.246094 47.808594 163.957031 0.515625 105.625 0.515625 Z M 105.625 0.515625 " clip-rule="nonzero"/></clipPath><clipPath id="b3d234d1d1"><rect x="0" width="212" y="0" height="212"/></clipPath><clipPath id="17ab4d0031"><path d="M 375 313.515625 L 586.242188 313.515625 L 586.242188 524.757812 L 375 524.757812 Z M 375 313.515625 " clip-rule="nonzero"/></clipPath><clipPath id="dd4d4429c2"><path d="M 480.621094 313.515625 C 422.289062 313.515625 375 360.804688 375 419.136719 C 375 477.472656 422.289062 524.757812 480.621094 524.757812 C 538.953125 524.757812 586.242188 477.472656 586.242188 419.136719 C 586.242188 360.804688 538.953125 313.515625 480.621094 313.515625 Z M 480.621094 313.515625 " clip-rule="nonzero"/></clipPath><clipPath id="f928cee506"><path d="M 414.789062 353.304688 L 546.460938 353.304688 L 546.460938 484.976562 L 414.789062 484.976562 Z M 414.789062 353.304688 " clip-rule="nonzero"/></clipPath><clipPath id="b11bdd2dd1"><path d="M 480.621094 353.304688 C 444.261719 353.304688 414.789062 382.78125 414.789062 419.140625 C 414.789062 455.5 444.261719 484.976562 480.621094 484.976562 C 516.984375 484.976562 546.460938 455.5 546.460938 419.140625 C 546.460938 382.78125 516.984375 353.304688 480.621094 353.304688 Z M 480.621094 353.304688 " clip-rule="nonzero"/></clipPath></defs><g clip-path="url(#a015c5b9eb)"><g clip-path="url(#0ec0b888f9)"><g transform="matrix(1, 0, 0, 1, 187, 90)"><g clip-path="url(#7549a3cec8)"><g clip-path="url(#a5a7ab54ec)"><g clip-path="url(#b9b688e5ee)"><path fill="#ffffff" d="M 0.769531 0.308594 L 328.117188 0.308594 L 328.117188 328.9375 L 0.769531 328.9375 Z M 0.769531 0.308594 " fill-opacity="1" fill-rule="nonzero"/></g></g></g></g></g></g><g fill="#000000" fill-opacity="1"><g transform="translate(258.115508, 289.808509)"><g><path d="M 17.21875 -31.328125 C 17.21875 -24.390625 18.585938 -18.929688 21.328125 -14.953125 C 24.078125 -10.972656 27.75 -8.984375 32.34375 -8.984375 C 36.988281 -8.984375 40.664062 -10.972656 43.375 -14.953125 C 46.09375 -18.929688 47.453125 -24.390625 47.453125 -31.328125 C 47.453125 -37.992188 46.09375 -43.21875 43.375 -47 C 40.664062 -50.78125 36.988281 -52.671875 32.34375 -52.671875 C 27.75 -52.671875 24.078125 -50.78125 21.328125 -47 C 18.585938 -43.21875 17.21875 -37.992188 17.21875 -31.328125 Z M 60.640625 5.875 L 62.828125 15.03125 C 61.765625 15.539062 60.335938 15.976562 58.546875 16.34375 C 56.753906 16.707031 54.710938 16.890625 52.421875 16.890625 C 46.085938 16.890625 40.734375 15.363281 36.359375 12.3125 C 31.992188 9.257812 28.75 5.378906 26.625 0.671875 C 22.195312 -0.171875 18.332031 -1.988281 15.03125 -4.78125 C 11.726562 -7.582031 9.148438 -11.238281 7.296875 -15.75 C 5.453125 -20.257812 4.53125 -25.453125 4.53125 -31.328125 C 4.53125 -38.109375 5.707031 -43.878906 8.0625 -48.640625 C 10.414062 -53.398438 13.675781 -57.039062 17.84375 -59.5625 C 22.019531 -62.082031 26.851562 -63.34375 32.34375 -63.34375 C 37.832031 -63.34375 42.660156 -62.082031 46.828125 -59.5625 C 51.003906 -57.039062 54.265625 -53.382812 56.609375 -48.59375 C 58.960938 -43.800781 60.140625 -38.046875 60.140625 -31.328125 C 60.140625 -25.671875 59.300781 -20.671875 57.625 -16.328125 C 55.945312 -11.992188 53.582031 -8.410156 50.53125 -5.578125 C 47.476562 -2.753906 43.878906 -0.8125 39.734375 0.25 C 41.191406 2.601562 43.207031 4.296875 45.78125 5.328125 C 48.351562 6.367188 51.039062 6.890625 53.84375 6.890625 C 55.1875 6.890625 56.429688 6.789062 57.578125 6.59375 C 58.722656 6.394531 59.742188 6.15625 60.640625 5.875 Z M 60.640625 5.875 "/></g></g></g><g fill="#000000" fill-opacity="1"><g transform="translate(322.786548, 289.808509)"><g><path d="M 20.578125 1.171875 C 15.535156 1.171875 11.863281 -0.488281 9.5625 -3.8125 C 7.269531 -7.144531 6.125 -11.753906 6.125 -17.640625 L 6.125 -47.046875 L 18.484375 -47.046875 L 18.484375 -19.234375 C 18.484375 -15.597656 19.015625 -13.050781 20.078125 -11.59375 C 21.140625 -10.132812 22.789062 -9.40625 25.03125 -9.40625 C 26.988281 -9.40625 28.679688 -9.867188 30.109375 -10.796875 C 31.535156 -11.722656 33.035156 -13.21875 34.609375 -15.28125 L 34.609375 -47.046875 L 46.953125 -47.046875 L 46.953125 0 L 36.875 0 L 35.953125 -6.71875 L 35.609375 -6.71875 C 33.597656 -4.3125 31.398438 -2.394531 29.015625 -0.96875 C 26.640625 0.457031 23.828125 1.171875 20.578125 1.171875 Z M 20.578125 1.171875 "/></g></g></g><g fill="#000000" fill-opacity="1"><g transform="translate(376.287137, 289.808509)"><g><path d="M 6.640625 0 L 6.640625 -47.046875 L 18.90625 -47.046875 L 18.90625 0 Z M 12.859375 -54.59375 C 10.722656 -54.59375 8.953125 -55.238281 7.546875 -56.53125 C 6.148438 -57.820312 5.453125 -59.414062 5.453125 -61.3125 C 5.453125 -63.332031 6.148438 -64.957031 7.546875 -66.1875 C 8.953125 -67.425781 10.722656 -68.046875 12.859375 -68.046875 C 14.984375 -68.046875 16.726562 -67.425781 18.09375 -66.1875 C 19.46875 -64.957031 20.15625 -63.332031 20.15625 -61.3125 C 20.15625 -59.414062 19.46875 -57.820312 18.09375 -56.53125 C 16.726562 -55.238281 14.984375 -54.59375 12.859375 -54.59375 Z M 12.859375 -54.59375 "/></g></g></g><g fill="#000000" fill-opacity="1"><g transform="translate(401.819603, 289.808509)"><g><path d="M 3.4375 0 L 3.4375 -6.640625 L 24.4375 -37.296875 L 5.796875 -37.296875 L 5.796875 -47.046875 L 39.90625 -47.046875 L 39.90625 -40.40625 L 18.8125 -9.75 L 40.578125 -9.75 L 40.578125 0 Z M 3.4375 0 "/></g></g></g><g clip-path="url(#9a5f386381)"><g clip-path="url(#4254842154)"><path stroke-linecap="butt" transform="matrix(0.75, 0, 0, 0.75, 148.456548, 148.580725)" fill="none" stroke-linejoin="miter" d="M 425.51629 0.00174199 C 488.46421 3.616325 538.391295 53.543411 541.287129 115.767373 L 541.287129 189.97571 C 538.391295 251.475713 488.46421 301.402798 426.964207 301.402798 L 156.28711 301.402798 C 139.646484 320.939258 121.557942 338.303842 100.573566 352.777801 L 86.828773 360.736135 C 79.58919 360.736135 78.146481 356.392384 80.313148 349.158009 C 85.380857 333.241342 84.656898 316.595507 78.87044 301.402798 L 76.698564 294.892381 C 32.557937 280.418422 0.724602 238.454879 0.000644046 189.97571 L 0.000644046 115.048623 C 0.000644046 53.543411 50.651688 3.616325 115.771483 0.00174199 L 426.964207 0.00174199 Z M 425.51629 0.00174199 " stroke="#000000" stroke-width="40" stroke-opacity="1" stroke-miterlimit="4"/></g></g><g clip-path="url(#2d51313197)"><path stroke-linecap="butt" transform="matrix(0.75, 0, 0, 0.75, 447.031301, 458.728918)" fill="none" stroke-linejoin="miter" d="M -0.0000678196 0.00206814 L 97.578068 0.00206814 L 97.578068 197.996882 L -0.0000678196 197.996882 Z M -0.0000678196 0.00206814 " stroke="#000000" stroke-width="42" stroke-opacity="1" stroke-miterlimit="4"/></g><g clip-path="url(#471009133a)"><g clip-path="url(#dc161d3cd7)"><g transform="matrix(1, 0, 0, 1, 375, 313)"><g clip-path="url(#b3d234d1d1)"><g clip-path="url(#b036757006)"><g clip-path="url(#8c9e2059e1)"><path fill="#ffffff" d="M 0 0.515625 L 211.246094 0.515625 L 211.246094 211.765625 L 0 211.765625 Z M 0 0.515625 " fill-opacity="1" fill-rule="nonzero"/></g></g></g></g></g></g><g clip-path="url(#17ab4d0031)"><g clip-path="url(#dd4d4429c2)"><path stroke-linecap="butt" transform="matrix(0.75, 0, 0, 0.75, 374.999984, 313.517554)" fill="none" stroke-linejoin="miter" d="M 140.828153 -0.00257136 C 63.052107 -0.00257136 0.0000208333 63.049515 0.0000208333 140.825561 C 0.0000208333 218.606814 63.052107 281.653692 140.828153 281.653692 C 218.604198 281.653692 281.656285 218.606814 281.656285 140.825561 C 281.656285 63.049515 218.604198 -0.00257136 140.828153 -0.00257136 Z M 140.828153 -0.00257136 " stroke="#000000" stroke-width="42" stroke-opacity="1" stroke-miterlimit="4"/></g></g><g clip-path="url(#f928cee506)"><g clip-path="url(#b11bdd2dd1)"><path stroke-linecap="butt" transform="matrix(0.75, 0, 0, 0.75, 414.78711, 353.30467)" fill="none" stroke-linejoin="miter" d="M 87.778649 0.000023357 C 39.29948 0.000023357 0.00260275 39.302109 0.00260275 87.781278 C 0.00260275 136.260447 39.29948 175.562532 87.778649 175.562532 C 136.263026 175.562532 175.559903 136.260447 175.559903 87.781278 C 175.559903 39.302109 136.263026 0.000023357 87.778649 0.000023357 Z M 87.778649 0.000023357 " stroke="#ff3131" stroke-width="70" stroke-opacity="1" stroke-miterlimit="4"/></g></g></svg>