<svg xmlns="http://www.w3.org/2000/svg" xmlns:xlink="http://www.w3.org/1999/xlink" width="1000" zoomAndPan="magnify" viewBox="0 0 750 749.999995" height="1000" preserveAspectRatio="xMidYMid meet" version="1.0"><defs><g/><clipPath id="0e5f28f40a"><path d="M 42.648438 34.953125 L 713.726562 34.953125 L 713.726562 675 L 42.648438 675 Z M 42.648438 34.953125 " clip-rule="nonzero"/></clipPath><clipPath id="a821f891bf"><path d="M 0.648438 0.953125 L 671 0.953125 L 671 641 L 0.648438 641 Z M 0.648438 0.953125 " clip-rule="nonzero"/></clipPath><clipPath id="bf0d3c0bab"><rect x="0" width="672" y="0" height="641"/></clipPath><clipPath id="fbc64bdb93"><path d="M 444.992188 95.667969 L 640.519531 95.667969 L 640.519531 291.195312 L 444.992188 291.195312 Z M 444.992188 95.667969 " clip-rule="nonzero"/></clipPath><clipPath id="d6da51dc79"><path d="M 542.757812 95.667969 C 488.761719 95.667969 444.992188 139.4375 444.992188 193.429688 C 444.992188 247.421875 488.761719 291.195312 542.757812 291.195312 C 596.75 291.195312 640.519531 247.421875 640.519531 193.429688 C 640.519531 139.4375 596.75 95.667969 542.757812 95.667969 Z M 542.757812 95.667969 " clip-rule="nonzero"/></clipPath><clipPath id="d856902e98"><path d="M 0.992188 0.667969 L 196.519531 0.667969 L 196.519531 196.195312 L 0.992188 196.195312 Z M 0.992188 0.667969 " clip-rule="nonzero"/></clipPath><clipPath id="ae9047c84c"><path d="M 98.757812 0.667969 C 44.761719 0.667969 0.992188 44.4375 0.992188 98.429688 C 0.992188 152.421875 44.761719 196.195312 98.757812 196.195312 C 152.75 196.195312 196.519531 152.421875 196.519531 98.429688 C 196.519531 44.4375 152.75 0.667969 98.757812 0.667969 Z M 98.757812 0.667969 " clip-rule="nonzero"/></clipPath><clipPath id="663edea384"><rect x="0" width="197" y="0" height="197"/></clipPath><clipPath id="b13a44cf85"><path d="M 542 105 L 614 105 L 614 177 L 542 177 Z M 542 105 " clip-rule="nonzero"/></clipPath><clipPath id="1dbf625774"><path d="M 529.117188 130.710938 L 568.144531 91.6875 L 627.441406 150.984375 L 588.417969 190.011719 Z M 529.117188 130.710938 " clip-rule="nonzero"/></clipPath><clipPath id="c0586e40d3"><path d="M 548.628906 111.199219 C 537.855469 121.976562 542.363281 143.957031 558.699219 160.292969 C 575.039062 176.632812 597.019531 181.140625 607.796875 170.363281 C 618.570312 159.585938 614.0625 137.605469 597.726562 121.269531 C 581.386719 104.929688 559.40625 100.421875 548.628906 111.199219 Z M 548.628906 111.199219 " clip-rule="nonzero"/></clipPath><clipPath id="b18ed30ea2"><path d="M 0 0 L 72 0 L 72 72 L 0 72 Z M 0 0 " clip-rule="nonzero"/></clipPath><clipPath id="5e99d77e4e"><path d="M -12.882812 25.710938 L 26.144531 -13.3125 L 85.441406 45.984375 L 46.417969 85.011719 Z M -12.882812 25.710938 " clip-rule="nonzero"/></clipPath><clipPath id="74dd7a95dc"><path d="M 6.628906 6.199219 C -4.144531 16.976562 0.363281 38.957031 16.699219 55.292969 C 33.039062 71.632812 55.019531 76.140625 65.796875 65.363281 C 76.570312 54.585938 72.0625 32.605469 55.726562 16.269531 C 39.386719 -0.0703125 17.40625 -4.578125 6.628906 6.199219 Z M 6.628906 6.199219 " clip-rule="nonzero"/></clipPath><clipPath id="ba8642c024"><rect x="0" width="72" y="0" height="72"/></clipPath><clipPath id="323f9bcf00"><path d="M 42.648438 415.574219 L 714 415.574219 L 714 676.652344 L 42.648438 676.652344 Z M 42.648438 415.574219 " clip-rule="nonzero"/></clipPath><clipPath id="caa53f9c33"><path d="M 713.726562 676.652344 C 713.726562 534.449219 560.953125 415.574219 378.1875 415.574219 C 195.425781 415.574219 42.648438 534.449219 42.648438 676.652344 Z M 713.726562 676.652344 " clip-rule="nonzero"/></clipPath><clipPath id="47098b1678"><path d="M 0.648438 0.574219 L 671.761719 0.574219 L 671.761719 261.652344 L 0.648438 261.652344 Z M 0.648438 0.574219 " clip-rule="nonzero"/></clipPath><clipPath id="a1f6d4598c"><path d="M 671.726562 261.652344 C 671.726562 119.449219 518.953125 0.574219 336.1875 0.574219 C 153.425781 0.574219 0.648438 119.449219 0.648438 261.652344 Z M 671.726562 261.652344 " clip-rule="nonzero"/></clipPath><clipPath id="dba10bae74"><rect x="0" width="672" y="0" height="262"/></clipPath><clipPath id="c80c91bc0b"><path d="M 596 179 L 632 179 L 632 234 L 596 234 Z M 596 179 " clip-rule="nonzero"/></clipPath><clipPath id="f723c0b15a"><path d="M 593.464844 181.785156 L 628.679688 177.921875 L 634.546875 231.429688 L 599.332031 235.292969 Z M 593.464844 181.785156 " clip-rule="nonzero"/></clipPath><clipPath id="f82e086f0a"><path d="M 611.074219 179.851562 C 601.347656 180.917969 594.777344 193.734375 596.394531 208.476562 C 598.007812 223.21875 607.203125 234.308594 616.925781 233.242188 C 626.652344 232.175781 633.222656 219.359375 631.605469 204.617188 C 629.992188 189.875 620.796875 178.785156 611.074219 179.851562 Z M 611.074219 179.851562 " clip-rule="nonzero"/></clipPath><clipPath id="4e8dc3555c"><path d="M 0 0 L 36 0 L 36 55 L 0 55 Z M 0 0 " clip-rule="nonzero"/></clipPath><clipPath id="f92f83394a"><path d="M -2.535156 2.785156 L 32.679688 -1.078125 L 38.546875 52.429688 L 3.332031 56.292969 Z M -2.535156 2.785156 " clip-rule="nonzero"/></clipPath><clipPath id="e4f2d3b1e9"><path d="M 15.074219 0.851562 C 5.347656 1.917969 -1.222656 14.734375 0.394531 29.476562 C 2.007812 44.21875 11.203125 55.308594 20.925781 54.242188 C 30.652344 53.175781 37.222656 40.359375 35.605469 25.617188 C 33.992188 10.875 24.796875 -0.214844 15.074219 0.851562 Z M 15.074219 0.851562 " clip-rule="nonzero"/></clipPath><clipPath id="1b48aac44e"><rect x="0" width="36" y="0" height="55"/></clipPath><clipPath id="b7f82c9895"><path d="M 539.527344 354.976562 L 556.015625 354.976562 L 556.015625 371.464844 L 539.527344 371.464844 Z M 539.527344 354.976562 " clip-rule="nonzero"/></clipPath><clipPath id="1f1a460fcf"><path d="M 547.773438 354.976562 C 543.21875 354.976562 539.527344 358.667969 539.527344 363.21875 C 539.527344 367.773438 543.21875 371.464844 547.773438 371.464844 C 552.324219 371.464844 556.015625 367.773438 556.015625 363.21875 C 556.015625 358.667969 552.324219 354.976562 547.773438 354.976562 Z M 547.773438 354.976562 " clip-rule="nonzero"/></clipPath><clipPath id="3fc4dcdf4b"><path d="M 0.527344 0.976562 L 17.015625 0.976562 L 17.015625 17.464844 L 0.527344 17.464844 Z M 0.527344 0.976562 " clip-rule="nonzero"/></clipPath><clipPath id="2a39899226"><path d="M 8.773438 0.976562 C 4.21875 0.976562 0.527344 4.667969 0.527344 9.21875 C 0.527344 13.773438 4.21875 17.464844 8.773438 17.464844 C 13.324219 17.464844 17.015625 13.773438 17.015625 9.21875 C 17.015625 4.667969 13.324219 0.976562 8.773438 0.976562 Z M 8.773438 0.976562 " clip-rule="nonzero"/></clipPath><clipPath id="8b61205aa1"><rect x="0" width="18" y="0" height="18"/></clipPath><clipPath id="8fb88badb0"><path d="M 112.5 189.878906 L 137.027344 189.878906 L 137.027344 214.40625 L 112.5 214.40625 Z M 112.5 189.878906 " clip-rule="nonzero"/></clipPath><clipPath id="9d2215b71e"><path d="M 124.761719 189.878906 C 117.992188 189.878906 112.5 195.371094 112.5 202.144531 C 112.5 208.917969 117.992188 214.40625 124.761719 214.40625 C 131.535156 214.40625 137.027344 208.917969 137.027344 202.144531 C 137.027344 195.371094 131.535156 189.878906 124.761719 189.878906 Z M 124.761719 189.878906 " clip-rule="nonzero"/></clipPath><clipPath id="f59ff109c3"><path d="M 0.5 0.878906 L 25.027344 0.878906 L 25.027344 25.40625 L 0.5 25.40625 Z M 0.5 0.878906 " clip-rule="nonzero"/></clipPath><clipPath id="4c6b7d0822"><path d="M 12.761719 0.878906 C 5.992188 0.878906 0.5 6.371094 0.5 13.144531 C 0.5 19.917969 5.992188 25.40625 12.761719 25.40625 C 19.535156 25.40625 25.027344 19.917969 25.027344 13.144531 C 25.027344 6.371094 19.535156 0.878906 12.761719 0.878906 Z M 12.761719 0.878906 " clip-rule="nonzero"/></clipPath><clipPath id="0598ffb589"><rect x="0" width="26" y="0" height="26"/></clipPath><clipPath id="802707caec"><path d="M 271.230469 104.890625 L 289.175781 104.890625 L 289.175781 122.839844 L 271.230469 122.839844 Z M 271.230469 104.890625 " clip-rule="nonzero"/></clipPath><clipPath id="b18aef8e70"><path d="M 280.203125 104.890625 C 275.246094 104.890625 271.230469 108.910156 271.230469 113.867188 C 271.230469 118.820312 275.246094 122.839844 280.203125 122.839844 C 285.15625 122.839844 289.175781 118.820312 289.175781 113.867188 C 289.175781 108.910156 285.15625 104.890625 280.203125 104.890625 Z M 280.203125 104.890625 " clip-rule="nonzero"/></clipPath><clipPath id="c1bb4271a6"><path d="M 0.230469 0.890625 L 18.175781 0.890625 L 18.175781 18.839844 L 0.230469 18.839844 Z M 0.230469 0.890625 " clip-rule="nonzero"/></clipPath><clipPath id="bf5dfaeafd"><path d="M 9.203125 0.890625 C 4.246094 0.890625 0.230469 4.910156 0.230469 9.867188 C 0.230469 14.820312 4.246094 18.839844 9.203125 18.839844 C 14.15625 18.839844 18.175781 14.820312 18.175781 9.867188 C 18.175781 4.910156 14.15625 0.890625 9.203125 0.890625 Z M 9.203125 0.890625 " clip-rule="nonzero"/></clipPath><clipPath id="a93a9b83a8"><rect x="0" width="19" y="0" height="19"/></clipPath><clipPath id="3599c419cd"><path d="M 212.507812 249.519531 L 233.972656 249.519531 L 233.972656 270.984375 L 212.507812 270.984375 Z M 212.507812 249.519531 " clip-rule="nonzero"/></clipPath><clipPath id="48de901233"><path d="M 223.238281 249.519531 C 217.3125 249.519531 212.507812 254.324219 212.507812 260.253906 C 212.507812 266.179688 217.3125 270.984375 223.238281 270.984375 C 229.167969 270.984375 233.972656 266.179688 233.972656 260.253906 C 233.972656 254.324219 229.167969 249.519531 223.238281 249.519531 Z M 223.238281 249.519531 " clip-rule="nonzero"/></clipPath><clipPath id="0de00b9548"><path d="M 0.507812 0.519531 L 21.972656 0.519531 L 21.972656 21.984375 L 0.507812 21.984375 Z M 0.507812 0.519531 " clip-rule="nonzero"/></clipPath><clipPath id="111c368e61"><path d="M 11.238281 0.519531 C 5.3125 0.519531 0.507812 5.324219 0.507812 11.253906 C 0.507812 17.179688 5.3125 21.984375 11.238281 21.984375 C 17.167969 21.984375 21.972656 17.179688 21.972656 11.253906 C 21.972656 5.324219 17.167969 0.519531 11.238281 0.519531 Z M 11.238281 0.519531 " clip-rule="nonzero"/></clipPath><clipPath id="2eca0ee647"><rect x="0" width="22" y="0" height="22"/></clipPath><clipPath id="0d2c225c2f"><path d="M 284.984375 202.144531 L 304.339844 202.144531 L 304.339844 221.5 L 284.984375 221.5 Z M 284.984375 202.144531 " clip-rule="nonzero"/></clipPath><clipPath id="cd3f974ad8"><path d="M 294.664062 202.144531 C 289.316406 202.144531 284.984375 206.476562 284.984375 211.820312 C 284.984375 217.167969 289.316406 221.5 294.664062 221.5 C 300.007812 221.5 304.339844 217.167969 304.339844 211.820312 C 304.339844 206.476562 300.007812 202.144531 294.664062 202.144531 Z M 294.664062 202.144531 " clip-rule="nonzero"/></clipPath><clipPath id="ba3dcc8df0"><path d="M 0.984375 0.144531 L 20.339844 0.144531 L 20.339844 19.5 L 0.984375 19.5 Z M 0.984375 0.144531 " clip-rule="nonzero"/></clipPath><clipPath id="9f1d77b097"><path d="M 10.664062 0.144531 C 5.316406 0.144531 0.984375 4.476562 0.984375 9.820312 C 0.984375 15.167969 5.316406 19.5 10.664062 19.5 C 16.007812 19.5 20.339844 15.167969 20.339844 9.820312 C 20.339844 4.476562 16.007812 0.144531 10.664062 0.144531 Z M 10.664062 0.144531 " clip-rule="nonzero"/></clipPath><clipPath id="bda70ec6d9"><rect x="0" width="21" y="0" height="20"/></clipPath><clipPath id="f7703356e8"><path d="M 244.84375 228.753906 L 265.609375 228.753906 L 265.609375 249.519531 L 244.84375 249.519531 Z M 244.84375 228.753906 " clip-rule="nonzero"/></clipPath><clipPath id="8ed6d1c1cc"><path d="M 255.226562 228.753906 C 249.492188 228.753906 244.84375 233.402344 244.84375 239.136719 C 244.84375 244.871094 249.492188 249.519531 255.226562 249.519531 C 260.960938 249.519531 265.609375 244.871094 265.609375 239.136719 C 265.609375 233.402344 260.960938 228.753906 255.226562 228.753906 Z M 255.226562 228.753906 " clip-rule="nonzero"/></clipPath><clipPath id="67449197f5"><path d="M 0.84375 0.753906 L 21.609375 0.753906 L 21.609375 21.519531 L 0.84375 21.519531 Z M 0.84375 0.753906 " clip-rule="nonzero"/></clipPath><clipPath id="2786c18b4b"><path d="M 11.226562 0.753906 C 5.492188 0.753906 0.84375 5.402344 0.84375 11.136719 C 0.84375 16.871094 5.492188 21.519531 11.226562 21.519531 C 16.960938 21.519531 21.609375 16.871094 21.609375 11.136719 C 21.609375 5.402344 16.960938 0.753906 11.226562 0.753906 Z M 11.226562 0.753906 " clip-rule="nonzero"/></clipPath><clipPath id="655e574b3c"><rect x="0" width="22" y="0" height="22"/></clipPath><clipPath id="2a1f3c17a9"><path d="M 183.492188 364.265625 L 207.050781 364.265625 L 207.050781 387.824219 L 183.492188 387.824219 Z M 183.492188 364.265625 " clip-rule="nonzero"/></clipPath><clipPath id="cba1b1ce56"><path d="M 195.269531 364.265625 C 188.765625 364.265625 183.492188 369.539062 183.492188 376.046875 C 183.492188 382.550781 188.765625 387.824219 195.269531 387.824219 C 201.777344 387.824219 207.050781 382.550781 207.050781 376.046875 C 207.050781 369.539062 201.777344 364.265625 195.269531 364.265625 Z M 195.269531 364.265625 " clip-rule="nonzero"/></clipPath><clipPath id="d7fac13ca9"><path d="M 0.492188 0.265625 L 24.050781 0.265625 L 24.050781 23.824219 L 0.492188 23.824219 Z M 0.492188 0.265625 " clip-rule="nonzero"/></clipPath><clipPath id="940a26f526"><path d="M 12.269531 0.265625 C 5.765625 0.265625 0.492188 5.539062 0.492188 12.046875 C 0.492188 18.550781 5.765625 23.824219 12.269531 23.824219 C 18.777344 23.824219 24.050781 18.550781 24.050781 12.046875 C 24.050781 5.539062 18.777344 0.265625 12.269531 0.265625 Z M 12.269531 0.265625 " clip-rule="nonzero"/></clipPath><clipPath id="0f584f4ea5"><rect x="0" width="25" y="0" height="24"/></clipPath><clipPath id="e14db47d79"><path d="M 368.511719 291.195312 L 387.867188 291.195312 L 387.867188 310.550781 L 368.511719 310.550781 Z M 368.511719 291.195312 " clip-rule="nonzero"/></clipPath><clipPath id="005dfd084e"><path d="M 378.1875 291.195312 C 372.84375 291.195312 368.511719 295.527344 368.511719 300.871094 C 368.511719 306.214844 372.84375 310.550781 378.1875 310.550781 C 383.53125 310.550781 387.867188 306.214844 387.867188 300.871094 C 387.867188 295.527344 383.53125 291.195312 378.1875 291.195312 Z M 378.1875 291.195312 " clip-rule="nonzero"/></clipPath><clipPath id="116a901492"><path d="M 0.511719 0.195312 L 19.867188 0.195312 L 19.867188 19.550781 L 0.511719 19.550781 Z M 0.511719 0.195312 " clip-rule="nonzero"/></clipPath><clipPath id="64eeb0273c"><path d="M 10.1875 0.195312 C 4.84375 0.195312 0.511719 4.527344 0.511719 9.871094 C 0.511719 15.214844 4.84375 19.550781 10.1875 19.550781 C 15.53125 19.550781 19.867188 15.214844 19.867188 9.871094 C 19.867188 4.527344 15.53125 0.195312 10.1875 0.195312 Z M 10.1875 0.195312 " clip-rule="nonzero"/></clipPath><clipPath id="2e8f7e5027"><rect x="0" width="20" y="0" height="20"/></clipPath><clipPath id="5df95f695d"><path d="M 597.511719 425.359375 L 620.503906 425.359375 L 620.503906 448.351562 L 597.511719 448.351562 Z M 597.511719 425.359375 " clip-rule="nonzero"/></clipPath><clipPath id="6c8abf4fec"><path d="M 609.007812 425.359375 C 602.660156 425.359375 597.511719 430.507812 597.511719 436.855469 C 597.511719 443.203125 602.660156 448.351562 609.007812 448.351562 C 615.355469 448.351562 620.503906 443.203125 620.503906 436.855469 C 620.503906 430.507812 615.355469 425.359375 609.007812 425.359375 Z M 609.007812 425.359375 " clip-rule="nonzero"/></clipPath><clipPath id="9073fe2e9f"><path d="M 0.511719 0.359375 L 23.503906 0.359375 L 23.503906 23.351562 L 0.511719 23.351562 Z M 0.511719 0.359375 " clip-rule="nonzero"/></clipPath><clipPath id="02d942b386"><path d="M 12.007812 0.359375 C 5.660156 0.359375 0.511719 5.507812 0.511719 11.855469 C 0.511719 18.203125 5.660156 23.351562 12.007812 23.351562 C 18.355469 23.351562 23.503906 18.203125 23.503906 11.855469 C 23.503906 5.507812 18.355469 0.359375 12.007812 0.359375 Z M 12.007812 0.359375 " clip-rule="nonzero"/></clipPath><clipPath id="0338542fea"><rect x="0" width="24" y="0" height="24"/></clipPath><clipPath id="b3a16443ac"><path d="M 75 407.136719 L 87.6875 407.136719 L 87.6875 419.828125 L 75 419.828125 Z M 75 407.136719 " clip-rule="nonzero"/></clipPath><clipPath id="b78a431175"><path d="M 81.34375 407.136719 C 77.839844 407.136719 75 409.976562 75 413.480469 C 75 416.984375 77.839844 419.828125 81.34375 419.828125 C 84.847656 419.828125 87.6875 416.984375 87.6875 413.480469 C 87.6875 409.976562 84.847656 407.136719 81.34375 407.136719 Z M 81.34375 407.136719 " clip-rule="nonzero"/></clipPath><clipPath id="5793780691"><path d="M 0 0.136719 L 12.6875 0.136719 L 12.6875 12.828125 L 0 12.828125 Z M 0 0.136719 " clip-rule="nonzero"/></clipPath><clipPath id="d3d9323c8a"><path d="M 6.34375 0.136719 C 2.839844 0.136719 0 2.976562 0 6.480469 C 0 9.984375 2.839844 12.828125 6.34375 12.828125 C 9.847656 12.828125 12.6875 9.984375 12.6875 6.480469 C 12.6875 2.976562 9.847656 0.136719 6.34375 0.136719 Z M 6.34375 0.136719 " clip-rule="nonzero"/></clipPath><clipPath id="6364beea3d"><rect x="0" width="13" y="0" height="13"/></clipPath></defs><rect x="-75" width="900" fill="#ffffff" y="-74.999999" height="899.999994" fill-opacity="1"/><rect x="-75" width="900" fill="#ffffff" y="-74.999999" height="899.999994" fill-opacity="1"/><g clip-path="url(#0e5f28f40a)"><g transform="matrix(1, 0, 0, 1, 42, 34)"><g clip-path="url(#bf0d3c0bab)"><g clip-path="url(#a821f891bf)"><path fill="#0e1964" d="M 0.648438 0.953125 L 670.699219 0.953125 L 670.699219 641 L 0.648438 641 Z M 0.648438 0.953125 " fill-opacity="1" fill-rule="nonzero"/></g></g></g></g><g clip-path="url(#fbc64bdb93)"><g clip-path="url(#d6da51dc79)"><g transform="matrix(1, 0, 0, 1, 444, 95)"><g clip-path="url(#663edea384)"><g clip-path="url(#d856902e98)"><g clip-path="url(#ae9047c84c)"><path fill="#ffde59" d="M 0.992188 0.667969 L 196.519531 0.667969 L 196.519531 196.195312 L 0.992188 196.195312 Z M 0.992188 0.667969 " fill-opacity="1" fill-rule="nonzero"/></g></g></g></g></g></g><g clip-path="url(#b13a44cf85)"><g clip-path="url(#1dbf625774)"><g clip-path="url(#c0586e40d3)"><g transform="matrix(1, 0, 0, 1, 542, 105)"><g clip-path="url(#ba8642c024)"><g clip-path="url(#b18ed30ea2)"><g clip-path="url(#5e99d77e4e)"><g clip-path="url(#74dd7a95dc)"><path fill="#f4d65d" d="M -12.882812 25.710938 L 26.144531 -13.3125 L 85.289062 45.832031 L 46.265625 84.859375 Z M -12.882812 25.710938 " fill-opacity="1" fill-rule="nonzero"/></g></g></g></g></g></g></g></g><g clip-path="url(#323f9bcf00)"><g clip-path="url(#caa53f9c33)"><g transform="matrix(1, 0, 0, 1, 42, 415)"><g clip-path="url(#dba10bae74)"><g clip-path="url(#47098b1678)"><g clip-path="url(#a1f6d4598c)"><path fill="#0cc0df" d="M 0.648438 0.574219 L 671.703125 0.574219 L 671.703125 261.652344 L 0.648438 261.652344 Z M 0.648438 0.574219 " fill-opacity="1" fill-rule="nonzero"/></g></g></g></g></g></g><g fill="#000000" fill-opacity="1"><g transform="translate(42.832032, 76.403922)"><g><path d="M 3.328125 -7.421875 L 3.328125 -3.234375 C 3.597656 -3.359375 3.867188 -3.476562 4.140625 -3.59375 C 4.410156 -3.707031 4.6875 -3.820312 4.96875 -3.9375 L 5.15625 -3.109375 C 4.414062 -2.765625 3.671875 -2.425781 2.921875 -2.09375 C 2.171875 -1.769531 1.492188 -1.472656 0.890625 -1.203125 L 0.53125 -2.125 C 0.800781 -2.21875 1.097656 -2.328125 1.421875 -2.453125 C 1.742188 -2.585938 2.085938 -2.734375 2.453125 -2.890625 L 2.453125 -7.421875 L 0.640625 -7.421875 L 0.640625 -8.296875 L 2.453125 -8.296875 L 2.453125 -11.484375 L 3.328125 -11.484375 L 3.328125 -8.296875 L 5 -8.296875 L 5 -7.421875 Z M 8 -0.109375 L 11.46875 -0.109375 C 11.75 -0.109375 11.957031 -0.160156 12.09375 -0.265625 C 12.238281 -0.378906 12.335938 -0.582031 12.390625 -0.875 C 12.453125 -1.164062 12.5 -1.582031 12.53125 -2.125 C 12.644531 -2.039062 12.78125 -1.960938 12.9375 -1.890625 C 13.09375 -1.828125 13.234375 -1.78125 13.359375 -1.75 C 13.316406 -1.132812 13.238281 -0.644531 13.125 -0.28125 C 13.019531 0.0820312 12.835938 0.335938 12.578125 0.484375 C 12.328125 0.640625 11.96875 0.71875 11.5 0.71875 L 7.984375 0.71875 C 7.472656 0.71875 7.070312 0.671875 6.78125 0.578125 C 6.5 0.484375 6.296875 0.304688 6.171875 0.046875 C 6.054688 -0.203125 6 -0.566406 6 -1.046875 L 6 -5.59375 L 4.84375 -5.09375 L 4.46875 -5.890625 L 6 -6.53125 L 6 -10.375 L 6.890625 -10.375 L 6.890625 -6.90625 L 8.890625 -7.765625 L 8.890625 -11.65625 L 9.765625 -11.65625 L 9.765625 -8.125 L 11.75 -8.96875 L 11.953125 -9.140625 L 12.125 -9.296875 L 12.78125 -9.03125 L 12.734375 -8.84375 C 12.734375 -7.976562 12.726562 -7.179688 12.71875 -6.453125 C 12.71875 -5.722656 12.703125 -5.101562 12.671875 -4.59375 C 12.648438 -4.09375 12.617188 -3.753906 12.578125 -3.578125 C 12.546875 -3.296875 12.460938 -3.09375 12.328125 -2.96875 C 12.203125 -2.84375 12.035156 -2.753906 11.828125 -2.703125 C 11.648438 -2.660156 11.4375 -2.632812 11.1875 -2.625 C 10.945312 -2.625 10.734375 -2.625 10.546875 -2.625 C 10.523438 -2.75 10.492188 -2.890625 10.453125 -3.046875 C 10.421875 -3.203125 10.378906 -3.328125 10.328125 -3.421875 C 10.503906 -3.421875 10.691406 -3.414062 10.890625 -3.40625 C 11.085938 -3.40625 11.222656 -3.40625 11.296875 -3.40625 C 11.398438 -3.40625 11.488281 -3.425781 11.5625 -3.46875 C 11.632812 -3.519531 11.691406 -3.628906 11.734375 -3.796875 C 11.785156 -3.972656 11.816406 -4.445312 11.828125 -5.21875 C 11.835938 -5.988281 11.84375 -6.9375 11.84375 -8.0625 L 9.765625 -7.171875 L 9.765625 -2.015625 L 8.890625 -2.015625 L 8.890625 -6.8125 L 6.890625 -5.96875 L 6.890625 -1.046875 C 6.890625 -0.671875 6.957031 -0.421875 7.09375 -0.296875 C 7.226562 -0.171875 7.53125 -0.109375 8 -0.109375 Z M 8 -0.109375 "/></g></g></g><g fill="#000000" fill-opacity="1"><g transform="translate(56.765568, 76.403922)"><g><path d="M 2.0625 -8.484375 L 2.0625 -6.28125 L 1.1875 -6.28125 L 1.1875 -9.328125 L 3.359375 -9.328125 C 3.222656 -9.597656 3.039062 -9.894531 2.8125 -10.21875 C 2.59375 -10.550781 2.367188 -10.847656 2.140625 -11.109375 L 2.90625 -11.46875 C 3.175781 -11.175781 3.4375 -10.847656 3.6875 -10.484375 C 3.945312 -10.128906 4.140625 -9.816406 4.265625 -9.546875 L 3.828125 -9.328125 L 6.78125 -9.328125 C 6.6875 -9.617188 6.535156 -9.957031 6.328125 -10.34375 C 6.128906 -10.726562 5.925781 -11.082031 5.71875 -11.40625 L 6.515625 -11.703125 C 6.753906 -11.367188 6.976562 -11 7.1875 -10.59375 C 7.40625 -10.195312 7.5625 -9.847656 7.65625 -9.546875 L 7.078125 -9.328125 L 9.609375 -9.328125 C 9.867188 -9.648438 10.144531 -10.015625 10.4375 -10.421875 C 10.738281 -10.835938 10.976562 -11.210938 11.15625 -11.546875 L 12.09375 -11.21875 C 11.875 -10.90625 11.632812 -10.582031 11.375 -10.25 C 11.125 -9.914062 10.878906 -9.609375 10.640625 -9.328125 L 12.84375 -9.328125 L 12.84375 -6.28125 L 11.953125 -6.28125 L 11.953125 -8.484375 Z M 13.109375 -3.8125 L 13.109375 -2.953125 L 7.4375 -2.953125 L 7.4375 -0.09375 C 7.4375 0.1875 7.390625 0.40625 7.296875 0.5625 C 7.210938 0.71875 7.046875 0.832031 6.796875 0.90625 C 6.566406 0.96875 6.242188 1.007812 5.828125 1.03125 C 5.421875 1.050781 4.898438 1.0625 4.265625 1.0625 C 4.222656 0.925781 4.164062 0.769531 4.09375 0.59375 C 4.019531 0.425781 3.945312 0.285156 3.875 0.171875 C 4.425781 0.179688 4.910156 0.1875 5.328125 0.1875 C 5.753906 0.1875 6.03125 0.1875 6.15625 0.1875 C 6.3125 0.175781 6.410156 0.148438 6.453125 0.109375 C 6.492188 0.0664062 6.515625 0 6.515625 -0.09375 L 6.515625 -2.953125 L 0.890625 -2.953125 L 0.890625 -3.8125 L 6.515625 -3.8125 L 6.515625 -4.84375 L 7.015625 -4.84375 C 7.390625 -5.03125 7.757812 -5.234375 8.125 -5.453125 C 8.5 -5.679688 8.835938 -5.910156 9.140625 -6.140625 L 3.1875 -6.140625 L 3.1875 -6.984375 L 10.09375 -6.984375 L 10.28125 -7.03125 L 10.890625 -6.59375 C 10.453125 -6.144531 9.921875 -5.710938 9.296875 -5.296875 C 8.679688 -4.890625 8.0625 -4.539062 7.4375 -4.25 L 7.4375 -3.8125 Z M 13.109375 -3.8125 "/></g></g></g><g fill="#000000" fill-opacity="1"><g transform="translate(70.699104, 76.403922)"><g><path d="M 7.609375 -10.0625 L 7.609375 -9.25 L 1 -9.25 L 1 -10.0625 L 3.84375 -10.0625 L 3.84375 -11.59375 L 4.71875 -11.59375 L 4.71875 -10.0625 Z M 5.84375 -6.390625 L 5.09375 -6.59375 C 5.1875 -6.8125 5.285156 -7.066406 5.390625 -7.359375 C 5.492188 -7.648438 5.59375 -7.941406 5.6875 -8.234375 C 5.78125 -8.523438 5.851562 -8.785156 5.90625 -9.015625 L 6.78125 -8.796875 C 6.632812 -8.390625 6.476562 -7.96875 6.3125 -7.53125 C 6.15625 -7.09375 6 -6.710938 5.84375 -6.390625 Z M 3.296875 -6.640625 L 2.5 -6.453125 C 2.46875 -6.753906 2.394531 -7.117188 2.28125 -7.546875 C 2.164062 -7.972656 2.03125 -8.367188 1.875 -8.734375 L 2.640625 -8.90625 C 2.804688 -8.5625 2.945312 -8.175781 3.0625 -7.75 C 3.1875 -7.320312 3.265625 -6.953125 3.296875 -6.640625 Z M 6.109375 -3.296875 L 2.46875 -3.296875 L 2.46875 -0.59375 L 6.109375 -0.59375 Z M 1.59375 1.0625 L 1.59375 -4.125 L 7 -4.125 L 7 0.96875 L 6.109375 0.96875 L 6.109375 0.21875 L 2.46875 0.21875 L 2.46875 1.0625 Z M 0.640625 -5.390625 L 0.640625 -6.25 L 7.8125 -6.25 L 7.8125 -5.390625 Z M 12.6875 -10.859375 L 13.34375 -10.421875 C 13.050781 -9.773438 12.726562 -9.070312 12.375 -8.3125 C 12.03125 -7.5625 11.695312 -6.867188 11.375 -6.234375 C 12.09375 -5.578125 12.570312 -4.96875 12.8125 -4.40625 C 13.050781 -3.851562 13.175781 -3.328125 13.1875 -2.828125 C 13.1875 -2.421875 13.132812 -2.0625 13.03125 -1.75 C 12.925781 -1.445312 12.753906 -1.21875 12.515625 -1.0625 C 12.285156 -0.90625 11.984375 -0.800781 11.609375 -0.75 C 11.429688 -0.726562 11.234375 -0.71875 11.015625 -0.71875 C 10.796875 -0.71875 10.585938 -0.722656 10.390625 -0.734375 C 10.378906 -0.867188 10.351562 -1.019531 10.3125 -1.1875 C 10.269531 -1.363281 10.207031 -1.519531 10.125 -1.65625 C 10.34375 -1.632812 10.546875 -1.617188 10.734375 -1.609375 C 10.929688 -1.609375 11.109375 -1.613281 11.265625 -1.625 C 11.367188 -1.632812 11.472656 -1.648438 11.578125 -1.671875 C 11.691406 -1.703125 11.789062 -1.742188 11.875 -1.796875 C 12.03125 -1.878906 12.132812 -2.019531 12.1875 -2.21875 C 12.25 -2.425781 12.28125 -2.65625 12.28125 -2.90625 C 12.269531 -3.351562 12.132812 -3.84375 11.875 -4.375 C 11.625 -4.90625 11.128906 -5.484375 10.390625 -6.109375 C 10.710938 -6.710938 11.023438 -7.359375 11.328125 -8.046875 C 11.628906 -8.742188 11.890625 -9.378906 12.109375 -9.953125 L 9.296875 -9.953125 L 9.296875 1.046875 L 8.40625 1.046875 L 8.40625 -10.8125 L 12.53125 -10.8125 Z M 12.6875 -10.859375 "/></g></g></g><g fill="#000000" fill-opacity="1"><g transform="translate(84.63264, 76.403922)"><g><path d="M 2.703125 -3.390625 C 3.097656 -3.390625 3.453125 -3.296875 3.765625 -3.109375 C 4.085938 -2.921875 4.34375 -2.664062 4.53125 -2.34375 C 4.71875 -2.03125 4.8125 -1.679688 4.8125 -1.296875 C 4.8125 -0.898438 4.71875 -0.546875 4.53125 -0.234375 C 4.34375 0.078125 4.085938 0.328125 3.765625 0.515625 C 3.453125 0.710938 3.097656 0.8125 2.703125 0.8125 C 2.316406 0.8125 1.96875 0.710938 1.65625 0.515625 C 1.34375 0.328125 1.085938 0.078125 0.890625 -0.234375 C 0.703125 -0.546875 0.609375 -0.898438 0.609375 -1.296875 C 0.609375 -1.679688 0.703125 -2.03125 0.890625 -2.34375 C 1.085938 -2.664062 1.34375 -2.921875 1.65625 -3.109375 C 1.96875 -3.296875 2.316406 -3.390625 2.703125 -3.390625 Z M 2.703125 0.15625 C 3.109375 0.15625 3.453125 0.015625 3.734375 -0.265625 C 4.015625 -0.554688 4.15625 -0.898438 4.15625 -1.296875 C 4.15625 -1.679688 4.015625 -2.015625 3.734375 -2.296875 C 3.453125 -2.585938 3.109375 -2.734375 2.703125 -2.734375 C 2.316406 -2.734375 1.976562 -2.585938 1.6875 -2.296875 C 1.40625 -2.015625 1.265625 -1.679688 1.265625 -1.296875 C 1.265625 -0.898438 1.40625 -0.554688 1.6875 -0.265625 C 1.976562 0.015625 2.316406 0.15625 2.703125 0.15625 Z M 2.703125 0.15625 "/></g></g></g><g fill="#000000" fill-opacity="1"><g transform="translate(98.566176, 76.403922)"><g><path d="M 7.03125 -1.59375 C 7.03125 -1.71875 7.03125 -1.863281 7.03125 -2.03125 C 7.03125 -2.195312 7.03125 -2.375 7.03125 -2.5625 C 6.800781 -2.613281 6.570312 -2.648438 6.34375 -2.671875 C 6.125 -2.691406 5.894531 -2.703125 5.65625 -2.703125 C 4.96875 -2.703125 4.441406 -2.582031 4.078125 -2.34375 C 3.722656 -2.113281 3.546875 -1.835938 3.546875 -1.515625 C 3.546875 -1.191406 3.695312 -0.914062 4 -0.6875 C 4.300781 -0.46875 4.8125 -0.359375 5.53125 -0.359375 C 5.800781 -0.359375 6.050781 -0.390625 6.28125 -0.453125 C 6.507812 -0.523438 6.691406 -0.648438 6.828125 -0.828125 C 6.960938 -1.003906 7.03125 -1.257812 7.03125 -1.59375 Z M 11.984375 -1.078125 L 11.421875 -0.203125 C 11.015625 -0.578125 10.519531 -0.957031 9.9375 -1.34375 C 9.363281 -1.738281 8.71875 -2.054688 8 -2.296875 C 8.007812 -2.109375 8.015625 -1.9375 8.015625 -1.78125 C 8.023438 -1.632812 8.03125 -1.503906 8.03125 -1.390625 C 8.03125 -1.085938 7.953125 -0.785156 7.796875 -0.484375 C 7.648438 -0.191406 7.40625 0.046875 7.0625 0.234375 C 6.71875 0.429688 6.242188 0.53125 5.640625 0.53125 C 4.671875 0.53125 3.921875 0.359375 3.390625 0.015625 C 2.867188 -0.328125 2.609375 -0.828125 2.609375 -1.484375 C 2.609375 -2.085938 2.890625 -2.582031 3.453125 -2.96875 C 4.023438 -3.351562 4.800781 -3.546875 5.78125 -3.546875 C 6 -3.546875 6.207031 -3.535156 6.40625 -3.515625 C 6.601562 -3.503906 6.800781 -3.476562 7 -3.4375 C 6.988281 -3.769531 6.972656 -4.101562 6.953125 -4.4375 C 6.941406 -4.78125 6.929688 -5.097656 6.921875 -5.390625 C 6.796875 -5.390625 6.664062 -5.390625 6.53125 -5.390625 C 6.394531 -5.390625 6.257812 -5.390625 6.125 -5.390625 C 5.8125 -5.390625 5.445312 -5.398438 5.03125 -5.421875 C 4.613281 -5.441406 4.195312 -5.460938 3.78125 -5.484375 C 3.363281 -5.515625 2.984375 -5.550781 2.640625 -5.59375 L 2.640625 -6.53125 C 2.960938 -6.488281 3.332031 -6.445312 3.75 -6.40625 C 4.175781 -6.363281 4.601562 -6.332031 5.03125 -6.3125 C 5.457031 -6.289062 5.828125 -6.28125 6.140625 -6.28125 C 6.273438 -6.28125 6.40625 -6.28125 6.53125 -6.28125 C 6.65625 -6.28125 6.78125 -6.28125 6.90625 -6.28125 L 6.90625 -8.375 C 6.789062 -8.363281 6.675781 -8.359375 6.5625 -8.359375 C 6.445312 -8.359375 6.328125 -8.359375 6.203125 -8.359375 C 5.878906 -8.359375 5.507812 -8.367188 5.09375 -8.390625 C 4.6875 -8.410156 4.289062 -8.4375 3.90625 -8.46875 C 3.519531 -8.5 3.1875 -8.535156 2.90625 -8.578125 L 2.90625 -9.484375 C 3.1875 -9.441406 3.519531 -9.398438 3.90625 -9.359375 C 4.300781 -9.316406 4.703125 -9.285156 5.109375 -9.265625 C 5.523438 -9.242188 5.882812 -9.234375 6.1875 -9.234375 C 6.3125 -9.234375 6.429688 -9.234375 6.546875 -9.234375 C 6.671875 -9.234375 6.789062 -9.234375 6.90625 -9.234375 L 6.90625 -10.171875 C 6.90625 -10.296875 6.898438 -10.441406 6.890625 -10.609375 C 6.890625 -10.773438 6.878906 -10.898438 6.859375 -10.984375 L 7.921875 -10.984375 C 7.910156 -10.859375 7.894531 -10.726562 7.875 -10.59375 C 7.863281 -10.457031 7.851562 -10.285156 7.84375 -10.078125 C 7.84375 -9.992188 7.835938 -9.878906 7.828125 -9.734375 C 7.828125 -9.597656 7.828125 -9.4375 7.828125 -9.25 C 8.429688 -9.28125 9.03125 -9.328125 9.625 -9.390625 C 10.21875 -9.453125 10.816406 -9.523438 11.421875 -9.609375 L 11.4375 -8.6875 C 10.875 -8.625 10.296875 -8.566406 9.703125 -8.515625 C 9.109375 -8.472656 8.484375 -8.4375 7.828125 -8.40625 L 7.828125 -6.3125 C 9.148438 -6.363281 10.441406 -6.488281 11.703125 -6.6875 L 11.703125 -5.75 C 11.046875 -5.65625 10.40625 -5.582031 9.78125 -5.53125 C 9.15625 -5.488281 8.507812 -5.453125 7.84375 -5.421875 C 7.863281 -5.046875 7.882812 -4.671875 7.90625 -4.296875 C 7.925781 -3.929688 7.9375 -3.582031 7.9375 -3.25 C 8.550781 -3.082031 9.113281 -2.863281 9.625 -2.59375 C 10.144531 -2.332031 10.601562 -2.066406 11 -1.796875 C 11.394531 -1.523438 11.722656 -1.285156 11.984375 -1.078125 Z M 11.984375 -1.078125 "/></g></g></g><g fill="#000000" fill-opacity="1"><g transform="translate(112.499712, 76.403922)"><g><path d="M 11.65625 -8.375 L 10.96875 -8.0625 C 10.832031 -8.34375 10.65625 -8.671875 10.4375 -9.046875 C 10.21875 -9.421875 10.015625 -9.738281 9.828125 -10 L 10.5 -10.296875 C 10.6875 -10.046875 10.882812 -9.734375 11.09375 -9.359375 C 11.3125 -8.992188 11.5 -8.664062 11.65625 -8.375 Z M 7.078125 -5.5625 L 7.078125 -6.5 C 7.429688 -6.519531 7.820312 -6.539062 8.25 -6.5625 C 8.6875 -6.59375 9.128906 -6.609375 9.578125 -6.609375 C 9.984375 -6.609375 10.390625 -6.597656 10.796875 -6.578125 C 11.203125 -6.566406 11.585938 -6.539062 11.953125 -6.5 L 11.9375 -5.53125 C 11.582031 -5.582031 11.207031 -5.625 10.8125 -5.65625 C 10.414062 -5.6875 10.015625 -5.703125 9.609375 -5.703125 C 9.179688 -5.703125 8.753906 -5.6875 8.328125 -5.65625 C 7.910156 -5.632812 7.492188 -5.601562 7.078125 -5.5625 Z M 7.9375 -9.03125 L 7.9375 -8.046875 C 7.488281 -7.941406 7.015625 -7.847656 6.515625 -7.765625 C 6.023438 -7.691406 5.535156 -7.625 5.046875 -7.5625 C 4.984375 -7.269531 4.910156 -6.960938 4.828125 -6.640625 C 4.753906 -6.328125 4.679688 -6.023438 4.609375 -5.734375 C 4.492188 -5.234375 4.347656 -4.695312 4.171875 -4.125 C 4.003906 -3.550781 3.816406 -2.96875 3.609375 -2.375 C 3.410156 -1.789062 3.210938 -1.242188 3.015625 -0.734375 C 2.828125 -0.222656 2.640625 0.210938 2.453125 0.578125 L 1.359375 0.21875 C 1.554688 -0.144531 1.765625 -0.578125 1.984375 -1.078125 C 2.203125 -1.578125 2.410156 -2.109375 2.609375 -2.671875 C 2.816406 -3.242188 3.007812 -3.8125 3.1875 -4.375 C 3.363281 -4.9375 3.519531 -5.460938 3.65625 -5.953125 C 3.71875 -6.191406 3.78125 -6.441406 3.84375 -6.703125 C 3.90625 -6.960938 3.96875 -7.222656 4.03125 -7.484375 C 3.789062 -7.460938 3.554688 -7.445312 3.328125 -7.4375 C 3.109375 -7.425781 2.894531 -7.421875 2.6875 -7.421875 C 2.394531 -7.421875 2.117188 -7.425781 1.859375 -7.4375 C 1.609375 -7.445312 1.351562 -7.460938 1.09375 -7.484375 L 1.078125 -8.453125 C 1.398438 -8.421875 1.691406 -8.394531 1.953125 -8.375 C 2.210938 -8.351562 2.46875 -8.34375 2.71875 -8.34375 C 2.945312 -8.34375 3.1875 -8.347656 3.4375 -8.359375 C 3.6875 -8.378906 3.945312 -8.398438 4.21875 -8.421875 C 4.269531 -8.691406 4.316406 -8.9375 4.359375 -9.15625 C 4.398438 -9.375 4.429688 -9.554688 4.453125 -9.703125 C 4.472656 -9.890625 4.488281 -10.082031 4.5 -10.28125 C 4.519531 -10.476562 4.519531 -10.644531 4.5 -10.78125 L 5.703125 -10.6875 C 5.660156 -10.539062 5.613281 -10.359375 5.5625 -10.140625 C 5.519531 -9.929688 5.488281 -9.757812 5.46875 -9.625 L 5.234375 -8.515625 C 5.703125 -8.578125 6.160156 -8.648438 6.609375 -8.734375 C 7.066406 -8.816406 7.507812 -8.914062 7.9375 -9.03125 Z M 6.390625 -3.25 L 7.34375 -3.15625 C 7.28125 -2.914062 7.226562 -2.691406 7.1875 -2.484375 C 7.15625 -2.273438 7.140625 -2.078125 7.140625 -1.890625 C 7.140625 -1.679688 7.191406 -1.472656 7.296875 -1.265625 C 7.398438 -1.066406 7.617188 -0.898438 7.953125 -0.765625 C 8.296875 -0.640625 8.804688 -0.578125 9.484375 -0.578125 C 9.929688 -0.578125 10.382812 -0.597656 10.84375 -0.640625 C 11.3125 -0.691406 11.753906 -0.757812 12.171875 -0.84375 L 12.125 0.171875 C 11.75 0.222656 11.335938 0.265625 10.890625 0.296875 C 10.441406 0.335938 9.972656 0.359375 9.484375 0.359375 C 8.410156 0.359375 7.59375 0.191406 7.03125 -0.140625 C 6.476562 -0.472656 6.203125 -0.976562 6.203125 -1.65625 C 6.203125 -1.894531 6.21875 -2.144531 6.25 -2.40625 C 6.289062 -2.664062 6.335938 -2.945312 6.390625 -3.25 Z M 11.34375 -10.5625 L 12.015625 -10.859375 C 12.140625 -10.691406 12.273438 -10.488281 12.421875 -10.25 C 12.578125 -10.019531 12.722656 -9.789062 12.859375 -9.5625 C 13.003906 -9.332031 13.117188 -9.128906 13.203125 -8.953125 L 12.515625 -8.625 C 12.367188 -8.9375 12.1875 -9.269531 11.96875 -9.625 C 11.757812 -9.988281 11.550781 -10.300781 11.34375 -10.5625 Z M 11.34375 -10.5625 "/></g></g></g><g fill="#000000" fill-opacity="1"><g transform="translate(126.433248, 76.403922)"><g><path d="M 13.09375 -4.984375 L 8.015625 -4.984375 C 8.441406 -4.378906 8.945312 -3.789062 9.53125 -3.21875 C 10.125 -2.644531 10.753906 -2.125 11.421875 -1.65625 C 12.085938 -1.195312 12.742188 -0.820312 13.390625 -0.53125 C 13.296875 -0.4375 13.179688 -0.3125 13.046875 -0.15625 C 12.910156 -0.0078125 12.804688 0.125 12.734375 0.25 C 12.117188 -0.0625 11.488281 -0.457031 10.84375 -0.9375 C 10.195312 -1.414062 9.578125 -1.945312 8.984375 -2.53125 C 8.398438 -3.125 7.878906 -3.742188 7.421875 -4.390625 L 7.421875 1.0625 L 6.46875 1.0625 L 6.46875 -4.3125 C 6.019531 -3.675781 5.503906 -3.066406 4.921875 -2.484375 C 4.347656 -1.910156 3.742188 -1.390625 3.109375 -0.921875 C 2.472656 -0.453125 1.84375 -0.0625 1.21875 0.25 C 1.132812 0.132812 1.023438 0 0.890625 -0.15625 C 0.765625 -0.3125 0.65625 -0.4375 0.5625 -0.53125 C 1.207031 -0.820312 1.859375 -1.195312 2.515625 -1.65625 C 3.179688 -2.113281 3.804688 -2.628906 4.390625 -3.203125 C 4.984375 -3.773438 5.488281 -4.367188 5.90625 -4.984375 L 0.921875 -4.984375 L 0.921875 -5.90625 L 6.46875 -5.90625 L 6.46875 -8.421875 L 1.90625 -8.421875 L 1.90625 -9.328125 L 6.46875 -9.328125 L 6.46875 -11.625 L 7.421875 -11.625 L 7.421875 -9.328125 L 12.140625 -9.328125 L 12.140625 -8.421875 L 7.421875 -8.421875 L 7.421875 -5.90625 L 13.09375 -5.90625 Z M 13.09375 -4.984375 "/></g></g></g><g fill="#000000" fill-opacity="1"><g transform="translate(140.366784, 76.403922)"><g><path d="M 2.109375 -9.25 L 2.109375 -7.28125 L 1.171875 -7.28125 L 1.171875 -10.125 L 6.46875 -10.125 L 6.46875 -11.640625 L 7.421875 -11.640625 L 7.421875 -10.125 L 12.765625 -10.125 L 12.765625 -7.28125 L 11.8125 -7.28125 L 11.8125 -9.25 Z M 10.765625 -6.765625 L 3.171875 -6.765625 L 3.171875 -7.609375 L 10.765625 -7.609375 Z M 9.640625 -0.0625 L 11.6875 -0.0625 C 11.875 -0.0625 12.015625 -0.101562 12.109375 -0.1875 C 12.203125 -0.28125 12.265625 -0.457031 12.296875 -0.71875 C 12.335938 -0.976562 12.363281 -1.378906 12.375 -1.921875 C 12.476562 -1.859375 12.613281 -1.789062 12.78125 -1.71875 C 12.957031 -1.644531 13.109375 -1.59375 13.234375 -1.5625 C 13.191406 -0.9375 13.125 -0.453125 13.03125 -0.109375 C 12.945312 0.234375 12.804688 0.46875 12.609375 0.59375 C 12.410156 0.726562 12.128906 0.796875 11.765625 0.796875 L 9.5625 0.796875 C 8.957031 0.796875 8.546875 0.703125 8.328125 0.515625 C 8.117188 0.335938 8.015625 -0.00390625 8.015625 -0.515625 L 8.015625 -4.171875 L 5.46875 -4.171875 C 5.363281 -3.328125 5.171875 -2.5625 4.890625 -1.875 C 4.617188 -1.195312 4.1875 -0.613281 3.59375 -0.125 C 3 0.363281 2.164062 0.757812 1.09375 1.0625 C 1.050781 0.957031 0.972656 0.828125 0.859375 0.671875 C 0.753906 0.515625 0.648438 0.390625 0.546875 0.296875 C 1.285156 0.109375 1.894531 -0.125 2.375 -0.40625 C 2.863281 -0.695312 3.25 -1.03125 3.53125 -1.40625 C 3.8125 -1.78125 4.023438 -2.195312 4.171875 -2.65625 C 4.316406 -3.125 4.421875 -3.628906 4.484375 -4.171875 L 0.84375 -4.171875 L 0.84375 -5.046875 L 13.09375 -5.046875 L 13.09375 -4.171875 L 8.9375 -4.171875 L 8.9375 -0.53125 C 8.9375 -0.320312 8.976562 -0.191406 9.0625 -0.140625 C 9.15625 -0.0859375 9.347656 -0.0625 9.640625 -0.0625 Z M 9.640625 -0.0625 "/></g></g></g><g fill="#000000" fill-opacity="1"><g transform="translate(154.30032, 76.403922)"><g><path d="M 12.453125 -9.9375 L 11.875 -9.3125 C 11.695312 -9.476562 11.46875 -9.65625 11.1875 -9.84375 C 10.90625 -10.039062 10.601562 -10.238281 10.28125 -10.4375 C 9.96875 -10.644531 9.660156 -10.820312 9.359375 -10.96875 L 9.90625 -11.546875 C 10.207031 -11.398438 10.515625 -11.234375 10.828125 -11.046875 C 11.148438 -10.859375 11.453125 -10.664062 11.734375 -10.46875 C 12.023438 -10.28125 12.265625 -10.101562 12.453125 -9.9375 Z M 11.421875 -7.171875 L 12.328125 -6.9375 C 11.722656 -5.101562 10.90625 -3.535156 9.875 -2.234375 C 10.144531 -1.523438 10.445312 -0.972656 10.78125 -0.578125 C 11.113281 -0.179688 11.460938 0.015625 11.828125 0.015625 C 12.035156 0.015625 12.191406 -0.179688 12.296875 -0.578125 C 12.398438 -0.972656 12.46875 -1.632812 12.5 -2.5625 C 12.601562 -2.457031 12.726562 -2.359375 12.875 -2.265625 C 13.03125 -2.171875 13.171875 -2.109375 13.296875 -2.078125 C 13.242188 -1.304688 13.160156 -0.695312 13.046875 -0.25 C 12.929688 0.1875 12.773438 0.492188 12.578125 0.671875 C 12.378906 0.859375 12.109375 0.953125 11.765625 0.953125 C 11.222656 0.953125 10.738281 0.738281 10.3125 0.3125 C 9.882812 -0.101562 9.507812 -0.675781 9.1875 -1.40625 C 8.3125 -0.46875 7.316406 0.320312 6.203125 0.96875 C 6.140625 0.875 6.035156 0.75 5.890625 0.59375 C 5.753906 0.4375 5.632812 0.3125 5.53125 0.21875 C 6.789062 -0.445312 7.894531 -1.316406 8.84375 -2.390625 C 8.570312 -3.191406 8.347656 -4.09375 8.171875 -5.09375 C 8.003906 -6.101562 7.878906 -7.179688 7.796875 -8.328125 L 2.8125 -8.328125 L 2.8125 -6.4375 L 6.390625 -6.4375 L 6.390625 -6.015625 C 6.378906 -4.972656 6.351562 -4.128906 6.3125 -3.484375 C 6.28125 -2.835938 6.238281 -2.351562 6.1875 -2.03125 C 6.132812 -1.707031 6.054688 -1.484375 5.953125 -1.359375 C 5.859375 -1.234375 5.75 -1.140625 5.625 -1.078125 C 5.5 -1.023438 5.34375 -0.988281 5.15625 -0.96875 C 4.976562 -0.96875 4.738281 -0.96875 4.4375 -0.96875 C 4.132812 -0.96875 3.8125 -0.972656 3.46875 -0.984375 C 3.457031 -1.128906 3.425781 -1.28125 3.375 -1.4375 C 3.332031 -1.59375 3.273438 -1.734375 3.203125 -1.859375 C 3.535156 -1.828125 3.84375 -1.804688 4.125 -1.796875 C 4.414062 -1.796875 4.617188 -1.796875 4.734375 -1.796875 C 4.835938 -1.796875 4.921875 -1.800781 4.984375 -1.8125 C 5.054688 -1.832031 5.117188 -1.875 5.171875 -1.9375 C 5.234375 -2.007812 5.285156 -2.171875 5.328125 -2.421875 C 5.367188 -2.671875 5.398438 -3.050781 5.421875 -3.5625 C 5.453125 -4.070312 5.472656 -4.75 5.484375 -5.59375 L 2.8125 -5.59375 L 2.8125 -5.34375 C 2.8125 -4.851562 2.789062 -4.328125 2.75 -3.765625 C 2.71875 -3.203125 2.648438 -2.628906 2.546875 -2.046875 C 2.441406 -1.472656 2.289062 -0.910156 2.09375 -0.359375 C 1.90625 0.179688 1.65625 0.679688 1.34375 1.140625 C 1.257812 1.046875 1.132812 0.929688 0.96875 0.796875 C 0.8125 0.660156 0.679688 0.566406 0.578125 0.515625 C 0.960938 -0.046875 1.25 -0.671875 1.4375 -1.359375 C 1.625 -2.046875 1.742188 -2.734375 1.796875 -3.421875 C 1.847656 -4.109375 1.875 -4.753906 1.875 -5.359375 L 1.875 -9.234375 L 7.71875 -9.234375 C 7.695312 -9.617188 7.679688 -10.015625 7.671875 -10.421875 C 7.660156 -10.828125 7.65625 -11.226562 7.65625 -11.625 L 8.609375 -11.625 C 8.609375 -11.21875 8.613281 -10.8125 8.625 -10.40625 C 8.632812 -10 8.648438 -9.609375 8.671875 -9.234375 L 13.1875 -9.234375 L 13.1875 -8.328125 L 8.734375 -8.328125 C 8.804688 -7.359375 8.910156 -6.445312 9.046875 -5.59375 C 9.179688 -4.75 9.34375 -3.984375 9.53125 -3.296875 C 10.3125 -4.421875 10.941406 -5.710938 11.421875 -7.171875 Z M 11.421875 -7.171875 "/></g></g></g><g fill="#000000" fill-opacity="1"><g transform="translate(168.233856, 76.403922)"><g><path d="M 2.703125 -3.390625 C 3.097656 -3.390625 3.453125 -3.296875 3.765625 -3.109375 C 4.085938 -2.921875 4.34375 -2.664062 4.53125 -2.34375 C 4.71875 -2.03125 4.8125 -1.679688 4.8125 -1.296875 C 4.8125 -0.898438 4.71875 -0.546875 4.53125 -0.234375 C 4.34375 0.078125 4.085938 0.328125 3.765625 0.515625 C 3.453125 0.710938 3.097656 0.8125 2.703125 0.8125 C 2.316406 0.8125 1.96875 0.710938 1.65625 0.515625 C 1.34375 0.328125 1.085938 0.078125 0.890625 -0.234375 C 0.703125 -0.546875 0.609375 -0.898438 0.609375 -1.296875 C 0.609375 -1.679688 0.703125 -2.03125 0.890625 -2.34375 C 1.085938 -2.664062 1.34375 -2.921875 1.65625 -3.109375 C 1.96875 -3.296875 2.316406 -3.390625 2.703125 -3.390625 Z M 2.703125 0.15625 C 3.109375 0.15625 3.453125 0.015625 3.734375 -0.265625 C 4.015625 -0.554688 4.15625 -0.898438 4.15625 -1.296875 C 4.15625 -1.679688 4.015625 -2.015625 3.734375 -2.296875 C 3.453125 -2.585938 3.109375 -2.734375 2.703125 -2.734375 C 2.316406 -2.734375 1.976562 -2.585938 1.6875 -2.296875 C 1.40625 -2.015625 1.265625 -1.679688 1.265625 -1.296875 C 1.265625 -0.898438 1.40625 -0.554688 1.6875 -0.265625 C 1.976562 0.015625 2.316406 0.15625 2.703125 0.15625 Z M 2.703125 0.15625 "/></g></g></g><g fill="#000000" fill-opacity="1"><g transform="translate(36.070313, 95.903921)"><g><path d="M 9.875 -8.875 L 10.390625 -7.96875 C 10.234375 -7.875 10.078125 -7.78125 9.921875 -7.6875 C 9.765625 -7.601562 9.585938 -7.515625 9.390625 -7.421875 C 9.078125 -7.253906 8.703125 -7.0625 8.265625 -6.84375 C 7.835938 -6.625 7.382812 -6.382812 6.90625 -6.125 C 6.425781 -5.875 5.957031 -5.59375 5.5 -5.28125 C 4.851562 -4.851562 4.34375 -4.40625 3.96875 -3.9375 C 3.601562 -3.46875 3.421875 -2.96875 3.421875 -2.4375 C 3.421875 -1.851562 3.695312 -1.390625 4.25 -1.046875 C 4.8125 -0.703125 5.648438 -0.53125 6.765625 -0.53125 C 7.273438 -0.53125 7.800781 -0.546875 8.34375 -0.578125 C 8.882812 -0.617188 9.398438 -0.671875 9.890625 -0.734375 C 10.390625 -0.804688 10.8125 -0.890625 11.15625 -0.984375 L 11.15625 0.125 C 10.644531 0.21875 10.003906 0.296875 9.234375 0.359375 C 8.460938 0.421875 7.648438 0.453125 6.796875 0.453125 C 5.941406 0.453125 5.179688 0.359375 4.515625 0.171875 C 3.859375 -0.00390625 3.335938 -0.296875 2.953125 -0.703125 C 2.578125 -1.117188 2.390625 -1.660156 2.390625 -2.328125 C 2.390625 -3.035156 2.597656 -3.675781 3.015625 -4.25 C 3.441406 -4.832031 4.035156 -5.382812 4.796875 -5.90625 C 4.484375 -6.46875 4.148438 -7.128906 3.796875 -7.890625 C 3.453125 -8.660156 3.113281 -9.414062 2.78125 -10.15625 L 3.765625 -10.578125 C 4.046875 -9.816406 4.351562 -9.078125 4.6875 -8.359375 C 5.019531 -7.640625 5.332031 -7.003906 5.625 -6.453125 C 6.25 -6.835938 6.863281 -7.179688 7.46875 -7.484375 C 8.082031 -7.785156 8.578125 -8.046875 8.953125 -8.265625 C 9.140625 -8.378906 9.304688 -8.476562 9.453125 -8.5625 C 9.609375 -8.65625 9.75 -8.757812 9.875 -8.875 Z M 10 -10.453125 L 10.671875 -10.75 C 10.847656 -10.5 11.046875 -10.1875 11.265625 -9.8125 C 11.484375 -9.445312 11.664062 -9.117188 11.8125 -8.828125 L 11.125 -8.515625 C 10.988281 -8.796875 10.8125 -9.125 10.59375 -9.5 C 10.375 -9.875 10.175781 -10.191406 10 -10.453125 Z M 11.515625 -11 L 12.1875 -11.296875 C 12.3125 -11.117188 12.445312 -10.914062 12.59375 -10.6875 C 12.75 -10.457031 12.894531 -10.226562 13.03125 -10 C 13.164062 -9.769531 13.273438 -9.566406 13.359375 -9.390625 L 12.6875 -9.078125 C 12.53125 -9.378906 12.34375 -9.707031 12.125 -10.0625 C 11.914062 -10.425781 11.710938 -10.738281 11.515625 -11 Z M 11.515625 -11 "/></g></g></g><g fill="#000000" fill-opacity="1"><g transform="translate(50.003849, 95.903921)"><g><path d="M 7.65625 -10.484375 C 7.519531 -10.316406 7.367188 -10.09375 7.203125 -9.8125 C 7.054688 -9.582031 6.863281 -9.265625 6.625 -8.859375 C 6.394531 -8.453125 6.148438 -8.015625 5.890625 -7.546875 C 5.628906 -7.078125 5.375 -6.613281 5.125 -6.15625 C 4.882812 -5.707031 4.671875 -5.3125 4.484375 -4.96875 C 4.835938 -5.300781 5.191406 -5.535156 5.546875 -5.671875 C 5.898438 -5.804688 6.25 -5.875 6.59375 -5.875 C 7.050781 -5.875 7.429688 -5.734375 7.734375 -5.453125 C 8.035156 -5.171875 8.191406 -4.757812 8.203125 -4.21875 C 8.222656 -3.789062 8.234375 -3.335938 8.234375 -2.859375 C 8.234375 -2.378906 8.242188 -1.96875 8.265625 -1.625 C 8.285156 -1.269531 8.398438 -1.007812 8.609375 -0.84375 C 8.828125 -0.6875 9.09375 -0.609375 9.40625 -0.609375 C 9.800781 -0.609375 10.15625 -0.710938 10.46875 -0.921875 C 10.789062 -1.140625 11.070312 -1.414062 11.3125 -1.75 C 11.550781 -2.09375 11.75 -2.460938 11.90625 -2.859375 C 12.070312 -3.253906 12.203125 -3.628906 12.296875 -3.984375 L 13.109375 -3.328125 C 12.867188 -2.597656 12.570312 -1.953125 12.21875 -1.390625 C 11.875 -0.828125 11.457031 -0.382812 10.96875 -0.0625 C 10.488281 0.25 9.914062 0.40625 9.25 0.40625 C 8.769531 0.40625 8.390625 0.316406 8.109375 0.140625 C 7.828125 -0.0351562 7.625 -0.253906 7.5 -0.515625 C 7.382812 -0.785156 7.316406 -1.050781 7.296875 -1.3125 C 7.285156 -1.71875 7.28125 -2.164062 7.28125 -2.65625 C 7.28125 -3.144531 7.269531 -3.582031 7.25 -3.96875 C 7.238281 -4.289062 7.140625 -4.535156 6.953125 -4.703125 C 6.773438 -4.878906 6.523438 -4.96875 6.203125 -4.96875 C 5.816406 -4.96875 5.445312 -4.859375 5.09375 -4.640625 C 4.75 -4.421875 4.429688 -4.140625 4.140625 -3.796875 C 3.859375 -3.453125 3.625 -3.097656 3.4375 -2.734375 C 3.34375 -2.523438 3.234375 -2.273438 3.109375 -1.984375 C 2.984375 -1.703125 2.863281 -1.410156 2.75 -1.109375 C 2.632812 -0.804688 2.53125 -0.519531 2.4375 -0.25 C 2.34375 0.0195312 2.273438 0.238281 2.234375 0.40625 L 1.15625 0.046875 C 1.320312 -0.421875 1.539062 -0.957031 1.8125 -1.5625 C 2.082031 -2.164062 2.378906 -2.800781 2.703125 -3.46875 C 3.023438 -4.144531 3.359375 -4.816406 3.703125 -5.484375 C 4.046875 -6.148438 4.375 -6.773438 4.6875 -7.359375 C 5 -7.953125 5.273438 -8.472656 5.515625 -8.921875 C 5.753906 -9.367188 5.9375 -9.703125 6.0625 -9.921875 C 6.144531 -10.078125 6.222656 -10.234375 6.296875 -10.390625 C 6.378906 -10.554688 6.457031 -10.734375 6.53125 -10.921875 Z M 7.65625 -10.484375 "/></g></g></g><g fill="#000000" fill-opacity="1"><g transform="translate(63.937386, 95.903921)"><g><path d="M 12.890625 -7.25 L 12.328125 -6.421875 C 12.085938 -6.640625 11.78125 -6.863281 11.40625 -7.09375 C 11.03125 -7.332031 10.644531 -7.554688 10.25 -7.765625 C 9.851562 -7.984375 9.503906 -8.164062 9.203125 -8.3125 L 9.703125 -9.078125 C 10.035156 -8.921875 10.40625 -8.734375 10.8125 -8.515625 C 11.21875 -8.296875 11.613281 -8.070312 12 -7.84375 C 12.382812 -7.613281 12.679688 -7.414062 12.890625 -7.25 Z M 7.90625 -9.34375 L 7.9375 -8.390625 C 7.5625 -8.285156 7.160156 -8.191406 6.734375 -8.109375 C 6.316406 -8.023438 5.878906 -7.953125 5.421875 -7.890625 C 5.203125 -7.234375 4.921875 -6.550781 4.578125 -5.84375 C 4.242188 -5.132812 3.890625 -4.445312 3.515625 -3.78125 C 3.140625 -3.125 2.765625 -2.550781 2.390625 -2.0625 L 1.421875 -2.5625 C 1.804688 -3.007812 2.1875 -3.535156 2.5625 -4.140625 C 2.945312 -4.742188 3.296875 -5.363281 3.609375 -6 C 3.929688 -6.632812 4.195312 -7.226562 4.40625 -7.78125 C 3.976562 -7.75 3.546875 -7.734375 3.109375 -7.734375 C 2.847656 -7.734375 2.578125 -7.738281 2.296875 -7.75 C 2.023438 -7.757812 1.757812 -7.769531 1.5 -7.78125 L 1.453125 -8.703125 C 1.941406 -8.648438 2.492188 -8.625 3.109375 -8.625 C 3.359375 -8.625 3.617188 -8.628906 3.890625 -8.640625 C 4.160156 -8.660156 4.429688 -8.679688 4.703125 -8.703125 C 4.804688 -9.078125 4.898438 -9.472656 4.984375 -9.890625 C 5.078125 -10.316406 5.128906 -10.71875 5.140625 -11.09375 L 6.265625 -11 C 6.191406 -10.75 6.109375 -10.425781 6.015625 -10.03125 C 5.921875 -9.632812 5.820312 -9.234375 5.71875 -8.828125 C 6.082031 -8.878906 6.445312 -8.945312 6.8125 -9.03125 C 7.175781 -9.113281 7.539062 -9.21875 7.90625 -9.34375 Z M 8.703125 -1.609375 C 8.703125 -1.710938 8.703125 -1.820312 8.703125 -1.9375 C 8.703125 -2.0625 8.703125 -2.195312 8.703125 -2.34375 C 8.460938 -2.40625 8.222656 -2.453125 7.984375 -2.484375 C 7.753906 -2.523438 7.507812 -2.546875 7.25 -2.546875 C 6.71875 -2.546875 6.289062 -2.4375 5.96875 -2.21875 C 5.644531 -2.007812 5.484375 -1.738281 5.484375 -1.40625 C 5.484375 -1.082031 5.617188 -0.816406 5.890625 -0.609375 C 6.160156 -0.398438 6.582031 -0.296875 7.15625 -0.296875 C 7.726562 -0.296875 8.128906 -0.429688 8.359375 -0.703125 C 8.585938 -0.972656 8.703125 -1.273438 8.703125 -1.609375 Z M 8.515625 -6.734375 L 9.5 -6.734375 C 9.488281 -6.441406 9.484375 -6.1875 9.484375 -5.96875 C 9.484375 -5.757812 9.488281 -5.535156 9.5 -5.296875 C 9.507812 -5.035156 9.523438 -4.6875 9.546875 -4.25 C 9.578125 -3.820312 9.597656 -3.390625 9.609375 -2.953125 C 10.203125 -2.742188 10.738281 -2.476562 11.21875 -2.15625 C 11.695312 -1.84375 12.109375 -1.535156 12.453125 -1.234375 L 11.921875 -0.390625 C 11.617188 -0.660156 11.273438 -0.9375 10.890625 -1.21875 C 10.515625 -1.507812 10.097656 -1.765625 9.640625 -1.984375 C 9.648438 -1.859375 9.65625 -1.742188 9.65625 -1.640625 C 9.65625 -1.535156 9.65625 -1.441406 9.65625 -1.359375 C 9.65625 -0.816406 9.460938 -0.359375 9.078125 0.015625 C 8.703125 0.398438 8.101562 0.59375 7.28125 0.59375 C 6.78125 0.59375 6.320312 0.523438 5.90625 0.390625 C 5.5 0.253906 5.171875 0.046875 4.921875 -0.234375 C 4.679688 -0.523438 4.5625 -0.894531 4.5625 -1.34375 C 4.5625 -1.757812 4.679688 -2.117188 4.921875 -2.421875 C 5.171875 -2.734375 5.5 -2.96875 5.90625 -3.125 C 6.320312 -3.289062 6.78125 -3.375 7.28125 -3.375 C 7.519531 -3.375 7.753906 -3.359375 7.984375 -3.328125 C 8.210938 -3.304688 8.441406 -3.273438 8.671875 -3.234375 C 8.640625 -3.804688 8.609375 -4.410156 8.578125 -5.046875 C 8.554688 -5.679688 8.535156 -6.242188 8.515625 -6.734375 Z M 8.515625 -6.734375 "/></g></g></g><g fill="#000000" fill-opacity="1"><g transform="translate(77.870922, 95.903921)"><g><path d="M 12.53125 -9.25 L 12.53125 -0.21875 C 12.53125 0.09375 12.484375 0.332031 12.390625 0.5 C 12.304688 0.675781 12.148438 0.800781 11.921875 0.875 C 11.679688 0.945312 11.347656 0.992188 10.921875 1.015625 C 10.492188 1.035156 9.972656 1.046875 9.359375 1.046875 C 9.335938 0.910156 9.296875 0.75 9.234375 0.5625 C 9.171875 0.382812 9.101562 0.226562 9.03125 0.09375 C 9.53125 0.113281 9.988281 0.125 10.40625 0.125 C 10.832031 0.125 11.117188 0.117188 11.265625 0.109375 C 11.398438 0.0976562 11.488281 0.0664062 11.53125 0.015625 C 11.582031 -0.0234375 11.609375 -0.101562 11.609375 -0.21875 L 11.609375 -8.34375 L 7.421875 -8.34375 C 7.421875 -8.050781 7.398438 -7.75 7.359375 -7.4375 C 7.316406 -7.125 7.25 -6.804688 7.15625 -6.484375 C 7.632812 -6.078125 8.128906 -5.632812 8.640625 -5.15625 C 9.148438 -4.675781 9.628906 -4.203125 10.078125 -3.734375 C 10.535156 -3.273438 10.90625 -2.867188 11.1875 -2.515625 L 10.4375 -1.9375 C 10.1875 -2.25 9.867188 -2.613281 9.484375 -3.03125 C 9.097656 -3.445312 8.679688 -3.875 8.234375 -4.3125 C 7.785156 -4.757812 7.34375 -5.191406 6.90625 -5.609375 C 6.644531 -4.921875 6.242188 -4.25 5.703125 -3.59375 C 5.160156 -2.945312 4.40625 -2.34375 3.4375 -1.78125 C 3.375 -1.882812 3.273438 -2.003906 3.140625 -2.140625 C 3.015625 -2.273438 2.894531 -2.382812 2.78125 -2.46875 C 3.5625 -2.894531 4.191406 -3.351562 4.671875 -3.84375 C 5.160156 -4.332031 5.53125 -4.832031 5.78125 -5.34375 C 6.039062 -5.863281 6.21875 -6.378906 6.3125 -6.890625 C 6.414062 -7.398438 6.476562 -7.882812 6.5 -8.34375 L 2.359375 -8.34375 L 2.359375 1.09375 L 1.4375 1.09375 L 1.4375 -9.25 L 6.515625 -9.25 L 6.515625 -11.65625 L 7.4375 -11.65625 L 7.4375 -9.25 Z M 12.53125 -9.25 "/></g></g></g><g fill="#000000" fill-opacity="1"><g transform="translate(91.804458, 95.903921)"><g><path d="M 2.125 -9.484375 L 2.125 -7.90625 L 1.21875 -7.90625 L 1.21875 -10.34375 L 6.46875 -10.34375 L 6.46875 -11.65625 L 7.40625 -11.65625 L 7.40625 -10.34375 L 12.71875 -10.34375 L 12.71875 -7.90625 L 11.796875 -7.90625 L 11.796875 -9.484375 Z M 8.234375 -8.234375 L 8.84375 -8.765625 C 9.28125 -8.515625 9.734375 -8.226562 10.203125 -7.90625 C 10.671875 -7.582031 11.113281 -7.257812 11.53125 -6.9375 C 11.945312 -6.625 12.285156 -6.332031 12.546875 -6.0625 L 11.859375 -5.4375 C 11.609375 -5.707031 11.28125 -6.007812 10.875 -6.34375 C 10.46875 -6.675781 10.035156 -7.003906 9.578125 -7.328125 C 9.117188 -7.660156 8.671875 -7.960938 8.234375 -8.234375 Z M 4.671875 -8.765625 L 5.546875 -8.46875 C 5.242188 -8.070312 4.890625 -7.679688 4.484375 -7.296875 C 4.085938 -6.921875 3.671875 -6.566406 3.234375 -6.234375 C 2.796875 -5.910156 2.367188 -5.625 1.953125 -5.375 C 1.890625 -5.476562 1.785156 -5.601562 1.640625 -5.75 C 1.503906 -5.894531 1.382812 -6.015625 1.28125 -6.109375 C 1.914062 -6.429688 2.535156 -6.828125 3.140625 -7.296875 C 3.753906 -7.765625 4.265625 -8.253906 4.671875 -8.765625 Z M 3.90625 -3.5625 L 10.265625 -3.5625 C 9.617188 -4 9.007812 -4.460938 8.4375 -4.953125 C 7.863281 -5.441406 7.378906 -5.925781 6.984375 -6.40625 C 6.640625 -5.957031 6.195312 -5.488281 5.65625 -5 C 5.125 -4.507812 4.539062 -4.03125 3.90625 -3.5625 Z M 4.0625 -0.265625 L 9.875 -0.265625 L 9.875 -2.734375 L 4.0625 -2.734375 Z M 6.46875 -7.265625 L 7.375 -7.265625 C 7.863281 -6.679688 8.441406 -6.109375 9.109375 -5.546875 C 9.785156 -4.984375 10.492188 -4.472656 11.234375 -4.015625 C 11.972656 -3.566406 12.703125 -3.191406 13.421875 -2.890625 C 13.316406 -2.773438 13.207031 -2.640625 13.09375 -2.484375 C 12.988281 -2.335938 12.898438 -2.195312 12.828125 -2.0625 C 12.492188 -2.21875 12.15625 -2.394531 11.8125 -2.59375 C 11.46875 -2.789062 11.125 -3 10.78125 -3.21875 L 10.78125 0.984375 L 9.875 0.984375 L 9.875 0.578125 L 4.0625 0.578125 L 4.0625 1.0625 L 3.15625 1.0625 L 3.15625 -3.0625 C 2.84375 -2.863281 2.519531 -2.664062 2.1875 -2.46875 C 1.863281 -2.28125 1.539062 -2.101562 1.21875 -1.9375 C 1.15625 -2.050781 1.070312 -2.179688 0.96875 -2.328125 C 0.875 -2.472656 0.78125 -2.597656 0.6875 -2.703125 C 1.476562 -3.066406 2.242188 -3.5 2.984375 -4 C 3.722656 -4.507812 4.394531 -5.046875 5 -5.609375 C 5.601562 -6.179688 6.09375 -6.734375 6.46875 -7.265625 Z M 6.46875 -7.265625 "/></g></g></g><g fill="#000000" fill-opacity="1"><g transform="translate(105.737994, 95.903921)"><g><path d="M 4.890625 -10.921875 L 6.0625 -10.8125 C 6.03125 -10.695312 6 -10.570312 5.96875 -10.4375 C 5.945312 -10.3125 5.925781 -10.179688 5.90625 -10.046875 C 5.875 -9.847656 5.820312 -9.554688 5.75 -9.171875 C 5.6875 -8.785156 5.617188 -8.394531 5.546875 -8 C 5.878906 -8.03125 6.1875 -8.050781 6.46875 -8.0625 C 6.757812 -8.082031 6.988281 -8.09375 7.15625 -8.09375 C 7.5625 -8.09375 7.925781 -8.03125 8.25 -7.90625 C 8.582031 -7.78125 8.847656 -7.550781 9.046875 -7.21875 C 9.253906 -6.894531 9.359375 -6.425781 9.359375 -5.8125 C 9.359375 -5.257812 9.332031 -4.671875 9.28125 -4.046875 C 9.226562 -3.429688 9.140625 -2.835938 9.015625 -2.265625 C 8.898438 -1.703125 8.75 -1.226562 8.5625 -0.84375 C 8.332031 -0.382812 8.050781 -0.0820312 7.71875 0.0625 C 7.394531 0.21875 7.015625 0.296875 6.578125 0.296875 C 6.316406 0.296875 6.035156 0.269531 5.734375 0.21875 C 5.429688 0.175781 5.175781 0.128906 4.96875 0.078125 L 4.796875 -0.96875 C 5.085938 -0.882812 5.394531 -0.8125 5.71875 -0.75 C 6.039062 -0.695312 6.300781 -0.671875 6.5 -0.671875 C 6.757812 -0.671875 6.992188 -0.710938 7.203125 -0.796875 C 7.410156 -0.890625 7.585938 -1.085938 7.734375 -1.390625 C 7.878906 -1.710938 8 -2.109375 8.09375 -2.578125 C 8.195312 -3.054688 8.273438 -3.566406 8.328125 -4.109375 C 8.378906 -4.660156 8.40625 -5.1875 8.40625 -5.6875 C 8.40625 -6.125 8.34375 -6.445312 8.21875 -6.65625 C 8.09375 -6.875 7.914062 -7.019531 7.6875 -7.09375 C 7.46875 -7.164062 7.207031 -7.203125 6.90625 -7.203125 C 6.726562 -7.203125 6.503906 -7.191406 6.234375 -7.171875 C 5.960938 -7.160156 5.664062 -7.140625 5.34375 -7.109375 C 5.175781 -6.453125 4.960938 -5.695312 4.703125 -4.84375 C 4.441406 -3.988281 4.117188 -3.113281 3.734375 -2.21875 C 3.359375 -1.332031 2.925781 -0.488281 2.4375 0.3125 L 1.40625 -0.09375 C 1.757812 -0.570312 2.085938 -1.113281 2.390625 -1.71875 C 2.691406 -2.320312 2.96875 -2.941406 3.21875 -3.578125 C 3.46875 -4.210938 3.6875 -4.828125 3.875 -5.421875 C 4.0625 -6.023438 4.210938 -6.554688 4.328125 -7.015625 C 3.960938 -6.972656 3.613281 -6.929688 3.28125 -6.890625 C 2.945312 -6.859375 2.6875 -6.832031 2.5 -6.8125 C 2.34375 -6.800781 2.144531 -6.78125 1.90625 -6.75 C 1.675781 -6.71875 1.472656 -6.6875 1.296875 -6.65625 L 1.203125 -7.765625 C 1.410156 -7.753906 1.609375 -7.75 1.796875 -7.75 C 1.984375 -7.75 2.179688 -7.753906 2.390625 -7.765625 C 2.617188 -7.773438 2.925781 -7.789062 3.3125 -7.8125 C 3.707031 -7.84375 4.117188 -7.878906 4.546875 -7.921875 C 4.648438 -8.410156 4.734375 -8.914062 4.796875 -9.4375 C 4.859375 -9.96875 4.890625 -10.460938 4.890625 -10.921875 Z M 9.890625 -8.90625 L 10.796875 -9.3125 C 11.015625 -9.03125 11.242188 -8.679688 11.484375 -8.265625 C 11.734375 -7.847656 11.976562 -7.398438 12.21875 -6.921875 C 12.457031 -6.453125 12.675781 -5.992188 12.875 -5.546875 C 13.070312 -5.109375 13.234375 -4.734375 13.359375 -4.421875 L 12.390625 -3.9375 C 12.285156 -4.289062 12.140625 -4.691406 11.953125 -5.140625 C 11.773438 -5.597656 11.570312 -6.0625 11.34375 -6.53125 C 11.125 -7 10.890625 -7.441406 10.640625 -7.859375 C 10.390625 -8.273438 10.140625 -8.625 9.890625 -8.90625 Z M 9.890625 -8.90625 "/></g></g></g><g fill="#000000" fill-opacity="1"><g transform="translate(119.67153, 95.903921)"><g><path d="M 5.421875 -10.328125 L 2.203125 -10.328125 L 2.203125 -9.171875 L 5.421875 -9.171875 Z M 2.203125 -7.265625 L 5.421875 -7.265625 L 5.421875 -8.484375 L 2.203125 -8.484375 Z M 6.296875 -6.546875 L 2.203125 -6.546875 L 2.203125 1.0625 L 1.296875 1.0625 L 1.296875 -11.03125 L 6.296875 -11.03125 Z M 8.515625 -4.140625 L 8.515625 -5.03125 L 5.359375 -5.03125 L 5.359375 -4.140625 Z M 5.359375 -2 L 5.359375 -0.90625 C 5.847656 -0.9375 6.359375 -0.96875 6.890625 -1 C 7.421875 -1.03125 7.960938 -1.0625 8.515625 -1.09375 L 8.515625 -2 Z M 8.515625 -2.609375 L 8.515625 -3.53125 L 5.359375 -3.53125 L 5.359375 -2.609375 Z M 10.421875 -5.03125 L 9.359375 -5.03125 L 9.359375 0.734375 L 8.515625 0.734375 L 8.515625 -0.390625 C 7.566406 -0.328125 6.640625 -0.265625 5.734375 -0.203125 C 4.828125 -0.140625 4.03125 -0.0859375 3.34375 -0.046875 L 3.296875 -0.796875 L 4.546875 -0.859375 L 4.546875 -5.03125 L 3.453125 -5.03125 L 3.453125 -5.734375 L 10.421875 -5.734375 Z M 8.46875 -7.25 L 11.8125 -7.25 L 11.8125 -8.484375 L 8.46875 -8.484375 Z M 11.8125 -10.328125 L 8.46875 -10.328125 L 8.46875 -9.171875 L 11.8125 -9.171875 Z M 12.71875 -11.03125 L 12.71875 -0.1875 C 12.71875 0.09375 12.675781 0.316406 12.59375 0.484375 C 12.507812 0.648438 12.375 0.773438 12.1875 0.859375 C 11.988281 0.929688 11.71875 0.976562 11.375 1 C 11.03125 1.019531 10.597656 1.03125 10.078125 1.03125 C 10.066406 0.90625 10.03125 0.75 9.96875 0.5625 C 9.914062 0.375 9.851562 0.21875 9.78125 0.09375 C 10.1875 0.101562 10.550781 0.109375 10.875 0.109375 C 11.195312 0.117188 11.410156 0.117188 11.515625 0.109375 C 11.617188 0.0976562 11.691406 0.0703125 11.734375 0.03125 C 11.785156 -0.0078125 11.8125 -0.0820312 11.8125 -0.1875 L 11.8125 -6.53125 L 7.578125 -6.53125 L 7.578125 -11.03125 Z M 12.71875 -11.03125 "/></g></g></g><g fill="#000000" fill-opacity="1"><g transform="translate(133.605066, 95.903921)"><g><path d="M 3.0625 -9.65625 C 3.039062 -9.507812 3.019531 -9.304688 3 -9.046875 C 2.976562 -8.785156 2.960938 -8.5625 2.953125 -8.375 C 2.941406 -7.945312 2.941406 -7.429688 2.953125 -6.828125 C 2.972656 -6.222656 3.007812 -5.632812 3.0625 -5.0625 C 3.175781 -3.882812 3.398438 -2.9375 3.734375 -2.21875 C 4.078125 -1.5 4.5 -1.140625 5 -1.140625 C 5.238281 -1.140625 5.46875 -1.273438 5.6875 -1.546875 C 5.90625 -1.828125 6.101562 -2.179688 6.28125 -2.609375 C 6.46875 -3.046875 6.625 -3.5 6.75 -3.96875 L 7.546875 -3.09375 C 7.140625 -1.9375 6.722656 -1.125 6.296875 -0.65625 C 5.867188 -0.195312 5.425781 0.03125 4.96875 0.03125 C 4.550781 0.03125 4.144531 -0.125 3.75 -0.4375 C 3.351562 -0.757812 3.007812 -1.273438 2.71875 -1.984375 C 2.425781 -2.691406 2.21875 -3.640625 2.09375 -4.828125 C 2.050781 -5.222656 2.019531 -5.648438 2 -6.109375 C 1.976562 -6.578125 1.960938 -7.019531 1.953125 -7.4375 C 1.941406 -7.863281 1.9375 -8.210938 1.9375 -8.484375 C 1.9375 -8.640625 1.929688 -8.84375 1.921875 -9.09375 C 1.910156 -9.34375 1.890625 -9.539062 1.859375 -9.6875 Z M 10.296875 -9.265625 C 10.703125 -8.734375 11.078125 -8.09375 11.421875 -7.34375 C 11.765625 -6.601562 12.046875 -5.816406 12.265625 -4.984375 C 12.492188 -4.148438 12.644531 -3.335938 12.71875 -2.546875 L 11.71875 -2.15625 C 11.632812 -3 11.484375 -3.835938 11.265625 -4.671875 C 11.054688 -5.515625 10.789062 -6.300781 10.46875 -7.03125 C 10.144531 -7.769531 9.769531 -8.40625 9.34375 -8.9375 Z M 10.296875 -9.265625 "/></g></g></g><g fill="#000000" fill-opacity="1"><g transform="translate(147.120331, 95.903921)"><g><path d="M 1.265625 -9.203125 C 1.535156 -9.210938 1.769531 -9.222656 1.96875 -9.234375 C 2.175781 -9.242188 2.347656 -9.253906 2.484375 -9.265625 C 2.691406 -9.285156 3.003906 -9.316406 3.421875 -9.359375 C 3.847656 -9.398438 4.335938 -9.445312 4.890625 -9.5 C 5.441406 -9.550781 6.03125 -9.601562 6.65625 -9.65625 C 7.28125 -9.71875 7.910156 -9.773438 8.546875 -9.828125 C 9.304688 -9.898438 9.992188 -9.953125 10.609375 -9.984375 C 11.234375 -10.023438 11.769531 -10.050781 12.21875 -10.0625 L 12.21875 -9.078125 C 11.957031 -9.078125 11.660156 -9.070312 11.328125 -9.0625 C 11.003906 -9.050781 10.679688 -9.03125 10.359375 -9 C 10.035156 -8.976562 9.753906 -8.925781 9.515625 -8.84375 C 9.015625 -8.675781 8.566406 -8.425781 8.171875 -8.09375 C 7.773438 -7.769531 7.441406 -7.398438 7.171875 -6.984375 C 6.898438 -6.566406 6.691406 -6.132812 6.546875 -5.6875 C 6.398438 -5.238281 6.328125 -4.8125 6.328125 -4.40625 C 6.328125 -3.707031 6.46875 -3.125 6.75 -2.65625 C 7.039062 -2.195312 7.421875 -1.820312 7.890625 -1.53125 C 8.359375 -1.25 8.875 -1.039062 9.4375 -0.90625 C 10.007812 -0.78125 10.578125 -0.710938 11.140625 -0.703125 L 10.78125 0.328125 C 10.15625 0.316406 9.519531 0.21875 8.875 0.03125 C 8.238281 -0.15625 7.648438 -0.429688 7.109375 -0.796875 C 6.578125 -1.160156 6.148438 -1.617188 5.828125 -2.171875 C 5.503906 -2.734375 5.34375 -3.40625 5.34375 -4.1875 C 5.34375 -4.90625 5.46875 -5.578125 5.71875 -6.203125 C 5.976562 -6.828125 6.3125 -7.367188 6.71875 -7.828125 C 7.125 -8.296875 7.546875 -8.65625 7.984375 -8.90625 C 7.742188 -8.875 7.410156 -8.832031 6.984375 -8.78125 C 6.554688 -8.738281 6.082031 -8.691406 5.5625 -8.640625 C 5.039062 -8.585938 4.515625 -8.53125 3.984375 -8.46875 C 3.453125 -8.40625 2.957031 -8.34375 2.5 -8.28125 C 2.050781 -8.21875 1.675781 -8.148438 1.375 -8.078125 Z M 1.265625 -9.203125 "/></g></g></g><g fill="#000000" fill-opacity="1"><g transform="translate(161.053868, 95.903921)"><g><path d="M 4.890625 -10.921875 L 6.0625 -10.8125 C 6.03125 -10.695312 6 -10.570312 5.96875 -10.4375 C 5.945312 -10.3125 5.925781 -10.179688 5.90625 -10.046875 C 5.875 -9.847656 5.820312 -9.554688 5.75 -9.171875 C 5.6875 -8.785156 5.617188 -8.394531 5.546875 -8 C 5.878906 -8.03125 6.1875 -8.050781 6.46875 -8.0625 C 6.757812 -8.082031 6.988281 -8.09375 7.15625 -8.09375 C 7.5625 -8.09375 7.925781 -8.03125 8.25 -7.90625 C 8.582031 -7.78125 8.847656 -7.550781 9.046875 -7.21875 C 9.253906 -6.894531 9.359375 -6.425781 9.359375 -5.8125 C 9.359375 -5.257812 9.332031 -4.671875 9.28125 -4.046875 C 9.226562 -3.429688 9.140625 -2.835938 9.015625 -2.265625 C 8.898438 -1.703125 8.75 -1.226562 8.5625 -0.84375 C 8.332031 -0.382812 8.050781 -0.0820312 7.71875 0.0625 C 7.394531 0.21875 7.015625 0.296875 6.578125 0.296875 C 6.316406 0.296875 6.035156 0.269531 5.734375 0.21875 C 5.429688 0.175781 5.175781 0.128906 4.96875 0.078125 L 4.796875 -0.96875 C 5.085938 -0.882812 5.394531 -0.8125 5.71875 -0.75 C 6.039062 -0.695312 6.300781 -0.671875 6.5 -0.671875 C 6.757812 -0.671875 6.992188 -0.710938 7.203125 -0.796875 C 7.410156 -0.890625 7.585938 -1.085938 7.734375 -1.390625 C 7.878906 -1.710938 8 -2.109375 8.09375 -2.578125 C 8.195312 -3.054688 8.273438 -3.566406 8.328125 -4.109375 C 8.378906 -4.660156 8.40625 -5.1875 8.40625 -5.6875 C 8.40625 -6.125 8.34375 -6.445312 8.21875 -6.65625 C 8.09375 -6.875 7.914062 -7.019531 7.6875 -7.09375 C 7.46875 -7.164062 7.207031 -7.203125 6.90625 -7.203125 C 6.726562 -7.203125 6.503906 -7.191406 6.234375 -7.171875 C 5.960938 -7.160156 5.664062 -7.140625 5.34375 -7.109375 C 5.175781 -6.453125 4.960938 -5.695312 4.703125 -4.84375 C 4.441406 -3.988281 4.117188 -3.113281 3.734375 -2.21875 C 3.359375 -1.332031 2.925781 -0.488281 2.4375 0.3125 L 1.40625 -0.09375 C 1.757812 -0.570312 2.085938 -1.113281 2.390625 -1.71875 C 2.691406 -2.320312 2.96875 -2.941406 3.21875 -3.578125 C 3.46875 -4.210938 3.6875 -4.828125 3.875 -5.421875 C 4.0625 -6.023438 4.210938 -6.554688 4.328125 -7.015625 C 3.960938 -6.972656 3.613281 -6.929688 3.28125 -6.890625 C 2.945312 -6.859375 2.6875 -6.832031 2.5 -6.8125 C 2.34375 -6.800781 2.144531 -6.78125 1.90625 -6.75 C 1.675781 -6.71875 1.472656 -6.6875 1.296875 -6.65625 L 1.203125 -7.765625 C 1.410156 -7.753906 1.609375 -7.75 1.796875 -7.75 C 1.984375 -7.75 2.179688 -7.753906 2.390625 -7.765625 C 2.617188 -7.773438 2.925781 -7.789062 3.3125 -7.8125 C 3.707031 -7.84375 4.117188 -7.878906 4.546875 -7.921875 C 4.648438 -8.410156 4.734375 -8.914062 4.796875 -9.4375 C 4.859375 -9.96875 4.890625 -10.460938 4.890625 -10.921875 Z M 9.890625 -8.90625 L 10.796875 -9.3125 C 11.015625 -9.03125 11.242188 -8.679688 11.484375 -8.265625 C 11.734375 -7.847656 11.976562 -7.398438 12.21875 -6.921875 C 12.457031 -6.453125 12.675781 -5.992188 12.875 -5.546875 C 13.070312 -5.109375 13.234375 -4.734375 13.359375 -4.421875 L 12.390625 -3.9375 C 12.285156 -4.289062 12.140625 -4.691406 11.953125 -5.140625 C 11.773438 -5.597656 11.570312 -6.0625 11.34375 -6.53125 C 11.125 -7 10.890625 -7.441406 10.640625 -7.859375 C 10.390625 -8.273438 10.140625 -8.625 9.890625 -8.90625 Z M 9.890625 -8.90625 "/></g></g></g><g fill="#000000" fill-opacity="1"><g transform="translate(174.987404, 95.903921)"><g><path d="M 4.453125 -9.875 L 4.703125 -10.828125 C 4.984375 -10.734375 5.359375 -10.632812 5.828125 -10.53125 C 6.296875 -10.425781 6.789062 -10.316406 7.3125 -10.203125 C 7.84375 -10.097656 8.347656 -10.003906 8.828125 -9.921875 C 9.304688 -9.847656 9.695312 -9.796875 10 -9.765625 L 9.765625 -8.8125 C 9.441406 -8.851562 9.035156 -8.914062 8.546875 -9 C 8.054688 -9.082031 7.546875 -9.179688 7.015625 -9.296875 C 6.484375 -9.410156 5.988281 -9.515625 5.53125 -9.609375 C 5.070312 -9.710938 4.710938 -9.800781 4.453125 -9.875 Z M 4.328125 -8.359375 C 4.285156 -8.117188 4.238281 -7.820312 4.1875 -7.46875 C 4.132812 -7.113281 4.082031 -6.742188 4.03125 -6.359375 C 3.976562 -5.984375 3.925781 -5.617188 3.875 -5.265625 C 3.832031 -4.921875 3.796875 -4.640625 3.765625 -4.421875 C 4.429688 -5.023438 5.144531 -5.460938 5.90625 -5.734375 C 6.664062 -6.003906 7.46875 -6.140625 8.3125 -6.140625 C 9 -6.140625 9.601562 -6.015625 10.125 -5.765625 C 10.644531 -5.515625 11.050781 -5.171875 11.34375 -4.734375 C 11.644531 -4.304688 11.796875 -3.828125 11.796875 -3.296875 C 11.796875 -2.472656 11.539062 -1.757812 11.03125 -1.15625 C 10.519531 -0.5625 9.726562 -0.125 8.65625 0.15625 C 7.582031 0.4375 6.210938 0.507812 4.546875 0.375 L 4.234375 -0.640625 C 5.703125 -0.460938 6.914062 -0.472656 7.875 -0.671875 C 8.84375 -0.867188 9.5625 -1.203125 10.03125 -1.671875 C 10.507812 -2.140625 10.75 -2.691406 10.75 -3.328125 C 10.75 -3.710938 10.640625 -4.046875 10.421875 -4.328125 C 10.203125 -4.617188 9.90625 -4.84375 9.53125 -5 C 9.15625 -5.164062 8.726562 -5.25 8.25 -5.25 C 7.300781 -5.25 6.460938 -5.085938 5.734375 -4.765625 C 5.015625 -4.441406 4.410156 -3.984375 3.921875 -3.390625 C 3.734375 -3.160156 3.597656 -2.929688 3.515625 -2.703125 L 2.5625 -2.9375 C 2.625 -3.25 2.691406 -3.644531 2.765625 -4.125 C 2.847656 -4.601562 2.921875 -5.113281 2.984375 -5.65625 C 3.054688 -6.207031 3.113281 -6.734375 3.15625 -7.234375 C 3.207031 -7.734375 3.242188 -8.15625 3.265625 -8.5 Z M 4.328125 -8.359375 "/></g></g></g><g clip-path="url(#c80c91bc0b)"><g clip-path="url(#f723c0b15a)"><g clip-path="url(#f82e086f0a)"><g transform="matrix(1, 0, 0, 1, 596, 179)"><g clip-path="url(#1b48aac44e)"><g clip-path="url(#4e8dc3555c)"><g clip-path="url(#f92f83394a)"><g clip-path="url(#e4f2d3b1e9)"><path fill="#f4d65d" d="M -2.535156 2.785156 L 32.679688 -1.078125 L 38.53125 52.292969 L 3.316406 56.15625 Z M -2.535156 2.785156 " fill-opacity="1" fill-rule="nonzero"/></g></g></g></g></g></g></g></g><path fill="#ffde59" d="M 134.6875 194.78125 L 142.515625 190.335938 L 143.996094 192.945312 L 136.167969 197.390625 M 145.121094 188.855469 L 152.949219 184.410156 L 154.429688 187.019531 L 146.605469 191.464844 M 155.558594 182.929688 L 163.382812 178.484375 L 164.863281 181.09375 L 157.039062 185.535156 M 165.992188 177.003906 L 173.816406 172.558594 L 175.300781 175.167969 L 167.472656 179.609375 M 176.425781 171.078125 L 184.253906 166.632812 L 185.734375 169.242188 L 177.90625 173.683594 M 186.859375 165.148438 L 194.6875 160.707031 L 196.167969 163.3125 L 188.34375 167.757812 M 197.296875 159.222656 L 205.121094 154.78125 L 206.601562 157.386719 L 198.777344 161.832031 M 207.730469 153.296875 L 215.554688 148.851562 L 217.039062 151.460938 L 209.210938 155.90625 M 218.164062 147.371094 L 225.992188 142.925781 L 227.472656 145.535156 L 219.644531 149.980469 M 228.597656 141.445312 L 236.425781 137 L 237.90625 139.609375 L 230.082031 144.054688 M 239.035156 135.519531 L 246.859375 131.074219 L 248.339844 133.683594 L 240.515625 138.128906 M 249.46875 129.59375 L 257.292969 125.148438 L 258.777344 127.757812 L 250.949219 132.203125 M 259.902344 123.667969 L 267.730469 119.222656 L 269.210938 121.832031 L 261.386719 126.277344 M 270.339844 117.742188 L 271.65625 116.992188 L 273.136719 119.601562 L 271.820312 120.351562 " fill-opacity="1" fill-rule="nonzero"/><path fill="#ffde59" d="M 216.320312 263.777344 L 223.742188 258.683594 L 225.4375 261.160156 L 218.019531 266.25 M 226.214844 256.988281 L 233.632812 251.894531 L 235.332031 254.367188 L 227.910156 259.460938 M 236.105469 250.195312 L 243.527344 245.101562 L 245.226562 247.574219 L 237.804688 252.667969 M 246 243.402344 L 253.421875 238.308594 L 255.117188 240.785156 L 247.699219 245.878906 M 255.894531 236.613281 L 263.3125 231.519531 L 265.011719 233.992188 L 257.589844 239.085938 M 265.785156 229.820312 L 273.207031 224.726562 L 274.90625 227.199219 L 267.484375 232.292969 M 275.679688 223.03125 L 283.101562 217.9375 L 284.796875 220.410156 L 277.378906 225.503906 M 285.574219 216.238281 L 285.832031 216.058594 L 287.53125 218.53125 L 287.269531 218.710938 " fill-opacity="1" fill-rule="nonzero"/><path fill="#ffde59" d="M 205.542969 370.082031 L 213.835938 366.582031 L 215 369.347656 L 206.710938 372.847656 M 216.597656 365.414062 L 224.890625 361.914062 L 226.054688 364.679688 L 217.765625 368.179688 M 227.652344 360.75 L 235.945312 357.25 L 237.113281 360.011719 L 228.820312 363.511719 M 238.707031 356.082031 L 247 352.582031 L 248.167969 355.347656 L 239.875 358.847656 M 249.765625 351.414062 L 258.054688 347.914062 L 259.222656 350.679688 L 250.929688 354.179688 M 260.820312 346.75 L 269.109375 343.25 L 270.277344 346.011719 L 261.988281 349.511719 M 271.875 342.082031 L 280.167969 338.582031 L 281.332031 341.347656 L 273.042969 344.847656 M 282.929688 337.414062 L 291.222656 333.914062 L 292.390625 336.679688 L 284.097656 340.179688 M 293.984375 332.75 L 302.277344 329.25 L 303.445312 332.011719 L 295.152344 335.511719 M 305.042969 328.082031 L 313.332031 324.582031 L 314.5 327.347656 L 306.207031 330.847656 M 316.097656 323.414062 L 324.386719 319.914062 L 325.554688 322.679688 L 317.261719 326.179688 M 327.152344 318.75 L 335.445312 315.25 L 336.609375 318.011719 L 328.320312 321.511719 M 338.207031 314.082031 L 346.5 310.582031 L 347.664062 313.34375 L 339.375 316.84375 M 349.261719 309.414062 L 357.554688 305.914062 L 358.722656 308.679688 L 350.429688 312.179688 M 360.320312 304.75 L 368.609375 301.25 L 369.777344 304.011719 L 361.484375 307.511719 M 371.375 300.082031 L 378.695312 296.992188 L 379.859375 299.753906 L 372.539062 302.84375 " fill-opacity="1" fill-rule="nonzero"/><path fill="#ffde59" d="M 196.847656 364.269531 L 199.164062 355.570312 L 202.0625 356.34375 L 199.746094 365.039062 M 199.933594 352.671875 L 202.25 343.976562 L 205.148438 344.746094 L 202.835938 353.445312 M 203.023438 341.078125 L 205.335938 332.378906 L 208.238281 333.152344 L 205.921875 341.847656 M 206.109375 329.480469 L 208.425781 320.785156 L 211.324219 321.554688 L 209.007812 330.253906 M 209.195312 317.882812 L 211.511719 309.1875 L 214.410156 309.960938 L 212.09375 318.65625 M 212.285156 306.289062 L 214.597656 297.589844 L 217.5 298.363281 L 215.183594 307.058594 M 215.371094 294.691406 L 217.6875 285.996094 L 220.585938 286.765625 L 218.269531 295.464844 M 218.457031 283.097656 L 220.773438 274.398438 L 223.671875 275.171875 L 221.355469 283.867188 M 221.546875 271.5 L 221.785156 270.59375 L 224.683594 271.367188 L 224.445312 272.273438 " fill-opacity="1" fill-rule="nonzero"/><path fill="#ffde59" d="M 224.199219 266.289062 L 216.574219 261.503906 L 218.167969 258.964844 L 225.792969 263.746094 M 214.03125 259.910156 L 206.410156 255.128906 L 208.003906 252.585938 L 215.628906 257.371094 M 203.867188 253.535156 L 196.242188 248.753906 L 197.835938 246.210938 L 205.460938 250.992188 M 193.703125 247.160156 L 186.078125 242.375 L 187.671875 239.835938 L 195.296875 244.617188 M 183.535156 240.78125 L 175.914062 236 L 177.507812 233.457031 L 185.128906 238.242188 M 173.371094 234.40625 L 165.746094 229.621094 L 167.339844 227.082031 L 174.964844 231.863281 M 163.207031 228.027344 L 155.582031 223.246094 L 157.175781 220.703125 L 164.800781 225.488281 M 153.039062 221.652344 L 145.414062 216.871094 L 147.007812 214.328125 L 154.632812 219.109375 M 142.875 215.277344 L 135.25 210.492188 L 136.84375 207.953125 L 144.46875 212.734375 " fill-opacity="1" fill-rule="nonzero"/><path fill="#ffde59" d="M 291.839844 202.441406 L 290.597656 193.527344 L 293.566406 193.113281 L 294.808594 202.027344 M 290.183594 190.554688 L 288.941406 181.640625 L 291.910156 181.226562 L 293.152344 190.140625 M 288.527344 178.667969 L 287.285156 169.753906 L 290.253906 169.339844 L 291.496094 178.253906 M 286.871094 166.785156 L 285.628906 157.871094 L 288.601562 157.457031 L 289.839844 166.371094 M 285.214844 154.898438 L 283.972656 145.984375 L 286.945312 145.570312 L 288.1875 154.484375 M 283.558594 143.015625 L 282.316406 134.101562 L 285.289062 133.6875 L 286.53125 142.601562 M 281.902344 131.128906 L 280.660156 122.214844 L 283.632812 121.800781 L 284.875 130.714844 M 280.246094 119.242188 L 279.511719 113.96875 L 282.480469 113.554688 L 283.21875 118.828125 " fill-opacity="1" fill-rule="nonzero"/><path fill="#ffde59" d="M 370.621094 294.644531 L 364.632812 287.925781 L 366.871094 285.929688 L 372.859375 292.644531 M 362.636719 285.6875 L 356.644531 278.96875 L 358.886719 276.972656 L 364.875 283.691406 M 354.648438 276.730469 L 348.660156 270.011719 L 350.898438 268.015625 L 356.890625 274.734375 M 346.664062 267.773438 L 340.675781 261.054688 L 342.914062 259.058594 L 348.902344 265.777344 M 338.679688 258.816406 L 332.6875 252.097656 L 334.929688 250.101562 L 340.917969 256.820312 M 330.691406 249.859375 L 324.703125 243.140625 L 326.941406 241.144531 L 332.933594 247.863281 M 322.707031 240.902344 L 316.71875 234.183594 L 318.957031 232.1875 L 324.945312 238.90625 M 314.722656 231.945312 L 308.730469 225.226562 L 310.972656 223.230469 L 316.960938 229.949219 M 306.734375 222.988281 L 300.746094 216.269531 L 302.984375 214.273438 L 308.972656 220.992188 M 298.75 214.03125 L 295.023438 209.851562 L 297.261719 207.855469 L 300.988281 212.035156 " fill-opacity="1" fill-rule="nonzero"/><g clip-path="url(#b7f82c9895)"><g clip-path="url(#1f1a460fcf)"><g transform="matrix(1, 0, 0, 1, 539, 354)"><g clip-path="url(#8b61205aa1)"><g clip-path="url(#3fc4dcdf4b)"><g clip-path="url(#2a39899226)"><path fill="#fcfcfd" d="M 0.527344 0.976562 L 17.015625 0.976562 L 17.015625 17.464844 L 0.527344 17.464844 Z M 0.527344 0.976562 " fill-opacity="1" fill-rule="nonzero"/></g></g></g></g></g></g><g clip-path="url(#8fb88badb0)"><g clip-path="url(#9d2215b71e)"><g transform="matrix(1, 0, 0, 1, 112, 189)"><g clip-path="url(#0598ffb589)"><g clip-path="url(#f59ff109c3)"><g clip-path="url(#4c6b7d0822)"><path fill="#fcfcfd" d="M 0.5 0.878906 L 25.027344 0.878906 L 25.027344 25.40625 L 0.5 25.40625 Z M 0.5 0.878906 " fill-opacity="1" fill-rule="nonzero"/></g></g></g></g></g></g><g clip-path="url(#802707caec)"><g clip-path="url(#b18aef8e70)"><g transform="matrix(1, 0, 0, 1, 271, 104)"><g clip-path="url(#a93a9b83a8)"><g clip-path="url(#c1bb4271a6)"><g clip-path="url(#bf5dfaeafd)"><path fill="#fcfcfd" d="M 0.230469 0.890625 L 18.175781 0.890625 L 18.175781 18.839844 L 0.230469 18.839844 Z M 0.230469 0.890625 " fill-opacity="1" fill-rule="nonzero"/></g></g></g></g></g></g><g clip-path="url(#3599c419cd)"><g clip-path="url(#48de901233)"><g transform="matrix(1, 0, 0, 1, 212, 249)"><g clip-path="url(#2eca0ee647)"><g clip-path="url(#0de00b9548)"><g clip-path="url(#111c368e61)"><path fill="#fcfcfd" d="M 0.507812 0.519531 L 21.972656 0.519531 L 21.972656 21.984375 L 0.507812 21.984375 Z M 0.507812 0.519531 " fill-opacity="1" fill-rule="nonzero"/></g></g></g></g></g></g><g clip-path="url(#0d2c225c2f)"><g clip-path="url(#cd3f974ad8)"><g transform="matrix(1, 0, 0, 1, 284, 202)"><g clip-path="url(#bda70ec6d9)"><g clip-path="url(#ba3dcc8df0)"><g clip-path="url(#9f1d77b097)"><path fill="#fcfcfd" d="M 0.984375 0.144531 L 20.339844 0.144531 L 20.339844 19.5 L 0.984375 19.5 Z M 0.984375 0.144531 " fill-opacity="1" fill-rule="nonzero"/></g></g></g></g></g></g><g clip-path="url(#f7703356e8)"><g clip-path="url(#8ed6d1c1cc)"><g transform="matrix(1, 0, 0, 1, 244, 228)"><g clip-path="url(#655e574b3c)"><g clip-path="url(#67449197f5)"><g clip-path="url(#2786c18b4b)"><path fill="#fcfcfd" d="M 0.84375 0.753906 L 21.609375 0.753906 L 21.609375 21.519531 L 0.84375 21.519531 Z M 0.84375 0.753906 " fill-opacity="1" fill-rule="nonzero"/></g></g></g></g></g></g><g clip-path="url(#2a1f3c17a9)"><g clip-path="url(#cba1b1ce56)"><g transform="matrix(1, 0, 0, 1, 183, 364)"><g clip-path="url(#0f584f4ea5)"><g clip-path="url(#d7fac13ca9)"><g clip-path="url(#940a26f526)"><path fill="#fcfcfd" d="M 0.492188 0.265625 L 24.050781 0.265625 L 24.050781 23.824219 L 0.492188 23.824219 Z M 0.492188 0.265625 " fill-opacity="1" fill-rule="nonzero"/></g></g></g></g></g></g><g clip-path="url(#e14db47d79)"><g clip-path="url(#005dfd084e)"><g transform="matrix(1, 0, 0, 1, 368, 291)"><g clip-path="url(#2e8f7e5027)"><g clip-path="url(#116a901492)"><g clip-path="url(#64eeb0273c)"><path fill="#fcfcfd" d="M 0.511719 0.195312 L 19.867188 0.195312 L 19.867188 19.550781 L 0.511719 19.550781 Z M 0.511719 0.195312 " fill-opacity="1" fill-rule="nonzero"/></g></g></g></g></g></g><g clip-path="url(#5df95f695d)"><g clip-path="url(#6c8abf4fec)"><g transform="matrix(1, 0, 0, 1, 597, 425)"><g clip-path="url(#0338542fea)"><g clip-path="url(#9073fe2e9f)"><g clip-path="url(#02d942b386)"><path fill="#fcfcfd" d="M 0.511719 0.359375 L 23.503906 0.359375 L 23.503906 23.351562 L 0.511719 23.351562 Z M 0.511719 0.359375 " fill-opacity="1" fill-rule="nonzero"/></g></g></g></g></g></g><g clip-path="url(#b3a16443ac)"><g clip-path="url(#b78a431175)"><g transform="matrix(1, 0, 0, 1, 75, 407)"><g clip-path="url(#6364beea3d)"><g clip-path="url(#5793780691)"><g clip-path="url(#d3d9323c8a)"><path fill="#fcfcfd" d="M 0 0.136719 L 12.6875 0.136719 L 12.6875 12.828125 L 0 12.828125 Z M 0 0.136719 " fill-opacity="1" fill-rule="nonzero"/></g></g></g></g></g></g></svg>