<svg xmlns="http://www.w3.org/2000/svg" xmlns:xlink="http://www.w3.org/1999/xlink" width="1000" zoomAndPan="magnify" viewBox="0 0 750 749.999995" height="1000" preserveAspectRatio="xMidYMid meet" version="1.0"><defs><clipPath id="c2fbb04462"><path d="M 110.683594 0.902344 L 227.328125 0.902344 L 227.328125 116.195312 L 110.683594 116.195312 Z M 110.683594 0.902344 " clip-rule="nonzero"/></clipPath><clipPath id="ddb8ab3979"><path d="M 168.890625 0.902344 C 136.742188 0.902344 110.683594 26.710938 110.683594 58.550781 C 110.683594 90.386719 136.742188 116.195312 168.890625 116.195312 C 201.039062 116.195312 227.101562 90.386719 227.101562 58.550781 C 227.101562 26.710938 201.039062 0.902344 168.890625 0.902344 Z M 168.890625 0.902344 " clip-rule="nonzero"/></clipPath><clipPath id="35703f82c0"><path d="M 0.683594 0.902344 L 117.121094 0.902344 L 117.121094 116.195312 L 0.683594 116.195312 Z M 0.683594 0.902344 " clip-rule="nonzero"/></clipPath><clipPath id="825449c215"><path d="M 58.890625 0.902344 C 26.742188 0.902344 0.683594 26.710938 0.683594 58.550781 C 0.683594 90.386719 26.742188 116.195312 58.890625 116.195312 C 91.039062 116.195312 117.101562 90.386719 117.101562 58.550781 C 117.101562 26.710938 91.039062 0.902344 58.890625 0.902344 Z M 58.890625 0.902344 " clip-rule="nonzero"/></clipPath><clipPath id="28dcd86894"><rect x="0" width="118" y="0" height="117"/></clipPath><clipPath id="eb5b0b5f26"><path d="M 131 58 L 207 58 L 207 349 L 131 349 Z M 131 58 " clip-rule="nonzero"/></clipPath><clipPath id="7fdf54d518"><path d="M 131.648438 63.394531 L 170.921875 58.550781 L 206.136719 343.957031 L 166.859375 348.804688 Z M 131.648438 63.394531 " clip-rule="nonzero"/></clipPath><clipPath id="1c50d5b889"><path d="M 0.601562 0.398438 L 75.238281 0.398438 L 75.238281 291 L 0.601562 291 Z M 0.601562 0.398438 " clip-rule="nonzero"/></clipPath><clipPath id="cb413dcb30"><path d="M 0.648438 5.394531 L 39.921875 0.550781 L 75.136719 285.957031 L 35.859375 290.804688 Z M 0.648438 5.394531 " clip-rule="nonzero"/></clipPath><clipPath id="fc7415b2d6"><rect x="0" width="76" y="0" height="291"/></clipPath><clipPath id="b0c4bd5c18"><path d="M 168.886719 184.074219 L 349.789062 184.074219 L 349.789062 223.265625 L 168.886719 223.265625 Z M 168.886719 184.074219 " clip-rule="nonzero"/></clipPath><clipPath id="49a1878932"><path d="M 0.886719 0.0742188 L 181.789062 0.0742188 L 181.789062 39.265625 L 0.886719 39.265625 Z M 0.886719 0.0742188 " clip-rule="nonzero"/></clipPath><clipPath id="3ae3ecd2d5"><rect x="0" width="182" y="0" height="40"/></clipPath><clipPath id="cdfd1670ee"><path d="M 168.898438 309.605469 L 409.914062 309.605469 L 409.914062 347.046875 L 168.898438 347.046875 Z M 168.898438 309.605469 " clip-rule="nonzero"/></clipPath><clipPath id="819a9ed1e7"><path d="M 168.898438 332.046875 L 168.898438 324.605469 C 168.898438 316.324219 175.613281 309.605469 183.898438 309.605469 L 394.863281 309.605469 C 403.148438 309.605469 409.863281 316.324219 409.863281 324.605469 L 409.863281 332.046875 C 409.863281 340.332031 403.148438 347.046875 394.863281 347.046875 L 183.898438 347.046875 C 175.613281 347.046875 168.898438 340.332031 168.898438 332.046875 Z M 168.898438 332.046875 " clip-rule="nonzero"/></clipPath><clipPath id="a04876be5a"><path d="M 0.898438 0.605469 L 241.914062 0.605469 L 241.914062 38.046875 L 0.898438 38.046875 Z M 0.898438 0.605469 " clip-rule="nonzero"/></clipPath><clipPath id="7693c0c209"><path d="M 0.898438 23.046875 L 0.898438 15.605469 C 0.898438 7.324219 7.613281 0.605469 15.898438 0.605469 L 226.863281 0.605469 C 235.148438 0.605469 241.863281 7.324219 241.863281 15.605469 L 241.863281 23.046875 C 241.863281 31.332031 235.148438 38.046875 226.863281 38.046875 L 15.898438 38.046875 C 7.613281 38.046875 0.898438 31.332031 0.898438 23.046875 Z M 0.898438 23.046875 " clip-rule="nonzero"/></clipPath><clipPath id="5de01bab24"><rect x="0" width="242" y="0" height="39"/></clipPath><clipPath id="9e2af15382"><path d="M 377 314 L 494 314 L 494 541 L 377 541 Z M 377 314 " clip-rule="nonzero"/></clipPath><clipPath id="80fda68d72"><path d="M 373.375 323.785156 L 408.425781 309.613281 L 497.824219 530.722656 L 462.773438 544.894531 Z M 373.375 323.785156 " clip-rule="nonzero"/></clipPath><clipPath id="53ff63295b"><path d="M 387.28125 318.160156 L 394.519531 315.234375 C 402.199219 312.128906 410.941406 315.839844 414.046875 323.519531 L 492.195312 516.804688 C 495.300781 524.484375 491.589844 533.230469 483.910156 536.332031 L 476.675781 539.257812 C 468.996094 542.363281 460.25 538.65625 457.144531 530.976562 L 378.996094 337.691406 C 375.894531 330.011719 379.601562 321.265625 387.28125 318.160156 Z M 387.28125 318.160156 " clip-rule="nonzero"/></clipPath><clipPath id="10b2076c8d"><path d="M 0 0 L 117 0 L 117 227 L 0 227 Z M 0 0 " clip-rule="nonzero"/></clipPath><clipPath id="ed1b0d86be"><path d="M -3.625 9.785156 L 31.425781 -4.386719 L 120.824219 216.722656 L 85.773438 230.894531 Z M -3.625 9.785156 " clip-rule="nonzero"/></clipPath><clipPath id="6e1c031225"><path d="M 10.28125 4.160156 L 17.519531 1.234375 C 25.199219 -1.871094 33.941406 1.839844 37.046875 9.519531 L 115.195312 202.804688 C 118.300781 210.484375 114.589844 219.230469 106.910156 222.332031 L 99.675781 225.257812 C 91.996094 228.363281 83.25 224.65625 80.144531 216.976562 L 1.996094 23.691406 C -1.105469 16.011719 2.601562 7.265625 10.28125 4.160156 Z M 10.28125 4.160156 " clip-rule="nonzero"/></clipPath><clipPath id="66d4dc50e4"><rect x="0" width="117" y="0" height="227"/></clipPath><clipPath id="4d467995b2"><path d="M 458 383 L 587 383 L 587 553 L 458 553 Z M 458 383 " clip-rule="nonzero"/></clipPath><clipPath id="64de21f71f"><path d="M 487.453125 561.085938 L 450.019531 535.992188 L 557.957031 375.007812 L 595.386719 400.105469 Z M 487.453125 561.085938 " clip-rule="nonzero"/></clipPath><clipPath id="5ef24a477c"><path d="M 468.734375 548.539062 C 458.398438 541.609375 455.636719 527.613281 462.570312 517.273438 L 545.335938 393.832031 C 552.269531 383.496094 566.265625 380.734375 576.601562 387.664062 C 586.9375 394.59375 589.699219 408.589844 582.769531 418.929688 L 500 542.371094 C 493.070312 552.707031 479.070312 555.46875 468.734375 548.539062 Z M 468.734375 548.539062 " clip-rule="nonzero"/></clipPath><clipPath id="2664c0d990"><path d="M 0 0 L 129 0 L 129 170 L 0 170 Z M 0 0 " clip-rule="nonzero"/></clipPath><clipPath id="ea0a1a26b6"><path d="M 29.453125 178.085938 L -7.980469 152.992188 L 99.957031 -7.992188 L 137.386719 17.105469 Z M 29.453125 178.085938 " clip-rule="nonzero"/></clipPath><clipPath id="30b2f2afe2"><path d="M 10.734375 165.539062 C 0.398438 158.609375 -2.363281 144.613281 4.570312 134.273438 L 87.335938 10.832031 C 94.269531 0.496094 108.265625 -2.265625 118.601562 4.664062 C 128.9375 11.59375 131.699219 25.589844 124.769531 35.929688 L 42 159.371094 C 35.070312 169.707031 21.070312 172.46875 10.734375 165.539062 Z M 10.734375 165.539062 " clip-rule="nonzero"/></clipPath><clipPath id="472a3463f3"><rect x="0" width="129" y="0" height="170"/></clipPath><clipPath id="e6ab058ad0"><path d="M 114.128906 257.261719 L 405 257.261719 L 405 544.882812 L 114.128906 544.882812 Z M 114.128906 257.261719 " clip-rule="nonzero"/></clipPath><clipPath id="b06fc9377f"><path d="M 259.34375 257.261719 C 179.140625 257.261719 114.128906 321.648438 114.128906 401.074219 C 114.128906 480.496094 179.140625 544.882812 259.34375 544.882812 C 339.542969 544.882812 404.558594 480.496094 404.558594 401.074219 C 404.558594 321.648438 339.542969 257.261719 259.34375 257.261719 Z M 259.34375 257.261719 " clip-rule="nonzero"/></clipPath><clipPath id="50d8c780db"><path d="M 0.128906 0.261719 L 290.71875 0.261719 L 290.71875 287.882812 L 0.128906 287.882812 Z M 0.128906 0.261719 " clip-rule="nonzero"/></clipPath><clipPath id="e5ef0b9eb4"><path d="M 145.34375 0.261719 C 65.140625 0.261719 0.128906 64.648438 0.128906 144.074219 C 0.128906 223.496094 65.140625 287.882812 145.34375 287.882812 C 225.542969 287.882812 290.558594 223.496094 290.558594 144.074219 C 290.558594 64.648438 225.542969 0.261719 145.34375 0.261719 Z M 145.34375 0.261719 " clip-rule="nonzero"/></clipPath><clipPath id="96638f3e40"><rect x="0" width="291" y="0" height="288"/></clipPath><clipPath id="10cee47218"><path d="M 114.128906 257.261719 L 404.554688 257.261719 L 404.554688 544.789062 L 114.128906 544.789062 Z M 114.128906 257.261719 " clip-rule="nonzero"/></clipPath><clipPath id="0c94b56bca"><path d="M 259.34375 257.261719 C 179.144531 257.261719 114.128906 321.648438 114.128906 401.070312 C 114.128906 480.496094 179.144531 544.878906 259.34375 544.878906 C 339.542969 544.878906 404.554688 480.496094 404.554688 401.070312 C 404.554688 321.648438 339.542969 257.261719 259.34375 257.261719 Z M 259.34375 257.261719 " clip-rule="nonzero"/></clipPath><clipPath id="404930210a"><rect x="0" width="596" y="0" height="656"/></clipPath></defs><rect x="-75" width="900" fill="#ffffff" y="-74.999999" height="899.999994" fill-opacity="1"/><rect x="-75" width="900" fill="#ffffff" y="-74.999999" height="899.999994" fill-opacity="1"/><g transform="matrix(1, 0, 0, 1, 22, 94)"><g clip-path="url(#404930210a)"><g clip-path="url(#c2fbb04462)"><g clip-path="url(#ddb8ab3979)"><g transform="matrix(1, 0, 0, 1, 110, -0.000000000000056843)"><g clip-path="url(#28dcd86894)"><g clip-path="url(#35703f82c0)"><g clip-path="url(#825449c215)"><path fill="#0cc0df" d="M 0.683594 0.902344 L 117.328125 0.902344 L 117.328125 116.195312 L 0.683594 116.195312 Z M 0.683594 0.902344 " fill-opacity="1" fill-rule="nonzero"/></g></g></g></g></g></g><g clip-path="url(#eb5b0b5f26)"><g clip-path="url(#7fdf54d518)"><g transform="matrix(1, 0, 0, 1, 131, 58)"><g clip-path="url(#fc7415b2d6)"><g clip-path="url(#1c50d5b889)"><g clip-path="url(#cb413dcb30)"><path fill="#0cc0df" d="M 0.648438 5.394531 L 39.921875 0.550781 L 75.128906 285.902344 L 35.855469 290.746094 Z M 0.648438 5.394531 " fill-opacity="1" fill-rule="nonzero"/></g></g></g></g></g></g><g clip-path="url(#b0c4bd5c18)"><g transform="matrix(1, 0, 0, 1, 168, 184)"><g clip-path="url(#3ae3ecd2d5)"><g clip-path="url(#49a1878932)"><path fill="#0cc0df" d="M 0.886719 39.265625 L 0.886719 0.0742188 L 181.832031 0.0742188 L 181.832031 39.265625 Z M 0.886719 39.265625 " fill-opacity="1" fill-rule="nonzero"/></g></g></g></g><g clip-path="url(#cdfd1670ee)"><g clip-path="url(#819a9ed1e7)"><g transform="matrix(1, 0, 0, 1, 168, 309)"><g clip-path="url(#5de01bab24)"><g clip-path="url(#a04876be5a)"><g clip-path="url(#7693c0c209)"><path fill="#0cc0df" d="M 0.898438 38.046875 L 0.898438 0.605469 L 241.914062 0.605469 L 241.914062 38.046875 Z M 0.898438 38.046875 " fill-opacity="1" fill-rule="nonzero"/></g></g></g></g></g></g><g clip-path="url(#9e2af15382)"><g clip-path="url(#80fda68d72)"><g clip-path="url(#53ff63295b)"><g transform="matrix(1, 0, 0, 1, 377, 314)"><g clip-path="url(#66d4dc50e4)"><g clip-path="url(#10b2076c8d)"><g clip-path="url(#ed1b0d86be)"><g clip-path="url(#6e1c031225)"><path fill="#0cc0df" d="M -3.625 9.785156 L 31.425781 -4.386719 L 120.824219 216.722656 L 85.773438 230.894531 Z M -3.625 9.785156 " fill-opacity="1" fill-rule="nonzero"/></g></g></g></g></g></g></g></g><g clip-path="url(#4d467995b2)"><g clip-path="url(#64de21f71f)"><g clip-path="url(#5ef24a477c)"><g transform="matrix(1, 0, 0, 1, 458, 383)"><g clip-path="url(#472a3463f3)"><g clip-path="url(#2664c0d990)"><g clip-path="url(#ea0a1a26b6)"><g clip-path="url(#30b2f2afe2)"><path fill="#0cc0df" d="M 29.453125 178.085938 L -7.980469 152.992188 L 99.859375 -7.84375 L 137.289062 17.25 Z M 29.453125 178.085938 " fill-opacity="1" fill-rule="nonzero"/></g></g></g></g></g></g></g></g><g clip-path="url(#e6ab058ad0)"><g clip-path="url(#b06fc9377f)"><g transform="matrix(1, 0, 0, 1, 114, 257)"><g clip-path="url(#96638f3e40)"><g clip-path="url(#50d8c780db)"><g clip-path="url(#e5ef0b9eb4)"><path fill="#ffffff" d="M 0.128906 0.261719 L 291.117188 0.261719 L 291.117188 287.882812 L 0.128906 287.882812 Z M 0.128906 0.261719 " fill-opacity="1" fill-rule="nonzero"/></g></g></g></g></g></g><g clip-path="url(#10cee47218)"><g clip-path="url(#0c94b56bca)"><path stroke-linecap="butt" transform="matrix(0.968103, 0, 0, 0.968103, 114.128526, 257.26347)" fill="none" stroke-linejoin="miter" d="M 149.999829 -0.00180904 C 67.158177 -0.00180904 0.000392349 66.506347 0.000392349 148.545044 C 0.000392349 230.587776 67.158177 297.091897 149.999829 297.091897 C 232.841482 297.091897 299.995231 230.587776 299.995231 148.545044 C 299.995231 66.506347 232.841482 -0.00180904 149.999829 -0.00180904 Z M 149.999829 -0.00180904 " stroke="#0cc0df" stroke-width="57.328625" stroke-opacity="1" stroke-miterlimit="4"/></g></g></g></g></svg>