<svg xmlns="http://www.w3.org/2000/svg" xmlns:xlink="http://www.w3.org/1999/xlink" width="1000" zoomAndPan="magnify" viewBox="0 0 750 749.999995" height="1000" preserveAspectRatio="xMidYMid meet" version="1.0"><defs><clipPath id="dd02f2ee53"><path d="M 262.5 21.503906 L 487.5 21.503906 L 487.5 246.503906 L 262.5 246.503906 Z M 262.5 21.503906 " clip-rule="nonzero"/></clipPath><clipPath id="39caecc823"><path d="M 375 21.503906 C 312.867188 21.503906 262.5 71.871094 262.5 134.003906 C 262.5 196.136719 312.867188 246.503906 375 246.503906 C 437.132812 246.503906 487.5 196.136719 487.5 134.003906 C 487.5 71.871094 437.132812 21.503906 375 21.503906 Z M 375 21.503906 " clip-rule="nonzero"/></clipPath><clipPath id="b5bbebb285"><path d="M 0.5 0.503906 L 225.5 0.503906 L 225.5 225.503906 L 0.5 225.503906 Z M 0.5 0.503906 " clip-rule="nonzero"/></clipPath><clipPath id="4da3fc534a"><path d="M 113 0.503906 C 50.867188 0.503906 0.5 50.871094 0.5 113.003906 C 0.5 175.136719 50.867188 225.503906 113 225.503906 C 175.132812 225.503906 225.5 175.136719 225.5 113.003906 C 225.5 50.871094 175.132812 0.503906 113 0.503906 Z M 113 0.503906 " clip-rule="nonzero"/></clipPath><clipPath id="519f015be7"><rect x="0" width="226" y="0" height="226"/></clipPath><clipPath id="1fc140e2d5"><path d="M 262.5 262.5 L 487.5 262.5 L 487.5 706.347656 L 262.5 706.347656 Z M 262.5 262.5 " clip-rule="nonzero"/></clipPath><clipPath id="8a7152fa99"><path d="M 337.5 262.5 L 412.5 262.5 C 432.390625 262.5 451.46875 270.402344 465.53125 284.46875 C 479.597656 298.53125 487.5 317.609375 487.5 337.5 L 487.5 631.164062 C 487.5 651.054688 479.597656 670.132812 465.53125 684.195312 C 451.46875 698.261719 432.390625 706.164062 412.5 706.164062 L 337.5 706.164062 C 317.609375 706.164062 298.53125 698.261719 284.46875 684.195312 C 270.402344 670.132812 262.5 651.054688 262.5 631.164062 L 262.5 337.5 C 262.5 317.609375 270.402344 298.53125 284.46875 284.46875 C 298.53125 270.402344 317.609375 262.5 337.5 262.5 Z M 337.5 262.5 " clip-rule="nonzero"/></clipPath><clipPath id="64db5e0c8d"><path d="M 0.5 0.5 L 225.5 0.5 L 225.5 444.320312 L 0.5 444.320312 Z M 0.5 0.5 " clip-rule="nonzero"/></clipPath><clipPath id="1e0777b90e"><path d="M 75.5 0.5 L 150.5 0.5 C 170.390625 0.5 189.46875 8.402344 203.53125 22.46875 C 217.597656 36.53125 225.5 55.609375 225.5 75.5 L 225.5 369.164062 C 225.5 389.054688 217.597656 408.132812 203.53125 422.195312 C 189.46875 436.261719 170.390625 444.164062 150.5 444.164062 L 75.5 444.164062 C 55.609375 444.164062 36.53125 436.261719 22.46875 422.195312 C 8.402344 408.132812 0.5 389.054688 0.5 369.164062 L 0.5 75.5 C 0.5 55.609375 8.402344 36.53125 22.46875 22.46875 C 36.53125 8.402344 55.609375 0.5 75.5 0.5 Z M 75.5 0.5 " clip-rule="nonzero"/></clipPath><clipPath id="15248445b4"><rect x="0" width="226" y="0" height="445"/></clipPath><clipPath id="1c7070e9c0"><path d="M 125 295 L 625 295 L 625 622.050781 L 125 622.050781 Z M 125 295 " clip-rule="nonzero"/></clipPath><clipPath id="62b18ee466"><path d="M 417.902344 316.539062 L 617.539062 568.007812 C 625.492188 578.023438 627.011719 591.703125 621.449219 603.21875 C 615.890625 614.734375 604.230469 622.050781 591.441406 622.050781 L 158.558594 622.050781 C 145.769531 622.050781 134.109375 614.734375 128.550781 603.21875 C 122.988281 591.703125 124.507812 578.023438 132.460938 568.007812 L 332.097656 316.539062 C 342.488281 303.453125 358.289062 295.820312 375 295.820312 C 391.710938 295.820312 407.511719 303.453125 417.902344 316.539062 Z M 417.902344 316.539062 " clip-rule="nonzero"/></clipPath><clipPath id="9582ceefb9"><path d="M 0 0.679688 L 500 0.679688 L 500 327.050781 L 0 327.050781 Z M 0 0.679688 " clip-rule="nonzero"/></clipPath><clipPath id="848797cdeb"><path d="M 292.902344 21.539062 L 492.539062 273.007812 C 500.492188 283.023438 502.011719 296.703125 496.449219 308.21875 C 490.890625 319.734375 479.230469 327.050781 466.441406 327.050781 L 33.558594 327.050781 C 20.769531 327.050781 9.109375 319.734375 3.550781 308.21875 C -2.011719 296.703125 -0.492188 283.023438 7.460938 273.007812 L 207.097656 21.539062 C 217.488281 8.453125 233.289062 0.820312 250 0.820312 C 266.710938 0.820312 282.511719 8.453125 292.902344 21.539062 Z M 292.902344 21.539062 " clip-rule="nonzero"/></clipPath><clipPath id="20c9c79aaa"><rect x="0" width="500" y="0" height="328"/></clipPath></defs><rect x="-75" width="900" fill="#ffffff" y="-74.999999" height="899.999994" fill-opacity="1"/><rect x="-75" width="900" fill="#ffffff" y="-74.999999" height="899.999994" fill-opacity="1"/><g clip-path="url(#dd02f2ee53)"><g clip-path="url(#39caecc823)"><g transform="matrix(1, 0, 0, 1, 262, 21)"><g clip-path="url(#519f015be7)"><g clip-path="url(#b5bbebb285)"><g clip-path="url(#4da3fc534a)"><path fill="#ff66c4" d="M 0.5 0.503906 L 225.5 0.503906 L 225.5 225.503906 L 0.5 225.503906 Z M 0.5 0.503906 " fill-opacity="1" fill-rule="nonzero"/></g></g></g></g></g></g><g clip-path="url(#1fc140e2d5)"><g clip-path="url(#8a7152fa99)"><g transform="matrix(1, 0, 0, 1, 262, 262)"><g clip-path="url(#15248445b4)"><g clip-path="url(#64db5e0c8d)"><g clip-path="url(#1e0777b90e)"><path fill="#ff66c4" d="M 0.5 0.5 L 225.5 0.5 L 225.5 444.347656 L 0.5 444.347656 Z M 0.5 0.5 " fill-opacity="1" fill-rule="nonzero"/></g></g></g></g></g></g><g clip-path="url(#1c7070e9c0)"><g clip-path="url(#62b18ee466)"><g transform="matrix(1, 0, 0, 1, 125, 295)"><g clip-path="url(#20c9c79aaa)"><g clip-path="url(#9582ceefb9)"><g clip-path="url(#848797cdeb)"><path fill="#ff66c4" d="M -35.441406 -32.5 L 534.78125 -32.5 L 534.78125 327.050781 L -35.441406 327.050781 Z M -35.441406 -32.5 " fill-opacity="1" fill-rule="nonzero"/></g></g></g></g></g></g></svg>