<svg xmlns="http://www.w3.org/2000/svg" xmlns:xlink="http://www.w3.org/1999/xlink" width="1000" zoomAndPan="magnify" viewBox="0 0 750 749.999995" height="1000" preserveAspectRatio="xMidYMid meet" version="1.0"><defs><clipPath id="8dc8cb27ab"><path d="M 86 265 L 534 265 L 534 564 L 86 564 Z M 86 265 " clip-rule="nonzero"/></clipPath><clipPath id="621a1ce77a"><path d="M 86.960938 333.640625 L 495.375 265.878906 L 533.433594 495.242188 L 125.015625 563.007812 Z M 86.960938 333.640625 " clip-rule="nonzero"/></clipPath><clipPath id="126e184d4e"><path d="M 86.960938 333.640625 L 495.570312 265.84375 L 533.6875 495.566406 L 125.078125 563.363281 Z M 86.960938 333.640625 " clip-rule="nonzero"/></clipPath><clipPath id="e527a2cb4f"><path d="M 79 276 L 527 276 L 527 574 L 79 574 Z M 79 276 " clip-rule="nonzero"/></clipPath><clipPath id="6d5d2735fa"><path d="M 79.5 343.953125 L 488.121094 276.15625 L 526.234375 505.882812 L 117.617188 573.683594 Z M 79.5 343.953125 " clip-rule="nonzero"/></clipPath><clipPath id="eaca1bdf15"><path d="M 0.441406 0 L 447 0 L 447 297.839844 L 0.441406 297.839844 Z M 0.441406 0 " clip-rule="nonzero"/></clipPath><clipPath id="5e39f1c796"><path d="M 0.5 67.953125 L 409.121094 0.15625 L 447.234375 229.882812 L 38.617188 297.683594 Z M 0.5 67.953125 " clip-rule="nonzero"/></clipPath><clipPath id="6c441d04e1"><rect x="0" width="448" y="0" height="298"/></clipPath><clipPath id="58da3e6bc0"><path d="M 79 276 L 526 276 L 526 574 L 79 574 Z M 79 276 " clip-rule="nonzero"/></clipPath><clipPath id="1d4f43855e"><path d="M 79.5 343.953125 L 487.917969 276.1875 L 525.972656 505.550781 L 117.558594 573.316406 Z M 79.5 343.953125 " clip-rule="nonzero"/></clipPath><clipPath id="313851b686"><path d="M 79.503906 343.953125 L 488.109375 276.15625 L 526.226562 505.878906 L 117.617188 573.675781 Z M 79.503906 343.953125 " clip-rule="nonzero"/></clipPath><clipPath id="89c08681fe"><path d="M 75 288 L 522 288 L 522 586 L 75 586 Z M 75 288 " clip-rule="nonzero"/></clipPath><clipPath id="37f48303eb"><path d="M 75 355.90625 L 483.621094 288.105469 L 521.734375 517.835938 L 113.117188 585.632812 Z M 75 355.90625 " clip-rule="nonzero"/></clipPath><clipPath id="82db4ee3b3"><path d="M 0 0 L 446.761719 0 L 446.761719 297.839844 L 0 297.839844 Z M 0 0 " clip-rule="nonzero"/></clipPath><clipPath id="6d24ba5f60"><path d="M 0 67.90625 L 408.621094 0.105469 L 446.734375 229.835938 L 38.117188 297.632812 Z M 0 67.90625 " clip-rule="nonzero"/></clipPath><clipPath id="159d0fd868"><rect x="0" width="447" y="0" height="298"/></clipPath><clipPath id="27f5bc1873"><path d="M 75 288 L 522 288 L 522 586 L 75 586 Z M 75 288 " clip-rule="nonzero"/></clipPath><clipPath id="c20b2fd606"><path d="M 75 355.90625 L 483.417969 288.140625 L 521.472656 517.503906 L 113.058594 585.269531 Z M 75 355.90625 " clip-rule="nonzero"/></clipPath><clipPath id="7c78441460"><path d="M 75.003906 355.90625 L 483.609375 288.109375 L 521.726562 517.828125 L 113.117188 585.625 Z M 75.003906 355.90625 " clip-rule="nonzero"/></clipPath><clipPath id="05280d1803"><path d="M 277 345 L 330 345 L 330 527 L 277 527 Z M 277 345 " clip-rule="nonzero"/></clipPath><clipPath id="0738493993"><path d="M 277.707031 348.875 L 301.054688 345.164062 L 329.234375 522.433594 L 305.890625 526.144531 Z M 277.707031 348.875 " clip-rule="nonzero"/></clipPath><clipPath id="94a45fa5e3"><path d="M 0.679688 0.121094 L 52.28125 0.121094 L 52.28125 181.320312 L 0.679688 181.320312 Z M 0.679688 0.121094 " clip-rule="nonzero"/></clipPath><clipPath id="32d5b30b43"><path d="M 0.707031 3.875 L 24.054688 0.164062 L 52.234375 177.433594 L 28.890625 181.144531 Z M 0.707031 3.875 " clip-rule="nonzero"/></clipPath><clipPath id="92a76ea0de"><rect x="0" width="53" y="0" height="182"/></clipPath><clipPath id="23ebdc296f"><path d="M 282 378 L 309 378 L 309 392 L 282 392 Z M 282 378 " clip-rule="nonzero"/></clipPath><clipPath id="4f69ba5866"><path d="M 282.597656 382.097656 L 306.722656 378.324219 L 308.140625 387.386719 L 284.015625 391.15625 Z M 282.597656 382.097656 " clip-rule="nonzero"/></clipPath><clipPath id="fa9e54c834"><path d="M 0.480469 0.238281 L 26.160156 0.238281 L 26.160156 13.199219 L 0.480469 13.199219 Z M 0.480469 0.238281 " clip-rule="nonzero"/></clipPath><clipPath id="baf19dd821"><path d="M 0.597656 4.097656 L 24.722656 0.324219 L 26.140625 9.386719 L 2.015625 13.15625 Z M 0.597656 4.097656 " clip-rule="nonzero"/></clipPath><clipPath id="ac1ea751a5"><rect x="0" width="27" y="0" height="14"/></clipPath><clipPath id="b6e758503e"><path d="M 298 477 L 324 477 L 324 491 L 298 491 Z M 298 477 " clip-rule="nonzero"/></clipPath><clipPath id="03067d80ad"><path d="M 298.367188 481.109375 L 322.492188 477.335938 L 323.910156 486.394531 L 299.785156 490.167969 Z M 298.367188 481.109375 " clip-rule="nonzero"/></clipPath><clipPath id="f3134df1ee"><path d="M 0.320312 0.121094 L 26 0.121094 L 26 13.320312 L 0.320312 13.320312 Z M 0.320312 0.121094 " clip-rule="nonzero"/></clipPath><clipPath id="3bad7fb1cd"><path d="M 0.367188 4.109375 L 24.492188 0.335938 L 25.910156 9.394531 L 1.785156 13.167969 Z M 0.367188 4.109375 " clip-rule="nonzero"/></clipPath><clipPath id="b97e5419c2"><rect x="0" width="26" y="0" height="14"/></clipPath><clipPath id="42c3c7b620"><path d="M 449 408 L 609 408 L 609 668 L 449 668 Z M 449 408 " clip-rule="nonzero"/></clipPath><clipPath id="fc8d396c61"><path d="M 543.617188 408.574219 L 608.75 434.859375 L 514.980469 667.234375 L 449.847656 640.953125 Z M 543.617188 408.574219 " clip-rule="nonzero"/></clipPath><clipPath id="fea5654207"><path d="M 0.761719 0.480469 L 159.878906 0.480469 L 159.878906 259.441406 L 0.761719 259.441406 Z M 0.761719 0.480469 " clip-rule="nonzero"/></clipPath><clipPath id="ec32de7e85"><path d="M 94.617188 0.574219 L 159.75 26.859375 L 65.980469 259.234375 L 0.847656 232.953125 Z M 94.617188 0.574219 " clip-rule="nonzero"/></clipPath><clipPath id="670bcbaf64"><rect x="0" width="160" y="0" height="260"/></clipPath><clipPath id="8b58fa8c3e"><path d="M 449 408 L 609 408 L 609 668 L 449 668 Z M 449 408 " clip-rule="nonzero"/></clipPath><clipPath id="becf30a688"><path d="M 543.617188 408.574219 L 608.996094 434.957031 L 515.257812 667.257812 L 449.878906 640.875 Z M 543.617188 408.574219 " clip-rule="nonzero"/></clipPath><clipPath id="71e5027c51"><path d="M 543.617188 408.582031 L 608.742188 434.863281 L 514.980469 667.226562 L 449.851562 640.945312 Z M 543.617188 408.582031 " clip-rule="nonzero"/></clipPath><clipPath id="d89facf954"><path d="M 534 355 L 616 355 L 616 445 L 534 445 Z M 534 355 " clip-rule="nonzero"/></clipPath><clipPath id="d165d07a21"><path d="M 600.976562 355.707031 L 615.105469 444.445312 L 541.105469 456.226562 L 526.980469 367.488281 Z M 600.976562 355.707031 " clip-rule="nonzero"/></clipPath><clipPath id="5d12311841"><path d="M 534.035156 411.804688 L 615.089844 444.34375 L 600.976562 355.707031 Z M 534.035156 411.804688 " clip-rule="nonzero"/></clipPath><clipPath id="cc153fa981"><path d="M 0 0.679688 L 81.121094 0.679688 L 81.121094 89.480469 L 0 89.480469 Z M 0 0.679688 " clip-rule="nonzero"/></clipPath><clipPath id="75cd88be52"><path d="M 66.976562 0.707031 L 81.105469 89.445312 L 7.105469 101.226562 L -7.019531 12.488281 Z M 66.976562 0.707031 " clip-rule="nonzero"/></clipPath><clipPath id="2d4cfda6b5"><path d="M 0.0351562 56.804688 L 81.089844 89.34375 L 66.976562 0.707031 Z M 0.0351562 56.804688 " clip-rule="nonzero"/></clipPath><clipPath id="967d202685"><rect x="0" width="82" y="0" height="90"/></clipPath><clipPath id="a161eacf4e"><path d="M 534 355 L 616 355 L 616 445 L 534 445 Z M 534 355 " clip-rule="nonzero"/></clipPath><clipPath id="12c24fdd29"><path d="M 600.976562 355.707031 L 615.128906 444.585938 L 541.058594 456.378906 L 526.910156 367.5 Z M 600.976562 355.707031 " clip-rule="nonzero"/></clipPath><clipPath id="baeff3ea28"><path d="M 600.976562 355.714844 L 615.085938 444.339844 L 540.308594 456.242188 L 526.203125 367.617188 Z M 600.976562 355.714844 " clip-rule="nonzero"/></clipPath><clipPath id="071fba8dc9"><path d="M 534.046875 411.804688 L 615.085938 444.339844 L 600.976562 355.714844 Z M 534.046875 411.804688 " clip-rule="nonzero"/></clipPath><clipPath id="d9d06c4be3"><path d="M 598 425 L 671 425 L 671 483 L 598 483 Z M 598 425 " clip-rule="nonzero"/></clipPath><clipPath id="53ee58678e"><path d="M 612.316406 425.71875 L 670.484375 449.191406 L 656.867188 482.9375 L 598.699219 459.464844 Z M 612.316406 425.71875 " clip-rule="nonzero"/></clipPath><clipPath id="e7bf059794"><path d="M 0.558594 0.519531 L 72.558594 0.519531 L 72.558594 58 L 0.558594 58 Z M 0.558594 0.519531 " clip-rule="nonzero"/></clipPath><clipPath id="f43e3e3469"><path d="M 14.316406 0.71875 L 72.484375 24.191406 L 58.867188 57.9375 L 0.699219 34.464844 Z M 14.316406 0.71875 " clip-rule="nonzero"/></clipPath><clipPath id="1893c4e04b"><rect x="0" width="73" y="0" height="58"/></clipPath><clipPath id="91a1e5c184"><path d="M 526 369 L 557 369 L 557 416 L 526 416 Z M 526 369 " clip-rule="nonzero"/></clipPath><clipPath id="68717d3971"><path d="M 542.433594 369.910156 L 556.855469 375.730469 L 540.65625 415.878906 L 526.234375 410.058594 Z M 542.433594 369.910156 " clip-rule="nonzero"/></clipPath><clipPath id="7965804884"><path d="M 0.078125 0.839844 L 31 0.839844 L 31 46.921875 L 0.078125 46.921875 Z M 0.078125 0.839844 " clip-rule="nonzero"/></clipPath><clipPath id="c8e5f63fab"><path d="M 16.433594 0.910156 L 30.855469 6.730469 L 14.65625 46.878906 L 0.234375 41.058594 Z M 16.433594 0.910156 " clip-rule="nonzero"/></clipPath><clipPath id="3c91645434"><rect x="0" width="31" y="0" height="47"/></clipPath><clipPath id="d47fe6f56b"><path d="M 569 362 L 605 362 L 605 401 L 569 401 Z M 569 362 " clip-rule="nonzero"/></clipPath><clipPath id="b8f3964502"><path d="M 598.179688 362.574219 L 604.277344 400.878906 L 572.332031 405.964844 L 566.234375 367.65625 Z M 598.179688 362.574219 " clip-rule="nonzero"/></clipPath><clipPath id="b2e87eb7c6"><path d="M 569.28125 386.789062 L 604.269531 400.835938 L 598.179688 362.574219 Z M 569.28125 386.789062 " clip-rule="nonzero"/></clipPath><clipPath id="3fd30a7f19"><path d="M 0.28125 0.398438 L 35.320312 0.398438 L 35.320312 39 L 0.28125 39 Z M 0.28125 0.398438 " clip-rule="nonzero"/></clipPath><clipPath id="1d6bfa959e"><path d="M 29.179688 0.574219 L 35.277344 38.878906 L 3.332031 43.964844 L -2.765625 5.65625 Z M 29.179688 0.574219 " clip-rule="nonzero"/></clipPath><clipPath id="b07d403b07"><path d="M 0.28125 24.789062 L 35.269531 38.835938 L 29.179688 0.574219 Z M 0.28125 24.789062 " clip-rule="nonzero"/></clipPath><clipPath id="1f93f6f5bf"><rect x="0" width="36" y="0" height="39"/></clipPath><clipPath id="2e39851aa7"><path d="M 569 362 L 605 362 L 605 401 L 569 401 Z M 569 362 " clip-rule="nonzero"/></clipPath><clipPath id="dee4d4f816"><path d="M 598.179688 362.574219 L 604.308594 401.085938 L 572.460938 406.15625 L 566.328125 367.640625 Z M 598.179688 362.574219 " clip-rule="nonzero"/></clipPath><clipPath id="2910a9f233"><path d="M 598.179688 362.574219 L 604.269531 400.832031 L 571.988281 405.972656 L 565.894531 367.710938 Z M 598.179688 362.574219 " clip-rule="nonzero"/></clipPath><clipPath id="43e1a214cc"><path d="M 569.28125 386.789062 L 604.269531 400.832031 L 598.179688 362.574219 Z M 569.28125 386.789062 " clip-rule="nonzero"/></clipPath></defs><rect x="-75" width="900" fill="#ffffff" y="-74.999999" height="899.999994" fill-opacity="1"/><rect x="-75" width="900" fill="#ffffff" y="-74.999999" height="899.999994" fill-opacity="1"/><g clip-path="url(#8dc8cb27ab)"><g clip-path="url(#621a1ce77a)"><g clip-path="url(#126e184d4e)"><path stroke-linecap="butt" transform="matrix(0.739885, -0.122763, 0.122763, 0.739885, 86.961853, 333.641956)" fill="none" stroke-linejoin="miter" d="M -0.000913529 -0.00195015 L 552.259982 -0.00176205 L 552.261686 310.482946 L 0.000789689 310.482758 Z M -0.000913529 -0.00195015 " stroke="#000000" stroke-width="10" stroke-opacity="1" stroke-miterlimit="4"/></g></g></g><g clip-path="url(#e527a2cb4f)"><g clip-path="url(#6d5d2735fa)"><g transform="matrix(1, 0, 0, 1, 79, 276)"><g clip-path="url(#6c441d04e1)"><g clip-path="url(#eaca1bdf15)"><g clip-path="url(#5e39f1c796)"><path fill="#ffffff" d="M 0.5 67.953125 L 408.808594 0.207031 L 446.925781 229.933594 L 38.617188 297.683594 Z M 0.5 67.953125 " fill-opacity="1" fill-rule="nonzero"/></g></g></g></g></g></g><g clip-path="url(#58da3e6bc0)"><g clip-path="url(#1d4f43855e)"><g clip-path="url(#313851b686)"><path stroke-linecap="butt" transform="matrix(0.739885, -0.122763, 0.122763, 0.739885, 79.502651, 343.952816)" fill="none" stroke-linejoin="miter" d="M 0.00158396 0.000680394 L 552.257342 0.0000159781 L 552.259045 310.484724 L -0.00185091 310.484536 Z M 0.00158396 0.000680394 " stroke="#000000" stroke-width="10" stroke-opacity="1" stroke-miterlimit="4"/></g></g></g><g clip-path="url(#89c08681fe)"><g clip-path="url(#37f48303eb)"><g transform="matrix(1, 0, 0, 1, 75, 288)"><g clip-path="url(#159d0fd868)"><g clip-path="url(#82db4ee3b3)"><g clip-path="url(#6d24ba5f60)"><path fill="#ffffff" d="M 0 67.90625 L 408.308594 0.15625 L 446.425781 229.886719 L 38.117188 297.632812 Z M 0 67.90625 " fill-opacity="1" fill-rule="nonzero"/></g></g></g></g></g></g><g clip-path="url(#27f5bc1873)"><g clip-path="url(#c20b2fd606)"><g clip-path="url(#7c78441460)"><path stroke-linecap="butt" transform="matrix(0.739885, -0.122763, 0.122763, 0.739885, 75.002651, 355.904299)" fill="none" stroke-linejoin="miter" d="M 0.0012254 0.0028396 L 552.256983 0.00217519 L 552.259539 310.481745 L -0.00135695 310.481557 Z M 0.0012254 0.0028396 " stroke="#000000" stroke-width="20" stroke-opacity="1" stroke-miterlimit="4"/></g></g></g><path stroke-linecap="butt" transform="matrix(0.119645, 0.740395, -0.740395, 0.119645, 106.348298, 374.822815)" fill="none" stroke-linejoin="miter" d="M 0.00225964 1.499588 L 249.367748 1.49889 " stroke="#000000" stroke-width="3" stroke-opacity="1" stroke-miterlimit="4"/><path stroke-linecap="butt" transform="matrix(0.119645, 0.740395, -0.740395, 0.119645, 121.266009, 372.002229)" fill="none" stroke-linejoin="miter" d="M 0.00267387 1.499306 L 249.368162 1.498608 " stroke="#000000" stroke-width="3" stroke-opacity="1" stroke-miterlimit="4"/><path stroke-linecap="butt" transform="matrix(0.119645, 0.740395, -0.740395, 0.119645, 137.294322, 368.822815)" fill="none" stroke-linejoin="miter" d="M 0.00210807 1.500523 L 249.367597 1.499825 " stroke="#000000" stroke-width="3" stroke-opacity="1" stroke-miterlimit="4"/><path stroke-linecap="butt" transform="matrix(0.119645, 0.740395, -0.740395, 0.119645, 152.962042, 365.643283)" fill="none" stroke-linejoin="miter" d="M 0.00195609 1.500163 L 249.367445 1.499465 " stroke="#000000" stroke-width="3" stroke-opacity="1" stroke-miterlimit="4"/><path stroke-linecap="butt" transform="matrix(0.119645, 0.740395, -0.740395, 0.119645, 170.990838, 363.963869)" fill="none" stroke-linejoin="miter" d="M 0.00128746 1.502017 L 249.366776 1.501319 " stroke="#000000" stroke-width="3" stroke-opacity="1" stroke-miterlimit="4"/><path stroke-linecap="butt" transform="matrix(0.119645, 0.740395, -0.740395, 0.119645, 188.717981, 360.784454)" fill="none" stroke-linejoin="miter" d="M 0.000804285 1.502723 L 249.366293 1.502025 " stroke="#000000" stroke-width="3" stroke-opacity="1" stroke-miterlimit="4"/><path stroke-linecap="butt" transform="matrix(0.119645, 0.740395, -0.740395, 0.119645, 206.354568, 358.354925)" fill="none" stroke-linejoin="miter" d="M 0.000624456 1.502515 L 249.366113 1.501817 " stroke="#000000" stroke-width="3" stroke-opacity="1" stroke-miterlimit="4"/><path stroke-linecap="butt" transform="matrix(0.119645, 0.740395, -0.740395, 0.119645, 225.274576, 355.534455)" fill="none" stroke-linejoin="miter" d="M 0.00122925 1.500091 L 249.366718 1.499393 " stroke="#000000" stroke-width="3" stroke-opacity="1" stroke-miterlimit="4"/><path stroke-linecap="butt" transform="matrix(0.119645, 0.740395, -0.740395, 0.119645, 243.370553, 353.098596)" fill="none" stroke-linejoin="miter" d="M -0.0005746 1.497532 L 249.364083 1.501976 " stroke="#000000" stroke-width="3" stroke-opacity="1" stroke-miterlimit="4"/><path stroke-linecap="butt" transform="matrix(0.119645, 0.740395, -0.740395, 0.119645, 302.056306, 340.589535)" fill="none" stroke-linejoin="miter" d="M 0.000609597 1.500639 L 249.366098 1.499941 " stroke="#000000" stroke-width="3" stroke-opacity="1" stroke-miterlimit="4"/><path stroke-linecap="butt" transform="matrix(0.119645, 0.740395, -0.740395, 0.119645, 326.233787, 337.76895)" fill="none" stroke-linejoin="miter" d="M 0.00143817 1.497793 L 249.366096 1.502237 " stroke="#000000" stroke-width="3" stroke-opacity="1" stroke-miterlimit="4"/><path stroke-linecap="butt" transform="matrix(0.119645, 0.740395, -0.740395, 0.119645, 346.082035, 334.589536)" fill="none" stroke-linejoin="miter" d="M 0.000952493 1.498515 L 249.366441 1.497817 " stroke="#000000" stroke-width="3" stroke-opacity="1" stroke-miterlimit="4"/><path stroke-linecap="butt" transform="matrix(0.119645, 0.740395, -0.740395, 0.119645, 365.49977, 331.410121)" fill="none" stroke-linejoin="miter" d="M 0.000642697 1.498148 L 249.3653 1.502592 " stroke="#000000" stroke-width="3" stroke-opacity="1" stroke-miterlimit="4"/><path stroke-linecap="butt" transform="matrix(0.119645, 0.740395, -0.740395, 0.119645, 383.388675, 328.230707)" fill="none" stroke-linejoin="miter" d="M -0.000182111 1.500968 L 249.365306 1.50027 " stroke="#000000" stroke-width="3" stroke-opacity="1" stroke-miterlimit="4"/><path stroke-linecap="butt" transform="matrix(0.119645, 0.740395, -0.740395, 0.119645, 403.556383, 325.051175)" fill="none" stroke-linejoin="miter" d="M -0.000331492 1.500592 L 249.365157 1.499894 " stroke="#000000" stroke-width="3" stroke-opacity="1" stroke-miterlimit="4"/><path stroke-linecap="butt" transform="matrix(0.119645, 0.740395, -0.740395, 0.119645, 423.724086, 321.871761)" fill="none" stroke-linejoin="miter" d="M -0.000634644 1.500184 L 249.364854 1.499486 " stroke="#000000" stroke-width="3" stroke-opacity="1" stroke-miterlimit="4"/><path stroke-linecap="butt" transform="matrix(0.119645, 0.740395, -0.740395, 0.119645, 442.362965, 317.942349)" fill="none" stroke-linejoin="miter" d="M -0.000626166 1.497827 L 249.364031 1.502271 " stroke="#000000" stroke-width="3" stroke-opacity="1" stroke-miterlimit="4"/><path stroke-linecap="butt" transform="matrix(0.119645, 0.740395, -0.740395, 0.119645, 461.780716, 315.395277)" fill="none" stroke-linejoin="miter" d="M -0.000320722 1.497583 L 249.364337 1.502026 " stroke="#000000" stroke-width="3" stroke-opacity="1" stroke-miterlimit="4"/><path stroke-linecap="butt" transform="matrix(-0.739695, 0.1239, -0.1239, -0.739695, 460.847716, 316.292349)" fill="none" stroke-linejoin="miter" d="M 0.00242279 1.499342 L 482.733697 1.501509 " stroke="#000000" stroke-width="3" stroke-opacity="1" stroke-miterlimit="4"/><path stroke-linecap="butt" transform="matrix(-0.739695, 0.1239, -0.1239, -0.739695, 490.497291, 502.421492)" fill="none" stroke-linejoin="miter" d="M -0.00127069 1.499042 L 482.730003 1.501209 " stroke="#000000" stroke-width="3" stroke-opacity="1" stroke-miterlimit="4"/><path stroke-linecap="butt" transform="matrix(-0.739695, 0.1239, -0.1239, -0.739695, 487.306299, 481.062645)" fill="none" stroke-linejoin="miter" d="M -0.000842053 1.499828 L 482.730432 1.501995 " stroke="#000000" stroke-width="3" stroke-opacity="1" stroke-miterlimit="4"/><path stroke-linecap="butt" transform="matrix(-0.739695, 0.1239, -0.1239, -0.739695, 484.115307, 459.703822)" fill="none" stroke-linejoin="miter" d="M -0.0004187 1.500645 L 482.731716 1.497675 " stroke="#000000" stroke-width="3" stroke-opacity="1" stroke-miterlimit="4"/><path stroke-linecap="butt" transform="matrix(-0.739695, 0.1239, -0.1239, -0.739695, 480.924363, 438.344999)" fill="none" stroke-linejoin="miter" d="M 0.0000677742 1.501473 L 482.732202 1.498503 " stroke="#000000" stroke-width="3" stroke-opacity="1" stroke-miterlimit="4"/><path stroke-linecap="butt" transform="matrix(-0.739695, 0.1239, -0.1239, -0.739695, 477.733371, 416.986296)" fill="none" stroke-linejoin="miter" d="M 0.000464695 1.502448 L 482.732599 1.499478 " stroke="#000000" stroke-width="3" stroke-opacity="1" stroke-miterlimit="4"/><path stroke-linecap="butt" transform="matrix(-0.739695, 0.1239, -0.1239, -0.739695, 474.542452, 395.627346)" fill="none" stroke-linejoin="miter" d="M 0.00187116 1.497977 L 482.733145 1.500144 " stroke="#000000" stroke-width="3" stroke-opacity="1" stroke-miterlimit="4"/><path stroke-linecap="butt" transform="matrix(-0.739695, 0.1239, -0.1239, -0.739695, 471.35146, 374.268635)" fill="none" stroke-linejoin="miter" d="M 0.00226967 1.498942 L 482.733544 1.50111 " stroke="#000000" stroke-width="3" stroke-opacity="1" stroke-miterlimit="4"/><path stroke-linecap="butt" transform="matrix(-0.739695, 0.1239, -0.1239, -0.739695, 468.82954, 352.706722)" fill="none" stroke-linejoin="miter" d="M -0.00100063 1.499188 L 482.730273 1.501355 " stroke="#000000" stroke-width="3" stroke-opacity="1" stroke-miterlimit="4"/><path stroke-linecap="butt" transform="matrix(-0.739695, 0.1239, -0.1239, -0.739695, 464.969476, 331.550862)" fill="none" stroke-linejoin="miter" d="M -0.00199238 1.499549 L 482.734418 1.502577 " stroke="#000000" stroke-width="3" stroke-opacity="1" stroke-miterlimit="4"/><path stroke-linecap="butt" transform="matrix(0.119645, 0.740395, -0.740395, 0.119645, 262.530547, 349.992893)" fill="none" stroke-linejoin="miter" d="M -0.000231578 1.497368 L 249.364426 1.501812 " stroke="#000000" stroke-width="3" stroke-opacity="1" stroke-miterlimit="4"/><path stroke-linecap="butt" transform="matrix(0.119645, 0.740395, -0.740395, 0.119645, 277.44825, 346.992893)" fill="none" stroke-linejoin="miter" d="M -0.00100617 1.50216 L 249.364482 1.501462 " stroke="#000000" stroke-width="3" stroke-opacity="1" stroke-miterlimit="4"/><g clip-path="url(#05280d1803)"><g clip-path="url(#0738493993)"><g transform="matrix(1, 0, 0, 1, 277, 345)"><g clip-path="url(#92a76ea0de)"><g clip-path="url(#94a45fa5e3)"><g clip-path="url(#32d5b30b43)"><path fill="#ffffff" d="M 0.707031 3.875 L 24.054688 0.164062 L 52.238281 177.453125 L 28.890625 181.164062 Z M 0.707031 3.875 " fill-opacity="1" fill-rule="nonzero"/></g></g></g></g></g></g><g clip-path="url(#23ebdc296f)"><g clip-path="url(#4f69ba5866)"><g transform="matrix(1, 0, 0, 1, 282, 378)"><g clip-path="url(#ac1ea751a5)"><g clip-path="url(#fa9e54c834)"><g clip-path="url(#baf19dd821)"><path fill="#000000" d="M 0.597656 4.097656 L 24.734375 0.324219 L 26.148438 9.382812 L 2.015625 13.15625 Z M 0.597656 4.097656 " fill-opacity="1" fill-rule="nonzero"/></g></g></g></g></g></g><g clip-path="url(#b6e758503e)"><g clip-path="url(#03067d80ad)"><g transform="matrix(1, 0, 0, 1, 298, 477)"><g clip-path="url(#b97e5419c2)"><g clip-path="url(#f3134df1ee)"><g clip-path="url(#3bad7fb1cd)"><path fill="#000000" d="M 0.367188 4.109375 L 24.503906 0.335938 L 25.917969 9.394531 L 1.785156 13.167969 Z M 0.367188 4.109375 " fill-opacity="1" fill-rule="nonzero"/></g></g></g></g></g></g><g clip-path="url(#42c3c7b620)"><g clip-path="url(#fc8d396c61)"><g transform="matrix(1, 0, 0, 1, 449, 408)"><g clip-path="url(#670bcbaf64)"><g clip-path="url(#fea5654207)"><g clip-path="url(#ec32de7e85)"><path fill="#04cf6d" d="M 94.617188 0.574219 L 159.75 26.859375 L 66.019531 259.148438 L 0.886719 232.867188 Z M 94.617188 0.574219 " fill-opacity="1" fill-rule="nonzero"/></g></g></g></g></g></g><g clip-path="url(#8b58fa8c3e)"><g clip-path="url(#becf30a688)"><g clip-path="url(#71e5027c51)"><path stroke-linecap="butt" transform="matrix(0.69551, 0.280652, -0.280652, 0.69551, 543.615336, 408.583128)" fill="none" stroke-linejoin="miter" d="M 0.00174186 -0.0022799 L 93.639064 0.00029092 L 93.640629 334.090015 L -0.00152309 334.089393 Z M 0.00174186 -0.0022799 " stroke="#000000" stroke-width="20" stroke-opacity="1" stroke-miterlimit="4"/></g></g></g><g clip-path="url(#d89facf954)"><g clip-path="url(#d165d07a21)"><g clip-path="url(#5d12311841)"><g transform="matrix(1, 0, 0, 1, 534, 355)"><g clip-path="url(#967d202685)"><g clip-path="url(#cc153fa981)"><g clip-path="url(#75cd88be52)"><g clip-path="url(#2d4cfda6b5)"><path fill="#ffffff" d="M 66.976562 0.707031 L 81.105469 89.445312 L 7.105469 101.226562 L -7.019531 12.488281 Z M 66.976562 0.707031 " fill-opacity="1" fill-rule="nonzero"/></g></g></g></g></g></g></g></g><g clip-path="url(#a161eacf4e)"><g clip-path="url(#12c24fdd29)"><g clip-path="url(#baeff3ea28)"><g clip-path="url(#071fba8dc9)"><path stroke-linecap="butt" transform="matrix(0.117912, 0.740673, -0.740673, 0.117912, 600.978477, 355.71349)" fill="none" stroke-linejoin="miter" d="M 59.827936 99.890245 L 119.656181 0.00192697 L 0.00138134 0.0028052 Z M 59.827936 99.890245 " stroke="#000000" stroke-width="20" stroke-opacity="1" stroke-miterlimit="4"/></g></g></g></g><g clip-path="url(#d9d06c4be3)"><g clip-path="url(#53ee58678e)"><g transform="matrix(1, 0, 0, 1, 598, 425)"><g clip-path="url(#1893c4e04b)"><g clip-path="url(#e7bf059794)"><g clip-path="url(#f43e3e3469)"><path fill="#ffffff" d="M 14.316406 0.71875 L 72.445312 24.175781 L 58.828125 57.921875 L 0.699219 34.464844 Z M 14.316406 0.71875 " fill-opacity="1" fill-rule="nonzero"/></g></g></g></g></g></g><g clip-path="url(#91a1e5c184)"><g clip-path="url(#68717d3971)"><g transform="matrix(1, 0, 0, 1, 526, 369)"><g clip-path="url(#3c91645434)"><g clip-path="url(#7965804884)"><g clip-path="url(#c8e5f63fab)"><path fill="#ffffff" d="M 16.433594 0.910156 L 30.855469 6.730469 L 14.648438 46.894531 L 0.230469 41.074219 Z M 16.433594 0.910156 " fill-opacity="1" fill-rule="nonzero"/></g></g></g></g></g></g><g clip-path="url(#d47fe6f56b)"><g clip-path="url(#b8f3964502)"><g clip-path="url(#b2e87eb7c6)"><g transform="matrix(1, 0, 0, 1, 569, 362)"><g clip-path="url(#1f93f6f5bf)"><g clip-path="url(#3fd30a7f19)"><g clip-path="url(#1d6bfa959e)"><g clip-path="url(#b07d403b07)"><path fill="#000000" d="M 29.179688 0.574219 L 35.277344 38.878906 L 3.332031 43.964844 L -2.765625 5.65625 Z M 29.179688 0.574219 " fill-opacity="1" fill-rule="nonzero"/></g></g></g></g></g></g></g></g><g clip-path="url(#2e39851aa7)"><g clip-path="url(#dee4d4f816)"><g clip-path="url(#2910a9f233)"><g clip-path="url(#43e1a214cc)"><path stroke-linecap="butt" transform="matrix(0.117912, 0.740673, -0.740673, 0.117912, 598.177773, 362.572327)" fill="none" stroke-linejoin="miter" d="M 25.830123 43.125909 L 51.655521 -0.00129334 L 0.00289201 -0.00212374 Z M 25.830123 43.125909 " stroke="#000000" stroke-width="20" stroke-opacity="1" stroke-miterlimit="4"/></g></g></g></g><path stroke-linecap="butt" transform="matrix(0.278249, -0.696475, 0.696475, 0.278249, 467.260372, 646.730604)" fill="none" stroke-linejoin="miter" d="M 0.00192644 1.997826 L 332.563953 1.997894 " stroke="#000000" stroke-width="4" stroke-opacity="1" stroke-miterlimit="4"/><path stroke-linecap="butt" transform="matrix(0.278249, -0.696475, 0.696475, 0.278249, 481.639323, 651.553356)" fill="none" stroke-linejoin="miter" d="M 0.0000877643 1.998496 L 332.562114 1.998564 " stroke="#000000" stroke-width="4" stroke-opacity="1" stroke-miterlimit="4"/><path stroke-linecap="butt" transform="matrix(0.278249, -0.696475, 0.696475, 0.278249, 496.117538, 659.28726)" fill="none" stroke-linejoin="miter" d="M 0.000618822 2.001519 L 332.567482 1.999655 " stroke="#000000" stroke-width="4" stroke-opacity="1" stroke-miterlimit="4"/></svg>