<svg xmlns="http://www.w3.org/2000/svg" xmlns:xlink="http://www.w3.org/1999/xlink" width="1000" zoomAndPan="magnify" viewBox="0 0 750 749.999995" height="1000" preserveAspectRatio="xMidYMid meet" version="1.0"><defs><clipPath id="3c651af845"><path d="M 99 226 L 193 226 L 193 364 L 99 364 Z M 99 226 " clip-rule="nonzero"/></clipPath><clipPath id="60af970e3a"><path d="M 61.320312 244.667969 L 149.382812 207.433594 L 205.816406 340.90625 L 117.75 378.140625 Z M 61.320312 244.667969 " clip-rule="nonzero"/></clipPath><clipPath id="3ec6cc3e22"><path d="M 105.351562 226.050781 C 135.222656 243.109375 177.648438 274.285156 189.761719 302.9375 C 198.585938 323.804688 186.015625 349.085938 161.714844 359.359375 C 137.414062 369.632812 110.519531 361.035156 101.699219 340.171875 C 89.585938 311.519531 130.664062 264.488281 105.351562 226.050781 Z M 105.351562 226.050781 " clip-rule="nonzero"/></clipPath><clipPath id="56c983e4c3"><path d="M 0 0 L 94 0 L 94 138 L 0 138 Z M 0 0 " clip-rule="nonzero"/></clipPath><clipPath id="a5250393d0"><path d="M -37.679688 18.667969 L 50.382812 -18.566406 L 106.816406 114.90625 L 18.75 152.140625 Z M -37.679688 18.667969 " clip-rule="nonzero"/></clipPath><clipPath id="f81038f004"><path d="M 6.351562 0.0507812 C 36.222656 17.109375 78.648438 48.285156 90.761719 76.9375 C 99.585938 97.804688 87.015625 123.085938 62.714844 133.359375 C 38.414062 143.632812 11.519531 135.035156 2.699219 114.171875 C -9.414062 85.519531 31.664062 38.488281 6.351562 0.0507812 Z M 6.351562 0.0507812 " clip-rule="nonzero"/></clipPath><clipPath id="b4bcf177d2"><rect x="0" width="94" y="0" height="138"/></clipPath><clipPath id="cdd37e88d6"><path d="M 211 121 L 692 121 L 692 483 L 211 483 Z M 211 121 " clip-rule="nonzero"/></clipPath><clipPath id="5b37d80ce9"><path d="M 276.140625 58.386719 L 741.882812 224.894531 L 627.296875 545.402344 L 161.554688 378.898438 Z M 276.140625 58.386719 " clip-rule="nonzero"/></clipPath><clipPath id="848396fd04"><path d="M 508.847656 141.582031 C 380.328125 95.636719 250.488281 130.136719 218.847656 218.644531 C 187.207031 307.148438 265.742188 416.144531 394.261719 462.09375 C 522.785156 508.039062 652.621094 473.539062 684.261719 385.03125 C 715.902344 296.523438 637.367188 187.527344 508.847656 141.582031 Z M 508.847656 141.582031 " clip-rule="nonzero"/></clipPath><clipPath id="21d272b830"><path d="M 0 0 L 481 0 L 481 362 L 0 362 Z M 0 0 " clip-rule="nonzero"/></clipPath><clipPath id="aded93d032"><path d="M 65.140625 -62.613281 L 530.882812 103.894531 L 416.296875 424.402344 L -49.445312 257.898438 Z M 65.140625 -62.613281 " clip-rule="nonzero"/></clipPath><clipPath id="1b534a93bf"><path d="M 297.847656 20.582031 C 169.328125 -25.363281 39.488281 9.136719 7.847656 97.644531 C -23.792969 186.148438 54.742188 295.144531 183.261719 341.09375 C 311.785156 387.039062 441.621094 352.539062 473.261719 264.03125 C 504.902344 175.523438 426.367188 66.527344 297.847656 20.582031 Z M 297.847656 20.582031 " clip-rule="nonzero"/></clipPath><clipPath id="38b1f62e77"><rect x="0" width="481" y="0" height="362"/></clipPath><clipPath id="8fc596b865"><path d="M 211 121 L 692 121 L 692 483 L 211 483 Z M 211 121 " clip-rule="nonzero"/></clipPath><clipPath id="4686ec65a7"><path d="M 276.140625 58.386719 L 741.542969 224.773438 L 626.917969 545.398438 L 161.515625 379.015625 Z M 276.140625 58.386719 " clip-rule="nonzero"/></clipPath><clipPath id="25f44bebb6"><path d="M 276.144531 58.390625 L 741.878906 224.890625 L 627.296875 545.398438 L 161.5625 378.894531 Z M 276.144531 58.390625 " clip-rule="nonzero"/></clipPath><clipPath id="105783baea"><path d="M 508.847656 141.582031 C 380.328125 95.636719 250.492188 130.136719 218.851562 218.640625 C 187.210938 307.148438 265.746094 416.140625 394.265625 462.085938 C 522.78125 508.03125 652.617188 473.53125 684.257812 385.027344 C 715.898438 296.523438 637.363281 187.527344 508.847656 141.582031 Z M 508.847656 141.582031 " clip-rule="nonzero"/></clipPath><clipPath id="1c4206bbb7"><path d="M 506 369 L 587 369 L 587 454 L 506 454 Z M 506 369 " clip-rule="nonzero"/></clipPath><clipPath id="51d47811ef"><path d="M 522.640625 358.722656 L 597.65625 385.539062 L 569.476562 464.359375 L 494.464844 437.542969 Z M 522.640625 358.722656 " clip-rule="nonzero"/></clipPath><clipPath id="c00b6acf92"><path d="M 560.148438 372.128906 C 539.433594 364.726562 516.34375 376.339844 508.574219 398.070312 C 500.804688 419.804688 511.300781 443.425781 532.011719 450.832031 C 552.726562 458.234375 575.816406 446.621094 583.585938 424.890625 C 591.355469 403.15625 580.863281 379.535156 560.148438 372.128906 Z M 560.148438 372.128906 " clip-rule="nonzero"/></clipPath><clipPath id="4255935470"><path d="M 0 0 L 81 0 L 81 85 L 0 85 Z M 0 0 " clip-rule="nonzero"/></clipPath><clipPath id="d8328699d9"><path d="M 16.640625 -10.277344 L 91.65625 16.539062 L 63.476562 95.359375 L -11.535156 68.542969 Z M 16.640625 -10.277344 " clip-rule="nonzero"/></clipPath><clipPath id="4d0e012406"><path d="M 54.148438 3.128906 C 33.433594 -4.273438 10.34375 7.339844 2.574219 29.070312 C -5.195312 50.804688 5.300781 74.425781 26.011719 81.832031 C 46.726562 89.234375 69.816406 77.621094 77.585938 55.890625 C 85.355469 34.15625 74.863281 10.535156 54.148438 3.128906 Z M 54.148438 3.128906 " clip-rule="nonzero"/></clipPath><clipPath id="87bfd6d4b0"><rect x="0" width="81" y="0" height="85"/></clipPath><clipPath id="c57deb3189"><path d="M 506 369 L 587 369 L 587 454 L 506 454 Z M 506 369 " clip-rule="nonzero"/></clipPath><clipPath id="162f3998fb"><path d="M 522.640625 358.722656 L 597.503906 385.484375 L 569.476562 463.875 L 494.617188 437.113281 Z M 522.640625 358.722656 " clip-rule="nonzero"/></clipPath><clipPath id="8865f17d79"><path d="M 522.644531 358.722656 L 599.597656 386.234375 L 571.199219 465.667969 L 494.246094 438.160156 Z M 522.644531 358.722656 " clip-rule="nonzero"/></clipPath><clipPath id="1400b5a0a7"><path d="M 560.144531 372.128906 C 539.433594 364.726562 516.34375 376.335938 508.578125 398.066406 C 500.808594 419.796875 511.300781 443.414062 532.011719 450.816406 C 552.722656 458.222656 575.8125 446.609375 583.578125 424.878906 C 591.347656 403.152344 580.855469 379.535156 560.144531 372.128906 Z M 560.144531 372.128906 " clip-rule="nonzero"/></clipPath><clipPath id="42862ada65"><path d="M 252 260 L 318 260 L 318 328 L 252 328 Z M 252 260 " clip-rule="nonzero"/></clipPath><clipPath id="076ace519f"><path d="M 266.109375 251.96875 L 326.40625 273.523438 L 303.753906 336.882812 L 243.460938 315.324219 Z M 266.109375 251.96875 " clip-rule="nonzero"/></clipPath><clipPath id="37015d5573"><path d="M 296.257812 262.746094 C 279.609375 256.792969 261.046875 266.128906 254.804688 283.597656 C 248.558594 301.066406 256.992188 320.050781 273.644531 326.003906 C 290.292969 331.957031 308.855469 322.621094 315.097656 305.152344 C 321.34375 287.683594 312.910156 268.699219 296.257812 262.746094 Z M 296.257812 262.746094 " clip-rule="nonzero"/></clipPath><clipPath id="99cfb7a74d"><path d="M 0 0 L 66 0 L 66 68 L 0 68 Z M 0 0 " clip-rule="nonzero"/></clipPath><clipPath id="f97ac72d52"><path d="M 14.109375 -8.03125 L 74.40625 13.523438 L 51.753906 76.882812 L -8.539062 55.324219 Z M 14.109375 -8.03125 " clip-rule="nonzero"/></clipPath><clipPath id="106c3a8a72"><path d="M 44.257812 2.746094 C 27.609375 -3.207031 9.046875 6.128906 2.804688 23.597656 C -3.441406 41.066406 4.992188 60.050781 21.644531 66.003906 C 38.292969 71.957031 56.855469 62.621094 63.097656 45.152344 C 69.34375 27.683594 60.910156 8.699219 44.257812 2.746094 Z M 44.257812 2.746094 " clip-rule="nonzero"/></clipPath><clipPath id="4e0ce6985e"><rect x="0" width="66" y="0" height="68"/></clipPath><clipPath id="5f3c1041a8"><path d="M 279 184 L 344 184 L 344 252 L 279 252 Z M 279 184 " clip-rule="nonzero"/></clipPath><clipPath id="37d253e26c"><path d="M 292.585938 175.40625 L 352.882812 196.964844 L 330.230469 260.320312 L 269.933594 238.765625 Z M 292.585938 175.40625 " clip-rule="nonzero"/></clipPath><clipPath id="246e9f0e69"><path d="M 322.734375 186.1875 C 306.082031 180.234375 287.523438 189.570312 281.277344 207.039062 C 275.035156 224.507812 283.46875 243.492188 300.117188 249.445312 C 316.769531 255.398438 335.328125 246.0625 341.574219 228.59375 C 347.820312 211.125 339.382812 192.136719 322.734375 186.1875 Z M 322.734375 186.1875 " clip-rule="nonzero"/></clipPath><clipPath id="25286de74a"><path d="M 0 0 L 65 0 L 65 68 L 0 68 Z M 0 0 " clip-rule="nonzero"/></clipPath><clipPath id="d80b6d6794"><path d="M 13.585938 -8.59375 L 73.882812 12.964844 L 51.230469 76.320312 L -9.066406 54.765625 Z M 13.585938 -8.59375 " clip-rule="nonzero"/></clipPath><clipPath id="15fdc56a6e"><path d="M 43.734375 2.1875 C 27.082031 -3.765625 8.523438 5.570312 2.277344 23.039062 C -3.964844 40.507812 4.46875 59.492188 21.117188 65.445312 C 37.769531 71.398438 56.328125 62.0625 62.574219 44.59375 C 68.820312 27.125 60.382812 8.136719 43.734375 2.1875 Z M 43.734375 2.1875 " clip-rule="nonzero"/></clipPath><clipPath id="45783a4b14"><rect x="0" width="65" y="0" height="68"/></clipPath><clipPath id="736e93d740"><path d="M 356 143 L 422 143 L 422 211 L 356 211 Z M 356 143 " clip-rule="nonzero"/></clipPath><clipPath id="93f295bf0f"><path d="M 370.210938 134.8125 L 430.507812 156.367188 L 407.855469 219.726562 L 347.558594 198.167969 Z M 370.210938 134.8125 " clip-rule="nonzero"/></clipPath><clipPath id="341b5fa35c"><path d="M 400.359375 145.589844 C 383.707031 139.636719 365.148438 148.972656 358.902344 166.441406 C 352.660156 183.910156 361.09375 202.898438 377.742188 208.847656 C 394.394531 214.800781 412.953125 205.464844 419.199219 187.996094 C 425.445312 170.527344 417.007812 151.542969 400.359375 145.589844 Z M 400.359375 145.589844 " clip-rule="nonzero"/></clipPath><clipPath id="ca00264340"><path d="M 0 0 L 66 0 L 66 68 L 0 68 Z M 0 0 " clip-rule="nonzero"/></clipPath><clipPath id="5581821468"><path d="M 14.210938 -8.1875 L 74.507812 13.367188 L 51.855469 76.726562 L -8.441406 55.167969 Z M 14.210938 -8.1875 " clip-rule="nonzero"/></clipPath><clipPath id="1ad892711a"><path d="M 44.359375 2.589844 C 27.707031 -3.363281 9.148438 5.972656 2.902344 23.441406 C -3.339844 40.910156 5.09375 59.898438 21.742188 65.847656 C 38.394531 71.800781 56.953125 62.464844 63.199219 44.996094 C 69.445312 27.527344 61.007812 8.542969 44.359375 2.589844 Z M 44.359375 2.589844 " clip-rule="nonzero"/></clipPath><clipPath id="ca9415550a"><rect x="0" width="66" y="0" height="68"/></clipPath><clipPath id="38cbdc1b44"><path d="M 445 161 L 510 161 L 510 229 L 445 229 Z M 445 161 " clip-rule="nonzero"/></clipPath><clipPath id="15d880c2dd"><path d="M 458.410156 152.648438 L 518.703125 174.203125 L 496.054688 237.5625 L 435.757812 216.007812 Z M 458.410156 152.648438 " clip-rule="nonzero"/></clipPath><clipPath id="b5767bdd93"><path d="M 488.554688 163.425781 C 471.90625 157.472656 453.347656 166.808594 447.101562 184.277344 C 440.855469 201.746094 449.289062 220.734375 465.941406 226.6875 C 482.589844 232.640625 501.152344 223.304688 507.394531 205.835938 C 513.640625 188.367188 505.207031 169.378906 488.554688 163.425781 Z M 488.554688 163.425781 " clip-rule="nonzero"/></clipPath><clipPath id="0238e647cd"><path d="M 0 0 L 65 0 L 65 68 L 0 68 Z M 0 0 " clip-rule="nonzero"/></clipPath><clipPath id="ebd071f506"><path d="M 13.410156 -8.351562 L 73.703125 13.203125 L 51.054688 76.5625 L -9.242188 55.007812 Z M 13.410156 -8.351562 " clip-rule="nonzero"/></clipPath><clipPath id="c2e12b7aef"><path d="M 43.554688 2.425781 C 26.90625 -3.527344 8.347656 5.808594 2.101562 23.277344 C -4.144531 40.746094 4.289062 59.734375 20.941406 65.6875 C 37.589844 71.640625 56.152344 62.304688 62.394531 44.835938 C 68.640625 27.367188 60.207031 8.378906 43.554688 2.425781 Z M 43.554688 2.425781 " clip-rule="nonzero"/></clipPath><clipPath id="ba7b438e89"><rect x="0" width="65" y="0" height="68"/></clipPath><clipPath id="02ae3e4cdd"><path d="M 523 197 L 589 197 L 589 265 L 523 265 Z M 523 197 " clip-rule="nonzero"/></clipPath><clipPath id="7449686d93"><path d="M 537.359375 188.707031 L 597.65625 210.265625 L 575.003906 273.621094 L 514.710938 252.066406 Z M 537.359375 188.707031 " clip-rule="nonzero"/></clipPath><clipPath id="13fcbb2e99"><path d="M 567.507812 199.488281 C 550.859375 193.535156 532.296875 202.871094 526.050781 220.339844 C 519.808594 237.808594 528.242188 256.792969 544.890625 262.746094 C 561.542969 268.699219 580.101562 259.363281 586.347656 241.894531 C 592.59375 224.425781 584.15625 205.4375 567.507812 199.488281 Z M 567.507812 199.488281 " clip-rule="nonzero"/></clipPath><clipPath id="bbf5223d25"><path d="M 0 0 L 66 0 L 66 68 L 0 68 Z M 0 0 " clip-rule="nonzero"/></clipPath><clipPath id="23c2fc4d21"><path d="M 14.359375 -8.292969 L 74.65625 13.265625 L 52.003906 76.621094 L -8.289062 55.066406 Z M 14.359375 -8.292969 " clip-rule="nonzero"/></clipPath><clipPath id="8f23775fbb"><path d="M 44.507812 2.488281 C 27.859375 -3.464844 9.296875 5.871094 3.050781 23.339844 C -3.191406 40.808594 5.242188 59.792969 21.890625 65.746094 C 38.542969 71.699219 57.101562 62.363281 63.347656 44.894531 C 69.59375 27.425781 61.15625 8.4375 44.507812 2.488281 Z M 44.507812 2.488281 " clip-rule="nonzero"/></clipPath><clipPath id="3931ca930d"><rect x="0" width="66" y="0" height="68"/></clipPath><clipPath id="b20c0f674b"><path d="M 125 336 L 269 336 L 269 599 L 125 599 Z M 125 336 " clip-rule="nonzero"/></clipPath><clipPath id="0412629850"><path d="M 121.125 355.058594 L 191.953125 331.933594 L 272.796875 579.550781 L 201.972656 602.675781 Z M 121.125 355.058594 " clip-rule="nonzero"/></clipPath><clipPath id="e5e49d8e3f"><path d="M 136.097656 350.171875 L 176.980469 336.824219 C 180.953125 335.527344 185.273438 335.859375 189 337.75 C 192.722656 339.640625 195.542969 342.933594 196.839844 346.90625 L 267.863281 564.4375 C 269.160156 568.410156 268.828125 572.734375 266.933594 576.457031 C 265.042969 580.183594 261.75 583.003906 257.78125 584.300781 L 216.898438 597.648438 C 212.925781 598.945312 208.605469 598.609375 204.878906 596.71875 C 201.15625 594.828125 198.332031 591.535156 197.039062 587.5625 L 126.015625 370.03125 C 123.3125 361.761719 127.828125 352.871094 136.097656 350.171875 Z M 136.097656 350.171875 " clip-rule="nonzero"/></clipPath><clipPath id="0615128f16"><path d="M 0 0 L 144 0 L 144 263 L 0 263 Z M 0 0 " clip-rule="nonzero"/></clipPath><clipPath id="57e777fea1"><path d="M -3.875 19.058594 L 66.953125 -4.066406 L 147.796875 243.550781 L 76.972656 266.675781 Z M -3.875 19.058594 " clip-rule="nonzero"/></clipPath><clipPath id="c682cb850d"><path d="M 11.097656 14.171875 L 51.980469 0.824219 C 55.953125 -0.472656 60.273438 -0.140625 64 1.75 C 67.722656 3.640625 70.542969 6.933594 71.839844 10.90625 L 142.863281 228.4375 C 144.160156 232.410156 143.828125 236.734375 141.933594 240.457031 C 140.042969 244.183594 136.75 247.003906 132.78125 248.300781 L 91.898438 261.648438 C 87.925781 262.945312 83.605469 262.609375 79.878906 260.71875 C 76.15625 258.828125 73.332031 255.535156 72.039062 251.5625 L 1.015625 34.03125 C -1.6875 25.761719 2.828125 16.871094 11.097656 14.171875 Z M 11.097656 14.171875 " clip-rule="nonzero"/></clipPath><clipPath id="cb5f63550d"><rect x="0" width="144" y="0" height="263"/></clipPath><clipPath id="6377abe9c5"><path d="M 125 336 L 269 336 L 269 599 L 125 599 Z M 125 336 " clip-rule="nonzero"/></clipPath><clipPath id="942be6ccce"><path d="M 121.125 355.058594 L 191.710938 332.015625 L 272.484375 579.410156 L 201.898438 602.457031 Z M 121.125 355.058594 " clip-rule="nonzero"/></clipPath><clipPath id="6a0ba9f843"><path d="M 121.132812 355.074219 L 194.644531 331.074219 L 276.46875 581.6875 L 202.957031 605.691406 Z M 121.132812 355.074219 " clip-rule="nonzero"/></clipPath><clipPath id="9694e1d86a"><path d="M 136.101562 350.1875 L 176.976562 336.839844 C 180.949219 335.546875 185.269531 335.878906 188.996094 337.769531 C 192.71875 339.660156 195.539062 342.953125 196.835938 346.925781 L 267.847656 564.425781 C 269.144531 568.398438 268.8125 572.71875 266.921875 576.445312 C 265.03125 580.167969 261.738281 582.988281 257.765625 584.285156 L 216.890625 597.628906 C 212.917969 598.925781 208.597656 598.59375 204.871094 596.703125 C 201.148438 594.8125 198.328125 591.519531 197.03125 587.546875 L 126.019531 370.046875 C 123.320312 361.777344 127.832031 352.886719 136.101562 350.1875 Z M 136.101562 350.1875 " clip-rule="nonzero"/></clipPath><clipPath id="5e86854261"><path d="M 117 317 L 206 317 L 206 401 L 117 401 Z M 117 317 " clip-rule="nonzero"/></clipPath><clipPath id="019043adb5"><path d="M 117.371094 339.878906 L 185.800781 317.539062 L 205.746094 378.628906 L 137.316406 400.96875 Z M 117.371094 339.878906 " clip-rule="nonzero"/></clipPath><clipPath id="827a3d7318"><path d="M 0.359375 0.519531 L 88.921875 0.519531 L 88.921875 84 L 0.359375 84 Z M 0.359375 0.519531 " clip-rule="nonzero"/></clipPath><clipPath id="66f1e68fd2"><path d="M 0.371094 22.878906 L 68.800781 0.539062 L 88.746094 61.628906 L 20.316406 83.96875 Z M 0.371094 22.878906 " clip-rule="nonzero"/></clipPath><clipPath id="15416feb30"><rect x="0" width="89" y="0" height="84"/></clipPath><clipPath id="4c5901f274"><path d="M 117 317 L 206 317 L 206 401 L 117 401 Z M 117 317 " clip-rule="nonzero"/></clipPath><clipPath id="c24a49aec0"><path d="M 117.371094 339.878906 L 185.8125 317.535156 L 205.832031 378.847656 L 137.390625 401.195312 Z M 117.371094 339.878906 " clip-rule="nonzero"/></clipPath><clipPath id="27051ecde6"><path d="M 117.371094 339.878906 L 185.792969 317.539062 L 205.734375 378.621094 L 137.3125 400.960938 Z M 117.371094 339.878906 " clip-rule="nonzero"/></clipPath><clipPath id="30f1608bf9"><path d="M 81 286 L 218 286 L 218 380 L 81 380 Z M 81 286 " clip-rule="nonzero"/></clipPath><clipPath id="d7a406aaa9"><path d="M 81.035156 338.75 L 199.289062 286.425781 L 217.308594 327.15625 L 99.058594 379.476562 Z M 81.035156 338.75 " clip-rule="nonzero"/></clipPath><clipPath id="1996ba9626"><path d="M 0 0.320312 L 136.441406 0.320312 L 136.441406 93.679688 L 0 93.679688 Z M 0 0.320312 " clip-rule="nonzero"/></clipPath><clipPath id="854da29f35"><path d="M 0.0351562 52.75 L 118.289062 0.425781 L 136.308594 41.15625 L 18.058594 93.476562 Z M 0.0351562 52.75 " clip-rule="nonzero"/></clipPath><clipPath id="7ada7099ec"><rect x="0" width="137" y="0" height="94"/></clipPath><clipPath id="ba9396266e"><path d="M 94 218 L 198 218 L 198 370 L 94 370 Z M 94 218 " clip-rule="nonzero"/></clipPath><clipPath id="78b51403bc"><path d="M 53.097656 239.214844 L 149.808594 198.328125 L 211.726562 344.777344 L 115.015625 385.664062 Z M 53.097656 239.214844 " clip-rule="nonzero"/></clipPath><clipPath id="3363738914"><path d="M 53.097656 239.214844 L 151.820312 197.476562 L 213.835938 344.152344 L 115.109375 385.890625 Z M 53.097656 239.214844 " clip-rule="nonzero"/></clipPath><clipPath id="7251924091"><path d="M 101.4375 218.777344 C 134.226562 237.503906 180.804688 271.734375 194.105469 303.1875 C 203.789062 326.09375 189.988281 353.851562 163.3125 365.128906 C 136.632812 376.40625 107.109375 366.96875 97.425781 344.0625 C 84.125 312.609375 129.222656 260.976562 101.4375 218.777344 Z M 101.4375 218.777344 " clip-rule="nonzero"/></clipPath><clipPath id="4c85bbb09f"><path d="M 258 214 L 349 214 L 349 345 L 258 345 Z M 258 214 " clip-rule="nonzero"/></clipPath><clipPath id="dda2a88e1f"><path d="M 267.472656 210.503906 L 356.382812 218.675781 L 344.476562 348.21875 L 255.566406 340.046875 Z M 267.472656 210.503906 " clip-rule="nonzero"/></clipPath><clipPath id="4ea3139549"><path d="M 311.925781 214.589844 C 329.085938 240.824219 350.417969 283.582031 347.859375 311.402344 C 345.996094 331.660156 324.5625 346.277344 300.03125 344.023438 C 275.496094 341.765625 257.085938 323.488281 258.949219 303.230469 C 261.507812 275.410156 315.96875 255.777344 311.925781 214.589844 Z M 311.925781 214.589844 " clip-rule="nonzero"/></clipPath><clipPath id="25fa246bd8"><path d="M 0 0.558594 L 91 0.558594 L 91 131 L 0 131 Z M 0 0.558594 " clip-rule="nonzero"/></clipPath><clipPath id="eae9d50164"><path d="M 9.472656 -3.496094 L 98.382812 4.675781 L 86.476562 134.21875 L -2.433594 126.046875 Z M 9.472656 -3.496094 " clip-rule="nonzero"/></clipPath><clipPath id="7a2780f3d4"><path d="M 53.925781 0.589844 C 71.085938 26.824219 92.417969 69.582031 89.859375 97.402344 C 87.996094 117.660156 66.5625 132.277344 42.03125 130.023438 C 17.496094 127.765625 -0.914062 109.488281 0.949219 89.230469 C 3.507812 61.410156 57.96875 41.777344 53.925781 0.589844 Z M 53.925781 0.589844 " clip-rule="nonzero"/></clipPath><clipPath id="682f2e3360"><rect x="0" width="91" y="0" height="131"/></clipPath><clipPath id="7a2787dad6"><path d="M 217 339 L 335 339 L 335 625 L 217 625 Z M 217 339 " clip-rule="nonzero"/></clipPath><clipPath id="fadbebe94b"><path d="M 264.164062 337.125 L 337.105469 350.105469 L 287.730469 627.625 L 214.789062 614.644531 Z M 264.164062 337.125 " clip-rule="nonzero"/></clipPath><clipPath id="335e2aaef1"><path d="M 280.410156 340.015625 L 320.863281 347.214844 C 325.167969 347.980469 328.996094 350.425781 331.5 354.015625 C 334.007812 357.605469 334.984375 362.039062 334.214844 366.347656 L 290.648438 611.230469 C 289.878906 615.539062 287.433594 619.363281 283.84375 621.871094 C 280.257812 624.375 275.820312 625.351562 271.511719 624.582031 L 231.058594 617.386719 C 226.75 616.621094 222.925781 614.171875 220.417969 610.585938 C 217.914062 606.996094 216.9375 602.558594 217.707031 598.25 L 261.273438 353.371094 C 262.042969 349.0625 264.488281 345.234375 268.078125 342.730469 C 271.664062 340.226562 276.101562 339.25 280.410156 340.015625 Z M 280.410156 340.015625 " clip-rule="nonzero"/></clipPath><clipPath id="e53c4c7ede"><path d="M 0 0.121094 L 118 0.121094 L 118 286 L 0 286 Z M 0 0.121094 " clip-rule="nonzero"/></clipPath><clipPath id="46e3a5e58a"><path d="M 47.164062 -1.875 L 120.105469 11.105469 L 70.730469 288.625 L -2.210938 275.644531 Z M 47.164062 -1.875 " clip-rule="nonzero"/></clipPath><clipPath id="9e1e0eba69"><path d="M 63.410156 1.015625 L 103.863281 8.214844 C 108.167969 8.980469 111.996094 11.425781 114.5 15.015625 C 117.007812 18.605469 117.984375 23.039062 117.214844 27.347656 L 73.648438 272.230469 C 72.878906 276.539062 70.433594 280.363281 66.84375 282.871094 C 63.257812 285.375 58.820312 286.351562 54.511719 285.582031 L 14.058594 278.386719 C 9.75 277.621094 5.925781 275.171875 3.417969 271.585938 C 0.914062 267.996094 -0.0625 263.558594 0.707031 259.25 L 44.273438 14.371094 C 45.042969 10.0625 47.488281 6.234375 51.078125 3.730469 C 54.664062 1.226562 59.101562 0.25 63.410156 1.015625 Z M 63.410156 1.015625 " clip-rule="nonzero"/></clipPath><clipPath id="f5d5d28990"><rect x="0" width="118" y="0" height="286"/></clipPath><clipPath id="647bb62b12"><path d="M 217 339 L 335 339 L 335 625 L 217 625 Z M 217 339 " clip-rule="nonzero"/></clipPath><clipPath id="20b4ccf9c0"><path d="M 264.164062 337.125 L 337.265625 350.132812 L 287.871094 627.773438 L 214.765625 614.765625 Z M 264.164062 337.125 " clip-rule="nonzero"/></clipPath><clipPath id="05c36cee69"><path d="M 264.164062 337.125 L 340.3125 350.675781 L 290.429688 631.03125 L 214.285156 617.480469 Z M 264.164062 337.125 " clip-rule="nonzero"/></clipPath><clipPath id="751da340d0"><path d="M 280.410156 340.015625 L 320.859375 347.214844 C 325.167969 347.980469 328.996094 350.425781 331.5 354.015625 C 334.003906 357.605469 334.980469 362.039062 334.214844 366.347656 L 290.648438 611.222656 C 289.878906 615.53125 287.433594 619.359375 283.84375 621.863281 C 280.257812 624.367188 275.820312 625.34375 271.511719 624.578125 L 231.0625 617.378906 C 226.753906 616.613281 222.925781 614.167969 220.421875 610.578125 C 217.917969 606.988281 216.941406 602.554688 217.707031 598.246094 L 261.273438 353.371094 C 262.042969 349.0625 264.488281 345.234375 268.078125 342.730469 C 271.664062 340.226562 276.101562 339.25 280.410156 340.015625 Z M 280.410156 340.015625 " clip-rule="nonzero"/></clipPath><clipPath id="ce1919ddea"><path d="M 255 337 L 337 337 L 337 407 L 255 407 Z M 255 337 " clip-rule="nonzero"/></clipPath><clipPath id="c8eee4f319"><path d="M 265.164062 337.128906 L 336.179688 348.90625 L 326.589844 406.71875 L 255.574219 394.9375 Z M 265.164062 337.128906 " clip-rule="nonzero"/></clipPath><clipPath id="3fa3ab5981"><path d="M 0.359375 0 L 81.238281 0 L 81.238281 69.800781 L 0.359375 69.800781 Z M 0.359375 0 " clip-rule="nonzero"/></clipPath><clipPath id="183d7152b2"><path d="M 10.164062 0.128906 L 81.179688 11.90625 L 71.589844 69.71875 L 0.574219 57.9375 Z M 10.164062 0.128906 " clip-rule="nonzero"/></clipPath><clipPath id="143f3c9a17"><rect x="0" width="82" y="0" height="70"/></clipPath><clipPath id="0f573dcfc1"><path d="M 255 337 L 337 337 L 337 407 L 255 407 Z M 255 337 " clip-rule="nonzero"/></clipPath><clipPath id="81199570b2"><path d="M 265.164062 337.128906 L 336.195312 348.910156 L 326.621094 406.621094 L 255.589844 394.839844 Z M 265.164062 337.128906 " clip-rule="nonzero"/></clipPath><clipPath id="5c6b9de96b"><path d="M 265.164062 337.128906 L 336.171875 348.90625 L 326.582031 406.707031 L 255.574219 394.929688 Z M 265.164062 337.128906 " clip-rule="nonzero"/></clipPath><clipPath id="4102e2cbd3"><path d="M 251 304 L 346 304 L 346 358 L 251 358 Z M 251 304 " clip-rule="nonzero"/></clipPath><clipPath id="42599c3b74"><path d="M 254.480469 302.996094 L 347.722656 312.832031 L 342.832031 359.183594 L 249.589844 349.347656 Z M 254.480469 302.996094 " clip-rule="nonzero"/></clipPath><clipPath id="46a07ce690"><path d="M 270.890625 304.726562 L 331.1875 311.089844 C 335.539062 311.546875 339.53125 313.71875 342.285156 317.117188 C 345.035156 320.519531 346.324219 324.878906 345.867188 329.230469 L 344.4375 342.761719 C 343.980469 347.113281 341.808594 351.105469 338.410156 353.855469 C 335.007812 356.609375 330.652344 357.898438 326.296875 357.4375 L 266 351.078125 C 261.648438 350.617188 257.65625 348.449219 254.902344 345.046875 C 252.152344 341.644531 250.863281 337.289062 251.320312 332.9375 L 252.75 319.40625 C 253.207031 315.054688 255.378906 311.0625 258.78125 308.308594 C 262.179688 305.558594 266.539062 304.269531 270.890625 304.726562 Z M 270.890625 304.726562 " clip-rule="nonzero"/></clipPath><clipPath id="632abb2bf8"><path d="M 0 0.078125 L 95 0.078125 L 95 54 L 0 54 Z M 0 0.078125 " clip-rule="nonzero"/></clipPath><clipPath id="778b8a6031"><path d="M 3.480469 -1.003906 L 96.722656 8.832031 L 91.832031 55.183594 L -1.410156 45.347656 Z M 3.480469 -1.003906 " clip-rule="nonzero"/></clipPath><clipPath id="23d74504ce"><path d="M 19.890625 0.726562 L 80.1875 7.089844 C 84.539062 7.546875 88.53125 9.71875 91.285156 13.117188 C 94.035156 16.519531 95.324219 20.878906 94.867188 25.230469 L 93.4375 38.761719 C 92.980469 43.113281 90.808594 47.105469 87.410156 49.855469 C 84.007812 52.609375 79.652344 53.898438 75.296875 53.4375 L 15 47.078125 C 10.648438 46.617188 6.65625 44.449219 3.902344 41.046875 C 1.152344 37.644531 -0.136719 33.289062 0.320312 28.9375 L 1.75 15.40625 C 2.207031 11.054688 4.378906 7.0625 7.78125 4.308594 C 11.179688 1.558594 15.539062 0.269531 19.890625 0.726562 Z M 19.890625 0.726562 " clip-rule="nonzero"/></clipPath><clipPath id="0ea76489a6"><rect x="0" width="95" y="0" height="54"/></clipPath><clipPath id="a04852c8a2"><path d="M 246 202 L 357 202 L 357 371 L 246 371 Z M 246 202 " clip-rule="nonzero"/></clipPath><clipPath id="575fe9118f"><path d="M 257.394531 197.859375 L 367.929688 208.019531 L 352.550781 375.3125 L 242.015625 365.152344 Z M 257.394531 197.859375 " clip-rule="nonzero"/></clipPath><clipPath id="d366a94c39"><path d="M 257.394531 197.859375 L 370.039062 208.214844 L 354.65625 375.574219 L 242.011719 365.21875 Z M 257.394531 197.859375 " clip-rule="nonzero"/></clipPath><clipPath id="d67ad97973"><path d="M 312.550781 202.929688 C 333.726562 236.6875 360.007812 291.738281 356.710938 327.628906 C 354.308594 353.769531 327.640625 372.714844 297.199219 369.917969 C 266.761719 367.117188 243.996094 343.628906 246.398438 317.488281 C 249.695312 281.601562 317.378906 256.03125 312.550781 202.929688 Z M 312.550781 202.929688 " clip-rule="nonzero"/></clipPath><clipPath id="502a81ad6f"><path d="M 306 309 L 349 309 L 349 327 L 306 327 Z M 306 309 " clip-rule="nonzero"/></clipPath><clipPath id="0b2bf6a8c4"><path d="M 307.460938 308.308594 L 349.253906 312.714844 L 347.769531 326.773438 L 305.980469 322.367188 Z M 307.460938 308.308594 " clip-rule="nonzero"/></clipPath><clipPath id="d098d60735"><path d="M 314.492188 309.046875 L 342.203125 311.972656 C 346.085938 312.382812 348.902344 315.859375 348.492188 319.742188 C 348.082031 323.625 344.601562 326.441406 340.71875 326.03125 L 313.007812 323.105469 C 309.125 322.699219 306.3125 319.21875 306.71875 315.335938 C 307.128906 311.453125 310.609375 308.640625 314.492188 309.046875 Z M 314.492188 309.046875 " clip-rule="nonzero"/></clipPath><clipPath id="4fd7662a10"><path d="M 0.238281 0 L 42.960938 0 L 42.960938 17.640625 L 0.238281 17.640625 Z M 0.238281 0 " clip-rule="nonzero"/></clipPath><clipPath id="5445abc5ea"><path d="M 1.460938 -0.691406 L 43.253906 3.714844 L 41.769531 17.773438 L -0.0195312 13.367188 Z M 1.460938 -0.691406 " clip-rule="nonzero"/></clipPath><clipPath id="e231fed1c8"><path d="M 8.492188 0.046875 L 36.203125 2.972656 C 40.085938 3.382812 42.902344 6.859375 42.492188 10.742188 C 42.082031 14.625 38.601562 17.441406 34.71875 17.03125 L 7.007812 14.105469 C 3.125 13.699219 0.3125 10.21875 0.71875 6.335938 C 1.128906 2.453125 4.609375 -0.359375 8.492188 0.046875 Z M 8.492188 0.046875 " clip-rule="nonzero"/></clipPath><clipPath id="d33379c576"><rect x="0" width="43" y="0" height="18"/></clipPath><clipPath id="8dc8ec9b05"><path d="M 263 310 L 334 310 L 334 360 L 263 360 Z M 263 310 " clip-rule="nonzero"/></clipPath><clipPath id="48c0c1a723"><path d="M 266.429688 308.308594 L 335.773438 315.621094 L 330.882812 361.972656 L 261.539062 354.65625 Z M 266.429688 308.308594 " clip-rule="nonzero"/></clipPath><clipPath id="718181b3de"><path d="M 289.601562 310.753906 L 312.472656 313.164062 C 325.273438 314.515625 334.554688 325.984375 333.203125 338.785156 C 331.855469 351.582031 320.382812 360.863281 307.585938 359.515625 L 284.714844 357.101562 C 271.914062 355.753906 262.632812 344.28125 263.984375 331.484375 C 265.332031 318.683594 276.804688 309.402344 289.601562 310.753906 Z M 289.601562 310.753906 " clip-rule="nonzero"/></clipPath><clipPath id="73b41f9e83"><path d="M 0 0 L 71 0 L 71 50 L 0 50 Z M 0 0 " clip-rule="nonzero"/></clipPath><clipPath id="bbffbf4c98"><path d="M 3.429688 -1.691406 L 72.773438 5.621094 L 67.882812 51.972656 L -1.460938 44.65625 Z M 3.429688 -1.691406 " clip-rule="nonzero"/></clipPath><clipPath id="0f115c1809"><path d="M 26.601562 0.753906 L 49.472656 3.164062 C 62.273438 4.515625 71.554688 15.984375 70.203125 28.785156 C 68.855469 41.582031 57.382812 50.863281 44.585938 49.515625 L 21.714844 47.101562 C 8.914062 45.753906 -0.367188 34.28125 0.984375 21.484375 C 2.332031 8.683594 13.804688 -0.597656 26.601562 0.753906 Z M 26.601562 0.753906 " clip-rule="nonzero"/></clipPath><clipPath id="9312773765"><rect x="0" width="71" y="0" height="50"/></clipPath><clipPath id="f141c98ef1"><path d="M 306 315 L 349 315 L 349 333 L 306 333 Z M 306 315 " clip-rule="nonzero"/></clipPath><clipPath id="37c38eb62f"><path d="M 307.460938 314.488281 L 349.253906 318.898438 L 347.769531 332.957031 L 305.980469 328.546875 Z M 307.460938 314.488281 " clip-rule="nonzero"/></clipPath><clipPath id="a53cfe666e"><path d="M 314.492188 315.230469 L 342.203125 318.152344 C 346.085938 318.5625 348.902344 322.042969 348.492188 325.925781 C 348.082031 329.808594 344.601562 332.621094 340.71875 332.210938 L 313.007812 329.289062 C 309.125 328.878906 306.3125 325.402344 306.71875 321.519531 C 307.128906 317.636719 310.609375 314.820312 314.492188 315.230469 Z M 314.492188 315.230469 " clip-rule="nonzero"/></clipPath><clipPath id="a9ae442b95"><path d="M 0.238281 0 L 42.960938 0 L 42.960938 17.640625 L 0.238281 17.640625 Z M 0.238281 0 " clip-rule="nonzero"/></clipPath><clipPath id="108a271d65"><path d="M 1.460938 -0.511719 L 43.253906 3.898438 L 41.769531 17.957031 L -0.0195312 13.546875 Z M 1.460938 -0.511719 " clip-rule="nonzero"/></clipPath><clipPath id="9e56f85f1d"><path d="M 8.492188 0.230469 L 36.203125 3.152344 C 40.085938 3.5625 42.902344 7.042969 42.492188 10.925781 C 42.082031 14.808594 38.601562 17.621094 34.71875 17.210938 L 7.007812 14.289062 C 3.125 13.878906 0.3125 10.402344 0.71875 6.519531 C 1.128906 2.636719 4.609375 -0.179688 8.492188 0.230469 Z M 8.492188 0.230469 " clip-rule="nonzero"/></clipPath><clipPath id="b086c00505"><rect x="0" width="43" y="0" height="18"/></clipPath><clipPath id="662e041447"><path d="M 306 324 L 349 324 L 349 339 L 306 339 Z M 306 324 " clip-rule="nonzero"/></clipPath><clipPath id="e248887460"><path d="M 307.140625 323.722656 L 348.9375 328.128906 L 347.773438 339.136719 L 305.980469 334.730469 Z M 307.140625 323.722656 " clip-rule="nonzero"/></clipPath><clipPath id="d9e841eab3"><path d="M 312.644531 324.300781 L 343.40625 327.546875 C 346.445312 327.867188 348.652344 330.59375 348.332031 333.632812 C 348.007812 336.671875 345.285156 338.875 342.246094 338.554688 L 311.484375 335.308594 C 308.441406 334.988281 306.238281 332.265625 306.558594 329.226562 C 306.878906 326.1875 309.605469 323.980469 312.644531 324.300781 Z M 312.644531 324.300781 " clip-rule="nonzero"/></clipPath><clipPath id="e6a1af92b1"><path d="M 0 0 L 42.71875 0 L 42.71875 14.878906 L 0 14.878906 Z M 0 0 " clip-rule="nonzero"/></clipPath><clipPath id="956690884b"><path d="M 1.140625 -0.277344 L 42.9375 4.128906 L 41.773438 15.136719 L -0.0195312 10.730469 Z M 1.140625 -0.277344 " clip-rule="nonzero"/></clipPath><clipPath id="16121ecaa5"><path d="M 6.644531 0.300781 L 37.40625 3.546875 C 40.445312 3.867188 42.652344 6.59375 42.332031 9.632812 C 42.007812 12.671875 39.285156 14.875 36.246094 14.554688 L 5.484375 11.308594 C 2.441406 10.988281 0.238281 8.265625 0.558594 5.226562 C 0.878906 2.1875 3.605469 -0.0195312 6.644531 0.300781 Z M 6.644531 0.300781 " clip-rule="nonzero"/></clipPath><clipPath id="ed29d1b7eb"><rect x="0" width="43" y="0" height="15"/></clipPath><clipPath id="0b73fc035a"><path d="M 256 305 L 299 305 L 299 320 L 256 320 Z M 256 305 " clip-rule="nonzero"/></clipPath><clipPath id="aee3b47db7"><path d="M 256.824219 304.625 L 298.617188 309.03125 L 297.457031 320.039062 L 255.660156 315.632812 Z M 256.824219 304.625 " clip-rule="nonzero"/></clipPath><clipPath id="15c845a9d4"><path d="M 262.328125 305.203125 L 293.089844 308.449219 C 296.128906 308.769531 298.332031 311.496094 298.011719 314.535156 C 297.691406 317.574219 294.96875 319.777344 291.929688 319.457031 L 261.164062 316.210938 C 258.125 315.890625 255.921875 313.167969 256.242188 310.128906 C 256.5625 307.089844 259.285156 304.882812 262.328125 305.203125 Z M 262.328125 305.203125 " clip-rule="nonzero"/></clipPath><clipPath id="bb0432e630"><path d="M 0 0 L 42.558594 0 L 42.558594 14.921875 L 0 14.921875 Z M 0 0 " clip-rule="nonzero"/></clipPath><clipPath id="b578bd7a71"><path d="M 0.824219 -0.375 L 42.617188 4.03125 L 41.457031 15.039062 L -0.339844 10.632812 Z M 0.824219 -0.375 " clip-rule="nonzero"/></clipPath><clipPath id="debf806f35"><path d="M 6.328125 0.203125 L 37.089844 3.449219 C 40.128906 3.769531 42.332031 6.496094 42.011719 9.535156 C 41.691406 12.574219 38.96875 14.777344 35.929688 14.457031 L 5.164062 11.210938 C 2.125 10.890625 -0.078125 8.167969 0.242188 5.128906 C 0.5625 2.089844 3.285156 -0.117188 6.328125 0.203125 Z M 6.328125 0.203125 " clip-rule="nonzero"/></clipPath><clipPath id="0568f51794"><rect x="0" width="43" y="0" height="15"/></clipPath><clipPath id="000fe8c572"><path d="M 258 303 L 301 303 L 301 313 L 258 313 Z M 258 303 " clip-rule="nonzero"/></clipPath><clipPath id="4da23bbde4"><path d="M 259.167969 303.6875 L 300.949219 308.097656 L 300.4375 312.925781 L 258.660156 308.519531 Z M 259.167969 303.6875 " clip-rule="nonzero"/></clipPath><clipPath id="40d02913aa"><path d="M 261.585938 303.945312 L 298.523438 307.839844 C 299.859375 307.980469 300.828125 309.175781 300.6875 310.511719 C 300.542969 311.84375 299.347656 312.8125 298.015625 312.671875 L 261.074219 308.773438 C 259.742188 308.632812 258.773438 307.4375 258.914062 306.105469 C 259.054688 304.769531 260.25 303.800781 261.585938 303.945312 Z M 261.585938 303.945312 " clip-rule="nonzero"/></clipPath><clipPath id="1b70a84789"><path d="M 0.71875 0.601562 L 42.960938 0.601562 L 42.960938 9.960938 L 0.71875 9.960938 Z M 0.71875 0.601562 " clip-rule="nonzero"/></clipPath><clipPath id="20a9a255c7"><path d="M 1.167969 0.6875 L 42.949219 5.097656 L 42.4375 9.925781 L 0.660156 5.519531 Z M 1.167969 0.6875 " clip-rule="nonzero"/></clipPath><clipPath id="7bf4374bea"><path d="M 3.585938 0.945312 L 40.523438 4.839844 C 41.859375 4.980469 42.828125 6.175781 42.6875 7.511719 C 42.542969 8.84375 41.347656 9.8125 40.015625 9.671875 L 3.074219 5.773438 C 1.742188 5.632812 0.773438 4.4375 0.914062 3.105469 C 1.054688 1.769531 2.25 0.800781 3.585938 0.945312 Z M 3.585938 0.945312 " clip-rule="nonzero"/></clipPath><clipPath id="fae27a7fa4"><rect x="0" width="43" y="0" height="10"/></clipPath><clipPath id="9b171fc9e1"><path d="M 131 319 L 182 319 L 182 359 L 131 359 Z M 131 319 " clip-rule="nonzero"/></clipPath><clipPath id="90ac52bce6"><path d="M 126.597656 332.910156 L 175.097656 315.453125 L 185.867188 345.371094 L 137.363281 362.828125 Z M 126.597656 332.910156 " clip-rule="nonzero"/></clipPath><clipPath id="8c1f573be7"><path d="M 141.554688 327.523438 L 160.046875 320.867188 C 168.308594 317.894531 177.417969 322.179688 180.390625 330.441406 C 183.363281 338.703125 179.078125 347.8125 170.816406 350.785156 L 152.324219 357.441406 C 144.0625 360.417969 134.953125 356.128906 131.980469 347.867188 C 129.007812 339.605469 133.292969 330.5 141.554688 327.523438 Z M 141.554688 327.523438 " clip-rule="nonzero"/></clipPath><clipPath id="d21bb6afe9"><path d="M 0 0 L 51 0 L 51 40 L 0 40 Z M 0 0 " clip-rule="nonzero"/></clipPath><clipPath id="310071ce84"><path d="M -4.402344 13.910156 L 44.097656 -3.546875 L 54.867188 26.371094 L 6.363281 43.828125 Z M -4.402344 13.910156 " clip-rule="nonzero"/></clipPath><clipPath id="8c903f6b78"><path d="M 10.554688 8.523438 L 29.046875 1.867188 C 37.308594 -1.105469 46.417969 3.179688 49.390625 11.441406 C 52.363281 19.703125 48.078125 28.8125 39.816406 31.785156 L 21.324219 38.441406 C 13.0625 41.417969 3.953125 37.128906 0.980469 28.867188 C -1.992188 20.605469 2.292969 11.5 10.554688 8.523438 Z M 10.554688 8.523438 " clip-rule="nonzero"/></clipPath><clipPath id="fa0cdc4f30"><rect x="0" width="51" y="0" height="40"/></clipPath><clipPath id="01697fe986"><path d="M 0 327 L 48 327 L 48 366 L 0 366 Z M 0 327 " clip-rule="nonzero"/></clipPath><clipPath id="342aa7e3c2"><path d="M -7.265625 340.3125 L 41.234375 322.855469 L 52.003906 352.773438 L 3.503906 370.230469 Z M -7.265625 340.3125 " clip-rule="nonzero"/></clipPath><clipPath id="e936e72f04"><path d="M 7.691406 334.929688 L 26.183594 328.273438 C 34.445312 325.300781 43.554688 329.585938 46.527344 337.847656 C 49.503906 346.109375 45.214844 355.21875 36.953125 358.191406 L 18.460938 364.847656 C 10.199219 367.820312 1.09375 363.535156 -1.882812 355.273438 C -4.855469 347.011719 -0.570312 337.902344 7.691406 334.929688 Z M 7.691406 334.929688 " clip-rule="nonzero"/></clipPath><clipPath id="5fff4ee783"><path d="M 0 0 L 48 0 L 48 39 L 0 39 Z M 0 0 " clip-rule="nonzero"/></clipPath><clipPath id="51226155d4"><path d="M -7.265625 13.3125 L 41.234375 -4.144531 L 52.003906 25.773438 L 3.503906 43.230469 Z M -7.265625 13.3125 " clip-rule="nonzero"/></clipPath><clipPath id="e9d3cb35c9"><path d="M 7.691406 7.929688 L 26.183594 1.273438 C 34.445312 -1.699219 43.554688 2.585938 46.527344 10.847656 C 49.503906 19.109375 45.214844 28.21875 36.953125 31.191406 L 18.460938 37.847656 C 10.199219 40.820312 1.09375 36.535156 -1.882812 28.273438 C -4.855469 20.011719 -0.570312 10.902344 7.691406 7.929688 Z M 7.691406 7.929688 " clip-rule="nonzero"/></clipPath><clipPath id="2e4d541f0e"><rect x="0" width="48" y="0" height="39"/></clipPath><clipPath id="7149805c09"><path d="M 125 324 L 176 324 L 176 363 L 125 363 Z M 125 324 " clip-rule="nonzero"/></clipPath><clipPath id="1e8024b927"><path d="M 121.125 337.460938 L 169.628906 320.003906 L 180.398438 349.921875 L 131.894531 367.382812 Z M 121.125 337.460938 " clip-rule="nonzero"/></clipPath><clipPath id="b72cc1028c"><path d="M 136.085938 332.078125 L 154.578125 325.421875 C 162.839844 322.449219 171.949219 326.734375 174.921875 334.996094 C 177.894531 343.257812 173.609375 352.367188 165.347656 355.339844 L 146.855469 361.996094 C 138.59375 364.96875 129.484375 360.683594 126.511719 352.421875 C 123.539062 344.160156 127.824219 335.050781 136.085938 332.078125 Z M 136.085938 332.078125 " clip-rule="nonzero"/></clipPath><clipPath id="8513b54e2a"><path d="M 0 0 L 51 0 L 51 39 L 0 39 Z M 0 0 " clip-rule="nonzero"/></clipPath><clipPath id="6fe08e63e4"><path d="M -3.875 13.460938 L 44.628906 -3.996094 L 55.398438 25.921875 L 6.894531 43.382812 Z M -3.875 13.460938 " clip-rule="nonzero"/></clipPath><clipPath id="c44aa1b98a"><path d="M 11.085938 8.078125 L 29.578125 1.421875 C 37.839844 -1.550781 46.949219 2.734375 49.921875 10.996094 C 52.894531 19.257812 48.609375 28.367188 40.347656 31.339844 L 21.855469 37.996094 C 13.59375 40.96875 4.484375 36.683594 1.511719 28.421875 C -1.460938 20.160156 2.824219 11.050781 11.085938 8.078125 Z M 11.085938 8.078125 " clip-rule="nonzero"/></clipPath><clipPath id="f7cd2e25d4"><rect x="0" width="51" y="0" height="39"/></clipPath><clipPath id="a50ff6ac46"><path d="M 135 328 L 171 328 L 171 362 L 135 362 Z M 135 328 " clip-rule="nonzero"/></clipPath><clipPath id="ec93027514"><path d="M 131.476562 335.570312 L 164.433594 323.707031 L 175.203125 353.625 L 142.246094 365.488281 Z M 131.476562 335.570312 " clip-rule="nonzero"/></clipPath><clipPath id="7a74da1299"><path d="M 146.4375 330.183594 L 149.433594 329.105469 C 157.695312 326.132812 166.804688 330.417969 169.777344 338.679688 C 172.75 346.941406 168.464844 356.050781 160.203125 359.023438 L 157.207031 360.101562 C 148.941406 363.078125 139.835938 358.789062 136.859375 350.527344 C 133.886719 342.265625 138.175781 333.160156 146.4375 330.183594 Z M 146.4375 330.183594 " clip-rule="nonzero"/></clipPath><clipPath id="9aaaff0923"><path d="M 0 0 L 36 0 L 36 34 L 0 34 Z M 0 0 " clip-rule="nonzero"/></clipPath><clipPath id="82dcb69fd9"><path d="M -3.523438 7.570312 L 29.433594 -4.292969 L 40.203125 25.625 L 7.246094 37.488281 Z M -3.523438 7.570312 " clip-rule="nonzero"/></clipPath><clipPath id="54c70f923e"><path d="M 11.4375 2.183594 L 14.433594 1.105469 C 22.695312 -1.867188 31.804688 2.417969 34.777344 10.679688 C 37.75 18.941406 33.464844 28.050781 25.203125 31.023438 L 22.207031 32.101562 C 13.941406 35.078125 4.835938 30.789062 1.859375 22.527344 C -1.113281 14.265625 3.175781 5.160156 11.4375 2.183594 Z M 11.4375 2.183594 " clip-rule="nonzero"/></clipPath><clipPath id="90c6a0656d"><rect x="0" width="36" y="0" height="34"/></clipPath><clipPath id="17dca2f095"><path d="M 278 315 L 319 315 L 319 363 L 278 363 Z M 278 315 " clip-rule="nonzero"/></clipPath><clipPath id="39629ca2d2"><path d="M 281.972656 313.949219 L 320.105469 317.972656 L 315.203125 364.449219 L 277.070312 360.425781 Z M 281.972656 313.949219 " clip-rule="nonzero"/></clipPath><clipPath id="bbf89d94a0"><path d="M 301.039062 315.960938 C 306.09375 316.496094 310.734375 319.015625 313.933594 322.96875 C 317.132812 326.921875 318.628906 331.984375 318.09375 337.039062 L 317.226562 345.253906 C 316.695312 350.3125 314.175781 354.949219 310.222656 358.148438 C 306.269531 361.347656 301.207031 362.84375 296.148438 362.3125 C 291.09375 361.777344 286.453125 359.257812 283.253906 355.304688 C 280.058594 351.351562 278.558594 346.289062 279.09375 341.230469 L 279.960938 333.015625 C 280.492188 327.960938 283.015625 323.320312 286.96875 320.125 C 290.917969 316.925781 295.980469 315.425781 301.039062 315.960938 Z M 301.039062 315.960938 " clip-rule="nonzero"/></clipPath><clipPath id="7ec0411409"><path d="M 0.398438 0.359375 L 40.71875 0.359375 L 40.71875 47.878906 L 0.398438 47.878906 Z M 0.398438 0.359375 " clip-rule="nonzero"/></clipPath><clipPath id="d34c4129c8"><path d="M 3.972656 -1.050781 L 42.105469 2.972656 L 37.203125 49.449219 L -0.929688 45.425781 Z M 3.972656 -1.050781 " clip-rule="nonzero"/></clipPath><clipPath id="bcddceaa00"><path d="M 23.039062 0.960938 C 28.09375 1.496094 32.734375 4.015625 35.933594 7.96875 C 39.132812 11.921875 40.628906 16.984375 40.09375 22.039062 L 39.226562 30.253906 C 38.695312 35.3125 36.175781 39.949219 32.222656 43.148438 C 28.269531 46.347656 23.207031 47.84375 18.148438 47.3125 C 13.09375 46.777344 8.453125 44.257812 5.253906 40.304688 C 2.058594 36.351562 0.558594 31.289062 1.09375 26.230469 L 1.960938 18.015625 C 2.492188 12.960938 5.015625 8.320312 8.96875 5.125 C 12.917969 1.925781 17.980469 0.425781 23.039062 0.960938 Z M 23.039062 0.960938 " clip-rule="nonzero"/></clipPath><clipPath id="37b97566a1"><rect x="0" width="41" y="0" height="48"/></clipPath><clipPath id="e1ff6e72c8"><path d="M 289 316 L 322 316 L 322 363 L 289 363 Z M 289 316 " clip-rule="nonzero"/></clipPath><clipPath id="6d8707b196"><path d="M 293.34375 314.792969 L 323.503906 317.972656 L 318.605469 364.386719 L 288.449219 361.203125 Z M 293.34375 314.792969 " clip-rule="nonzero"/></clipPath><clipPath id="976819833c"><path d="M 308.421875 316.382812 C 316.75 317.261719 322.789062 324.722656 321.910156 333.050781 L 320.203125 349.242188 C 319.324219 357.570312 311.863281 363.609375 303.535156 362.730469 C 295.207031 361.855469 289.167969 354.390625 290.046875 346.0625 L 291.753906 329.871094 C 292.632812 321.542969 300.097656 315.503906 308.421875 316.382812 Z M 308.421875 316.382812 " clip-rule="nonzero"/></clipPath><clipPath id="7d67e94506"><path d="M 0 0 L 33 0 L 33 47 L 0 47 Z M 0 0 " clip-rule="nonzero"/></clipPath><clipPath id="ccce031e6f"><path d="M 4.34375 -1.207031 L 34.503906 1.972656 L 29.605469 48.386719 L -0.550781 45.203125 Z M 4.34375 -1.207031 " clip-rule="nonzero"/></clipPath><clipPath id="9355bb8030"><path d="M 19.421875 0.382812 C 27.75 1.261719 33.789062 8.722656 32.910156 17.050781 L 31.203125 33.242188 C 30.324219 41.570312 22.863281 47.609375 14.535156 46.730469 C 6.207031 45.855469 0.167969 38.390625 1.046875 30.0625 L 2.753906 13.871094 C 3.632812 5.542969 11.097656 -0.496094 19.421875 0.382812 Z M 19.421875 0.382812 " clip-rule="nonzero"/></clipPath><clipPath id="168742760d"><rect x="0" width="33" y="0" height="47"/></clipPath><clipPath id="b8848b5a94"><path d="M 298 314 L 331 314 L 331 361 L 298 361 Z M 298 314 " clip-rule="nonzero"/></clipPath><clipPath id="2703ba08cf"><path d="M 302.191406 312.925781 L 332.347656 316.109375 L 327.453125 362.519531 L 297.292969 359.339844 Z M 302.191406 312.925781 " clip-rule="nonzero"/></clipPath><clipPath id="0617d3ed15"><path d="M 317.269531 314.515625 C 325.597656 315.394531 331.636719 322.859375 330.757812 331.1875 L 329.050781 347.378906 C 328.171875 355.707031 320.707031 361.746094 312.378906 360.867188 C 304.050781 359.988281 298.015625 352.523438 298.890625 344.199219 L 300.601562 328.003906 C 301.480469 319.675781 308.941406 313.636719 317.269531 314.515625 Z M 317.269531 314.515625 " clip-rule="nonzero"/></clipPath><clipPath id="3b491f0453"><path d="M 0 0 L 33 0 L 33 47 L 0 47 Z M 0 0 " clip-rule="nonzero"/></clipPath><clipPath id="5092723f50"><path d="M 4.191406 -1.074219 L 34.347656 2.109375 L 29.453125 48.519531 L -0.707031 45.339844 Z M 4.191406 -1.074219 " clip-rule="nonzero"/></clipPath><clipPath id="13ba7be814"><path d="M 19.269531 0.515625 C 27.597656 1.394531 33.636719 8.859375 32.757812 17.1875 L 31.050781 33.378906 C 30.171875 41.707031 22.707031 47.746094 14.378906 46.867188 C 6.050781 45.988281 0.015625 38.523438 0.890625 30.199219 L 2.601562 14.003906 C 3.480469 5.675781 10.941406 -0.363281 19.269531 0.515625 Z M 19.269531 0.515625 " clip-rule="nonzero"/></clipPath><clipPath id="4c3ed567c1"><rect x="0" width="33" y="0" height="47"/></clipPath><clipPath id="94f4e9a80c"><path d="M 303 313 L 336 313 L 336 361 L 303 361 Z M 303 313 " clip-rule="nonzero"/></clipPath><clipPath id="51736d887b"><path d="M 306.949219 312.019531 L 337.105469 315.199219 L 332.210938 361.613281 L 302.054688 358.429688 Z M 306.949219 312.019531 " clip-rule="nonzero"/></clipPath><clipPath id="e62f1dd8d1"><path d="M 322.027344 313.609375 C 330.355469 314.488281 336.394531 321.949219 335.515625 330.277344 L 333.808594 346.46875 C 332.929688 354.796875 325.464844 360.835938 317.140625 359.957031 C 308.8125 359.078125 302.773438 351.617188 303.652344 343.289062 L 305.359375 327.097656 C 306.238281 318.769531 313.699219 312.730469 322.027344 313.609375 Z M 322.027344 313.609375 " clip-rule="nonzero"/></clipPath><clipPath id="bb36205cf5"><path d="M 0 0 L 33 0 L 33 47.960938 L 0 47.960938 Z M 0 0 " clip-rule="nonzero"/></clipPath><clipPath id="3d914313b4"><path d="M 3.949219 -0.980469 L 34.105469 2.199219 L 29.210938 48.613281 L -0.945312 45.429688 Z M 3.949219 -0.980469 " clip-rule="nonzero"/></clipPath><clipPath id="c07108b1d1"><path d="M 19.027344 0.609375 C 27.355469 1.488281 33.394531 8.949219 32.515625 17.277344 L 30.808594 33.46875 C 29.929688 41.796875 22.464844 47.835938 14.140625 46.957031 C 5.8125 46.078125 -0.226562 38.617188 0.652344 30.289062 L 2.359375 14.097656 C 3.238281 5.769531 10.699219 -0.269531 19.027344 0.609375 Z M 19.027344 0.609375 " clip-rule="nonzero"/></clipPath><clipPath id="e8b4b99cd6"><rect x="0" width="33" y="0" height="48"/></clipPath><clipPath id="530cad09fc"><path d="M 294 315 L 327 315 L 327 362 L 294 362 Z M 294 315 " clip-rule="nonzero"/></clipPath><clipPath id="1258c58e25"><path d="M 297.449219 313.949219 L 327.605469 317.132812 L 322.710938 363.546875 L 292.550781 360.363281 Z M 297.449219 313.949219 " clip-rule="nonzero"/></clipPath><clipPath id="10f7b0bf97"><path d="M 312.527344 315.539062 C 320.855469 316.417969 326.894531 323.882812 326.015625 332.210938 L 324.308594 348.402344 C 323.429688 356.730469 315.964844 362.769531 307.636719 361.890625 C 299.308594 361.011719 293.273438 353.550781 294.148438 345.222656 L 295.859375 329.027344 C 296.738281 320.699219 304.199219 314.664062 312.527344 315.539062 Z M 312.527344 315.539062 " clip-rule="nonzero"/></clipPath><clipPath id="99d81b18c3"><path d="M 0 0 L 33 0 L 33 47 L 0 47 Z M 0 0 " clip-rule="nonzero"/></clipPath><clipPath id="d9c9e25be2"><path d="M 3.449219 -1.050781 L 33.605469 2.132812 L 28.710938 48.546875 L -1.449219 45.363281 Z M 3.449219 -1.050781 " clip-rule="nonzero"/></clipPath><clipPath id="4bc9883812"><path d="M 18.527344 0.539062 C 26.855469 1.417969 32.894531 8.882812 32.015625 17.210938 L 30.308594 33.402344 C 29.429688 41.730469 21.964844 47.769531 13.636719 46.890625 C 5.308594 46.011719 -0.726562 38.550781 0.148438 30.222656 L 1.859375 14.027344 C 2.738281 5.699219 10.199219 -0.335938 18.527344 0.539062 Z M 18.527344 0.539062 " clip-rule="nonzero"/></clipPath><clipPath id="b409eb76d7"><rect x="0" width="33" y="0" height="47"/></clipPath><clipPath id="574dbdf5fd"><path d="M 274 313 L 307 313 L 307 361 L 274 361 Z M 274 313 " clip-rule="nonzero"/></clipPath><clipPath id="86b62a336c"><path d="M 277.640625 312.019531 L 307.800781 315.199219 L 302.902344 361.613281 L 272.746094 358.429688 Z M 277.640625 312.019531 " clip-rule="nonzero"/></clipPath><clipPath id="fcef86c56c"><path d="M 292.71875 313.609375 C 301.046875 314.488281 307.085938 321.949219 306.207031 330.277344 L 304.5 346.46875 C 303.621094 354.796875 296.160156 360.835938 287.832031 359.957031 C 279.503906 359.078125 273.464844 351.617188 274.34375 343.289062 L 276.050781 327.097656 C 276.929688 318.769531 284.394531 312.730469 292.71875 313.609375 Z M 292.71875 313.609375 " clip-rule="nonzero"/></clipPath><clipPath id="cd2775e997"><path d="M 0 0 L 33 0 L 33 47.960938 L 0 47.960938 Z M 0 0 " clip-rule="nonzero"/></clipPath><clipPath id="5a7842dc32"><path d="M 3.640625 -0.980469 L 33.800781 2.199219 L 28.902344 48.613281 L -1.253906 45.429688 Z M 3.640625 -0.980469 " clip-rule="nonzero"/></clipPath><clipPath id="b6e03bdea4"><path d="M 18.71875 0.609375 C 27.046875 1.488281 33.085938 8.949219 32.207031 17.277344 L 30.5 33.46875 C 29.621094 41.796875 22.160156 47.835938 13.832031 46.957031 C 5.503906 46.078125 -0.535156 38.617188 0.34375 30.289062 L 2.050781 14.097656 C 2.929688 5.769531 10.394531 -0.269531 18.71875 0.609375 Z M 18.71875 0.609375 " clip-rule="nonzero"/></clipPath><clipPath id="63f7148020"><rect x="0" width="33" y="0" height="48"/></clipPath><clipPath id="1acb191b1d"><path d="M 268 311 L 301 311 L 301 358 L 268 358 Z M 268 311 " clip-rule="nonzero"/></clipPath><clipPath id="31ef9b8a19"><path d="M 272.320312 309.640625 L 302.476562 312.820312 L 297.578125 359.234375 L 267.421875 356.054688 Z M 272.320312 309.640625 " clip-rule="nonzero"/></clipPath><clipPath id="a47a32b982"><path d="M 287.398438 311.230469 C 295.726562 312.109375 301.761719 319.570312 300.886719 327.898438 L 299.175781 344.09375 C 298.296875 352.417969 290.835938 358.457031 282.507812 357.578125 C 274.179688 356.703125 268.140625 349.238281 269.019531 340.910156 L 270.726562 324.71875 C 271.605469 316.390625 279.070312 310.351562 287.398438 311.230469 Z M 287.398438 311.230469 " clip-rule="nonzero"/></clipPath><clipPath id="f49820ba29"><path d="M 0.078125 0 L 33 0 L 33 47 L 0.078125 47 Z M 0.078125 0 " clip-rule="nonzero"/></clipPath><clipPath id="8b83842d3b"><path d="M 4.320312 -1.359375 L 34.476562 1.820312 L 29.578125 48.234375 L -0.578125 45.054688 Z M 4.320312 -1.359375 " clip-rule="nonzero"/></clipPath><clipPath id="2683e57b2f"><path d="M 19.398438 0.230469 C 27.726562 1.109375 33.761719 8.570312 32.886719 16.898438 L 31.175781 33.09375 C 30.296875 41.417969 22.835938 47.457031 14.507812 46.578125 C 6.179688 45.703125 0.140625 38.238281 1.019531 29.910156 L 2.726562 13.71875 C 3.605469 5.390625 11.070312 -0.648438 19.398438 0.230469 Z M 19.398438 0.230469 " clip-rule="nonzero"/></clipPath><clipPath id="977582f59b"><rect x="0" width="33" y="0" height="47"/></clipPath><clipPath id="2b1853771b"><path d="M 265 308 L 298 308 L 298 356 L 265 356 Z M 265 308 " clip-rule="nonzero"/></clipPath><clipPath id="5699401390"><path d="M 268.4375 307.300781 L 298.59375 310.480469 L 293.699219 356.894531 L 263.539062 353.714844 Z M 268.4375 307.300781 " clip-rule="nonzero"/></clipPath><clipPath id="38d38eb20a"><path d="M 283.515625 308.890625 C 291.84375 309.769531 297.882812 317.234375 297.003906 325.5625 L 295.296875 341.753906 C 294.417969 350.082031 286.953125 356.121094 278.625 355.242188 C 270.296875 354.363281 264.257812 346.898438 265.136719 338.570312 L 266.847656 322.378906 C 267.726562 314.050781 275.1875 308.011719 283.515625 308.890625 Z M 283.515625 308.890625 " clip-rule="nonzero"/></clipPath><clipPath id="d3a74ecef9"><path d="M 0 0 L 33 0 L 33 48 L 0 48 Z M 0 0 " clip-rule="nonzero"/></clipPath><clipPath id="f0dcde51bb"><path d="M 3.4375 -0.699219 L 33.59375 2.480469 L 28.699219 48.894531 L -1.460938 45.714844 Z M 3.4375 -0.699219 " clip-rule="nonzero"/></clipPath><clipPath id="a951726589"><path d="M 18.515625 0.890625 C 26.84375 1.769531 32.882812 9.234375 32.003906 17.5625 L 30.296875 33.753906 C 29.417969 42.082031 21.953125 48.121094 13.625 47.242188 C 5.296875 46.363281 -0.742188 38.898438 0.136719 30.570312 L 1.847656 14.378906 C 2.726562 6.050781 10.1875 0.0117188 18.515625 0.890625 Z M 18.515625 0.890625 " clip-rule="nonzero"/></clipPath><clipPath id="bcea3c0c0e"><rect x="0" width="33" y="0" height="48"/></clipPath></defs><rect x="-75" width="900" fill="#ffffff" y="-74.999999" height="899.999994" fill-opacity="1"/><rect x="-75" width="900" fill="#ffffff" y="-74.999999" height="899.999994" fill-opacity="1"/><g clip-path="url(#3c651af845)"><g clip-path="url(#60af970e3a)"><g clip-path="url(#3ec6cc3e22)"><g transform="matrix(1, 0, 0, 1, 99, 226)"><g clip-path="url(#b4bcf177d2)"><g clip-path="url(#56c983e4c3)"><g clip-path="url(#a5250393d0)"><g clip-path="url(#f81038f004)"><path fill="#ffadad" d="M -37.679688 18.667969 L 50.382812 -18.566406 L 106.816406 114.90625 L 18.75 152.140625 Z M -37.679688 18.667969 " fill-opacity="1" fill-rule="nonzero"/></g></g></g></g></g></g></g></g><g clip-path="url(#cdd37e88d6)"><g clip-path="url(#5b37d80ce9)"><g clip-path="url(#848396fd04)"><g transform="matrix(1, 0, 0, 1, 211, 121)"><g clip-path="url(#38b1f62e77)"><g clip-path="url(#21d272b830)"><g clip-path="url(#aded93d032)"><g clip-path="url(#1b534a93bf)"><path fill="#fff3c2" d="M 65.140625 -62.613281 L 530.882812 103.894531 L 416.296875 424.402344 L -49.445312 257.898438 Z M 65.140625 -62.613281 " fill-opacity="1" fill-rule="nonzero"/></g></g></g></g></g></g></g></g><g clip-path="url(#8fc596b865)"><g clip-path="url(#4686ec65a7)"><g clip-path="url(#25f44bebb6)"><g clip-path="url(#105783baea)"><path stroke-linecap="butt" transform="matrix(0.706225, 0.252479, -0.252479, 0.706225, 276.143428, 58.389725)" fill="none" stroke-linejoin="miter" d="M 329.503944 -0.000682256 C 147.523507 0.000599216 -0.0017006 101.592809 -0.00178197 226.912468 C -0.000110013 352.237031 147.523022 453.827417 329.503458 453.826136 C 511.478991 453.826608 659.004199 352.234398 659.00428 226.914739 C 659.004361 101.59508 511.479476 -0.000210403 329.503944 -0.000682256 Z M 329.503944 -0.000682256 " stroke="#000000" stroke-width="30" stroke-opacity="1" stroke-miterlimit="4"/></g></g></g></g><g clip-path="url(#1c4206bbb7)"><g clip-path="url(#51d47811ef)"><g clip-path="url(#c00b6acf92)"><g transform="matrix(1, 0, 0, 1, 506, 369)"><g clip-path="url(#87bfd6d4b0)"><g clip-path="url(#4255935470)"><g clip-path="url(#d8328699d9)"><g clip-path="url(#4d0e012406)"><path fill="#ffffff" d="M 16.640625 -10.277344 L 91.65625 16.539062 L 63.476562 95.359375 L -11.535156 68.542969 Z M 16.640625 -10.277344 " fill-opacity="1" fill-rule="nonzero"/></g></g></g></g></g></g></g></g><g clip-path="url(#c57deb3189)"><g clip-path="url(#162f3998fb)"><g clip-path="url(#8865f17d79)"><g clip-path="url(#1400b5a0a7)"><path stroke-linecap="butt" transform="matrix(0.706225, 0.252479, -0.252479, 0.706225, 522.642865, 358.722365)" fill="none" stroke-linejoin="miter" d="M 53.101338 -0.000602127 C 23.775954 0.00179994 -0.00273783 24.941419 0.00117831 55.709896 C 0.000190101 86.480126 23.773866 111.422356 53.09925 111.419954 C 82.426387 111.422456 106.203326 86.477933 106.199409 55.709456 C 106.202151 24.94413 82.428475 0.00190015 53.101338 -0.000602127 Z M 53.101338 -0.000602127 " stroke="#000000" stroke-width="20" stroke-opacity="1" stroke-miterlimit="4"/></g></g></g></g><g clip-path="url(#42862ada65)"><g clip-path="url(#076ace519f)"><g clip-path="url(#37015d5573)"><g transform="matrix(1, 0, 0, 1, 252, 260)"><g clip-path="url(#4e0ce6985e)"><g clip-path="url(#99cfb7a74d)"><g clip-path="url(#f97ac72d52)"><g clip-path="url(#106c3a8a72)"><path fill="#e1a8f0" d="M 14.109375 -8.03125 L 74.40625 13.523438 L 51.753906 76.882812 L -8.539062 55.324219 Z M 14.109375 -8.03125 " fill-opacity="1" fill-rule="nonzero"/></g></g></g></g></g></g></g></g><g clip-path="url(#5f3c1041a8)"><g clip-path="url(#37d253e26c)"><g clip-path="url(#246e9f0e69)"><g transform="matrix(1, 0, 0, 1, 279, 184)"><g clip-path="url(#45783a4b14)"><g clip-path="url(#25286de74a)"><g clip-path="url(#d80b6d6794)"><g clip-path="url(#15fdc56a6e)"><path fill="#ffadad" d="M 13.585938 -8.59375 L 73.882812 12.964844 L 51.230469 76.320312 L -9.066406 54.765625 Z M 13.585938 -8.59375 " fill-opacity="1" fill-rule="nonzero"/></g></g></g></g></g></g></g></g><g clip-path="url(#736e93d740)"><g clip-path="url(#93f295bf0f)"><g clip-path="url(#341b5fa35c)"><g transform="matrix(1, 0, 0, 1, 356, 143)"><g clip-path="url(#ca9415550a)"><g clip-path="url(#ca00264340)"><g clip-path="url(#5581821468)"><g clip-path="url(#1ad892711a)"><path fill="#ffd699" d="M 14.210938 -8.1875 L 74.507812 13.367188 L 51.855469 76.726562 L -8.441406 55.167969 Z M 14.210938 -8.1875 " fill-opacity="1" fill-rule="nonzero"/></g></g></g></g></g></g></g></g><g clip-path="url(#38cbdc1b44)"><g clip-path="url(#15d880c2dd)"><g clip-path="url(#b5767bdd93)"><g transform="matrix(1, 0, 0, 1, 445, 161)"><g clip-path="url(#ba7b438e89)"><g clip-path="url(#0238e647cd)"><g clip-path="url(#ebd071f506)"><g clip-path="url(#c2e12b7aef)"><path fill="#bfecac" d="M 13.410156 -8.351562 L 73.703125 13.203125 L 51.054688 76.5625 L -9.242188 55.007812 Z M 13.410156 -8.351562 " fill-opacity="1" fill-rule="nonzero"/></g></g></g></g></g></g></g></g><g clip-path="url(#02ae3e4cdd)"><g clip-path="url(#7449686d93)"><g clip-path="url(#13fcbb2e99)"><g transform="matrix(1, 0, 0, 1, 523, 197)"><g clip-path="url(#3931ca930d)"><g clip-path="url(#bbf5223d25)"><g clip-path="url(#23c2fc4d21)"><g clip-path="url(#8f23775fbb)"><path fill="#99daff" d="M 14.359375 -8.292969 L 74.65625 13.265625 L 52.003906 76.621094 L -8.289062 55.066406 Z M 14.359375 -8.292969 " fill-opacity="1" fill-rule="nonzero"/></g></g></g></g></g></g></g></g><g clip-path="url(#b20c0f674b)"><g clip-path="url(#0412629850)"><g clip-path="url(#e5e49d8e3f)"><g transform="matrix(1, 0, 0, 1, 125, 336)"><g clip-path="url(#cb5f63550d)"><g clip-path="url(#0615128f16)"><g clip-path="url(#57e777fea1)"><g clip-path="url(#c682cb850d)"><path fill="#ffffff" d="M -3.875 19.058594 L 66.953125 -4.066406 L 147.707031 243.273438 L 76.882812 266.398438 Z M -3.875 19.058594 " fill-opacity="1" fill-rule="nonzero"/></g></g></g></g></g></g></g></g><g clip-path="url(#6377abe9c5)"><g clip-path="url(#942be6ccce)"><g clip-path="url(#6a0ba9f843)"><g clip-path="url(#9694e1d86a)"><path stroke-linecap="butt" transform="matrix(0.712962, -0.232778, 0.232778, 0.712962, 121.13123, 355.07514)" fill="none" stroke-linejoin="miter" d="M 20.997351 0.000102981 L 78.329532 -0.00271134 C 83.899891 0.00245881 89.23843 2.211166 93.179411 6.149662 C 97.115441 10.086542 99.327433 15.42746 99.327214 20.999435 L 99.326337 326.064583 C 99.326118 331.636558 97.11741 336.975097 93.178914 340.916078 C 89.242035 344.852108 83.901116 347.0641 78.329141 347.063881 L 20.998576 347.061744 C 15.426601 347.061525 10.088062 344.852818 6.147081 340.914322 C 2.211051 336.977442 -0.00094114 331.636524 -0.000722108 326.064549 L 0.000155262 20.999401 C 0.00108343 9.400862 9.398812 -0.00082519 20.997351 0.000102981 Z M 20.997351 0.000102981 " stroke="#000000" stroke-width="20" stroke-opacity="1" stroke-miterlimit="4"/></g></g></g></g><g clip-path="url(#5e86854261)"><g clip-path="url(#019043adb5)"><g transform="matrix(1, 0, 0, 1, 117, 317)"><g clip-path="url(#15416feb30)"><g clip-path="url(#827a3d7318)"><g clip-path="url(#66f1e68fd2)"><path fill="#d9d9d9" d="M 0.371094 22.878906 L 68.859375 0.519531 L 88.804688 61.609375 L 20.316406 83.96875 Z M 0.371094 22.878906 " fill-opacity="1" fill-rule="nonzero"/></g></g></g></g></g></g><g clip-path="url(#4c5901f274)"><g clip-path="url(#c24a49aec0)"><g clip-path="url(#27051ecde6)"><path stroke-linecap="butt" transform="matrix(0.712962, -0.232778, 0.232778, 0.712962, 117.370706, 339.879848)" fill="none" stroke-linejoin="miter" d="M 0.00088163 -0.00103338 L 95.9696 -0.00169778 L 95.967699 85.67132 L -0.00101918 85.671984 Z M 0.00088163 -0.00103338 " stroke="#000000" stroke-width="20" stroke-opacity="1" stroke-miterlimit="4"/></g></g></g><g clip-path="url(#30f1608bf9)"><g clip-path="url(#d7a406aaa9)"><g transform="matrix(1, 0, 0, 1, 81, 286)"><g clip-path="url(#7ada7099ec)"><g clip-path="url(#1996ba9626)"><g clip-path="url(#854da29f35)"><path fill="#fcfcfd" d="M 0.0351562 52.75 L 118.242188 0.445312 L 136.265625 41.175781 L 18.058594 93.476562 Z M 0.0351562 52.75 " fill-opacity="1" fill-rule="nonzero"/></g></g></g></g></g></g><g clip-path="url(#ba9396266e)"><g clip-path="url(#78b51403bc)"><g clip-path="url(#3363738914)"><g clip-path="url(#7251924091)"><path stroke-linecap="butt" transform="matrix(0.690796, -0.292062, 0.292062, 0.690796, 53.097, 239.215981)" fill="none" stroke-linejoin="miter" d="M 69.97831 -0.000866914 C 100.522731 40.021704 139.951283 106.243937 139.954575 151.777026 C 139.953391 184.935725 108.592422 211.858932 69.976918 211.85778 C 31.354589 211.859396 -0.000435171 184.935347 0.000748821 151.776648 C -0.00254368 106.243559 82.189997 66.24992 69.97831 -0.000866914 Z M 69.97831 -0.000866914 " stroke="#000000" stroke-width="20" stroke-opacity="1" stroke-miterlimit="4"/></g></g></g></g><g clip-path="url(#4c85bbb09f)"><g clip-path="url(#dda2a88e1f)"><g clip-path="url(#4ea3139549)"><g transform="matrix(1, 0, 0, 1, 258, 214)"><g clip-path="url(#682f2e3360)"><g clip-path="url(#25fa246bd8)"><g clip-path="url(#eae9d50164)"><g clip-path="url(#7a2780f3d4)"><path fill="#0cc0df" d="M 9.472656 -3.496094 L 98.382812 4.675781 L 86.476562 134.21875 L -2.433594 126.046875 Z M 9.472656 -3.496094 " fill-opacity="1" fill-rule="nonzero"/></g></g></g></g></g></g></g></g><g clip-path="url(#7a2787dad6)"><g clip-path="url(#fadbebe94b)"><g clip-path="url(#335e2aaef1)"><g transform="matrix(1, 0, 0, 1, 217, 339)"><g clip-path="url(#f5d5d28990)"><g clip-path="url(#e53c4c7ede)"><g clip-path="url(#46e3a5e58a)"><g clip-path="url(#9e1e0eba69)"><path fill="#fcfcfd" d="M 47.164062 -1.875 L 120.105469 11.105469 L 70.78125 288.339844 L -2.160156 275.359375 Z M 47.164062 -1.875 " fill-opacity="1" fill-rule="nonzero"/></g></g></g></g></g></g></g></g><g clip-path="url(#647bb62b12)"><g clip-path="url(#20b4ccf9c0)"><g clip-path="url(#05c36cee69)"><g clip-path="url(#751da340d0)"><path stroke-linecap="butt" transform="matrix(0.738404, 0.131377, -0.131377, 0.738404, 264.165575, 337.126499)" fill="none" stroke-linejoin="miter" d="M 21.999332 -0.00146501 L 76.779184 0.0017876 C 82.61397 0.000525161 88.210343 2.316436 92.335706 6.444077 C 96.46107 10.571718 98.778528 16.16369 98.77979 21.998477 L 98.782219 353.625574 C 98.778354 359.461273 96.462443 365.057646 92.334802 369.183009 C 88.212288 373.30746 82.615188 375.62583 76.780402 375.627093 L 22.00055 375.62384 C 16.165764 375.625103 10.569391 373.309192 6.444028 369.18155 C 2.318664 365.053909 0.00120645 359.461937 -0.0000559931 353.627151 L -0.00248513 22.000054 C 0.00138023 16.164355 2.317291 10.567982 6.444932 6.442619 C 10.567446 2.318168 16.164546 -0.000202571 21.999332 -0.00146501 Z M 21.999332 -0.00146501 " stroke="#000000" stroke-width="20" stroke-opacity="1" stroke-miterlimit="4"/></g></g></g></g><g clip-path="url(#ce1919ddea)"><g clip-path="url(#c8eee4f319)"><g transform="matrix(1, 0, 0, 1, 255, 337)"><g clip-path="url(#143f3c9a17)"><g clip-path="url(#3fa3ab5981)"><g clip-path="url(#183d7152b2)"><path fill="#d9d9d9" d="M 10.164062 0.128906 L 81.070312 11.890625 L 71.480469 69.699219 L 0.574219 57.9375 Z M 10.164062 0.128906 " fill-opacity="1" fill-rule="nonzero"/></g></g></g></g></g></g><g clip-path="url(#0f573dcfc1)"><g clip-path="url(#81199570b2)"><g clip-path="url(#5c6b9de96b)"><path stroke-linecap="butt" transform="matrix(0.739889, 0.122734, -0.122734, 0.739889, 265.164014, 337.127845)" fill="none" stroke-linejoin="miter" d="M 0.000295674 0.00138506 L 95.970809 -0.000673785 L 95.968518 78.120552 L -0.00199549 78.122611 Z M 0.000295674 0.00138506 " stroke="#000000" stroke-width="20" stroke-opacity="1" stroke-miterlimit="4"/></g></g></g><g clip-path="url(#4102e2cbd3)"><g clip-path="url(#42599c3b74)"><g clip-path="url(#46a07ce690)"><g transform="matrix(1, 0, 0, 1, 251, 304)"><g clip-path="url(#0ea76489a6)"><g clip-path="url(#632abb2bf8)"><g clip-path="url(#778b8a6031)"><g clip-path="url(#23d74504ce)"><path fill="#fcfcfd" d="M 3.480469 -1.003906 L 96.542969 8.8125 L 91.652344 55.164062 L -1.410156 45.347656 Z M 3.480469 -1.003906 " fill-opacity="1" fill-rule="nonzero"/></g></g></g></g></g></g></g></g><g clip-path="url(#a04852c8a2)"><g clip-path="url(#575fe9118f)"><g clip-path="url(#d366a94c39)"><g clip-path="url(#d67ad97973)"><path stroke-linecap="butt" transform="matrix(0.746851, 0.0686504, -0.0686504, 0.746851, 257.394511, 197.858931)" fill="none" stroke-linejoin="miter" d="M 73.851832 0.00107345 C 106.087656 42.238139 147.700899 112.12355 147.703794 160.179195 C 147.70445 195.180241 114.608609 223.589311 73.84911 223.591024 C 33.094321 223.587073 0.000949755 195.179268 0.000292957 160.178222 C -0.00212544 112.127763 86.743093 69.916685 73.851832 0.00107345 Z M 73.851832 0.00107345 " stroke="#000000" stroke-width="20" stroke-opacity="1" stroke-miterlimit="4"/></g></g></g></g><g clip-path="url(#502a81ad6f)"><g clip-path="url(#0b2bf6a8c4)"><g clip-path="url(#d098d60735)"><g transform="matrix(1, 0, 0, 1, 306, 309)"><g clip-path="url(#d33379c576)"><g clip-path="url(#4fd7662a10)"><g clip-path="url(#5445abc5ea)"><g clip-path="url(#e231fed1c8)"><path fill="#fcfcfd" d="M 1.460938 -0.691406 L 43.253906 3.714844 L 41.769531 17.773438 L -0.0195312 13.367188 Z M 1.460938 -0.691406 " fill-opacity="1" fill-rule="nonzero"/></g></g></g></g></g></g></g></g><g clip-path="url(#8dc8ec9b05)"><g clip-path="url(#48c0c1a723)"><g clip-path="url(#718181b3de)"><g transform="matrix(1, 0, 0, 1, 263, 310)"><g clip-path="url(#9312773765)"><g clip-path="url(#73b41f9e83)"><g clip-path="url(#bbffbf4c98)"><g clip-path="url(#0f115c1809)"><path fill="#fcfcfd" d="M 3.429688 -1.691406 L 72.589844 5.601562 L 67.703125 51.953125 L -1.460938 44.65625 Z M 3.429688 -1.691406 " fill-opacity="1" fill-rule="nonzero"/></g></g></g></g></g></g></g></g><g clip-path="url(#f141c98ef1)"><g clip-path="url(#37c38eb62f)"><g clip-path="url(#a53cfe666e)"><g transform="matrix(1, 0, 0, 1, 306, 315)"><g clip-path="url(#b086c00505)"><g clip-path="url(#a9ae442b95)"><g clip-path="url(#108a271d65)"><g clip-path="url(#9e56f85f1d)"><path fill="#fcfcfd" d="M 1.460938 -0.511719 L 43.253906 3.898438 L 41.769531 17.957031 L -0.0195312 13.546875 Z M 1.460938 -0.511719 " fill-opacity="1" fill-rule="nonzero"/></g></g></g></g></g></g></g></g><g clip-path="url(#662e041447)"><g clip-path="url(#e248887460)"><g clip-path="url(#d9e841eab3)"><g transform="matrix(1, 0, 0, 1, 306, 324)"><g clip-path="url(#ed29d1b7eb)"><g clip-path="url(#e6a1af92b1)"><g clip-path="url(#956690884b)"><g clip-path="url(#16121ecaa5)"><path fill="#fcfcfd" d="M 1.140625 -0.277344 L 42.894531 4.125 L 41.730469 15.132812 L -0.0195312 10.730469 Z M 1.140625 -0.277344 " fill-opacity="1" fill-rule="nonzero"/></g></g></g></g></g></g></g></g><g clip-path="url(#0b73fc035a)"><g clip-path="url(#aee3b47db7)"><g clip-path="url(#15c845a9d4)"><g transform="matrix(1, 0, 0, 1, 256, 305)"><g clip-path="url(#0568f51794)"><g clip-path="url(#bb0432e630)"><g clip-path="url(#b578bd7a71)"><g clip-path="url(#debf806f35)"><path fill="#fcfcfd" d="M 0.824219 -0.375 L 42.574219 4.027344 L 41.414062 15.035156 L -0.339844 10.632812 Z M 0.824219 -0.375 " fill-opacity="1" fill-rule="nonzero"/></g></g></g></g></g></g></g></g><g clip-path="url(#000fe8c572)"><g clip-path="url(#4da23bbde4)"><g clip-path="url(#40d02913aa)"><g transform="matrix(1, 0, 0, 1, 258, 303)"><g clip-path="url(#fae27a7fa4)"><g clip-path="url(#1b70a84789)"><g clip-path="url(#20a9a255c7)"><g clip-path="url(#7bf4374bea)"><path fill="#fcfcfd" d="M 1.167969 0.6875 L 42.949219 5.097656 L 42.4375 9.925781 L 0.660156 5.519531 Z M 1.167969 0.6875 " fill-opacity="1" fill-rule="nonzero"/></g></g></g></g></g></g></g></g><g clip-path="url(#9b171fc9e1)"><g clip-path="url(#90ac52bce6)"><g clip-path="url(#8c1f573be7)"><g transform="matrix(1, 0, 0, 1, 131, 319)"><g clip-path="url(#fa0cdc4f30)"><g clip-path="url(#d21bb6afe9)"><g clip-path="url(#310071ce84)"><g clip-path="url(#8c903f6b78)"><path fill="#fcfcfd" d="M -4.402344 13.910156 L 43.980469 -3.507812 L 54.75 26.410156 L 6.363281 43.828125 Z M -4.402344 13.910156 " fill-opacity="1" fill-rule="nonzero"/></g></g></g></g></g></g></g></g><g clip-path="url(#01697fe986)"><g clip-path="url(#342aa7e3c2)"><g clip-path="url(#e936e72f04)"><g transform="matrix(1, 0, 0, 1, 0, 327)"><g clip-path="url(#2e4d541f0e)"><g clip-path="url(#5fff4ee783)"><g clip-path="url(#51226155d4)"><g clip-path="url(#e9d3cb35c9)"><path fill="#fcfcfd" d="M -7.265625 13.3125 L 41.117188 -4.101562 L 51.886719 25.816406 L 3.503906 43.230469 Z M -7.265625 13.3125 " fill-opacity="1" fill-rule="nonzero"/></g></g></g></g></g></g></g></g><g clip-path="url(#7149805c09)"><g clip-path="url(#1e8024b927)"><g clip-path="url(#b72cc1028c)"><g transform="matrix(1, 0, 0, 1, 125, 324)"><g clip-path="url(#f7cd2e25d4)"><g clip-path="url(#8513b54e2a)"><g clip-path="url(#6fe08e63e4)"><g clip-path="url(#c44aa1b98a)"><path fill="#fcfcfd" d="M -3.875 13.460938 L 44.511719 -3.953125 L 55.28125 25.964844 L 6.894531 43.382812 Z M -3.875 13.460938 " fill-opacity="1" fill-rule="nonzero"/></g></g></g></g></g></g></g></g><g clip-path="url(#a50ff6ac46)"><g clip-path="url(#ec93027514)"><g clip-path="url(#7a74da1299)"><g transform="matrix(1, 0, 0, 1, 135, 328)"><g clip-path="url(#90c6a0656d)"><g clip-path="url(#9aaaff0923)"><g clip-path="url(#82dcb69fd9)"><g clip-path="url(#54c70f923e)"><path fill="#fcfcfd" d="M -3.523438 7.570312 L 29.433594 -4.292969 L 40.203125 25.625 L 7.246094 37.488281 Z M -3.523438 7.570312 " fill-opacity="1" fill-rule="nonzero"/></g></g></g></g></g></g></g></g><g clip-path="url(#17dca2f095)"><g clip-path="url(#39629ca2d2)"><g clip-path="url(#bbf89d94a0)"><g transform="matrix(1, 0, 0, 1, 278, 315)"><g clip-path="url(#37b97566a1)"><g clip-path="url(#7ec0411409)"><g clip-path="url(#d34c4129c8)"><g clip-path="url(#bcddceaa00)"><path fill="#fcfcfd" d="M 3.972656 -1.050781 L 42.105469 2.972656 L 37.21875 49.300781 L -0.914062 45.277344 Z M 3.972656 -1.050781 " fill-opacity="1" fill-rule="nonzero"/></g></g></g></g></g></g></g></g><g clip-path="url(#e1ff6e72c8)"><g clip-path="url(#6d8707b196)"><g clip-path="url(#976819833c)"><g transform="matrix(1, 0, 0, 1, 289, 316)"><g clip-path="url(#168742760d)"><g clip-path="url(#7d67e94506)"><g clip-path="url(#ccce031e6f)"><g clip-path="url(#9355bb8030)"><path fill="#fcfcfd" d="M 4.34375 -1.207031 L 34.503906 1.972656 L 29.617188 48.269531 L -0.539062 45.085938 Z M 4.34375 -1.207031 " fill-opacity="1" fill-rule="nonzero"/></g></g></g></g></g></g></g></g><g clip-path="url(#b8848b5a94)"><g clip-path="url(#2703ba08cf)"><g clip-path="url(#0617d3ed15)"><g transform="matrix(1, 0, 0, 1, 298, 314)"><g clip-path="url(#4c3ed567c1)"><g clip-path="url(#3b491f0453)"><g clip-path="url(#5092723f50)"><g clip-path="url(#13ba7be814)"><path fill="#fcfcfd" d="M 4.191406 -1.074219 L 34.347656 2.109375 L 29.464844 48.402344 L -0.691406 45.222656 Z M 4.191406 -1.074219 " fill-opacity="1" fill-rule="nonzero"/></g></g></g></g></g></g></g></g><g clip-path="url(#94f4e9a80c)"><g clip-path="url(#51736d887b)"><g clip-path="url(#e62f1dd8d1)"><g transform="matrix(1, 0, 0, 1, 303, 313)"><g clip-path="url(#e8b4b99cd6)"><g clip-path="url(#bb36205cf5)"><g clip-path="url(#3d914313b4)"><g clip-path="url(#c07108b1d1)"><path fill="#fcfcfd" d="M 3.949219 -0.980469 L 34.105469 2.199219 L 29.222656 48.496094 L -0.933594 45.3125 Z M 3.949219 -0.980469 " fill-opacity="1" fill-rule="nonzero"/></g></g></g></g></g></g></g></g><g clip-path="url(#530cad09fc)"><g clip-path="url(#1258c58e25)"><g clip-path="url(#10f7b0bf97)"><g transform="matrix(1, 0, 0, 1, 294, 315)"><g clip-path="url(#b409eb76d7)"><g clip-path="url(#99d81b18c3)"><g clip-path="url(#d9c9e25be2)"><g clip-path="url(#4bc9883812)"><path fill="#fcfcfd" d="M 3.449219 -1.050781 L 33.605469 2.132812 L 28.722656 48.425781 L -1.433594 45.246094 Z M 3.449219 -1.050781 " fill-opacity="1" fill-rule="nonzero"/></g></g></g></g></g></g></g></g><g clip-path="url(#574dbdf5fd)"><g clip-path="url(#86b62a336c)"><g clip-path="url(#fcef86c56c)"><g transform="matrix(1, 0, 0, 1, 274, 313)"><g clip-path="url(#63f7148020)"><g clip-path="url(#cd2775e997)"><g clip-path="url(#5a7842dc32)"><g clip-path="url(#b6e03bdea4)"><path fill="#fcfcfd" d="M 3.640625 -0.980469 L 33.800781 2.199219 L 28.914062 48.496094 L -1.242188 45.3125 Z M 3.640625 -0.980469 " fill-opacity="1" fill-rule="nonzero"/></g></g></g></g></g></g></g></g><g clip-path="url(#1acb191b1d)"><g clip-path="url(#31ef9b8a19)"><g clip-path="url(#a47a32b982)"><g transform="matrix(1, 0, 0, 1, 268, 311)"><g clip-path="url(#977582f59b)"><g clip-path="url(#f49820ba29)"><g clip-path="url(#8b83842d3b)"><g clip-path="url(#2683e57b2f)"><path fill="#fcfcfd" d="M 4.320312 -1.359375 L 34.476562 1.820312 L 29.59375 48.117188 L -0.566406 44.933594 Z M 4.320312 -1.359375 " fill-opacity="1" fill-rule="nonzero"/></g></g></g></g></g></g></g></g><g clip-path="url(#2b1853771b)"><g clip-path="url(#5699401390)"><g clip-path="url(#38d38eb20a)"><g transform="matrix(1, 0, 0, 1, 265, 308)"><g clip-path="url(#bcea3c0c0e)"><g clip-path="url(#d3a74ecef9)"><g clip-path="url(#f0dcde51bb)"><g clip-path="url(#a951726589)"><path fill="#fcfcfd" d="M 3.4375 -0.699219 L 33.59375 2.480469 L 28.710938 48.777344 L -1.445312 45.597656 Z M 3.4375 -0.699219 " fill-opacity="1" fill-rule="nonzero"/></g></g></g></g></g></g></g></g></svg>