<svg xmlns="http://www.w3.org/2000/svg" xmlns:xlink="http://www.w3.org/1999/xlink" width="1000" zoomAndPan="magnify" viewBox="0 0 750 749.999995" height="1000" preserveAspectRatio="xMidYMid meet" version="1.0"><defs><clipPath id="7232351220"><path d="M 220.722656 354.546875 L 369.332031 354.546875 L 369.332031 545.707031 L 220.722656 545.707031 Z M 220.722656 354.546875 " clip-rule="nonzero"/></clipPath><clipPath id="18bd7b2f00"><path d="M 0.722656 0.546875 L 149.332031 0.546875 L 149.332031 191.707031 L 0.722656 191.707031 Z M 0.722656 0.546875 " clip-rule="nonzero"/></clipPath><clipPath id="6a2e75d106"><rect x="0" width="150" y="0" height="192"/></clipPath><clipPath id="5ff8c3f887"><path d="M 220.722656 354.550781 L 369.222656 354.550781 L 369.222656 545.703125 L 220.722656 545.703125 Z M 220.722656 354.550781 " clip-rule="nonzero"/></clipPath><clipPath id="e205f15625"><path d="M 125 337.238281 L 459.890625 337.238281 L 459.890625 520.066406 L 125 520.066406 Z M 125 337.238281 " clip-rule="nonzero"/></clipPath><clipPath id="2ccb47ccc2"><path d="M 228.050781 520.066406 L 356.675781 520.066406 C 400.660156 520.066406 438.90625 489.90625 449.15625 447.132812 L 458.015625 410.171875 C 462.238281 392.558594 458.15625 373.980469 446.941406 359.757812 C 435.722656 345.539062 418.609375 337.238281 400.496094 337.238281 L 184.230469 337.238281 C 166.117188 337.238281 149.003906 345.539062 137.785156 359.757812 C 126.570312 373.980469 122.488281 392.558594 126.710938 410.171875 L 135.570312 447.132812 C 145.820312 489.90625 184.066406 520.066406 228.050781 520.066406 Z M 228.050781 520.066406 " clip-rule="nonzero"/></clipPath><clipPath id="58bb3a9ab1"><path d="M 0 0.238281 L 334.890625 0.238281 L 334.890625 183.066406 L 0 183.066406 Z M 0 0.238281 " clip-rule="nonzero"/></clipPath><clipPath id="7c411857e4"><path d="M 103.050781 183.066406 L 231.675781 183.066406 C 275.660156 183.066406 313.90625 152.90625 324.15625 110.132812 L 333.015625 73.171875 C 337.238281 55.558594 333.15625 36.980469 321.941406 22.757812 C 310.722656 8.539062 293.609375 0.238281 275.496094 0.238281 L 59.230469 0.238281 C 41.117188 0.238281 24.003906 8.539062 12.785156 22.757812 C 1.570312 36.980469 -2.511719 55.558594 1.710938 73.171875 L 10.570312 110.132812 C 20.820312 152.90625 59.066406 183.066406 103.050781 183.066406 Z M 103.050781 183.066406 " clip-rule="nonzero"/></clipPath><clipPath id="dd15482c00"><rect x="0" width="335" y="0" height="184"/></clipPath><clipPath id="5d65cddb5a"><path d="M 125 337.238281 L 459.796875 337.238281 L 459.796875 520.238281 L 125 520.238281 Z M 125 337.238281 " clip-rule="nonzero"/></clipPath><clipPath id="93b42b0148"><path d="M 228.046875 520.0625 L 356.667969 520.0625 C 400.652344 520.0625 438.894531 489.902344 449.148438 447.128906 L 458.003906 410.171875 C 462.226562 392.558594 458.144531 373.980469 446.929688 359.757812 C 435.714844 345.535156 418.601562 337.238281 400.488281 337.238281 L 184.226562 337.238281 C 166.113281 337.238281 149 345.535156 137.785156 359.757812 C 126.570312 373.980469 122.488281 392.558594 126.710938 410.171875 L 135.570312 447.128906 C 145.820312 489.902344 184.066406 520.0625 228.046875 520.0625 Z M 228.046875 520.0625 " clip-rule="nonzero"/></clipPath><clipPath id="83e31e8d0f"><path d="M 119.902344 290.6875 L 462.449219 290.6875 L 462.449219 450.128906 L 119.902344 450.128906 Z M 119.902344 290.6875 " clip-rule="nonzero"/></clipPath><clipPath id="dfa198ce8b"><path d="M 291.148438 290.6875 C 196.570312 290.6875 119.902344 326.378906 119.902344 370.40625 C 119.902344 414.433594 196.570312 450.128906 291.148438 450.128906 C 385.726562 450.128906 462.394531 414.433594 462.394531 370.40625 C 462.394531 326.378906 385.726562 290.6875 291.148438 290.6875 Z M 291.148438 290.6875 " clip-rule="nonzero"/></clipPath><clipPath id="2b3f7f8b90"><path d="M 0.902344 0.6875 L 343.449219 0.6875 L 343.449219 160.128906 L 0.902344 160.128906 Z M 0.902344 0.6875 " clip-rule="nonzero"/></clipPath><clipPath id="64ddb42982"><path d="M 172.148438 0.6875 C 77.570312 0.6875 0.902344 36.378906 0.902344 80.40625 C 0.902344 124.433594 77.570312 160.128906 172.148438 160.128906 C 266.726562 160.128906 343.394531 124.433594 343.394531 80.40625 C 343.394531 36.378906 266.726562 0.6875 172.148438 0.6875 Z M 172.148438 0.6875 " clip-rule="nonzero"/></clipPath><clipPath id="ba0f6975dd"><rect x="0" width="344" y="0" height="161"/></clipPath><clipPath id="69ec31d17e"><path d="M 119.90625 290.6875 L 462.386719 290.6875 L 462.386719 450.4375 L 119.90625 450.4375 Z M 119.90625 290.6875 " clip-rule="nonzero"/></clipPath><clipPath id="1bfd6af745"><path d="M 291.148438 290.6875 C 196.574219 290.6875 119.90625 326.375 119.90625 370.402344 C 119.90625 414.429688 196.574219 450.121094 291.148438 450.121094 C 385.71875 450.121094 462.386719 414.429688 462.386719 370.402344 C 462.386719 326.375 385.71875 290.6875 291.148438 290.6875 Z M 291.148438 290.6875 " clip-rule="nonzero"/></clipPath><clipPath id="4c668e357c"><path d="M 140.492188 364.617188 L 442.875 364.617188 L 442.875 431.292969 L 140.492188 431.292969 Z M 140.492188 364.617188 " clip-rule="nonzero"/></clipPath><clipPath id="cbb3b371db"><path d="M 140.574219 364.617188 C 140.574219 400.933594 209.394531 431.292969 291.722656 431.292969 C 374.054688 431.292969 442.875 400.933594 442.875 364.617188 Z M 140.574219 364.617188 " clip-rule="nonzero"/></clipPath><clipPath id="db24c89436"><path d="M 0.574219 0.617188 L 302.875 0.617188 L 302.875 67.292969 L 0.574219 67.292969 Z M 0.574219 0.617188 " clip-rule="nonzero"/></clipPath><clipPath id="bbf457ab24"><path d="M 0.574219 0.617188 C 0.574219 36.933594 69.394531 67.292969 151.722656 67.292969 C 234.054688 67.292969 302.875 36.933594 302.875 0.617188 Z M 0.574219 0.617188 " clip-rule="nonzero"/></clipPath><linearGradient x1="580.341" gradientTransform="matrix(-0.260451, 0, 0, -0.260451, 302.875274, 67.291483)" y1="-0.000000000000227374" x2="580.341" gradientUnits="userSpaceOnUse" y2="255.999999" id="e3383104a2"><stop stop-opacity="1" stop-color="rgb(13.328552%, 38.42926%, 7.839966%)" offset="0"/><stop stop-opacity="1" stop-color="rgb(13.378906%, 38.591003%, 7.865906%)" offset="0.0078125"/><stop stop-opacity="1" stop-color="rgb(13.48114%, 38.916016%, 7.917786%)" offset="0.015625"/><stop stop-opacity="1" stop-color="rgb(13.581848%, 39.241028%, 7.969666%)" offset="0.0234375"/><stop stop-opacity="1" stop-color="rgb(13.682556%, 39.564514%, 8.021545%)" offset="0.03125"/><stop stop-opacity="1" stop-color="rgb(13.783264%, 39.889526%, 8.073425%)" offset="0.0390625"/><stop stop-opacity="1" stop-color="rgb(13.885498%, 40.214539%, 8.125305%)" offset="0.046875"/><stop stop-opacity="1" stop-color="rgb(13.986206%, 40.539551%, 8.177185%)" offset="0.0546875"/><stop stop-opacity="1" stop-color="rgb(14.086914%, 40.864563%, 8.230591%)" offset="0.0625"/><stop stop-opacity="1" stop-color="rgb(14.187622%, 41.189575%, 8.282471%)" offset="0.0703125"/><stop stop-opacity="1" stop-color="rgb(14.289856%, 41.514587%, 8.334351%)" offset="0.078125"/><stop stop-opacity="1" stop-color="rgb(14.390564%, 41.838074%, 8.38623%)" offset="0.0859375"/><stop stop-opacity="1" stop-color="rgb(14.491272%, 42.163086%, 8.43811%)" offset="0.09375"/><stop stop-opacity="1" stop-color="rgb(14.59198%, 42.488098%, 8.48999%)" offset="0.101562"/><stop stop-opacity="1" stop-color="rgb(14.694214%, 42.81311%, 8.54187%)" offset="0.109375"/><stop stop-opacity="1" stop-color="rgb(14.794922%, 43.138123%, 8.595276%)" offset="0.117188"/><stop stop-opacity="1" stop-color="rgb(14.89563%, 43.463135%, 8.647156%)" offset="0.125"/><stop stop-opacity="1" stop-color="rgb(14.996338%, 43.786621%, 8.699036%)" offset="0.132812"/><stop stop-opacity="1" stop-color="rgb(15.098572%, 44.111633%, 8.750916%)" offset="0.140625"/><stop stop-opacity="1" stop-color="rgb(15.19928%, 44.436646%, 8.802795%)" offset="0.148438"/><stop stop-opacity="1" stop-color="rgb(15.299988%, 44.761658%, 8.854675%)" offset="0.15625"/><stop stop-opacity="1" stop-color="rgb(15.402222%, 45.08667%, 8.908081%)" offset="0.164062"/><stop stop-opacity="1" stop-color="rgb(15.50293%, 45.411682%, 8.959961%)" offset="0.171875"/><stop stop-opacity="1" stop-color="rgb(15.603638%, 45.735168%, 9.011841%)" offset="0.179688"/><stop stop-opacity="1" stop-color="rgb(15.704346%, 46.060181%, 9.063721%)" offset="0.1875"/><stop stop-opacity="1" stop-color="rgb(15.80658%, 46.385193%, 9.115601%)" offset="0.195312"/><stop stop-opacity="1" stop-color="rgb(15.907288%, 46.710205%, 9.16748%)" offset="0.203125"/><stop stop-opacity="1" stop-color="rgb(16.007996%, 47.035217%, 9.21936%)" offset="0.210938"/><stop stop-opacity="1" stop-color="rgb(16.108704%, 47.360229%, 9.272766%)" offset="0.21875"/><stop stop-opacity="1" stop-color="rgb(16.210938%, 47.683716%, 9.324646%)" offset="0.226562"/><stop stop-opacity="1" stop-color="rgb(16.311646%, 48.008728%, 9.376526%)" offset="0.234375"/><stop stop-opacity="1" stop-color="rgb(16.412354%, 48.33374%, 9.428406%)" offset="0.242188"/><stop stop-opacity="1" stop-color="rgb(16.513062%, 48.658752%, 9.480286%)" offset="0.25"/><stop stop-opacity="1" stop-color="rgb(16.615295%, 48.983765%, 9.532166%)" offset="0.257812"/><stop stop-opacity="1" stop-color="rgb(16.716003%, 49.308777%, 9.584045%)" offset="0.265625"/><stop stop-opacity="1" stop-color="rgb(16.816711%, 49.632263%, 9.637451%)" offset="0.273437"/><stop stop-opacity="1" stop-color="rgb(16.917419%, 49.957275%, 9.689331%)" offset="0.28125"/><stop stop-opacity="1" stop-color="rgb(17.019653%, 50.282288%, 9.741211%)" offset="0.289063"/><stop stop-opacity="1" stop-color="rgb(17.120361%, 50.6073%, 9.793091%)" offset="0.296875"/><stop stop-opacity="1" stop-color="rgb(17.221069%, 50.932312%, 9.844971%)" offset="0.304688"/><stop stop-opacity="1" stop-color="rgb(17.321777%, 51.257324%, 9.896851%)" offset="0.3125"/><stop stop-opacity="1" stop-color="rgb(17.424011%, 51.582336%, 9.950256%)" offset="0.320312"/><stop stop-opacity="1" stop-color="rgb(17.524719%, 51.905823%, 10.002136%)" offset="0.328125"/><stop stop-opacity="1" stop-color="rgb(17.625427%, 52.230835%, 10.054016%)" offset="0.335937"/><stop stop-opacity="1" stop-color="rgb(17.726135%, 52.555847%, 10.105896%)" offset="0.34375"/><stop stop-opacity="1" stop-color="rgb(17.828369%, 52.880859%, 10.157776%)" offset="0.351563"/><stop stop-opacity="1" stop-color="rgb(17.929077%, 53.205872%, 10.209656%)" offset="0.359375"/><stop stop-opacity="1" stop-color="rgb(18.029785%, 53.530884%, 10.261536%)" offset="0.367188"/><stop stop-opacity="1" stop-color="rgb(18.130493%, 53.85437%, 10.314941%)" offset="0.375"/><stop stop-opacity="1" stop-color="rgb(18.232727%, 54.179382%, 10.366821%)" offset="0.382812"/><stop stop-opacity="1" stop-color="rgb(18.333435%, 54.504395%, 10.418701%)" offset="0.390625"/><stop stop-opacity="1" stop-color="rgb(18.434143%, 54.829407%, 10.470581%)" offset="0.398437"/><stop stop-opacity="1" stop-color="rgb(18.534851%, 55.154419%, 10.522461%)" offset="0.40625"/><stop stop-opacity="1" stop-color="rgb(18.637085%, 55.479431%, 10.574341%)" offset="0.414063"/><stop stop-opacity="1" stop-color="rgb(18.737793%, 55.802917%, 10.626221%)" offset="0.421875"/><stop stop-opacity="1" stop-color="rgb(18.838501%, 56.12793%, 10.679626%)" offset="0.429688"/><stop stop-opacity="1" stop-color="rgb(18.939209%, 56.452942%, 10.731506%)" offset="0.4375"/><stop stop-opacity="1" stop-color="rgb(19.041443%, 56.777954%, 10.783386%)" offset="0.445312"/><stop stop-opacity="1" stop-color="rgb(19.142151%, 57.102966%, 10.835266%)" offset="0.453125"/><stop stop-opacity="1" stop-color="rgb(19.242859%, 57.427979%, 10.887146%)" offset="0.460937"/><stop stop-opacity="1" stop-color="rgb(19.343567%, 57.751465%, 10.939026%)" offset="0.46875"/><stop stop-opacity="1" stop-color="rgb(19.445801%, 58.076477%, 10.992432%)" offset="0.476563"/><stop stop-opacity="1" stop-color="rgb(19.546509%, 58.401489%, 11.044312%)" offset="0.484375"/><stop stop-opacity="1" stop-color="rgb(19.647217%, 58.726501%, 11.096191%)" offset="0.492188"/><stop stop-opacity="1" stop-color="rgb(19.747925%, 59.051514%, 11.148071%)" offset="0.5"/><stop stop-opacity="1" stop-color="rgb(19.850159%, 59.376526%, 11.199951%)" offset="0.507812"/><stop stop-opacity="1" stop-color="rgb(19.950867%, 59.700012%, 11.251831%)" offset="0.515625"/><stop stop-opacity="1" stop-color="rgb(20.051575%, 60.025024%, 11.303711%)" offset="0.523438"/><stop stop-opacity="1" stop-color="rgb(20.152283%, 60.350037%, 11.357117%)" offset="0.53125"/><stop stop-opacity="1" stop-color="rgb(20.254517%, 60.675049%, 11.408997%)" offset="0.539062"/><stop stop-opacity="1" stop-color="rgb(20.355225%, 61.000061%, 11.460876%)" offset="0.546875"/><stop stop-opacity="1" stop-color="rgb(20.455933%, 61.325073%, 11.512756%)" offset="0.554688"/><stop stop-opacity="1" stop-color="rgb(20.556641%, 61.650085%, 11.564636%)" offset="0.5625"/><stop stop-opacity="1" stop-color="rgb(20.658875%, 61.973572%, 11.616516%)" offset="0.570312"/><stop stop-opacity="1" stop-color="rgb(20.759583%, 62.298584%, 11.669922%)" offset="0.578125"/><stop stop-opacity="1" stop-color="rgb(20.860291%, 62.623596%, 11.721802%)" offset="0.585938"/><stop stop-opacity="1" stop-color="rgb(20.960999%, 62.948608%, 11.773682%)" offset="0.59375"/><stop stop-opacity="1" stop-color="rgb(21.063232%, 63.273621%, 11.825562%)" offset="0.601562"/><stop stop-opacity="1" stop-color="rgb(21.16394%, 63.598633%, 11.877441%)" offset="0.609375"/><stop stop-opacity="1" stop-color="rgb(21.264648%, 63.922119%, 11.929321%)" offset="0.617188"/><stop stop-opacity="1" stop-color="rgb(21.365356%, 64.247131%, 11.981201%)" offset="0.625"/><stop stop-opacity="1" stop-color="rgb(21.46759%, 64.572144%, 12.034607%)" offset="0.632812"/><stop stop-opacity="1" stop-color="rgb(21.568298%, 64.897156%, 12.086487%)" offset="0.640625"/><stop stop-opacity="1" stop-color="rgb(21.669006%, 65.222168%, 12.138367%)" offset="0.648438"/><stop stop-opacity="1" stop-color="rgb(21.769714%, 65.54718%, 12.190247%)" offset="0.65625"/><stop stop-opacity="1" stop-color="rgb(21.871948%, 65.870667%, 12.242126%)" offset="0.664062"/><stop stop-opacity="1" stop-color="rgb(21.972656%, 66.195679%, 12.294006%)" offset="0.671875"/><stop stop-opacity="1" stop-color="rgb(22.073364%, 66.520691%, 12.345886%)" offset="0.679688"/><stop stop-opacity="1" stop-color="rgb(22.174072%, 66.845703%, 12.399292%)" offset="0.6875"/><stop stop-opacity="1" stop-color="rgb(22.276306%, 67.170715%, 12.451172%)" offset="0.695312"/><stop stop-opacity="1" stop-color="rgb(22.377014%, 67.495728%, 12.503052%)" offset="0.703125"/><stop stop-opacity="1" stop-color="rgb(22.477722%, 67.819214%, 12.554932%)" offset="0.710938"/><stop stop-opacity="1" stop-color="rgb(22.57843%, 68.144226%, 12.606812%)" offset="0.71875"/><stop stop-opacity="1" stop-color="rgb(22.680664%, 68.469238%, 12.658691%)" offset="0.726562"/><stop stop-opacity="1" stop-color="rgb(22.781372%, 68.79425%, 12.712097%)" offset="0.734375"/><stop stop-opacity="1" stop-color="rgb(22.88208%, 69.119263%, 12.763977%)" offset="0.742188"/><stop stop-opacity="1" stop-color="rgb(22.982788%, 69.444275%, 12.815857%)" offset="0.75"/><stop stop-opacity="1" stop-color="rgb(23.085022%, 69.767761%, 12.867737%)" offset="0.757812"/><stop stop-opacity="1" stop-color="rgb(23.18573%, 70.092773%, 12.919617%)" offset="0.765625"/><stop stop-opacity="1" stop-color="rgb(23.286438%, 70.417786%, 12.971497%)" offset="0.773438"/><stop stop-opacity="1" stop-color="rgb(23.387146%, 70.742798%, 13.023376%)" offset="0.78125"/><stop stop-opacity="1" stop-color="rgb(23.48938%, 71.06781%, 13.076782%)" offset="0.789062"/><stop stop-opacity="1" stop-color="rgb(23.590088%, 71.392822%, 13.128662%)" offset="0.796875"/><stop stop-opacity="1" stop-color="rgb(23.690796%, 71.717834%, 13.180542%)" offset="0.804688"/><stop stop-opacity="1" stop-color="rgb(23.791504%, 72.041321%, 13.232422%)" offset="0.8125"/><stop stop-opacity="1" stop-color="rgb(23.893738%, 72.366333%, 13.284302%)" offset="0.820312"/><stop stop-opacity="1" stop-color="rgb(23.994446%, 72.691345%, 13.336182%)" offset="0.828125"/><stop stop-opacity="1" stop-color="rgb(24.095154%, 73.016357%, 13.388062%)" offset="0.835938"/><stop stop-opacity="1" stop-color="rgb(24.195862%, 73.34137%, 13.441467%)" offset="0.84375"/><stop stop-opacity="1" stop-color="rgb(24.298096%, 73.666382%, 13.493347%)" offset="0.851562"/><stop stop-opacity="1" stop-color="rgb(24.398804%, 73.989868%, 13.545227%)" offset="0.859375"/><stop stop-opacity="1" stop-color="rgb(24.499512%, 74.31488%, 13.597107%)" offset="0.867188"/><stop stop-opacity="1" stop-color="rgb(24.601746%, 74.639893%, 13.648987%)" offset="0.875"/><stop stop-opacity="1" stop-color="rgb(24.702454%, 74.964905%, 13.700867%)" offset="0.882812"/><stop stop-opacity="1" stop-color="rgb(24.803162%, 75.289917%, 13.754272%)" offset="0.890625"/><stop stop-opacity="1" stop-color="rgb(24.90387%, 75.614929%, 13.806152%)" offset="0.898438"/><stop stop-opacity="1" stop-color="rgb(25.006104%, 75.938416%, 13.858032%)" offset="0.90625"/><stop stop-opacity="1" stop-color="rgb(25.106812%, 76.263428%, 13.909912%)" offset="0.914062"/><stop stop-opacity="1" stop-color="rgb(25.20752%, 76.58844%, 13.961792%)" offset="0.921875"/><stop stop-opacity="1" stop-color="rgb(25.308228%, 76.913452%, 14.013672%)" offset="0.929688"/><stop stop-opacity="1" stop-color="rgb(25.410461%, 77.238464%, 14.065552%)" offset="0.9375"/><stop stop-opacity="1" stop-color="rgb(25.511169%, 77.563477%, 14.118958%)" offset="0.945312"/><stop stop-opacity="1" stop-color="rgb(25.611877%, 77.886963%, 14.170837%)" offset="0.953125"/><stop stop-opacity="1" stop-color="rgb(25.712585%, 78.211975%, 14.222717%)" offset="0.960938"/><stop stop-opacity="1" stop-color="rgb(25.814819%, 78.536987%, 14.274597%)" offset="0.96875"/><stop stop-opacity="1" stop-color="rgb(25.915527%, 78.862%, 14.326477%)" offset="0.976562"/><stop stop-opacity="1" stop-color="rgb(26.016235%, 79.187012%, 14.378357%)" offset="0.984375"/><stop stop-opacity="1" stop-color="rgb(26.116943%, 79.512024%, 14.430237%)" offset="0.992188"/><stop stop-opacity="1" stop-color="rgb(26.219177%, 79.83551%, 14.483643%)" offset="1"/></linearGradient><clipPath id="464093c688"><rect x="0" width="303" y="0" height="68"/></clipPath><clipPath id="3efab820b7"><path d="M 140.578125 350.097656 L 442.894531 350.097656 L 442.894531 365.257812 L 140.578125 365.257812 Z M 140.578125 350.097656 " clip-rule="nonzero"/></clipPath><clipPath id="31aa495be5"><path d="M 442.878906 365.257812 C 442.878906 357 374.058594 350.097656 291.726562 350.097656 C 209.398438 350.097656 140.578125 357 140.578125 365.257812 Z M 442.878906 365.257812 " clip-rule="nonzero"/></clipPath><clipPath id="2a3f30b5ae"><path d="M 0.578125 0.0976562 L 302.894531 0.0976562 L 302.894531 15.257812 L 0.578125 15.257812 Z M 0.578125 0.0976562 " clip-rule="nonzero"/></clipPath><clipPath id="7717120541"><path d="M 302.878906 15.257812 C 302.878906 7 234.058594 0.0976562 151.726562 0.0976562 C 69.398438 0.0976562 0.578125 7 0.578125 15.257812 Z M 302.878906 15.257812 " clip-rule="nonzero"/></clipPath><clipPath id="d31a0a2afc"><rect x="0" width="303" y="0" height="16"/></clipPath><clipPath id="80ec8a6d24"><path d="M 520.582031 344.753906 L 598.800781 344.753906 L 598.800781 545.707031 L 520.582031 545.707031 Z M 520.582031 344.753906 " clip-rule="nonzero"/></clipPath><clipPath id="3d04e15973"><path d="M 0.582031 0.753906 L 78.800781 0.753906 L 78.800781 201.707031 L 0.582031 201.707031 Z M 0.582031 0.753906 " clip-rule="nonzero"/></clipPath><clipPath id="2af53ceca9"><rect x="0" width="79" y="0" height="202"/></clipPath><clipPath id="940a01842a"><path d="M 520.582031 344.753906 L 598.582031 344.753906 L 598.582031 545.691406 L 520.582031 545.691406 Z M 520.582031 344.753906 " clip-rule="nonzero"/></clipPath><clipPath id="dc9e56ce49"><path d="M 469.691406 232.902344 L 649.691406 232.902344 L 649.691406 433 L 469.691406 433 Z M 469.691406 232.902344 " clip-rule="nonzero"/></clipPath><clipPath id="13e42558b6"><path d="M 529.722656 427.949219 C 538.953125 430.777344 549.445312 432.632812 559.742188 432.632812 C 570.039062 432.632812 579.945312 431.042969 589.078125 428.210938 C 589.273438 428.125 589.464844 428.125 589.660156 428.035156 C 623.949219 416.71875 649.207031 386.835938 649.691406 351.910156 L 649.691406 232.902344 L 469.691406 232.902344 L 469.691406 351.820312 C 470.175781 387.011719 495.042969 416.894531 529.722656 427.949219 Z M 529.722656 427.949219 " clip-rule="nonzero"/></clipPath><clipPath id="3737b1ace2"><path d="M 0.691406 0.902344 L 180.691406 0.902344 L 180.691406 200.71875 L 0.691406 200.71875 Z M 0.691406 0.902344 " clip-rule="nonzero"/></clipPath><clipPath id="f117e88bd3"><path d="M 60.722656 195.949219 C 69.953125 198.777344 80.445312 200.632812 90.742188 200.632812 C 101.039062 200.632812 110.945312 199.042969 120.078125 196.210938 C 120.273438 196.125 120.464844 196.125 120.660156 196.035156 C 154.949219 184.71875 180.207031 154.835938 180.691406 119.910156 L 180.691406 0.902344 L 0.691406 0.902344 L 0.691406 119.820312 C 1.175781 155.011719 26.042969 184.894531 60.722656 195.949219 Z M 60.722656 195.949219 " clip-rule="nonzero"/></clipPath><clipPath id="78f262c778"><rect x="0" width="181" y="0" height="201"/></clipPath><clipPath id="8a984e897a"><path d="M 469.691406 232.902344 L 649.691406 232.902344 L 649.691406 432.402344 L 469.691406 432.402344 Z M 469.691406 232.902344 " clip-rule="nonzero"/></clipPath><clipPath id="1094cbbb45"><path d="M 529.722656 427.9375 C 538.953125 430.769531 549.441406 432.625 559.738281 432.625 C 570.035156 432.625 579.945312 431.035156 589.074219 428.203125 C 589.269531 428.117188 589.464844 428.117188 589.65625 428.027344 C 623.945312 416.710938 649.203125 386.828125 649.6875 351.90625 L 649.6875 232.902344 L 469.691406 232.902344 L 469.691406 351.816406 C 470.179688 387.003906 495.046875 416.886719 529.722656 427.9375 Z M 529.722656 427.9375 " clip-rule="nonzero"/></clipPath></defs><rect x="-75" width="900" fill="#ffffff" y="-74.999999" height="899.999994" fill-opacity="1"/><rect x="-75" width="900" fill="#ffffff" y="-74.999999" height="899.999994" fill-opacity="1"/><g clip-path="url(#7232351220)"><g transform="matrix(1, 0, 0, 1, 220, 354)"><g clip-path="url(#6a2e75d106)"><g clip-path="url(#18bd7b2f00)"><path fill="#ffffff" d="M 0.722656 0.546875 L 149.332031 0.546875 L 149.332031 191.535156 L 0.722656 191.535156 Z M 0.722656 0.546875 " fill-opacity="1" fill-rule="nonzero"/></g></g></g></g><g clip-path="url(#5ff8c3f887)"><path stroke-linecap="butt" transform="matrix(0.75, 0, 0, 0.75, 220.722647, 354.551897)" fill="none" stroke-linejoin="miter" d="M 0.0000122087 -0.00148783 L 198.14066 -0.00148783 L 198.14066 254.868333 L 0.0000122087 254.868333 Z M 0.0000122087 -0.00148783 " stroke="#000000" stroke-width="42" stroke-opacity="1" stroke-miterlimit="4"/></g><g clip-path="url(#e205f15625)"><g clip-path="url(#2ccb47ccc2)"><g transform="matrix(1, 0, 0, 1, 125, 337)"><g clip-path="url(#dd15482c00)"><g clip-path="url(#58bb3a9ab1)"><g clip-path="url(#7c411857e4)"><path fill="#ffffff" d="M -15.769531 0.238281 L 350.601562 0.238281 L 350.601562 183.066406 L -15.769531 183.066406 Z M -15.769531 0.238281 " fill-opacity="1" fill-rule="nonzero"/></g></g></g></g></g></g><g clip-path="url(#5d65cddb5a)"><g clip-path="url(#93b42b0148)"><path stroke-linecap="butt" transform="matrix(0.75, 0, 0, 0.75, 109.228944, 337.238324)" fill="none" stroke-linejoin="miter" d="M 158.423906 243.765564 L 329.918695 243.765564 C 388.564527 243.765564 439.55411 203.552023 453.225985 146.520774 L 465.033276 97.244733 C 470.663485 73.760358 465.220776 48.989525 450.267651 30.025984 C 435.314527 11.062442 412.496819 -0.000057487 388.345777 -0.000057487 L 99.996824 -0.000057487 C 75.845782 -0.000057487 53.028074 11.062442 38.074949 30.025984 C 23.121825 48.989525 17.679116 73.760358 23.309325 97.244733 L 35.121824 146.520774 C 48.788491 203.552023 99.783282 243.765564 158.423906 243.765564 Z M 158.423906 243.765564 " stroke="#000000" stroke-width="54" stroke-opacity="1" stroke-miterlimit="4"/></g></g><g clip-path="url(#83e31e8d0f)"><g clip-path="url(#dfa198ce8b)"><g transform="matrix(1, 0, 0, 1, 119, 290)"><g clip-path="url(#ba0f6975dd)"><g clip-path="url(#2b3f7f8b90)"><g clip-path="url(#64ddb42982)"><path fill="#ffffff" d="M 0.902344 0.6875 L 343.449219 0.6875 L 343.449219 160.128906 L 0.902344 160.128906 Z M 0.902344 0.6875 " fill-opacity="1" fill-rule="nonzero"/></g></g></g></g></g></g><g clip-path="url(#69ec31d17e)"><g clip-path="url(#1bfd6af745)"><path stroke-linecap="butt" transform="matrix(0.75, 0, 0, 0.75, 119.907659, 290.686177)" fill="none" stroke-linejoin="miter" d="M 228.321034 0.00176395 C 102.222078 0.00176395 -0.00187894 47.585097 -0.00187894 106.288221 C -0.00187894 164.991345 102.222078 212.579886 228.321034 212.579886 C 354.414782 212.579886 456.638739 164.991345 456.638739 106.288221 C 456.638739 47.585097 354.414782 0.00176395 228.321034 0.00176395 Z M 228.321034 0.00176395 " stroke="#000000" stroke-width="46" stroke-opacity="1" stroke-miterlimit="4"/></g></g><g clip-path="url(#4c668e357c)"><g clip-path="url(#cbb3b371db)"><g transform="matrix(1, 0, 0, 1, 140, 364)"><g clip-path="url(#464093c688)"><g clip-path="url(#db24c89436)"><g clip-path="url(#bbf457ab24)"><path fill="url(#e3383104a2)" d="M 302.875 67.292969 L 302.875 0.617188 L 0.574219 0.617188 L 0.574219 67.292969 Z M 302.875 67.292969 " fill-rule="nonzero"/></g></g></g></g></g></g><g clip-path="url(#3efab820b7)"><g clip-path="url(#31aa495be5)"><g transform="matrix(1, 0, 0, 1, 140, 350)"><g clip-path="url(#d31a0a2afc)"><g clip-path="url(#2a3f30b5ae)"><g clip-path="url(#7717120541)"><path fill="#3ebc22" d="M 0.578125 0.0976562 L 302.894531 0.0976562 L 302.894531 15.257812 L 0.578125 15.257812 Z M 0.578125 0.0976562 " fill-opacity="1" fill-rule="nonzero"/></g></g></g></g></g></g><g clip-path="url(#80ec8a6d24)"><g transform="matrix(1, 0, 0, 1, 520, 344)"><g clip-path="url(#2af53ceca9)"><g clip-path="url(#3d04e15973)"><path fill="#000000" d="M 0.582031 0.753906 L 78.800781 0.753906 L 78.800781 201.796875 L 0.582031 201.796875 Z M 0.582031 0.753906 " fill-opacity="1" fill-rule="nonzero"/></g></g></g></g><g clip-path="url(#940a01842a)"><path stroke-linecap="butt" transform="matrix(0.75, 0, 0, 0.75, 520.583065, 344.755784)" fill="none" stroke-linejoin="miter" d="M -0.00137871 -0.00250367 L 104.279883 -0.00250367 L 104.279883 267.914193 L -0.00137871 267.914193 Z M -0.00137871 -0.00250367 " stroke="#000000" stroke-width="38" stroke-opacity="1" stroke-miterlimit="4"/></g><g clip-path="url(#dc9e56ce49)"><g clip-path="url(#13e42558b6)"><g transform="matrix(1, 0, 0, 1, 469, 232)"><g clip-path="url(#78f262c778)"><g clip-path="url(#3737b1ace2)"><g clip-path="url(#f117e88bd3)"><path fill="#ffffff" d="M 0.691406 0.902344 L 180.691406 0.902344 L 180.691406 200.59375 L 0.691406 200.59375 Z M 0.691406 0.902344 " fill-opacity="1" fill-rule="nonzero"/></g></g></g></g></g></g><g clip-path="url(#8a984e897a)"><g clip-path="url(#1094cbbb45)"><path stroke-linecap="butt" transform="matrix(0.75, 0, 0, 0.75, 469.693348, 232.902196)" fill="none" stroke-linejoin="miter" d="M 80.039082 260.047085 C 92.346374 263.823127 106.33075 266.297085 120.059917 266.297085 C 133.789085 266.297085 147.002627 264.177293 159.174502 260.401252 C 159.434919 260.286668 159.695336 260.286668 159.950544 260.166877 C 205.669296 245.078334 239.346381 205.234582 239.992215 158.67208 L 239.992215 0.0001972 L -0.00258868 0.0001972 L -0.00258868 158.552288 C 0.648453 205.468957 33.804705 245.312709 80.039082 260.047085 Z M 80.039082 260.047085 " stroke="#000000" stroke-width="38" stroke-opacity="1" stroke-miterlimit="4"/></g></g><path stroke-linecap="butt" transform="matrix(0.0286083, 0.749454, -0.749454, 0.0286083, 519.441481, 238.721375)" fill="none" stroke-linejoin="miter" d="M 0.000390233 10.002187 L 233.300475 10.000226 " stroke="#000000" stroke-width="20" stroke-opacity="1" stroke-miterlimit="4"/><path stroke-linecap="butt" transform="matrix(0.000000001309, 0.75, -0.75, 0.000000001309, 551.562336, 238.006415)" fill="none" stroke-linejoin="miter" d="M 0.00186358 9.999782 L 243.715417 9.999782 " stroke="#000000" stroke-width="20" stroke-opacity="1" stroke-miterlimit="4"/><path stroke-linecap="butt" transform="matrix(0, 0.75, -0.75, 0, 585.822214, 243.154578)" fill="none" stroke-linejoin="miter" d="M 0.00222967 10.002536 L 233.741824 10.002536 " stroke="#000000" stroke-width="20" stroke-opacity="1" stroke-miterlimit="4"/><path stroke-linecap="butt" transform="matrix(-0.0456585, 0.748609, -0.748609, -0.0456585, 620.062892, 238.464265)" fill="none" stroke-linejoin="miter" d="M 0.0000682119 9.998231 L 234.904623 9.999813 " stroke="#000000" stroke-width="20" stroke-opacity="1" stroke-miterlimit="4"/></svg>