<svg xmlns="http://www.w3.org/2000/svg" xmlns:xlink="http://www.w3.org/1999/xlink" width="1000" zoomAndPan="magnify" viewBox="0 0 750 749.999995" height="1000" preserveAspectRatio="xMidYMid meet" version="1.0"><defs><clipPath id="2a715315f8"><path d="M 43.390625 575.546875 L 232.882812 575.546875 L 232.882812 682.1875 L 43.390625 682.1875 Z M 43.390625 575.546875 " clip-rule="nonzero"/></clipPath><clipPath id="9ccf624e40"><path d="M 0.390625 0.546875 L 189.882812 0.546875 L 189.882812 107.1875 L 0.390625 107.1875 Z M 0.390625 0.546875 " clip-rule="nonzero"/></clipPath><clipPath id="28004b8e13"><rect x="0" width="190" y="0" height="108"/></clipPath><clipPath id="f9ff50d107"><path d="M 138.136719 522.230469 L 327.628906 522.230469 L 327.628906 628.867188 L 138.136719 628.867188 Z M 138.136719 522.230469 " clip-rule="nonzero"/></clipPath><clipPath id="ed17492962"><path d="M 0.136719 0.230469 L 189.628906 0.230469 L 189.628906 106.867188 L 0.136719 106.867188 Z M 0.136719 0.230469 " clip-rule="nonzero"/></clipPath><clipPath id="0c9eac136e"><rect x="0" width="190" y="0" height="107"/></clipPath><clipPath id="6e2b68b634"><path d="M 232.882812 468.910156 L 422.371094 468.910156 L 422.371094 575.546875 L 232.882812 575.546875 Z M 232.882812 468.910156 " clip-rule="nonzero"/></clipPath><clipPath id="89f6efac4c"><path d="M 0.882812 0.910156 L 190.371094 0.910156 L 190.371094 107.546875 L 0.882812 107.546875 Z M 0.882812 0.910156 " clip-rule="nonzero"/></clipPath><clipPath id="4be890d141"><rect x="0" width="191" y="0" height="108"/></clipPath><clipPath id="6a3e971775"><path d="M 327.628906 415.59375 L 517.117188 415.59375 L 517.117188 522.230469 L 327.628906 522.230469 Z M 327.628906 415.59375 " clip-rule="nonzero"/></clipPath><clipPath id="098f59f9d2"><path d="M 0.628906 0.59375 L 190.117188 0.59375 L 190.117188 107.230469 L 0.628906 107.230469 Z M 0.628906 0.59375 " clip-rule="nonzero"/></clipPath><clipPath id="54d38572b5"><rect x="0" width="191" y="0" height="108"/></clipPath><clipPath id="553a8270d3"><path d="M 422.371094 364.46875 L 611.863281 364.46875 L 611.863281 471.105469 L 422.371094 471.105469 Z M 422.371094 364.46875 " clip-rule="nonzero"/></clipPath><clipPath id="066913f09c"><path d="M 0.371094 0.46875 L 189.863281 0.46875 L 189.863281 107.105469 L 0.371094 107.105469 Z M 0.371094 0.46875 " clip-rule="nonzero"/></clipPath><clipPath id="e61c079d7d"><rect x="0" width="190" y="0" height="108"/></clipPath><clipPath id="6befc94e18"><path d="M 517.117188 311.148438 L 706.609375 311.148438 L 706.609375 417.785156 L 517.117188 417.785156 Z M 517.117188 311.148438 " clip-rule="nonzero"/></clipPath><clipPath id="3f7a91f292"><path d="M 0.117188 0.148438 L 189.609375 0.148438 L 189.609375 106.785156 L 0.117188 106.785156 Z M 0.117188 0.148438 " clip-rule="nonzero"/></clipPath><clipPath id="36595fdfc0"><rect x="0" width="190" y="0" height="107"/></clipPath><clipPath id="c358dbcb3e"><path d="M 84 83 L 429 83 L 429 328 L 84 328 Z M 84 83 " clip-rule="nonzero"/></clipPath><clipPath id="30c5bb2710"><path d="M 54.832031 227.007812 L 382.609375 24.25 L 474.15625 172.242188 L 146.375 375 Z M 54.832031 227.007812 " clip-rule="nonzero"/></clipPath><clipPath id="2620fff670"><path d="M 428.382812 98.246094 L 286.933594 83.433594 L 316.523438 131.269531 L 84.421875 274.84375 L 116.785156 327.160156 L 348.886719 183.589844 L 378.480469 231.425781 Z M 428.382812 98.246094 " clip-rule="nonzero"/></clipPath><clipPath id="74a0ece9b9"><path d="M 0.238281 0.28125 L 344.398438 0.28125 L 344.398438 244.359375 L 0.238281 244.359375 Z M 0.238281 0.28125 " clip-rule="nonzero"/></clipPath><clipPath id="75649265f1"><path d="M -29.167969 144.007812 L 298.609375 -58.75 L 390.15625 89.242188 L 62.375 292 Z M -29.167969 144.007812 " clip-rule="nonzero"/></clipPath><clipPath id="33c819fae2"><path d="M 344.382812 15.246094 L 202.933594 0.433594 L 232.523438 48.269531 L 0.421875 191.84375 L 32.785156 244.160156 L 264.886719 100.589844 L 294.480469 148.425781 Z M 344.382812 15.246094 " clip-rule="nonzero"/></clipPath><clipPath id="9223313fff"><rect x="0" width="345" y="0" height="245"/></clipPath><clipPath id="8153c83297"><path d="M 84 83 L 429 83 L 429 328 L 84 328 Z M 84 83 " clip-rule="nonzero"/></clipPath><clipPath id="1415813802"><path d="M 54.832031 227.007812 L 382.675781 24.207031 L 474.214844 172.1875 L 146.367188 374.984375 Z M 54.832031 227.007812 " clip-rule="nonzero"/></clipPath><clipPath id="a34b9976a7"><path d="M 54.835938 227.003906 L 383.707031 23.570312 L 476.175781 173.058594 L 147.304688 376.492188 Z M 54.835938 227.003906 " clip-rule="nonzero"/></clipPath><clipPath id="467c96f0ba"><path d="M 428.375 98.25 L 286.929688 83.433594 L 316.519531 131.269531 L 84.425781 274.839844 L 116.789062 327.15625 L 348.882812 183.585938 L 378.472656 231.421875 Z M 428.375 98.25 " clip-rule="nonzero"/></clipPath><clipPath id="aaa26295f1"><path d="M 161 179 L 501 179 L 501 428 L 161 428 Z M 161 179 " clip-rule="nonzero"/></clipPath><clipPath id="125822cc04"><path d="M 531.015625 278.125 L 208.816406 489.636719 L 113.316406 344.164062 L 435.519531 132.652344 Z M 531.015625 278.125 " clip-rule="nonzero"/></clipPath><clipPath id="d1e9db7f6b"><path d="M 161.070312 416.898438 L 302.863281 427.898438 L 271.996094 380.875 L 500.148438 231.101562 L 466.386719 179.675781 L 238.234375 329.449219 L 207.367188 282.425781 Z M 161.070312 416.898438 " clip-rule="nonzero"/></clipPath><clipPath id="0236fd211f"><path d="M 0.0390625 0.519531 L 339.160156 0.519531 L 339.160156 248.921875 L 0.0390625 248.921875 Z M 0.0390625 0.519531 " clip-rule="nonzero"/></clipPath><clipPath id="8492e33cb5"><path d="M 370.015625 99.125 L 47.816406 310.636719 L -47.683594 165.164062 L 274.519531 -46.347656 Z M 370.015625 99.125 " clip-rule="nonzero"/></clipPath><clipPath id="b5cdbe318b"><path d="M 0.0703125 237.898438 L 141.863281 248.898438 L 110.996094 201.875 L 339.148438 52.101562 L 305.386719 0.675781 L 77.234375 150.449219 L 46.367188 103.425781 Z M 0.0703125 237.898438 " clip-rule="nonzero"/></clipPath><clipPath id="5561d8f235"><rect x="0" width="340" y="0" height="249"/></clipPath><clipPath id="03fd462062"><path d="M 161 179 L 501 179 L 501 428 L 161 428 Z M 161 179 " clip-rule="nonzero"/></clipPath><clipPath id="e43b8672d4"><path d="M 531.015625 278.125 L 208.75 489.679688 L 113.261719 344.222656 L 435.527344 132.667969 Z M 531.015625 278.125 " clip-rule="nonzero"/></clipPath><clipPath id="2039fe3138"><path d="M 531.011719 278.128906 L 207.738281 490.34375 L 111.277344 343.402344 L 434.550781 131.1875 Z M 531.011719 278.128906 " clip-rule="nonzero"/></clipPath><clipPath id="e0f077fe1f"><path d="M 161.078125 416.898438 L 302.867188 427.898438 L 272 380.875 L 500.144531 231.109375 L 466.382812 179.683594 L 238.242188 329.449219 L 207.371094 282.429688 Z M 161.078125 416.898438 " clip-rule="nonzero"/></clipPath></defs><rect x="-75" width="900" fill="#ffffff" y="-74.999999" height="899.999994" fill-opacity="1"/><rect x="-75" width="900" fill="#ffffff" y="-74.999999" height="899.999994" fill-opacity="1"/><g clip-path="url(#2a715315f8)"><g transform="matrix(1, 0, 0, 1, 43, 575)"><g clip-path="url(#28004b8e13)"><g clip-path="url(#9ccf624e40)"><path fill="#000000" d="M 0.390625 0.546875 L 189.921875 0.546875 L 189.921875 107.1875 L 0.390625 107.1875 Z M 0.390625 0.546875 " fill-opacity="1" fill-rule="nonzero"/></g></g></g></g><g clip-path="url(#f9ff50d107)"><g transform="matrix(1, 0, 0, 1, 138, 522)"><g clip-path="url(#0c9eac136e)"><g clip-path="url(#ed17492962)"><path fill="#000000" d="M 0.136719 0.230469 L 189.667969 0.230469 L 189.667969 106.867188 L 0.136719 106.867188 Z M 0.136719 0.230469 " fill-opacity="1" fill-rule="nonzero"/></g></g></g></g><g clip-path="url(#6e2b68b634)"><g transform="matrix(1, 0, 0, 1, 232, 468)"><g clip-path="url(#4be890d141)"><g clip-path="url(#89f6efac4c)"><path fill="#000000" d="M 0.882812 0.910156 L 190.414062 0.910156 L 190.414062 107.546875 L 0.882812 107.546875 Z M 0.882812 0.910156 " fill-opacity="1" fill-rule="nonzero"/></g></g></g></g><g clip-path="url(#6a3e971775)"><g transform="matrix(1, 0, 0, 1, 327, 415)"><g clip-path="url(#54d38572b5)"><g clip-path="url(#098f59f9d2)"><path fill="#000000" d="M 0.628906 0.59375 L 190.160156 0.59375 L 190.160156 107.230469 L 0.628906 107.230469 Z M 0.628906 0.59375 " fill-opacity="1" fill-rule="nonzero"/></g></g></g></g><g clip-path="url(#553a8270d3)"><g transform="matrix(1, 0, 0, 1, 422, 364)"><g clip-path="url(#e61c079d7d)"><g clip-path="url(#066913f09c)"><path fill="#000000" d="M 0.371094 0.46875 L 189.902344 0.46875 L 189.902344 107.105469 L 0.371094 107.105469 Z M 0.371094 0.46875 " fill-opacity="1" fill-rule="nonzero"/></g></g></g></g><g clip-path="url(#6befc94e18)"><g transform="matrix(1, 0, 0, 1, 517, 311)"><g clip-path="url(#36595fdfc0)"><g clip-path="url(#3f7a91f292)"><path fill="#000000" d="M 0.117188 0.148438 L 189.648438 0.148438 L 189.648438 106.785156 L 0.117188 106.785156 Z M 0.117188 0.148438 " fill-opacity="1" fill-rule="nonzero"/></g></g></g></g><g clip-path="url(#c358dbcb3e)"><g clip-path="url(#30c5bb2710)"><g clip-path="url(#2620fff670)"><g transform="matrix(1, 0, 0, 1, 84, 83)"><g clip-path="url(#9223313fff)"><g clip-path="url(#74a0ece9b9)"><g clip-path="url(#75649265f1)"><g clip-path="url(#33c819fae2)"><path fill="#fcfcfd" d="M -29.167969 144.007812 L 298.609375 -58.75 L 390.15625 89.242188 L 62.375 292 Z M -29.167969 144.007812 " fill-opacity="1" fill-rule="nonzero"/></g></g></g></g></g></g></g></g><g clip-path="url(#8153c83297)"><g clip-path="url(#1415813802)"><g clip-path="url(#a34b9976a7)"><g clip-path="url(#467c96f0ba)"><path stroke-linecap="butt" transform="matrix(0.637833, -0.394549, 0.394549, 0.637833, 54.836357, 227.003783)" fill="none" stroke-linejoin="miter" d="M 513.875538 116.010691 L 363.879656 -0.00272621 L 363.879196 74.994593 L -0.00102195 74.997165 L 0.000693669 157.020349 L 363.880911 157.017778 L 363.880451 232.015097 Z M 513.875538 116.010691 " stroke="#000000" stroke-width="40" stroke-opacity="1" stroke-miterlimit="4"/></g></g></g></g><g clip-path="url(#aaa26295f1)"><g clip-path="url(#125822cc04)"><g clip-path="url(#d1e9db7f6b)"><g transform="matrix(1, 0, 0, 1, 161, 179)"><g clip-path="url(#5561d8f235)"><g clip-path="url(#0236fd211f)"><g clip-path="url(#8492e33cb5)"><g clip-path="url(#b5cdbe318b)"><path fill="#fcfcfd" d="M 370.015625 99.125 L 47.816406 310.636719 L -47.683594 165.164062 L 274.519531 -46.347656 Z M 370.015625 99.125 " fill-opacity="1" fill-rule="nonzero"/></g></g></g></g></g></g></g></g><g clip-path="url(#03fd462062)"><g clip-path="url(#e43b8672d4)"><g clip-path="url(#2039fe3138)"><g clip-path="url(#e0f077fe1f)"><path stroke-linecap="butt" transform="matrix(-0.626975, 0.411584, -0.411584, -0.626975, 531.010753, 278.129214)" fill="none" stroke-linejoin="miter" d="M 513.873729 116.006377 L 363.881104 -0.00233144 L 363.879076 74.99678 L -0.00047218 74.994394 L 0.00259183 157.018405 L 363.877786 157.017932 L 363.88297 232.015548 Z M 513.873729 116.006377 " stroke="#000000" stroke-width="40" stroke-opacity="1" stroke-miterlimit="4"/></g></g></g></g></svg>