<svg xmlns="http://www.w3.org/2000/svg" xmlns:xlink="http://www.w3.org/1999/xlink" width="1000" zoomAndPan="magnify" viewBox="0 0 750 749.999995" height="1000" preserveAspectRatio="xMidYMid meet" version="1.0"><defs><clipPath id="2cd0e1dcfa"><path d="M 43.390625 575.546875 L 232.882812 575.546875 L 232.882812 682.1875 L 43.390625 682.1875 Z M 43.390625 575.546875 " clip-rule="nonzero"/></clipPath><clipPath id="144ac0aa08"><path d="M 0.390625 0.546875 L 189.882812 0.546875 L 189.882812 107.1875 L 0.390625 107.1875 Z M 0.390625 0.546875 " clip-rule="nonzero"/></clipPath><clipPath id="9d55cf2650"><rect x="0" width="190" y="0" height="108"/></clipPath><clipPath id="af2f4fa6e8"><path d="M 138.136719 522.230469 L 327.628906 522.230469 L 327.628906 628.867188 L 138.136719 628.867188 Z M 138.136719 522.230469 " clip-rule="nonzero"/></clipPath><clipPath id="ad5fabb172"><path d="M 0.136719 0.230469 L 189.628906 0.230469 L 189.628906 106.867188 L 0.136719 106.867188 Z M 0.136719 0.230469 " clip-rule="nonzero"/></clipPath><clipPath id="5b225020d4"><rect x="0" width="190" y="0" height="107"/></clipPath><clipPath id="bfe9c29d4b"><path d="M 232.882812 468.910156 L 422.371094 468.910156 L 422.371094 575.546875 L 232.882812 575.546875 Z M 232.882812 468.910156 " clip-rule="nonzero"/></clipPath><clipPath id="f2615870ce"><path d="M 0.882812 0.910156 L 190.371094 0.910156 L 190.371094 107.546875 L 0.882812 107.546875 Z M 0.882812 0.910156 " clip-rule="nonzero"/></clipPath><clipPath id="1e28114097"><rect x="0" width="191" y="0" height="108"/></clipPath><clipPath id="5281b21d23"><path d="M 327.628906 415.59375 L 517.117188 415.59375 L 517.117188 522.230469 L 327.628906 522.230469 Z M 327.628906 415.59375 " clip-rule="nonzero"/></clipPath><clipPath id="2e13a169b0"><path d="M 0.628906 0.59375 L 190.117188 0.59375 L 190.117188 107.230469 L 0.628906 107.230469 Z M 0.628906 0.59375 " clip-rule="nonzero"/></clipPath><clipPath id="02d829d195"><rect x="0" width="191" y="0" height="108"/></clipPath><clipPath id="6f529a5707"><path d="M 422.371094 364.46875 L 611.863281 364.46875 L 611.863281 471.105469 L 422.371094 471.105469 Z M 422.371094 364.46875 " clip-rule="nonzero"/></clipPath><clipPath id="20c39cfedb"><path d="M 0.371094 0.46875 L 189.863281 0.46875 L 189.863281 107.105469 L 0.371094 107.105469 Z M 0.371094 0.46875 " clip-rule="nonzero"/></clipPath><clipPath id="cc2e342c5b"><rect x="0" width="190" y="0" height="108"/></clipPath><clipPath id="16e8f0a2e7"><path d="M 517.117188 311.148438 L 706.609375 311.148438 L 706.609375 417.785156 L 517.117188 417.785156 Z M 517.117188 311.148438 " clip-rule="nonzero"/></clipPath><clipPath id="24c907fbd5"><path d="M 0.117188 0.148438 L 189.609375 0.148438 L 189.609375 106.785156 L 0.117188 106.785156 Z M 0.117188 0.148438 " clip-rule="nonzero"/></clipPath><clipPath id="b721e92a64"><rect x="0" width="190" y="0" height="107"/></clipPath><clipPath id="3d91438a5e"><path d="M 84 83 L 429 83 L 429 328 L 84 328 Z M 84 83 " clip-rule="nonzero"/></clipPath><clipPath id="5beb16855d"><path d="M 54.832031 227.007812 L 382.609375 24.25 L 474.15625 172.242188 L 146.375 375 Z M 54.832031 227.007812 " clip-rule="nonzero"/></clipPath><clipPath id="e2afa172d0"><path d="M 428.382812 98.246094 L 286.933594 83.433594 L 316.523438 131.269531 L 84.421875 274.84375 L 116.785156 327.160156 L 348.886719 183.589844 L 378.480469 231.425781 Z M 428.382812 98.246094 " clip-rule="nonzero"/></clipPath><clipPath id="2b7155a7c9"><path d="M 0.238281 0.28125 L 344.398438 0.28125 L 344.398438 244.359375 L 0.238281 244.359375 Z M 0.238281 0.28125 " clip-rule="nonzero"/></clipPath><clipPath id="f9bc7eb385"><path d="M -29.167969 144.007812 L 298.609375 -58.75 L 390.15625 89.242188 L 62.375 292 Z M -29.167969 144.007812 " clip-rule="nonzero"/></clipPath><clipPath id="8d522f30a5"><path d="M 344.382812 15.246094 L 202.933594 0.433594 L 232.523438 48.269531 L 0.421875 191.84375 L 32.785156 244.160156 L 264.886719 100.589844 L 294.480469 148.425781 Z M 344.382812 15.246094 " clip-rule="nonzero"/></clipPath><clipPath id="9d3f3537f0"><rect x="0" width="345" y="0" height="245"/></clipPath><clipPath id="e69182ac58"><path d="M 84 83 L 429 83 L 429 328 L 84 328 Z M 84 83 " clip-rule="nonzero"/></clipPath><clipPath id="e3bd4446c5"><path d="M 54.832031 227.007812 L 382.675781 24.207031 L 474.214844 172.1875 L 146.367188 374.984375 Z M 54.832031 227.007812 " clip-rule="nonzero"/></clipPath><clipPath id="9dce909cba"><path d="M 54.835938 227.003906 L 383.707031 23.570312 L 476.175781 173.058594 L 147.304688 376.492188 Z M 54.835938 227.003906 " clip-rule="nonzero"/></clipPath><clipPath id="5f6cea0a5c"><path d="M 428.375 98.25 L 286.929688 83.433594 L 316.519531 131.269531 L 84.425781 274.839844 L 116.789062 327.15625 L 348.882812 183.585938 L 378.472656 231.421875 Z M 428.375 98.25 " clip-rule="nonzero"/></clipPath><clipPath id="4e3f643827"><path d="M 161 179 L 501 179 L 501 428 L 161 428 Z M 161 179 " clip-rule="nonzero"/></clipPath><clipPath id="163d9eebef"><path d="M 531.015625 278.125 L 208.816406 489.636719 L 113.316406 344.164062 L 435.519531 132.652344 Z M 531.015625 278.125 " clip-rule="nonzero"/></clipPath><clipPath id="7cc2f0dfec"><path d="M 161.070312 416.898438 L 302.863281 427.898438 L 271.996094 380.875 L 500.148438 231.101562 L 466.386719 179.675781 L 238.234375 329.449219 L 207.367188 282.425781 Z M 161.070312 416.898438 " clip-rule="nonzero"/></clipPath><clipPath id="6bb4cb6898"><path d="M 0.0390625 0.519531 L 339.160156 0.519531 L 339.160156 248.921875 L 0.0390625 248.921875 Z M 0.0390625 0.519531 " clip-rule="nonzero"/></clipPath><clipPath id="561c2c1196"><path d="M 370.015625 99.125 L 47.816406 310.636719 L -47.683594 165.164062 L 274.519531 -46.347656 Z M 370.015625 99.125 " clip-rule="nonzero"/></clipPath><clipPath id="423a1232c6"><path d="M 0.0703125 237.898438 L 141.863281 248.898438 L 110.996094 201.875 L 339.148438 52.101562 L 305.386719 0.675781 L 77.234375 150.449219 L 46.367188 103.425781 Z M 0.0703125 237.898438 " clip-rule="nonzero"/></clipPath><clipPath id="10565010a6"><rect x="0" width="340" y="0" height="249"/></clipPath><clipPath id="de525cefcc"><path d="M 161 179 L 501 179 L 501 428 L 161 428 Z M 161 179 " clip-rule="nonzero"/></clipPath><clipPath id="df9f05c7fe"><path d="M 531.015625 278.125 L 208.75 489.679688 L 113.261719 344.222656 L 435.527344 132.667969 Z M 531.015625 278.125 " clip-rule="nonzero"/></clipPath><clipPath id="b65f8e5c1b"><path d="M 531.011719 278.128906 L 207.738281 490.34375 L 111.277344 343.402344 L 434.550781 131.1875 Z M 531.011719 278.128906 " clip-rule="nonzero"/></clipPath><clipPath id="6fc214f259"><path d="M 161.078125 416.898438 L 302.867188 427.898438 L 272 380.875 L 500.144531 231.109375 L 466.382812 179.683594 L 238.242188 329.449219 L 207.371094 282.429688 Z M 161.078125 416.898438 " clip-rule="nonzero"/></clipPath></defs><g clip-path="url(#2cd0e1dcfa)"><g transform="matrix(1, 0, 0, 1, 43, 575)"><g clip-path="url(#9d55cf2650)"><g clip-path="url(#144ac0aa08)"><path fill="#000000" d="M 0.390625 0.546875 L 189.921875 0.546875 L 189.921875 107.1875 L 0.390625 107.1875 Z M 0.390625 0.546875 " fill-opacity="1" fill-rule="nonzero"/></g></g></g></g><g clip-path="url(#af2f4fa6e8)"><g transform="matrix(1, 0, 0, 1, 138, 522)"><g clip-path="url(#5b225020d4)"><g clip-path="url(#ad5fabb172)"><path fill="#000000" d="M 0.136719 0.230469 L 189.667969 0.230469 L 189.667969 106.867188 L 0.136719 106.867188 Z M 0.136719 0.230469 " fill-opacity="1" fill-rule="nonzero"/></g></g></g></g><g clip-path="url(#bfe9c29d4b)"><g transform="matrix(1, 0, 0, 1, 232, 468)"><g clip-path="url(#1e28114097)"><g clip-path="url(#f2615870ce)"><path fill="#000000" d="M 0.882812 0.910156 L 190.414062 0.910156 L 190.414062 107.546875 L 0.882812 107.546875 Z M 0.882812 0.910156 " fill-opacity="1" fill-rule="nonzero"/></g></g></g></g><g clip-path="url(#5281b21d23)"><g transform="matrix(1, 0, 0, 1, 327, 415)"><g clip-path="url(#02d829d195)"><g clip-path="url(#2e13a169b0)"><path fill="#000000" d="M 0.628906 0.59375 L 190.160156 0.59375 L 190.160156 107.230469 L 0.628906 107.230469 Z M 0.628906 0.59375 " fill-opacity="1" fill-rule="nonzero"/></g></g></g></g><g clip-path="url(#6f529a5707)"><g transform="matrix(1, 0, 0, 1, 422, 364)"><g clip-path="url(#cc2e342c5b)"><g clip-path="url(#20c39cfedb)"><path fill="#000000" d="M 0.371094 0.46875 L 189.902344 0.46875 L 189.902344 107.105469 L 0.371094 107.105469 Z M 0.371094 0.46875 " fill-opacity="1" fill-rule="nonzero"/></g></g></g></g><g clip-path="url(#16e8f0a2e7)"><g transform="matrix(1, 0, 0, 1, 517, 311)"><g clip-path="url(#b721e92a64)"><g clip-path="url(#24c907fbd5)"><path fill="#000000" d="M 0.117188 0.148438 L 189.648438 0.148438 L 189.648438 106.785156 L 0.117188 106.785156 Z M 0.117188 0.148438 " fill-opacity="1" fill-rule="nonzero"/></g></g></g></g><g clip-path="url(#3d91438a5e)"><g clip-path="url(#5beb16855d)"><g clip-path="url(#e2afa172d0)"><g transform="matrix(1, 0, 0, 1, 84, 83)"><g clip-path="url(#9d3f3537f0)"><g clip-path="url(#2b7155a7c9)"><g clip-path="url(#f9bc7eb385)"><g clip-path="url(#8d522f30a5)"><path fill="#fcfcfd" d="M -29.167969 144.007812 L 298.609375 -58.75 L 390.15625 89.242188 L 62.375 292 Z M -29.167969 144.007812 " fill-opacity="1" fill-rule="nonzero"/></g></g></g></g></g></g></g></g><g clip-path="url(#e69182ac58)"><g clip-path="url(#e3bd4446c5)"><g clip-path="url(#9dce909cba)"><g clip-path="url(#5f6cea0a5c)"><path stroke-linecap="butt" transform="matrix(0.637833, -0.394549, 0.394549, 0.637833, 54.836357, 227.003783)" fill="none" stroke-linejoin="miter" d="M 513.875538 116.010691 L 363.879656 -0.00272621 L 363.879196 74.994593 L -0.00102195 74.997165 L 0.000693669 157.020349 L 363.880911 157.017778 L 363.880451 232.015097 Z M 513.875538 116.010691 " stroke="#000000" stroke-width="40" stroke-opacity="1" stroke-miterlimit="4"/></g></g></g></g><g clip-path="url(#4e3f643827)"><g clip-path="url(#163d9eebef)"><g clip-path="url(#7cc2f0dfec)"><g transform="matrix(1, 0, 0, 1, 161, 179)"><g clip-path="url(#10565010a6)"><g clip-path="url(#6bb4cb6898)"><g clip-path="url(#561c2c1196)"><g clip-path="url(#423a1232c6)"><path fill="#fcfcfd" d="M 370.015625 99.125 L 47.816406 310.636719 L -47.683594 165.164062 L 274.519531 -46.347656 Z M 370.015625 99.125 " fill-opacity="1" fill-rule="nonzero"/></g></g></g></g></g></g></g></g><g clip-path="url(#de525cefcc)"><g clip-path="url(#df9f05c7fe)"><g clip-path="url(#b65f8e5c1b)"><g clip-path="url(#6fc214f259)"><path stroke-linecap="butt" transform="matrix(-0.626975, 0.411584, -0.411584, -0.626975, 531.010753, 278.129214)" fill="none" stroke-linejoin="miter" d="M 513.873729 116.006377 L 363.881104 -0.00233144 L 363.879076 74.99678 L -0.00047218 74.994394 L 0.00259183 157.018405 L 363.877786 157.017932 L 363.88297 232.015548 Z M 513.873729 116.006377 " stroke="#000000" stroke-width="40" stroke-opacity="1" stroke-miterlimit="4"/></g></g></g></g></svg>